<svg preserveAspectRatio="none" width="100%" height="100%" overflow="visible" style="display: block;" viewBox="0 0 64.9909 239.179" fill="none" xmlns="http://www.w3.org/2000/svg">
<path id="Ellipse 41" d="M64.6021 106.761C65.0135 111.305 65.0445 115.195 64.94 118.959C64.8149 123.366 64.5073 127.572 64.2852 132.487C63.4454 152.552 61.109 179.122 56.2357 199.278C54.4305 206.822 52.2642 214.346 49.0954 221.648C45.6446 228.391 42.5921 237.85 31.606 239.179C31.3076 239.178 31.0099 239.163 30.714 239.136C29.6426 239.03 29.0613 238.791 28.6128 238.661C24.0758 237.434 20.0542 232.279 18.2894 229.273C14.2127 222.901 10.383 210.96 8.88678 204.665C8.19775 201.923 7.59481 199.221 7.48871 198.117C7.28029 197.146 7.04729 196.632 6.98581 196.376C6.9853 196.373 6.98479 196.37 6.98428 196.367C6.78464 195.543 6.43644 193.405 6.34556 192.96C6.3314 192.89 6.3283 193.334 6.13564 192.208C6.11869 192.107 6.19384 192.191 6.0132 191.24C5.95908 190.98 5.29288 187.843 5.13613 186.931C4.57369 183.905 3.567 176.658 3.13426 173.036C3.06497 172.482 2.99235 172.166 2.92042 171.576C2.88322 171.271 2.86464 170.808 2.85335 170.714C2.80018 170.288 2.43764 168.552 2.83071 169.146C2.60115 167.295 2.55826 167.851 2.48424 167.818C2.25326 165.796 2.30507 164.777 2.09402 164.28C1.11994 154.335 0.532336 144.309 0.266549 134.33C0.241918 134.328 0.217288 134.325 0.192658 134.323C0.209524 131.37 0.0295067 130.359 0.141606 128.681C0.0938194 127.646 0.0495842 126.607 0.0089469 125.564C-0.00386429 123.364 -0.00293183 121.174 0.0118403 118.959C0.218664 94.5239 1.88208 70.0873 6.58684 46.2785C6.81011 45.1778 6.89766 44.9456 7.28607 43.128C7.71477 41.1279 8.30653 38.3185 8.963 35.7467C9.54377 33.4396 10.5104 30.0918 11.2928 27.615C11.4741 27.0353 11.5816 26.6158 11.6022 26.5514C11.724 26.1745 11.7689 26.168 11.8879 25.806C12.0302 25.3734 12.1734 24.8466 12.341 24.3594C12.9954 22.4387 13.7263 20.4946 13.8326 20.2256C14.2782 19.0861 14.4158 18.8675 14.4525 18.7742C14.9579 17.5508 14.7354 18.0077 14.8688 17.6911C15.5786 16.0531 16.1328 14.9931 17.1449 12.8155C17.1442 12.887 17.1437 12.9585 17.1432 13.0302C17.9882 11.4405 17.3666 12.4546 17.5252 12.1172C17.5708 11.9383 19.5866 8.51736 19.8 8.28456C20.3824 7.42651 20.4712 7.39495 20.519 7.32446C20.6406 7.12153 22.2668 4.89979 23.3307 3.95232C24.6144 2.78032 23.1971 4.25146 23.5203 3.96593C23.5765 3.88793 24.8592 2.7292 25.1103 2.59898C25.3214 2.45593 24.1403 3.42601 24.177 3.43023C24.1497 3.40059 26.2517 1.87172 25.8826 2.21574C25.4978 2.41055 22.9056 4.69247 22.5246 5.27659C22.4486 5.36823 22.6333 5.23153 22.5652 5.31192C22.0742 5.53334 17.9522 11.9079 17.9033 12.3119C18.0734 11.9422 18.2452 11.5795 18.4185 11.2236C18.1614 11.6774 17.8967 12.1634 17.654 12.624C17.9849 11.9496 18.3405 11.2623 18.6915 10.6198C17.943 11.4795 16.6156 14.5467 16.6526 14.7329C16.6657 14.7988 17.6605 13.0032 16.8886 14.7517C17.0244 14.4919 17.1607 14.2354 17.2975 13.9825C17.5446 13.4384 17.7817 12.9322 18.0471 12.3918C17.8443 12.7503 17.668 13.0671 17.4799 13.4145C17.5327 13.2805 17.5858 13.1473 17.6391 13.0149C18.1154 12.0394 18.6607 11.0051 19.1933 10.0778C19.5081 9.57464 19.4771 9.70091 19.6952 9.36429C22.5404 5.32806 20.5656 7.9005 22.6282 5.35178C22.957 5.0074 23.2744 4.69533 23.6215 4.37426C23.4687 4.42974 24.4504 3.40046 25.9608 2.31591C25.7979 2.45959 25.6372 2.60802 25.4785 2.76113C26.9525 1.41027 30.5721 0.376242 31.606 0.545666C31.9277 0.54114 31.9801 0.523996 31.6164 0.48315C32.2477 0.49771 32.8728 0.58325 33.4781 0.732089C34.0054 0.826943 34.4978 0.959854 35.0021 1.1397C35.659 1.41038 36.2954 1.75527 36.8858 2.14134C36.8817 2.15376 36.8776 2.16617 36.8734 2.17857C36.3983 1.87069 35.9109 1.59743 35.3886 1.3578C35.7603 1.57062 36.1236 1.80908 36.4557 2.05417C36.811 2.2603 37.1621 2.48942 37.4871 2.72127C36.1097 1.71579 38.0064 2.93748 38.433 3.28671C39.5457 4.22359 40.0849 4.96013 40.3923 5.30578C40.5613 5.45062 42.2482 7.44579 41.5246 6.71244C42.3599 7.78456 43.0895 8.86497 43.7884 10.0043C44.052 10.4646 44.2879 10.8958 44.5342 11.3607C43.9398 10.3999 45.452 13.3023 44.2727 11.2015C43.3873 9.67779 43.1725 9.2713 42.7099 8.55862C42.276 7.90857 42.0326 7.62058 41.5181 6.93437C38.9835 3.63769 35.877 0.732875 31.606 0.650289C30.2596 0.640449 28.8934 0.980773 27.6577 1.57381C26.6293 2.06694 25.8635 2.64033 25.2629 3.11187C24.6279 3.62858 25.3767 2.93662 24.6031 3.61271C23.8019 4.34838 23.652 4.59455 23.4683 4.78002C23.3493 4.90408 22.945 5.28322 22.602 5.68624C21.1878 7.28741 19.6043 9.92244 19.4443 10.2118C19.2217 10.4142 16.4654 15.7264 16.4208 15.9746C16.3579 16.1103 16.3546 15.7625 15.9678 17.0125C15.8082 17.3873 15.6488 17.7699 15.4922 18.1539C15.4915 18.0834 15.4926 18.0088 15.4929 17.9363C14.6948 20.1626 14.9379 19.3905 14.1253 21.5624C12.2021 26.6971 9.96887 34.591 8.68435 40.4277C8.39404 41.7244 8.31806 42.2292 7.9868 43.8048C7.68192 45.2181 6.8392 49.0102 7.14639 48.2116C6.41589 51.3795 6.5509 51.9744 6.13399 53.5631C6.12117 53.7599 6.10853 53.9571 6.09607 54.1546C5.71906 55.8823 5.70357 56.4595 5.41768 58.3826C5.29774 59.2043 5.34635 58.24 5.20178 59.9203C5.14684 60.2381 5.09224 60.5569 5.03799 60.8766C5.02607 60.7987 5.01419 60.721 5.00235 60.6432C4.75092 62.5121 4.72564 62.6405 4.84029 62.4355C4.69804 63.3401 4.56361 64.2141 4.4293 65.1136C4.44286 65.2288 4.45648 65.3442 4.47018 65.4596C4.42435 65.0347 7.64438 44.6671 8.45665 41.8977C9.20722 38.6221 10.801 32.0726 11.6302 29.4377C11.9435 28.406 12.1348 27.9637 12.6277 26.4375C13.1074 24.9494 13.7251 23.012 14.0103 22.2305C14.7124 19.4762 20.6849 7.47861 16.7479 15.6917C16.8782 15.4734 17.0136 15.247 17.1541 15.0135C18.664 11.7261 18.1355 12.875 19.6124 10.3076C20.2561 9.16135 21.9735 6.68265 21.9871 6.90693C20.5275 8.84021 19.2747 10.899 18.2978 12.7681C18.2127 12.9079 17.1553 15.1494 16.6648 16.2415C16.2078 17.2496 16.378 16.5065 15.5707 18.8063C14.781 20.4004 14.5144 21.4924 14.3735 21.9103C14.1165 22.6808 14.0242 22.7433 13.7426 23.5234C13.4343 24.3827 13.2822 24.9836 13.2457 25.0934C12.828 26.2153 11.0126 32.4164 10.9471 32.6697C11.0022 32.4214 11.0576 32.1743 11.1134 31.9282C10.6615 33.4988 10.8207 33.1942 10.716 33.6146C10.6323 33.9283 10.5491 34.2439 10.4664 34.5614C10.4851 34.4319 10.5039 34.3027 10.5227 34.1738C10.0329 36.0848 10.4403 34.6631 9.77843 37.3328C9.35786 39.051 8.90168 40.832 8.87075 40.9903C8.86097 41.0396 9.01831 40.5093 8.86737 41.2078C8.61714 42.356 8.18198 44.425 8.0914 44.615C7.98225 45.1813 8.04236 45.1442 8.02806 45.2195C7.9505 45.5421 6.87669 51.27 6.7158 52.3165C6.22805 55.1591 5.71145 58.3506 5.2801 61.4497C5.23537 61.7709 5.23073 61.5611 5.18626 61.8836C5.10947 62.4194 4.81132 65.0286 4.76573 65.4308C4.64417 66.4167 4.30431 69.0187 4.27539 69.4171C4.27081 69.475 4.41754 68.6323 4.31491 69.6258C4.2022 70.7314 4.20887 70.1302 4.20118 70.1899C3.91921 72.4452 3.81287 73.8821 3.66553 75.4133C3.61762 75.9117 3.47801 76.8303 3.42439 77.5422C3.41819 77.624 3.47816 77.4662 3.47267 77.5467C3.3924 78.6319 3.22157 79.5992 3.17486 80.0617C3.06202 81.1855 3.17782 80.5784 3.17296 80.6369C3.10912 81.3873 3.00028 82.3989 2.91045 83.5533C2.52 88.6309 2.2572 92.8336 2.00018 98.2491C1.96824 98.9314 1.8882 99.7431 1.88376 99.8482C1.87057 100.173 1.92711 100.081 1.88828 101.021C1.8083 102.974 1.75013 104.798 1.69574 106.76C1.68489 107.155 1.63049 107.316 1.62179 107.615C1.58938 108.609 1.65764 112.039 1.49404 112.095C1.60975 114.096 1.4717 115.401 1.46347 117.011C1.46071 117.611 1.45947 118.266 1.46009 118.959C1.4593 122.655 1.5362 127.376 1.59713 130.552C1.61139 131.342 1.57744 131.728 1.58674 132.172C1.5977 132.983 1.7742 137.491 1.78258 137.748C1.78854 138.216 1.57563 137.95 1.85179 140.342C1.92755 141.744 1.83992 141.581 1.849 141.871C1.92335 144.138 2.23687 146.344 2.04504 145.938C2.24078 148.555 2.45491 150.282 2.37118 151.365C2.44757 151.346 2.57974 152.58 2.66429 154.065C2.42077 152.551 2.34215 152.764 2.12016 149.041C2.11676 148.982 2.1796 149.091 2.1762 149.032C2.14494 148.492 2.04917 147.407 1.99992 146.506C1.9509 145.606 2.01763 146.103 1.9963 145.743C1.97691 145.412 1.92454 145.426 1.89747 144.948C1.81006 143.39 1.72932 142.013 1.68825 141.138C1.66221 140.584 1.68096 139.96 1.66266 139.528C1.58775 137.846 1.42786 134.33 1.38014 132.192C1.36988 131.747 1.42483 131.933 1.40551 130.958C1.40343 130.846 1.34045 130.438 1.31203 129.593C1.28375 128.748 1.29842 128.09 1.28409 127.544C1.27239 127.088 1.22818 127.28 1.21215 126.343C1.2007 125.81 1.17186 121.793 1.1937 118.959C1.20236 117.52 1.21673 116.411 1.2203 116.249C1.23613 115.56 1.30329 115.234 1.29979 114.814C1.2989 114.74 1.23859 114.615 1.23714 114.359C1.1913 110.121 1.55187 100.78 1.82437 95.9528C2.35327 85.8596 3.09896 76.5776 4.36553 66.4479C4.37908 66.2654 4.39276 66.0831 4.40656 65.9011C4.27419 66.9239 4.14389 67.9693 4.02293 68.9744C3.99618 68.9778 3.96942 68.9812 3.94266 68.9846C3.77436 70.3599 3.85902 70.1873 3.90038 70.1519C3.82501 70.6613 3.75046 71.1728 3.67675 71.6862C3.71306 72.157 3.28736 75.5345 3.11909 77.3163C3.00546 78.4827 2.91859 79.8276 2.8622 80.4347C2.7438 81.7107 2.69031 81.675 2.68045 81.7751C2.66441 81.9391 2.56211 83.7641 2.46324 85.0303C2.31633 86.9273 2.2078 87.1294 2.10747 89.7586C1.83977 93.0806 1.66016 96.7995 1.51754 100.421C1.45937 99.7357 1.40786 102.961 1.36193 104.423C1.20818 108.929 1.10219 113.913 1.07682 118.959C1.05043 123.918 1.10185 128.842 1.21142 133.331C1.23977 134.493 1.2141 135.367 1.23767 136.01C1.25052 136.359 1.31989 136.507 1.32896 136.993C1.3306 137.079 1.27195 137.143 1.29762 138.054C1.35127 140.316 1.73843 145.927 1.71405 147.344C2.19207 155.047 2.87371 162.724 3.80925 170.395C3.80647 170.593 3.8038 170.79 3.80124 170.988C4.1014 172.442 4.78251 178.196 5.23102 180.984C5.97959 185.879 7.17534 192.164 8.11877 196.432C8.32189 197.364 8.44331 198.093 8.65167 198.998C8.73977 199.38 8.9005 199.84 8.99357 200.232C10.0223 204.631 11.6079 210.565 13.1305 214.891C14.8009 219.662 16.66 224.192 19.2738 228.511C21.8822 232.555 25.3035 237.603 31.606 237.888C31.984 237.889 32.3616 237.865 32.7375 237.819C43.1703 235.023 46.0501 224.841 49.4485 216.998C52.53 208.706 54.6449 200.082 56.3495 191.507C59.7199 174.262 61.433 156.815 62.2759 139.386C62.2979 138.918 62.373 138.945 62.3898 138.581C62.4954 136.429 62.5977 131.65 62.6526 129.243C62.704 127.326 62.8701 124.247 62.7561 123.595C62.4937 130.441 62.2693 137.666 61.8051 144.775C61.7721 145.281 61.6964 145.34 61.6914 145.402C61.5969 146.55 61.7413 145.833 61.6403 147.494C61.615 148.036 61.014 153.2 61.2813 152.592C61.1219 153.804 60.2939 162.516 60.1208 164.166C60.0761 164.67 60.1796 164.321 60.1722 164.421C60.1404 164.854 60.0281 165.047 59.9826 165.441C59.864 166.498 59.6272 169.15 59.564 169.644C59.4254 170.811 58.9039 174.266 58.7019 175.793C58.5178 177.205 58.6474 176.955 58.4783 178.164C58.3427 179.112 58.4232 178.073 58.0775 180.175C57.9039 181.263 57.3605 184.893 57.1923 185.816C57.0344 186.716 56.8022 187.701 56.5791 188.916C56.2579 190.704 55.5153 194.521 55.1239 196.337C55.1014 196.444 55.1125 196.719 55.0526 196.98C54.9283 197.52 54.8802 197.339 54.7795 197.743C54.7086 198.161 52.9512 205.296 52.5843 206.448C52.348 207.29 52.2311 207.875 52.0975 208.329C51.9924 208.685 51.9132 208.703 51.8051 209.062C51.7716 209.175 51.5502 210.13 51.2396 211.107C50.967 212.016 49.7506 215.401 49.5972 215.783C49.5053 216.034 49.6532 215.778 49.3801 216.516C49.1302 217.187 48.8853 217.644 48.7346 218.03C48.3769 218.943 48.0401 219.917 47.6173 220.899C46.4375 223.587 46.3739 223.426 46.3062 223.585C46.0829 224.032 46.0598 224.239 45.9892 224.384C45.7072 224.98 44.911 226.507 44.6084 227.029C44.2381 227.682 44.0165 227.925 43.5757 228.632C43.2491 229.152 42.6512 230.211 41.7911 231.338C39.919 233.822 36.9853 236.727 33.5491 237.452C32.5437 237.655 32.3694 237.566 32.0602 237.591C31.9024 237.598 31.7511 237.601 31.606 237.601C30.2393 237.591 29.4609 237.392 29.0602 237.283C25.619 236.454 21.9414 232.1 20.4986 229.79C19.8238 228.907 17.3353 224.633 16.2708 222.078C16.145 221.794 16.3053 222.042 16.1582 221.728C15.8072 220.971 15.7533 221.075 15.5871 220.678C15.5105 220.493 15.36 220 15.1523 219.473C14.0223 216.598 13.3167 214.612 12.8633 213.25C8.68316 200.417 6.29322 186.831 4.6329 174.401C4.45269 173.034 4.17952 171.291 3.9842 169.196C4.00286 169.129 4.02152 169.062 4.04019 168.995C4.00604 168.925 3.97192 168.855 3.93782 168.785C3.65449 166.431 3.51939 165.482 3.31013 163.083C3.29202 162.874 3.347 162.225 3.16252 161.843C3.03987 159.418 3.05598 160.742 2.8848 158.958C2.71783 157.188 2.60688 155.434 2.48234 153.69C2.45868 152.727 2.89153 156.734 2.91782 156.987C2.95258 157.406 2.91749 157.846 2.94859 158.247C3.03937 159.426 3.20674 160.595 3.16709 160.867C3.38259 162.41 3.1653 160.485 3.24568 160.672C3.31718 161.711 3.39211 162.742 3.47042 163.767C3.72112 164.247 4.08318 169.996 4.20552 169.562C4.22523 170.008 4.24845 170.476 4.27128 170.933C4.72305 172.914 4.71818 174.033 5.02787 176.718C5.02745 176.523 5.02714 176.328 5.02695 176.132C5.04388 176.189 5.41723 178.51 5.18644 177.694C5.67886 180.043 5.41755 179.978 5.93149 182.097C6.15734 183.357 5.92724 182.622 6.30154 184.863C6.53142 186.227 6.87954 187.883 7.15729 189.352C7.22245 189.698 7.19078 189.864 7.24924 190.174C7.30793 190.483 7.39627 190.623 7.46959 190.995C7.62102 191.765 7.77542 192.759 7.8753 193.229C7.96331 193.645 8.14234 194.257 8.37103 195.294C9.17804 198.882 8.87071 197.782 8.97248 198.37C9.08678 198.995 9.28754 199.419 9.5649 200.629C9.59275 200.75 9.45538 200.453 9.55232 200.845C9.63121 201.161 9.73459 201.302 10.0064 202.339C10.0936 202.796 11.8693 209.256 12.2028 210.204C12.6582 211.729 13.7084 215.073 14.2716 216.559C14.4893 217.151 14.7884 217.777 15.0296 218.393C15.8109 220.417 17.2362 223.716 18.5913 226.177C19.7288 228.423 22.2524 232.192 23.4007 233.105C25.9605 235.705 26.9632 236.033 27.1775 236.218C27.8736 236.583 28.2097 236.678 29.1696 236.974C29.9307 237.197 30.7655 237.328 31.606 237.326C45.0133 234.727 48.3439 217.721 51.6611 208.543C58.7205 183.64 61.0462 157.744 61.9392 131.964C61.9054 131.894 61.8716 131.823 61.8377 131.753C61.7291 134.812 61.5282 138.385 61.364 141.386C61.1569 145.399 60.8997 151.372 60.4212 154.269C60.4967 153.078 60.7292 151.155 60.6042 151.178C60.4425 153.296 60.2624 155.44 60.0669 157.562C60.1283 157.504 60.1897 157.446 60.2511 157.387C60.075 159.582 59.8394 161.901 59.615 164.102C59.5757 164.486 59.6546 164.22 59.6193 164.553C59.5796 164.926 59.5557 164.668 59.5478 164.738C59.4439 165.699 59.4624 165.993 59.4488 166.11C59.4133 166.409 59.3909 166.172 59.2799 167.032C59.073 168.625 59.0637 169.764 58.8934 169.369C58.8328 169.874 58.7689 170.396 58.7044 170.914C58.7461 171.055 58.7877 171.196 58.8293 171.338C58.1921 174.472 58.3939 175.972 57.816 177.677C57.7818 178.258 57.7463 178.836 57.7095 179.412C57.6034 179.724 57.4974 180.031 57.3888 180.353C57.4282 180.425 57.4676 180.496 57.5069 180.567C56.9881 183.67 56.4795 186.965 55.9146 189.885C55.5111 191.958 55.3971 192.419 55.0249 194.226C54.1633 198.27 54.9385 194.259 54.1027 197.55C54.1994 197.393 54.2961 197.234 54.3927 197.076C54.2912 197.629 54.1907 198.167 54.0799 198.74C53.9421 199.118 53.8039 199.494 53.6652 199.867C53.5024 201.625 53.0278 202.649 52.9656 202.895C52.9169 203.08 52.8999 203.786 52.2401 205.721C52.6654 204.95 51.8189 207.247 51.7575 207.44C51.7032 207.64 51.097 209.862 50.7869 210.825C50.552 211.574 50.0342 213.03 49.6512 214.141C49.3223 215.094 49.4192 215.015 49.3958 215.085C48.989 216.238 49.1978 215.502 48.8955 216.321C48.5895 217.143 48.3817 217.837 48.3091 218.008C48.2713 218.098 48.3301 217.773 48.163 218.184C47.7312 219.255 46.926 221.314 46.3675 222.501C46.1626 222.944 45.8442 223.489 45.6061 223.968C45.2363 224.71 45.1405 225.043 44.902 225.491C44.8184 225.645 44.2183 226.556 43.5667 227.674C43.4366 227.897 43.2311 228.685 42.4245 229.306C42.4212 229.393 42.4176 229.48 42.4138 229.566C39.9014 233.318 38.5778 233.824 37.1457 235.311C35.7534 236.22 35.4073 236.232 35.5112 236.162C35.5951 236.082 36.0095 235.82 35.8405 235.899C35.6241 236.018 34.6602 236.48 34.5225 236.512C34.3156 236.582 34.338 236.532 34.1131 236.604C32.8062 237.004 32.0186 236.996 31.606 237.018C30.708 237.015 31.3021 237.108 30.3544 237.028C28.6931 236.836 27.4114 236.06 27.1413 235.867C26.906 235.595 27.4364 236.286 30.2306 236.944C30.2344 236.921 30.2381 236.899 30.2418 236.877C28.7794 236.827 25.7786 234.931 26.8402 235.441C27.2882 235.754 30.0229 236.978 31.606 236.82C32.6044 236.775 32.9602 236.727 31.606 236.75C31.4521 236.745 31.2766 236.735 31.0783 236.716C30.0499 236.581 29.4295 236.611 27.8731 235.72C26.819 235.148 26.5789 235.265 25.3456 234.18C25.4877 234.391 25.6758 234.631 25.8474 234.847C23.9903 233.604 22.3318 231.382 21.3572 230.05C20.9846 229.576 19.6384 228.068 20.1685 228.282C19.5758 227.476 17.5757 223.547 17.2184 222.749C17.1235 222.539 16.848 222.472 15.7615 219.725C15.7051 219.531 15.6529 219.346 15.5989 219.155C16.6465 221.552 14.9697 217.254 15.5935 218.355C15.67 218.768 16.4349 220.729 16.5425 221.051C16.714 221.6 15.9506 220.081 16.848 222.047C17.6524 223.173 15.9599 219.665 16.4442 220.094C15.2417 217.517 15.2798 217.187 15.0452 216.569C14.1199 214.009 13.5476 212.365 12.8003 209.84C12.5589 209.278 13.8948 213.74 14.1464 214.321C13.2657 212.329 14.4488 215.853 15.128 217.273C15.1218 217.418 15.1158 217.562 15.1099 217.707C14.3979 215.771 13.7564 213.88 13.1026 212.007C13.0828 211.877 13.063 211.746 13.0433 211.614C13.2112 212.035 13.38 212.45 13.5497 212.86C13.0861 211.271 13.232 212.285 12.6984 210.086C12.6168 210.038 12.5353 209.989 12.4537 209.94C11.8615 207.925 11.2907 205.809 10.7788 203.758C10.3538 202.68 9.45348 198.71 9.78555 199.392C9.41627 197.755 9.80083 199.797 9.40765 198.267C9.23867 197.609 8.95319 196.338 8.92614 196.005C9.1065 196.122 9.54288 198 9.79024 198.589C9.69543 198.242 7.73399 189.263 8.09339 190.013C7.97636 189.28 7.94569 189.62 7.68504 188.339C6.93588 184.689 6.22322 178.997 5.60105 176.059C5.97143 179.562 6.26291 180.565 6.69751 183.221C6.92022 184.921 8.93142 195.218 8.3352 192.943C8.43167 193.315 8.52513 193.669 8.62656 194.055C8.66004 194.452 8.69408 194.848 8.72868 195.241C8.4894 194.152 8.26401 193.089 8.04496 192.02C8.04104 191.755 8.03733 191.488 8.03386 191.222C7.97719 191.109 7.92058 190.997 7.86405 190.884C7.76912 190.429 7.67503 189.971 7.58178 189.511C7.64625 189.633 7.71081 189.755 7.77545 189.876C7.64552 189.153 7.52889 188.484 7.40861 187.781C7.38904 187.978 7.36956 188.175 7.35018 188.372C6.74602 185.089 6.97843 186.175 6.76533 184.327C6.55093 182.968 6.82486 185.286 6.32889 182.404C5.76914 179.017 6.26106 181.214 5.5909 176.852C5.55561 176.792 5.52034 176.732 5.4851 176.673C5.37486 175.7 5.26845 174.722 5.16934 173.768C5.15345 173.899 5.1376 174.03 5.12178 174.16C4.87004 172.193 4.47224 169.406 4.52669 168.755C4.70052 170.756 4.92862 170.741 4.90285 170.198C4.77364 169.148 3.12582 153.057 3.00188 149.957C2.72603 145.969 2.62964 142.938 2.36563 139.311C2.36245 141.769 2.95086 150.471 3.0343 152.115C3.04055 152.278 2.83859 152.248 3.13944 153.272C3.35807 156.658 3.77405 160.693 4.2118 164.87C4.13982 164.746 4.06843 164.625 3.99705 164.504C3.85091 161.936 3.36223 159.536 3.61708 159.856C3.5685 159.331 3.52313 158.829 3.47765 158.316C3.4392 158.319 3.40076 158.322 3.36231 158.326C3.29417 157.554 3.228 156.779 3.16381 155.999C3.2021 155.996 3.24039 155.993 3.27868 155.99C3.22539 155.345 3.17346 154.697 3.12291 154.047C3.0796 153.983 3.0363 153.918 2.99318 153.855C2.91056 151.95 2.28518 145.359 2.69301 148.235C2.63582 147.336 2.58123 146.434 2.52927 145.527C2.50197 145.532 2.47467 145.537 2.44737 145.541C2.42139 145.152 2.39591 144.761 2.37093 144.37C2.40275 144.498 2.43465 144.625 2.46661 144.752C2.32229 142.955 2.37136 141.268 2.23357 140.099C2.24967 140.873 2.26759 141.645 2.28731 142.414C2.24664 140.942 2.05738 138.205 2.04897 137.956C2.0189 137.206 2.05842 136.806 2.03237 136.005C2.00905 135.278 1.97104 135.379 1.96782 135.244C1.8851 131.309 2.15936 132.799 1.84347 130.96C1.87501 130.764 1.90662 130.569 1.9383 130.373C1.90194 130.115 1.86583 129.856 1.82999 129.597C1.80769 128.438 1.7896 127.275 1.77576 126.107C1.73637 126.497 1.69734 126.887 1.65869 127.276C1.61043 125.528 1.69372 124.707 1.69353 124.542C1.69365 124.067 1.63546 123.849 1.63402 123.702C1.60364 118.786 1.64724 119.329 1.72762 118.959C1.76536 118.793 1.81402 118.441 1.88208 117.347C1.806 116.078 1.71792 117.361 1.634 117.542C1.68099 115.854 1.66184 115.328 1.68695 113.558C1.69382 113.099 1.74532 112.601 1.7503 112.307C1.75447 112.053 1.71984 111.259 1.73106 110.651C1.74935 109.638 1.80598 108.295 1.84174 106.92C1.86936 105.752 1.94533 102.248 2.05246 99.7815C2.09736 98.7291 2.12573 98.9756 2.13765 98.7042C2.14256 98.5912 2.13346 97.7716 2.16578 97.1016C2.42923 91.6094 2.8303 86.0243 3.31352 80.5097C3.65113 76.652 4.02155 72.6991 4.48606 68.8434C4.58472 68.028 4.56417 68.4635 4.60826 68.1082C4.62337 67.9897 4.58604 67.8261 4.76861 66.5491C4.8349 66.0884 4.80558 66.6239 4.86501 66.1706C4.89433 65.9509 4.85723 65.8476 5.01485 64.5661C5.30007 62.2647 5.55455 60.9751 5.5803 60.7767C5.63348 60.3835 5.57802 60.4923 5.65259 59.9734C6.01327 57.474 6.35605 55.2867 6.73201 53.0685C6.88836 51.9791 8.26107 44.7295 8.37145 44.3632C8.57093 43.4804 8.4739 44.3223 8.71409 43.1721C8.76318 42.8462 8.81276 42.5216 8.86283 42.1984C8.73797 42.702 8.61409 43.2095 8.49123 43.7207C8.81331 42.3066 9.12539 40.7389 9.36156 39.7221C9.40557 39.5252 9.85343 37.7659 10.0674 36.8892C9.98944 37.2671 9.91219 37.6474 9.83562 38.0299C9.87973 37.8986 9.92389 37.7677 9.96811 37.637C10.3698 35.8895 10.8671 33.9518 11.357 32.1844C11.5347 31.5449 11.5059 31.7578 11.6941 31.0927C12.8113 27.2743 12.4132 28.1536 13.8099 24.6205C13.3641 25.7997 12.0123 30.3474 11.8344 31.0176C11.6902 31.4968 11.0205 33.2103 11.3908 32.6145C10.4134 36.2958 11.1366 33.0711 10.2813 36.5413C10.3222 36.4788 10.3632 36.4163 10.4041 36.354C10.1228 37.5517 9.92193 38.4576 9.70496 39.1958C9.75337 39.4853 8.75667 43.6077 8.3254 45.8677C7.66978 49.1944 7.0398 52.9254 6.52649 56.1966C6.34777 57.3327 6.19934 57.9847 6.17839 58.1213C6.14735 58.3262 6.10301 58.9102 6.04222 59.3229C5.8045 60.8668 5.09132 65.5795 5.07433 66.781C6.23334 57.528 7.74743 48.3061 9.84639 39.2379C9.49021 40.3334 11.763 31.2238 11.9684 30.7537C12.0934 30.3254 12.0275 30.697 12.0662 30.5703C12.3535 29.6266 12.5365 28.8237 12.6249 28.5317C12.6895 28.3188 12.8593 27.8451 13.1136 27.0346C13.1604 26.8858 13.1471 26.8362 13.1976 26.677C13.5331 25.6232 13.8644 24.6256 14.2374 23.5538C14.26 23.4898 14.3902 23.238 14.4833 22.9759C14.5765 22.7129 14.6318 22.4421 14.6555 22.3766C14.9396 21.5827 15.5236 20.1165 15.8307 19.3577C15.9379 19.0906 15.8366 19.2644 15.9573 18.9667C16.3268 18.0676 16.2628 18.3596 16.7401 17.2084C16.9022 16.8248 16.8513 16.8276 17.1782 16.1145C17.4104 15.6132 17.4555 15.7017 17.4942 15.6236C17.5483 15.4986 18.3478 13.6935 18.6783 13.1832C18.164 14.4636 19.3929 11.8276 19.2954 11.9244C19.6847 11.2481 20.0614 10.6269 20.4986 9.94828C20.6277 9.71426 20.7574 9.4842 20.8879 9.25813C22.6773 6.71151 23.8231 5.14247 26.2853 3.28934C26.3619 3.14579 28.6591 1.92687 28.5683 2.06207C27.1673 2.65731 25.9072 3.63576 25.1542 4.22709C24.0378 5.43907 23.9273 5.34125 22.3106 7.41281C21.7908 8.11594 21.7819 8.2018 21.7222 8.28351C19.6934 11.0853 17.3806 16.0044 16.4282 18.117C16.1959 18.7295 17.1269 16.5697 16.7858 17.4159C16.4314 17.8147 12.5913 28.9968 13.7147 25.3982C13.5967 25.7659 13.4794 26.1372 13.363 26.5121C13.3436 26.9102 12.7363 28.8077 12.705 28.5486C12.6736 28.7285 12.6423 28.909 12.6113 29.0902C12.5263 29.4411 12.4147 29.8545 12.2523 30.4408C11.496 32.6241 8.37952 46.1491 8.36198 46.8458C8.38497 46.8673 8.40797 46.8888 8.43097 46.9103C9.6338 40.9362 10.8909 35.129 12.8543 28.8001C12.777 28.9749 12.6998 29.1505 12.6226 29.327C13.4045 26.8014 14.2678 24.2576 15.2025 21.8154C14.2643 24.4353 12.9494 28.711 12.1348 31.5495C11.9856 32.0616 12.0581 31.6759 12.0213 31.793C11.9233 32.1093 11.8946 32.4227 11.6103 33.5112C11.3196 34.6016 10.5935 37.3557 10.5403 37.6009C10.4259 38.082 10.1768 39.4371 9.98911 40.2693C9.7455 41.3476 9.8668 40.6155 9.81731 40.8319C9.6126 41.7297 9.45664 42.5522 9.30128 43.2726C9.06171 44.3714 8.5584 46.4998 8.52191 47.2856C8.67448 46.5219 8.82933 45.7658 8.9864 45.0173C8.19805 49.1288 7.47895 52.371 6.94601 56.4408C6.93472 57.393 7.45085 54.0064 7.05733 56.8775C7.13656 56.3554 7.21679 55.8362 7.29802 55.3196C7.2892 55.1941 7.28048 55.0686 7.27183 54.9432C7.43641 54.059 7.60265 53.1889 7.77915 52.285C7.70998 52.5368 7.64099 52.7894 7.57221 53.0427C8.09004 49.854 8.68032 46.6894 9.03273 45.6225C9.01377 45.552 8.99485 45.4815 8.97596 45.411C9.58753 42.4969 10.4631 38.1345 10.4516 38.979C10.4746 38.8386 10.4978 38.6985 10.521 38.5586C10.9714 36.8174 10.7235 37.5497 10.8732 36.8957C10.9025 36.7322 11.8157 33.3165 11.4778 34.8429C12.3794 31.5519 11.9538 32.5714 12.1996 31.6372C12.8527 29.5302 13.9155 25.7735 13.5423 27.3839C13.6443 27.0725 13.7469 26.7635 13.8499 26.457C14.0774 25.4234 14.5153 24.4605 14.9354 23.3735C15.067 23.005 15.1994 22.6407 15.3325 22.2805C15.3903 22.0251 15.4437 21.7846 15.5074 21.5194C16.9834 18.0944 16.1589 19.1008 17.1462 17.6431C17.0619 17.894 16.9781 18.1473 16.8949 18.4029C16.6612 18.9917 16.4527 19.5373 16.2349 20.1226C17.1342 17.8434 18.1774 15.4835 19.3052 13.3302C20.889 10.5798 21.6912 8.93821 23.98 6.34209C24.1864 6.09351 24.3938 5.85468 24.6021 5.62571C24.4521 5.90608 23.5578 6.78922 25.2124 5.15976C25.38 5.06215 24.2908 6.15077 23.8036 6.68883C23.6816 6.81476 24.6194 5.65575 23.529 6.93352C22.8225 7.8447 24.1119 6.17808 22.0808 8.93519C22.1658 8.83504 22.2509 8.73622 22.3359 8.63878C22.1133 8.95467 21.9167 9.24493 21.7182 9.54704C21.5159 9.79873 21.3138 10.0581 21.1119 10.3249C20.6899 11.1099 20.5249 11.467 19.5822 13.2139C19.8183 12.7262 19.4082 13.3508 18.9947 14.1842C19.0152 14.1945 19.0357 14.2047 19.0562 14.215C18.0546 16.3143 18.3317 15.5783 17.6032 17.3466C17.5092 17.517 17.4153 17.6889 17.3216 17.8623C16.9445 18.8784 15.6267 22.517 15.7698 21.8241C15.5095 22.8328 14.6892 25.0689 14.3593 25.8076C14.3617 25.8765 14.3641 25.9455 14.3665 26.0145C14.2325 26.4436 14.0995 26.8775 13.9675 27.3163C13.8777 27.556 13.7881 27.7973 13.6988 28.0401C13.6156 28.3609 13.5363 28.6734 13.4604 28.9785C13.3829 29.1548 13.3055 29.3319 13.2283 29.51C13.1111 30.0102 12.9953 30.5157 12.881 31.0266C12.7756 31.3291 12.6707 31.6338 12.5661 31.9406C12.5966 31.9949 11.8101 34.988 11.5638 35.8697C11.5118 36.1383 11.4672 36.3798 11.4195 36.6363C11.366 36.7529 11.3125 36.8697 11.259 36.9868C11.2323 37.1787 11.2057 37.3711 11.1793 37.5641C11.0563 37.9936 10.9339 38.4265 10.8123 38.8627C10.5092 40.7056 10.4078 40.7095 10.316 41.1202C10.1503 41.8541 9.67053 44.5052 9.58796 44.9143C9.49788 45.3399 9.41386 45.5384 9.34096 45.8846C8.15642 51.6749 8.75043 49.2816 8.5498 50.4497C8.44868 51.074 8.33037 51.5105 8.23865 52.0683C8.06408 53.0557 7.36694 57.7897 7.32409 58.1002C7.2563 58.4998 7.20067 57.5325 7.05836 58.8313C7.15519 58.8845 6.649 61.6587 6.98294 60.3755C6.80683 61.5159 6.63035 62.706 6.46857 63.8338C6.6123 63.7217 6.34425 65.1158 6.15989 66.6764C5.887 68.8868 5.44439 73.8438 5.33482 73.6516C5.31168 74.177 5.28958 74.7042 5.26854 75.2331C4.86943 78.8516 4.61635 82.3987 4.36361 85.9818C3.60419 96.6525 3.20734 108.227 3.20791 118.887C3.20789 118.912 3.20776 118.936 3.20753 118.959C3.2031 119.395 3.15908 119.346 3.1593 119.698C3.1549 121.644 3.25112 126.665 3.31346 129.374C3.33124 130.239 3.29468 130.66 3.2999 130.933C3.31841 131.873 3.37639 131.65 3.38738 132.082C3.40193 132.772 3.4674 136.341 3.51755 137.585C3.54033 138.201 3.62396 138.925 3.64167 139.641C3.64326 139.703 3.58474 139.592 3.58625 139.644C3.64166 140.948 3.65048 140.162 3.66934 140.603C3.8056 143.74 4.00318 147.097 4.23958 150.527C4.29755 151.376 4.3572 152.67 4.41089 153.39C4.43166 153.667 4.43275 153.163 4.50654 154.124C4.53221 154.455 4.48749 154.573 4.51479 154.946C4.63385 156.55 4.85561 157.067 4.83938 158.441C5.08557 161.095 5.61335 165.677 5.9059 168.085C5.97315 168.652 5.97359 168.93 6.03955 169.467C6.08551 169.84 6.22227 170.53 6.29938 171.13C6.3767 171.733 6.45059 172.688 6.60702 173.83C6.76818 175.015 7.01867 176.558 7.05753 176.823C7.10549 177.153 7.06637 177.316 7.11561 177.645C7.25979 178.629 7.73536 181.298 7.95589 182.573C8.18883 183.941 8.30045 184.756 8.38488 185.238C8.46231 185.677 8.60546 186.176 8.64161 186.375C8.69789 186.683 8.64946 186.767 8.72101 187.158C8.83902 187.799 8.99543 188.43 9.18069 189.393C12.9515 205.885 15.828 225.728 29.116 234.755C30.0309 235.105 30.7187 235.219 31.606 235.218C32.2398 235.206 32.9625 235.127 33.9196 234.787C34.8361 234.423 34.4747 234.658 35.1736 234.276C35.4829 234.09 35.3823 234.087 35.7466 233.849C37.4261 232.758 39.0474 230.914 39.6157 230.174C39.8332 229.894 40.0299 229.536 40.4708 228.907C43.6686 224.331 46.2904 217.955 48.1975 212.082C49.2338 208.943 50.5294 204.189 51.4043 200.495C53.8549 190.323 55.6155 179.238 56.7336 169.717C58.4163 155.403 59.1849 141.047 59.4758 126.663C59.2087 133.39 58.8903 142.559 58.3599 150.035C56.7759 171.56 54.1168 194.758 46.8267 215.524C44.2148 222.351 40.1333 232.703 32.9781 234.838C32.714 234.898 32.1886 235.033 31.606 235.038C31.5242 235.039 31.4416 235.038 31.3586 235.034C31.2064 235.085 29.4686 234.678 28.9131 234.357C29.3799 234.776 27.2349 233.559 26.6161 232.948C25.8531 232.368 24.1748 230.839 22.7864 228.745C21.545 226.848 21.9609 227.306 21.8903 227.207C21.4695 226.486 21.2483 226.294 20.9319 225.764C19.3254 223.726 14.5069 211.134 13.6562 207.443C13.384 206.506 13.4339 206.458 13.373 206.245C13.2086 205.665 12.9376 204.909 12.697 204.011C12.2584 202.38 11.8455 200.491 11.6304 199.595C11.0919 197.4 10.1322 193.343 9.58358 190.517C9.42617 189.716 9.49442 189.752 9.4238 189.387C9.11358 187.825 8.30345 183.663 7.99301 181.697C7.46659 178.456 7.02264 175.132 6.57915 171.863C6.57736 171.65 6.57569 171.438 6.57416 171.225C6.50524 170.898 6.43673 170.569 6.36865 170.24C5.69406 164.684 5.06712 159.004 4.62734 153.423C4.5742 152.792 4.38578 149.615 4.35194 149.076C4.32133 148.633 4.23112 148.197 4.19771 147.551C4.15128 146.64 4.31996 147.491 4.19354 146.002C4.16002 145.601 4.13462 145.994 4.07063 145.187C4.04161 144.916 3.74625 139.738 3.74415 139.459C3.72809 138.994 3.81292 138.574 3.80975 138.453C3.79365 137.827 3.71574 137.857 3.69061 137.437C3.61587 136.195 3.61077 134.599 3.60266 134.395C3.49619 131.961 3.31953 127.448 3.32293 124.88C3.32282 124.53 3.38096 124.571 3.38192 124.51C3.38816 124.113 3.31958 123.867 3.3135 123.488C3.29371 122.242 3.2945 120.558 3.30528 118.959C3.31188 117.945 3.322 116.973 3.3289 116.176C3.33082 115.939 3.30195 115.439 3.30743 115.018C3.34111 112.638 3.38678 113.412 3.38935 113.277C3.39754 112.96 3.34867 112.386 3.35658 111.527C3.37226 109.316 3.47386 105.09 3.55863 102.729C3.61992 100.967 3.68222 100.996 3.68709 100.879C3.69843 100.629 3.67477 99.9315 3.71706 98.7641C3.80066 96.5212 3.83963 96.7825 3.87977 95.8657C3.88374 95.7866 3.82993 95.9275 3.87597 94.8988C3.96079 92.9028 4.26702 88.4949 4.41873 86.3737C4.47482 85.5638 4.44514 85.3715 4.50534 84.5467C4.5988 83.2268 4.89134 80.247 4.91285 80.0208C4.91846 79.9556 4.88181 79.8046 4.91527 79.4213C4.95211 78.9996 5.01402 78.5905 5.04302 78.2679C5.20337 76.4422 5.43146 73.357 5.5179 74.2309C5.53282 73.656 5.54978 73.0759 5.56924 72.4874C5.97912 68.7071 6.40448 65.0694 6.91611 61.3373C7.03147 60.4976 7.16293 59.807 7.26391 59.1079C7.35623 58.4346 7.79433 55.265 7.87888 54.7667C8.00821 53.8698 8.92839 48.6032 9.07037 47.9486C9.31975 46.6648 9.62876 45.4592 9.7189 44.9483C9.79199 44.5355 9.6751 44.918 9.82796 44.12C10.0941 42.7199 10.6443 40.4493 10.7393 40.0375C10.7805 39.8594 10.6728 40.1796 11.0592 38.5098C11.2685 37.6141 11.4147 37.1504 11.4922 36.831C11.5205 36.7215 11.4158 36.9022 11.8763 35.1068C12.1939 33.8825 12.3695 33.3884 12.4028 33.2614C12.4549 33.0677 12.529 32.6244 12.7454 31.8459C13.2393 30.0375 14.266 26.8046 14.8196 25.182C14.9278 24.8636 14.8432 24.9412 15.292 23.6552C15.6149 22.7428 15.5965 22.9192 15.7184 22.5823C15.9068 22.0673 16.1658 21.2123 16.6275 20.0383C16.9705 18.4211 22.4472 8.01164 23.1618 7.79643C23.4046 7.49092 23.6964 7.13187 23.8461 6.98498C23.7509 7.12939 23.6487 7.28557 23.5618 7.42577C22.4543 8.74727 22.9423 8.26022 22.6682 8.63812C22.2487 9.19299 20.8648 11.3975 20.608 11.9316C20.5057 12.1304 20.788 11.696 20.2287 12.7639C19.6157 13.9583 19.3348 14.3807 19.1935 14.9026C18.2635 16.566 17.7251 18.1514 18.5946 16.2705C18.8513 15.0456 24.8248 5.00882 27.1145 4.28259C28.1017 3.55474 29.8786 2.62855 31.606 2.6527C32.3417 2.64558 33.0495 2.77812 33.6411 2.96871C34.8549 3.19858 37.4185 5.20558 37.2386 5.19243C38.1094 5.99475 37.2174 5.10921 37.4057 5.27271C37.8536 5.53004 40.2644 8.3954 40.6268 9.03469C42.6969 11.9285 44.7402 16.0045 46.0106 19.2871C45.936 19.1396 45.8612 18.9932 45.7863 18.8477C45.4919 18.1393 43.9746 14.7702 43.7225 14.4704C46.1106 19.233 47.9213 24.3016 49.4852 29.4601C49.5377 29.3413 51.3299 35.7761 51.3588 36.1137C51.3059 36.0042 51.253 35.895 51.2 35.7862C50.3311 32.1171 50.2866 32.473 49.6385 30.0109C49.3441 29.0237 49.3938 29.3346 49.2398 28.856C47.6318 24.0492 49.3226 28.7545 48.0664 25.0736C48.386 26.196 47.3437 23.1942 46.8296 21.893C46.7271 21.5587 45.1673 17.6859 44.9241 17.2159C43.8051 14.6354 41.5012 10.4289 39.8362 8.28272C38.5334 6.60373 37.6997 5.77957 36.2511 4.66936C35.1358 3.89208 35.4532 4.09851 34.9173 3.78702C33.7392 3.19197 33.3151 3.21839 32.558 2.93802C32.2417 2.89721 31.923 2.88061 31.606 2.88887C31.0875 2.9018 30.5624 2.98408 30.0645 3.12498C30.0591 3.10377 30.0537 3.08256 30.0483 3.06135C29.5335 3.19394 29.0106 3.39764 28.5228 3.64538C28.3864 3.73906 28.2506 3.83762 28.1153 3.94111C26.593 4.87015 27.1956 4.4589 26.8755 4.59733C26.5382 4.84988 26.243 5.09403 25.9384 5.36556C25.7382 5.61365 25.5399 5.87315 25.3434 6.14408C24.0923 7.41846 22.9123 9.02871 21.9351 10.5953C21.8502 10.6889 21.7653 10.7837 21.6803 10.8797C21.6975 10.895 21.7146 10.9104 21.7317 10.9257C20.0542 13.6998 18.6803 16.688 17.457 19.7691C17.143 20.5859 19.1931 15.7667 19.4307 15.392C20.2925 13.3451 23.3409 8.42517 23.5005 8.52294C24.1679 7.35407 26.968 4.52591 28.023 4.14902C26.5526 5.03652 25.2438 6.33444 24.0511 7.82659C24.1075 7.79848 24.1671 7.76672 24.2275 7.7343C22.7314 9.49486 22.5332 9.82409 21.3634 12.0063C21.3308 11.99 21.2983 11.9738 21.2657 11.9575C20.5 13.5031 18.9982 16.1847 19.1004 16.3657C18.7153 17.1793 18.3341 18.0279 17.9573 18.9103C17.2643 20.7993 18.3665 17.8332 15.6966 25.3302C15.5246 25.8424 15.5208 25.7168 15.2742 26.4939C15.212 26.6994 14.8203 28.0819 14.1134 30.5316C14.0011 30.9226 13.9577 30.9421 13.8384 31.3509C13.5534 32.3183 13.1406 34.1747 13.248 33.3046C12.2458 37.0267 12.7401 35.5402 12.4905 36.6957C12.3299 37.4679 12.2985 37.2967 12.155 37.9706C11.9845 38.8029 12.1707 38.2286 11.403 41.5582C11.4792 41.1837 11.556 40.8113 11.6334 40.4411C11.573 40.6225 11.5127 40.8044 11.4525 40.987C11.0853 42.894 11.0593 42.7091 10.9771 43.6423C10.6333 45.0677 10.4008 46.2097 10.0452 48.159C9.38568 51.8937 9.83931 49.982 8.96211 54.2421C8.87392 54.9308 8.78762 55.6244 8.70326 56.3229C8.47954 57.4611 8.5589 56.5193 8.28887 58.2403C8.605 56.9265 8.03601 60.4924 8.06518 61.1217C8.03062 61.1819 7.99606 61.2422 7.9615 61.3025C7.90893 61.6847 7.85688 62.0682 7.80537 62.4531C7.82594 62.4571 7.84651 62.4612 7.86708 62.4652C7.78272 62.9778 7.7005 63.4838 7.62033 63.9828C7.59219 64.3641 7.56461 64.7467 7.53761 65.1303C7.41549 65.7511 7.29452 66.3754 7.17472 67.0031C7.12407 67.4003 7.07396 67.7988 7.02439 68.1986C7.0705 68.0758 7.11663 67.9531 7.16279 67.8306C7.09135 68.3491 7.02445 68.8394 6.95675 69.345C7.07529 68.7658 7.09147 69.136 6.91737 70.7149C6.7765 72.0239 6.82109 70.5276 6.57368 73.3656C6.55824 73.5666 6.59506 73.9018 6.35853 76.5614C6.08325 79.7669 6.16843 78.2085 6.11519 78.7792C6.1052 78.8896 6.06166 79.8578 5.99353 80.7689C5.9547 81.2857 5.8831 81.7827 5.87778 81.8513C5.85411 82.1718 5.89245 82.2689 5.86 82.7139C5.77642 83.8528 5.64676 85.3474 5.57545 86.4487C5.54277 86.9491 5.53956 87.4234 5.52551 87.6476C5.50346 87.9955 5.43365 88.4348 5.41206 88.788C5.33036 90.1038 5.36474 92.0479 5.13809 92.6461C5.25024 93.9039 4.91297 96.5162 5.04418 96.3249C4.82449 99.6423 4.76431 108.576 4.57499 108.29C4.72335 110.178 4.59802 110.009 4.59011 110.801C4.58281 111.689 4.62301 111.229 4.61428 111.936C4.59479 113.592 4.57297 115.138 4.57316 116.78C4.54367 116.523 4.51444 116.266 4.48547 116.009C4.47591 117.727 4.54295 117.135 4.56317 118.894C4.56344 118.916 4.5637 118.937 4.56397 118.959C4.6081 122.112 4.54632 120.768 4.47251 121.243C4.54281 121.119 4.58222 124.903 4.58345 125.292C4.58238 125.523 4.4632 124.511 4.54247 126.845C4.56976 126.717 4.59707 126.589 4.62442 126.461C4.60305 127.527 4.73252 130.395 4.73932 130.877C4.74152 131.102 4.53371 132.317 4.76758 133.409C4.7419 133.542 4.71625 133.676 4.69064 133.809C4.77209 135.03 4.85776 136.225 4.94984 137.453C4.90334 137.65 4.8569 137.848 4.81051 138.046C4.82835 138.434 4.84666 138.821 4.86545 139.208C4.90224 138.949 4.93916 138.69 4.97622 138.431C5.0641 140.824 5.31171 143.715 5.17536 144.226C5.23726 144.736 5.3001 145.246 5.36386 145.754C5.3291 146.089 5.29459 146.423 5.26033 146.757C5.43147 149.095 5.47676 149.164 5.65675 150.77C5.60788 150.71 5.55904 150.65 5.51023 150.59C5.66089 151.782 5.89023 153.925 6.05167 155.659C6.1266 156.478 6.19412 157.878 6.21802 158.068C6.24018 158.256 6.66865 160.147 6.48094 160.379C6.85966 163.199 6.90336 164.401 7.03682 165.565C7.12371 166.309 7.21406 166.642 7.31895 167.475C7.46934 168.668 7.59403 169.854 7.68833 170.557C7.74173 170.954 7.80151 171.022 7.8388 171.294C8.01675 172.579 7.8647 171.835 8.05095 173.182C8.06947 173.313 8.26109 174.258 8.41706 175.396C8.50222 176.026 8.67297 177.644 8.69517 177.784C8.79323 178.412 8.84866 177.879 9.02733 180.052C9.04375 179.985 9.06017 179.917 9.0766 179.85C9.57394 182.521 9.53329 182.935 9.61452 183.47C9.62588 183.541 9.77959 184.157 9.84374 184.558C9.94923 185.219 9.93419 185.493 9.95744 185.639C10.0394 186.156 10.3798 187.848 10.5339 188.964C10.6642 188.71 11.5081 192.592 11.4947 193.481C11.6842 194.171 11.8758 194.853 12.0694 195.528C12.105 195.844 12.1409 196.159 12.1772 196.473C12.2535 196.652 12.3299 196.83 12.4064 197.007C12.562 198.015 12.7326 199.055 12.9018 200.055C12.9918 200.099 13.0817 200.144 13.1717 200.188C13.2319 200.466 13.2924 200.741 13.3532 201.016C13.348 201.242 13.3435 201.471 13.3417 201.708C13.4439 202.058 13.5467 202.405 13.6499 202.75C13.7155 202.825 13.7811 202.899 13.8468 202.974C14.4036 204.817 13.6982 203.946 15.0896 207.384C15.2179 207.937 15.3429 208.469 15.4788 209.024C15.8369 209.601 16.1053 210.781 16.426 211.672C16.6511 212.295 16.7063 212.249 17.0163 213.133C17.328 214.011 17.2558 213.995 17.2795 214.064C17.5334 214.778 17.7703 215.243 17.9668 215.79C17.9956 215.869 17.9974 216.099 18.2509 216.757C18.5081 217.417 18.7286 217.746 19.1243 218.722C19.3301 219.224 19.3309 219.392 19.5161 219.826C20.3834 221.864 21.7192 223.725 22.1903 225.327C22.3949 225.614 23.9606 227.782 24.6492 228.65C25.6552 229.956 25.2285 229.528 25.6439 230.039C25.7169 230.11 26.0238 230.483 27.0253 231.403C27.1992 231.558 27.1884 231.486 27.2138 231.508C28.2825 232.516 30.3544 233.612 31.606 233.504C31.7041 233.504 31.7978 233.501 31.8866 233.495C32.0119 233.474 32.5214 233.375 33.6052 233.109C35.0469 232.529 38.0967 229.908 39.4723 227.306C39.6842 226.979 39.9854 226.588 40.0796 226.431C40.8825 225.033 40.4944 225.576 42.3041 222.463C42.1092 222.69 42.4261 221.914 42.9317 220.811C43.6566 219.198 43.2741 220.415 43.8372 219.069C43.8014 219.054 43.7656 219.039 43.7299 219.023C45.0928 215.966 45.1556 215.288 46.2517 212.037C46.6252 210.913 47.2455 209.186 47.3311 208.895C47.3687 208.775 47.6458 207.492 47.6804 207.364C47.876 206.672 48.0292 206.288 48.1979 205.678C48.7476 203.699 49.218 201.26 49.332 201.748C49.4282 201.162 49.5083 200.628 49.5936 200.062C50.3289 198.034 50.3434 196.359 50.6688 195.985C50.7016 195.6 50.7336 195.214 50.765 194.825C52.692 185.768 54.0766 176.56 55.1156 167.35C55.0815 166.979 55.5259 162.928 55.5517 162.735C55.6989 161.793 55.7808 162.817 55.9218 160.868C55.8646 160.645 55.807 160.422 55.7493 160.198C55.9414 157.735 55.9123 158.936 56.0475 157.977C56.0714 157.576 56.0006 157.7 56.0409 157.157C56.2707 154.193 56.6755 148.108 56.8266 144.886C56.8593 144.231 56.9115 144.333 56.9219 144.129C56.9496 143.571 56.9314 142.45 56.9794 141.343C57.2775 134.849 57.489 125.823 57.4974 118.959C57.4989 118.493 57.4999 118.038 57.5004 117.595C57.5009 117.12 57.5716 117.061 57.5722 116.741C57.5729 116.297 57.5037 115.307 57.5031 114.84C57.5025 114.401 57.5527 114.119 57.5516 113.648C57.5481 111.496 57.3872 108.605 57.4745 106.3C57.4834 106.106 57.6915 103.686 57.7074 103.63C57.8085 103.306 58.0703 105.446 58.1012 101.916C58.3652 105.061 58.596 104.07 58.5496 99.9687C58.6723 102.021 58.7807 104.075 58.875 106.131C58.9055 106.133 58.9359 106.135 58.9664 106.137C59.0596 104.261 59.0484 102.401 58.9376 99.5544C58.9698 99.642 59.0021 99.7296 59.0343 99.8173C59.2869 102.326 59.4142 105.36 59.6551 107.273C59.7218 104.457 59.7644 101.64 59.7819 98.8207C59.8106 98.9601 59.8391 99.1 59.8676 99.2394C59.9871 100.586 60.1299 103.531 60.2165 104.651C60.5527 108.926 60.2497 100.898 60.4131 102.213C60.5731 106.735 60.6657 111.259 60.694 115.784C60.8592 115.943 60.6748 98.5284 60.8881 98.694C60.9686 100.116 61.0421 101.539 61.1089 102.961C61.1583 102.324 61.2064 101.687 61.2535 101.05C61.2825 101.224 61.3114 101.398 61.3403 101.572C61.4829 103.973 61.606 106.375 61.7099 108.778C61.4954 101.469 61.3451 98.0761 61.8317 96.2968C61.8554 96.4942 61.8789 96.6919 61.9023 96.8897C61.637 98.4909 62.0269 105.961 62.1471 109.938C62.2378 109.126 62.0791 105.626 62.1158 104.884C62.1275 104.674 62.2186 105.403 62.2413 104.916C62.309 103.644 62.2279 98.2258 62.3711 99.0076C62.4865 99.5095 62.8527 108.223 62.8497 109.925C62.9166 105.936 62.8353 101.826 62.8281 97.82C63.1595 100.334 63.5269 102.562 63.6414 107.177C63.8069 108.582 63.6974 98.8041 63.7286 98.5737C63.8653 100.262 63.992 101.952 64.109 103.642C64.0503 102.211 63.9848 100.78 63.9123 99.3497C63.9355 99.3445 63.9586 99.3393 63.9818 99.3342C64.2276 103.038 64.5147 106.428 64.5565 110.676C64.6776 110.537 64.6288 107.995 64.6021 106.761ZM40.6802 9.67662C40.6898 9.76508 39.8561 8.54543 39.3412 7.91636C39.4101 8.01615 39.4789 8.11722 39.5475 8.21955C38.5268 6.75201 36.1824 4.67226 36.0016 4.74063C35.0527 4.10029 35.5042 4.32507 35.1988 4.12108C35.0889 4.03902 33.7626 3.35363 32.688 3.14337C32.4312 3.0985 32.1712 3.06981 31.9119 3.05829C31.8602 3.08631 31.8092 3.11502 31.7589 3.14439C31.7081 3.13812 31.6571 3.1325 31.606 3.12755C31.2994 3.09785 30.9899 3.09182 30.6749 3.11062C30.9849 3.05996 31.2944 3.03346 31.606 3.03113C35.1564 2.98661 38.3574 6.25766 40.6764 9.67092C40.6777 9.67282 40.6789 9.67472 40.6802 9.67662ZM14.4911 28.8881C13.9891 30.4803 13.2501 33.0989 13.486 32.5853C13.7696 31.5173 14.0642 30.4543 14.3613 29.4265C14.4044 29.2463 14.4476 29.0668 14.4911 28.8881ZM12.733 199.89C12.9442 201.287 13.3912 202.598 13.9505 204.714C13.9766 204.704 14.0028 204.694 14.029 204.683C13.727 203.859 13.1361 201.461 12.733 199.89ZM54.4184 49.8981C54.4722 50.2145 54.5265 50.5374 54.5778 50.8469C54.2651 49.582 54.2743 49.3316 53.9885 47.9008C53.9711 47.8147 53.9593 47.848 53.9533 47.818C53.8843 47.4727 53.8387 47.1312 53.7745 46.8125C53.6498 46.1953 53.527 45.6962 53.3022 44.6216C53.1238 43.7731 53.1555 43.7599 53.0911 43.4639C53.039 43.2142 52.3957 40.7378 52.0566 39.1516C51.4659 36.0794 54.3457 48.9498 54.4184 49.8981ZM55.9047 59.0257C55.8573 58.7195 55.8097 58.4143 55.7617 58.1099C55.9538 59.013 55.6641 57.1864 55.4357 55.814C55.4956 55.8577 55.9334 58.7111 56.1392 60.015C56.0615 59.684 55.9833 59.3543 55.9047 59.0257ZM46.8154 21.2305C47.2532 22.3637 47.1091 22.1901 47.0749 22.1539C46.9429 21.8001 46.803 21.4317 46.666 21.0774C46.7158 21.1283 46.7656 21.1793 46.8154 21.2305ZM49.7274 29.7801C49.5833 29.4395 48.7942 26.9472 48.3915 25.7771C48.3741 25.7264 48.5073 26.0394 48.2251 25.21C48.1496 24.9645 47.1945 22.5578 47.4842 23.0591C48.2988 25.2748 49.0402 27.5183 49.7264 29.7767C49.7267 29.7778 49.727 29.7789 49.7274 29.7801ZM50.4337 32.3233C50.2868 31.8507 50.1423 31.3953 49.9897 30.9203C49.9385 30.667 49.8871 30.4149 49.8354 30.164C49.9999 30.7017 50.1633 31.2478 50.3186 31.7764C50.3571 31.9581 50.3955 32.1403 50.4337 32.3233ZM56.8256 162.176C56.7645 162.284 56.7034 162.393 56.6423 162.502C56.5705 162.942 56.5707 165.092 56.6814 164.423C56.7314 163.678 56.7795 162.928 56.8256 162.176ZM57.7035 153.084C57.7618 152.641 57.8194 152.197 57.8765 151.751C57.8262 151.231 57.7748 150.709 57.7224 150.186C57.5172 152.426 57.2674 154.783 57.5499 154.427C57.5103 154.943 57.4699 155.458 57.4285 155.971C57.3583 155.53 57.3205 155.588 57.1443 156.921C57.2648 157.233 57.0792 158.578 56.964 160.188C57.0795 159.016 57.1854 157.892 57.2892 156.736C57.3149 156.738 57.3405 156.74 57.3661 156.743C57.1409 159.304 57.5762 156.141 57.6014 154.438C57.6459 154.308 57.6903 154.177 57.7347 154.047C57.7253 153.719 57.7144 153.404 57.7035 153.084ZM4.68013 149.081C4.68368 149.405 4.68753 149.727 4.69169 150.049C5.02959 151.281 4.6067 148.74 4.68779 146.954C4.5774 147.555 4.41089 144.823 4.39373 144.664C4.36306 144.982 4.33261 145.301 4.3024 145.619C4.42369 146.78 4.54776 147.907 4.68013 149.081ZM5.24036 158.151C5.2577 157.024 5.78248 162.489 5.96116 164.281C6.00151 164.718 6.02133 165.53 6.06624 165.847C6.11386 166.039 6.16164 166.231 6.20957 166.422C6.14467 166.673 6.66222 170.175 6.90043 171.588C6.88495 171.724 6.86951 171.86 6.85411 171.996C6.93373 172.504 7.01428 173.009 7.09577 173.513C7.05457 173.453 7.0134 173.394 6.97225 173.335C7.06303 173.712 7.15439 174.089 7.24633 174.463C7.5017 175.969 7.19259 175.064 7.41087 176.196C7.6557 177.453 7.46211 175.364 7.5375 175.391C7.37018 174.355 7.02145 172.072 6.88622 171.017C6.81082 170.423 7.00971 171.059 6.55609 168.524C6.5211 167.959 6.48709 167.392 6.4541 166.823C6.28211 165.796 6.11092 164.731 5.95027 163.72C5.97466 163.523 5.99913 163.326 6.02368 163.129C6.01734 163.021 5.67015 160.628 5.65082 160.757C5.63785 159.759 5.46223 157.783 5.28481 155.667C5.24314 155.466 5.20164 155.264 5.16029 155.062C5.38794 157.104 5.19057 155.715 5.19708 156.328C5.20087 156.682 5.24448 157.758 5.24036 158.151ZM55.3011 176.324C55.6241 172.87 55.4601 175.038 55.9256 171.35C55.8187 171.599 55.7117 171.846 55.6045 172.094C55.5216 173.907 55.0191 176.877 55.3006 176.328C55.3008 176.327 55.3009 176.326 55.3011 176.324ZM58.2134 140.16C58.1748 142.123 58.3461 141.126 58.2622 143.63C58.2621 143.631 58.262 143.633 58.262 143.634C58.337 142.33 58.4041 141.071 58.4673 139.781C58.3826 139.908 58.298 140.034 58.2134 140.16ZM24.3084 229.921C23.286 228.567 23.3925 228.782 22.6095 227.433C21.1964 225.419 22.3172 227.181 22.2229 227.238C22.5568 227.701 22.8629 228.1 23.2253 228.555C23.9334 229.714 23.1369 228.71 23.1279 228.71C23.1286 228.711 23.1292 228.712 23.1299 228.713C23.1022 228.732 23.0702 228.705 23.3602 229.137C23.6783 229.416 23.9947 229.678 24.3084 229.921ZM20.0983 223.492C20.4463 224 20.6543 224.219 19.9633 222.739C19.9628 222.738 19.9623 222.737 19.9618 222.736C19.7535 222.699 19.17 221.172 18.8807 220.54C18.7872 220.375 18.6937 220.209 18.6004 220.041C19.0612 221.19 19.5738 222.377 20.0983 223.492ZM11.1081 196.908C11.2769 196.862 11.6046 198.226 11.3236 196.265C11.2359 195.891 11.1489 195.513 11.0625 195.134C10.9704 194.893 10.8786 194.65 10.787 194.407C10.0974 189.532 9.23661 188.199 11.1819 196.297C11.1823 196.298 11.1827 196.299 11.183 196.3C11.1579 196.503 11.133 196.705 11.1081 196.908ZM13.2331 205.301C13.3393 205.335 13.4455 205.37 13.5516 205.404C13.6368 206.538 14.2167 207.8 14.7004 209.88C14.786 210.057 14.8718 210.233 14.9577 210.409C15.0671 211.191 17.7322 218.501 17.2988 216.865C17.0814 216.142 16.4559 214.696 16.4132 214.565C16.2627 214.127 16.1353 213.528 15.8702 212.768C15.7147 212.323 15.3311 211.483 15.0446 210.587C14.3883 208.567 13.583 204.9 12.6681 202.278C12.6449 202.077 12.6219 201.876 12.599 201.673C12.0904 199.724 12.1683 200.405 11.8247 198.526C11.0619 197.369 13.7147 205.92 12.9163 204.202C12.9166 204.203 12.9169 204.204 12.9173 204.205C13.0219 204.573 13.1272 204.939 13.2331 205.301ZM42.7631 223.929C42.8965 223.887 43.7877 221.742 43.739 222.321C44.0112 221.576 44.2418 220.887 44.4776 220.16C44.4573 220.157 44.437 220.154 44.4168 220.152C44.1301 220.851 43.8488 221.512 43.5281 222.224C43.4989 222.213 43.4697 222.202 43.4405 222.191C43.1139 223.283 40.8084 227.278 40.7406 227.08C40.6495 227.312 40.5576 227.54 40.465 227.765C39.1481 229.517 38.141 231.05 36.3779 232.408C36.2831 232.537 36.1619 232.684 36.051 232.817C35.9442 232.861 35.8383 232.903 35.7333 232.942C35.1191 233.386 34.4419 233.771 33.7959 234.021C32.7206 234.448 33.2516 234.387 34.1369 234.076C35.024 233.767 36.1763 232.954 36.4239 232.724C36.4864 232.668 36.4249 232.626 36.7969 232.283C37.5871 231.798 40.936 227.576 41.6717 225.939C41.7246 225.953 41.7775 225.967 41.8305 225.981C42.1455 225.326 42.4614 224.633 42.7631 223.929ZM9.10956 186.099C9.13311 185.962 9.15669 185.825 9.18032 185.688C8.73515 183.453 8.56058 182.101 8.49776 182.68C8.49796 182.682 8.49815 182.683 8.49834 182.684C8.6932 183.813 8.8968 184.952 9.10956 186.099ZM16.7014 20.7038C16.6239 20.7255 16.1974 21.7601 15.7943 23.0384C15.8342 22.9827 15.8742 22.9271 15.9141 22.8717C16.096 22.2075 16.4984 21.3344 17.2939 19.3129C17.2638 19.3006 17.2337 19.2883 17.2036 19.2761C17.0347 19.7438 16.8673 20.2198 16.7014 20.7038ZM9.4373 188.001C9.5019 188.662 10.0413 190.545 9.80623 189.287C9.62857 188.332 9.40105 187.641 9.4373 188.001ZM58.5956 132.442C58.5695 132.951 58.5427 133.459 58.5151 133.966C58.5603 134.232 58.6052 134.497 58.6499 134.763C58.6499 134.762 58.65 134.761 58.65 134.759C58.6339 133.989 58.6157 133.217 58.5956 132.442ZM28.5565 233.667C27.3164 233.017 26.1243 231.989 25.0757 230.836C25.0439 230.844 25.0121 230.851 24.9802 230.858C26.0991 231.933 26.5453 232.403 26.7905 232.622C26.7893 232.621 26.7881 232.62 26.787 232.62C27.6791 233.374 28.5576 233.919 29.4628 234.288C29.1371 234.099 28.8557 233.899 28.5565 233.667ZM32.9443 234.502C32.7457 234.375 32.542 234.429 31.606 234.502C31.3026 234.518 30.9224 234.524 30.4286 234.461C30.5013 234.501 30.5777 234.541 30.6535 234.579C31.036 234.635 31.358 234.639 31.606 234.633C32.0392 234.62 32.2429 234.59 32.1326 234.672C32.4042 234.635 32.6823 234.576 32.9443 234.502ZM17.4928 217.619C17.5356 217.923 18.5656 220.198 18.5472 220.056C18.5198 220.001 17.3724 217.013 17.4928 217.619ZM26.1796 4.85213C25.7751 5.18366 25.3621 5.56149 24.964 5.96247C25.4849 5.40367 25.9889 4.92188 26.5543 4.46108C26.4225 4.59224 26.2947 4.72545 26.1796 4.85213ZM31.2662 2.38367C31.5469 2.38404 30.9119 2.472 31.606 2.49483C31.8084 2.50775 32.1244 2.52006 32.6031 2.59685C32.2731 2.54774 31.9393 2.52354 31.606 2.52526C30.3864 2.52696 29.165 2.9003 28.0629 3.51646C28.7223 3.13106 29.4173 2.83251 30.1285 2.65114C29.9976 2.64961 29.8649 2.65199 29.7306 2.65841C30.2276 2.51074 30.7479 2.41553 31.2662 2.38367ZM32.9507 2.58585C32.5359 2.47832 33.4506 2.55545 34.472 2.99106C35.5054 3.40807 36.5507 4.19221 36.7254 4.33871C36.8073 4.40223 37.1373 4.747 37.2571 4.86999C36.711 4.40095 36.1328 3.97216 35.5169 3.60661C35.7084 3.74239 35.9064 3.89207 36.0893 4.04071C35.3903 3.56994 34.6696 3.19338 33.9137 2.93339C34.2485 3.03131 34.5626 3.14487 34.8883 3.28554C34.2659 2.96776 33.6187 2.72736 32.9507 2.58585ZM19.3458 14.3598C19.624 13.8042 19.9193 13.2369 20.2299 12.6682C20.1409 12.7655 20.0518 12.864 19.9627 12.9635C19.7782 13.3102 19.6017 13.6513 19.4356 13.9803C19.4055 14.1062 19.3755 14.2327 19.3458 14.3598ZM26.8275 4.19531C26.1861 4.82902 24.2282 6.2035 26.4092 4.44506C26.646 4.27176 26.8863 4.13471 26.8275 4.19531ZM38.0797 5.5472C39.501 6.88257 39.0303 6.67391 37.8083 5.36721C37.7449 5.30227 37.9745 5.45397 38.0797 5.5472ZM45.7871 18.0533C45.8481 18.204 45.896 18.4661 46.5442 19.8935C46.6297 20.1287 46.7149 20.3659 46.7997 20.6051C46.5946 20.0519 44.529 15.3846 44.8667 16.0172C45.1898 16.7101 45.4688 17.3056 45.7871 18.0533ZM43.9233 13.4691C43.5723 12.7979 43.1987 12.1185 42.8169 11.4644C42.922 11.6911 43.0266 11.9208 43.1306 12.1536C42.9403 11.8258 42.7492 11.5057 42.5574 11.1935C42.2611 10.6154 41.9575 10.0529 41.6419 9.50204C42.5478 10.8646 43.3868 12.3332 44.1427 13.8004C44.0697 13.689 43.9965 13.5786 43.9233 13.4691ZM29.4963 2.3727C30.1099 2.19945 30.8106 2.06431 31.606 2.05958C32.5199 2.05371 33.5578 2.22818 34.6686 2.72215C34.6696 2.72266 34.6706 2.72318 34.6716 2.72369C34.7742 2.77021 34.942 2.87799 35.2701 3.05273C35.4012 3.10562 36.8346 3.92033 37.956 5.00096C39.0944 6.0525 39.9965 7.23407 39.8238 7.05482C38.2094 5.18968 37.5018 4.61029 36.9932 4.33577C36.9158 4.24138 36.8379 4.1485 36.7594 4.05715C34.9082 2.67818 34.1912 2.60729 32.9973 2.34314C33.0059 2.32494 33.0147 2.30675 33.0234 2.28858C32.5571 2.19187 32.082 2.14184 31.606 2.14185C31.2525 2.14178 30.9007 2.16888 30.5497 2.22287C30.6678 2.21755 30.7853 2.21525 30.9023 2.21594C30.6137 2.24615 30.317 2.29687 30.0383 2.36196C29.3394 2.46171 28.446 2.80535 29.4963 2.3727ZM45.4079 16.6102C45.8901 17.1786 48.3714 23.6613 49.2977 26.6822C48.7131 25.1142 47.9269 22.6732 47.272 20.9769C45.9952 17.7277 46.8318 19.9926 46.5936 19.4493C46.4742 19.1701 45.7943 17.3176 45.4079 16.6102ZM25.1849 5.10303C26.4028 3.98873 27.1876 3.38305 28.4944 2.81825C28.3928 2.87677 28.2917 2.93762 28.1908 3.00079C27.9607 3.10159 27.0015 3.62565 26.2211 4.2485C25.47 4.83108 24.8844 5.41612 25.1849 5.10303ZM50.6115 31.143C49.7056 27.8621 50.0678 29.5377 49.6352 27.8064C49.991 28.9293 50.3167 30.0041 50.6449 31.1335C50.6338 31.1366 50.6226 31.1398 50.6115 31.143ZM9.31102 191.965C9.58123 193.337 9.87762 194.935 10.1472 195.743C9.95492 194.803 9.75781 193.808 9.58155 192.884C9.49096 192.579 9.40078 192.273 9.31102 191.965ZM3.21235 151.717C3.21582 152.044 3.36992 153.32 3.38073 153.454C3.4 153.704 3.36618 153.638 3.35898 153.642C3.49386 155.295 3.46193 153.761 3.57936 154.987C3.59769 155.2 3.79497 158.073 3.9069 159.22C4.07739 161.027 4.25198 162.815 4.32215 163.478C4.43722 164.58 4.73475 166.712 4.95463 168.546C5.0457 169.308 5.02067 169.562 5.11718 170.342C5.68997 175.261 7.24983 184.93 8.0652 189.236C8.26046 190.324 8.38709 191.359 8.50517 191.92C8.62044 192.358 8.73654 192.793 8.85345 193.225C8.89096 194.634 9.20957 195.076 9.55268 196.527C9.77236 197.451 9.79764 197.888 9.82686 198.016C10.0218 198.86 10.1532 199.263 10.3141 199.913C10.4944 200.643 10.717 201.682 10.7871 201.934C10.833 202.084 10.7895 201.576 11.5276 204.393C12.2814 207.23 13.1112 210.091 14.0486 212.909C14.0277 211.881 13.5644 211.131 13.1845 209.937C13.0829 209.616 13.1912 209.805 13.1039 209.527C12.8668 208.775 12.3875 207.303 12.2146 206.64C12.0287 205.932 12.1972 206.126 11.9199 205.27C11.9058 205.226 11.8997 205.378 11.8363 205.175C11.2066 203.123 11.0891 202.365 10.4543 199.724C9.95592 197.962 7.73671 187.108 7.75775 186.741C7.5205 184.769 9.71574 196.225 10.0772 197.515C10.177 197.973 10.0187 197.504 10.1051 197.925C10.143 198.109 10.6133 199.732 11.0101 201.292C11.4865 203.219 12.4677 207.08 13.0184 208.865C14.7087 214.447 16.7084 220.039 19.4164 225.154C22.1124 230.027 25.7735 235.835 31.606 236.075C35.9639 236.028 39.2608 232.336 41.6668 228.772C41.8515 228.491 42.0432 228.103 42.6354 227.117C52.6248 208.66 55.7373 186.538 58.229 165.52C58.7178 160.924 59.0607 156.314 59.4489 151.66C59.4385 151.078 59.4268 150.494 59.4139 149.909C59.3569 151.407 59.0366 154.077 59.0128 154.338C59.0052 154.428 59.0197 154.999 58.9421 155.906C58.8327 157.181 58.7328 157.729 58.724 157.833C58.6957 158.155 58.7677 157.949 58.7404 158.256C58.5354 160.545 58.3741 162.363 58.1574 164.445C57.9043 166.848 57.6667 168.042 57.5703 169.769C57.505 169.959 57.439 170.155 57.3732 170.347C57.413 171.699 56.3641 179.335 55.8211 182.472C55.6601 183.448 55.6158 183.263 55.5623 183.59C55.5247 183.805 55.6469 183.708 55.1794 186.295C54.9428 187.583 54.8133 187.902 54.6987 188.54C54.6358 188.888 54.7148 188.836 54.6198 189.343C54.0665 192.28 53.5604 194.637 52.92 197.437C52.7407 198.215 52.6784 198.231 52.6391 198.406C52.4888 199.068 52.3145 200.24 51.9097 201.862C51.2411 204.636 49.717 209.957 48.9304 212.13C48.8209 212.444 48.6732 212.681 48.5972 212.911C48.4767 213.276 48.493 213.439 48.4718 213.503C48.0606 214.702 48.2492 213.962 47.9858 214.76C47.8401 215.193 47.7697 215.629 47.4023 216.635C46.9129 217.956 46.9247 217.656 46.7225 218.197C46.7013 218.253 46.7543 218.297 46.547 218.815C45.7421 220.849 44.4592 223.669 43.4689 225.461C43.1852 225.98 42.9434 226.329 42.5359 227.015C42.0931 227.756 40.7044 230.073 38.9253 231.992C37.1977 233.955 35.0135 235.117 34.6781 235.209C34.606 235.232 35.2853 234.857 34.1455 235.329C33.8163 235.492 33.4824 235.631 33.1423 235.744C32.6271 235.806 32.1096 235.811 31.606 235.76C31.5208 235.752 31.436 235.742 31.3516 235.73C31.3667 235.836 30.4661 235.87 29.6236 235.626C28.7529 235.393 27.9988 234.93 28.0608 234.845C27.7154 234.656 27.3747 234.441 27.0641 234.223C26.3027 233.867 25.8917 233.533 24.6469 232.415C24.5026 232.205 24.3685 231.998 24.2315 231.782C24.1671 231.755 24.1025 231.728 24.0378 231.7C23.5543 230.936 22.5808 229.915 22.4736 229.761C22.065 229.208 21.8127 228.758 21.6438 228.506C20.9746 227.54 19.6346 225.322 19.0416 224.062C19.0137 224.004 19.1021 224.031 18.9341 223.678C18.632 223.034 18.5117 223.017 18.2003 222.082C18.09 221.913 17.9892 221.763 17.8839 221.602C17.8146 221.413 17.7456 221.224 17.6769 221.032C17.1807 219.937 16.7024 218.805 16.2598 217.697C16.7681 218.671 16.3599 217.496 15.8462 216.378C15.6722 215.999 15.7376 216.369 15.6792 216.242C15.5816 216.116 13.845 210.948 13.8077 210.582C13.7093 210.341 13.6112 210.098 13.5134 209.853C13.5149 209.713 13.5165 209.574 13.5182 209.434C13.4631 209.304 13.4087 209.177 13.3541 209.047C13.0125 207.706 11.8614 204.181 11.717 203.538C11.6342 203.188 11.8848 203.462 11.4406 201.788C11.3788 201.744 11.317 201.7 11.2553 201.655C11.155 201.284 11.0554 200.911 10.9564 200.535C10.7872 199.827 10.6225 198.757 10.6711 198.71C10.5844 198.492 10.4979 198.273 10.4117 198.053C10.3804 197.442 9.63115 194.235 9.30303 192.954C9.25923 192.573 9.21596 192.191 9.17322 191.806C9.03131 191.307 8.89049 190.804 8.75078 190.297C8.5087 189.105 8.81817 190.354 8.77474 190.099C8.67391 189.537 8.0683 186.88 8.24127 187.024C8.1747 186.653 8.10867 186.281 8.04315 185.907C7.96943 185.722 7.89588 185.536 7.82249 185.349C7.84602 184.664 7.60952 183.61 7.29466 181.32C7.23273 181.133 7.17097 180.947 7.10936 180.759C7.04198 180.039 6.97967 179.335 6.91979 178.632C6.84642 178.497 6.77315 178.361 6.7 178.225C6.6474 177.922 6.59515 177.618 6.54325 177.313C6.56848 176.675 6.28424 175.568 6.25291 174.983C6.21011 174.149 6.376 174.771 6.61287 176.325C6.67072 176.178 6.01393 171.633 5.882 170.549C5.87448 170.622 5.86698 170.695 5.85948 170.767C6.00923 171.858 6.16318 172.94 6.32124 174.011C6.23082 174.939 5.89421 172.017 5.70034 170.65C5.68257 170.526 5.51283 169.824 5.36086 168.475C5.3006 167.953 5.18206 165.876 5.14612 165.476C4.85737 162.287 4.93854 164.653 4.76657 161.528C4.72199 162.193 4.63019 160.375 4.4407 158.523C4.40621 158.212 4.0847 155.533 4.06934 155.346C3.96191 154.208 4.15826 155.442 4.00087 153.792C3.96019 153.599 3.91965 153.405 3.87927 153.211C3.8499 152.832 3.821 152.453 3.79257 152.072C3.84559 149.743 3.64764 149.205 3.57093 148.376C3.54062 148.043 3.62633 148.467 3.55861 147.61C3.53344 147.288 3.46197 146.933 3.40568 146.06C3.23339 143.32 3.38882 142.37 3.05754 139.871C3.07043 139.483 3.08372 139.094 3.09742 138.705C3.04922 138.445 3.00128 138.184 2.95362 137.923C2.97802 135.906 2.89988 136.646 2.87337 135.924C2.80118 134.036 2.71412 130.104 2.79582 129.776C2.55727 128.143 2.74727 126.164 2.73003 125.512C2.70028 125.124 2.67114 124.74 2.64253 124.357C2.66088 123.906 2.6798 123.454 2.6993 123.002C2.50805 123.225 2.67889 120.877 2.68199 120.65C2.6827 120.54 2.66988 119.839 2.65783 118.959C2.6406 117.743 2.62772 116.198 2.6337 115.42C2.64159 114.082 2.72214 111.747 2.72626 111.537C2.72896 111.299 2.71395 109.009 2.75821 107.236C2.77031 105.657 3.19548 96.4164 3.1064 96.9984C3.05589 97.6001 2.99815 98.4598 2.95661 99.2065C2.77643 101.518 2.42792 115.093 2.46919 118.575C2.4687 118.703 2.46826 118.831 2.46789 118.959C2.44636 125.811 2.61033 132.939 2.90603 139.799C2.92376 140.21 2.87512 140.275 2.89056 140.627C2.91396 141.164 3.03301 142.501 3.0609 143.038C3.16036 145.026 3.29913 147.408 3.36763 148.456C3.52193 150.834 3.60997 152.435 3.74515 154.211C3.78681 154.778 4.08605 157.597 4.23887 159.511C4.2567 159.866 4.27491 160.219 4.29351 160.572C4.17635 159.557 3.90001 156.991 3.79532 155.767C3.63736 153.951 3.61138 153.015 3.56052 152.353C3.5166 151.805 3.26479 148.935 3.1847 147.643C3.15901 147.242 3.20873 147.157 3.18732 146.813C3.07022 144.954 2.93396 142.454 2.80548 140.851C2.85138 141.516 2.69839 137.369 2.69412 137.144C2.6792 136.765 2.61341 136.372 2.58599 135.613C2.53509 134.155 2.64457 134.338 2.48474 132.508C2.50186 132.053 2.51954 131.597 2.5378 131.141C2.39173 131.125 2.45738 125.39 2.28448 123.772C2.25202 123.716 2.33125 131.168 2.36052 131.779C2.43877 135.474 2.69875 140.902 2.87989 144.482C2.9292 145.568 3.05203 148.916 3.07468 149.188C3.10477 149.602 3.12969 149.225 3.14343 149.403C3.43299 153.043 3.20813 151.23 3.21235 151.717ZM33.0415 2.12714C32.5699 2.02926 32.0883 1.97798 31.606 1.97696C31.0591 1.97526 30.5058 2.03976 29.9738 2.1627C30.0411 2.12446 30.109 2.08721 30.1777 2.05094C30.6516 1.96333 31.1258 1.92312 31.6012 1.93056C31.6028 1.9305 31.6044 1.93044 31.606 1.93038C31.9698 1.91685 32.3361 1.93172 32.6989 1.97405C32.8147 2.02232 32.9289 2.07339 33.0415 2.12714ZM35.482 2.9491C36.276 3.38888 36.2963 3.49249 36.4631 3.60278C36.9733 3.96687 37.4229 4.30828 37.883 4.72412C37.2991 4.31338 36.1096 3.36176 35.482 2.9491ZM20.4017 11.0296C20.5182 10.8457 21.3401 9.66668 22.1913 8.28342C22.9216 7.32225 23.7299 6.38062 24.5588 5.57454C23.0928 6.9684 21.5328 9.3877 21.0206 10.2409C20.8157 10.5714 20.7448 10.6171 20.5817 10.8893C19.699 12.3601 18.9826 13.9978 18.8015 14.0798C19.5618 12.6249 20.2718 11.2334 20.4017 11.0296ZM27.3462 3.18835C27.6025 3.0616 27.8576 2.94853 28.1109 2.84905C27.2122 3.3038 26.419 3.8708 25.6635 4.5239C25.8447 4.33284 26.0328 4.14429 26.2406 3.95124C26.608 3.66782 26.9762 3.41367 27.3462 3.18835ZM4.46188 77.2295C4.52247 76.5923 4.58442 75.9577 4.6477 75.3258C4.62176 75.3579 4.55034 76.082 4.50945 76.3484C4.50957 76.3472 4.50968 76.346 4.5098 76.3448C4.46388 76.6414 4.44713 76.5106 4.38246 77.0528C4.40891 77.1117 4.43538 77.1706 4.46188 77.2295ZM59.6212 149.146C59.7239 148.086 60.2266 138.247 60.0347 139.077C59.9522 139.507 59.8553 142.841 59.7964 143.855C59.727 145.209 59.3647 148.769 59.6212 149.146ZM60.447 131.711C60.3243 131.553 60.106 137.673 60.093 138.297C60.1174 138.169 60.1679 137.973 60.1844 137.803C60.2687 136.956 60.3792 133.056 60.447 131.711ZM2.36466 112.834C2.4158 112.335 2.46758 111.836 2.52 111.339C2.45973 111.469 2.39947 111.599 2.33921 111.73C2.34724 112.098 2.35572 112.466 2.36466 112.834ZM4.36177 160.969C5.15937 169.218 6.20802 177.393 7.62298 185.565C7.46848 184.84 7.32039 184.134 7.175 183.428C6.01665 176.398 5.08637 168.846 4.36752 161.997C4.36527 161.655 4.36335 161.312 4.36177 160.969ZM19.0987 12.9555C18.1336 14.8037 17.4271 16.4142 16.478 18.5609C17.2957 16.4685 17.8019 15.5424 18.6869 13.6035C18.6874 13.6025 18.688 13.6015 18.6885 13.6004C18.8247 13.3829 18.9508 13.1882 19.0987 12.9555ZM6.54855 58.3627C6.60789 57.7278 6.67373 57.0653 6.7389 56.4226C6.61787 57.1887 6.49591 57.9819 6.38377 58.73C6.43868 58.6073 6.4936 58.4849 6.54855 58.3627ZM22.1954 230.234C23.4259 232.062 27.6478 236.062 29.6221 236.076C29.7317 236.083 28.7468 235.813 30.3958 236.061C29.1583 235.874 28.3214 235.457 28.2056 235.509C27.8763 235.323 27.5497 235.113 27.2305 234.883C26.7038 234.589 26.1578 234.221 25.652 233.829C25.7589 233.797 25.7185 233.802 24.9576 233.184C24.6438 232.86 24.332 232.511 24.0595 232.185C23.9067 232.074 23.7535 231.959 23.6001 231.84C23.3848 231.517 23.1546 231.16 22.9628 230.837C22.0144 229.705 22.486 230.472 22.1954 230.234ZM18.2589 223.567C18.1637 224.005 23.7734 232.618 21.364 228.633C20.7005 227.637 20.0771 226.593 19.4958 225.535C19.7186 226.558 18.3929 223.519 18.3041 223.267C17.7371 222.043 17.0433 220.633 16.6675 219.722C16.3501 218.955 16.2326 218.525 16.0201 217.992C15.2764 216.148 14.2947 213.304 14.0486 212.909C14.5401 214.384 15.0279 215.762 15.6083 217.269C16.2151 218.812 16.6338 220.236 18.0983 222.985C18.4215 223.693 18.2224 223.48 18.2589 223.567ZM7.05597 54.5092C7.11594 54.6139 7.76399 50.7163 7.74236 50.6935C7.72468 50.6812 7.50184 51.9426 7.4638 52.1244C7.4636 52.1256 7.46339 52.1268 7.46318 52.128C7.44698 52.2031 7.48261 51.8137 7.37053 52.4096C7.26035 53.1241 7.15738 53.8135 7.05597 54.5092ZM58.63 164.443C58.8054 163.965 59.844 151.828 59.7855 151.499C59.7821 151.401 59.7381 151.533 59.721 151.494C59.6339 154.297 59.1664 158.309 58.8975 160.987C58.8233 161.734 58.899 161.516 58.8961 161.558C58.8959 161.56 58.8957 161.562 58.8955 161.563C58.8553 161.989 58.5311 163.875 58.63 164.443ZM33.3868 236.07C32.9013 236.169 32.3892 236.223 31.8919 236.224C31.7978 236.255 31.7025 236.285 31.606 236.314C31.574 236.323 31.542 236.332 31.5099 236.341C31.511 236.341 31.5122 236.341 31.5134 236.341C31.5442 236.34 31.5751 236.34 31.606 236.339C32.2081 236.322 32.8152 236.228 33.3868 236.07ZM45.0733 223.411C44.9937 223.513 44.9142 223.613 44.8346 223.713C44.2801 224.83 43.6265 226.045 42.9931 227.106C43.044 226.99 43.0947 226.873 43.1453 226.756C42.1046 228.447 41.7553 229.098 41.1102 229.978C41.1109 229.977 41.1116 229.976 41.1123 229.975C41.0444 230.065 40.919 230.145 40.6694 230.47C40.1409 231.236 38.2437 233.23 38.004 233.454C37.6665 234.107 41.3447 230.026 41.8117 229.046C42.0658 228.675 42.408 228.231 42.5606 227.988C42.7228 227.729 42.9141 227.294 43.2743 226.674C43.3859 226.509 44.6443 224.359 45.0733 223.411ZM52.3992 201.745C52.2447 202.104 52.0912 202.957 52.0044 203.249C51.9836 203.32 52.0758 202.75 51.8862 203.42C51.8719 203.62 51.8573 203.818 51.8426 204.017C52.0308 203.27 52.2214 202.492 52.3992 201.745ZM8.16819 48.0128C8.13345 48.1382 7.75708 50.1841 7.74593 50.2879C7.59056 51.535 8.36945 47.2686 8.16819 48.0128ZM30.0606 1.61285C29.7946 1.65858 30.4531 1.42693 31.606 1.41453C34.9708 0.951536 39.7222 5.68749 40.0694 6.35005C40.019 6.3191 38.1721 4.30279 39.1091 5.38893C38.2851 4.27011 35.1498 2.10555 34.2374 1.95665C33.7307 1.77424 33.6135 1.70618 33.5325 1.68092C33.3632 1.62998 32.4643 1.43641 31.606 1.45709C30.8853 1.4606 30.2168 1.59453 30.0606 1.61285ZM45.0566 14.4167C44.5865 13.4309 44.0994 12.4726 43.5594 11.4967C44.2086 12.6318 44.8009 13.7739 45.3565 14.9253C45.2567 14.754 45.1568 14.5845 45.0566 14.4167ZM45.6718 15.6552C45.717 15.5807 47.1653 19.0046 47.5109 19.9218C47.0304 18.9314 46.4038 17.1875 45.6718 15.6552ZM11.0563 34.3202C10.5843 35.9815 10.5869 36.7599 11.0275 34.6933C11.0408 34.6306 11.0764 34.2513 11.0563 34.3202ZM22.19 230.897C22.2843 231.141 24.7463 233.976 24.9947 234.012C25.5954 234.362 23.739 232.757 23.301 232.102C22.544 231.045 23.7238 232.469 21.8011 230.032C21.9015 230.121 22.0018 230.209 22.102 230.295C21.0126 228.765 21.2256 229.383 21.0122 229.125C20.9496 229.054 20.3421 228.076 20.2208 227.894C18.6871 225.716 21.9317 230.76 22.19 230.897ZM4.02556 76.039C3.63503 79.4391 3.86215 77.9801 3.55331 81.4536C3.58413 81.5721 4.01364 76.4909 4.02556 76.039ZM10.0691 200.14C10.9075 203.526 11.5952 206.409 12.636 209.486C12.6664 209.3 9.83314 199.236 10.0691 200.14ZM61.5621 123.968C61.0431 137.68 60.3327 153.478 58.6433 167.98C58.4603 169.556 58.3627 169.679 58.3008 170.263C58.26 170.642 58.3318 170.584 58.2698 171.085C55.9265 188.978 52.9907 206.326 45.9476 222.269C45.5181 223.343 42.9302 227.921 42.3673 228.963C42.0288 229.783 43.9883 226.454 44.2513 225.875C44.4848 225.446 44.5542 225.458 44.7088 225.165C44.8689 224.859 44.697 225.089 44.8738 224.746C45.6256 223.281 46.4067 221.618 46.9949 220.215C52.6017 206.443 55.3434 192.248 57.5427 177.751C57.798 175.991 57.8021 176.356 57.8156 176.269C57.8156 176.267 57.8156 176.266 57.8156 176.265C59.1634 166.825 60.0746 155.948 60.7143 145.898C61.1778 138.804 61.4688 131.696 61.6018 124.583C61.5887 124.378 61.5755 124.173 61.5621 123.968ZM18.3884 224.363C18.617 225.196 18.8371 225.381 20.4139 228.139C20.5812 228.345 20.7487 228.546 20.9163 228.742C19.9787 227.317 19.1555 225.862 18.386 224.359C18.3868 224.36 18.3876 224.362 18.3884 224.363ZM33.8977 236.346C34.2005 236.415 36.1487 235.79 37.9105 234.263C39.7083 232.77 41.2261 230.712 42.1746 229.349C42.4447 228.8 39.6898 232.663 38.7861 233.333C38.3986 233.724 36.0715 235.674 33.8602 236.328C33.8726 236.334 33.8852 236.34 33.8977 236.346ZM20.8763 9.02884C20.5988 9.45912 20.3237 9.90556 20.0509 10.3679C20.7576 9.23076 21.4764 8.18449 22.2888 7.15423C20.9904 8.83179 19.9226 10.5616 18.9251 12.3889C19.0816 12.0258 19.2397 11.6694 19.3994 11.3199C19.8477 10.5751 20.3695 9.7568 20.8763 9.02884ZM17.628 14.9229C19.221 11.6602 17.6097 15.085 17.2103 15.91C16.9681 16.3826 17.4573 15.2779 17.628 14.9229ZM14.0404 23.64C14.5175 22.0249 15.7708 18.8217 15.4401 20.0031C14.7116 21.7316 14.3655 22.7913 13.4864 25.3192C13.583 24.9518 13.6814 24.5845 13.7884 24.1982C13.789 24.1965 13.7896 24.1948 13.7902 24.1931C13.8735 24.0076 13.9569 23.8232 14.0404 23.64ZM18.2947 13.4041C19.3998 11.3192 16.3719 17.4809 17.2645 15.527C17.3033 15.4169 18.2484 13.4685 18.2947 13.4041ZM61.3832 139.136C61.3213 138.847 61.2404 140.671 61.2046 141.273C61.0554 143.895 60.8908 147.258 60.6885 150C60.7271 149.795 60.7655 149.59 60.8039 149.385C61.0372 145.978 61.2305 142.543 61.3832 139.136ZM60.0072 158.528C59.839 160.387 59.6527 162.292 59.4579 164.139C59.4399 164.312 59.4151 165.127 59.4944 164.527C59.6789 162.554 59.8531 160.519 60.0072 158.528ZM13.5459 213.492C13.9704 214.877 12.5037 211 12.7479 211.109C13.0104 211.92 13.2699 212.695 13.5459 213.492ZM9.80533 200.604C10.0332 201.476 10.2627 202.329 10.5099 203.223C10.4899 203.23 10.4698 203.236 10.4498 203.243C10.2226 202.342 10.0132 201.482 9.80533 200.604ZM61.7044 131.746C61.5867 132.707 61.5277 134.992 61.4702 136.405C61.5872 135.436 61.6283 133.1 61.7044 131.746ZM23.4218 232.784C23.3833 232.707 24.4035 233.804 25.3136 234.538C26.2886 235.338 27.0923 235.819 26.211 235.31C25.1548 234.563 24.2502 233.705 23.4218 232.784ZM34.3892 236.681C33.1366 237.127 32.0692 237.124 32.343 237.03C33.048 236.97 33.7253 236.823 34.391 236.597C34.3905 236.625 34.3899 236.653 34.3892 236.681ZM11.9913 29.7403C11.4042 31.7634 10.8833 33.7078 10.3679 35.7694C10.3729 35.6897 10.3779 35.61 10.3829 35.5305C10.8808 33.55 11.3862 31.67 11.952 29.7214C11.9651 29.7277 11.9782 29.734 11.9913 29.7403ZM61.9773 130.578C61.9965 129.162 62.0094 127.739 62.0158 126.31C61.9736 127.74 61.9252 129.163 61.8705 130.579C61.9062 130.58 61.9419 130.58 61.9777 130.581C61.9775 130.58 61.9774 130.579 61.9773 130.578ZM24.3685 4.26045C19.9398 9.02505 25.2603 2.62885 27.1754 2.1103C27.177 2.1093 27.1786 2.1083 27.1802 2.1073C27.3207 2.03846 27.0513 2.23243 27.2856 2.12038C26.6537 2.44938 26.1395 2.77487 25.5752 3.18743C25.0869 3.59501 24.6846 3.97842 24.25 4.42806C24.0998 4.5612 23.9416 4.70719 23.8005 4.84008C23.9803 4.64853 24.178 4.44664 24.3685 4.26045ZM44.7105 12.49C47.2521 17.6686 44.6993 12.3791 43.2066 9.88915C43.2488 9.89649 44.4837 12.0204 44.7105 12.49ZM34.4492 1.42059C33.5525 1.10713 32.5804 0.931332 31.6158 0.939243C31.6125 0.938943 31.6093 0.938645 31.606 0.938349C31.4859 0.927515 31.3654 0.919348 31.2446 0.913863C31.3648 0.90692 31.4853 0.902648 31.606 0.901066C32.231 0.892737 32.854 0.95747 33.4635 1.08948C33.8057 1.18234 34.1258 1.29122 34.4492 1.42059ZM14.5148 20.9246C14.0031 22.2791 13.4448 24.0869 15.0917 19.6627C15.0778 19.6597 15.0638 19.6569 15.0499 19.654C14.983 19.8282 14.7947 20.3498 14.7829 20.3785C14.7484 20.4593 14.741 20.3436 14.5148 20.9246ZM49.2328 22.189C49.289 22.3393 49.4524 22.3904 49.8785 24.0468C50.0498 24.5295 50.2198 25.0188 50.3884 25.5145C50.4037 25.6513 50.4198 25.7916 50.433 25.9232C49.8331 23.996 49.705 23.8367 49.6594 23.698C49.4389 23.0725 49.6261 23.5273 49.4848 23.1182C49.1282 22.0625 48.2205 19.7154 48.7015 20.7578C48.8796 21.1444 49.1734 22.0338 49.2328 22.189ZM47.9089 18.5001C47.991 18.7306 47.66 18.0158 47.7196 18.1909C47.7817 18.3451 48.6224 20.6046 48.3261 20.0195C48.1861 19.6484 48.0506 19.2948 47.901 18.9135C47.8666 18.7806 47.832 18.6482 47.7973 18.5163C47.6374 18.1642 47.4766 17.8171 47.3151 17.475C47.1052 16.8631 46.5948 15.5576 47.2865 17.065C47.0423 16.5021 46.7957 15.952 46.5468 15.4151C46.3991 15.141 46.244 14.8562 46.0916 14.583C46.1906 14.718 46.2894 14.8542 46.388 14.9918C46.9235 16.1435 47.4333 17.3261 47.9089 18.5001ZM53.4394 36.2437C53.4074 36.1772 53.3755 36.1109 53.3435 36.0446C53.9009 38.1616 54.6473 41.5035 54.1317 39.6283C53.4654 36.7227 52.7442 33.859 51.9321 30.9804C51.8907 30.7889 51.8494 30.5989 51.8054 30.4009C52.3559 32.5388 52.3618 31.8433 52.8012 33.7214C52.8729 34.0397 52.5762 33.1348 53.1231 35.1126C53.12 35.0376 53.117 34.9628 53.1139 34.888C53.224 35.339 53.3353 35.8023 53.4394 36.2437ZM57.1074 54.7505C56.5236 51.0603 57.2439 55.1049 57.3055 55.81C57.3054 55.8088 57.3052 55.8076 57.305 55.8064C57.4851 57.7134 56.9022 53.6466 56.8563 53.4163C56.8007 53.0909 56.5899 52.3268 56.403 50.5425C56.6464 51.9302 56.8854 53.3588 57.1074 54.7505ZM54.9012 42.6811C54.9691 42.9897 54.9111 42.8232 54.9395 42.9568C54.9398 42.958 54.94 42.9592 54.9403 42.9603C55.3737 44.9362 56.2699 49.6174 56.2853 50.1591C56.041 48.6769 54.7213 42.1489 54.6638 41.7553C54.7434 42.0625 54.8225 42.3711 54.9012 42.6811ZM51.423 28.9432C51.1211 27.7428 51.9167 30.422 52.0817 31.1282C52.1147 31.2664 51.7361 30.1857 51.423 28.9432ZM6.11166 51.9882C5.67578 54.708 6.33615 51.1493 6.18004 52.393C6.26549 51.8747 6.35199 51.3593 6.43951 50.8469C6.3298 51.2255 6.22052 51.6059 6.11166 51.9882ZM3.95694 175.504C4.03329 176.142 4.04042 175.834 4.04852 175.889C4.10364 176.307 4.11883 176.704 4.14497 176.863C4.63572 179.784 4.40161 177.828 4.40626 177.798C4.44472 177.729 4.60894 178.491 4.51198 177.417C4.40405 176.771 4.29766 176.122 4.19285 175.468C4.17467 175.135 4.15949 174.82 4.14353 174.497C3.92074 173.228 4.12337 174.901 4.07464 175.098C4.05536 175.178 3.86011 173.975 3.95694 175.504ZM5.18255 56.7773C5.17606 57.2261 5.08823 58.3212 5.31887 57.269C5.31906 57.2678 5.31925 57.2666 5.31944 57.2654C5.36187 57.0706 5.49511 56.2763 5.55112 56.0362C5.74913 54.2953 5.55101 54.9344 5.18255 56.7773ZM2.45452 163.879C2.36955 162.836 2.28813 161.785 2.21031 160.727C2.26036 160.741 2.31042 160.754 2.36049 160.767C2.39938 161.333 2.43929 161.897 2.48021 162.459C2.5213 162.653 2.56254 162.848 2.60393 163.041C2.59132 162.342 2.58012 161.639 2.57036 160.934C2.47264 160.091 2.37764 159.246 2.28699 158.418C2.29463 158.804 2.30247 159.187 2.31122 159.575C2.10463 157.539 2.26077 157.974 2.16573 156.272C2.0741 155.693 1.98372 155.111 1.8946 154.528C1.87407 153.67 1.85842 152.844 1.84344 151.997C1.72432 150.585 1.6835 150.46 1.6976 151.418C1.59156 150.718 1.63093 149.939 1.55343 149.086C1.54709 149.015 1.5013 149.152 1.49671 149.089C1.19332 144.715 1.36392 144.934 1.32938 144.232C1.30616 143.732 1.1161 141.76 1.08364 141.734C1.04105 141.695 1.04751 145.803 0.762882 139.384C0.774168 142.704 1.10709 146.504 1.15194 144.038C1.18172 145.105 1.4999 149.716 1.52097 150.028C1.54132 150.462 1.4641 150.315 1.49842 150.856C1.52004 151.177 1.72511 152.006 1.78005 154.537C1.83017 154.86 1.88068 155.183 1.93157 155.505C1.93455 155.81 1.9378 156.116 1.94131 156.42C1.81636 155.803 1.69292 155.183 1.57102 154.561C1.8412 157.05 1.86145 159.061 2.12929 160.575C2.23354 161.883 2.28032 162.512 2.16079 161.961C2.19763 162.351 2.23499 162.741 2.27285 163.129C2.33314 163.379 2.3937 163.629 2.45452 163.879ZM4.11868 64.6951C3.88724 65.967 3.96101 66.4515 3.99399 66.2508C4.18022 65.125 4.23963 64.0351 4.11868 64.6951ZM3.74223 173.172C3.60611 171.76 3.47219 170.292 3.35528 168.896C3.30339 168.902 3.2515 168.908 3.1996 168.915C3.36805 170.305 3.55387 171.766 3.74223 173.172ZM6.09191 51.5779C6.14508 51.4529 6.19827 51.3282 6.25149 51.2037C6.42048 49.6356 6.86169 48.174 6.98269 47.3848C7.00821 47.2173 6.89038 47.5425 6.81763 47.859C6.7629 48.0781 6.1286 51.2847 6.09191 51.5779ZM37.9738 2.77657C37.4693 2.40311 36.9401 2.05926 36.3832 1.75685C36.4277 1.74923 36.4723 1.74189 36.5171 1.73484C36.7881 1.88849 37.0644 2.05996 37.3231 2.23295C37.5427 2.40592 37.7595 2.5872 37.9738 2.77657ZM31.1645 0.395504C29.9802 0.448759 28.825 0.755818 27.7791 1.22608C29.8225 0.372731 30.0912 0.528587 30.0561 0.478095C30.0373 0.48729 29.7857 0.441149 31.1601 0.310511C31.1616 0.338842 31.163 0.367173 31.1645 0.395504ZM21.747 6.23046C21.8147 6.11652 21.8737 6.01463 21.9516 5.89103C22.6719 5.01486 23.3727 4.25666 24.2205 3.48955C23.6568 3.9134 23.1073 4.38245 22.6079 4.84164C22.3389 5.13847 22.0725 5.44783 21.8085 5.76948C21.7776 5.93427 21.7662 6.07679 21.747 6.23046ZM8.91461 203.24C9.06732 203.872 9.70709 205.967 9.71472 205.863C9.51835 204.982 9.32565 204.088 9.13666 203.18C9.08153 203.189 9.0264 203.199 8.97127 203.209C8.96622 203.075 8.96125 202.94 8.95635 202.806C8.80699 202.293 8.66964 201.818 8.52799 201.318C8.51453 201.054 8.50132 200.789 8.4884 200.523C8.37408 200.28 8.26008 200.036 8.14639 199.791C8.6248 202.264 8.70526 202.128 8.82795 202.639C8.8926 202.902 8.90056 203.075 8.90693 203.172C8.90949 203.195 8.91205 203.217 8.91461 203.24ZM3.28657 172.235C3.6387 175.18 4.01513 176.877 4.20412 179.016C4.2236 177.619 2.83249 168.786 2.74079 165.622C2.66771 165.301 2.59399 164.968 2.52283 164.655C2.73257 166.366 2.78393 167.562 2.86472 168.39C2.92945 169.048 2.96302 168.974 2.96807 169.024C2.96834 169.027 2.96861 169.029 2.96887 169.031C3.12648 170.554 3.14889 171.068 3.28657 172.235ZM6.34313 49.3766C6.14886 50.146 5.90359 51.5316 5.9707 51.5603C6.12892 50.7912 6.28926 50.029 6.4517 49.2738C6.4048 49.4264 6.37619 49.2449 6.34313 49.3766ZM20.8541 7.11594C20.4251 7.65442 19.63 8.8965 20.0289 8.39173C20.0859 8.31003 20.9391 7.02321 20.4957 7.82744C21.3735 6.58631 21.0856 6.82834 20.8541 7.11594ZM0.471666 121.447C0.468357 120.921 0.465919 120.395 0.464358 119.867C0.431322 119.744 0.398359 119.622 0.365469 119.499C0.399403 120.149 0.434806 120.799 0.471666 121.447ZM7.63385 42.7322C7.91614 42.0701 8.04469 40.8718 8.44491 39.64C8.55755 39.1579 8.67117 38.6794 8.78578 38.2045C8.78606 38.2033 8.78634 38.2021 8.78662 38.201C8.75398 38.1797 8.72135 38.1583 8.68872 38.137C8.31141 39.701 7.97312 41.1774 7.63385 42.7322ZM1.60798 154.162C1.60577 153.836 1.60451 153.518 1.60322 153.195C1.53618 152.626 1.47028 152.055 1.40552 151.482C1.40839 151.794 1.41154 152.106 1.41496 152.417C1.47813 153.001 1.54214 153.578 1.60798 154.162ZM9.60114 34.4224C9.15043 36.0951 9.11001 36.7321 9.65521 34.6089C9.88901 33.7136 10.0761 32.696 9.60114 34.4224ZM22.0167 233.495C21.6134 233.018 21.1958 232.484 20.8521 232.01C20.6967 231.869 20.5415 231.724 20.3866 231.575C20.8902 232.223 21.432 232.868 22.0167 233.495ZM27.1075 1.31764C27.0496 1.37259 26.9923 1.42812 26.9356 1.48421C26.4033 1.77125 25.9605 2.05266 25.4922 2.38667C25.5948 2.2848 25.6985 2.18481 25.8032 2.08674C26.2107 1.81387 26.6442 1.55419 27.1075 1.31764ZM19.4977 230.148C19.2399 229.747 18.9852 229.334 18.7331 228.908C18.5475 228.639 18.3476 228.338 18.1807 228.087C18.3826 228.469 18.6228 228.903 18.8477 229.296C19.0632 229.587 19.2799 229.871 19.4977 230.148ZM14.5699 19.0434C14.2972 19.6277 13.4245 22.1717 14.3077 19.9285C14.8754 18.5263 14.6111 18.9568 14.5699 19.0434ZM15.9385 15.762C14.8914 18.0276 15.8148 16.4358 16.9987 13.6235C15.6744 16.4173 16.0194 15.6164 15.9385 15.762ZM31.5935 0C31.5977 1.62125e-05 31.6018 0.000148773 31.606 0.000385523C31.6761 0.00736332 31.7629 0.0266298 32.3174 0.0685501C34.4922 0.186241 36.9028 1.55623 37.9755 2.43051C41.1031 4.2674 45.9948 12.7644 46.2341 13.854C46.3161 14.0716 46.0281 13.6198 46.0662 13.7061C46.1803 13.9476 46.8919 15.4063 46.7235 15.1551C46.0589 13.7045 45.3689 12.3208 44.5863 10.9239C44.803 11.2431 45.03 11.5913 45.2335 11.9054C43.3151 8.47363 43.8895 9.59776 43.2542 8.68215C42.9026 8.08549 42.5579 7.53039 42.1739 6.95674C41.2849 5.78763 40.2848 4.64062 39.1645 3.63149C39.4431 3.86319 39.683 4.07133 39.9396 4.30681C38.335 2.67413 38.7651 3.15716 37.7294 2.39758C37.7399 2.37886 37.7504 2.36013 37.761 2.34139C35.8742 1.07211 35.3829 0.955079 34.9199 0.740018C34.2355 0.500833 33.3872 0.26083 31.606 0.217817C30.774 0.214505 29.7362 0.291876 28.4774 0.648266C26.9542 1.37726 26.8847 1.21362 26.1163 1.81643C23.7394 3.34912 28.0599 -0.0649542 30.9892 0.0401155C30.9906 0.0400239 30.992 0.0399319 30.9934 0.0398406C31.1967 0.0320523 30.8715 0.0100696 31.5935 0ZM20.2896 7.85771C21.0355 6.45779 17.6962 11.7129 18.927 10.0641C19.0889 9.80335 19.2618 9.53068 19.4304 9.27181C19.7138 8.78297 20.0008 8.31054 20.2916 7.85477C20.2909 7.85575 20.2903 7.85672 20.2896 7.85771ZM4.0472 62.3374C3.34312 67.8763 3.84975 64.7311 4.03118 62.8631C4.06842 62.4883 4.07828 62.2726 4.0472 62.3374ZM3.70368 176.476C3.73529 176.555 3.76694 176.634 3.79861 176.713C3.51349 174.818 3.15322 171.245 3.02291 171.294C3.23939 173.045 3.45832 174.716 3.70368 176.476ZM1.92825 161.7C1.95686 162.106 2.09619 163.745 2.12795 163.542C2.09428 162.83 2.06215 162.115 2.0316 161.398C1.9784 161.067 1.9256 160.736 1.87321 160.404C1.90751 160.871 1.92011 161.591 1.92825 161.7Z" fill="var(--stroke-0, #0061FE)"/>
</svg>
