<svg preserveAspectRatio="none" width="100%" height="100%" overflow="visible" style="display: block;" viewBox="0 0 12.8172 14.9533" fill="none" xmlns="http://www.w3.org/2000/svg">
<path id="Vector" d="M7.87457 1.15525C7.5388 0.864684 7.43559 0.554834 7.56493 0.225704C7.68644 -0.0786373 7.79879 -0.0751971 7.90201 0.23603C8.52128 2.0972 9.18563 3.88399 9.74024 5.83398C10.2628 7.67655 10.8501 9.49641 11.502 11.2935C11.5269 11.3596 11.5713 11.4016 11.6353 11.4196C11.9541 11.5132 12.2474 11.4912 12.5152 11.3534C12.5478 11.3366 12.5839 11.329 12.6201 11.3313C12.6563 11.3336 12.6913 11.3458 12.7217 11.3666C12.7521 11.3874 12.7768 11.4161 12.7935 11.45C12.8102 11.4839 12.8183 11.5218 12.817 11.56C12.8013 11.9539 12.7968 12.3615 12.8033 12.7829C12.8111 13.1919 12.7033 13.51 12.6152 13.8983C12.6008 13.9645 12.5642 14.0113 12.5054 14.0388C12.1879 14.1889 11.8574 14.2557 11.5138 14.2392C10.9768 14.2144 10.6652 14.2054 10.579 14.2123C8.54088 14.3858 6.4616 14.3301 4.40976 14.4953C4.1354 14.5174 3.8937 14.6103 3.68466 14.7742C3.43774 14.9684 3.29076 15.0055 3.02031 14.8816C2.49772 14.6447 1.96794 14.4265 1.43097 14.2268C1.36565 14.2034 1.31338 14.1614 1.27419 14.1008C1.11349 13.8543 0.944302 13.5968 0.76662 13.3282C0.662101 13.1726 0.519695 13.1306 0.3394 13.2022C0.241413 13.2408 0.17086 13.2098 0.127745 13.1093C-0.0251137 12.7567 -0.0407896 12.4235 0.0807138 12.1095C0.61768 10.731 1.15007 9.55493 1.67789 8.58131C2.72047 6.66025 3.81923 4.71577 4.97417 2.74787C5.19758 2.36779 5.44254 2.18189 5.74434 1.88856C5.99714 1.64275 6.11865 1.30398 6.3205 1.00652C6.35839 0.951435 6.37799 0.890841 6.3793 0.82474C6.3806 0.733851 6.40608 0.657424 6.45572 0.595454C6.50014 0.541747 6.55437 0.526604 6.61838 0.550015C6.93325 0.66707 7.20499 0.84678 7.43363 1.08915C7.47674 1.1346 7.52835 1.16351 7.58845 1.17591L7.84322 1.22548C7.94251 1.24614 7.95296 1.22273 7.87457 1.15525ZM4.65865 8.43673C4.65671 8.44103 4.6558 8.44578 4.65602 8.45055C4.65624 8.45531 4.65757 8.45993 4.6599 8.46402C4.66222 8.46811 4.66548 8.47154 4.66936 8.47398C4.67325 8.47643 4.67765 8.47781 4.68217 8.47803L4.73312 8.4801C4.78015 8.48285 4.81935 8.46633 4.8507 8.43052L6.16372 6.99282C6.19535 6.95832 6.21694 6.91492 6.22596 6.86772C6.23499 6.82052 6.23107 6.77148 6.21467 6.72635C6.16503 6.59139 6.06116 6.54182 5.90308 6.57763C5.69404 6.62307 5.51244 6.79108 5.35827 7.08165C5.13617 7.49616 4.90297 7.94785 4.65865 8.43673ZM6.86182 8.57549C6.89638 8.59676 6.97056 8.54313 7.06805 8.4264C7.16554 8.30967 7.27834 8.13941 7.38166 7.95305C7.43282 7.86077 7.48011 7.76731 7.52083 7.67801C7.56154 7.58872 7.59489 7.50536 7.61897 7.43265C7.64304 7.35995 7.65737 7.29934 7.66114 7.25429C7.66491 7.20924 7.65804 7.18063 7.64093 7.1701C7.60637 7.14883 7.53219 7.20245 7.4347 7.31918C7.33722 7.43591 7.22441 7.60619 7.12109 7.79254C7.06993 7.88483 7.02264 7.97828 6.98192 8.06757C6.9412 8.15686 6.90786 8.24024 6.88378 8.31294C6.8597 8.38565 6.84537 8.44626 6.8416 8.49131C6.83784 8.53636 6.84471 8.56496 6.86182 8.57549Z" fill="var(--fill-0, #0061FE)"/>
</svg>
