<svg preserveAspectRatio="none" width="100%" height="100%" overflow="visible" style="display: block;" viewBox="0 0 12.993 13.9925" fill="none" xmlns="http://www.w3.org/2000/svg">
<path id="Vector" d="M7.9826 1.08102C7.64223 0.80912 7.5376 0.519181 7.66872 0.211201C7.79189 -0.0735842 7.90579 -0.070365 8.01042 0.220863C8.63819 1.96243 9.31165 3.63441 9.87387 5.45909C10.4036 7.18327 10.999 8.88618 11.6598 10.5678C11.685 10.6297 11.73 10.669 11.7949 10.6857C12.1181 10.7734 12.4154 10.7527 12.6869 10.6239C12.7199 10.6082 12.7565 10.601 12.7932 10.6032C12.8299 10.6053 12.8654 10.6167 12.8962 10.6362C12.927 10.6556 12.9521 10.6825 12.9691 10.7143C12.986 10.746 12.9942 10.7815 12.9929 10.8172C12.977 11.1857 12.9723 11.5672 12.9789 11.9615C12.9869 12.3442 12.8776 12.6419 12.7882 13.0053C12.7737 13.0671 12.7366 13.1109 12.677 13.1367C12.3551 13.2772 12.0201 13.3396 11.6718 13.3242C11.1274 13.301 10.8115 13.2926 10.7241 13.2991C8.65805 13.4614 6.55025 13.4092 4.47026 13.5639C4.19213 13.5845 3.94712 13.6715 3.73522 13.8248C3.4849 14.0065 3.3359 14.0413 3.06175 13.9253C2.53198 13.7037 1.99494 13.4994 1.4506 13.3126C1.38438 13.2907 1.3314 13.2514 1.29167 13.1947C1.12877 12.964 0.957258 12.723 0.777138 12.4718C0.671185 12.3262 0.526825 12.2869 0.344056 12.3539C0.244725 12.3899 0.173204 12.3609 0.129498 12.2669C-0.0254582 11.937 -0.0413492 11.6251 0.0818211 11.3313C0.626155 10.0414 1.16585 8.94094 1.70091 8.02989C2.7578 6.23226 3.87163 4.41274 5.04241 2.5713C5.26888 2.21564 5.51721 2.04168 5.82315 1.76721C6.07942 1.53719 6.20259 1.22018 6.40721 0.941841C6.44562 0.890297 6.46549 0.833597 6.46682 0.771743C6.46814 0.686694 6.49396 0.615178 6.54429 0.557191C6.58932 0.506934 6.64429 0.492765 6.70918 0.514672C7.02837 0.624204 7.30384 0.792366 7.53561 1.01916C7.57932 1.06169 7.63163 1.08875 7.69256 1.10034L7.95082 1.14673C8.05148 1.16606 8.06207 1.14416 7.9826 1.08102ZM4.72257 7.89459C4.72059 7.89862 4.71968 7.90306 4.7199 7.90752C4.72012 7.91198 4.72147 7.91631 4.72383 7.92013C4.72619 7.92396 4.72948 7.92717 4.73342 7.92945C4.73736 7.93174 4.74182 7.93304 4.7464 7.93324L4.79805 7.93518C4.84573 7.93775 4.88546 7.92229 4.91725 7.88879L6.24829 6.54346C6.28035 6.51118 6.30223 6.47058 6.31138 6.42641C6.32053 6.38224 6.31656 6.33635 6.29993 6.29412C6.24961 6.16784 6.14432 6.12145 5.98406 6.15496C5.77216 6.19748 5.58806 6.35469 5.43178 6.62659C5.20663 7.01447 4.97023 7.43713 4.72257 7.89459ZM6.95596 8.02444C6.99099 8.04434 7.06619 7.99416 7.16502 7.88493C7.26384 7.7757 7.3782 7.61638 7.48293 7.442C7.53479 7.35565 7.58273 7.26819 7.62401 7.18463C7.66528 7.10108 7.69909 7.02307 7.72349 6.95504C7.7479 6.88701 7.76243 6.83029 7.76625 6.78814C7.77007 6.74598 7.7631 6.71921 7.74576 6.70935C7.71072 6.68945 7.63553 6.73963 7.5367 6.84886C7.43788 6.95809 7.32352 7.11742 7.21879 7.2918C7.16693 7.37815 7.11899 7.4656 7.07771 7.54916C7.03643 7.63271 7.00263 7.71073 6.97822 7.77876C6.95381 7.84679 6.93929 7.90351 6.93547 7.94566C6.93165 7.98782 6.93861 8.01458 6.95596 8.02444Z" fill="var(--fill-0, #0061FE)"/>
</svg>
