<svg preserveAspectRatio="none" width="100%" height="100%" overflow="visible" style="display: block;" viewBox="0 0 13.8852 14.9533" fill="none" xmlns="http://www.w3.org/2000/svg">
<path id="Vector" d="M8.53078 1.15525C8.16703 0.864684 8.05522 0.554834 8.19534 0.225704C8.32697 -0.0786373 8.44869 -0.0751971 8.56051 0.23603C9.23139 2.0972 9.9511 3.88399 10.5519 5.83398C11.1181 7.67655 11.7543 9.49641 12.4605 11.2935C12.4874 11.3596 12.5355 11.4016 12.6049 11.4196C12.9502 11.5132 13.268 11.4912 13.5582 11.3534C13.5934 11.3366 13.6326 11.329 13.6718 11.3313C13.711 11.3336 13.7489 11.3458 13.7818 11.3666C13.8147 11.3874 13.8416 11.4161 13.8597 11.45C13.8778 11.4839 13.8865 11.5218 13.8851 11.56C13.8681 11.9539 13.8632 12.3615 13.8702 12.7829C13.8787 13.1919 13.762 13.51 13.6664 13.8983C13.6509 13.9645 13.6112 14.0113 13.5475 14.0388C13.2036 14.1889 12.8455 14.2557 12.4733 14.2392C11.8916 14.2144 11.554 14.2054 11.4606 14.2123C9.25262 14.3858 7.00007 14.3301 4.77724 14.4953C4.48002 14.5174 4.21818 14.6103 3.99172 14.7742C3.72422 14.9684 3.56498 15.0055 3.272 14.8816C2.70586 14.6447 2.13193 14.4265 1.55022 14.2268C1.47945 14.2034 1.42283 14.1614 1.38037 14.1008C1.20628 13.8543 1.02299 13.5968 0.830505 13.3282C0.717276 13.1726 0.563003 13.1306 0.367683 13.2022C0.261531 13.2408 0.185098 13.2098 0.138391 13.1093C-0.0272065 12.7567 -0.0441888 12.4235 0.0874399 12.1095C0.669154 10.731 1.24591 9.55493 1.81772 8.58131C2.94718 6.66025 4.1375 4.71577 5.38868 2.74787C5.63071 2.36779 5.89608 2.18189 6.22303 1.88856C6.49691 1.64275 6.62854 1.30398 6.84721 1.00652C6.88825 0.951435 6.90949 0.890841 6.9109 0.82474C6.91232 0.733851 6.93992 0.657424 6.9937 0.595454C7.04182 0.541747 7.10056 0.526604 7.16992 0.550015C7.51102 0.66707 7.80541 0.84678 8.0531 1.08915C8.0998 1.1346 8.15571 1.16351 8.22082 1.17591L8.49682 1.22548C8.60439 1.24614 8.6157 1.22273 8.53078 1.15525ZM5.04687 8.43673C5.04477 8.44103 5.04379 8.44578 5.04402 8.45055C5.04426 8.45531 5.0457 8.45993 5.04822 8.46402C5.05074 8.46811 5.05427 8.47154 5.05848 8.47398C5.06269 8.47643 5.06745 8.47781 5.07235 8.47803L5.12754 8.4801C5.1785 8.48285 5.22096 8.46633 5.25493 8.43052L6.67737 6.99282C6.71163 6.95832 6.73502 6.91492 6.7448 6.86772C6.75457 6.82052 6.75033 6.77148 6.73256 6.72635C6.67878 6.59139 6.56626 6.54182 6.395 6.57763C6.16854 6.62307 5.97181 6.79108 5.80479 7.08165C5.56418 7.49616 5.31155 7.94785 5.04687 8.43673ZM7.43364 8.57549C7.47108 8.59676 7.55144 8.54313 7.65705 8.4264C7.76266 8.30967 7.88487 8.13941 7.99679 7.95305C8.05222 7.86077 8.10345 7.76731 8.14756 7.67801C8.19167 7.58872 8.2278 7.50536 8.25388 7.43265C8.27996 7.35995 8.29549 7.29934 8.29957 7.25429C8.30365 7.20924 8.29621 7.18063 8.27767 7.1701C8.24023 7.14883 8.15987 7.20245 8.05426 7.31918C7.94865 7.43591 7.82644 7.60619 7.71452 7.79254C7.65909 7.88483 7.60786 7.97828 7.56375 8.06757C7.51964 8.15686 7.48351 8.24024 7.45743 8.31294C7.43135 8.38565 7.41582 8.44626 7.41174 8.49131C7.40766 8.53636 7.4151 8.56496 7.43364 8.57549Z" fill="var(--fill-0, #0061FE)"/>
</svg>
