<svg preserveAspectRatio="none" width="100%" height="100%" overflow="visible" style="display: block;" viewBox="0 0 120.862 7.07765" fill="none" xmlns="http://www.w3.org/2000/svg">
<path id="Vector 45" d="M2.82207 0.145402C5.33672 -0.240888 7.0717 0.406711 9.37975 0.607893C14.5075 1.0553 21.3113 1.14495 26.5711 1.30256C30.5496 1.42518 34.6109 1.54603 38.5615 1.62602C38.7656 1.63009 38.8865 1.68905 38.9789 1.6909C39.8519 1.70857 41.2931 1.67098 42.1577 1.68517C43.9746 1.71706 47.1214 1.71864 48.7734 1.76977C49.4706 1.79212 50.2031 1.79974 50.4757 1.93574C50.7334 1.94192 50.8734 1.81775 50.9406 1.81078C50.9414 1.8109 50.9421 1.81102 50.9429 1.81114C51.1593 1.78954 51.7053 1.87388 51.8254 1.86786C51.8434 1.86692 51.7323 1.77792 52.0241 1.80353C52.0501 1.80572 52.0265 1.86676 52.2719 1.86633C52.3357 1.8663 53.1552 1.76808 53.3935 1.76061C54.1823 1.7372 56.0458 1.79382 56.9839 1.78122C57.1277 1.77957 57.21 1.74299 57.3617 1.74054C57.44 1.73924 57.5579 1.77648 57.5819 1.77597C57.6876 1.77334 58.1461 1.59191 57.9851 1.9405C58.4659 1.91234 58.3225 1.79956 58.3325 1.72505C58.8539 1.7074 59.107 1.86691 59.2405 1.69204C61.8051 1.67617 64.3735 1.64771 66.936 1.60775C66.9361 1.57954 66.9362 1.55133 66.9363 1.52313C67.6929 1.61773 67.9511 1.42057 68.3867 1.57318C68.6522 1.5304 68.9176 1.48751 69.1827 1.4445C76.0217 1.3756 82.8478 0.98211 89.6104 0.673342C89.8959 0.660279 89.9699 0.716986 90.441 0.695642C90.9606 0.672038 91.6914 0.568035 92.3746 0.536341C92.975 0.508457 93.8643 0.522405 94.536 0.498408C94.6875 0.492899 94.7953 0.449561 94.8124 0.448935C94.9128 0.445493 94.9208 0.505334 95.0182 0.502252C95.1346 0.49843 95.2737 0.446955 95.4075 0.443089C95.9086 0.428281 96.4542 0.385621 96.5177 0.383477C96.8239 0.373854 96.8944 0.429201 96.9196 0.428591C97.2604 0.418641 97.1301 0.372014 97.215 0.370821C97.6559 0.364873 97.9739 0.481521 98.5711 0.323624C98.5572 0.373594 98.5432 0.423563 98.5293 0.473531C98.9928 0.477548 98.6809 0.36261 98.7742 0.33414C98.8128 0.323439 99.8029 0.288483 99.8799 0.286778C100.147 0.281446 100.157 0.346343 100.18 0.346033C100.236 0.345259 100.903 0.236325 101.25 0.27527C101.661 0.321479 101.188 0.479381 101.291 0.499022C101.308 0.502362 101.734 0.466388 101.794 0.504936C101.859 0.546342 101.49 0.564766 101.497 0.583218C101.501 0.595905 102.119 0.655894 102.005 0.724116C101.914 0.791369 101.078 0.755135 100.904 0.793522C100.875 0.799881 100.934 0.873841 100.909 0.877999C100.805 0.893977 98.8965 0.994928 98.8085 0.986538C98.9068 0.946424 99.0037 0.906381 99.1013 0.86629C98.9691 0.86953 98.837 0.872759 98.7038 0.876023C98.8916 0.838306 99.077 0.800686 99.2635 0.762986C98.9712 0.489223 98.1408 0.824414 98.1137 0.969922C98.102 1.03719 98.6266 1.18199 98.1516 1.30607C98.2255 1.31942 98.2993 1.33277 98.3732 1.34612C98.5222 1.31041 98.6713 1.27468 98.8205 1.23893C98.7193 1.22639 98.6181 1.21384 98.517 1.20128C98.5529 1.1794 98.5888 1.15753 98.6246 1.13565C98.9051 1.08917 99.1823 1.0428 99.461 0.9963C99.6058 1.00366 99.5789 1.06422 99.6785 1.07052C100.922 1.15031 100.106 1.00918 100.917 0.993417C101.035 1.01908 101.152 1.04472 101.27 1.07036C101.222 0.941414 101.585 1.00496 102.017 0.925516C101.968 0.970672 101.918 1.01583 101.868 1.06098C102.5 1.0052 103.779 1.15172 103.424 0.935825C103.569 0.948172 103.714 0.960502 103.859 0.972819C103.978 0.928064 104.098 0.883299 104.218 0.838523C104.386 0.833925 104.555 0.829309 104.723 0.824673C104.725 0.845353 104.727 0.866032 104.729 0.886714C104.594 0.894032 104.46 0.901339 104.326 0.908633C104.43 0.96639 104.534 1.02414 104.638 1.08188C104.737 1.06609 104.835 1.0503 104.934 1.03449C104.515 0.997075 105.058 0.870145 105.186 0.779637C105.535 0.729977 105.766 0.826062 105.884 0.824585C105.941 0.823841 106.576 0.598009 106.334 0.821503C106.666 0.778001 106.998 0.734429 107.33 0.690789C107.462 0.699777 107.593 0.708751 107.725 0.717718C107.447 0.830891 108.275 0.903801 107.672 0.977339C107.221 1.03235 107.105 0.947016 106.891 0.959279C106.698 0.970202 106.599 1.03726 106.39 1.05137C104.974 1.14531 103.816 1.19598 102.475 1.23948C102.209 1.24807 101.968 1.291 101.789 1.29616C101.587 1.30189 101.836 1.21144 101.579 1.24371C101.311 1.27772 101.256 1.34375 101.184 1.34874C101.14 1.35177 100.997 1.30245 100.867 1.30918C100.336 1.33693 99.5621 1.43182 99.4868 1.43536C99.4034 1.43916 97.8968 1.46488 97.8244 1.45908C97.786 1.45595 97.8545 1.24268 97.5347 1.48255C97.4316 1.49192 97.3285 1.50128 97.2254 1.51062C97.2401 1.46796 97.2547 1.42531 97.2693 1.38265C96.6656 1.57195 96.8715 1.47271 96.283 1.5146C94.8755 1.61507 92.7878 1.68116 91.2456 1.76789C90.9006 1.7874 90.7715 1.84361 90.3636 1.86607C89.9846 1.88686 88.9888 1.78238 89.2133 1.97958C88.3626 1.83847 88.2408 2.15346 87.8098 1.97946C87.7599 2.00977 87.71 2.04008 87.6602 2.07039C87.1964 1.97026 87.0596 2.08225 86.5599 2.11855C86.3446 2.13421 86.5876 1.99548 86.1585 2.15677C86.0749 2.14974 85.9914 2.14269 85.9077 2.13565C85.9257 2.10384 85.9437 2.07204 85.9617 2.04023C85.4796 2.08625 85.4478 2.07135 85.5079 2.18496C85.2736 2.17377 85.0396 2.16251 84.8053 2.1512C84.7779 2.19046 84.7505 2.22973 84.7231 2.26899C84.8378 2.33952 90.1313 1.99717 90.8679 1.92518C91.7397 1.97118 93.469 1.78069 94.1704 1.76684C94.4508 1.76143 94.5787 1.84144 94.987 1.83176C95.3962 1.82203 95.9022 1.71861 96.1188 1.70502C96.8372 1.66023 100.266 1.50235 97.9406 1.72819C98.0097 1.76673 98.0789 1.80526 98.148 1.84379C99.0669 1.65349 98.737 1.75865 99.5032 1.7341C99.8256 1.72385 100.588 1.59039 100.555 1.78305C99.9574 1.84971 99.3194 1.82155 98.7981 1.85096C98.7463 1.85393 98.1318 1.9725 97.8126 1.96495C97.5246 1.9579 97.7128 1.76639 97.0992 2.00171C96.626 1.82584 96.3676 2.01984 96.2464 2.04515C96.0368 2.08898 96.0088 1.99183 95.7972 1.99085C95.5667 1.98961 95.4119 2.06266 95.3803 2.06464C95.0634 2.08199 93.4179 2.17096 93.341 2.13475C93.4062 2.11413 93.4715 2.0935 93.5368 2.07288C93.1084 2.06541 93.2025 2.1616 93.0908 2.17903C93.0072 2.18268 92.9236 2.18631 92.84 2.18994C92.8721 2.16751 92.9043 2.14508 92.9364 2.12264C92.4326 2.15115 92.8215 2.20528 92.1063 2.23732C91.6522 2.25756 91.1774 2.19997 91.1336 2.20791C91.1207 2.2102 91.2665 2.25718 91.0813 2.27304C90.7747 2.29922 90.2439 2.32237 90.1812 2.25207C90.0314 2.26932 90.0475 2.34017 90.0276 2.34272C89.9403 2.3539 88.4415 2.44624 88.1723 2.46224C87.427 2.50711 86.5964 2.52817 85.7896 2.57467C85.7066 2.57942 85.7576 2.53131 85.6745 2.53633C85.541 2.54443 84.8586 2.64533 84.7563 2.65465C84.5011 2.67786 83.8272 2.6771 83.7223 2.70224C83.7073 2.70581 83.9313 2.75872 83.6732 2.78855C83.3867 2.82155 83.538 2.73186 83.5224 2.73167C82.9364 2.72701 82.5695 2.79967 82.1706 2.82671C82.0413 2.83543 81.8 2.78211 81.6181 2.80778C81.5972 2.81071 81.6411 2.86706 81.6206 2.87072C81.3457 2.91194 81.0837 2.81429 80.964 2.81192C80.6714 2.80611 80.8334 2.8794 80.8182 2.88056C80.6238 2.89056 80.3609 2.87191 80.0651 2.88685C78.7464 2.95333 77.6691 2.99702 76.2671 3.03948C76.0909 3.04483 75.8799 2.99584 75.853 2.99666C75.7697 2.99987 75.7957 3.06493 75.5547 3.07147C75.047 3.08496 74.5741 3.10349 74.0728 3.11811C73.9717 3.12104 73.9267 3.0614 73.8496 3.0625C73.5912 3.06695 72.7137 3.25371 72.6931 3.05529C72.1847 3.24674 71.8385 3.1051 71.4246 3.11874C70.4434 3.15108 68.916 3.22801 67.9358 3.22927C67.7297 3.2295 67.6317 3.18092 67.517 3.18097C67.3106 3.18117 66.1428 3.23697 66.0807 3.23016C65.9599 3.21742 66.0274 2.99163 65.4125 3.20073C65.0497 3.22257 65.0905 3.12953 65.0153 3.12619C64.429 3.10178 63.862 3.31866 63.9649 3.12824C63.2848 3.19307 62.8478 3.30525 62.5666 3.13435C62.5718 3.2202 62.2528 3.27768 61.866 3.25172C62.2586 3.10032 62.2087 3.00932 63.163 3.01765C63.178 3.01778 63.1506 3.08046 63.1656 3.0806C63.3019 3.08219 63.5848 3.04531 63.8172 3.04403C64.0507 3.04273 63.9219 3.0878 64.0154 3.0851C64.1009 3.08252 64.0968 3.02313 64.2205 3.01976C64.6218 3.00922 64.9761 2.98526 65.2039 2.97927C65.3475 2.97555 65.5092 3.02426 65.6205 3.0218C66.0515 3.01194 66.9595 2.95014 67.5075 2.94237C67.6219 2.94091 67.5754 3.00071 67.8257 2.99939C67.855 2.99923 67.96 2.9355 68.1786 2.91733C68.3973 2.89915 68.5677 2.92515 68.7081 2.91521C68.8254 2.90689 68.7749 2.85389 69.0155 2.84422C69.2169 2.83697 71.4862 2.81336 71.6121 2.81767C71.7901 2.82499 71.8768 2.89875 71.9849 2.88626C72.004 2.88371 72.0341 2.80913 72.1001 2.8019C73.187 2.68343 75.6007 2.70682 76.8455 2.66241C79.4467 2.57127 81.8454 2.43582 84.4693 2.30964C84.5156 2.29488 84.5619 2.28013 84.6081 2.26537C84.3428 2.27596 84.0775 2.28645 83.8122 2.29686C83.8091 2.26229 83.8059 2.22772 83.8028 2.19316C83.444 2.20238 83.4948 2.28231 83.507 2.33135C83.3734 2.31578 83.2398 2.3002 83.1062 2.28459C82.9966 2.41 82.1082 2.36522 81.6518 2.38318C81.3548 2.39482 81.0038 2.45448 80.8471 2.45691C80.5163 2.4622 80.5221 2.38734 80.4961 2.38715C80.4519 2.38716 79.9929 2.47039 79.6598 2.48025C79.1673 2.49493 79.11 2.38259 78.4393 2.5042C77.5725 2.47612 76.6194 2.53928 75.6882 2.58008C75.862 2.46845 75.0309 2.59632 74.6541 2.60672C72.3608 2.67096 69.541 2.70592 67.2109 2.71951C66.9129 2.72138 66.6862 2.66434 66.52 2.67026C66.43 2.67341 66.3924 2.74778 66.2669 2.74094C66.2449 2.73957 66.2281 2.67125 65.9947 2.66618C65.415 2.65364 63.9664 2.79865 63.5985 2.67368C61.6199 2.73309 59.6301 2.78551 57.646 2.83028C57.5957 2.80282 57.5454 2.77536 57.4951 2.74789C57.116 2.89629 55.6286 2.82817 54.902 2.84089C53.6199 2.86447 51.9893 2.91869 50.8686 2.92723C50.6248 2.92914 50.4246 2.88905 50.1933 2.89049C50.0938 2.89117 49.9701 2.94424 49.8664 2.94474C48.7009 2.95157 47.1453 2.8967 45.9679 2.89427C43.3205 2.88904 40.8257 2.86106 38.1276 2.82785C29.092 2.7169 20.0525 2.51147 11.1082 2.06463C10.9879 2.05862 10.9967 1.99829 10.9034 1.99352C10.3573 1.9653 9.10101 1.95518 8.49499 1.92232C8.00446 1.89611 7.22589 1.76394 7.05071 1.84851C8.78549 2.07842 10.6704 2.15835 12.4868 2.27931C12.6161 2.28789 12.6296 2.34622 12.6455 2.34799C12.9389 2.38112 12.7568 2.29356 13.1831 2.3088C13.3207 2.31393 14.6559 2.55575 14.5028 2.36558C14.8222 2.45332 17.0582 2.58151 17.4845 2.57306C17.6149 2.57075 17.5249 2.51289 17.5508 2.51115C17.6629 2.50352 17.7123 2.58037 17.8143 2.58625C18.0867 2.60153 18.7792 2.56699 18.9097 2.57223C19.2113 2.58428 20.109 2.67809 20.5037 2.67759C20.8658 2.67729 20.8009 2.59673 21.1132 2.60043C21.359 2.60347 21.0895 2.66007 21.6367 2.69871C21.9049 2.71774 22.8767 2.70291 23.1084 2.71024C23.3419 2.71779 23.5999 2.77287 23.921 2.77934C24.384 2.78894 25.3861 2.79308 25.8523 2.79141C25.8804 2.79138 25.9488 2.73248 26.0192 2.73578C26.1637 2.74247 26.1182 2.81634 26.2271 2.82708C26.3379 2.83838 28.2204 2.88049 28.5361 2.88879C28.7551 2.89482 28.9073 2.85386 29.0281 2.85727C29.1228 2.86006 29.1314 2.92289 29.228 2.92598C29.258 2.92672 29.5139 2.87866 29.7676 2.88602C30.0034 2.89312 30.9317 2.96627 31.0366 2.96898C31.1061 2.97074 31.031 2.92458 31.2363 2.9302C31.4233 2.93544 31.5448 2.99585 31.6512 2.999C31.8983 3.00622 32.175 2.96282 32.4362 2.96797C33.1866 2.98268 33.1458 3.05315 33.1908 3.05642C33.3152 3.06533 33.3664 3.00077 33.4072 3.00021C33.5805 2.99811 33.9999 2.99392 34.1583 2.99426C34.3523 2.99465 34.4333 3.05842 34.6391 3.0623C34.7925 3.06499 35.103 3.00972 35.4517 3.0126C36.2383 3.01885 37.167 3.02139 37.9329 3.034C38.1643 3.03775 38.1989 3.09503 38.2696 3.09743C38.6408 3.11007 38.8488 3.04901 38.9545 3.05114C39.7092 3.06631 41.0449 3.17973 41.7369 3.1938C42.0235 3.19983 43.2725 3.16326 43.972 3.1751C44.0521 3.17639 43.9769 3.22055 44.066 3.21407C44.2793 3.19849 44.26 3.10761 44.368 3.11091C44.4201 3.11278 44.5388 3.16454 44.6904 3.17033C45.4738 3.20034 46.0222 3.162 46.3833 3.16563C49.8339 3.20063 53.3782 3.20733 56.598 3.17976C56.96 3.17663 57.4077 3.1175 57.9528 3.16302C57.9699 3.191 57.987 3.21898 58.0041 3.24696C58.0228 3.21901 58.0415 3.19106 58.0602 3.16311C58.6764 3.14012 58.9084 3.10127 59.5363 3.12744C59.5903 3.1296 59.7571 3.25587 59.8567 3.09447C60.4788 3.20079 60.1371 3.08929 60.6003 3.07118C61.0641 3.05298 61.5148 3.08107 61.9634 3.08116C62.2105 3.13416 61.1806 3.28422 61.1128 3.28476C61.0042 3.28606 60.8901 3.20843 60.7855 3.20591C60.4757 3.1983 60.1755 3.26604 60.1065 3.19614C59.71 3.27722 60.2044 3.23218 60.1558 3.30049C59.89 3.27664 59.6239 3.25266 59.3577 3.22856C59.2262 3.46065 57.7495 3.18056 57.8537 3.35397C57.7359 3.32042 57.6181 3.28683 57.5003 3.25322C56.9886 3.47889 56.6799 3.32789 55.9985 3.26959C56.048 3.29716 56.0976 3.32473 56.1471 3.35229C56.1334 3.36421 55.5308 3.4151 55.7453 3.29337C55.1282 3.45692 55.1518 3.19453 54.5976 3.38879C54.2673 3.41579 54.4655 3.30424 53.8731 3.31065C53.5229 3.31433 53.0828 3.37484 52.6946 3.38113C52.6049 3.3824 52.5655 3.3189 52.4856 3.31935C52.4058 3.31983 52.3672 3.38253 52.2704 3.38462C52.0704 3.38908 51.8106 3.34648 51.6854 3.35127C51.5733 3.35539 51.4131 3.41123 51.1422 3.42095C50.1956 3.455 50.4809 3.37508 50.3313 3.34896C50.1702 3.32108 50.0548 3.42512 49.7333 3.41376C49.701 3.41256 49.7843 3.34777 49.6795 3.35052C49.5949 3.35266 49.5526 3.42302 49.2721 3.43653C49.1622 3.44244 47.4446 3.45784 47.1803 3.45824C46.7781 3.45974 45.8776 3.39809 45.4591 3.39687C45.2997 3.39631 45.129 3.45203 44.9592 3.45093C44.3972 3.44736 43.4941 3.43768 42.7749 3.4297C42.1246 3.42274 40.9963 3.28816 40.6439 3.39685C39.7402 3.4023 39.5196 3.3033 39.4515 3.3013C39.2666 3.29556 39.1802 3.35818 38.9466 3.35831C35.9316 3.36026 31.9632 3.24328 29.104 3.17566C22.4862 3.02352 15.8213 2.80861 9.17182 2.45993C9.15248 2.48722 9.13314 2.51451 9.11379 2.5418C9.90623 2.59856 10.8304 2.69121 11.6035 2.7378C12.632 2.80004 14.172 2.74964 14.9289 2.97408C14.6195 2.97803 14.1178 2.88258 14.1226 2.98196C14.6765 3.01284 15.2282 3.0431 15.7779 3.07275C15.7633 3.02634 15.7488 2.97993 15.7343 2.93352C16.309 2.94382 16.8935 2.97724 17.4653 2.99303C17.5646 2.99583 17.496 2.95156 17.5824 2.95472C17.6791 2.95833 17.6119 2.99804 17.63 2.99908C17.8787 3.00917 17.9556 2.96929 17.9859 2.97107C18.0637 2.97575 18.0017 3.01415 18.2256 3.03413C18.641 3.07133 18.9418 2.97422 18.8376 3.15073C18.9716 3.15575 19.1055 3.16073 19.2392 3.16567C19.2756 3.11792 19.312 3.07016 19.3484 3.02239C20.163 3.25058 20.5516 2.91643 20.993 3.2078C21.1432 3.1709 21.2931 3.13395 21.4429 3.09696C21.5249 3.14887 21.6068 3.20077 21.6886 3.25266C21.7063 3.21113 21.724 3.16959 21.7417 3.12805C22.5507 3.18664 23.4162 3.16413 24.1849 3.19278C24.7206 3.2127 24.8481 3.23316 25.3208 3.24405C26.3722 3.26762 25.3214 3.32068 26.1995 3.43627C26.1548 3.38334 26.1102 3.33041 26.0655 3.27747C26.2128 3.26277 26.36 3.24802 26.5071 3.23323C26.6079 3.27819 26.7086 3.32314 26.8093 3.36806C27.2672 3.16224 27.5538 3.34623 27.6152 3.34788C27.6647 3.34879 27.8387 3.22203 28.367 3.34711C28.1515 3.16173 28.772 3.35646 28.8218 3.35871C28.8695 3.36069 29.4774 3.33566 29.7228 3.34319C29.9136 3.34908 30.3329 3.39772 30.6244 3.40248C30.8819 3.40668 30.8571 3.34504 30.8759 3.34484C31.1925 3.34689 30.9932 3.38985 31.2218 3.39727C31.4503 3.40466 31.6284 3.35648 31.6775 3.36219C31.7023 3.3652 31.6182 3.42025 31.7315 3.42818C32.0358 3.44975 32.5861 3.41142 32.9328 3.41978C33.0557 3.4227 33.2096 3.47397 33.3462 3.47811C33.5557 3.48428 33.6546 3.42208 33.7761 3.42628C33.8176 3.4279 34.0879 3.532 34.4288 3.52294C34.4936 3.52106 34.6872 3.31512 34.934 3.61614C34.9542 3.57473 34.9743 3.53333 34.9944 3.49193C36.1329 3.40803 36.4407 3.75144 36.9476 3.45808C37.7658 3.50359 37.2021 3.61265 37.2917 3.63193C37.3497 3.64412 37.6167 3.61565 37.646 3.61788C37.6977 3.62219 37.6883 3.65969 37.7451 3.66027C38.798 3.66742 38.3321 3.59001 38.6662 3.54931C39.4604 3.45191 40.0752 3.69699 38.6979 3.60904C38.6976 3.63003 38.6974 3.65102 38.6971 3.67202C39.0377 3.65635 39.8972 3.6756 39.6089 3.77881C39.3838 3.86083 37.3344 3.77955 38.494 3.91226C38.7571 3.94222 38.8945 3.8652 39.3477 4.01826C39.6483 4.02974 39.6938 3.83888 40.0991 3.92006C40.0331 3.85258 39.967 3.7851 39.9009 3.7176C40.456 3.63667 41.1356 3.75996 41.5586 3.7262C41.7001 3.71474 42.23 3.4007 42.1045 3.71795C42.3498 3.70031 43.4978 3.76689 43.7101 3.73938C43.7611 3.73273 43.8295 3.56398 44.5675 3.62677C44.6187 3.64826 44.6699 3.66974 44.721 3.69121C44.0458 3.74977 45.2373 3.81802 44.913 3.97734C44.8035 3.90464 44.2682 3.85798 44.1819 3.82112C44.0349 3.75777 44.4742 3.67952 43.9148 3.69845C43.5605 3.96526 44.5695 3.84707 44.4141 4.10136C45.148 3.98577 45.2199 4.09943 45.3856 4.10484C46.0993 4.12663 46.5513 4.10065 47.2232 4.13137C47.3876 4.07933 46.169 4.0015 46.0169 4.02341C46.5755 3.83914 45.612 3.82822 45.2135 3.93683C45.1801 3.88054 45.1467 3.82426 45.1133 3.76797C45.6305 3.80051 46.152 3.81772 46.6707 3.77269C46.7046 3.79375 46.7384 3.81481 46.7723 3.83587C46.6555 3.86727 46.5386 3.89864 46.4217 3.92998C46.8546 3.98267 46.5955 3.8185 47.1713 3.96285C47.1893 3.89964 47.2072 3.83643 47.2251 3.77323C47.7769 3.79492 48.3271 3.81601 48.8759 3.83652C49.1573 3.70969 50.2278 3.75466 50.0319 3.91919C50.4617 3.92968 49.931 3.8437 50.3335 3.80268C50.5086 3.78488 50.8505 3.77887 50.935 3.82272C50.8993 3.97921 50.3876 4.00029 50.2326 4.108C50.3291 4.14329 52.7024 4.02118 52.4906 4.20444C52.6797 4.22533 52.5924 4.1317 52.9328 4.10551C53.8975 4.03264 55.3852 4.206 56.1516 3.9642C55.2465 3.84341 54.9795 3.98331 54.2838 3.9945C53.8357 4.00299 51.1342 4.03975 51.737 3.87104C51.6379 3.8925 51.5388 3.91394 51.4395 3.93536C51.339 3.88659 51.2383 3.83781 51.1377 3.789C51.4208 3.78083 51.7034 3.7725 51.9857 3.76401C52.0534 3.81275 52.121 3.86147 52.1887 3.91019C52.2196 3.875 52.2505 3.8398 52.2813 3.8046C52.4001 3.797 52.5188 3.78938 52.6374 3.78173C52.6043 3.82404 52.5712 3.86634 52.5381 3.90865C52.7215 3.9148 52.9024 3.92091 53.0883 3.92692C53.0382 3.87097 52.9881 3.81501 52.938 3.75905C53.8074 3.73926 53.513 3.77636 53.9952 3.87809C54.3543 3.88606 53.7473 3.78272 54.5061 3.74917C55.3872 3.70964 54.8115 3.88702 55.9501 3.83918C55.9662 3.81094 55.9823 3.7827 55.9984 3.75446C56.2493 3.77999 56.4972 3.80542 56.7506 3.83068C56.7168 3.79614 56.6831 3.7616 56.6494 3.72706C57.1703 3.73494 57.8846 3.65946 58.0581 3.79415C57.5315 3.73488 57.5393 3.97381 57.6768 4.01612C57.9614 4.10545 62.1255 3.95857 62.9312 3.93443C63.9579 3.90735 64.7473 3.9676 65.6864 3.8291C65.045 3.74765 62.7983 3.87166 62.3732 3.81182C62.3309 3.80603 62.3389 3.58666 62.0723 3.83811C61.1988 3.81187 60.1491 3.89893 59.0629 3.907C59.0953 3.84343 59.1277 3.77986 59.16 3.71628C59.8313 3.84102 60.4453 3.53638 60.3628 3.7829C60.4968 3.7808 60.6308 3.77866 60.7647 3.77649C60.764 3.73426 60.7633 3.69203 60.7626 3.6498C60.9644 3.64653 61.1661 3.64319 61.3676 3.63977C61.3683 3.682 61.369 3.72423 61.3698 3.76646C61.5367 3.76363 61.7035 3.76075 61.8703 3.75782C61.8869 3.7154 61.9035 3.67299 61.9201 3.63058C62.4218 3.70971 64.1133 3.44282 63.3726 3.70878C63.6063 3.70424 63.8396 3.69961 64.0753 3.69483C64.0739 3.66397 64.0725 3.63311 64.0711 3.60225C64.1721 3.59605 64.273 3.58984 64.3739 3.5836C64.3413 3.61224 64.3086 3.64087 64.2759 3.6695C64.7378 3.60994 65.1792 3.74764 65.4803 3.64428C65.2798 3.62756 65.0792 3.61077 64.8785 3.59392C65.2636 3.62595 65.9681 3.5271 66.0312 3.52541C66.2237 3.52063 66.3266 3.58073 66.5352 3.57906C66.7234 3.57739 66.6963 3.53002 66.7315 3.5309C67.7463 3.55567 67.3674 3.82437 67.835 3.50541C67.8867 3.54613 67.9384 3.58685 67.99 3.62757C68.0566 3.59087 68.1231 3.55416 68.1896 3.51744C68.4904 3.51318 68.7909 3.50876 69.0913 3.50419C68.9898 3.45434 68.8883 3.40448 68.7867 3.35459C69.2363 3.31953 69.4488 3.41907 69.4924 3.42033C69.6159 3.42317 69.6705 3.35562 69.7086 3.35447C71.5401 3.31 70.4277 3.39875 71.3527 3.62087C71.6772 3.51411 71.3432 3.42608 71.294 3.32838C71.7304 3.36232 71.8654 3.33094 72.3244 3.3228C72.4439 3.32074 72.5738 3.37031 72.6491 3.36876C72.7144 3.36743 72.9165 3.30449 73.073 3.29946C73.3338 3.29106 73.6819 3.31415 74.0386 3.30202C74.334 3.29191 75.2447 3.22243 75.8787 3.20062C76.1494 3.19152 76.0882 3.2411 76.1581 3.23884C76.1872 3.23786 76.3962 3.17384 76.5698 3.16766C77.9838 3.11796 79.4387 3.10101 80.8605 3.04531C81.8625 3.00619 82.8798 2.91989 83.8842 2.88325C84.098 2.87551 83.9865 2.9219 84.0799 2.91953C84.112 2.91857 84.1476 2.84418 84.4793 2.85973C84.5992 2.86532 84.4639 2.92198 84.5815 2.91962C84.6386 2.91844 84.6603 2.85361 84.9936 2.82502C85.5992 2.7729 85.929 2.84394 85.9831 2.8391C86.085 2.82982 86.0529 2.77827 86.1882 2.77055C86.8498 2.73276 87.4022 2.69957 87.9931 2.66889C88.2699 2.65484 90.1694 2.55794 90.2749 2.56229C90.5096 2.57261 90.2971 2.69298 90.5967 2.67536C90.6794 2.64355 90.7622 2.61172 90.8448 2.5799C90.7104 2.56488 90.576 2.54985 90.4416 2.5348C90.8105 2.5533 91.2248 2.48369 91.4971 2.47281C91.5473 2.4709 92.0126 2.49913 92.2474 2.4825C92.1483 2.50797 92.0492 2.53344 91.9501 2.55889C91.9863 2.5749 92.0226 2.59091 92.0588 2.60691C92.5283 2.55785 93.0265 2.53474 93.5101 2.51521C93.6846 2.50809 93.6277 2.55389 93.8043 2.54683C94.8333 2.50591 94.5653 2.33999 95.5716 2.62643C95.2365 2.61266 94.0178 2.71497 93.8405 2.71226C93.7166 2.71045 93.2245 2.45025 93.414 2.73249C92.4272 2.77858 93.2764 2.57725 92.357 2.6562C92.3771 2.69081 92.3971 2.72542 92.4172 2.76002C92.0968 2.79767 91.8604 2.82679 91.6613 2.7734C91.6036 2.9487 90.5041 2.89921 89.905 2.93818C89.039 2.99439 88.062 3.08028 87.2026 3.1253C86.9067 3.14078 86.7362 3.08056 86.699 3.08239C86.6448 3.08523 86.4949 3.15093 86.3866 3.15603C85.982 3.17535 84.7479 3.12748 84.4484 3.30413C86.8552 3.20408 89.2605 3.09676 91.6689 2.98348C91.364 2.91737 93.7941 2.79382 93.9187 2.79133C94.0331 2.78939 93.9397 2.85066 93.9738 2.85245C94.2279 2.86446 94.44 2.77184 94.5203 2.76792C94.5816 2.76494 94.7072 2.79741 94.9252 2.78586C94.9652 2.78378 94.9743 2.74251 95.0173 2.74028C95.3019 2.72629 95.5821 2.71303 95.8664 2.69872C95.8837 2.69826 95.9584 2.75418 96.0303 2.75071C96.1023 2.74713 96.1705 2.68416 96.1887 2.68307C96.4162 2.67217 96.8082 2.69131 97.0249 2.68083C97.1001 2.67704 97.0458 2.6361 97.13 2.63228C97.389 2.6203 97.308 2.70988 97.6271 2.67175C97.7341 2.65892 97.7238 2.59407 97.9299 2.59224C98.0759 2.59098 98.0661 2.70797 98.0894 2.71102C98.1216 2.71451 98.6198 2.59715 98.7884 2.66476C98.439 2.88393 99.1823 2.6551 99.141 2.57226C99.3405 2.58341 99.5401 2.59453 99.7398 2.60562C99.8064 2.58067 99.873 2.55571 99.9397 2.53075C100.746 2.58595 101.233 2.50235 102.026 2.49052C102.064 2.49001 102.734 2.50253 102.703 2.53439C102.309 2.60729 101.909 2.6307 101.649 2.54808C101.239 2.75307 101.224 2.60768 100.548 2.66718C100.322 2.68719 100.308 2.73766 100.282 2.73964C99.404 2.81005 97.9903 2.9036 97.3886 2.78829C97.2239 2.83597 97.8239 2.82128 97.5924 2.86197C97.465 2.8849 94.4151 3.08267 95.3824 2.86712C95.2812 2.87677 95.1798 2.8864 95.0786 2.89602C94.9848 3.05894 94.4784 3.04752 94.528 2.88744C94.4818 2.92196 94.4356 2.95648 94.3894 2.99099C94.2963 3.02283 94.1853 3.04286 94.0291 3.05911C93.4314 3.12225 89.8621 3.23493 89.6735 3.26513C89.6709 3.30264 89.6683 3.34015 89.6657 3.37766C91.2441 3.34789 92.7671 3.18304 94.4914 3.206C94.4397 3.17345 94.388 3.14089 94.3364 3.10833C95.0252 3.1239 95.7138 3.13906 96.4003 3.15393C95.6802 3.25343 94.5256 3.36354 93.7614 3.34816C93.6255 3.3454 93.7224 3.2918 93.691 3.2874C93.609 3.27597 93.5256 3.36487 93.2341 3.38713C92.9424 3.40944 92.2066 3.38427 92.1396 3.3891C92.0107 3.3987 91.6646 3.51212 91.4436 3.52123C91.1532 3.53314 91.345 3.46406 91.2867 3.46552C91.0453 3.4709 90.8306 3.51066 90.6416 3.51498C90.3611 3.5214 89.7743 3.44265 89.5857 3.60639C89.786 3.60434 89.9865 3.60225 90.1869 3.60012C89.1042 3.70551 88.2479 3.54563 87.1845 3.7452C86.9496 3.94336 87.8325 3.87928 87.0886 3.99205C87.2242 3.98344 87.3598 3.97481 87.4954 3.96615C87.5255 3.92548 87.5556 3.88481 87.5857 3.84415C87.8206 3.86189 88.0557 3.87957 88.2908 3.89718C88.2225 3.86516 88.1542 3.83313 88.086 3.8011C88.9135 3.73791 89.747 3.66387 90.045 3.83869C90.06 3.79242 90.075 3.74615 90.0899 3.69989C90.8614 3.72001 92.0082 3.47277 91.8042 3.73598C91.84 3.72085 91.8758 3.70572 91.9117 3.69059C92.3785 3.72038 92.1751 3.6251 92.349 3.60501C92.3986 3.59938 93.3038 3.61027 92.9074 3.70452C93.791 3.71971 93.5081 3.49615 93.7504 3.47407C94.3201 3.56406 95.3279 3.33836 94.9097 3.54447C94.9942 3.54729 95.0787 3.55011 95.1632 3.55292C95.433 3.39363 95.7122 3.54504 96.0136 3.5853C96.115 3.58357 96.2164 3.58182 96.3178 3.58007C96.3831 3.52768 96.4485 3.47529 96.5139 3.42289C97.4785 3.60843 97.1448 2.98558 97.6075 3.49957C97.5412 3.53507 97.4749 3.57056 97.4086 3.60604C97.2484 3.6294 97.0882 3.65274 96.9281 3.67605C97.5777 3.65763 98.2283 3.63883 98.8798 3.61968C99.7107 3.72773 100.169 3.54064 101.091 3.61173C101.176 3.59299 101.261 3.57425 101.346 3.5555C101.265 3.68143 100.931 3.68101 101.554 3.70304C101.612 3.78608 101.193 3.8191 100.999 3.7632C100.953 3.74954 101.34 3.66341 100.901 3.68401C100.602 3.69789 101.149 3.77287 100.253 3.78111C100.287 3.80036 100.321 3.81961 100.355 3.83886C100.258 3.84328 100.161 3.84769 100.064 3.85209C99.9755 3.80803 99.8868 3.76397 99.7982 3.7199C99.5802 3.80139 99.4615 3.90601 98.954 3.91105C99.0904 3.8736 98.8983 3.78577 98.6469 3.80025C98.6487 3.83536 98.6505 3.87047 98.6523 3.90558C98.0449 3.95918 98.2497 3.84548 97.7482 3.95153C97.6962 3.92617 97.6442 3.90081 97.5923 3.87544C97.3227 4.00448 96.3144 4.1334 96.4904 3.95168C96.2148 4.1335 95.6159 4.08738 95.3871 3.96426C95.3717 3.99998 95.3563 4.03569 95.3409 4.0714C95.2229 4.0843 95.1049 4.09719 94.987 4.11007C94.9199 4.09222 94.8529 4.07436 94.7859 4.0565C94.7031 4.0817 94.6202 4.10689 94.5375 4.13207C94.4852 4.09955 94.4329 4.06702 94.3806 4.03449C94.248 4.083 94.1153 4.13148 93.9827 4.17995C93.899 4.15602 93.8153 4.13209 93.7316 4.10815C93.7265 4.18159 92.9117 4.23708 92.6818 4.19996C92.615 4.22441 92.5481 4.24885 92.4813 4.27329C92.4465 4.24012 92.4117 4.20694 92.3769 4.17376C92.3278 4.20396 92.2786 4.23415 92.2295 4.26434C92.1118 4.24205 91.9945 4.21973 91.8764 4.19744C91.4087 4.3902 91.3864 4.24138 91.2779 4.24752C91.0767 4.25893 90.3965 4.39737 90.2818 4.39711C90.1672 4.39685 90.1092 4.33823 90.0166 4.33671C88.4911 4.31002 89.1239 4.44544 88.82 4.48528C88.656 4.50683 88.5372 4.45499 88.3916 4.46782C88.1427 4.48969 86.8886 4.62046 86.816 4.61606C86.7102 4.60997 86.9464 4.33018 86.6072 4.41436C86.6021 4.55936 85.8639 4.44502 86.2147 4.63179C85.9125 4.62706 85.6103 4.62222 85.3082 4.61727C85.3496 4.78708 84.9734 4.69266 84.5687 4.71902C83.9954 4.75644 82.7077 4.92126 82.7478 4.74355C82.612 4.78943 82.4761 4.83528 82.3402 4.88111C81.3968 4.86316 80.4774 4.95654 79.5433 4.99333C76.7704 5.10306 73.7656 5.16407 71.0006 5.2073C70.8676 5.20935 70.8855 5.15138 70.79 5.15279C70.2895 5.16071 68.9873 5.23637 68.2824 5.24119C68.0568 5.24285 67.9455 5.18955 67.8739 5.18875C67.6307 5.18565 67.6898 5.25803 67.5779 5.25866C67.4 5.25973 66.4709 5.21321 66.1497 5.21317C65.9909 5.21322 65.8044 5.27608 65.618 5.26208C65.6019 5.26096 65.6301 5.19986 65.6166 5.19911C65.2774 5.19916 65.4824 5.24693 65.3677 5.24669C64.5492 5.24487 63.6714 5.26155 62.7876 5.26556C62.5676 5.26651 62.2299 5.23003 62.0407 5.22935C61.9685 5.22921 62.0988 5.2728 61.8493 5.27338C61.7638 5.27358 61.7336 5.21445 61.637 5.21225C61.2209 5.20312 61.0847 5.39707 60.7242 5.24873C60.0305 5.27027 58.8408 5.33671 58.2097 5.34575C58.0609 5.34785 57.9879 5.31355 57.8459 5.31596C57.7452 5.31764 57.5685 5.3744 57.4112 5.37694C57.2538 5.37946 57.0046 5.33041 56.7014 5.33567C56.3834 5.34111 55.9914 5.37599 55.9196 5.37651C55.8333 5.37737 55.7925 5.31213 55.7062 5.3138C55.4455 5.31854 54.7464 5.38939 54.4088 5.39902C54.0462 5.40934 53.8278 5.37907 53.7037 5.38061C53.5887 5.38232 53.4549 5.43864 53.4023 5.43948C53.3206 5.44088 53.3008 5.37628 53.1969 5.3775C53.0267 5.37966 52.8529 5.42147 52.601 5.42401C48.0315 5.47041 43.5627 5.42007 39.1247 5.32013C38.6294 5.30887 38.3431 5.35079 37.6155 5.32008C37.3218 5.30752 37.4466 5.24247 37.2175 5.25183C37.1154 5.25606 37.1404 5.30897 37.0113 5.30963C36.4404 5.31231 35.773 5.25272 35.5239 5.24939C35.4252 5.248 35.3114 5.30579 35.1086 5.30319C33.5819 5.28393 31.8353 5.23206 30.1952 5.20387C29.3369 5.18944 28.0483 5.18738 27.0575 5.16409C24.3349 5.10119 21.4076 4.99117 18.9306 4.90439C15.1852 4.77345 11.4587 4.66496 7.72367 4.41281C9.44415 4.64385 11.8536 4.74504 13.786 4.84377C19.4052 5.13243 25.4014 5.24966 31.1685 5.37991C33.1717 5.42588 35.7139 5.46884 37.895 5.5312C37.9954 5.53403 38.2039 5.49093 38.4204 5.49856C38.4665 5.50033 39.0352 5.59114 39.2266 5.59417C39.0469 5.44329 39.7954 5.58462 40.0265 5.58339C40.3183 5.58185 40.9265 5.5138 41.6045 5.56169C42.2258 5.60501 42.0548 5.6607 42.0888 5.66461C42.3092 5.68956 42.3868 5.5979 42.5555 5.58984C43.2474 5.55988 46.7713 5.62872 47.7598 5.63035C48.0141 5.63132 48.0212 5.68993 48.0785 5.69015C48.2301 5.69057 48.4457 5.63264 48.6881 5.63287C49.1232 5.63346 49.6317 5.68792 49.8743 5.68757C50.4549 5.68708 51.5517 5.61792 52.2993 5.61246C52.5097 5.61093 52.4971 5.672 52.5923 5.67125C53.0079 5.66799 54.1133 5.58841 54.634 5.58319C55.4849 5.575 56.3465 5.6058 57.2157 5.57555C57.2708 5.60213 57.326 5.6287 57.3811 5.65526C57.4673 5.62567 57.5534 5.59607 57.6394 5.56645C59.1009 5.57034 60.5779 5.4868 62.032 5.46501C62.1992 5.46259 63.0261 5.49942 63.1635 5.4969C63.278 5.49471 63.3892 5.42513 63.5589 5.43174C63.7969 5.44083 63.5747 5.57369 63.9637 5.52919C64.0685 5.51714 63.9656 5.46425 64.1761 5.44285C64.2461 5.43599 65.5948 5.38506 65.6669 5.387C65.7877 5.39074 65.898 5.50605 65.9292 5.50789C66.0913 5.51754 66.0824 5.42734 66.1907 5.41663C66.5104 5.3847 66.9297 5.43564 66.9816 5.43306C67.6083 5.40171 68.7893 5.29992 69.4499 5.32491C69.5414 5.32843 69.5322 5.396 69.5483 5.39776C69.6522 5.40893 69.7145 5.33062 69.8128 5.32619C70.3422 5.30334 71.172 5.33171 71.7072 5.32919C71.7687 5.32883 71.8974 5.28821 72.0071 5.28856C72.6278 5.29095 72.4283 5.35595 72.4636 5.35746C72.5474 5.36123 72.6922 5.29164 72.9142 5.28087C73.4865 5.25285 74.5812 5.22769 75.1967 5.21244C75.6568 5.20133 75.6523 5.27614 75.6826 5.27663C75.7471 5.27716 75.9243 5.2116 76.2266 5.19461C76.8083 5.16154 76.7439 5.22236 76.983 5.21159C77.0031 5.21089 76.9662 5.15473 77.2312 5.13958C77.7427 5.11052 78.8978 5.12552 79.4466 5.10208C79.6577 5.0932 79.7051 5.03602 79.9212 5.02687C80.2638 5.01222 81.0393 5.04251 81.1002 5.03995C81.1173 5.03929 81.1531 4.97414 81.2536 4.97025C81.3641 4.96598 81.4741 4.99453 81.5565 4.9911C82.0261 4.972 82.8303 4.82858 82.6146 5.06479C82.7628 5.00268 82.911 4.94054 83.0591 4.87837C84.0426 4.84991 84.9968 4.78769 85.9696 4.73466C86.1884 4.72277 86.3731 4.75793 86.5579 4.74785C86.7426 4.73782 87.5549 4.63097 87.6912 4.62355C87.9347 4.61067 89.3154 4.54123 89.4873 4.53831C89.8231 4.53278 90.1529 4.61171 90.2887 4.58705C90.3976 4.56723 90.2938 4.519 90.5021 4.49436C90.8626 4.45176 91.4809 4.49097 91.5915 4.48469C91.6387 4.48204 91.5483 4.445 91.9905 4.42118C92.2281 4.40827 92.3579 4.44764 92.4442 4.44333C92.471 4.4418 92.4272 4.37011 92.8984 4.35753C93.2239 4.34895 93.3654 4.39909 93.3995 4.39766C93.4508 4.39557 93.5715 4.32898 93.7775 4.32114C94.2586 4.30324 95.1431 4.32967 95.6006 4.3123C95.6888 4.30899 95.6552 4.23724 96.0072 4.22653C96.2591 4.21888 96.218 4.27934 96.3124 4.27698C96.462 4.27312 96.6811 4.19066 97.0114 4.17639C97.4274 4.15912 100.518 4.07497 100.678 4.08539C100.786 4.09269 100.911 4.08701 100.966 4.1159C100.921 4.14863 100.877 4.18136 100.833 4.21408C100.355 4.13214 100.552 4.24395 100.427 4.25828C100.246 4.27893 99.5616 4.2987 99.3978 4.33418C99.3394 4.34696 99.4775 4.40484 99.1629 4.45441C98.8247 4.50748 98.6662 4.3999 98.5386 4.56443C98.0458 4.41411 97.5909 4.62331 98.1534 4.64453C98.4713 4.65667 101.53 4.56138 102.16 4.53739C102.672 4.51833 103.612 4.42153 104.237 4.40019C104.603 4.38787 105.508 4.34745 105.474 4.43326C105.801 4.42627 105.451 4.36143 105.519 4.34613C105.662 4.3142 106.68 4.31696 106.871 4.3043C107.815 4.24215 109.008 4.08298 109.936 4.13796C109.895 4.16273 109.854 4.18749 109.812 4.21227C109.606 4.26489 108.641 4.25877 108.539 4.37229C109.95 4.29512 111.34 4.21848 112.749 4.14027C112.72 4.05005 114.458 3.95469 114.541 3.99147C114.513 4.03753 114.485 4.08359 114.457 4.12965C113.468 4.01587 113.57 4.23339 112.9 4.15207C112.63 4.16537 112.716 4.23415 112.584 4.25545C111.271 4.46702 112.553 4.10627 111.547 4.22775C111.857 4.31728 111.033 4.40183 110.664 4.43568C110.58 4.44329 109.475 4.47706 109.341 4.48606C108.6 4.53628 107.335 4.6637 106.6 4.64498C106.026 4.66909 105.706 4.76228 105.182 4.80801C104.784 4.84272 104.895 4.78334 104.707 4.79275C104.313 4.81234 104.193 4.9813 103.929 4.76868C103.664 4.81103 103.399 4.85334 103.134 4.89559C103.132 4.86049 103.131 4.82538 103.129 4.79028C102.961 4.79913 102.795 4.80796 102.627 4.81678C102.58 4.85438 102.532 4.89197 102.484 4.92957C101.948 4.90975 102.167 4.81347 102.062 4.71932C101.946 4.71854 101.831 4.71776 101.715 4.71697C101.63 4.79795 101.545 4.87892 101.46 4.95989C100.946 4.98054 100.433 5.00099 99.9198 5.02123C99.8848 4.98795 99.8499 4.95467 99.815 4.9214C99.8157 4.95644 99.8164 4.99148 99.8171 5.02652C98.9526 5.07832 98.0776 5.13013 97.2097 5.18098C96.9811 5.24883 98.3769 5.22099 98.4831 5.21884C99.0749 5.20749 100.623 5.07105 100.633 5.19551C100.992 5.08359 102.093 5.04917 102.441 5.14269C101.921 5.16338 101.402 5.18387 100.883 5.20414C100.902 5.24508 100.921 5.28602 100.94 5.32696C100.285 5.19191 100.191 5.20608 99.5369 5.39957C99.5335 5.34353 99.53 5.28748 99.5265 5.23144C99.0765 5.45014 98.2367 5.16127 98.2262 5.40314C97.9783 5.39618 97.7306 5.38916 97.4829 5.38209C96.9523 5.43806 97.7867 5.58244 95.7013 5.61332C95.5577 5.61534 95.5846 5.55253 95.3683 5.56742C95.306 5.57174 94.9527 5.67867 94.2694 5.70259C94.1627 5.70628 94.1521 5.65346 94.0411 5.65207C93.785 5.64843 93.2818 5.77811 93.5043 5.59551C92.4914 5.59399 92.917 5.71458 92.6063 5.78549C92.3993 5.83254 92.4365 5.72908 92.2569 5.76064C92.0347 5.79971 92.2039 5.89443 91.3042 5.88939C91.4045 5.87774 91.5049 5.86608 91.6053 5.8544C91.5533 5.82898 91.5014 5.80355 91.4494 5.77812C90.9404 5.86876 90.9843 5.76899 90.7501 5.93643C90.3747 5.88398 90.0525 5.89326 89.5445 5.92907C88.5574 5.99847 89.0727 6.14413 87.9333 5.96765C87.7518 6.00757 87.5703 6.04746 87.3888 6.08731C87.0853 6.03353 87.3248 5.9392 86.8754 5.94184C87.2337 6.09194 86.2846 6.07273 86.131 6.22688C86.1127 6.19248 86.0945 6.15807 86.0762 6.12367C85.976 6.12796 85.8758 6.13223 85.7757 6.1365C85.7766 6.16468 85.7774 6.19287 85.7783 6.22105C85.644 6.20563 85.5097 6.19019 85.3754 6.17473C85.2762 6.2069 85.1771 6.23905 85.0779 6.27119C84.9105 6.21922 84.7429 6.16721 84.5755 6.11516C84.4717 6.11544 84.3679 6.11572 84.2642 6.11597C84.2987 6.15657 84.3332 6.19717 84.3677 6.23777C84.234 6.22925 84.1002 6.22072 83.9665 6.21216C84.1243 6.27462 84.0302 6.35941 83.6155 6.37422C83.2732 6.38642 83.6528 6.2272 82.9196 6.31662C82.8684 6.3229 82.7817 6.4292 82.0868 6.47252C81.2534 6.52424 81.6557 6.43407 81.507 6.43732C81.4778 6.43803 81.2251 6.49951 80.9869 6.51605C80.8517 6.52546 80.7198 6.48879 80.7019 6.48959C80.6184 6.49467 80.5963 6.55451 80.4807 6.56103C80.1871 6.57726 79.7914 6.56318 79.5035 6.57677C79.3727 6.58289 79.2508 6.62232 79.1924 6.62489C79.1018 6.62862 78.9848 6.57952 78.8932 6.58307C78.555 6.59654 78.0468 6.79183 77.8815 6.55164C77.5646 6.78917 76.874 6.53961 76.9291 6.68939C76.059 6.66301 73.7434 6.92348 73.8049 6.66615C73.3197 6.89921 73.3587 6.7401 73.1527 6.74971C72.9222 6.76033 73.0429 6.79893 72.8595 6.80259C72.4314 6.8111 72.0214 6.80507 71.5947 6.81655C71.6607 6.77972 71.7266 6.74288 71.7926 6.70603C71.3444 6.70781 71.501 6.7846 71.0442 6.81323C70.207 6.86527 70.5584 6.79049 70.4322 6.70248C70.468 6.78999 69.4791 6.80306 69.3778 6.79396C69.3176 6.78844 69.5779 6.66777 68.9728 6.72031C69.0069 6.75447 69.0409 6.78863 69.075 6.82279C68.7977 6.78218 68.0481 6.86192 67.9201 6.85322C67.8617 6.84918 67.5401 6.57449 67.2606 6.80482C67.2253 6.77062 67.19 6.73642 67.1548 6.70222C66.8389 6.75188 66.5228 6.80137 66.2063 6.85069C66.1542 6.78875 66.102 6.7268 66.0499 6.66485C65.9492 6.66713 65.8484 6.66938 65.7476 6.67162C65.8157 6.72615 65.8839 6.78067 65.952 6.83518C65.3294 6.82388 64.5689 6.92814 64.4363 6.74183C64.3034 6.77961 64.1703 6.81736 64.0372 6.85509C63.949 6.79399 63.8601 6.73289 63.7727 6.67174C63.1576 6.6997 63.1481 6.74182 62.7278 6.8167C62.7434 6.76733 62.759 6.71796 62.7745 6.6686C62.465 6.74331 61.8978 6.81769 61.4477 6.83396C61.2338 6.84162 60.8649 6.78004 60.8144 6.78697C60.7637 6.7943 60.2642 7.06791 60.2068 6.83871C59.4735 6.95186 59.1473 6.85222 58.8484 6.85891C58.6541 6.86328 58.5662 6.91968 58.3465 6.92828C58.032 6.94065 57.7145 6.91789 57.5326 6.92388C57.4286 6.92747 57.4098 6.98153 57.338 6.98408C56.9985 6.99627 57.1969 6.93896 56.8387 6.94661C56.8055 6.94761 56.5446 7.01622 56.2524 7.01083C56.0887 7.00791 55.664 6.93823 55.6265 6.93875C55.4605 6.94158 55.5948 7.08814 55.0252 6.92272C55.0419 6.95065 55.0587 6.97857 55.0754 7.0065C54.3726 7.08392 54.2597 6.95937 54.1173 6.95186C54.0991 6.95129 53.9278 7.00099 53.8249 6.99508C53.6511 6.98495 53.5805 6.91918 53.542 6.91654C53.407 6.90736 52.9474 6.93955 52.6531 6.87718C52.7168 7.06548 51.6783 7.13806 51.4463 6.92538C51.2622 6.96827 51.0779 7.0111 50.8934 7.05387C50.8097 7.01901 50.726 6.98414 50.6423 6.94925C50.5916 6.98444 50.5409 7.01963 50.4901 7.05482C50.2204 6.97849 49.9505 6.90201 49.6803 6.82539C49.6632 6.90269 49.6462 6.97999 49.6291 7.05729C49.5534 7.04865 49.4777 7.03999 49.402 7.03132C49.3429 6.97002 49.2833 6.9087 49.2246 6.84738C49.1311 6.85923 49.0376 6.87106 48.944 6.88287C48.9209 6.92732 48.8978 6.97178 48.8746 7.01623C48.3708 7.06773 48.6307 6.64417 47.6684 7.01636C47.5187 6.98122 47.3688 6.94604 47.2188 6.91082C47.0491 7.08112 46.7314 6.97736 46.4745 6.99593C46.2934 7.00904 46.3031 7.07681 46.0561 7.07764C45.8088 7.07841 45.8178 7.01363 45.7985 7.01316C45.5968 7.00854 45.4444 7.0651 45.2988 7.05317C45.2768 7.05139 45.2219 6.97428 45.0354 6.96863C44.8489 6.96299 44.736 7.04432 44.4577 7.02755C44.315 7.01902 44.2741 6.954 44.1474 6.9476C43.544 6.91652 42.9312 7.24063 42.4784 6.84793C42.3765 6.89657 41.6248 7.06319 41.313 7.05034C40.822 7.02998 41.0119 6.95534 40.8166 6.9395C40.7885 6.9371 40.6387 6.96153 40.2253 6.9526C40.1513 6.95098 40.168 6.99427 40.1574 6.99473C39.6756 6.98894 38.7363 6.94389 38.2023 6.93063C38.1556 6.92937 37.8998 7.04627 37.4867 6.87881C36.8665 6.98971 35.6998 6.71518 34.8712 6.88057C34.7567 6.88239 34.6185 6.83695 34.5678 6.83751C34.1329 6.84294 34.2802 6.97654 33.3112 6.76689C33.3889 6.83495 33.1596 6.89066 32.8364 6.87913C32.3503 6.86171 32.6984 6.74464 32.3069 6.74675C32.3062 6.78178 32.3055 6.8168 32.3048 6.85183C31.4054 6.73873 31.2223 6.88453 30.3116 6.86446C29.9811 6.85703 29.5072 6.76795 29.4299 6.76583C29.4001 6.76535 29.0441 6.84108 29.0101 6.84085C28.8195 6.83864 28.7127 6.79699 28.5479 6.79259C28.0035 6.77797 27.3472 6.87022 27.4707 6.67396C27.3191 6.71202 27.1673 6.75004 27.0154 6.78801C26.4517 6.55946 26.0152 6.84063 25.9012 6.63036C25.7976 6.67012 25.6971 6.70995 25.5949 6.74972C23.1764 6.65766 20.7379 6.5541 18.3016 6.44002C18.2013 6.50301 17.1354 6.43812 17.0861 6.42564C16.84 6.36896 17.1079 6.23432 16.6002 6.24732C16.5416 6.30863 16.483 6.36993 16.4243 6.43122C15.7856 6.4262 16.0949 6.37531 15.8446 6.322C15.7389 6.32553 15.7709 6.37624 15.628 6.37397C14.8586 6.36241 13.2389 6.29535 12.4095 6.26189C12.2396 6.25513 12.2672 6.21018 12.2144 6.20769C12.0693 6.20159 11.78 6.24673 11.4877 6.23337C9.66905 6.15032 7.1193 5.99201 5.28851 5.84633C5.1641 5.8364 5.15155 5.78064 5.06756 5.77346C4.95117 5.76374 4.68803 5.79433 4.56528 5.78312C4.45004 5.77274 4.37634 5.72695 4.25617 5.71561C3.70207 5.66308 2.94801 5.69264 2.35486 5.53619C2.3052 5.52307 1.68816 5.26664 1.67452 5.25127C1.59562 5.16042 2.16384 5.05689 1.25021 4.87882C2.07894 4.81532 1.83453 4.60693 0.768824 4.45081C1.30802 4.45714 1.8451 4.4629 2.38008 4.4681C2.38213 4.44511 2.38418 4.42212 2.38623 4.39913C1.90672 4.2579 1.42612 4.19283 0.682326 4.13957C0.706769 4.11958 0.731207 4.09958 0.755639 4.07959C1.41935 4.01079 2.20889 4.03536 2.71255 3.91734C1.99135 3.76948 1.26658 3.62059 0.538141 3.47066C0.575802 3.45596 0.613452 3.44125 0.651091 3.42654C1.00594 3.4032 1.77329 3.42099 2.06549 3.39644C3.18232 3.30316 1.10135 3.22572 1.44768 3.14998C2.62462 3.22011 3.77381 3.28662 4.94898 3.35238C4.98292 3.28664 0.521266 2.84634 0.565778 2.6352C0.93696 2.64241 1.30713 2.64935 1.67631 2.65602C1.51514 2.59324 1.35381 2.53041 1.19232 2.46753C1.23862 2.45318 1.28491 2.43882 1.33118 2.42446C1.95598 2.41829 2.57789 2.41136 3.19696 2.40368C1.31799 2.34206 0.430414 2.25911 0 1.81157C0.0522534 1.80386 0.104486 1.79614 0.156697 1.78841C0.555473 2.07642 2.49617 2.10148 3.51363 2.10378C3.31105 2.01539 2.40921 2.02534 2.22079 1.96812C2.16757 1.95179 2.35876 1.90873 2.23527 1.8743C1.91383 1.78506 0.519024 1.6133 0.727154 1.53747C0.864597 1.48968 3.11251 1.53903 3.54291 1.56773C2.53081 1.41129 1.47616 1.32273 0.447239 1.14021C1.11051 1.00698 1.70082 0.831174 2.88117 0.887333C3.24816 0.81826 0.749118 0.553155 0.689755 0.499826C1.12934 0.472458 1.56747 0.444714 2.00415 0.416597C1.6365 0.409966 1.26786 0.403069 0.898206 0.395905C0.898134 0.378295 0.898063 0.360684 0.897991 0.343073C1.85789 0.316417 2.73487 0.215674 3.8125 0.284526C3.78296 0.189825 3.13678 0.163766 2.82207 0.145402ZM107.05 4.83404C107.076 4.90985 106.677 4.91883 106.453 4.92946C106.488 4.94165 106.522 4.95385 106.557 4.96605C106.079 4.97733 105.178 4.99614 105.154 5.14727C104.812 5.18424 104.957 5.04616 104.845 5.0373C104.802 5.03371 104.359 5.13328 103.997 5.06028C103.912 5.06517 103.827 5.07005 103.742 5.07493C103.728 5.1248 103.714 5.17468 103.701 5.22455C103.579 5.17135 103.458 5.11815 103.336 5.06493C104.569 4.98905 105.818 4.91141 107.048 4.83414C107.049 4.8341 107.05 4.83407 107.05 4.83404ZM94.7088 5.53782C94.2557 5.53228 93.5624 5.52197 93.7085 5.64946C93.9932 5.62863 94.2781 5.60772 94.5631 5.58673C94.6117 5.57043 94.6603 5.55412 94.7088 5.53782ZM49.733 6.69968C49.3517 6.56811 49.0061 6.68312 48.4238 6.65946C48.4246 6.68741 48.4254 6.71536 48.4261 6.74332C48.665 6.67617 49.2909 6.72029 49.733 6.69968ZM118.202 3.71033C118.285 3.71606 118.369 3.7218 118.452 3.72752C118.124 3.89639 118.058 3.79402 117.679 3.82982C117.656 3.83202 117.666 3.86591 117.658 3.86657C117.565 3.87409 117.477 3.83755 117.393 3.84287C117.232 3.85317 117.102 3.90245 116.812 3.91717C116.588 3.92839 116.583 3.86265 116.504 3.86873C116.437 3.8741 115.785 4.0923 115.355 4.03778C114.536 3.93412 117.961 3.7099 118.202 3.71033ZM120.609 3.69995C120.528 3.70506 120.448 3.71017 120.368 3.71527C120.604 3.60052 120.117 3.64321 119.76 3.6653C119.766 3.56761 120.524 3.56683 120.862 3.51892C120.777 3.57926 120.693 3.63961 120.609 3.69995ZM110.481 4.05552C110.793 4.02842 110.748 4.15244 110.737 4.18925C110.637 4.19473 110.538 4.20021 110.439 4.20568C110.453 4.15562 110.467 4.10557 110.481 4.05552ZM112.834 3.88325C112.74 3.97099 112.061 4.04475 111.739 4.06931C111.725 4.0701 111.811 4.02004 111.584 4.03685C111.515 4.04197 110.852 4.24343 110.99 4.04875C111.603 3.99378 112.217 3.93863 112.833 3.8833C112.833 3.88329 112.833 3.88327 112.834 3.88325ZM113.525 3.89363C113.399 3.92654 113.271 3.95959 113.144 3.99256C113.075 3.95761 113.007 3.92266 112.938 3.88772C113.084 3.86985 113.23 3.85197 113.375 3.83408C113.426 3.85392 113.475 3.87376 113.525 3.89363ZM16.9476 5.42004C16.9756 5.46256 17.0036 5.50508 17.0316 5.5476C17.1457 5.57754 17.7098 5.4192 17.5347 5.37748C17.3393 5.39174 17.1436 5.40593 16.9476 5.42004ZM14.58 5.23621C14.4634 5.21039 14.3468 5.18454 14.2301 5.15866C14.0918 5.223 13.9534 5.28731 13.8149 5.35158C14.4018 5.42436 15.0224 5.50486 14.9306 5.29387C15.0646 5.29949 15.1986 5.30507 15.3323 5.31062C15.2161 5.39143 15.2302 5.42029 15.5779 5.48899C15.6593 5.37316 16.0185 5.44866 16.4319 5.43906C16.1322 5.42006 15.832 5.40087 15.5311 5.3815C15.5319 5.36053 15.5328 5.33955 15.5337 5.31857C16.2041 5.35366 15.3765 5.18658 14.9342 5.2515C14.9008 5.22213 14.8675 5.19275 14.8341 5.16337C14.7494 5.18766 14.6647 5.21195 14.58 5.23621ZM63.1636 5.86133C63.0801 5.84181 62.9965 5.82227 62.913 5.80272C62.5958 6.08375 63.2473 5.8107 63.7179 6.01904C63.5595 5.85683 64.2743 5.84944 64.3153 5.83741C64.2318 5.78345 64.1484 5.72948 64.0649 5.67549C63.7619 5.73766 63.4644 5.79954 63.1636 5.86133ZM60.7979 5.7134C61.0889 5.84602 59.6688 5.87703 59.1945 5.85315C59.0789 5.84737 58.8717 5.77493 58.7884 5.78557C58.7381 5.81409 58.6879 5.84261 58.6376 5.87112C58.5766 5.77586 57.6476 5.89608 57.2804 5.952C57.2453 5.91738 57.2103 5.88275 57.1753 5.84813C57.0414 5.8636 56.9075 5.87904 56.7735 5.89445C56.79 5.85936 56.8065 5.82426 56.823 5.78916C56.7221 5.83228 56.6203 5.8754 56.5207 5.91847C56.1263 5.96939 56.3678 5.7765 56.0716 5.83897C55.7422 5.90827 56.2843 6.01609 56.275 6.08991C56.5405 6.06816 57.1559 6.01867 57.429 6.01323C57.5859 6.01016 57.41 6.14465 58.0843 5.98424C58.2329 6.01774 58.3815 6.0512 58.53 6.08461C58.801 6.02472 59.0716 5.96468 59.3419 5.90452C59.3932 5.95273 59.4445 6.00094 59.4957 6.04915C59.5249 6.05645 60.1495 5.93591 60.1154 5.89961C60.3703 5.98929 60.8968 5.9977 61.4478 5.99305C61.5004 5.96554 61.553 5.93802 61.6056 5.9105C61.0734 5.97705 61.4355 5.88525 61.2757 5.837C61.1834 5.80918 60.9016 5.75613 60.7979 5.7134ZM20.6613 5.45153C19.7666 5.53923 20.3225 5.46067 19.3567 5.42549C19.4219 5.49116 19.4871 5.55682 19.5522 5.62247C20.032 5.52449 20.807 5.62865 20.6623 5.45156C20.6619 5.45155 20.6616 5.45154 20.6613 5.45153ZM11.2071 5.27688C11.719 5.2621 11.4681 5.15226 12.1143 5.15002C12.1146 5.15003 12.1149 5.15005 12.1152 5.15006C11.7824 5.12795 11.4488 5.10563 11.1144 5.08307C11.1453 5.14768 11.1762 5.21228 11.2071 5.27688ZM41.0917 6.04378C41.5803 6.07573 41.4798 6.02563 41.9279 6.12766C42.5953 6.0138 42.0311 6.02615 42.032 5.91794C41.8799 5.94844 41.7248 5.97888 41.5754 6.00932C41.2116 5.90492 41.558 5.85703 41.558 5.8473C41.5577 5.8473 41.5574 5.8473 41.5571 5.84729C41.5574 5.81481 41.5693 5.80809 41.4295 5.78721C41.317 5.87276 41.2044 5.95829 41.0917 6.04378ZM43.1944 5.92682C43.0255 5.99755 42.9492 6.08937 43.3916 6.13829C43.3919 6.13829 43.3922 6.13829 43.3926 6.1383C43.4291 5.97794 43.8523 6.11014 44.0453 6.10038C44.096 6.0832 44.1467 6.06602 44.1974 6.04883C43.8636 6.00838 43.5293 5.96771 43.1944 5.92682ZM50.5882 5.79186C50.5906 5.96926 50.219 5.98732 50.7425 6.14914C50.8441 6.14562 50.9455 6.14209 51.0469 6.13854C51.1133 6.09935 51.1798 6.06015 51.2461 6.02095C52.5312 6.33603 52.9131 5.7884 50.742 6.00156C50.7417 6.00168 50.7414 6.0018 50.7411 6.00193C50.6902 5.93191 50.6391 5.86189 50.5882 5.79186ZM48.3232 5.81063C48.3069 5.90377 48.2906 5.99691 48.2743 6.09005C47.9912 5.86539 47.6251 6.07973 47.0679 5.92041C47.0174 5.94865 46.9669 5.97689 46.9164 6.00513C46.7078 5.94319 44.6589 5.91825 45.1031 6.06292C45.2944 6.1263 45.7161 6.04278 45.7532 6.04478C45.8768 6.0522 46.0376 6.1327 46.2458 6.12859C46.3662 6.1261 46.6199 6.03265 46.8649 6.03324C47.413 6.03474 48.41 6.28776 49.1243 6.04773C49.176 6.07574 49.2268 6.10375 49.2792 6.13175C49.8158 6.11375 49.6365 6.02513 50.1351 6.13005C50.4763 5.68744 48.1377 6.15506 48.6252 5.7955C48.6248 5.7955 48.6245 5.7955 48.6242 5.7955C48.5239 5.80056 48.4236 5.80561 48.3232 5.81063ZM33.6312 5.80426C33.6009 5.72429 32.9834 5.83486 33.1316 5.64736C32.9295 5.70967 32.727 5.77191 32.5242 5.83406C32.5254 5.85179 32.5266 5.86952 32.5277 5.88724C32.7282 5.87742 32.9285 5.86752 33.1284 5.85753C33.1286 5.88562 33.1289 5.9137 33.1291 5.94179C33.4256 5.84633 34.676 5.91354 34.6373 6.0121C34.7051 5.97131 34.7729 5.9305 34.8406 5.88969C35.4382 6.01445 35.9545 5.90135 36.6015 6.02281C36.6522 5.98879 36.703 5.95476 36.7537 5.92073C36.786 5.94929 36.8182 5.97785 36.8505 6.00641C37.0865 6.01345 37.3221 6.02039 37.5575 6.02721C38.3257 5.9248 36.8381 5.75779 36.6555 5.77129C36.6314 5.77325 36.6341 5.84599 36.4832 5.8551C36.2165 5.87141 34.7142 5.77416 34.2446 5.81312C34.2415 5.76484 34.2383 5.71656 34.2352 5.66828C34.0321 5.71365 33.8304 5.75897 33.6312 5.80426ZM53.4556 5.96719C53.49 6.01603 53.5243 6.06486 53.5587 6.11369C54.1455 6.06055 54.5141 6.10021 54.3627 5.93919C54.3624 5.93919 54.3621 5.93919 54.3618 5.93919C54.0601 5.9487 53.7581 5.95803 53.4556 5.96719ZM96.8799 4.64938C96.8597 4.55272 96.5792 4.53029 96.2228 4.61803C96.2415 4.64545 96.2602 4.67288 96.279 4.7003C96.4624 4.60798 96.7037 4.74096 97.2822 4.69261C97.2797 4.6436 97.2773 4.59459 97.2748 4.54558C97.1431 4.5802 97.0115 4.61479 96.8799 4.64938ZM52.9484 5.94927C52.7709 5.89255 52.2736 6.07088 52.6015 6.07769C52.8519 6.08279 53.0443 5.97973 52.9484 5.94927ZM9.19376 5.08679C9.32647 5.10347 9.45906 5.12012 9.59153 5.13674C9.6628 5.09836 9.73402 5.05997 9.8052 5.02157C9.80489 5.02156 9.80458 5.02154 9.80427 5.02153C9.60108 5.04336 9.39758 5.06512 9.19376 5.08679ZM39.4182 6.03441C39.8673 6.03347 40.3151 6.03213 40.7619 6.03038C40.7666 6.00321 40.7713 5.97603 40.776 5.94886C40.3276 6.0438 40.148 5.93474 40.0436 5.92709C40.044 5.92709 40.0445 5.9271 40.045 5.9271C39.7093 5.90196 39.3888 5.88246 39.0702 5.84611C39.1863 5.9089 39.3023 5.97167 39.4182 6.03441ZM37.8768 5.84335C37.9501 6.03664 38.05 6.06063 38.7436 5.93405C38.7165 5.91004 38.6894 5.88602 38.6623 5.86199C38.3037 5.87166 38.0934 5.91322 38.1578 5.81377C38.0642 5.82365 37.9705 5.83351 37.8768 5.84335ZM44.9002 5.96759C44.8184 5.90609 44.1642 5.96438 44.1995 5.99537C44.2138 6.00782 45.0603 6.08841 44.9002 5.96759ZM101.845 4.35191C101.693 4.34581 101.541 4.3397 101.39 4.33357C101.589 4.30223 101.789 4.27086 101.989 4.23947C101.941 4.27695 101.893 4.31443 101.845 4.35191ZM103.484 3.99142C103.593 4.01019 103.253 4.20144 103.897 4.21187C103.43 4.24041 102.965 4.26871 102.498 4.29702C102.717 4.2575 102.932 4.21809 103.15 4.17858C103.109 4.13099 103.068 4.0834 103.027 4.03581C103.18 4.02103 103.332 4.00623 103.484 3.99142ZM103.992 4.09128C103.733 3.9735 105.058 3.89285 105.183 3.90214C105.211 3.90448 105.347 3.99694 105.396 4.01572C105.196 4.02663 104.995 4.03751 104.795 4.04836C104.864 4.0761 104.932 4.10383 105.001 4.13156C104.767 4.15487 104.534 4.17814 104.3 4.20137C104.398 4.16458 104.497 4.12777 104.595 4.09096C104.394 4.0911 104.193 4.0912 103.992 4.09128ZM98.6776 4.40077C98.8455 4.3955 99.0147 4.39014 99.1815 4.38488C99.1456 4.33759 99.1096 4.2903 99.0738 4.243C98.9735 4.24814 98.8727 4.2533 98.7722 4.25843C98.7406 4.30588 98.7091 4.35333 98.6776 4.40077ZM102.089 4.1605C101.857 4.40931 101.164 3.92839 101.952 4.07858C102.032 4.09387 102.111 4.13649 102.089 4.1605ZM105.682 3.90352C106.195 3.70334 106.098 4.08948 105.599 4.00484C105.574 4.00025 105.644 3.91834 105.682 3.90352ZM109.588 3.68544C109.63 3.68441 109.713 3.80321 110.107 3.66428C110.174 3.67465 110.241 3.68502 110.308 3.69539C110.159 3.76096 108.825 3.86823 109.003 3.73626C109.207 3.72317 109.377 3.69326 109.588 3.68544ZM108.272 3.30132C108.072 3.31565 107.872 3.32995 107.673 3.34424C107.741 3.37917 107.809 3.4141 107.877 3.44902C107.779 3.46486 107.681 3.48069 107.584 3.49652C107.412 3.43922 107.241 3.38191 107.07 3.32458C107.502 3.29046 107.936 3.25622 108.37 3.22187C108.337 3.24835 108.304 3.27484 108.272 3.30132ZM102.958 3.492C103.344 3.52004 103.811 3.44366 104.435 3.41851C104.436 3.41861 104.436 3.41872 104.436 3.41882C104.468 3.41772 104.526 3.46768 104.626 3.46442C104.71 3.46171 106.399 3.3125 106.271 3.40931C105.622 3.52499 105.37 3.4159 105.224 3.62377C105.19 3.58343 105.156 3.54308 105.122 3.50274C104.49 3.46364 104.319 3.61873 103.97 3.69091C103.969 3.65914 103.969 3.62738 103.969 3.59561C103.734 3.60497 103.499 3.61429 103.264 3.62357C103.298 3.64266 103.332 3.66175 103.366 3.68084C103.283 3.68524 103.2 3.68965 103.117 3.69405C102.91 3.61085 102.653 3.60251 102.958 3.492ZM109.182 3.30394C109.359 3.05324 111.157 3.11943 111.979 3.02327C111.555 3.19193 110.881 3.12908 110.412 3.15343C109.506 3.20059 110.137 3.25469 109.986 3.30199C109.912 3.3253 109.385 3.19967 109.182 3.30394ZM101.554 3.60805C102.01 3.60368 102.262 3.53487 102.66 3.60237C102.628 3.62166 102.596 3.64093 102.564 3.66022C102.428 3.65136 101.327 3.65828 101.554 3.60805ZM113.19 3.01917C112.306 2.98168 112.752 3.17523 112.286 3.03743C112.586 3.01042 112.886 2.98337 113.187 2.95628C113.188 2.97724 113.189 2.9982 113.19 3.01917ZM51.942 5.04924C51.5729 5.04556 51.1597 5.00329 50.9386 5.09489C51.1903 5.10802 51.4416 5.12103 51.6927 5.13392C51.7758 5.10571 51.8589 5.07748 51.942 5.04924ZM62.4768 4.03884C62.3922 4.01863 62.0598 4.08887 62.0246 4.08948C61.9593 4.09064 61.9766 4.05868 61.9755 4.05043C61.5479 4.06368 61.9443 4.15492 61.628 4.18176C61.5741 4.18629 60.8287 4.15033 60.5252 4.15903C60.0569 4.17263 59.5976 4.17305 59.4234 4.17726C59.1308 4.1843 58.588 4.26553 58.1054 4.27551C57.9064 4.2795 57.8362 4.22142 57.6359 4.22537C56.3446 4.25216 53.8321 4.35546 52.6864 4.3238C52.4065 4.31615 52.1387 4.24035 51.9904 4.24738C51.8736 4.27616 51.7567 4.30491 51.6398 4.33364C51.2784 4.0814 51.1589 4.30766 50.7697 4.33268C50.5224 4.34847 50.4064 4.27358 50.3731 4.27387C50.1526 4.27597 50.0438 4.31203 49.8704 4.31835C49.6757 4.32535 49.3955 4.2919 49.3258 4.29812C49.2834 4.30223 49.4178 4.40226 48.6694 4.40099C47.9058 4.39949 47.1492 4.38829 46.3665 4.38174C46.6269 4.68414 46.852 4.47805 47.1707 4.46747C47.2561 4.46462 47.2019 4.51247 47.2763 4.51045C47.4865 4.50502 47.8882 4.45819 48.0616 4.46961C48.2489 4.48193 48.1849 4.593 48.4222 4.55198C48.4342 4.54986 48.3963 4.50401 48.4521 4.49631C49.0129 4.42013 49.194 4.4998 49.9101 4.50063C50.3886 4.50271 53.2377 4.44329 53.342 4.47127C53.8516 4.62941 50.8447 4.64744 50.4879 4.63424C50.3641 4.63015 50.4938 4.57913 50.3809 4.56973C50.3331 4.56599 49.9034 4.66378 49.4771 4.6725C48.9624 4.68326 47.94 4.61773 47.4501 4.6194C43.253 4.63536 39.0965 4.53841 34.9132 4.46439C34.8234 4.46282 34.7042 4.51863 34.4109 4.51335C28.9701 4.41458 23.3329 4.20725 17.8277 4.02151C16.631 3.98122 15.4483 3.98755 14.2303 3.89229C14.0773 3.92802 13.9242 3.9637 13.7709 3.99934C14.1602 3.98267 14.8633 4.10802 14.9273 4.11206C14.9505 4.11346 15.0987 4.07203 15.3337 4.08431C15.6642 4.10141 15.8071 4.14854 15.8342 4.14966C15.9181 4.15322 15.8649 4.10709 15.945 4.11057C16.5422 4.13682 17.003 4.14267 17.5472 4.16346C18.172 4.18732 18.4867 4.28105 18.9436 4.20825C18.9936 4.24517 19.0437 4.28209 19.0937 4.319C19.4433 4.18091 21.4361 4.26893 22.257 4.3036C22.5158 4.31476 22.4683 4.37473 22.5553 4.3776C22.6106 4.3793 22.5922 4.29831 23.2666 4.33588C23.6058 4.35477 23.6927 4.41619 23.8627 4.41963C23.955 4.4214 23.9418 4.36276 24.0743 4.36688C24.8419 4.3907 25.4559 4.42786 26.2099 4.46014C26.4224 4.46914 26.4233 4.51774 26.4709 4.51845C26.646 4.52119 26.9527 4.4475 27.3959 4.45967C28.1276 4.48017 29.5666 4.51651 30.1612 4.57011C30.2492 4.57809 30.3208 4.63806 30.3856 4.63871C30.4837 4.6395 30.5235 4.57959 30.5407 4.57966C30.8683 4.58611 30.67 4.63813 30.8895 4.62937C31.0078 4.62462 31.1325 4.55808 31.4067 4.55625C31.7685 4.55378 31.6954 4.6345 31.8465 4.6295C31.8625 4.62854 31.8685 4.57143 32.0167 4.57267C32.5789 4.57786 33.3906 4.58075 33.9176 4.59073C34.0709 4.59359 34.1851 4.63425 34.3994 4.63877C34.8347 4.64897 37.2728 4.663 37.4684 4.687C37.4893 4.68962 37.2726 4.77103 37.6162 4.7733C37.7168 4.73954 37.8154 4.70573 37.9177 4.67196C38.0862 4.73051 38.2545 4.789 38.4227 4.84743C38.4196 4.6531 39.4113 4.63516 39.3988 4.8337C39.507 4.84301 39.6151 4.85229 39.7232 4.86155C39.9499 4.72668 40.0994 4.77908 40.5343 4.70279C40.6015 4.74558 40.6687 4.78836 40.7359 4.83113C40.7531 4.80323 40.7704 4.77532 40.7877 4.74741C41.0177 4.90183 41.3979 4.75251 41.4438 4.75205C41.6204 4.75024 41.7532 4.79004 41.8377 4.7895C42.1517 4.78818 42.8296 4.74001 43.1937 4.76703C43.2108 4.76841 43.1936 4.83335 43.2972 4.84205C43.4841 4.85774 43.503 4.76265 43.7513 4.87596C43.8018 4.84818 43.8522 4.82039 43.9026 4.7926C43.9558 4.80743 44.0091 4.82225 44.0623 4.83707C44.3769 4.83133 44.6909 4.82539 45.0044 4.81926C44.7187 4.92814 45.0469 4.99112 45.3569 4.90561C45.4619 4.87662 45.3691 4.80924 45.4041 4.79922C45.451 4.78598 46.8727 4.82392 46.965 4.86706C47.032 4.84605 47.0991 4.82503 47.166 4.804C47.1999 4.84628 47.2337 4.88856 47.2675 4.93084C47.3044 4.91611 47.3414 4.90138 47.3783 4.88665C47.7468 4.96161 48.699 4.79084 48.8708 4.80402C48.9631 4.8111 48.8793 4.99129 49.3221 4.9723C49.3376 4.92284 49.3529 4.87338 49.3683 4.82392C49.4704 4.81668 49.5725 4.80942 49.6745 4.80214C49.8659 4.80619 50.1443 4.89118 50.1534 4.94974C50.213 4.91443 50.2726 4.87911 50.3322 4.84379C50.4931 4.958 51.3465 4.91443 51.6881 4.84024C51.7884 4.87433 51.8886 4.9084 51.9888 4.94244C52.123 4.89978 52.2571 4.85709 52.3911 4.81436C52.7019 4.79998 52.3739 4.87163 52.4402 4.87708C52.5797 4.88845 53.2959 4.76603 53.2504 4.91316C53.3487 4.91288 53.447 4.91257 53.5452 4.91225C53.5954 4.86991 53.6456 4.82756 53.6957 4.78521C53.8652 4.92874 54.1565 4.87562 54.7532 4.92337C54.8029 4.88962 54.8526 4.85586 54.9023 4.8221C55.0869 4.86785 55.2714 4.91353 55.4559 4.95915C55.4931 4.90362 55.5304 4.84809 55.5676 4.79256C55.6475 4.78385 55.7273 4.77514 55.8072 4.76641C55.9708 4.8884 56.2607 4.75185 56.4094 4.80123C56.6263 4.87327 56.4603 4.96382 56.0587 4.98507C56.0879 5.075 57.2906 5.0205 57.5687 5.01028C57.5502 4.99293 57.5316 4.97557 57.5131 4.95822C57.2293 4.97557 56.9452 4.99276 56.6607 5.00981C56.4199 4.7861 57.1932 4.8383 57.5464 4.80473C57.5786 4.80154 57.761 4.71361 58.1171 4.71703C58.255 4.71848 58.7938 4.83662 58.8963 4.84213C59.7239 4.88766 59.1137 4.71737 59.9238 4.8624C59.7541 4.74467 60.2177 4.83774 60.705 4.80661C60.7878 4.80138 61.4871 4.69223 61.5342 4.68881C61.8287 4.66808 61.5097 4.77995 61.9356 4.74482C61.9864 4.71597 62.0371 4.68712 62.0878 4.65825C62.187 4.65649 62.2861 4.6547 62.3852 4.6529C62.9912 4.89096 63.1273 4.70472 63.3403 4.67709C63.4263 4.6659 63.3166 4.73306 63.5398 4.71496C63.6242 4.70818 63.715 4.65233 63.9431 4.64395C64.6556 4.61771 64.9022 4.84398 65.5505 4.58886C65.6515 4.62156 65.7525 4.65423 65.8535 4.68689C65.9202 4.64352 65.9869 4.60014 66.0536 4.55675C66.5733 4.66645 66.3838 4.54626 66.5705 4.54344C67.0619 4.53601 68.0741 4.53494 68.1654 4.63275C68.5864 4.39203 69.1025 4.63827 69.2702 4.62485C69.3693 4.59427 69.4683 4.56368 69.5673 4.53308C69.6853 4.55801 69.8033 4.58293 69.9212 4.60782C69.8582 4.3835 70.4709 4.58905 70.5292 4.59077C70.5955 4.59242 71.5296 4.49912 71.8778 4.49002C72.2256 4.48117 72.8328 4.52414 72.8861 4.52261C72.9474 4.52077 73.5366 4.44134 73.9981 4.42736C74.4009 4.41615 76.8032 4.4233 76.6478 4.32725C76.4901 4.30475 76.2663 4.28818 76.0729 4.28158C75.4709 4.26335 71.9586 4.32215 71.0563 4.32979C69.2588 4.34893 67.3727 4.40262 65.5671 4.42037C65.4605 4.42145 65.443 4.36325 65.3517 4.36392C65.2129 4.36527 64.8619 4.43142 64.7249 4.43302C64.2132 4.43876 63.5903 4.44156 63.3188 4.44529C62.7095 4.45408 62.2901 4.4264 61.8276 4.42881C61.6829 4.42971 60.9516 4.51485 60.4476 4.49208C60.3563 4.47704 60.2642 4.462 60.1735 4.44692C60.4319 4.42377 61.1113 4.36301 61.4259 4.35187C61.8944 4.33565 62.1392 4.37871 62.312 4.37477C62.4567 4.37159 63.1939 4.30374 63.5293 4.29578C63.6334 4.29332 63.656 4.3543 63.7451 4.35233C64.2313 4.34124 64.8724 4.3262 65.2921 4.2568C65.1208 4.28029 66.1945 4.29424 66.2504 4.29258C66.3468 4.29035 66.4499 4.2305 66.6464 4.22592C67.0244 4.21708 66.9787 4.33845 67.4486 4.20683C67.5669 4.23901 67.6852 4.27116 67.8034 4.30328C67.807 4.14325 69.2944 4.32339 69.7093 4.11715C69.7203 4.09535 67.7947 4.08269 67.6348 4.08288C66.6824 4.08719 65.2776 4.15813 64.3495 4.14891C64.0691 4.14637 63.195 4.06615 63.1293 4.06911C63.0232 4.07388 63.1202 4.12774 63.0744 4.13059C62.1359 4.18964 62.6023 4.06886 62.4768 4.03884ZM103.951 3.33364C103.665 3.34227 103.38 3.35083 103.094 3.35935C103.113 3.32314 103.132 3.28694 103.151 3.25074C103.282 3.25748 103.413 3.2642 103.545 3.27091C103.644 3.24461 103.743 3.2183 103.843 3.19198C103.879 3.2392 103.915 3.28642 103.951 3.33364ZM104.647 3.14904C104.893 3.11809 104.91 3.19146 104.967 3.19201C105.138 3.19382 105.285 3.15594 105.451 3.14806C105.269 3.33419 104.858 3.27545 104.647 3.14904ZM99.5295 3.35459C99.5856 3.36014 99.9674 3.53032 100.382 3.33217C100.702 3.37168 101.022 3.41111 101.343 3.45045C100.799 3.39322 100.058 3.52069 99.7944 3.53088C99.6943 3.53476 99.6722 3.47763 99.5922 3.4808C99.1319 3.49986 98.6889 3.65451 98.6316 3.46442C99.0732 3.49797 99.4574 3.34793 99.5295 3.35459ZM102.32 3.27778C102.396 3.3141 102.472 3.35042 102.549 3.38674C102.281 3.40087 102.013 3.41495 101.746 3.42897C101.816 3.38446 101.886 3.33995 101.956 3.29544C102.078 3.28956 102.199 3.28368 102.32 3.27778ZM81.7742 4.10634C81.939 4.10036 82.1038 4.09435 82.2686 4.08831C82.2584 4.05934 82.0699 4.06691 81.9997 4.04983C82 4.04982 82.0003 4.04981 82.0006 4.04979C81.9224 4.03045 81.954 3.99139 81.8127 3.98023C81.7999 4.02226 81.787 4.0643 81.7742 4.10634ZM13.575 3.86474C13.2952 3.85142 10.7632 3.73624 10.9707 3.85236C11.0782 3.91099 11.951 3.90439 12.2063 3.91662C12.5524 3.93346 13.4709 4.08983 13.575 3.86474ZM9.0597 3.63577C9.01122 3.74054 10.6142 3.83416 10.7695 3.82246C10.7371 3.80571 10.6876 3.7695 10.6438 3.75975C10.4308 3.71311 9.40589 3.68195 9.0597 3.63577ZM72.5384 4.11911C72.6685 4.16918 72.7986 4.21923 72.9287 4.26925C72.8928 4.20012 72.8568 4.13099 72.8209 4.06186C72.7267 4.08096 72.6326 4.10004 72.5384 4.11911ZM60.0711 4.48109C57.9364 4.5104 55.792 4.53126 53.6482 4.54312C53.8369 4.5126 54.0256 4.48201 54.214 4.45135C56.0569 4.44736 58.0309 4.45399 59.8063 4.3822C59.8946 4.41518 59.9828 4.44814 60.0711 4.48109ZM98.9119 3.06985C98.3625 3.09691 97.9069 3.1717 97.3065 3.11986C97.8707 3.01184 98.1585 3.12034 98.7057 2.97516C98.706 2.97514 98.7063 2.97513 98.7066 2.97511C98.775 3.0067 98.8435 3.03827 98.9119 3.06985ZM86.6749 3.63105C86.8394 3.5748 87.0039 3.51851 87.1685 3.46219C86.968 3.47097 86.7675 3.4797 86.5671 3.48837C86.603 3.53594 86.6389 3.5835 86.6749 3.63105ZM41.3921 4.26965C40.822 4.37205 39.3577 4.16249 38.8872 4.28524C38.8568 4.29331 39.1345 4.35112 38.6832 4.45081C39.0235 4.43351 39.2632 4.41428 39.2895 4.3318C39.3899 4.36105 39.4903 4.39029 39.5906 4.4195C39.7578 4.40015 39.9248 4.38074 40.0916 4.36128C40.0727 4.4435 40.086 4.43929 40.3424 4.38551C40.4588 4.40759 40.5751 4.42964 40.6913 4.45166C40.741 4.41724 40.7907 4.38281 40.8403 4.34838C40.9406 4.39818 41.0408 4.44796 41.141 4.49771C41.5337 4.44834 41.2957 4.35154 41.3921 4.26965ZM43.405 4.30514C43.3132 4.2875 40.6426 4.32478 41.8531 4.49923C42.1695 4.49662 42.4854 4.4938 42.8007 4.49079C42.5417 4.21676 43.3985 4.46615 43.4686 4.47216C43.8053 4.50087 44.2339 4.43845 44.4772 4.44297C44.6865 4.44695 44.8105 4.49633 44.9575 4.4957C45.4545 4.49372 46.2576 4.4942 46.3665 4.38174C45.9752 4.37846 45.5706 4.37597 45.1691 4.37719C44.7412 4.37838 44.3658 4.27056 43.5571 4.41155C43.3573 4.39465 43.4291 4.30994 43.405 4.30514ZM87.6709 3.45147C87.6557 3.56549 88.6697 3.49326 88.6737 3.44823C88.6745 3.42197 88.3446 3.43737 88.2967 3.42955C88.2964 3.42956 88.2961 3.42958 88.2958 3.42959C88.2759 3.42613 88.3739 3.37841 88.218 3.37331C88.0356 3.3994 87.8532 3.42546 87.6709 3.45147ZM17.5491 3.77543C17.4213 3.70832 14.2931 3.60311 14.1933 3.6279C14.1677 3.63526 14.2017 3.66459 14.1911 3.68022C14.9307 3.62236 15.9653 3.77128 16.6546 3.80573C16.8468 3.8153 16.7911 3.76804 16.802 3.76763C16.8025 3.76765 16.803 3.76767 16.8034 3.76769C16.9126 3.77196 17.4 3.90115 17.5491 3.77543ZM37.8769 4.32385C38.0109 4.34337 38.1449 4.36285 38.2788 4.38229C38.3133 4.34771 38.3477 4.31312 38.3822 4.27852C38.3819 4.27852 38.3816 4.27852 38.3813 4.27851C38.2133 4.29368 38.0452 4.30879 37.8769 4.32385ZM33.2656 4.13216C33.2974 4.15744 33.3291 4.18272 33.3609 4.208C33.6943 4.21789 34.0269 4.22755 34.3662 4.23712C34.332 4.25041 34.2977 4.26371 34.2634 4.277C34.7735 4.32347 34.9857 4.2404 35.2566 4.25749C35.2563 4.25749 35.2559 4.25748 35.2556 4.25748C35.2848 4.25942 35.3192 4.31139 35.4276 4.31495C35.6764 4.32322 36.3867 4.35362 36.473 4.30317C36.6568 4.19591 35.2259 4.22545 34.9569 4.21536C34.8359 4.21094 34.691 4.16342 34.6173 4.16105C34.5365 4.15862 34.4254 4.21737 34.2283 4.2119C34.1683 4.21022 33.5383 4.12702 33.2656 4.13216ZM27.3449 4.06778C27.4472 4.12616 27.665 4.07828 27.7442 4.08947C27.7631 4.09212 27.6142 4.13471 27.7928 4.1534C27.8442 4.12302 27.8957 4.09262 27.9471 4.06223C27.7466 4.06416 27.5459 4.06601 27.3449 4.06778ZM89.3724 3.32173C89.3427 3.31116 88.7988 3.34012 88.773 3.34882C88.4515 3.46489 89.5781 3.40301 89.3724 3.32173ZM103.105 2.52415C102.845 2.39055 105.823 2.37665 106.114 2.35277C106.105 2.4461 105.391 2.39129 105.769 2.49829C105.411 2.4476 104.435 2.53713 104.205 2.52908C104.065 2.52427 104.025 2.44621 104.004 2.44481C103.921 2.44024 103.196 2.57142 103.105 2.52415ZM108.569 2.28239C108.285 2.28031 108.002 2.27817 107.719 2.276C108.051 2.24737 108.384 2.21869 108.717 2.18994C108.667 2.22076 108.618 2.25158 108.569 2.28239ZM108.922 2.22087C108.908 2.13173 109.875 2.1472 110.122 2.11282C109.849 2.28089 109.365 2.1632 108.922 2.22087ZM92.9728 2.92159C92.5288 2.88337 92.3523 3.16588 92.883 3.02121C92.8991 3.0165 92.9914 2.92386 92.9728 2.92159ZM41.26 3.8832C41.1855 3.88098 40.2527 3.78301 40.1977 3.82625C40.025 3.96471 40.6395 3.91488 40.844 3.96975C41.174 4.05867 40.6872 4.12496 41.4946 4.0805C41.4614 4.10828 41.4282 4.13606 41.3949 4.16384C41.8665 4.17729 41.7147 3.98142 41.8001 3.95715C41.8265 3.94979 42.1251 3.96859 42.179 3.95659C42.853 3.80526 41.3248 3.88546 41.26 3.8832ZM82.0407 3.38085C81.158 3.33299 81.5411 3.43916 80.6387 3.46645C80.6109 3.52945 81.9282 3.43964 82.0407 3.38085ZM49.8271 4.02402C48.9093 4.05023 48.1742 3.96978 47.3229 4.07729C47.3802 4.24548 50.0586 4.06759 49.8271 4.02402ZM7.10296 2.77848C10.6109 3.25503 14.7176 3.34172 18.4725 3.47851C18.8853 3.49369 18.9221 3.56124 19.0715 3.55962C19.1693 3.55859 19.1542 3.50468 19.2838 3.50922C23.9559 3.6728 28.4282 3.73017 32.9149 3.85199C33.1943 3.86002 34.563 4.00022 34.8636 3.83246C35.089 3.70549 34.0954 3.78999 33.9299 3.78555C33.8074 3.78241 33.8033 3.72076 33.7216 3.719C33.6349 3.71714 33.7058 3.76055 33.6051 3.75926C33.1783 3.75408 32.7116 3.7283 32.3235 3.72383C28.4988 3.67869 24.8148 3.56544 21.0143 3.4273C20.5581 3.41072 20.6535 3.36464 20.6305 3.36364C20.6302 3.36375 20.6299 3.36386 20.6296 3.36397C18.1676 3.27269 15.3648 3.2719 12.7529 3.11303C10.9402 2.99843 9.07202 2.87548 7.26378 2.74996C7.2102 2.75947 7.15659 2.76898 7.10296 2.77848ZM43.2052 4.07241C42.9769 3.88483 42.9252 4.07235 42.1 3.99001C42.0325 4.02121 41.965 4.0524 41.8974 4.08358C42.3349 4.08024 42.7713 4.07652 43.2066 4.07242C43.2062 4.07242 43.2057 4.07242 43.2052 4.07241ZM37.7732 3.94961C37.6402 3.697 35.809 3.84763 34.9773 3.78463C34.8234 3.90829 36.0298 3.87198 36.3118 3.88938C36.4533 3.8982 37.2077 4.03946 37.7806 3.97535C37.7781 3.96677 37.7757 3.95819 37.7732 3.94961ZM99.9771 2.31834C99.8441 2.33255 99.7112 2.34675 99.5783 2.36093C99.9132 2.37154 100.248 2.38206 100.584 2.39249C100.05 2.40227 99.5169 2.41182 98.9846 2.42114C99.0809 2.36401 99.1773 2.30688 99.2736 2.24973C99.508 2.27265 99.7425 2.29552 99.9771 2.31834ZM98.2497 2.43373C99.184 2.36643 98.2145 2.55563 97.9782 2.50546C97.8367 2.47539 98.1543 2.44071 98.2497 2.43373ZM95.8175 2.46612C96.2474 2.35324 97.1264 2.30283 96.823 2.50104C96.3484 2.43911 96.0493 2.52528 95.3657 2.50974C95.4639 2.46982 95.5612 2.42993 95.659 2.39002C95.6594 2.38999 95.6599 2.38997 95.6603 2.38995C95.7127 2.41534 95.7651 2.44073 95.8175 2.46612ZM98.6713 2.3015C99.2892 2.37512 97.514 2.42963 98.0679 2.33224C98.0938 2.32777 98.6469 2.29874 98.6713 2.3015ZM11.0206 2.77982C10.9442 2.83607 11.4146 2.85676 11.5703 2.86789C12.2497 2.91685 13.1008 2.92884 13.8164 2.96803C13.7638 2.94607 13.7111 2.92411 13.6583 2.90215C12.7737 2.86245 11.9053 2.82215 11.0206 2.77982ZM16.0288 3.06139C16.5122 3.08109 16.994 3.10032 17.4741 3.11908C17.5189 3.12083 17.7306 3.07778 17.5751 3.05925C17.0616 3.0605 16.5461 3.06122 16.0288 3.06139ZM46.2668 3.72819C45.8938 3.69387 46.9683 3.52494 46.9193 3.70833C46.702 3.71504 46.4845 3.72167 46.2668 3.72819ZM49.7255 3.65584C49.4917 3.67376 49.2552 3.69159 49.0248 3.70929C49.0244 3.68818 49.0241 3.66706 49.0238 3.64594C49.2546 3.64935 49.4914 3.65265 49.7255 3.65584ZM9.10776 2.64673C9.35365 2.73107 9.94743 2.74848 10.3158 2.76732C10.065 2.69336 9.45695 2.69485 9.10776 2.64673ZM40.6977 3.61968C40.7282 3.66955 39.2503 3.64116 39.7631 3.56007C40.0751 3.58014 40.3867 3.60001 40.6977 3.61968ZM37.6904 3.51119C38.0046 3.50475 38.2554 3.52492 38.1879 3.6014C38.0188 3.59588 37.8485 3.59028 37.6826 3.58469C37.6852 3.56019 37.6878 3.53569 37.6904 3.51119ZM94.1523 2.40052C93.6182 2.43346 93.0846 2.46612 92.5514 2.49848C92.5702 2.47644 92.5889 2.45441 92.6077 2.43237C93.1217 2.40102 93.6362 2.3694 94.1511 2.33752C94.1515 2.35852 94.1519 2.37952 94.1523 2.40052ZM8.81589 2.44258C8.45217 2.4386 8.08749 2.43435 7.72183 2.42983C8.08639 2.46228 8.45001 2.49446 8.8127 2.52639C8.81408 2.49834 8.81545 2.4703 8.81682 2.44226C8.81651 2.44237 8.8162 2.44247 8.81589 2.44258ZM101.454 1.75706C99.8166 1.74396 101.894 1.53137 102.334 1.6529C102.334 1.65275 102.335 1.6526 102.335 1.65246C102.374 1.66324 102.297 1.72922 102.361 1.75083C102.193 1.7317 102.025 1.71255 101.857 1.69337C101.707 1.73609 101.558 1.77879 101.408 1.82147C101.357 1.81043 101.306 1.79939 101.256 1.78834C101.322 1.77792 101.388 1.76749 101.454 1.75706ZM108.034 1.34962C109.516 1.28003 108.008 1.51754 107.27 1.43524C107.274 1.40674 107.898 1.35603 108.034 1.34962ZM104.16 1.5923C103.927 1.61877 103.695 1.64519 103.463 1.67158C103.433 1.65549 103.402 1.63939 103.371 1.62329C103.549 1.59625 103.727 1.56919 103.905 1.54211C103.99 1.55884 104.075 1.57558 104.16 1.5923ZM96.4812 1.71664C96.1057 1.71589 95.6373 1.93641 96.838 1.82454C96.8363 1.80347 96.8346 1.78241 96.833 1.76135C96.7851 1.76713 96.6454 1.79397 96.6376 1.79278C96.6153 1.7886 96.6377 1.71688 96.4812 1.71664ZM110.743 0.643835C110.785 0.633484 110.795 0.409837 111.246 0.615716C111.377 0.594385 111.509 0.573043 111.64 0.551695C111.677 0.598796 111.714 0.645896 111.751 0.692996C111.236 0.683394 111.188 0.785491 111.151 0.789657C110.981 0.808337 111.104 0.750389 110.994 0.755753C110.711 0.769738 110.07 0.839393 110.353 0.67779C110.455 0.619881 110.701 0.654177 110.743 0.643835ZM109.737 0.572339C109.8 0.587503 109.604 0.663522 109.652 0.679342C109.694 0.693147 110.313 0.72566 110.152 0.84474C110.051 0.845673 109.95 0.846602 109.848 0.847524C109.813 0.819302 109.777 0.791078 109.741 0.762854C109.645 0.795998 109.548 0.829222 109.451 0.862425C109.28 0.797268 108.922 0.720413 109.338 0.636816C109.184 0.651626 109.03 0.666422 108.876 0.681207C108.798 0.721172 108.721 0.761133 108.643 0.801091C108.682 0.744563 108.72 0.688035 108.759 0.631506C109.085 0.611844 109.413 0.592009 109.737 0.572339ZM114.501 0.329344C114.484 0.358417 114.467 0.38749 114.45 0.416563C115.01 0.333069 115.89 0.264058 115.4 0.467745C114.634 0.525139 113.874 0.582134 113.111 0.639213C113.059 0.620964 113.007 0.602713 112.955 0.584462C113.533 0.633789 113.334 0.298114 113.835 0.369732C113.919 0.3819 113.684 0.516278 114.204 0.4097C114.184 0.382586 114.164 0.355472 114.143 0.328358C114.262 0.328692 114.382 0.329022 114.501 0.329344ZM119.358 0.100045C118.387 0.113722 119.448 -0.0482527 119.632 0.026749C119.632 0.026767 119.631 0.0267829 119.631 0.0268008C120.135 0.232046 119.073 0.178671 119.01 0.183721C118.924 0.190557 118.735 0.368306 118.258 0.151352C118.624 0.134292 118.99 0.117186 119.358 0.100045ZM116.2 0.23488C116.281 0.224838 116.239 0.26967 116.274 0.267075C116.274 0.267058 116.274 0.267042 116.275 0.267024C116.798 0.228686 118.018 0.122441 118.16 0.251445C117.78 0.284163 116.068 0.4095 115.957 0.322565C116.038 0.29334 116.119 0.26411 116.2 0.23488ZM112.564 0.539387C112.24 0.468672 112.957 0.41709 113.148 0.447532C113.184 0.454422 112.899 0.612639 112.564 0.539387ZM88.1884 1.56087C87.4916 1.6452 88.4126 1.65742 88.0983 1.75477C88.2315 1.74175 88.3649 1.7287 88.4978 1.71566C88.3947 1.66407 88.2916 1.61248 88.1884 1.56087ZM56.3311 2.31799C56.1689 2.30986 56.2462 2.35988 56.2322 2.36078C56.1256 2.36048 56.0247 2.3201 55.9838 2.32489C55.228 2.41601 55.7316 2.45371 55.7394 2.46358C55.7559 2.51371 55.5574 2.57452 55.8337 2.62927C56.0008 2.60978 56.1678 2.59024 56.3347 2.57064C56.418 2.59771 56.501 2.62477 56.5844 2.65181C56.9187 2.58815 56.48 2.57655 56.431 2.49747C56.4118 2.46639 56.7234 2.42559 56.3311 2.31799ZM86.9286 1.44786C86.8192 1.54107 86.5464 1.66448 86.8229 1.74131C86.8232 1.74129 86.8236 1.74128 86.8239 1.74127C86.875 1.7553 87.0807 1.75525 87.1449 1.77526C87.5897 1.63791 87.4119 1.52403 86.9286 1.44786ZM59.3398 2.12204C59.6099 2.13877 59.8797 2.15536 60.1493 2.17183C60.1456 2.22487 60.1418 2.27791 60.138 2.33095C59.9937 2.3189 59.8493 2.30681 59.7048 2.29468C59.6546 2.3196 59.6043 2.34451 59.5541 2.36942C59.7342 2.4272 59.9142 2.48492 60.0941 2.54258C60.3096 2.51815 60.5278 2.49358 60.7444 2.46895C60.6441 2.44262 60.5438 2.41627 60.4435 2.3899C60.974 2.35055 60.8605 2.48121 61.3003 2.52311C61.4497 2.47151 61.599 2.41986 61.7482 2.36818C61.9664 2.4137 62.1844 2.45912 62.4023 2.50447C62.7664 2.47474 62.7976 2.43655 62.5514 2.3849C62.7313 2.31732 62.9315 2.41463 63.149 2.38427C63.1669 2.38182 63.1319 2.32197 63.1478 2.32093C64.2719 2.25828 64.2205 2.41768 64.4003 2.42086C64.5281 2.4229 65.0349 2.3049 65.0421 2.26814C65.0506 2.21859 63.9891 2.04733 65.645 2.00627C64.7868 1.891 63.8137 2.04738 64.4485 2.23159C64.175 2.21767 62.9839 2.29026 62.9079 2.28558C62.7969 2.27874 62.8344 2.20322 62.6955 2.20385C62.6134 2.20429 62.3994 2.37948 61.746 2.2415C61.6634 2.27102 61.5806 2.30053 61.4979 2.33003C61.4195 2.3083 61.3411 2.28656 61.2627 2.2648C61.422 2.17983 61.5811 2.09482 61.7401 2.00976C61.1061 2.11023 60.5747 1.9508 60.1886 2.09834C59.8552 2.08702 59.6931 2.0731 59.8351 1.99863C59.7351 2.00014 59.635 2.00163 59.5349 2.0031C59.4699 2.04276 59.4049 2.0824 59.3398 2.12204ZM84.8816 1.66199C84.5457 1.59387 84.4335 1.77586 84.4857 1.78374C84.7797 1.82669 85.0564 1.69741 84.8816 1.66199ZM56.9361 2.40545C57.3049 2.4469 57.6732 2.4881 58.041 2.52905C58.0403 2.47302 58.0396 2.417 58.0389 2.36098C57.6718 2.37605 57.3043 2.39088 56.9361 2.40545ZM88.285 1.43046C88.3207 1.4709 88.3563 1.51134 88.3918 1.55178C88.7864 1.3806 89.195 1.58237 89.3914 1.52793C89.434 1.51605 89.3437 1.44594 89.2608 1.43379C89.2092 1.42626 88.3556 1.4132 88.285 1.43046ZM105.013 0.617665C104.865 0.653878 104.716 0.690077 104.568 0.726259C104.574 0.678643 104.58 0.631026 104.585 0.583411C104.659 0.57067 104.733 0.557925 104.806 0.545178C104.875 0.569344 104.944 0.593506 105.013 0.617665ZM103.314 0.783634C103.047 0.794014 102.78 0.804344 102.514 0.814621C103.527 0.717616 102.693 0.740644 103.307 0.646503C103.309 0.692213 103.311 0.737924 103.314 0.783634ZM100.605 0.830365C100.636 0.800498 100.668 0.770631 100.699 0.740762C100.966 0.726856 101.234 0.712892 101.501 0.698875C101.327 0.609977 101.153 0.521055 100.979 0.43211C100.881 0.436977 100.783 0.441835 100.685 0.446687C100.658 0.57458 100.632 0.702473 100.605 0.830365ZM49.1186 2.15027C48.9584 2.14884 48.3995 2.23471 48.4234 2.26616C48.6558 2.30478 48.8879 2.3433 49.1198 2.38171C49.1208 2.32556 49.1218 2.26941 49.1228 2.21325C49.1556 2.24117 49.1884 2.26908 49.2212 2.29699C49.3542 2.27581 49.4878 2.2546 49.6209 2.23335C49.6882 2.2823 49.7554 2.33123 49.8227 2.38016C49.89 2.32398 49.9573 2.2678 50.0245 2.21161C49.3816 2.11373 49.4034 2.21277 49.2695 2.21196C49.2015 2.21158 49.1595 2.17687 49.1355 2.15941C49.1299 2.15636 49.1243 2.15332 49.1186 2.15027ZM57.1863 2.04512C56.4164 2.04012 55.9879 2.19226 55.4336 2.07395C55.7866 2.33477 58.0806 2.03712 58.8893 2.24452C58.9725 2.20113 59.0556 2.15772 59.1387 2.1143C58.7002 2.15813 58.3943 2.07516 58.1796 2.06545C58.0091 2.05772 58.0274 2.10173 58.0144 2.10127C58.0137 2.10127 58.0131 2.10128 58.0125 2.10129C57.6131 2.08818 57.4888 2.04705 57.1863 2.04512ZM88.8434 1.19864C88.6351 1.14126 88.2764 1.16399 88.2765 1.26149C88.4779 1.28072 88.6789 1.29991 88.8802 1.31905C88.838 1.29599 88.879 1.20846 88.8434 1.19864ZM100.281 0.574776C100.119 0.551445 99.7416 0.598752 99.9091 0.674322C99.9392 0.687722 100.313 0.609134 100.1 0.772253C100.467 0.750859 100.373 0.588239 100.281 0.574776ZM70.2547 1.986C70.3893 1.97948 70.5239 1.97293 70.6584 1.96636C70.6887 1.92619 70.7189 1.88602 70.7492 1.84585C70.5844 1.89261 70.4196 1.93933 70.2547 1.986ZM90.5741 1.05203C90.7625 1.23587 91.0604 1.03462 91.4048 1.1768C91.5294 1.17218 91.654 1.16754 91.7786 1.16288C91.7789 1.16287 91.7792 1.16285 91.7795 1.16284C91.7804 1.11025 91.7813 1.05766 91.7822 1.00507C91.3793 1.0209 90.9766 1.03656 90.5741 1.05203ZM61.8417 2.0816C61.9253 2.10454 62.0088 2.12748 62.0923 2.1504C62.2397 2.11932 62.387 2.0882 62.5343 2.05704C62.454 2.03813 62.3737 2.01921 62.2933 2.00028C62.1429 2.02743 61.9923 2.05453 61.8417 2.0816ZM92.7592 0.932644C92.3235 0.92932 92.168 1.10412 92.7237 1.07805C92.958 1.06685 93.2158 0.935984 92.7592 0.932644ZM40.8146 2.17719C40.9629 2.19292 41.111 2.2086 41.2591 2.22424C41.3099 2.18955 41.3606 2.15485 41.4114 2.12015C41.2127 2.13924 41.0138 2.15826 40.8146 2.17719ZM102.347 0.485685C102.332 0.521717 102.316 0.557748 102.3 0.59378C102.167 0.593745 102.033 0.593697 101.899 0.593635C101.931 0.55701 101.962 0.520385 101.994 0.483758C102.112 0.484411 102.23 0.485054 102.347 0.485685ZM41.8125 2.20786C41.9324 2.21558 42.0522 2.22328 42.1719 2.23094C42.2525 2.21449 42.333 2.19803 42.4136 2.18155C42.3017 2.16373 42.1898 2.14589 42.0779 2.12802C41.9895 2.15465 41.901 2.18126 41.8125 2.20786ZM96.8825 0.746514C96.7131 0.712727 96.0516 0.877653 96.6551 0.881121C97.0398 0.883198 96.908 0.75167 96.8825 0.746514ZM97.7829 0.658913C97.1409 0.610746 97.6395 0.994901 98.3884 0.691563C97.623 0.766889 97.8207 0.661843 97.7829 0.658913ZM103.378 0.156822C103.394 0.156182 103.41 0.214168 103.538 0.209535C103.999 0.192648 104.609 0.183241 104.94 0.169074C105.74 0.13505 108.152 -0.102515 108.449 0.0513933C108.511 0.0838184 108.38 0.197848 108.405 0.202016C108.476 0.213464 108.881 0.139452 108.809 0.222031C108.41 0.243318 108.01 0.264518 107.612 0.285621C107.707 0.224955 107.802 0.164284 107.896 0.103606C106.905 0.187273 107.234 0.165896 106.955 0.301919C106.785 0.264348 106.614 0.226759 106.444 0.189151C106.083 0.255788 105.718 0.322555 105.354 0.389239C105.435 0.349778 105.516 0.310313 105.598 0.270844C105.041 0.235839 105.197 0.270039 104.899 0.371112C104.897 0.336163 104.894 0.301213 104.892 0.266263C104.363 0.38013 104.254 0.280782 104.138 0.285738C103.899 0.296388 103.617 0.726669 102.688 0.362835C102.316 0.581114 102.302 0.177727 102.087 0.394525C101.424 0.20571 102.667 0.221353 103.249 0.197784C103.249 0.197769 103.249 0.197752 103.25 0.197736C103.294 0.196031 103.222 0.162185 103.378 0.156822ZM100.053 0.537083C100.436 0.33499 98.8845 0.397985 99.411 0.634021C99.4878 0.638623 99.5647 0.643219 99.6415 0.64781C99.7788 0.6109 99.9162 0.573976 100.054 0.537035C100.053 0.537051 100.053 0.537067 100.053 0.537083ZM85.4594 1.11051C84.0252 1.2459 84.8469 1.31616 85.3294 1.19337C85.4257 1.16898 85.4777 1.13893 85.4594 1.11051ZM56.0924 1.91728C56.0717 1.93934 56.051 1.96141 56.0303 1.98347C56.5073 1.95831 57.4472 2.03161 57.4316 1.88436C56.9848 1.89572 56.535 1.90673 56.0924 1.91728ZM59.9036 1.77236C59.8005 1.76507 59.3785 1.7503 59.4302 1.80467C59.6136 1.84106 59.7968 1.87739 59.98 1.91366C60.0648 1.88795 60.1487 1.86224 60.2344 1.83649C60.1145 1.83006 59.9318 1.77426 59.9036 1.77236Z" fill="var(--stroke-0, #0061FE)"/>
</svg>
