<svg preserveAspectRatio="none" width="100%" height="100%" overflow="visible" style="display: block;" viewBox="0 0 496 487" fill="none" xmlns="http://www.w3.org/2000/svg">
<g id="solid-square 2">
<path id="Vector" d="M446.853 451.759C412.826 451.099 89.8591 444.882 39.1911 444.623C37.4657 444.615 36.2803 443.394 36.2803 441.67V41.8702C36.2803 40.313 37.25 39.1611 38.8005 38.9826C100.968 31.8259 403.846 38.9758 454.017 39.2883C455.741 39.2989 456.97 40.4772 456.962 42.1986C456.737 99.6485 450.478 415.254 449.809 448.908C449.774 450.628 448.577 451.791 446.853 451.759Z" fill="var(--fill-0, #0061FE)"/>
<path id="Vector_2" d="M75.4975 336.085C74.4256 330.094 74.5787 323.962 75.2869 317.775C75.7675 323.788 75.6849 329.917 75.4975 336.085ZM75.4975 336.085C75.5152 336.184 75.5333 336.286 75.5518 336.386C75.5518 336.386 75.5073 336.296 75.5073 336.25C75.5026 336.25 75.4975 336.25 75.4928 336.25C75.4944 336.195 75.4955 336.14 75.4975 336.085ZM75.5073 336.341C75.4924 336.388 75.479 336.439 75.4644 336.487C75.464 336.408 75.464 336.329 75.4636 336.25C75.4782 336.281 75.4928 336.311 75.5073 336.341ZM134.914 0.467486C139.446 3.09471 149.242 1.63669 156.785 1.58808C169.443 1.4743 182.008 1.3734 194.645 1.49248C207.691 1.61366 220.981 1.46001 234.099 1.13748C236.414 1.07177 238.11 0.929653 236.227 1.86697C236.207 1.87243 236.187 1.87808 236.167 1.88354C236.172 1.88579 236.178 1.8879 236.183 1.89018C236.164 1.89935 236.148 1.90916 236.128 1.91856C236.128 1.91032 236.129 1.90205 236.129 1.89378C236.099 1.9018 236.069 1.90976 236.039 1.91776C236.039 1.90931 236.039 1.90086 236.039 1.89238C233.547 4.47691 226.772 2.61551 222.48 2.81414C212.907 3.25165 202.324 2.15838 193.275 3.02622C183.66 3.94946 173.177 2.37859 162.366 4.84079C197.042 5.21747 229.571 5.8565 262.175 5.46945C262.275 4.61999 259.237 5.27508 258.523 4.34354C293.215 5.76475 327.659 8.72112 362.227 7.05169C350.27 5.74343 337.84 7.27885 325.625 5.83615C331.235 5.55287 336.954 4.96549 342.598 5.06795C359.752 5.39318 376.953 5.23821 394.02 6.15471C400.012 6.47495 404.972 5.09132 410.928 5.63012C412.691 5.79138 415.47 5.54423 416.403 5.88222C424.532 9.05051 435.011 7.522 444.494 7.9389C446.25 8.01363 447.718 8.0707 449.372 8.11704C451.202 8.16523 452.824 8.1974 454.214 8.21531C461.201 8.18043 470.708 10.782 477.919 17.8997C485.257 24.897 488.272 35.0595 488.103 42.3196C488.079 53.8293 488.268 65.4831 488.071 77.1342C487.729 97.384 487.705 117.924 487.072 138.191C486.694 150.029 485.863 162.527 485.883 173.934C485.918 186.964 485.536 200.07 485.229 212.904C484.796 230.406 485.784 248.39 483.013 265.35C484.536 278.38 483.033 291.919 482.856 305.072C482.427 336.28 480.935 367.131 480.12 398.271C479.675 415.309 479.214 432.758 478.742 449.481C478.703 455.957 476.065 465.065 469.094 471.702C462.228 478.454 452.84 480.83 446.293 480.586C427.123 480.048 407.373 479.467 387.85 478.819C362.82 477.99 337.152 477.491 312.019 476.804C311.033 476.784 310.047 476.576 308.878 476.435C310.476 475.441 313.685 476.482 315.347 475.752C312.371 475.284 308.283 474.813 306.593 475.543C303.828 476.753 300.308 476.349 297.292 476.266C283.57 475.834 269.728 475.445 256.006 474.946C234.337 474.153 212.518 474.051 190.802 473.517C172.048 473.065 153.482 472.346 134.745 471.911C114.751 471.455 94.5931 471.211 74.4701 471.149C100.322 471.852 125.924 472.61 151.626 473.387C151.578 473.623 151.53 473.87 151.436 474.102C121.413 474.086 91.1215 471.765 61.4741 473.34C61.4709 473.595 61.4674 473.847 61.4638 474.102C74.4496 474.483 87.646 474.864 100.546 475.335C104.678 475.473 108.691 475.135 112.472 475.913C110.584 477.236 106.834 476.305 104.067 476.682C104.909 477.193 107.5 476.443 108.035 477.26C107.724 477.342 107.411 477.499 107.058 477.491C95.1131 477.637 83.761 477.574 71.905 476.682C69.3924 476.486 67.1202 476.686 65.0099 477.114C59.2023 478.379 48.6521 478.175 44.1094 476.537C41.366 475.708 42.447 474.499 44.4794 473.756C47.0602 472.563 47.1043 471.565 44.1641 470.512C42.1592 469.88 42.0939 469.381 43.7846 468.69C47.9494 466.797 47.8553 466.648 39.1646 466.267C48.1226 465.187 45.5202 463.781 43.6515 461.385C40.9802 457.992 34.4417 454.088 44.1971 450.467C45.5269 450.011 46.4697 447.922 45.0628 446.103C43.2898 444.124 41.2046 441.273 45.336 438.995C45.8702 438.661 47.3318 438.312 48.3895 438.323C58.8768 438.516 57.2455 435.892 56.1417 434.188C53.3066 429.738 55.8713 425.677 59.631 421.49C61.6225 419.244 61.6256 416.734 63.4522 414.429C65.4574 411.86 73.5253 411.927 79.4872 411.739C90.7928 411.381 102.757 412.041 114.029 412.933C119.308 413.325 124.738 413.388 130 413.184C139.089 412.807 147.328 414.503 156.104 414.421C159.437 414.39 162.129 414.189 164.703 413.616C168.459 415.823 174.468 414.358 179.397 414.712C184.368 415.061 189.594 415.391 194.351 414.346C197.725 413.6 199.108 415.191 202.203 415.261C218.98 415.635 235.833 416.573 252.47 416.451C261.243 416.393 269.775 416.679 278.035 417.198C306.282 418.953 335.061 418.494 363.285 419.57C375.76 420.041 388.991 421.172 401.602 419.959C406.956 419.491 412.231 420.073 417.864 420.418C426.737 420.968 435.098 421.451 444.486 421.047C445.636 421.003 446.624 420.98 447.447 420.976C442.058 420.748 433.689 422.763 427.5 428.85C421.214 434.832 418.97 442.962 418.982 448.295C419.261 442.235 419.946 436.069 419.805 429.671C419.533 417.991 420.139 405.879 420.556 394.332C420.757 388.643 421.021 383.257 419.498 378.42C418.482 375.459 420.69 376.124 420.549 372.768C420.281 366.175 420.289 359.673 420.285 352.984C420.265 339.561 421.052 326.144 422.143 312.896C422.678 306.39 422.694 299.344 422.493 292.752C422.359 288.203 423.611 283.492 422.395 279.368C423.403 277.271 424.587 273.635 423.784 270.992C422.497 266.792 423.147 262.757 423.123 258.335C423.08 249.622 422.564 241.076 423.765 232.435C424.036 230.456 422.895 230.255 423.013 227.825C423.214 223.283 423.261 218.245 423.174 214.175C422.934 203.785 425.02 193.126 423.143 182.958C422.501 179.502 423.387 175.152 423.399 171.146C423.442 161.11 422.97 150.881 424.265 141.247C425.698 130.572 424.993 119.758 424.863 109.526C424.796 103.493 425.52 96.5086 424.032 91.0361C425.69 88.1926 424.312 81.0086 426.162 77.8592C427.319 75.9799 426.607 71.2297 426.178 69.0308C424.615 61.4002 424.78 55.3944 425.036 47.0824C425.091 45.2483 425.178 43.5685 425.261 42.0745C425.139 47.873 427.654 56.5624 433.98 62.5686C440.192 68.6844 448.277 70.7847 453.82 70.7137C448.336 70.4784 442.073 70.4313 436.621 71.6672C435.712 71.8593 434.523 71.9115 433.134 71.8781C431.917 71.8479 430.52 71.7324 429 71.5867C425.93 71.2953 422.481 70.8841 419.631 70.8012C415.766 70.6944 410.979 70.6595 407.712 69.5052C406.633 69.1203 405.401 69.041 404.279 69.5064C398.98 71.6763 393.147 70.1705 387.77 69.4502C383.169 68.8014 379.018 67.5152 374.934 69.6328C373.648 70.3005 369.859 70.092 367.45 69.7593C360.896 68.8748 361.092 68.8199 354.998 69.5873C354.049 69.7039 352.826 69.6694 351.781 69.594C340.531 68.858 329.311 69.7263 317.664 68.2959C309.497 67.2819 298.235 66.8915 290.778 67.9232C281.811 69.1403 274.077 67.9751 265.832 68.2319C256.162 68.5457 246.089 68.4982 236.422 68.0575C215.128 67.0993 193.782 68.2213 172.615 67.1864C170.553 67.08 167.911 66.8279 166.522 67.8384C165.702 68.4534 163.079 68.3933 162.27 68.2029C152.429 65.8115 141.654 67.6711 131.44 67.708C103.908 67.8384 75.1408 68.6149 49.4347 70.4321C47.1999 70.6045 44.3105 70.8873 42.5178 71.1284C48.1541 70.6092 56.2346 67.3781 61.5938 60.9953C67.0568 54.702 68.8125 47.1162 68.7669 41.8695C68.9322 53.5261 69.2196 65.7812 69.1436 77.7127C69.0259 95.0821 69.5113 112.593 69.614 130.026C69.6876 142.453 69.5845 154.738 70.4958 167.104C70.8335 171.606 72.2448 177.633 69.8199 181.374C69.7758 181.482 71.2016 194.033 71.2162 194.338C71.3043 195.604 71.4516 196.872 71.4075 198.097C70.9516 216.455 72.2007 234.537 72.6416 252.698C73.2738 278.501 73.406 304.271 74.0969 330.109C74.3169 338.05 73.4796 346.133 74.1847 354.729C75.2767 348.707 73.9182 341.443 75.4644 336.487C75.4959 348.873 75.7073 361.543 74.7874 373.467C73.9497 384.248 74.9491 397.329 71.8334 406.154C71.3779 407.501 71.8035 409.41 71.9503 410.808C72.4062 415.387 71.4212 417.402 70.4072 416.561C68.1736 414.641 68.0996 418.058 68.2173 423.108C68.2614 424.829 68.4527 427.205 67.6591 427.931C67.0419 428.536 66.8061 426.529 66.6297 425.076C66.3211 422.303 66.1451 417.622 64.7343 419.389C63.7348 420.701 62.544 423.344 63.338 428.261C63.3668 428.497 63.1613 429.102 63.0294 429.695C61.8536 428.528 62.015 425.221 61.8681 422.441C60.1042 426.282 58.3993 429.149 56.1358 425.418C55.6658 424.64 55.1662 425.312 55.1367 422.841C55.078 417.614 54.534 417.551 53.035 419.943C51.1537 422.955 49.0957 427.751 46.759 422.307C46.5972 421.903 46.2 421.856 46.0091 422.217C44.0983 425.626 42.4966 425.932 40.3067 422.217C38.9104 419.825 37.3968 426.062 36.6031 430.739C35.7932 435.079 34.4902 439.364 32.9484 441.669C32.1381 443.967 33.0377 447.125 34.682 448.935C36.2836 450.805 37.8869 451.704 38.616 452.56C39.3546 453.385 39.4237 454.218 38.1621 454.936C36.9653 455.537 33.9059 456.393 29.2995 453.746C25.208 451.449 22.2004 445.927 21.7224 441.669C19.7626 439.207 17.6837 437.2 15.4068 441.669C15.306 443.056 15.3162 444.642 15.565 446.433C15.2209 444.768 15.0714 443.17 15.0569 441.669C11.666 388.933 8.80424 336.445 7.56026 283.517C6.32573 230.724 6.84027 177.605 5.81143 124.868C5.10601 132.494 5.89976 140.549 5.20898 148.188C5.15013 148.822 4.88532 149.274 4.34161 151.051C4.34161 138.968 4.34161 127.032 4.34161 114.904C4.34161 113.794 4.32705 112.521 4.88556 113.401C6.51661 115.901 5.54697 111.636 5.39994 111.344C3.88617 108.93 4.13562 105.007 4.50301 101.493C4.97331 96.8129 4.40035 92.2485 4.32681 87.8898C4.06645 72.5038 3.87016 57.0698 3.69054 41.8703C3.62058 35.1991 5.79178 26.1373 12.2 18.7287C18.4923 11.2209 27.9854 7.32425 35.0589 6.63385C37.2765 6.3554 39.5997 6.10746 42.0636 5.87786C44.3219 5.66633 46.3351 5.49667 48.6218 5.32296C57.3045 4.66955 65.9074 4.69465 74.4693 3.76168C79.4147 3.22981 75.3892 1.73533 79.6415 1.48171C84.5834 1.20336 81.5881 3.47979 86.4268 3.25988C91.4734 3.03921 96.7621 3.36303 102.203 2.95489C101.004 2.47522 100.083 2.10875 98.2647 1.3776C111.929 2.96344 122.856 1.63679 134.914 0.467486ZM350.496 67.1978C341.611 66.1186 332.614 66.8153 323.771 66.5376C332.558 67.5627 341.64 67.0722 350.496 67.1978ZM287.913 65.76C296.994 67.1385 306.492 66.5946 315.746 66.5376C306.59 66.0389 297.137 66.5098 287.913 65.76ZM376.481 67.4582C391.76 67.7104 407.062 67.9727 422.281 68.219C422.241 68.0277 422.202 67.8364 422.159 67.6452C406.979 67.3997 391.727 67.1385 376.491 66.8868C376.488 67.0773 376.485 67.2677 376.481 67.4582ZM452.828 67.933C445.085 67.8698 437.676 68.0179 430.13 68.0061C437.72 68.3415 445.199 68.8682 452.828 67.933ZM36.5736 330.745C34.1633 352.205 35.8388 370.776 37.4114 388.856C39.4395 370.097 38.0286 351.387 36.5736 330.745ZM224.423 467.771C231.823 468.667 237.317 469.279 243.221 467.437C236.723 467.202 231.269 466.793 224.423 467.771ZM322.015 469.833C333.885 471.816 344.232 471.467 354.673 470.43C343.956 469.731 333.658 469.625 322.015 469.833ZM253.909 473.395C255.4 473.466 256.935 473.556 257.484 473.156C257.941 472.826 257.499 472.335 257.236 471.918C257.015 471.651 256.025 471.455 255.343 471.691C250.153 473.548 244.593 471.365 239.259 471.706C242.026 471.023 245.62 472.013 249.475 471.117C237.621 470.371 227.798 472.743 217.052 471.306C217.037 471.298 217.022 471.294 217.007 471.29C220.4 472.92 223.982 472.119 227.37 472.268C236.229 472.665 245.048 472.983 253.909 473.395ZM180.64 470.552C188.884 471.341 196.123 471.266 203.136 471.07C196.123 471.251 189.057 469.22 180.64 470.552ZM479.636 250.226C479.742 250.092 479.923 248.16 479.494 247.566C479.033 246.927 478.655 247.596 478.368 248.807C477.364 253.018 477.608 258.086 476.884 264.606C476.888 264.606 476.896 264.606 476.9 264.606C477.589 263.178 477.856 262.911 477.939 262.372C478.573 258.415 477.478 252.434 479.636 250.226ZM296.247 473.882C288.834 473.588 281.313 472.574 273.833 473.47C281.271 473.607 288.817 473.745 296.247 473.882ZM307.157 474.365C313.918 474.758 320.77 475.355 327.47 474.511C320.697 474.342 313.767 473.273 307.157 474.365ZM475.683 430.331C475.569 428.352 475.99 426.431 476.388 424.738C476.778 423.238 477.14 421.989 476.908 421.07C475.361 414.566 476.884 408.695 476.888 402.474C475.526 411.625 474.357 420.347 475.683 430.331ZM348.842 475.249C354.563 475.253 357.326 477.684 363.9 477.264C360.781 474.479 354.551 475.284 348.842 475.249ZM478.734 383.343C478.726 383.068 478.703 382.791 478.691 382.561C478.218 375.116 478.722 367.425 479.155 360.19C479.348 357.05 478.707 355.201 477.99 354.96C477.144 354.672 477.305 357.685 477.23 359.344C476.675 369.837 477.136 380.861 476.475 391.445C476.266 394.796 476.742 398.613 476.915 402.003C478.179 402.242 477.514 399.355 477.746 397.777C478.356 393.747 477.407 391.058 477.234 387.88C476.998 383.485 477.459 382.437 478.734 383.343ZM482.167 273.756C483.289 272.781 482.458 272.221 482.092 272.26C481.667 272.288 481.698 269.691 481.057 271.069C481.068 272.05 481.12 273.149 481.068 274.233C481.037 275.183 481.116 276.451 480.683 276.894C480.683 276.879 480.683 276.864 480.683 276.849C479.498 266.307 482.301 255.546 481.1 245.026C480.167 266.833 479.155 288.588 479.388 310.459C479.399 312.043 479.726 313.583 479.388 315.148C477.545 323.883 478.474 333.56 477.931 342.853C477.758 345.742 478.305 347.046 479.254 348.979C479.029 338.5 479.077 329.068 480.383 319.82C480.588 318.398 480.561 316.653 480.592 315.081C480.769 302.706 480.809 290.437 481.391 278.217C481.486 276.369 481.269 274.509 482.167 273.756ZM9.05952 441.552C7.16354 429.864 1.68122 308.034 2.66596 301.232C4.32677 331.122 4.78231 361.62 7.23676 391.631C8.51545 407.195 10.3819 422.727 9.41191 439.6C9.38251 440.252 9.20651 440.809 9.05952 441.552ZM483.033 224.596C483.253 209.236 483.513 193.991 483.757 178.605C483.828 174.638 484.052 170.596 482.978 167.56C482.978 167.573 482.978 167.587 482.978 167.6C482.261 169.17 482.427 171.575 482.387 173.603C482.033 190.567 481.698 207.455 481.301 224.384C481.261 226.587 480.946 229.287 481.868 229.619C482.962 230 482.997 227.25 483.033 224.596ZM207.256 475.351C192.276 475.449 177.038 475.162 162.089 474.098C177.107 473.815 192.248 474.452 207.256 475.351ZM453.253 11.2592C447.14 10.4916 441.546 11.3772 435.326 10.8459C441.573 12.4187 447.128 11.6351 453.253 11.2592ZM485.068 109.74C483.938 113.233 483.631 116.728 483.997 121.423C484.395 126.727 484.237 131.919 483.647 137.266C483.525 138.405 482.934 139.497 483.655 140.293C484.375 141.079 484.576 139.571 484.607 137.693C484.765 128.341 484.918 118.988 485.068 109.74ZM484.757 143.689C483.501 151.175 482.863 159.068 482.978 167.238C485.54 160.398 483.796 151.319 484.757 143.689ZM482.911 167.371C482.911 167.386 482.911 167.401 482.911 167.416C482.911 167.408 482.915 167.4 482.919 167.393C482.915 167.385 482.911 167.378 482.911 167.371ZM256.731 477.232C256.735 477.008 256.739 476.785 256.743 476.557C278.774 476.4 300.652 477.963 322.694 478.454C300.704 478.041 278.719 477.637 256.731 477.232ZM481.147 400.577C481.222 416.825 480.883 433.583 480.454 449.516C480.419 456.33 477.644 465.933 470.29 472.936C463.047 480.056 453.151 482.558 446.258 482.303C428.244 481.808 409.605 481.211 391.175 480.936C391.176 480.928 391.176 480.924 391.176 480.92C391.227 480.614 391.234 480.292 391.24 479.981C409.644 480.504 428.28 481.034 446.274 481.556C453.017 481.812 462.693 479.365 469.775 472.401C476.963 465.556 479.679 456.169 479.718 449.501C480.191 433.551 480.679 416.793 481.147 400.577ZM333.406 479.42C333.455 479.259 333.459 479.082 333.462 478.905C351.11 479.235 368.989 479.573 386.691 479.911C386.644 480.072 386.552 480.245 386.549 480.421C368.874 480.087 351.028 479.75 333.406 479.42ZM74.0095 6.40194C63.5321 6.85328 53.4464 6.31479 42.4001 8.85673C53.5066 7.95676 63.5518 7.57188 74.0359 7.2232C74.0268 6.94946 74.0182 6.67568 74.0095 6.40194ZM152.914 477.865C150.812 477.7 151.819 479.078 149.931 478.638C140.393 476.435 130.536 478.116 121.04 477.868C115.926 477.727 113.913 477.24 112.572 475.924C123.836 476.093 134.964 475.787 145.961 476.973C148.16 477.217 149.395 476.604 151.257 476.694C154.188 476.843 153.958 477.295 152.914 477.865ZM112.491 475.865C112.491 475.862 112.491 475.858 112.491 475.85C112.5 475.862 112.512 475.869 112.522 475.877C112.517 475.881 112.513 475.885 112.509 475.889C112.503 475.881 112.497 475.873 112.491 475.865ZM112.522 475.877C112.527 475.873 112.531 475.869 112.536 475.865C112.536 475.873 112.536 475.885 112.536 475.893C112.531 475.889 112.526 475.881 112.522 475.877ZM112.472 475.913C112.483 475.905 112.497 475.897 112.509 475.889C112.517 475.901 112.526 475.913 112.535 475.924C112.514 475.92 112.493 475.917 112.472 475.913ZM112.536 475.893C112.547 475.905 112.56 475.913 112.572 475.924C112.56 475.924 112.547 475.924 112.535 475.924C112.535 475.913 112.536 475.905 112.536 475.893ZM369.396 6.56728C367.995 6.50032 365.519 6.47444 365.552 7.14933C365.587 7.82445 367.656 7.68263 369.332 7.6954C378.134 7.79551 387.011 7.97299 396.044 8.12419C387.522 6.42696 378.281 6.97672 369.396 6.56728ZM191.147 479.463C179.046 479.306 166.934 479.785 154.761 478.677C154.058 478.607 153.577 478.163 153.015 477.872C157.008 477.004 161.519 476.879 166.47 477.122C174.051 477.503 181.892 477.7 189.546 477.998C191.079 478.053 193.029 478.045 193.107 478.811C193.145 479.208 192.323 479.483 191.147 479.463ZM5.39994 204.615C4.09184 199.198 3.90098 184.533 5.01798 175.271C5.7675 185.986 4.81203 195.385 5.39994 204.615ZM159.954 4.40163C154.852 3.24523 150.532 3.01696 144.954 3.89966C149.985 5.33529 154.452 4.9169 159.954 4.40163ZM91.0817 3.91994C89.5453 3.90786 88.038 3.98587 87.9136 4.51674C87.744 5.16578 89.9039 5.57235 91.1577 5.31196C97.5443 3.9768 104.441 5.28541 112.574 4.13272C112.559 4.13291 112.544 4.13311 112.529 4.1333C104.094 4.0147 97.7309 3.95865 91.0817 3.91994ZM289.351 481.867C278.746 481.289 268.234 481.521 257.791 481.022C247.806 480.543 237.375 481.395 228.471 478.815C248.435 480.908 269.569 479.404 289.351 481.867ZM483.667 353.374C483.482 353.37 483.293 353.366 483.108 353.363C483.45 335.666 483.789 317.936 484.123 300.174C484.312 300.177 484.497 300.181 484.682 300.184C484.348 317.947 484.009 335.676 483.667 353.374ZM152.829 477.912C152.79 477.923 152.748 477.931 152.709 477.939C152.709 477.939 152.821 477.904 152.889 477.88C152.898 477.876 152.905 477.868 152.914 477.865C152.918 477.865 152.922 477.865 152.925 477.865C152.94 477.861 152.945 477.853 152.936 477.853C152.951 477.853 152.966 477.853 152.981 477.857C152.993 477.861 153.003 477.868 153.015 477.872C152.981 477.88 152.947 477.888 152.914 477.896C152.861 477.916 152.807 477.935 152.754 477.955C152.78 477.939 152.804 477.927 152.829 477.912ZM227.808 480.488C221.481 479.773 214.736 480.971 208.723 479.219C215.361 479.074 221.999 478.564 227.808 480.488ZM437.216 6.0782C438.554 6.0685 439.983 6.19139 439.759 6.80387C439.578 7.38788 438.263 7.39884 436.83 7.31903C432.874 7.09933 429.898 6.89177 426.016 6.66873C426.032 6.66896 426.048 6.6692 426.06 6.66947C426.158 6.4951 426.209 6.33447 426.26 6.15934C430.126 6.13275 433.212 6.078 437.216 6.0782ZM486.489 231.641C487.178 241.408 485.946 250.869 485.851 260.535C485.21 250.811 486.21 241.256 486.489 231.641ZM328.256 482.695C328.291 483.222 327.075 483.654 325.909 483.516C318.736 482.621 311.472 482.805 304.148 482.727C303.331 482.727 302.475 482.361 300.751 481.945C309.435 480.657 317.541 481.922 325.405 481.615C327.071 481.545 328.222 482.094 328.256 482.695ZM369.808 484.608C358.003 484.192 346.581 483.728 334.885 483.449C332.465 483.39 330.994 483.202 330.933 482.585C330.791 481.541 333.592 482.063 335.048 482.118C346.001 482.515 356.748 482.982 367.8 483.438C367.785 483.438 367.77 483.438 367.754 483.438C368.427 483.819 369.097 484.211 369.808 484.608ZM284.532 0.647834C292.839 0.621524 300.789 1.25588 310.477 1.96463C305.422 2.47984 301.97 2.82876 298.54 3.19295C300.305 4.33097 303.972 3.50144 306.591 4.47629C296.52 4.21865 287.404 4.34833 278.086 3.82307C267.117 3.20426 255.777 3.01841 244.764 3.26182C244.734 3.27133 244.704 3.28087 244.673 3.29041C239.801 3.38606 238.272 2.78579 236.183 1.89018C236.199 1.88251 236.212 1.8745 236.227 1.86697C240.337 0.763421 244.425 -0.320754 249.444 1.63706C251.067 2.25483 252.344 1.5498 253.75 1.49133C261.553 1.1633 269.153 0.135589 277.301 1.52572C279.783 1.95204 281.921 0.658705 284.532 0.647834ZM402.716 484.412C391.127 485.739 379.236 485.154 367.895 483.453C379.319 483.265 391.252 483.913 402.716 484.412ZM367.8 483.438C367.831 483.445 367.864 483.449 367.895 483.453C367.863 483.453 367.831 483.453 367.8 483.453C367.8 483.449 367.8 483.445 367.8 483.438ZM485.214 402.332C485.867 404.32 486.969 405.148 486.43 408.671C484.682 419.782 486.009 430.787 485.662 442.223C485.635 443.017 485.588 443.778 485.556 444.607C484.615 443.939 485.615 440.982 484.761 439.482C484.655 441.159 484.537 443.181 484.446 444.674C484.403 445.361 484.355 446.378 484.32 447.266C484.281 448.15 484.253 448.923 484.237 449.591C484.194 457.147 481.135 467.818 472.967 475.646C464.921 483.599 453.883 486.438 446.183 486.191C445.628 486.21 444.99 486.242 444.278 486.277C443.554 486.324 442.554 486.729 442.223 486.678C440.924 486.395 438.853 486.43 436.767 486.375C435.039 486.332 433.59 486.202 433.386 485.598C433.169 485.001 434.456 484.82 435.925 484.796C437.436 484.773 439.676 484.922 440.648 484.961C440.664 484.961 440.68 484.961 440.692 484.961C442.16 485.024 444.841 485.103 446.203 485.154C453.662 485.437 464.413 482.731 472.286 474.998C480.277 467.39 483.296 456.959 483.34 449.571C483.824 434.357 484.218 418.172 485.214 402.332ZM2.38691 291.719C1.99007 280.814 0.329182 270.452 1.01998 259.184C1.10802 257.788 0.799595 255.492 1.53436 255.221C2.21032 254.951 2.3721 256.933 2.37215 258.554C2.37708 258.554 2.382 258.554 2.38693 258.554C2.38692 269.607 2.38691 280.664 2.38691 291.719ZM0.623291 202.817C1.60779 195.348 -0.59672 188.446 0.182232 181.056C0.177305 181.041 0.172376 181.025 0.167449 181.011C0.490737 177.968 0.505629 174.498 1.63728 171.771C2.50444 182.488 1.63742 192.162 1.87258 201.787C1.90185 202.997 1.59315 204.478 1.04957 204.344C0.887899 204.299 0.579198 203.131 0.623291 202.817ZM1.3724 156.945C1.29892 151.706 -1.77264 146.39 1.51962 141.231C2.60725 146.345 1.44589 151.797 1.3724 156.945ZM1.65206 136.084C0.461548 128.157 1.47538 121.815 1.28431 115.703C1.9751 121.676 2.25467 127.755 1.65206 136.084ZM236.082 1.84795C236.097 1.85451 236.114 1.86073 236.129 1.86727C236.129 1.84524 236.129 1.82322 236.129 1.80119C236.115 1.81707 236.096 1.83238 236.082 1.84795ZM0.711366 231.434C0.931712 225.504 0.0204372 219.33 1.29907 211.826C2.60716 219.42 1.22572 225.641 1.63725 231.706C1.6513 231.932 1.3576 232.695 1.2695 232.605C1.06371 232.425 0.726152 231.794 0.726152 231.48C0.721219 231.465 0.716295 231.45 0.711366 231.434ZM362.369 1.09958C368.116 0.943588 370.82 2.54247 375.705 1.84579C375.72 1.8411 375.735 1.83645 375.75 1.83176C375.7 2.1536 375.605 2.47485 375.555 2.79669C374.314 2.83486 373.107 2.93217 371.848 2.92618C353.715 2.86279 335.558 2.79595 317.387 2.79684C315.241 2.79508 313.261 2.70815 312.956 1.99987C312.476 0.922541 315.087 1.06264 317.277 1.07972C327.361 1.15233 337.409 0.938262 347.224 1.38583C352.573 1.6312 357.773 1.23047 362.369 1.09958ZM486.623 385.226C486.843 391.111 487.261 396.1 486.871 401.131C485.099 399.198 484.796 391.352 486.623 385.226ZM488.276 339.095C489.115 342.905 488.371 346.446 487.985 349.637C487.989 349.622 487.989 349.607 487.989 349.592C487.217 356.087 486.816 362.354 487.32 368.974C485.725 359.421 486.749 349.129 486.776 339.067C486.796 337.362 486.977 335.668 487.698 335.685C488.504 335.731 488.075 338.169 488.276 339.095ZM489.186 271.894C489.835 274.757 491.441 274.654 490.485 277.799C489.154 282.164 489.571 286.447 489.894 290.44C490.359 296.125 488.693 300.261 489 305.872C489.374 313.162 487.839 320.465 488.634 328.043C488.812 329.628 488.627 331.553 487.894 331.404C487.162 331.256 487.261 329.283 487.292 327.655C487.497 319.127 487.45 310.789 488.02 302.489C488.024 302.474 488.032 302.459 488.036 302.444C488.69 292.796 488.359 283.054 489.186 271.894ZM435.763 0.762569C437.365 0.346766 437.928 0.793934 438.2 0.944727C439.495 1.61601 440.948 1.98871 442.609 2.12304C444.451 2.25984 446.285 2.1549 447.907 1.86569C451.056 1.32935 451.198 2.32534 451.458 2.62159C452.352 3.40724 449.391 3.3351 448.549 3.32476C437.18 3.33878 425.095 3.63358 413.479 2.945C406.2 2.5019 399.41 3.28226 392.232 2.88356C392.216 2.87837 392.201 2.87319 392.185 2.86803C386.627 2.55504 380.011 3.33939 376.332 1.37236C377.365 0.216132 381.998 3.10859 380.78 0.477918C380.561 -0.0243634 383.308 -0.00820525 384.923 0.00403801C395.02 0.0401946 405.354 0.390661 415.211 1.41842C421.934 2.08668 429.74 2.43294 435.763 0.762569ZM490.485 229.55C492.087 235.847 490.851 242.368 490.351 247.135C489.654 253.876 490.831 259.189 490.5 265.265C490.429 266.66 490.918 268.827 490.189 269.173C489.493 269.519 489.193 267.402 489.233 265.286C489.229 265.271 489.225 265.256 489.221 265.241C489.449 253.686 488.902 242.026 490.485 229.55ZM494.169 76.0856C494 76.7332 495.413 77.7135 494.205 78.8077C493.803 79.1604 493.386 78.6514 493.291 76.8562C492.717 65.3818 492.768 53.812 493.134 42.3392C493.705 32.0458 487.194 16.2784 474.971 9.10962C470.204 6.35728 465.732 3.247 454.67 2.19361C462.976 2.21633 474.215 5.49726 482.545 13.9401C491.024 22.2456 494.394 33.989 494.224 42.3436C494.405 51.3342 494.89 59.1038 494.543 67.7779C494.437 70.3897 494.838 73.3871 494.169 76.0856ZM494.87 95.7388C495.22 100.651 493.559 100.775 493.272 104.045C491.933 97.5277 491.969 91.2439 494.901 86.8287C494.067 90.383 494.673 93.0674 494.87 95.7388ZM494.362 157.488C494.484 159.531 495.291 163.452 493.13 162.937C492.602 162.792 492.598 164.007 492.843 165.006C492.98 165.551 493.224 165.873 493.425 166.329C491.854 172.926 492.846 179.912 492.429 186.817C492.366 188.014 492.319 189.78 491.666 189.416C491.272 189.179 491.181 188.352 491.205 187.022C491.492 167.618 491.756 148.182 492.02 128.749C492.032 128.749 492.039 128.749 492.051 128.749C492.059 128.127 492.26 127.507 492.472 126.276C493.39 129.593 493.874 133.875 493.386 136.743C492.307 143.178 493.516 149.045 492.807 155.226C492.654 156.55 492.197 159.145 493.311 159.351C494.035 159.489 494.275 158.416 494.362 157.488ZM494.417 156.472C494.409 156.713 494.401 157.087 494.362 157.488C494.334 157.039 494.338 156.679 494.417 156.472Z" fill="var(--fill-0, #0061FE)"/>
</g>
</svg>
