<svg preserveAspectRatio="none" width="100%" height="100%" overflow="visible" style="display: block;" viewBox="0 0 168.073 10.2703" fill="none" xmlns="http://www.w3.org/2000/svg">
<path id="Vector 45" d="M3.91555 1.89353C7.44485 1.52757 9.78885 2.32696 13.0294 2.61819C20.1586 3.26415 29.601 3.44385 36.9167 3.63426C42.4538 3.78529 48.082 3.90905 53.5938 3.96825C53.8762 3.97122 54.0444 4.03893 54.1724 4.04026C55.3753 4.05319 57.4017 3.99476 58.5989 4.00146C61.1113 4.01905 65.4973 3.97839 67.8022 4.01205C68.7839 4.02736 69.7883 4.0247 70.171 4.1789C70.5288 4.18195 70.7217 4.03479 70.8149 4.02556C70.816 4.02569 70.8171 4.02582 70.8181 4.02594C71.1184 3.99722 71.8783 4.08649 72.0454 4.07742C72.0706 4.07602 71.9143 3.97409 72.3215 3.999C72.3578 4.00111 72.3255 4.07274 72.6691 4.068C72.7587 4.0669 73.9049 3.93799 74.2323 3.9251C75.3242 3.88414 77.9195 3.9158 79.2287 3.8827C79.4282 3.878 79.5421 3.83373 79.7526 3.82794C79.8614 3.82491 80.0255 3.86605 80.0589 3.86499C80.2056 3.85988 80.8406 3.63919 80.6209 4.04904C81.2886 4.0067 81.0882 3.87795 81.1012 3.79082C81.8258 3.75988 82.1797 3.94083 82.3635 3.73412C85.9375 3.66351 89.5085 3.57438 93.0727 3.46867C93.0726 3.43575 93.0724 3.40284 93.0723 3.36993C94.1287 3.46272 94.4842 3.22665 95.0921 3.39446C95.4612 3.3383 95.8301 3.28197 96.1986 3.22547C105.713 2.98216 115.21 2.33854 124.611 1.77743C125.009 1.75363 125.112 1.8176 125.768 1.77856C126.492 1.73537 127.503 1.5922 128.453 1.53437C129.284 1.48377 130.53 1.47213 131.461 1.4234C131.672 1.41227 131.821 1.35835 131.845 1.35709C131.984 1.34996 131.996 1.41956 132.131 1.41295C132.292 1.40487 132.484 1.34053 132.671 1.3318C133.368 1.29878 134.123 1.23197 134.214 1.22731C134.641 1.20629 134.739 1.26864 134.775 1.26713C135.249 1.24462 135.068 1.19436 135.186 1.19025C135.8 1.16923 136.243 1.29523 137.07 1.09189C137.051 1.15066 137.032 1.20943 137.013 1.2682C137.655 1.25812 137.222 1.1339 137.351 1.09769C137.404 1.08403 138.781 1.01114 138.887 1.00669C139.259 0.991713 139.274 1.0671 139.306 1.06598C139.385 1.06323 140.314 0.914123 140.796 0.948189C141.367 0.988644 140.712 1.18847 140.854 1.20804C140.878 1.21137 141.47 1.1554 141.552 1.19845C141.644 1.24464 141.131 1.27825 141.141 1.29957C141.147 1.31422 142.005 1.364 141.847 1.44738C141.721 1.52887 140.561 1.51398 140.318 1.56452C140.278 1.5729 140.36 1.6573 140.325 1.66299C140.18 1.68521 137.524 1.86527 137.403 1.85813C137.538 1.80821 137.673 1.75827 137.809 1.70833C137.625 1.71639 137.441 1.72443 137.257 1.73246C137.516 1.6825 137.775 1.63251 138.034 1.58249C137.624 1.27253 136.477 1.69014 136.439 1.86088C136.423 1.93977 137.152 2.09207 136.494 2.25205C136.596 2.26528 136.699 2.27851 136.801 2.29173C137.008 2.2453 137.214 2.19884 137.421 2.15236C137.28 2.14095 137.14 2.12952 137 2.11808C137.05 2.0914 137.099 2.06472 137.149 2.03804C137.536 1.97492 137.923 1.91172 138.31 1.84845C138.511 1.85235 138.474 1.92392 138.612 1.92806C140.344 1.9806 139.208 1.84247 140.338 1.79743C140.501 1.82353 140.665 1.84961 140.828 1.87568C140.761 1.72672 141.267 1.78896 141.865 1.68207C141.796 1.73641 141.728 1.79075 141.659 1.84509C142.532 1.75959 144.314 1.88764 143.819 1.64752C144.02 1.65708 144.223 1.66652 144.426 1.676C144.592 1.6197 144.759 1.5634 144.925 1.50709C145.16 1.49603 145.394 1.48495 145.628 1.47386C145.631 1.49794 145.634 1.52201 145.636 1.54609C145.45 1.55916 145.263 1.57222 145.077 1.58526C145.222 1.64917 145.367 1.71307 145.512 1.77697C145.649 1.75521 145.786 1.73345 145.923 1.71169C145.34 1.68212 146.094 1.51566 146.271 1.40569C146.755 1.33598 147.074 1.44044 147.237 1.43476C147.314 1.43214 148.199 1.14661 147.863 1.41583C148.325 1.35369 148.785 1.29157 149.25 1.22898C149.434 1.23491 149.617 1.24082 149.8 1.24673C149.413 1.38849 150.568 1.44491 149.728 1.55166C149.101 1.63148 148.936 1.53599 148.639 1.55764C148.371 1.57697 148.234 1.65863 147.942 1.68226C145.983 1.83961 144.362 1.9385 142.501 2.03357C142.132 2.05234 141.799 2.11032 141.551 2.12222C141.27 2.13553 141.615 2.02179 141.26 2.06786C140.886 2.11639 140.81 2.19527 140.711 2.20344C140.65 2.20843 140.45 2.15557 140.27 2.16768C139.53 2.21761 138.452 2.35364 138.348 2.36013C138.231 2.36743 136.142 2.44558 136.04 2.4411C135.987 2.43867 136.081 2.18754 135.637 2.47775C135.494 2.49198 135.35 2.50619 135.207 2.52039C135.227 2.47013 135.247 2.41987 135.267 2.36961C134.428 2.60983 134.712 2.48755 133.893 2.55508C131.943 2.71647 129.031 2.85871 126.893 3.00591C126.414 3.03904 126.235 3.10852 125.667 3.14698C125.14 3.18262 123.749 3.0905 124.065 3.31391C122.883 3.17418 122.716 3.54534 122.116 3.35481C122.047 3.39164 121.978 3.42847 121.909 3.46529C121.264 3.36192 121.074 3.49659 120.378 3.55344C120.078 3.57796 120.416 3.40901 119.819 3.60968C119.703 3.60389 119.586 3.59809 119.469 3.59227C119.494 3.55463 119.519 3.517 119.544 3.47935C118.871 3.54705 118.829 3.53038 118.913 3.6613C118.588 3.65488 118.263 3.64837 117.938 3.64177C117.9 3.68837 117.862 3.73497 117.824 3.78157C117.978 3.86188 125.342 3.30827 126.369 3.20084C127.579 3.22862 129.984 2.95339 130.961 2.91528C131.351 2.90028 131.529 2.98971 132.096 2.96577C132.662 2.94183 133.367 2.80511 133.667 2.78249C134.671 2.70757 139.429 2.41367 136.203 2.75152C136.299 2.7943 136.396 2.83707 136.492 2.87984C137.766 2.62838 137.307 2.76176 138.373 2.70832C138.819 2.68608 139.883 2.5051 139.838 2.7311C139.002 2.82877 138.118 2.81635 137.394 2.86749C137.322 2.8726 136.471 3.03058 136.027 3.03197C135.626 3.03293 135.887 2.80337 135.034 3.09766C134.373 2.9075 134.013 3.14223 133.846 3.17551C133.555 3.23324 133.516 3.12072 133.222 3.12621C132.901 3.13199 132.686 3.22212 132.642 3.22541C132.205 3.25547 129.917 3.4103 129.808 3.37041C129.899 3.34432 129.99 3.31823 130.081 3.29213C129.483 3.29668 129.615 3.40604 129.459 3.42985C129.343 3.43668 129.225 3.44354 129.109 3.45033C129.154 3.42318 129.199 3.39599 129.243 3.36881C128.543 3.41746 129.085 3.46877 128.091 3.5279C127.46 3.5653 126.801 3.51226 126.74 3.52285C126.722 3.52592 126.925 3.57637 126.668 3.60045C126.242 3.64021 125.503 3.68315 125.416 3.60298C125.207 3.62761 125.23 3.70982 125.202 3.71339C125.079 3.72921 122.995 3.88135 122.623 3.90772C121.589 3.9818 120.433 4.0305 119.307 4.10808C119.191 4.11602 119.262 4.0584 119.146 4.06666C118.961 4.07991 118.015 4.21697 117.873 4.23072C117.519 4.26502 116.582 4.28308 116.436 4.31536C116.416 4.31995 116.727 4.3754 116.369 4.41746C115.97 4.46401 116.18 4.3551 116.158 4.35531C115.343 4.36629 114.832 4.46133 114.276 4.50399C114.094 4.51781 113.76 4.46212 113.508 4.49705C113.479 4.50103 113.54 4.5656 113.512 4.57043C113.131 4.62601 112.766 4.51921 112.6 4.51969C112.193 4.52087 112.419 4.602 112.398 4.60376C112.128 4.62071 111.762 4.60608 111.351 4.63152C109.514 4.74486 108.019 4.82423 106.069 4.91022C105.824 4.92104 105.529 4.86933 105.492 4.87099C105.376 4.87689 105.413 4.95214 105.077 4.96599C104.37 4.99484 103.712 5.02852 103.016 5.05821C102.876 5.06418 102.813 4.99571 102.706 4.99895C102.346 5.01067 101.127 5.25052 101.097 5.01949C100.391 5.25554 99.9081 5.0988 99.332 5.12487C97.9669 5.18673 95.844 5.31302 94.4802 5.33735C94.1935 5.34243 94.0568 5.28803 93.8972 5.29076C93.6078 5.29593 91.9853 5.3878 91.8986 5.38122C91.7306 5.3691 91.8221 5.10417 90.9692 5.36201C90.4649 5.39565 90.5207 5.28616 90.4161 5.28395C89.6007 5.26861 88.8149 5.53406 88.956 5.30964C88.0061 5.4004 87.4012 5.54064 87.0079 5.34731C87.016 5.44735 86.5731 5.52128 86.0351 5.49922C86.5794 5.3142 86.5088 5.20922 87.8362 5.19826C87.8572 5.19809 87.8196 5.27181 87.8405 5.27164C88.0295 5.27056 88.425 5.22129 88.7498 5.21464C89.0743 5.208 88.8958 5.2634 89.0256 5.2582C89.1445 5.25331 89.1382 5.18411 89.3102 5.17744C89.8679 5.15629 90.3602 5.12042 90.677 5.10831C90.8765 5.10075 91.1019 5.15394 91.2567 5.14855C91.8563 5.12732 93.1167 5.03452 93.8818 5.01258C94.0409 5.00821 93.9767 5.07908 94.325 5.0717C94.3656 5.07083 94.5113 4.99402 94.8152 4.96769C95.1192 4.94135 95.3565 4.96766 95.5517 4.95275C95.7147 4.94027 95.6441 4.87963 95.9787 4.86264C96.2592 4.84959 99.4137 4.76729 99.5903 4.76897C99.8383 4.77313 99.9596 4.85706 100.11 4.83982C100.136 4.83637 100.178 4.7486 100.27 4.73854C101.782 4.57361 105.138 4.53977 106.87 4.45515C110.484 4.28101 113.821 4.05765 117.472 3.83616C117.536 3.81764 117.6 3.79911 117.665 3.78058C117.296 3.80041 116.928 3.82013 116.559 3.83973C116.554 3.79947 116.55 3.75921 116.545 3.71896C116.046 3.73979 116.117 3.83166 116.134 3.88854C115.948 3.87412 115.762 3.85967 115.576 3.84519C115.426 3.99458 114.182 3.96737 113.552 4.00061C113.14 4.02229 112.653 4.10148 112.435 4.10857C111.975 4.12374 111.983 4.03621 111.947 4.0367C111.885 4.0379 111.247 4.14748 110.784 4.16797C110.098 4.19837 110.018 4.06883 109.083 4.22869C107.881 4.21877 106.555 4.31748 105.259 4.38913C105.5 4.25438 104.344 4.42505 103.819 4.4468C100.634 4.58009 96.7086 4.68979 93.4659 4.75947C93.0508 4.76858 92.7353 4.70721 92.5043 4.71793C92.379 4.72366 92.3274 4.8113 92.1529 4.80618C92.1222 4.80508 92.0982 4.72576 91.7736 4.72515C90.9665 4.72382 88.9565 4.92513 88.4402 4.78739C85.6873 4.90007 82.9147 5.00281 80.1599 5.09375C80.0897 5.0627 80.0196 5.03164 79.9494 5.00057C79.4298 5.18107 77.3455 5.13034 76.3395 5.15827C74.5645 5.20928 72.2812 5.30107 70.7287 5.32919C70.3902 5.3354 70.1119 5.29187 69.7911 5.29725C69.6531 5.29964 69.4822 5.36352 69.3385 5.36574C67.7223 5.39226 65.5401 5.35148 63.9148 5.36451C60.2185 5.39456 56.7423 5.39008 53.0086 5.37406C40.4107 5.31934 27.8882 5.06383 15.4202 4.35573C15.2533 4.34623 15.2654 4.276 15.1361 4.26849C14.3726 4.22411 12.6608 4.18591 11.795 4.13111C11.1058 4.08822 10.0253 3.91378 9.78149 4.00773C12.2058 4.32314 14.8046 4.45792 17.3392 4.6336C17.5205 4.64612 17.5396 4.71445 17.5619 4.71682C17.9739 4.76109 17.7178 4.65547 18.3168 4.68123C18.5173 4.69044 20.3536 4.9939 20.1438 4.76947C20.5823 4.87755 23.6914 5.059 24.2982 5.05406C24.4815 5.05304 24.3546 4.98436 24.3911 4.98266C24.5492 4.97521 24.6168 5.06542 24.7576 5.07345C25.1329 5.09443 26.0897 5.0615 26.2707 5.06889C26.6878 5.08615 27.9331 5.20415 28.4836 5.20689C28.9903 5.20973 28.8988 5.11515 29.3365 5.12208C29.6813 5.12763 29.3034 5.19156 30.0718 5.24096C30.4529 5.26553 31.7867 5.25386 32.1099 5.26362C32.4332 5.27369 32.7911 5.3393 33.2367 5.34835C33.8758 5.36173 35.2817 5.37063 35.9362 5.36994C35.9753 5.36998 36.0724 5.3015 36.1687 5.30548C36.3681 5.31361 36.306 5.3997 36.4564 5.41245C36.6078 5.42624 39.2139 5.47748 39.6559 5.48674C39.9622 5.4938 40.1747 5.44598 40.3439 5.44993C40.4766 5.45315 40.4893 5.52645 40.6247 5.53001C40.6666 5.53086 41.0246 5.47466 41.3808 5.48299C41.7175 5.49126 42.9928 5.57452 43.1404 5.57736C43.2366 5.57924 43.132 5.52559 43.4164 5.53161C43.6755 5.53721 43.8445 5.60733 43.9922 5.61069C44.3347 5.61837 44.7183 5.56681 45.0813 5.57186C46.1306 5.58627 46.0752 5.66847 46.1382 5.67214C46.3125 5.68201 46.3834 5.60646 46.4407 5.60563C46.6825 5.60243 47.2747 5.59561 47.4899 5.59511C47.7579 5.59454 47.8706 5.66849 48.1553 5.67187C48.3675 5.67414 48.7965 5.60788 49.2799 5.60904C50.3672 5.61142 51.6697 5.60776 52.742 5.61618C53.0618 5.61864 53.1104 5.68515 53.2082 5.68737C53.7217 5.69896 54.0092 5.62584 54.1556 5.62738C55.1985 5.63845 57.0638 5.75742 58.036 5.7661C58.4318 5.77011 60.1608 5.7132 61.1336 5.71819C61.245 5.71871 61.141 5.77116 61.2648 5.76249C61.5609 5.74165 61.5334 5.63587 61.6844 5.63835C61.7573 5.63986 61.924 5.69874 62.1363 5.70354C63.2376 5.72839 63.9927 5.67613 64.4937 5.67537C69.3035 5.66821 74.2183 5.61574 78.7093 5.52167C79.2114 5.51113 79.832 5.43354 80.5897 5.47593C80.6138 5.50824 80.6379 5.54055 80.662 5.57286C80.6876 5.53988 80.7133 5.5069 80.739 5.47393C81.5948 5.43493 81.917 5.38496 82.7908 5.40274C82.8655 5.40418 83.1006 5.54805 83.2382 5.35768C84.1108 5.46878 83.6304 5.34583 84.2746 5.31512C84.9185 5.28427 85.5451 5.30758 86.1687 5.29815C86.5127 5.35476 85.0828 5.55164 84.9888 5.55363C84.838 5.55741 84.6786 5.46923 84.5332 5.46845C84.1025 5.46604 83.688 5.55118 83.5891 5.47111C83.0347 5.57396 83.7266 5.51112 83.6593 5.59182C83.287 5.56954 82.913 5.5471 82.5434 5.52434C82.3627 5.79791 80.3073 5.50049 80.4543 5.70065C80.2903 5.66381 80.1263 5.62693 79.9623 5.59001C79.2535 5.86323 78.8283 5.69292 77.8709 5.63798C77.9406 5.6692 78.0103 5.70042 78.08 5.73163C78.0603 5.74582 77.2196 5.81657 77.5173 5.67051C76.661 5.87283 76.6908 5.56628 75.9231 5.80302C75.4647 5.84051 75.7384 5.70683 74.9163 5.72491C74.4291 5.73546 73.8249 5.81369 73.2794 5.82785C73.1537 5.8309 73.0978 5.7575 72.986 5.75942C72.8742 5.76136 72.8208 5.83517 72.6853 5.83929C72.4049 5.84795 72.0427 5.80265 71.8688 5.81034C71.7129 5.81703 71.491 5.88486 71.1148 5.90068C69.8007 5.95591 70.1962 5.85792 69.9881 5.82989C69.7644 5.79995 69.6055 5.92318 69.1598 5.915C69.1151 5.9141 69.2297 5.83721 69.0845 5.84206C68.9673 5.84589 68.9095 5.92865 68.5213 5.94876C68.3663 5.9576 65.9657 6.00151 65.603 6.00548C65.0441 6.01307 63.7965 5.9536 63.2162 5.95769C62.9927 5.95918 62.7541 6.02645 62.5164 6.02739C61.7263 6.03064 60.4724 6.03059 59.4757 6.02959C58.5788 6.02915 57.0009 5.88424 56.5076 6.01453C55.2455 6.02999 54.9432 5.91632 54.8476 5.91467C54.5912 5.9097 54.4721 5.98355 54.1485 5.9858C49.9441 6.01603 44.4306 5.89971 40.4537 5.82139C31.2342 5.64743 21.9785 5.33739 12.7424 4.77519C12.7157 4.80661 12.6891 4.83802 12.6624 4.86944C13.7544 4.9538 15.0341 5.0817 16.1093 5.15147C17.5416 5.24516 19.6937 5.21342 20.736 5.48623C20.3072 5.48617 19.6135 5.36674 19.6204 5.48279C20.3859 5.52776 21.1506 5.57147 21.9145 5.61395C21.8941 5.55958 21.8737 5.50521 21.8533 5.45084C22.6501 5.47106 23.4705 5.51819 24.274 5.54394C24.4136 5.54848 24.3168 5.49594 24.4383 5.50073C24.5742 5.50617 24.48 5.55166 24.5055 5.55311C24.849 5.56776 24.9547 5.52203 24.9965 5.52447C25.1039 5.53079 25.0185 5.57492 25.3278 5.6007C25.9017 5.64864 26.3177 5.53834 26.1746 5.74325C26.3601 5.75049 26.5454 5.75765 26.7308 5.76475C26.781 5.70938 26.8311 5.654 26.8813 5.59862C28.0122 5.8728 28.5512 5.48605 29.173 5.82986C29.3831 5.78806 29.5932 5.74617 29.8031 5.70418C29.9186 5.76541 30.034 5.82661 30.1495 5.88779C30.174 5.83946 30.1985 5.79112 30.2231 5.74279C31.3436 5.81678 32.5379 5.79515 33.6069 5.83197C34.3511 5.8575 34.533 5.88196 35.195 5.89637C36.6684 5.92724 35.2031 5.98613 36.4241 6.1232C36.3619 6.06136 36.2998 5.9995 36.2377 5.93764C36.4408 5.9208 36.6439 5.90388 36.8469 5.88687C36.9867 5.93952 37.1264 5.99212 37.2661 6.04469C37.8973 5.80521 38.2967 6.02007 38.3818 6.02205C38.4505 6.02314 38.69 5.87546 39.4253 6.02149C39.123 5.80516 39.9901 6.03245 40.0607 6.03504C40.1272 6.03738 40.9784 6.00794 41.323 6.01644C41.5942 6.02322 42.1715 6.0792 42.5749 6.08411C42.9311 6.08844 42.8962 6.01656 42.9222 6.01628C43.3604 6.0179 43.0849 6.06852 43.4015 6.07658C43.7181 6.08459 43.9645 6.02783 44.0327 6.03435C44.0671 6.03779 43.9511 6.10228 44.1083 6.11118C44.5304 6.13543 45.2945 6.08876 45.7811 6.09712C45.9532 6.10004 46.1693 6.15923 46.3608 6.16346C46.6545 6.16974 46.7926 6.09672 46.9631 6.10105C47.0223 6.10276 47.3996 6.22291 47.8699 6.21046C47.9595 6.20791 48.2247 5.96658 48.5699 6.31632C48.5973 6.2679 48.6247 6.21947 48.6521 6.17105C50.2282 6.06629 50.661 6.46445 51.3676 6.11858C52.5142 6.16552 51.726 6.29699 51.8518 6.31881C51.933 6.33261 52.3071 6.2973 52.3481 6.29967C52.4208 6.30429 52.4081 6.34812 52.4878 6.34833C53.9483 6.34797 53.3001 6.26146 53.7626 6.21112C54.8613 6.09041 55.7169 6.37064 53.8072 6.28052C53.8071 6.30502 53.807 6.32951 53.8069 6.35401C54.2778 6.33281 55.4707 6.34716 55.072 6.47028C54.759 6.56844 51.923 6.49115 53.5287 6.63606C53.8932 6.66872 54.0824 6.57768 54.7126 6.75207C55.1297 6.76266 55.1903 6.53958 55.7543 6.63035C55.6617 6.55228 55.5691 6.47419 55.4766 6.39608C56.2434 6.29634 57.2015 6.43314 57.7932 6.38915C57.9948 6.37427 58.7195 6.00202 58.5509 6.37352C58.8897 6.35032 60.4819 6.41452 60.7769 6.37972C60.8488 6.3713 60.937 6.17376 61.9702 6.23761C62.0421 6.26201 62.1139 6.28641 62.1858 6.3108C61.2414 6.38782 62.9103 6.45205 62.4582 6.6421C62.304 6.55875 61.5537 6.51117 61.4336 6.46923C61.2284 6.39716 61.838 6.3004 61.0608 6.32945C60.5715 6.64511 61.9737 6.49465 61.7615 6.79322C62.7871 6.64897 62.8899 6.78047 63.1221 6.78459C64.1142 6.80049 64.7373 6.76394 65.6711 6.79014C65.8982 6.72715 64.2069 6.65357 63.997 6.68109C64.7667 6.45848 63.4393 6.45895 62.8787 6.59089C62.8312 6.52567 62.7837 6.46045 62.7362 6.39523C63.4668 6.42631 64.1787 6.43938 64.8999 6.37955C64.9471 6.40365 64.9943 6.42774 65.0415 6.45183C64.88 6.49011 64.7183 6.52834 64.5567 6.56653C65.1576 6.62194 64.796 6.4341 65.5969 6.59429C65.621 6.5203 65.645 6.4463 65.6691 6.37231C66.4349 6.38969 67.2014 6.40612 67.9715 6.42154C68.3704 6.26926 69.8479 6.30491 69.58 6.49991C70.1761 6.50529 69.4391 6.41347 69.9968 6.35917C70.2395 6.33559 70.7139 6.32302 70.8319 6.37279C70.7842 6.55595 70.0742 6.58886 69.8607 6.71697C69.9929 6.75699 73.2917 6.5748 73.0036 6.79189C73.2687 6.81297 73.1453 6.70527 73.6218 6.66874C74.9583 6.5671 77.0232 6.74226 78.0933 6.44541C76.8267 6.3217 76.4614 6.48967 75.4945 6.51534C74.8792 6.53369 71.1063 6.62311 71.9469 6.41584C71.8094 6.44254 71.6718 6.46921 71.5342 6.49585C71.3938 6.44064 71.2534 6.3854 71.113 6.33012C71.5061 6.31591 71.8989 6.30147 72.2915 6.28678C72.3868 6.34248 72.4821 6.39816 72.5773 6.45383C72.6201 6.41224 72.663 6.37065 72.7058 6.32905C72.8719 6.31814 73.038 6.30719 73.204 6.2962C73.1582 6.34613 73.1123 6.39606 73.0665 6.44598C73.3228 6.44999 73.5791 6.45389 73.8352 6.45769C73.7651 6.39329 73.695 6.32888 73.6249 6.26446C74.8298 6.2262 74.4223 6.2746 75.0925 6.38472C75.591 6.38757 74.7471 6.27795 75.8003 6.22511C77.0244 6.16288 76.2244 6.38055 77.8097 6.30341C77.8319 6.27016 77.8541 6.23691 77.8763 6.20365C78.2272 6.22866 78.5779 6.2535 78.9284 6.27815C78.8813 6.2385 78.8341 6.19885 78.7869 6.15919C79.5094 6.15849 80.5006 6.05647 80.7432 6.21017C80.0111 6.15137 80.0248 6.42991 80.2161 6.4766C80.6087 6.57621 86.4059 6.31935 87.5233 6.2729C88.9552 6.21894 90.0515 6.27178 91.3562 6.08898C90.4654 6.00863 87.3362 6.20287 86.7461 6.14186C86.6873 6.13601 86.696 5.87992 86.328 6.17897C85.1142 6.16694 83.6553 6.29042 82.1409 6.32182C82.1853 6.247 82.2296 6.17218 82.2739 6.09736C83.2062 6.22942 84.0676 5.86097 83.9525 6.15037C84.1386 6.14515 84.3245 6.13989 84.5105 6.13458C84.5091 6.08532 84.5077 6.03607 84.5063 5.98681C84.7865 5.97881 85.0666 5.97069 85.3466 5.96247C85.348 6.01172 85.3495 6.06098 85.3509 6.11023C85.5829 6.10342 85.8147 6.09653 86.0464 6.08958C86.0691 6.03974 86.0917 5.98991 86.1144 5.94007C86.8115 6.02192 89.165 5.67351 88.1349 6.00005C88.461 5.98962 88.7886 5.979 89.1152 5.96827C89.1129 5.93229 89.1107 5.89632 89.1084 5.86034C89.2487 5.85089 89.3889 5.84141 89.5291 5.8319C89.484 5.86603 89.4388 5.90016 89.3937 5.93429C90.0351 5.85459 90.6501 6.00537 91.0678 5.87799C90.7889 5.863 90.5098 5.84791 90.2306 5.83272C90.7663 5.86153 91.745 5.73026 91.8326 5.72684C92.1004 5.71688 92.2441 5.78465 92.5341 5.77794C92.7958 5.77168 92.7578 5.71702 92.8066 5.71724C94.2191 5.72271 93.6954 6.04492 94.3426 5.66189C94.4149 5.7082 94.4872 5.75451 94.5594 5.80081C94.6517 5.75643 94.7438 5.71204 94.836 5.66764C95.2543 5.6556 95.6724 5.64335 96.0901 5.63089C95.9485 5.57514 95.8068 5.51936 95.6651 5.46356C96.2902 5.412 96.5865 5.52306 96.6473 5.5235C96.819 5.52386 96.8943 5.44373 96.9473 5.44148C99.4943 5.34548 97.9463 5.47592 99.2362 5.71255C99.6871 5.58001 99.2214 5.48549 99.1519 5.3727C99.7599 5.40159 99.9475 5.36165 100.586 5.3408C100.752 5.33543 100.934 5.39004 101.038 5.38636C101.129 5.38319 101.41 5.30471 101.627 5.29494C101.99 5.27862 102.474 5.29683 102.97 5.27367C103.381 5.25445 104.646 5.15025 105.529 5.10833C105.906 5.0907 105.821 5.15013 105.918 5.14568C105.959 5.14378 106.249 5.06365 106.491 5.05193C108.456 4.95723 110.481 4.89858 112.458 4.79488C113.847 4.72216 115.266 4.59303 116.663 4.52205C116.96 4.50702 116.805 4.56429 116.935 4.5589C116.98 4.55688 117.029 4.46907 117.49 4.47788C117.656 4.48102 117.469 4.55095 117.632 4.54489C117.711 4.54189 117.741 4.46564 118.203 4.42286C119.043 4.34496 119.503 4.41832 119.579 4.4111C119.721 4.39733 119.676 4.33809 119.864 4.32517C120.786 4.26192 121.555 4.20714 122.375 4.15413C122.757 4.12993 125.4 3.96053 125.548 3.96226C125.875 3.96726 125.58 4.11413 125.997 4.08457C126.112 4.04496 126.226 4.00533 126.341 3.9657C126.154 3.95221 125.967 3.9387 125.78 3.92517C126.294 3.9357 126.869 3.84201 127.247 3.82112C127.316 3.81738 127.962 3.83637 128.288 3.80979C128.151 3.84253 128.013 3.87526 127.876 3.90797C127.926 3.92556 127.977 3.94314 128.027 3.96072C128.679 3.88922 129.371 3.84712 130.046 3.80926C130.289 3.79555 130.21 3.85077 130.456 3.83705C131.888 3.7574 131.513 3.57211 132.912 3.87516C132.447 3.86959 130.755 4.02668 130.507 4.02903C130.335 4.03075 129.647 3.74228 129.913 4.06585C128.537 4.15016 129.718 3.88907 128.442 4.00921C128.47 4.04899 128.498 4.08878 128.526 4.12856C128.081 4.18222 127.752 4.22339 127.476 4.16704C127.398 4.37338 125.871 4.34865 125.035 4.41207C123.824 4.50387 122.476 4.63223 121.279 4.7098C120.868 4.73645 120.63 4.67112 120.578 4.67432C120.503 4.67922 120.294 4.76024 120.143 4.76932C119.577 4.8038 117.865 4.78284 117.45 4.99739C120.794 4.81279 124.14 4.61709 127.488 4.41201C127.062 4.34432 130.442 4.12597 130.617 4.1189C130.776 4.11309 130.646 4.18751 130.694 4.18853C131.048 4.19468 131.342 4.08001 131.453 4.07294C131.538 4.06756 131.713 4.10156 132.016 4.08134C132.071 4.07767 132.084 4.02922 132.143 4.02528C132.538 4.00016 132.927 3.97594 133.322 3.95031C133.346 3.94922 133.45 4.01215 133.55 4.00586C133.65 3.99942 133.744 3.92377 133.77 3.92193C134.084 3.90217 134.632 3.91191 134.934 3.89277C135.039 3.88594 134.963 3.83989 135.08 3.83274C135.441 3.81048 135.329 3.91762 135.773 3.86292C135.922 3.84453 135.907 3.76917 136.193 3.76045C136.396 3.75431 136.383 3.89119 136.416 3.894C136.461 3.89706 137.151 3.74416 137.385 3.81772C136.902 4.0847 137.931 3.79388 137.874 3.69842C138.152 3.70498 138.429 3.7115 138.707 3.71799C138.799 3.68672 138.891 3.65543 138.984 3.62415C140.109 3.6621 140.788 3.54841 141.887 3.50865C141.94 3.5068 142.868 3.49947 142.827 3.53757C142.278 3.6358 141.727 3.67606 141.365 3.58819C140.796 3.84095 140.774 3.67171 139.833 3.76341C139.517 3.79422 139.499 3.85358 139.462 3.85676C138.239 3.96781 136.281 4.12192 135.442 4.00658C135.213 4.06749 136.048 4.03119 135.726 4.08607C135.546 4.11736 131.307 4.44395 132.65 4.16203C132.51 4.17642 132.37 4.1908 132.229 4.20517C132.1 4.39824 131.397 4.40059 131.465 4.2122C131.401 4.25393 131.337 4.29565 131.273 4.33737C131.143 4.37741 130.989 4.40423 130.772 4.42804C129.933 4.52121 124.983 4.75978 124.714 4.80061C124.711 4.84447 124.707 4.88833 124.704 4.93219C126.906 4.8501 129.01 4.61231 131.416 4.58518C131.344 4.54878 131.272 4.51238 131.2 4.47597C132.157 4.47284 133.113 4.46914 134.066 4.46492C133.066 4.60377 131.466 4.768 130.401 4.77372C130.212 4.77471 130.346 4.70915 130.302 4.70498C130.188 4.69418 130.073 4.80053 129.666 4.83554C129.257 4.87079 128.238 4.86353 128.144 4.87124C127.965 4.88639 127.486 5.02915 127.179 5.04643C126.776 5.06906 127.042 4.98267 126.961 4.98613C126.625 4.99965 126.327 5.05251 126.064 5.06321C125.674 5.07913 124.856 5.0048 124.593 5.20155C124.873 5.19316 125.152 5.18472 125.432 5.17622C123.919 5.33198 122.737 5.16994 121.258 5.43382C120.933 5.67192 122.16 5.5715 121.126 5.72471C121.315 5.71073 121.503 5.69671 121.692 5.68267C121.733 5.63433 121.775 5.58599 121.816 5.53765C122.143 5.55153 122.47 5.56533 122.796 5.57904C122.701 5.54366 122.606 5.50827 122.511 5.47287C123.659 5.37508 124.818 5.26389 125.235 5.45892C125.256 5.40448 125.277 5.35003 125.297 5.29558C126.373 5.29594 127.962 4.97291 127.68 5.28625C127.73 5.26752 127.78 5.24878 127.829 5.23004C128.478 5.25068 128.195 5.14561 128.436 5.11689C128.505 5.10885 129.763 5.09397 129.212 5.2161C130.445 5.20652 130.049 4.95429 130.386 4.92104C131.181 5.00841 132.578 4.71376 131.999 4.96729C132.116 4.96797 132.233 4.96864 132.35 4.9693C132.723 4.77507 133.113 4.94301 133.532 4.98056C133.673 4.97535 133.813 4.97014 133.954 4.96491C134.045 4.90171 134.135 4.83851 134.225 4.7753C135.573 4.96103 135.103 4.24466 135.75 4.82985C135.658 4.8734 135.566 4.91695 135.474 4.96049C135.251 4.99287 135.028 5.02523 134.805 5.05756C135.711 5.0153 136.615 4.97258 137.518 4.92946C138.673 5.02884 139.31 4.79556 140.595 4.84813C140.714 4.82347 140.832 4.79879 140.95 4.77412C140.838 4.92378 140.374 4.93425 141.24 4.9395C141.32 5.03456 140.739 5.08684 140.468 5.02797C140.403 5.01356 140.942 4.90027 140.33 4.93879C139.914 4.96483 140.678 5.03431 139.427 5.07347C139.475 5.09481 139.523 5.11615 139.571 5.13749C139.435 5.14584 139.3 5.15422 139.165 5.16252C139.041 5.11396 138.918 5.06538 138.795 5.0168C138.492 5.11897 138.328 5.24497 137.622 5.26721C137.811 5.21915 137.544 5.12275 137.196 5.14766C137.199 5.18859 137.201 5.22952 137.204 5.27044C136.362 5.35238 136.645 5.21313 135.949 5.35292C135.876 5.32498 135.804 5.29703 135.731 5.26909C135.358 5.4283 133.95 5.61108 134.196 5.39327C133.815 5.61412 132.982 5.57912 132.663 5.44251C132.642 5.48467 132.621 5.52683 132.6 5.56899C132.437 5.5877 132.273 5.60641 132.109 5.62509C132.016 5.60633 131.923 5.58756 131.83 5.56879C131.715 5.60076 131.6 5.63273 131.485 5.66469C131.412 5.62835 131.339 5.592 131.267 5.55565C131.082 5.61638 130.898 5.67708 130.714 5.73776C130.597 5.71242 130.48 5.68708 130.364 5.66173C130.358 5.74757 129.219 5.83777 128.902 5.80122C128.81 5.83179 128.717 5.86235 128.624 5.8929C128.576 5.85523 128.527 5.81757 128.479 5.7799C128.411 5.81664 128.342 5.85337 128.274 5.8901C128.111 5.86765 127.947 5.84518 127.783 5.82269C127.136 6.06173 127.104 5.8887 126.953 5.89913C126.674 5.91849 125.729 6.10048 125.569 6.10361C125.409 6.10673 125.328 6.04006 125.199 6.04106C123.072 6.0555 123.958 6.19441 123.534 6.24995C123.307 6.27991 123.141 6.2229 122.94 6.24212C122.595 6.27491 120.852 6.46396 120.751 6.46092C120.603 6.45687 120.931 6.12348 120.459 6.23155C120.453 6.40094 119.423 6.28884 119.913 6.49668C119.491 6.49992 119.071 6.50293 118.652 6.50566C118.71 6.70267 118.188 6.60313 117.626 6.64527C116.831 6.70513 115.039 6.93348 115.093 6.72494C114.904 6.78227 114.715 6.83957 114.526 6.89684C113.215 6.90189 111.94 7.03573 110.64 7.10383C106.784 7.30638 102.608 7.45449 98.7598 7.57226C98.5756 7.57785 98.5995 7.50979 98.4669 7.51374C97.7713 7.53517 95.9613 7.65461 94.9811 7.6767C94.6673 7.68393 94.5121 7.62433 94.4125 7.62507C94.0743 7.62713 94.1572 7.7102 94.0014 7.71353C93.7533 7.71898 92.4603 7.68613 92.0138 7.69334C91.7931 7.69701 91.5344 7.77458 91.2751 7.76244C91.2528 7.7615 91.2914 7.68958 91.2726 7.689C90.8011 7.69671 91.0866 7.74782 90.927 7.75012C89.791 7.76634 88.5649 7.80535 87.3375 7.82905C87.0316 7.8349 86.5618 7.79956 86.2989 7.80279C86.1986 7.80416 86.38 7.85225 86.0333 7.85823C85.9146 7.86027 85.8719 7.79192 85.7377 7.79139C85.1595 7.7895 84.9724 8.01863 84.4701 7.85305C83.5086 7.89259 81.8451 7.99449 80.9713 8.01735C80.7646 8.02275 80.6629 7.98416 80.4657 7.98975C80.3259 7.99369 80.0812 8.06336 79.8628 8.06937C79.6444 8.07536 79.2981 8.02295 78.8777 8.03486C78.435 8.04733 77.8847 8.09553 77.7847 8.09749C77.6639 8.10014 77.6065 8.02479 77.4865 8.02835C77.1239 8.03879 76.1532 8.13432 75.6847 8.15162C75.1815 8.17022 74.8782 8.13878 74.706 8.14277C74.5466 8.1468 74.3617 8.21486 74.2888 8.21677C74.1754 8.21984 74.1473 8.14482 74.0033 8.14806C73.768 8.15354 73.5261 8.20537 73.1728 8.21273C66.8258 8.34558 60.5992 8.34914 54.4197 8.27292C53.7317 8.26425 53.3426 8.31577 52.3268 8.28578C51.9148 8.27344 52.0889 8.19656 51.7681 8.20924C51.625 8.21495 51.6608 8.27649 51.4798 8.27822C50.6783 8.28562 49.7525 8.22052 49.407 8.21819C49.2701 8.21719 49.1129 8.28533 48.832 8.28352C46.7375 8.27063 44.2543 8.21653 42.0015 8.18674C40.8066 8.17146 38.9942 8.16907 37.6273 8.14065C33.8374 8.06381 29.7634 7.91817 26.3146 7.7907C21.0925 7.5985 15.9167 7.4083 10.716 7.01863C13.1433 7.33468 16.4436 7.50141 19.1616 7.65023C26.9847 8.08314 35.3258 8.2534 43.3499 8.38994C46.1393 8.43875 49.6569 8.47506 52.7204 8.52983C52.8591 8.53232 53.1469 8.48029 53.4465 8.48733C53.5102 8.48903 54.2988 8.58995 54.5644 8.5917C54.3133 8.41734 55.3532 8.57529 55.6744 8.57155C56.0773 8.56691 56.9302 8.48148 57.881 8.52997C58.7444 8.57369 58.5062 8.6405 58.5539 8.64469C58.8592 8.67133 58.9654 8.56351 59.1991 8.55217C60.1491 8.51035 65.0707 8.54466 66.4352 8.53106C66.7885 8.52845 66.7992 8.5967 66.8788 8.59612C67.0902 8.59434 67.3916 8.5235 67.7309 8.52006C68.3427 8.51406 69.0474 8.56965 69.3835 8.5654C70.1887 8.5557 71.7069 8.45714 72.7528 8.43781C73.0472 8.43239 73.0304 8.50385 73.1636 8.50132C73.7506 8.49025 75.2745 8.37808 75.9997 8.36241C77.1767 8.33747 78.3929 8.35682 79.5938 8.30486C79.6706 8.3348 79.7475 8.36473 79.8243 8.39466C79.9435 8.35847 80.0627 8.32226 80.1818 8.28602C82.2081 8.26216 84.2731 8.13414 86.2892 8.07792C86.5215 8.07157 87.6715 8.09677 87.8626 8.09081C88.022 8.08577 88.1748 8.0022 88.4126 8.00615C88.7453 8.0115 88.4376 8.17139 88.9787 8.11091C89.1242 8.09455 88.9807 8.0351 89.2729 8.0055C89.37 7.99604 91.2441 7.90653 91.3444 7.90709C91.5124 7.90872 91.6668 8.04077 91.7102 8.04221C91.9357 8.04979 91.9224 7.94475 92.0729 7.92979C92.5171 7.88528 93.1005 7.93507 93.1727 7.93086C94.0465 7.8798 95.6861 7.73343 96.6053 7.74678C96.7326 7.74871 96.7205 7.82776 96.7429 7.82943C96.8874 7.83999 96.9733 7.74713 97.11 7.73961C97.846 7.70029 98.9987 7.71333 99.7443 7.69719C99.8299 7.69526 100.009 7.64469 100.161 7.64239C101.025 7.62984 100.748 7.7106 100.797 7.7115C100.914 7.71383 101.115 7.62903 101.423 7.61093C102.22 7.56397 103.737 7.50722 104.595 7.47352C105.236 7.44873 105.23 7.53612 105.272 7.53592C105.362 7.53488 105.608 7.45381 106.029 7.42615C106.838 7.37246 106.749 7.44509 107.081 7.42629C107.109 7.42495 107.057 7.36038 107.426 7.33578C108.137 7.28852 109.74 7.27561 110.506 7.23335C110.8 7.21731 110.865 7.1493 111.166 7.1328C111.643 7.10647 112.72 7.12077 112.805 7.11611C112.829 7.11488 112.878 7.03788 113.018 7.03061C113.171 7.02262 113.324 7.05293 113.438 7.04669C114.087 7.01178 115.209 6.82185 114.91 7.10356C115.116 7.02694 115.322 6.95028 115.528 6.87359C116.898 6.81286 118.22 6.71356 119.572 6.62383C119.877 6.60362 120.135 6.63931 120.392 6.6222C120.649 6.60516 121.779 6.45688 121.968 6.44425C122.307 6.42218 124.222 6.30083 124.462 6.29221C124.93 6.27571 125.39 6.35795 125.579 6.3251C125.731 6.29869 125.586 6.24551 125.876 6.21051C126.378 6.14998 127.237 6.17717 127.39 6.16653C127.455 6.162 127.33 6.1215 127.943 6.08041C128.273 6.05814 128.454 6.10014 128.574 6.0925C128.611 6.0899 128.55 6.00755 129.204 5.97857C129.657 5.95858 129.855 6.01265 129.903 6.00994C129.974 6.00592 130.142 5.92445 130.429 5.90892C131.1 5.87311 132.328 5.87661 132.962 5.8421C133.085 5.83547 133.038 5.75277 133.527 5.72923C133.877 5.71241 133.82 5.78427 133.951 5.77856C134.158 5.7694 134.463 5.66616 134.924 5.63894C135.509 5.60548 139.791 5.40862 140.022 5.41465C140.173 5.41961 140.347 5.40888 140.423 5.44079C140.362 5.48045 140.301 5.52011 140.24 5.55976C139.573 5.47985 139.848 5.60388 139.674 5.62473C139.419 5.65493 138.47 5.70007 138.242 5.7468C138.161 5.76361 138.353 5.8267 137.916 5.89475C137.446 5.96758 137.227 5.84698 137.051 6.04312C136.366 5.88337 135.734 6.1421 136.516 6.14891C136.952 6.15363 141.215 5.94241 142.086 5.8936C142.793 5.85477 144.1 5.71045 144.973 5.66419C145.485 5.63738 146.741 5.55974 146.694 5.66105C147.147 5.64191 146.662 5.57797 146.756 5.55784C146.953 5.51584 148.366 5.48459 148.632 5.4632C149.948 5.35809 151.608 5.13091 152.892 5.16323C152.835 5.1936 152.777 5.22398 152.719 5.25434C152.436 5.32276 151.098 5.34881 150.956 5.4849C152.906 5.34693 154.857 5.20737 156.807 5.0668C156.765 4.96269 159.175 4.78996 159.298 4.82943C159.259 4.88422 159.22 4.93901 159.181 4.99379C157.797 4.89673 157.944 5.14683 157.016 5.0753C156.643 5.10026 156.762 5.17757 156.579 5.20705C154.757 5.5002 156.537 5.0339 155.138 5.21121C155.57 5.30477 154.423 5.43264 153.907 5.48531C153.79 5.49718 152.253 5.57518 152.07 5.59009C151.047 5.67396 149.276 5.86718 148.258 5.87015C147.456 5.91815 147.02 6.03723 146.291 6.10835C145.738 6.1623 145.892 6.08923 145.631 6.10655C145.083 6.14273 144.915 6.34406 144.545 6.10479C144.174 6.16331 143.809 6.22138 143.44 6.27955C143.438 6.23863 143.435 6.19771 143.432 6.15679C143.2 6.17269 142.967 6.18858 142.734 6.20444C142.669 6.24988 142.603 6.29533 142.537 6.34077C141.795 6.33519 142.096 6.21565 141.95 6.10918C141.79 6.11207 141.63 6.11494 141.47 6.1178C141.352 6.21513 141.234 6.31244 141.116 6.40975C140.402 6.4507 139.683 6.4917 138.971 6.53191C138.923 6.4942 138.874 6.45649 138.825 6.41877C138.826 6.45965 138.828 6.50053 138.829 6.54141C137.625 6.63008 136.417 6.71806 135.206 6.80524C134.889 6.89175 136.831 6.81466 136.977 6.80878C137.795 6.77698 139.95 6.5672 139.966 6.712C140.468 6.5695 141.997 6.49319 142.479 6.59096C141.759 6.63214 141.037 6.67311 140.315 6.71385C140.341 6.76102 140.368 6.80818 140.395 6.85535C139.481 6.71924 139.349 6.73895 138.442 6.98594C138.436 6.92063 138.431 6.85532 138.426 6.79001C137.799 7.06005 136.636 6.74937 136.622 7.0321C136.278 7.03188 135.933 7.03161 135.588 7.03127C134.851 7.11337 136.007 7.25604 133.11 7.35756C132.91 7.36442 132.947 7.29027 132.647 7.31435C132.561 7.32132 132.072 7.45707 131.122 7.50616C130.973 7.51377 130.958 7.45245 130.804 7.45426C130.447 7.45794 129.746 7.62489 130.056 7.40486C128.642 7.43443 129.239 7.56186 128.807 7.65415C128.52 7.71535 128.571 7.59345 128.321 7.63575C128.013 7.68808 128.249 7.79357 127 7.8147C127.139 7.79809 127.278 7.78146 127.418 7.76482C127.345 7.7367 127.273 7.70859 127.201 7.68047C126.494 7.80154 126.554 7.68377 126.23 7.88622C125.707 7.83627 125.258 7.85676 124.55 7.91376C123.179 8.0238 123.895 8.17876 122.313 8.00594C122.061 8.05782 121.809 8.10964 121.557 8.16142C121.134 8.10746 121.467 7.99042 120.842 8.00653C121.341 8.17133 120.02 8.17641 119.806 8.36074C119.78 8.32112 119.755 8.28149 119.729 8.24187C119.589 8.24976 119.449 8.25767 119.31 8.2655C119.312 8.29837 119.313 8.33124 119.314 8.3641C119.128 8.34991 118.942 8.33569 118.755 8.32144C118.618 8.36179 118.481 8.40212 118.343 8.44243C118.11 8.38649 117.878 8.33051 117.645 8.27448C117.501 8.27773 117.356 8.28096 117.212 8.28418C117.261 8.33059 117.309 8.377 117.357 8.42341C117.171 8.41724 116.985 8.41103 116.799 8.4048C117.019 8.47326 116.889 8.57487 116.312 8.60377C115.836 8.62758 116.363 8.43116 115.343 8.55599C115.272 8.56474 115.151 8.6913 114.184 8.76108C113.029 8.84414 113.586 8.72794 113.38 8.73579C113.339 8.73742 112.989 8.81604 112.658 8.84182C112.47 8.85647 112.287 8.81726 112.262 8.81866C112.146 8.82686 112.116 8.89729 111.955 8.90803C111.547 8.93492 110.996 8.92916 110.595 8.95276C110.413 8.96341 110.244 9.01271 110.163 9.01727C110.036 9.02406 109.873 8.96988 109.745 8.97648C109.273 9.00135 108.572 9.24246 108.34 8.96654C107.902 9.25206 106.94 8.97885 107.018 9.15219C105.807 9.14435 102.589 9.50708 102.673 9.20509C102.001 9.48922 102.053 9.30256 101.767 9.31892C101.447 9.33707 101.615 9.37909 101.36 9.38793C100.764 9.40851 100.194 9.41159 99.6005 9.43546C99.692 9.39087 99.7835 9.34626 99.8749 9.30165C99.2513 9.31472 99.4699 9.40048 98.8344 9.44505C97.6723 9.52601 98.1594 9.43024 97.9833 9.3306C98.0338 9.43188 96.6594 9.47084 96.5185 9.46259C96.4346 9.45757 96.7956 9.31062 95.9547 9.38626C96.0024 9.42531 96.0501 9.46436 96.0977 9.50341C95.7119 9.46262 94.6705 9.57326 94.4924 9.56607C94.4108 9.56272 93.9629 9.24965 93.5736 9.52495C93.5243 9.48586 93.4749 9.44677 93.4255 9.40768C92.9869 9.4729 92.5479 9.53789 92.1085 9.60263C92.0354 9.53154 91.9624 9.46045 91.8894 9.38936C91.7494 9.39429 91.6093 9.3992 91.4692 9.40409C91.5645 9.46617 91.6597 9.52825 91.755 9.59031C90.8893 9.59125 89.8338 9.72977 89.6477 9.51531C89.4634 9.56233 89.279 9.60931 89.0944 9.65624C88.9711 9.5869 88.8477 9.51754 88.7243 9.44816C87.864 9.4944 87.8548 9.5436 87.2705 9.64005C87.2917 9.58212 87.3128 9.52419 87.3339 9.46625C86.9044 9.56009 86.117 9.65898 85.4921 9.68741C85.195 9.70085 84.6821 9.63669 84.6121 9.64582C84.5415 9.65543 83.8521 9.98493 83.7687 9.71873C82.7414 9.86605 82.2922 9.75616 81.8756 9.77C81.6057 9.77898 81.4842 9.84654 81.1791 9.86092C80.7424 9.88158 80.3014 9.86123 80.0491 9.87175C79.9047 9.87795 79.8792 9.94139 79.7797 9.94575C79.3089 9.96651 79.5834 9.89585 79.0867 9.91164C79.0408 9.91343 78.6794 9.99847 78.2693 9.9978C78.0398 9.99755 77.446 9.92428 77.3947 9.92555C77.164 9.93194 77.3523 10.1005 76.5588 9.91798C76.5824 9.95026 76.606 9.98253 76.6296 10.0148C75.6541 10.118 75.4963 9.97464 75.2986 9.96845C75.2734 9.96811 75.0362 10.0292 74.8934 10.0241C74.6523 10.0154 74.5537 9.93987 74.5002 9.93747C74.3121 9.92916 73.6791 9.97469 73.2633 9.90711C73.3542 10.1257 71.9027 10.2283 71.5801 9.98392C71.3249 10.037 71.0694 10.09 70.8138 10.1429C70.6973 10.1036 70.5807 10.0643 70.4642 10.025C70.3942 10.0669 70.3243 10.1087 70.2543 10.1506C69.8793 10.0659 69.504 9.98098 69.1287 9.89584C69.1061 9.98629 69.0834 10.0767 69.0607 10.1672C68.9558 10.1583 68.8509 10.1494 68.7459 10.1404C68.6632 10.0698 68.5804 9.99922 68.4977 9.9286C68.3668 9.94388 68.2359 9.95913 68.105 9.97436C68.0731 10.0266 68.0413 10.0788 68.0094 10.131C67.3059 10.1988 67.6583 9.70091 66.3256 10.1493C66.1171 10.1105 65.9085 10.0716 65.6999 10.0327C65.4665 10.2338 65.0244 10.1173 64.6685 10.1425C64.4177 10.1603 64.432 10.2393 64.0898 10.2436C63.7474 10.2479 63.7591 10.1722 63.7325 10.1719C63.4532 10.1692 63.2431 10.2373 63.038 10.2253C63.0071 10.2235 62.9292 10.1343 62.6679 10.1301C62.4065 10.126 62.2494 10.2224 61.8597 10.2064C61.6602 10.1982 61.6013 10.1229 61.4253 10.117C60.5861 10.0883 59.7402 10.4737 59.1081 10.0208C58.9662 10.0787 57.934 10.2815 57.4912 10.2698C56.803 10.2512 57.0682 10.1621 56.7945 10.1457C56.7553 10.1432 56.545 10.1733 55.9679 10.1669C55.8651 10.1658 55.8888 10.2161 55.8741 10.2168C55.2041 10.2148 53.9009 10.1709 53.1625 10.1599C53.0966 10.1588 52.7505 10.2974 52.1658 10.1053C51.2951 10.2396 49.6657 9.92752 48.5219 10.1252C48.3634 10.128 48.1716 10.0758 48.1014 10.0767C47.4965 10.0854 47.7168 10.2409 46.3512 10.0006C46.461 10.0797 46.1399 10.1457 45.6873 10.1336C45.0067 10.1151 45.4917 9.9772 44.9453 9.98109C44.9447 10.022 44.9441 10.0628 44.9435 10.1037C43.6926 9.97483 43.4404 10.1455 42.1803 10.124C41.727 10.1161 41.0585 10.0125 40.9503 10.0101C40.9085 10.0096 40.41 10.0981 40.3625 10.0979C40.0952 10.0954 39.9453 10.0468 39.7145 10.0416C38.9536 10.0246 38.0463 10.1317 38.2151 9.90279C38.0052 9.94707 37.7952 9.99127 37.5851 10.0354C36.8019 9.76801 36.2021 10.0951 36.0426 9.84949C35.9 9.89566 35.7573 9.94178 35.6146 9.98787C32.2253 9.87299 28.8325 9.73584 25.4532 9.57617C25.3158 9.64881 23.8383 9.56069 23.7627 9.54505C23.4165 9.47561 23.7918 9.32212 23.079 9.3304C22.9971 9.40114 22.9152 9.47187 22.8332 9.54259C21.9397 9.52782 22.3727 9.47276 22.0233 9.407C21.8761 9.40961 21.921 9.46926 21.7221 9.46455C20.6436 9.43997 18.4285 9.33703 17.2438 9.28051C17.0051 9.26931 17.0438 9.21738 16.9697 9.21344C16.7663 9.2035 16.3631 9.25059 15.9557 9.22912C13.4369 9.09735 9.86112 8.84902 7.32802 8.6258C7.15572 8.61065 7.13853 8.54518 7.02229 8.53438C6.86119 8.51968 6.49715 8.5477 6.32763 8.53099C6.16794 8.51544 6.06869 8.45995 5.89782 8.4428C5.11517 8.36376 4.06412 8.37397 3.23769 8.17115C3.16828 8.15422 2.31104 7.83369 2.29244 7.81522C2.18352 7.70638 2.973 7.60539 1.70554 7.36557C2.85707 7.3203 2.51677 7.06897 1.04126 6.8488C1.78778 6.87551 2.53347 6.90094 3.27833 6.9251C3.2813 6.89832 3.28428 6.87155 3.28725 6.84478C2.62052 6.66366 1.95283 6.57121 0.923777 6.48234C0.957747 6.45988 0.991712 6.43742 1.02567 6.41495C1.94452 6.3585 3.04162 6.41431 3.74418 6.29329C2.74005 6.09659 1.7351 5.89759 0.729332 5.69625C0.781502 5.68044 0.833664 5.66463 0.885819 5.64881C1.37628 5.63444 2.44006 5.68207 2.8466 5.66331C4.39935 5.5925 1.5084 5.43092 1.99064 5.35421C3.61943 5.4771 5.23238 5.59308 6.86654 5.70477C6.9217 5.63328 0.695105 4.96945 0.773868 4.72191C1.28656 4.74372 1.79886 4.76492 2.31078 4.78552C2.08768 4.70664 1.86457 4.62765 1.64145 4.54854C1.70565 4.53342 1.76983 4.51828 1.83401 4.50314C2.69928 4.51789 3.56339 4.53092 4.42633 4.54224C1.80902 4.40835 0.590226 4.27779 0 3.73976C0.0720498 3.73268 0.144089 3.72558 0.216118 3.71847C0.761336 4.06981 3.44715 4.16753 4.86921 4.20246C4.58643 4.09285 3.33125 4.07451 3.07047 4.00116C2.99666 3.98029 3.2624 3.93651 3.09112 3.89213C2.6438 3.77738 0.716306 3.52745 1.00509 3.44621C1.19229 3.3961 4.30867 3.53109 4.91228 3.57762C3.50146 3.36227 2.03926 3.22272 0.621927 2.97234C1.53815 2.84071 2.35362 2.65673 3.99391 2.76163C4.50164 2.69387 1.03892 2.29885 0.961422 2.2335C1.56797 2.21735 2.17387 2.20035 2.77914 2.1825C2.26975 2.16215 1.75998 2.1412 1.24983 2.11965C1.24986 2.09908 1.2499 2.07852 1.24993 2.05796C2.57524 2.06103 3.79142 1.97333 5.29346 2.08827C5.25245 1.97682 4.35238 1.92552 3.91555 1.89353ZM148.885 6.07547C148.921 6.16308 148.367 6.18719 148.055 6.20728C148.103 6.22034 148.151 6.2334 148.199 6.24645C147.533 6.27611 146.288 6.32801 146.254 6.50534C145.779 6.56002 145.979 6.39396 145.824 6.38737C145.764 6.38465 145.148 6.51585 144.642 6.4429C144.523 6.45149 144.405 6.46006 144.286 6.46864C144.267 6.52733 144.248 6.58601 144.229 6.64471C144.06 6.58666 143.891 6.52858 143.722 6.4705C145.443 6.34032 147.169 6.20816 148.882 6.07565C148.883 6.07559 148.884 6.07553 148.885 6.07547ZM131.732 7.30021C131.102 7.3078 130.136 7.31723 130.34 7.46151C130.737 7.42838 131.134 7.39515 131.53 7.36182C131.597 7.34129 131.664 7.32075 131.732 7.30021ZM69.2002 9.74836C68.6722 9.60083 68.1893 9.74046 67.3738 9.7217C67.3752 9.7543 67.3767 9.7869 67.3781 9.8195C67.7107 9.73758 68.592 9.77933 69.2002 9.74836ZM164.386 4.36967C164.503 4.37331 164.619 4.37696 164.735 4.38061C164.279 4.58973 164.186 4.47264 163.655 4.52839C163.623 4.53179 163.637 4.57101 163.626 4.57207C163.496 4.58425 163.372 4.54488 163.256 4.5541C163.031 4.57198 162.851 4.63418 162.451 4.66154C162.143 4.68253 162.134 4.606 162.026 4.61587C161.933 4.6245 161.031 4.90238 160.433 4.85417C159.3 4.76208 164.034 4.37933 164.386 4.36967ZM167.726 4.27087C167.615 4.27968 167.505 4.28849 167.394 4.2973C167.718 4.15497 167.047 4.22206 166.553 4.26064C166.561 4.14639 167.609 4.1184 168.073 4.05061C167.957 4.12403 167.842 4.19745 167.726 4.27087ZM153.65 5.04791C154.083 5.00538 154.022 5.15165 154.007 5.19504C153.867 5.205 153.73 5.21485 153.591 5.22471C153.611 5.16578 153.631 5.10684 153.65 5.04791ZM156.922 4.76381C156.794 4.86947 155.853 4.9794 155.405 5.01945C155.386 5.02087 155.505 4.9594 155.188 4.98705C155.093 4.99543 154.169 5.25416 154.36 5.022C155.215 4.93606 156.069 4.85001 156.921 4.7639C156.921 4.76387 156.922 4.76384 156.922 4.76381ZM157.878 4.75178C157.703 4.79471 157.528 4.83765 157.352 4.88058C157.257 4.84218 157.162 4.80377 157.067 4.76537C157.268 4.73942 157.47 4.71347 157.671 4.68752C157.74 4.70894 157.809 4.73036 157.878 4.75178ZM23.5618 8.36961C23.6014 8.41961 23.641 8.46961 23.6806 8.5196C23.8409 8.5561 24.6337 8.37853 24.3871 8.3276C24.1121 8.34176 23.837 8.35577 23.5618 8.36961ZM20.2617 8.12096C20.1001 8.089 19.9384 8.05699 19.7768 8.02493C19.5857 8.09782 19.3945 8.17063 19.2032 8.24336C20.0145 8.33798 20.8764 8.44129 20.7481 8.19365C20.9341 8.20224 21.12 8.21077 21.3059 8.21922C21.1448 8.3118 21.1644 8.34575 21.6481 8.43099C21.7611 8.29701 22.2594 8.39026 22.8381 8.38477C22.4178 8.35842 22.0012 8.33187 21.5824 8.30487C21.5835 8.2804 21.5846 8.25593 21.5857 8.23146C22.5185 8.28204 21.366 8.0753 20.7529 8.14426C20.7065 8.10947 20.6601 8.07467 20.6136 8.03987C20.4964 8.06693 20.379 8.09396 20.2617 8.12096ZM87.8664 8.516C87.7501 8.49504 87.6337 8.47405 87.5174 8.45305C87.08 8.78774 87.9798 8.45525 88.641 8.68785C88.4192 8.50207 89.4141 8.47773 89.4704 8.46278C89.3539 8.40166 89.2374 8.34053 89.1209 8.27938C88.7025 8.3585 88.2821 8.43745 87.8664 8.516ZM84.5776 8.39364C84.9861 8.54228 83.0034 8.60812 82.3456 8.58967C82.1847 8.58525 81.896 8.50489 81.7803 8.51898C81.7107 8.55326 81.6412 8.58753 81.5717 8.6218C81.4857 8.51192 80.1967 8.67051 79.6879 8.7428C79.6389 8.70308 79.5899 8.66336 79.5409 8.62364C79.3554 8.64427 79.1698 8.66486 78.9841 8.68539C79.0066 8.64413 79.029 8.60287 79.0515 8.56161C78.9119 8.61385 78.7722 8.66607 78.6325 8.71825C78.0808 8.78525 78.4168 8.55557 78.0029 8.63411C77.5426 8.72124 78.3025 8.8367 78.2904 8.92299C78.6649 8.89248 79.5153 8.82303 79.8948 8.81135C80.1127 8.80471 79.8698 8.96509 80.8043 8.76472C81.0112 8.80088 81.2179 8.83698 81.4246 8.87301C81.8004 8.79774 82.1759 8.72228 82.5511 8.64661C82.6229 8.70183 82.6947 8.75703 82.7665 8.81223C82.8056 8.82022 83.6788 8.66666 83.6307 8.625C83.9885 8.72432 84.7173 8.72336 85.4832 8.70632C85.556 8.67312 85.6287 8.63992 85.7015 8.6067C84.963 8.69554 85.4649 8.58081 85.2425 8.52788C85.114 8.49736 84.7221 8.44134 84.5776 8.39364ZM28.7259 8.44535C27.4756 8.53975 28.2515 8.45326 26.9089 8.40305C26.9998 8.48032 27.0907 8.55757 27.1817 8.63481C27.8458 8.52509 28.9308 8.65331 28.7272 8.4454C28.7268 8.44539 28.7264 8.44537 28.7259 8.44535ZM15.5632 8.10705C16.2756 8.10014 15.9256 7.96699 16.8266 7.97701C16.827 7.97703 16.8275 7.97705 16.8279 7.97708C16.3635 7.94483 15.8988 7.91212 15.4339 7.87894C15.477 7.95498 15.5201 8.03102 15.5632 8.10705ZM57.1684 9.09787C57.8519 9.12996 57.7173 9.07258 58.3371 9.18668C59.2593 9.04639 58.4786 9.06712 58.4784 8.94086C58.2677 8.97815 58.0568 9.01536 57.8459 9.05249C57.3344 8.93463 57.8195 8.87502 57.8194 8.86367C57.819 8.86367 57.8186 8.86367 57.8181 8.86367C57.8181 8.82577 57.8347 8.8178 57.6385 8.79495C57.4819 8.89597 57.3252 8.99694 57.1684 9.09787ZM60.089 8.93782C59.8556 9.02233 59.7509 9.13039 60.3653 9.18216C60.3657 9.18216 60.3662 9.18216 60.3666 9.18216C60.4153 8.99466 61.0044 9.14374 61.2726 9.12993C61.3428 9.10926 61.4131 9.08858 61.4833 9.06789C61.0188 9.02489 60.5541 8.98154 60.089 8.93782ZM70.3747 8.67564C70.3804 8.88256 69.8648 8.90965 70.5934 9.08994C70.7342 9.08419 70.875 9.07841 71.0158 9.07259C71.1076 9.02578 71.1993 8.97896 71.291 8.93213C73.0818 9.2781 73.6038 8.63315 70.5909 8.91778C70.5904 8.91793 70.59 8.91808 70.5896 8.91823C70.518 8.83737 70.4463 8.75651 70.3747 8.67564ZM67.2223 8.73299C67.2007 8.84189 67.1791 8.95079 67.1575 9.05969C66.7581 8.80187 66.2537 9.05735 65.4779 8.87946C65.4083 8.91313 65.3385 8.94679 65.2688 8.98045C64.9801 8.91147 62.1337 8.90987 62.7511 9.07265C63.0211 9.14407 63.6071 9.04097 63.6575 9.0428C63.8286 9.04979 64.0522 9.14152 64.3407 9.13385C64.5074 9.1293 64.8579 9.01675 65.1978 9.01397C65.9574 9.00802 67.3467 9.28854 68.3471 8.99729C68.4197 9.02917 68.4922 9.06103 68.5647 9.09289C69.3075 9.06354 69.0581 8.96297 69.7505 9.07746C70.2216 8.55589 66.9718 9.13784 67.6448 8.71075C67.6444 8.71075 67.644 8.71076 67.6435 8.71076C67.5032 8.7182 67.3628 8.72561 67.2223 8.73299ZM46.7884 8.87611C46.7448 8.78299 45.8805 8.91464 46.0861 8.69524C45.8036 8.76879 45.5209 8.8422 45.2379 8.91545C45.2398 8.93613 45.2416 8.95681 45.2435 8.97749C45.5238 8.9653 45.8041 8.95295 46.0841 8.94047C46.0847 8.97324 46.0854 9.006 46.086 9.03877C46.5051 8.92641 48.2422 8.9983 48.1878 9.11336C48.2812 9.06538 48.3745 9.01738 48.4677 8.96937C49.2975 9.11143 50.0095 8.97613 50.9151 9.11324C50.9857 9.07319 51.0563 9.03312 51.1268 8.99305C51.1724 9.02614 51.2179 9.05923 51.2634 9.09231C51.5939 9.0988 51.9242 9.1051 52.2543 9.11121C53.3307 8.98566 51.2419 8.80258 50.9876 8.81942C50.9538 8.82187 50.9584 8.90673 50.7476 8.91841C50.3736 8.93954 48.2901 8.83565 47.6424 8.88338C47.6374 8.82707 47.6325 8.77076 47.6276 8.71444C47.348 8.76848 47.0683 8.82236 46.7884 8.87611ZM74.369 8.83146C74.4172 8.88783 74.4655 8.9442 74.5137 9.00056C75.3267 8.92821 75.8393 8.96773 75.6272 8.78263C75.6267 8.78264 75.6263 8.78264 75.6259 8.78265C75.2072 8.79919 74.7883 8.81546 74.369 8.83146ZM134.743 6.19525C134.715 6.08305 134.322 6.06594 133.828 6.17946C133.855 6.21088 133.881 6.2423 133.907 6.27372C134.16 6.16025 134.498 6.30781 135.304 6.23285C135.301 6.17573 135.297 6.1186 135.293 6.06147C135.11 6.10608 134.927 6.15068 134.743 6.19525ZM73.6658 8.81942C73.4164 8.75639 72.7223 8.97307 73.1815 8.97531C73.5325 8.9769 73.7997 8.85328 73.6658 8.81942ZM12.7724 7.8418C12.9557 7.86429 13.1389 7.8867 13.3222 7.90904C13.4207 7.86583 13.5193 7.82259 13.6178 7.77934C13.6173 7.77932 13.6169 7.77929 13.6165 7.77927C13.3353 7.80029 13.0539 7.82113 12.7724 7.8418ZM54.8357 9.10352C55.4589 9.09824 56.0794 9.09228 56.7063 9.08566C56.7125 9.05391 56.7188 9.02215 56.7251 8.9904C56.0981 9.10577 55.8476 8.98024 55.7024 8.97235C55.7031 8.97235 55.7037 8.97235 55.7044 8.97235C55.2377 8.94629 54.7928 8.92656 54.3508 8.88705C54.5124 8.95925 54.674 9.0314 54.8357 9.10352ZM52.6991 8.89415C52.8029 9.11902 52.9407 9.14633 53.8993 8.99257C53.8615 8.96479 53.8237 8.93701 53.7859 8.90922C53.2895 8.92364 52.9994 8.97387 53.0872 8.85731C52.9579 8.86962 52.8285 8.8819 52.6991 8.89415ZM62.4657 8.96411C62.3503 8.89346 61.4355 8.96982 61.4856 9.0055C61.5051 9.0199 62.6913 9.103 62.4657 8.96411ZM141.647 5.68742C141.436 5.68528 141.226 5.68312 141.015 5.68094C141.292 5.6378 141.569 5.59464 141.846 5.55143C141.78 5.59676 141.713 5.64209 141.647 5.68742ZM143.921 5.21242C144.073 5.23067 143.599 5.46546 144.498 5.45587C143.845 5.50504 143.202 5.55341 142.552 5.60194C142.854 5.54868 143.156 5.49538 143.458 5.44204C143.401 5.38784 143.344 5.33364 143.287 5.27944C143.498 5.25712 143.71 5.23478 143.921 5.21242ZM144.63 5.31188C144.269 5.18313 146.114 5.04419 146.286 5.05086C146.325 5.05265 146.515 5.156 146.583 5.17626C146.305 5.19574 146.027 5.2152 145.748 5.23462C145.844 5.26468 145.94 5.29474 146.036 5.32479C145.711 5.35989 145.385 5.39495 145.06 5.42997C145.197 5.38369 145.334 5.3374 145.471 5.2911C145.191 5.29805 144.91 5.30498 144.63 5.31188ZM137.242 5.84766C137.475 5.83613 137.708 5.82458 137.941 5.813C137.891 5.75895 137.841 5.70491 137.79 5.65086C137.651 5.66009 137.512 5.66929 137.372 5.6785C137.329 5.73489 137.286 5.79127 137.242 5.84766ZM141.985 5.45598C141.664 5.75402 140.699 5.21538 141.794 5.36483C141.905 5.38008 142.015 5.42723 141.985 5.45598ZM146.979 5.03568C147.688 4.78477 147.556 5.2388 146.864 5.15676C146.829 5.15225 146.926 5.05427 146.979 5.03568ZM152.406 4.647C152.465 4.64432 152.578 4.78035 153.126 4.60429C153.22 4.61405 153.313 4.62381 153.406 4.63357C153.196 4.71559 151.351 4.88657 151.596 4.72641C151.879 4.70411 152.114 4.66338 152.406 4.647ZM150.578 4.24389C150.3 4.26752 150.022 4.29113 149.744 4.31472C149.839 4.35314 149.934 4.39156 150.029 4.42998C149.893 4.45186 149.757 4.47372 149.621 4.49559C149.381 4.43465 149.141 4.37373 148.902 4.31273C149.506 4.25785 150.111 4.20282 150.714 4.14774C150.669 4.17979 150.623 4.21184 150.578 4.24389ZM143.186 4.64696C143.722 4.66689 144.373 4.56204 145.244 4.5115C145.244 4.51162 145.245 4.51173 145.245 4.51184C145.289 4.5095 145.37 4.56586 145.51 4.55866C145.63 4.55255 147.967 4.32177 147.791 4.43895C146.893 4.5959 146.544 4.47692 146.342 4.7245C146.295 4.67856 146.247 4.63261 146.199 4.58667C145.321 4.56232 145.083 4.74917 144.596 4.84525C144.596 4.80818 144.595 4.77111 144.594 4.73404C144.266 4.75296 143.938 4.77174 143.613 4.79036C143.66 4.8115 143.708 4.83265 143.755 4.85379C143.64 4.8617 143.525 4.8696 143.409 4.8775C143.121 4.78728 142.762 4.78612 143.186 4.64696ZM151.842 4.21558C152.078 3.91739 154.589 3.93119 155.731 3.78986C155.144 4.00164 154.202 3.95231 153.548 3.99724C152.287 4.08401 153.166 4.12507 152.955 4.18559C152.851 4.21552 152.123 4.08687 151.842 4.21558ZM141.239 4.82862C141.872 4.80856 142.22 4.72005 142.772 4.78574C142.728 4.80931 142.684 4.83288 142.639 4.85645C142.452 4.85053 140.924 4.8947 141.239 4.82862ZM157.409 3.74267C156.186 3.72975 156.804 3.94014 156.157 3.7956C156.573 3.75354 156.989 3.71146 157.404 3.66937C157.405 3.69381 157.407 3.71824 157.409 3.74267ZM72.2462 7.78688C71.7329 7.78885 71.1584 7.74637 70.8526 7.85685C71.2021 7.86805 71.5515 7.87905 71.9007 7.88987C72.0159 7.85556 72.1311 7.82123 72.2462 7.78688ZM86.8926 6.4045C86.7747 6.38275 86.3134 6.4718 86.2645 6.47325C86.1737 6.47599 86.1974 6.43833 86.1958 6.42873C85.6016 6.45326 86.1535 6.55131 85.7142 6.58932C85.6392 6.59577 84.6033 6.56945 84.1821 6.58584C83.5346 6.61132 82.8847 6.62147 82.6452 6.62983C82.2384 6.64399 81.4846 6.74967 80.8143 6.77081C80.538 6.77939 80.4398 6.71301 80.1617 6.72152C78.3724 6.77825 74.8688 6.94528 73.2793 6.92772C72.887 6.92369 72.5114 6.83987 72.304 6.8506C72.1417 6.88616 71.9796 6.92167 71.8173 6.95714C71.312 6.66893 71.1487 6.93486 70.6087 6.97041C70.2656 6.99286 70.1038 6.90734 70.0577 6.90822C69.7518 6.91421 69.6013 6.95802 69.361 6.96813C69.0913 6.97938 68.7028 6.94472 68.6063 6.95306C68.547 6.95849 68.7382 7.07317 67.6893 7.08323C66.6167 7.09322 65.5722 7.09109 64.4859 7.09432C64.8505 7.44349 65.1601 7.1999 65.6023 7.18299C65.7209 7.17844 65.6462 7.23504 65.7495 7.23162C66.0412 7.22226 66.5988 7.16175 66.8401 7.17248C67.1012 7.18406 67.0138 7.31459 67.3452 7.26314C67.362 7.26049 67.3083 7.20758 67.3863 7.19774C68.1701 7.10032 68.428 7.19044 69.4184 7.18015C70.0745 7.17569 74.054 7.05786 74.1935 7.0883C74.9104 7.26405 70.7098 7.33715 70.2214 7.32678C70.0496 7.324 70.2288 7.26239 70.0721 7.25325C70.0058 7.24966 69.4108 7.37065 68.8206 7.38746C68.1073 7.40812 66.6679 7.34727 65.9922 7.3562C60.1432 7.43571 54.3913 7.3682 48.5513 7.30608C48.4269 7.30477 48.2625 7.3706 47.8569 7.36606C40.2876 7.28041 32.4453 7.03042 24.7842 6.74855C23.1097 6.68707 21.4552 6.67749 19.7725 6.54696C19.5611 6.58621 19.3496 6.62537 19.1379 6.66443C19.6752 6.65148 20.6495 6.80869 20.7386 6.81434C20.7707 6.81631 20.9759 6.77023 21.3023 6.78805C21.7613 6.81288 21.9603 6.86988 21.998 6.87158C22.1147 6.87694 22.0405 6.82234 22.152 6.82754C22.9809 6.86651 23.6322 6.87977 24.3967 6.91094C25.2613 6.94609 25.6953 7.0587 26.3281 6.97844C26.3976 7.02204 26.4672 7.06563 26.5368 7.10921C27.0115 6.95179 29.8109 7.07309 30.9457 7.11795C31.3034 7.13256 31.2382 7.20223 31.3585 7.20611C31.4352 7.20838 31.4082 7.11393 32.3428 7.16139C32.8131 7.1852 32.9343 7.25726 33.1703 7.26208C33.2985 7.26457 33.2797 7.19609 33.4637 7.2015C34.5282 7.23263 35.4044 7.27863 36.4482 7.31789C36.7419 7.32881 36.7437 7.3855 36.8094 7.38642C37.0515 7.38993 37.4747 7.30447 38.089 7.31909C39.097 7.34384 41.1207 7.38606 41.9476 7.44736C42.0692 7.45652 42.1688 7.52634 42.2584 7.52698C42.3939 7.5277 42.4484 7.45771 42.4722 7.45776C42.9253 7.46456 42.6515 7.5257 42.9552 7.51496C43.1189 7.50913 43.2908 7.4312 43.6707 7.42829C44.1722 7.42436 44.072 7.51872 44.2815 7.51242C44.3037 7.51126 44.3113 7.44461 44.5171 7.44556C45.2952 7.44976 46.4365 7.44991 47.1757 7.45894C47.3884 7.4615 47.546 7.50833 47.8424 7.51244C48.4401 7.52257 51.8311 7.52241 52.1126 7.54836C52.142 7.55124 51.8391 7.64792 52.3209 7.64788C52.4611 7.60769 52.6012 7.56747 52.7412 7.52722C52.9747 7.59413 53.2082 7.66096 53.4416 7.72768C53.4346 7.50107 54.8082 7.47126 54.7936 7.70291C54.9439 7.71277 55.094 7.72258 55.2442 7.73235C55.5578 7.57283 55.7633 7.63254 56.3709 7.53917C56.4655 7.58842 56.56 7.63764 56.6546 7.68686C56.6785 7.65412 56.7023 7.62139 56.7261 7.58865C57.05 7.76645 57.5809 7.5882 57.6452 7.58716C57.893 7.58316 58.0792 7.62812 58.1954 7.62657C58.6295 7.6216 59.5677 7.55765 60.0734 7.58481C60.0971 7.58622 60.074 7.66218 60.2179 7.67109C60.4774 7.68716 60.5023 7.576 60.8487 7.70515C60.9184 7.67213 60.9881 7.63909 61.0577 7.60604C61.1319 7.62268 61.206 7.63931 61.2802 7.65593C61.7171 7.64532 62.1584 7.63436 62.597 7.62309C62.1983 7.75385 62.6585 7.82307 63.0922 7.71916C63.2389 7.68393 63.108 7.60658 63.1569 7.59442C63.2245 7.57847 65.192 7.60323 65.3219 7.65209C65.4146 7.62662 65.5074 7.60115 65.6001 7.57566C65.6476 7.6245 65.6951 7.67333 65.7425 7.72217C65.7937 7.70445 65.8448 7.68674 65.8959 7.66902C66.4065 7.75123 67.7346 7.53766 67.9765 7.55031C68.1054 7.55714 67.9921 7.76867 68.6097 7.73961C68.6304 7.68167 68.6511 7.62373 68.6718 7.56579C68.8131 7.55576 68.9543 7.5457 69.0955 7.53561C69.3608 7.53733 69.748 7.63204 69.7612 7.70021C69.8435 7.65807 69.9257 7.61592 70.0079 7.57375C70.2323 7.70445 71.4165 7.63968 71.8907 7.54734C72.0306 7.58542 72.1703 7.62347 72.3102 7.66149C72.4974 7.60943 72.6846 7.55732 72.8716 7.50515C73.3067 7.48298 72.8482 7.57226 72.9411 7.57747C73.1378 7.58833 74.1347 7.43297 74.0719 7.60542C74.2081 7.60337 74.3444 7.60129 74.4805 7.59918C74.5497 7.5489 74.6187 7.49861 74.6878 7.44831C74.9246 7.61274 75.328 7.54563 76.1573 7.59047C76.226 7.55018 76.2947 7.5099 76.3633 7.4696C76.6204 7.51959 76.8774 7.56948 77.1343 7.61927C77.1854 7.5538 77.2366 7.48832 77.2877 7.42284C77.3987 7.4112 77.5096 7.39954 77.6206 7.38786C77.8505 7.52709 78.2551 7.36223 78.4639 7.41698C78.7685 7.49684 78.537 7.60571 77.975 7.63818C78.0197 7.74254 79.6927 7.65594 80.0774 7.63855C80.0514 7.61866 80.0255 7.59878 79.9995 7.57889C79.6058 7.60465 79.2118 7.63018 78.8175 7.65548C78.4808 7.39909 79.554 7.44526 80.044 7.39918C80.0888 7.39482 80.3409 7.28871 80.8355 7.28569C81.0271 7.28467 81.7772 7.41179 81.9197 7.41614C83.0717 7.45256 82.2179 7.26634 83.3513 7.41889C83.1119 7.28506 83.7646 7.384 84.4387 7.33764C84.5537 7.32985 85.5239 7.18787 85.5893 7.18287C85.9983 7.15246 85.5562 7.28974 86.1477 7.23973C86.2179 7.20499 86.2881 7.17024 86.3583 7.13549C86.4961 7.13132 86.6339 7.12712 86.7717 7.12289C87.6166 7.38765 87.804 7.16736 88.0999 7.13049C88.2197 7.11556 88.0667 7.19634 88.3786 7.17029C88.4962 7.16054 88.6247 7.0933 88.9411 7.07854C89.9309 7.03224 90.2759 7.29074 91.1747 6.97849C91.3155 7.01436 91.4563 7.05021 91.597 7.08602C91.6893 7.03391 91.7816 6.98178 91.8739 6.92965C92.5976 7.04581 92.3329 6.90988 92.5924 6.90233C93.275 6.88249 94.6856 6.85756 94.8127 6.96953C95.396 6.6788 96.116 6.95388 96.3492 6.93422C96.4866 6.89619 96.6241 6.85814 96.7614 6.82007C96.9258 6.84634 97.09 6.87259 97.2543 6.8988C97.1646 6.63859 98.0184 6.86369 98.0994 6.86428C98.1915 6.86463 99.4897 6.73306 99.9746 6.71381C100.459 6.69492 101.304 6.72997 101.378 6.72684C101.463 6.72317 102.282 6.61579 102.923 6.58783C103.479 6.56502 106.826 6.5112 106.608 6.40306C106.389 6.3809 106.077 6.36739 105.808 6.3647C104.967 6.35963 100.088 6.51648 98.8297 6.54699C96.3325 6.61301 93.7052 6.72017 91.1961 6.78153C91.048 6.78519 91.0231 6.71768 90.896 6.72052C90.7032 6.72522 90.2158 6.81025 90.0254 6.81515C89.315 6.83322 88.4469 6.85021 88.0676 6.86052C87.2203 6.88403 86.6369 6.8607 85.9942 6.87333C85.7931 6.87746 84.7779 6.9922 84.0779 6.97601C83.9508 6.96035 83.8236 6.94467 83.6964 6.92897C84.056 6.89665 84.998 6.81169 85.4352 6.79205C86.086 6.76326 86.4268 6.80825 86.6669 6.79997C86.8683 6.79318 87.8916 6.69816 88.3597 6.68147C88.5055 6.67628 88.5377 6.74694 88.6624 6.74265C89.3392 6.71904 90.2292 6.68729 90.8122 6.59687C90.5742 6.62817 92.0672 6.6202 92.145 6.61694C92.2789 6.61215 92.4218 6.53996 92.695 6.53012C93.221 6.51111 93.1566 6.65385 93.8117 6.4893C93.9766 6.52409 94.1414 6.55885 94.3062 6.59357C94.3097 6.40684 96.3801 6.58204 96.9551 6.33137C96.9704 6.30579 94.292 6.33655 94.0695 6.34034C92.742 6.3677 90.7912 6.48228 89.5009 6.492C89.1132 6.49521 87.8898 6.42095 87.8003 6.42574C87.6528 6.43361 87.7882 6.49434 87.7245 6.49867C86.42 6.58782 87.0674 6.43682 86.8926 6.4045ZM144.568 4.42883C144.168 4.44864 143.772 4.46813 143.376 4.48755C143.401 4.44467 143.427 4.40178 143.453 4.3589C143.636 4.36239 143.818 4.36587 144 4.36934C144.138 4.33533 144.277 4.30121 144.416 4.26713C144.466 4.32103 144.517 4.37493 144.568 4.42883ZM145.536 4.1898C145.88 4.14534 145.902 4.23045 145.982 4.22916C146.22 4.22549 146.423 4.17636 146.653 4.16157C146.402 4.38496 145.831 4.33024 145.536 4.1898ZM138.419 4.59907C138.498 4.60367 139.026 4.79025 139.605 4.54513C140.052 4.58072 140.498 4.6162 140.944 4.65161C140.189 4.6026 139.151 4.77608 138.788 4.79628C138.649 4.80405 138.618 4.73807 138.507 4.74437C137.867 4.78157 137.253 4.97622 137.173 4.75615C137.784 4.78133 138.32 4.59359 138.419 4.59907ZM142.299 4.418C142.405 4.45791 142.511 4.49781 142.616 4.53771C142.246 4.56296 141.875 4.58816 141.504 4.6133C141.601 4.55904 141.698 4.50478 141.795 4.45052C141.963 4.43969 142.131 4.42885 142.299 4.418ZM113.734 6.00823C113.962 5.99677 114.19 5.98526 114.421 5.9736C114.406 5.94006 114.143 5.95419 114.046 5.93614C114.046 5.93611 114.047 5.93609 114.047 5.93607C113.939 5.91563 113.982 5.86918 113.786 5.86C113.769 5.90941 113.751 5.95882 113.734 6.00823ZM18.8672 6.5041C18.4805 6.48506 14.9366 6.30019 15.2322 6.43951C15.3811 6.51027 16.5951 6.52013 16.9515 6.5392C17.434 6.5657 18.7328 6.76562 18.8672 6.5041ZM12.5875 6.1451C12.5192 6.2666 14.7358 6.41122 14.9529 6.40042C14.9079 6.3802 14.8392 6.33689 14.7784 6.32459C14.4823 6.26581 13.0642 6.20709 12.5875 6.1451ZM100.891 6.26467C101.072 6.31986 101.253 6.37503 101.435 6.43015C101.384 6.35038 101.334 6.27061 101.283 6.19084C101.152 6.21547 101.021 6.24008 100.891 6.26467ZM83.5534 6.97097C80.5801 7.04917 77.5927 7.11494 74.6189 7.16672C74.8805 7.12778 75.1418 7.08872 75.403 7.04957C77.9609 7.01184 80.7133 6.98118 83.1815 6.86109C83.3055 6.89774 83.4294 6.93437 83.5534 6.97097ZM137.559 4.28664C136.798 4.33573 136.166 4.43757 135.329 4.39624C136.114 4.25212 136.515 4.36959 137.272 4.18268C137.273 4.18265 137.273 4.18262 137.274 4.1826C137.369 4.21728 137.464 4.25196 137.559 4.28664ZM120.548 5.31538C120.777 5.24496 121.005 5.1745 121.234 5.10399C120.955 5.12005 120.676 5.13605 120.397 5.15198C120.447 5.20645 120.498 5.26092 120.548 5.31538ZM57.5667 7.02494C56.765 7.15072 54.7263 6.92052 54.0777 7.06772C54.0357 7.07741 54.421 7.1424 53.7973 7.2627C54.2683 7.23952 54.6005 7.21486 54.6358 7.11839C54.7754 7.1516 54.915 7.18476 55.0546 7.2179C55.2863 7.19374 55.518 7.1695 55.7495 7.14516C55.7243 7.24127 55.7424 7.23624 56.0985 7.17096C56.2615 7.19556 56.4245 7.22011 56.5875 7.24461C56.6566 7.20394 56.7256 7.16327 56.7947 7.12259C56.9357 7.17965 57.0767 7.23668 57.2177 7.29367C57.7673 7.23191 57.4326 7.12151 57.5667 7.02494ZM60.3606 7.04344C60.2328 7.02449 56.5296 7.09761 58.2131 7.28775C58.6507 7.28122 59.0879 7.27436 59.5249 7.26717C59.1623 6.95053 60.3534 7.23141 60.451 7.23752C60.9191 7.26696 61.512 7.18879 61.8542 7.19094C62.1471 7.19291 62.3214 7.2489 62.5273 7.24625C63.2288 7.23744 64.3349 7.22706 64.4859 7.09432C63.9419 7.09592 63.3888 7.09843 62.8222 7.10521C62.2235 7.11222 61.6922 6.9914 60.5731 7.16574C60.2956 7.14844 60.3941 7.04874 60.3606 7.04344ZM121.932 5.07687C121.913 5.2104 123.319 5.09658 123.325 5.04386C123.326 5.01318 122.868 5.04083 122.801 5.03308C122.801 5.0331 122.801 5.03313 122.8 5.03315C122.772 5.0297 122.908 4.97114 122.692 4.96973C122.439 5.0055 122.186 5.04121 121.932 5.07687ZM24.3968 6.45811C24.2053 6.37923 19.8515 6.21168 19.7204 6.2378C19.6851 6.24597 19.7322 6.28075 19.7175 6.29883C20.7403 6.2433 22.1742 6.43209 23.1409 6.48164C23.4106 6.49543 23.3322 6.43952 23.3475 6.43919C23.3481 6.43922 23.3488 6.43924 23.3494 6.43927C23.5025 6.44578 24.1877 6.60297 24.3968 6.45811ZM52.6805 7.12143C52.866 7.1431 53.0514 7.16471 53.2368 7.18626C53.2841 7.14561 53.3313 7.10497 53.3786 7.06432C53.3781 7.06431 53.3777 7.06431 53.3773 7.06431C53.1451 7.08345 52.9129 7.10249 52.6805 7.12143ZM46.2557 6.92689C46.3005 6.95625 46.3454 6.98561 46.3902 7.01496C46.8578 7.02505 47.325 7.03474 47.7919 7.04402C47.7446 7.05972 47.6974 7.07542 47.6501 7.09111C48.3558 7.14257 48.6489 7.04434 49.0244 7.06264C49.024 7.06263 49.0235 7.06263 49.0231 7.06263C49.0635 7.06471 49.1119 7.12514 49.2622 7.12861C49.6072 7.13677 50.5929 7.16741 50.714 7.10791C50.966 6.9816 48.9806 7.02569 48.6088 7.01529C48.4412 7.01084 48.2401 6.95623 48.1381 6.95388C48.0263 6.9515 47.8733 7.02067 47.601 7.01534C47.5213 7.01378 46.6383 6.91979 46.2557 6.92689ZM38.0144 6.86179C38.1567 6.93002 38.4582 6.87433 38.5682 6.88743C38.5944 6.89053 38.3884 6.94013 38.6363 6.96205C38.7074 6.92663 38.7784 6.8912 38.8495 6.85575C38.5712 6.85792 38.2929 6.85993 38.0144 6.86179ZM124.294 4.87569C124.252 4.86429 123.498 4.91401 123.462 4.92493C123.017 5.06981 124.579 4.96459 124.294 4.87569ZM143.385 3.51224C143.02 3.3654 147.172 3.24833 147.567 3.21093C147.554 3.3202 146.566 3.28016 147.09 3.39238C146.594 3.3452 145.239 3.4826 144.917 3.48102C144.722 3.48015 144.666 3.39036 144.637 3.38944C144.52 3.38699 143.511 3.56447 143.385 3.51224ZM150.984 3.04416C150.59 3.0515 150.196 3.05881 149.801 3.06608C150.264 3.02114 150.727 2.97616 151.189 2.93113C151.121 2.9688 151.052 3.00648 150.984 3.04416ZM151.474 2.96017C151.454 2.85655 152.79 2.84163 153.137 2.7926C152.756 2.99849 152.088 2.87763 151.474 2.96017ZM129.299 4.30024C128.681 4.26918 128.439 4.60423 129.174 4.41928C129.196 4.41331 129.325 4.3023 129.299 4.30024ZM57.3765 6.57551C57.2721 6.57379 55.964 6.46903 55.8901 6.51995C55.6511 6.68318 56.5072 6.61897 56.795 6.68083C57.2584 6.78112 56.577 6.86363 57.708 6.80317C57.6617 6.83594 57.6155 6.86871 57.5693 6.90147C58.2311 6.91208 58.0142 6.68519 58.1329 6.65595C58.1693 6.64707 58.5826 6.66569 58.6571 6.65108C59.5882 6.46697 57.4745 6.57764 57.3765 6.57551ZM114.098 5.1543C112.874 5.12252 113.406 5.236 112.152 5.29237C112.115 5.36668 113.943 5.226 114.098 5.1543ZM69.2975 6.62545C68.0322 6.67041 66.9831 6.58797 65.8088 6.72562C65.8835 6.92158 69.6281 6.67291 69.2975 6.62545ZM9.85284 5.09467C14.7497 5.74585 20.4273 5.92097 25.6715 6.12195C26.2425 6.14403 26.2942 6.22317 26.501 6.2228C26.6365 6.22258 26.6152 6.15952 26.7949 6.1661C33.3002 6.40379 39.5314 6.47766 45.7613 6.60146C46.1551 6.60997 48.0655 6.76684 48.475 6.56912C48.7852 6.41971 47.4123 6.52393 47.1832 6.51947C47.0112 6.5164 47.0048 6.44449 46.8902 6.44282C46.7685 6.44105 46.8684 6.49137 46.7271 6.49033C46.1288 6.48624 45.4739 6.458 44.9334 6.45414C39.6372 6.41543 34.474 6.27702 29.2045 6.08618C28.5651 6.06297 28.6985 6.00995 28.6664 6.0086C28.666 6.00873 28.6655 6.00886 28.6651 6.00899C25.2509 5.88243 21.3379 5.8451 17.7153 5.61182C15.1714 5.44356 12.6177 5.2612 10.0766 5.06563C10.002 5.07532 9.92743 5.085 9.85284 5.09467ZM60.0805 6.77433C59.7615 6.55817 59.6915 6.77771 58.5481 6.69096C58.4552 6.72811 58.3622 6.76524 58.2691 6.80236C58.8742 6.79364 59.4786 6.78429 60.0824 6.77432C60.0818 6.77432 60.0811 6.77433 60.0805 6.77433ZM52.5308 6.68567C52.339 6.39229 49.7789 6.58159 48.632 6.51265C48.4199 6.65792 50.0914 6.6081 50.4843 6.62628C50.6806 6.63562 51.7385 6.79509 52.5415 6.71564C52.5379 6.70565 52.5343 6.69566 52.5308 6.68567ZM139.034 3.37499C138.85 3.39587 138.665 3.41674 138.481 3.43759C138.945 3.43921 139.413 3.44045 139.881 3.44157C139.135 3.47071 138.397 3.49895 137.655 3.52708C137.789 3.45728 137.923 3.38747 138.057 3.31764C138.383 3.33681 138.709 3.35592 139.034 3.37499ZM136.637 3.56522C137.932 3.45687 136.589 3.70863 136.26 3.65761C136.063 3.62703 136.504 3.57641 136.637 3.56522ZM133.253 3.68034C133.848 3.53525 135.074 3.44829 134.652 3.68935C133.987 3.63236 133.576 3.74208 132.625 3.74539C132.761 3.69576 132.896 3.64613 133.032 3.59647C133.032 3.59643 133.033 3.59639 133.034 3.59635C133.107 3.62435 133.18 3.65235 133.253 3.68034ZM137.221 3.39743C138.078 3.46366 135.616 3.5839 136.384 3.45255C136.42 3.4465 137.187 3.39499 137.221 3.39743ZM15.2997 5.18868C15.1937 5.25278 15.8467 5.28658 16.0635 5.30264C17.0009 5.37309 18.2172 5.40449 19.1976 5.46154C19.1248 5.43505 19.052 5.40856 18.9792 5.38205C17.7503 5.32061 16.5235 5.25614 15.2997 5.18868ZM22.2632 5.60426C22.9334 5.63396 23.6132 5.66315 24.2872 5.69116C24.3501 5.69379 24.6475 5.64622 24.4288 5.62263C23.7077 5.6176 22.9808 5.61126 22.2632 5.60426ZM64.3394 6.33327C63.822 6.29839 65.3093 6.0864 65.2439 6.30096C64.9426 6.31188 64.641 6.32265 64.3394 6.33327ZM69.152 6.19753C68.8277 6.22212 68.5032 6.24655 68.1785 6.27082C68.1778 6.24619 68.1771 6.22156 68.1763 6.19693C68.5017 6.1973 68.8269 6.19749 69.152 6.19753ZM12.654 4.99178C12.9928 5.09587 13.8127 5.12942 14.3228 5.15926C13.9754 5.0676 13.1351 5.05596 12.654 4.99178ZM56.5858 6.27393C56.6252 6.33197 54.572 6.31318 55.2831 6.21363C55.7166 6.23406 56.1495 6.25416 56.5858 6.27393ZM52.4092 6.17485C52.851 6.16485 53.1926 6.1862 53.1014 6.276C52.8674 6.27099 52.6333 6.26587 52.3991 6.26066C52.4024 6.23206 52.4058 6.20345 52.4092 6.17485ZM130.939 3.6555C130.198 3.71042 129.449 3.76537 128.711 3.81921C128.737 3.79292 128.763 3.76663 128.789 3.74034C129.501 3.6882 130.222 3.63511 130.937 3.582C130.938 3.6065 130.939 3.631 130.939 3.6555ZM12.2464 4.74645C11.7344 4.73273 11.2235 4.71851 10.7146 4.70386C11.2219 4.75109 11.7314 4.79789 12.242 4.8442C12.2439 4.8115 12.2458 4.7788 12.2477 4.7461C12.2473 4.74622 12.2468 4.74634 12.2464 4.74645ZM141.089 2.67121C138.811 2.70973 141.7 2.39328 142.308 2.5208C142.309 2.52061 142.309 2.52042 142.31 2.52024C142.363 2.53156 142.258 2.6111 142.347 2.63422C142.114 2.61738 141.881 2.60053 141.648 2.58365C141.44 2.63842 141.233 2.69318 141.025 2.74792C140.954 2.7367 140.884 2.72547 140.813 2.71425C140.905 2.69991 140.997 2.68555 141.089 2.67121ZM150.235 1.97371C152.293 1.84137 150.202 2.17054 149.171 2.10014C149.176 2.06673 150.045 1.9859 150.235 1.97371ZM144.849 2.38899C144.525 2.42772 144.201 2.46648 143.878 2.50509C143.835 2.48732 143.792 2.46955 143.75 2.45178C143.995 2.41438 144.245 2.37663 144.493 2.33902C144.611 2.35568 144.73 2.37234 144.849 2.38899ZM134.17 2.78466C133.649 2.79555 132.996 3.06795 134.669 2.8992C134.666 2.87467 134.664 2.85014 134.661 2.82561C134.595 2.83388 134.4 2.86968 134.389 2.86854C134.358 2.86438 134.389 2.77993 134.17 2.78466ZM153.993 1.05581C154.051 1.04225 154.065 0.780765 154.694 1.00516C154.878 0.975601 155.061 0.946038 155.244 0.916469C155.296 0.970153 155.347 1.02384 155.399 1.07752C154.683 1.08446 154.615 1.2054 154.563 1.21157C154.327 1.23939 154.498 1.16738 154.345 1.17754C153.949 1.20398 153.056 1.30787 153.449 1.10926C153.59 1.03814 153.936 1.06934 153.993 1.05581ZM152.592 1.00771C152.679 1.02321 152.407 1.11882 152.474 1.13561C152.532 1.15025 153.394 1.16655 153.171 1.31118C153.03 1.31581 152.889 1.32044 152.748 1.32507C152.698 1.29337 152.648 1.26169 152.598 1.22999C152.464 1.27209 152.33 1.31417 152.196 1.35625C151.96 1.28601 151.463 1.20859 152.039 1.09674C151.826 1.1193 151.613 1.14185 151.4 1.16439C151.292 1.21372 151.185 1.26305 151.077 1.31237C151.13 1.24505 151.184 1.17772 151.237 1.1104C151.689 1.07621 152.141 1.04198 152.592 1.00771ZM159.217 0.555602C159.193 0.590163 159.169 0.624723 159.146 0.659281C159.928 0.541522 161.149 0.429596 160.469 0.684885C159.408 0.779131 158.338 0.873778 157.282 0.967134C157.21 0.947645 157.138 0.928158 157.066 0.908667C157.864 0.946212 157.59 0.560999 158.286 0.626863C158.404 0.638036 158.076 0.803439 158.803 0.66015C158.774 0.629231 158.746 0.598309 158.717 0.567388C158.884 0.563462 159.05 0.559531 159.217 0.555602ZM165.969 0.113027C164.622 0.163964 166.093 -0.0633829 166.348 0.0176322C166.347 0.0176638 166.347 0.0176948 166.347 0.0177252C167.045 0.2393 165.576 0.214989 165.486 0.223249C165.368 0.234315 165.106 0.44864 164.439 0.212751C164.95 0.179483 165.46 0.146236 165.969 0.113027ZM161.578 0.384549C161.69 0.36995 161.631 0.4238 161.68 0.419526C161.68 0.419496 161.681 0.419464 161.681 0.419433C162.396 0.356769 164.106 0.187687 164.304 0.333168C163.768 0.38571 161.394 0.593271 161.241 0.495543C161.353 0.458546 161.466 0.421545 161.578 0.384549ZM156.525 0.869672C156.077 0.798435 157.069 0.713156 157.332 0.742081C157.382 0.748871 156.99 0.943462 156.525 0.869672ZM122.639 2.85524C121.672 2.97396 122.951 2.9614 122.515 3.08417C122.7 3.06509 122.885 3.04599 123.07 3.02686C122.926 2.96967 122.783 2.91246 122.639 2.85524ZM78.3258 4.52144C78.0984 4.51507 78.2073 4.57194 78.1876 4.57326C78.0384 4.57496 77.8966 4.52977 77.8395 4.53614C76.7856 4.65671 77.489 4.69118 77.4994 4.70256C77.5231 4.76074 77.2474 4.83541 77.6328 4.89409C77.8666 4.86818 78.1002 4.84219 78.3337 4.81612C78.4506 4.84611 78.5674 4.87607 78.6843 4.90601C79.1473 4.82536 78.5389 4.82019 78.4678 4.7289C78.4405 4.69302 78.8765 4.63941 78.3258 4.52144ZM120.888 2.75998C120.736 2.87194 120.357 3.02389 120.742 3.10553C120.743 3.10551 120.743 3.10548 120.744 3.10546C120.815 3.12035 121.101 3.11432 121.191 3.13582C121.808 2.96258 121.561 2.83484 120.888 2.75998ZM82.5064 4.23377C82.8813 4.24784 83.2605 4.26158 83.6381 4.27517C83.6334 4.33713 83.6287 4.39909 83.624 4.46105C83.4217 4.45 83.2193 4.43889 83.0168 4.42773C82.9468 4.45784 82.8767 4.48795 82.8072 4.51803C83.0588 4.58176 83.3123 4.64535 83.5647 4.70888C83.8661 4.67588 84.1672 4.64276 84.4682 4.60951C84.3286 4.58088 84.189 4.55221 84.0494 4.52352C84.7858 4.46662 84.6295 4.62142 85.2411 4.66109C85.4482 4.59775 85.6552 4.53435 85.862 4.47089C86.1658 4.51937 86.4694 4.56772 86.7729 4.61595C87.279 4.57345 87.322 4.52821 86.9789 4.47324C87.2286 4.39053 87.508 4.49974 87.8103 4.4596C87.8352 4.45634 87.7858 4.38728 87.8079 4.38572C89.3783 4.28787 89.3027 4.47498 89.554 4.47471C89.7316 4.47428 90.4352 4.32529 90.4448 4.28224C90.4562 4.22421 88.9783 4.04825 91.2807 3.96313C90.0859 3.84808 88.7347 4.05192 89.6191 4.25282C89.2409 4.24265 87.5778 4.35362 87.4738 4.34967C87.3194 4.34409 87.3707 4.25518 87.1776 4.25892C87.0634 4.26118 86.7674 4.47026 85.8576 4.32313C85.743 4.35933 85.6284 4.3955 85.5137 4.43166C85.4045 4.40796 85.2954 4.38425 85.1861 4.36052C85.4066 4.25804 85.6269 4.1555 85.847 4.05289C84.9666 4.18354 84.2268 4.00855 83.6922 4.18861C83.2253 4.18237 82.998 4.16947 83.1962 4.07964C83.0563 4.08347 82.9153 4.0873 82.7765 4.09104C82.6865 4.13863 82.5965 4.18621 82.5064 4.23377ZM118.04 3.06868C117.574 2.99866 117.419 3.21421 117.491 3.22193C117.9 3.26378 118.283 3.10507 118.04 3.06868ZM79.1695 4.61186C79.6818 4.65314 80.1937 4.69405 80.7052 4.73457C80.7035 4.66923 80.7019 4.60388 80.7003 4.53853C80.1905 4.56335 79.6802 4.5878 79.1695 4.61186ZM122.772 2.70022C122.822 2.74638 122.872 2.79254 122.922 2.8387C123.469 2.62731 124.035 2.85094 124.31 2.78145C124.369 2.76631 124.243 2.68718 124.127 2.67548C124.056 2.66823 122.871 2.67803 122.772 2.70022ZM146.03 1.22243C145.824 1.2697 145.618 1.31696 145.412 1.3642C145.42 1.30842 145.428 1.25264 145.435 1.19686C145.538 1.17951 145.64 1.16215 145.742 1.14479C145.838 1.17068 145.934 1.19655 146.03 1.22243ZM143.665 1.47353C143.294 1.49451 142.924 1.51544 142.553 1.53632C143.962 1.38933 142.801 1.44401 143.654 1.31369C143.657 1.36697 143.661 1.42025 143.665 1.47353ZM139.902 1.61736C139.945 1.58147 139.989 1.54557 140.032 1.50967C140.404 1.48466 140.776 1.45957 141.147 1.43444C140.905 1.33638 140.662 1.2383 140.419 1.14019C140.283 1.14909 140.147 1.15798 140.011 1.16687C139.974 1.31703 139.938 1.4672 139.902 1.61736ZM68.2906 4.4506C68.0659 4.45146 67.2843 4.56019 67.3182 4.59649C67.644 4.63802 67.9697 4.67938 68.2952 4.72058C68.2959 4.65505 68.2966 4.58953 68.2973 4.52401C68.3436 4.55606 68.3899 4.58811 68.4363 4.62015C68.6207 4.59339 68.8051 4.56657 68.9894 4.53969C69.0832 4.59574 69.177 4.65177 69.2709 4.70778C69.3635 4.64119 69.4561 4.57458 69.5486 4.50796C68.656 4.40395 68.6879 4.51906 68.5023 4.52021C68.4081 4.52082 68.3481 4.48099 68.3144 4.46099C68.3065 4.45753 68.2985 4.45407 68.2906 4.4506ZM79.5127 4.18667C78.4488 4.19557 77.8383 4.3815 77.0696 4.25372C77.5665 4.55166 80.7557 4.16032 81.881 4.38576C81.9962 4.33346 82.1114 4.28115 82.2265 4.22881C81.6171 4.2888 81.191 4.19806 80.8925 4.19097C80.6554 4.18533 80.6814 4.23631 80.6633 4.23603C80.6624 4.23605 80.6616 4.23607 80.6607 4.23609C80.1056 4.22865 79.9327 4.18307 79.5127 4.18667ZM123.547 2.41329C123.257 2.35243 122.759 2.38949 122.76 2.50325C123.039 2.51981 123.319 2.53631 123.598 2.55275C123.54 2.52707 123.596 2.42371 123.547 2.41329ZM139.448 1.3297C139.221 1.30782 138.696 1.37537 138.93 1.45812C138.972 1.4728 139.494 1.36872 139.197 1.56617C139.709 1.52909 139.576 1.34238 139.448 1.3297ZM97.6946 3.8316C97.8818 3.82075 98.0689 3.80986 98.2559 3.79892C98.2976 3.75132 98.3393 3.70372 98.3811 3.65611C98.1524 3.71467 97.9236 3.77317 97.6946 3.8316ZM125.955 2.19054C126.219 2.39945 126.632 2.15562 127.111 2.31121C127.284 2.30207 127.456 2.29291 127.629 2.28374C127.629 2.28371 127.63 2.28368 127.63 2.28366C127.631 2.22225 127.632 2.16084 127.633 2.09943C127.075 2.13002 126.515 2.16039 125.955 2.19054ZM85.989 4.13455C86.1054 4.15955 86.2218 4.18453 86.3381 4.20949C86.5428 4.17009 86.7473 4.13062 86.9518 4.0911C86.8399 4.07077 86.728 4.05042 86.6161 4.03005C86.4072 4.06494 86.1981 4.09977 85.989 4.13455ZM128.99 1.98526C128.385 1.99461 128.17 2.20336 128.941 2.15605C129.267 2.13584 129.626 1.97507 128.99 1.98526ZM56.731 4.58991C56.9388 4.60673 57.1465 4.62347 57.3541 4.64015C57.4248 4.59914 57.4955 4.55812 57.5662 4.51709C57.288 4.54149 57.0096 4.56577 56.731 4.58991ZM142.319 1.15786C142.298 1.20043 142.276 1.24301 142.255 1.28558C142.07 1.28991 141.884 1.29423 141.699 1.29854C141.743 1.25475 141.786 1.21096 141.83 1.16716C141.993 1.16408 142.156 1.16097 142.319 1.15786ZM58.128 4.61506C58.2938 4.62275 58.4597 4.6304 58.6254 4.638C58.7368 4.6179 58.8481 4.59779 58.9593 4.57765C58.8043 4.55813 58.6492 4.53857 58.4941 4.51897C58.3721 4.55103 58.2501 4.58306 58.128 4.61506ZM134.725 1.63942C134.488 1.6054 133.566 1.81906 134.408 1.80381C134.945 1.79394 134.76 1.64462 134.725 1.63942ZM135.978 1.5084C135.084 1.47268 135.781 1.90516 136.818 1.5272C135.757 1.63954 136.03 1.51062 135.978 1.5084ZM143.749 0.739706C143.772 0.738422 143.794 0.805596 143.973 0.795836C144.617 0.760494 145.466 0.728907 145.925 0.701243C147.027 0.635381 150.393 0.274366 150.804 0.443848C150.889 0.479593 150.709 0.617206 150.742 0.621232C150.842 0.632125 151.402 0.531817 151.304 0.630659C150.75 0.669251 150.196 0.707775 149.64 0.746227C149.772 0.672118 149.904 0.598008 150.035 0.523891C148.654 0.655914 149.112 0.619593 148.723 0.788073C148.486 0.750051 148.25 0.711957 148.013 0.673874C147.509 0.764102 147.005 0.854261 146.501 0.944339C146.613 0.895543 146.725 0.846742 146.838 0.79794C146.067 0.775755 146.283 0.81045 145.87 0.938455C145.867 0.897742 145.863 0.857026 145.859 0.816311C145.126 0.967041 144.972 0.85477 144.81 0.864487C144.479 0.884921 144.084 1.39707 142.792 1.00315C142.275 1.27038 142.255 0.799823 141.958 1.05996C141.039 0.861262 142.761 0.838854 143.57 0.791812C143.571 0.791782 143.571 0.791754 143.572 0.791724C143.633 0.788271 143.533 0.751148 143.749 0.739706ZM139.13 1.2932C139.661 1.04489 137.505 1.16872 138.238 1.42718C138.345 1.43006 138.452 1.43295 138.558 1.43582C138.749 1.38829 138.939 1.34081 139.131 1.29311C139.13 1.29314 139.13 1.29317 139.13 1.2932ZM118.839 2.40871C116.849 2.6073 117.99 2.66606 118.659 2.5091C118.792 2.47791 118.864 2.44135 118.839 2.40871ZM77.9868 4.05853C77.9581 4.08467 77.9294 4.1108 77.9006 4.13694C78.573 4.09843 79.8735 4.1659 79.8514 3.99437C79.2306 4.01632 78.609 4.03771 77.9868 4.05853ZM83.2897 3.81423C83.1445 3.8079 82.5556 3.79931 82.6286 3.86167C82.8834 3.90042 83.1414 3.93899 83.3981 3.9775C83.5164 3.94575 83.6347 3.91398 83.7529 3.88218C83.5865 3.87715 83.3289 3.81587 83.2897 3.81423Z" fill="var(--stroke-0, #0061FE)"/>
</svg>
