<svg preserveAspectRatio="none" width="100%" height="100%" overflow="visible" style="display: block;" viewBox="0 0 15 15" fill="none" xmlns="http://www.w3.org/2000/svg">
<g id="Icon">
<path id="Vector" fill-rule="evenodd" clip-rule="evenodd" d="M6.84375 13.7812C6.46875 13.4062 6.46875 12.7969 6.84375 12.4219L11.7469 7.5L6.84375 2.57812C6.46875 2.20312 6.46875 1.59375 6.84375 1.21875C7.21875 0.84375 7.81875 0.84375 8.19375 1.21875L13.7812 6.825C14.1562 7.2 14.1562 7.8 13.7812 8.175L8.19375 13.7812C7.81875 14.1562 7.21875 14.1562 6.84375 13.7812Z" fill="#0061fe"/>
<path id="Vector_2" opacity="0" d="M1.94062 6.5625C1.3875 6.5625 0.9375 6.98437 0.9375 7.5C0.9375 8.01563 1.3875 8.4375 1.94062 8.4375V6.5625ZM13.125 6.5625H1.94062V8.4375H13.125V6.5625Z" fill="#0061fe"/>
</g>
</svg>
