<svg preserveAspectRatio="none" width="100%" height="100%" overflow="visible" style="display: block;" viewBox="0 0 57.5106 148.532" fill="none" xmlns="http://www.w3.org/2000/svg">
<path id="Ellipse 41" d="M57.1259 66.3536C57.506 69.0179 57.5592 71.3464 57.4779 73.5764C57.3598 76.7214 56.9841 79.6391 56.7283 83.1193C55.8244 96.187 53.5296 113.453 48.6531 126.285C44.9009 134.842 41.2145 146.954 27.7974 148.532C27.1761 148.527 26.5578 148.474 25.9519 148.376C25.2962 148.267 24.9294 148.101 24.6416 148.023C21.8358 147.392 18.2644 144.72 16.7233 142.913C13.1133 139.215 9.49727 131.718 8.10819 127.659C7.48942 125.965 6.91147 124.188 6.83493 123.472C6.63647 122.833 6.40602 122.53 6.34903 122.371C6.34858 122.369 6.34813 122.367 6.34768 122.365C6.16263 121.851 5.85231 120.475 5.76212 120.172C5.74967 120.131 5.73256 120.421 5.55981 119.703C5.54455 119.639 5.6218 119.681 5.45611 119.077C5.41033 118.927 4.77147 116.895 4.63025 116.326C4.10184 114.365 3.19031 109.72 2.78973 107.364C2.72627 107.006 2.65455 106.807 2.58863 106.427C2.55454 106.231 2.54328 105.928 2.53293 105.868C2.48489 105.598 2.12451 104.478 2.53614 104.833C2.3231 103.641 2.26686 104.01 2.18809 103.995C1.97573 102.692 2.04752 102.016 1.8287 101.708C0.944312 95.2683 0.428453 88.7706 0.219627 82.2876C0.193001 82.2868 0.166374 82.286 0.139749 82.2851C0.18062 80.3535 -0.00703502 79.7245 0.12495 78.6225C0.0798268 77.9495 0.0381365 77.2697 0.00013876 76.603C-0.000948429 75.5988 0.00434875 74.5898 0.0162489 73.5764C0.256387 57.3004 1.92049 40.9867 6.77817 25.469C7.00001 24.7816 7.09565 24.625 7.48687 23.4778C7.91302 22.2326 8.50649 20.4534 9.17877 18.8237C9.75942 17.3971 10.7239 15.353 11.5381 13.795C11.7168 13.4498 11.8223 13.1923 11.8427 13.1541C11.9613 12.9332 12.0115 12.9327 12.1332 12.7103C12.2802 12.4421 12.4291 12.1059 12.6024 11.8057C13.2355 10.6955 14.0233 9.46098 14.1074 9.3406C14.5617 8.66363 14.7036 8.54675 14.7408 8.49197C15.26 7.76831 15.0368 8.02157 15.1676 7.84384C15.8799 6.90856 16.4371 6.33017 17.4756 5.08062C17.4711 5.1359 17.4669 5.19117 17.4628 5.24645C18.3136 4.38465 17.6954 4.89853 17.8573 4.70632C17.9052 4.5918 19.9271 2.80522 20.1307 2.71486C20.7126 2.29192 20.7822 2.31425 20.8298 2.27951C20.9467 2.17774 22.5274 1.14302 23.4732 0.842577C24.5858 0.467067 23.33 1.04168 23.6091 0.954779C23.6534 0.924974 24.7907 0.529153 24.9649 0.52979C25.141 0.50655 24.144 0.800172 24.1665 0.817365C24.1694 0.792922 25.866 0.419837 25.5535 0.550795C25.2808 0.589887 23.0596 1.29734 22.669 1.58361C22.5989 1.62261 22.7578 1.602 22.6954 1.63554C22.5644 1.69834 21.3352 2.34213 20.276 3.17501C19.1872 4.0057 18.2856 4.93483 18.1888 5.02557C18.3602 4.81604 18.5337 4.61129 18.7092 4.41139C18.4539 4.64922 18.1881 4.91021 17.9503 5.15372C18.2779 4.78467 18.637 4.40678 18.9896 4.06112C18.268 4.39877 16.9058 6.18921 16.9363 6.34246C16.9468 6.39719 17.9348 5.45303 17.1553 6.45484C17.2904 6.31512 17.426 6.17808 17.5619 6.04373C17.8095 5.7362 18.0554 5.4438 18.3146 5.15152C18.1217 5.3303 17.9395 5.50404 17.7532 5.68789C17.8075 5.60794 17.8622 5.52851 17.9171 5.44962C18.3926 4.91132 18.9341 4.35503 19.4687 3.86459C19.7743 3.61676 19.739 3.70204 19.9502 3.53888C22.6821 1.66447 20.8174 2.78933 22.7383 1.70319C23.0326 1.57995 23.3195 1.47238 23.6241 1.37011C23.4909 1.33485 24.4049 0.971468 25.5876 0.683939C25.4521 0.742107 25.3181 0.802975 25.1857 0.866428C25.8822 0.676669 26.9047 0.546221 27.7974 0.572678C29.0617 0.600147 30.0145 0.863647 29.4824 0.659368C29.8766 0.739886 30.2581 0.8411 30.6385 0.963917C30.9657 1.03116 31.2897 1.11313 31.6142 1.21071C32.0384 1.37685 32.468 1.57515 32.8649 1.78429C32.8605 1.79743 32.8561 1.81058 32.8517 1.82372C32.535 1.65953 32.1954 1.50093 31.8601 1.36292C32.0964 1.50571 32.3309 1.65784 32.5559 1.81504C32.7948 1.92473 33.0323 2.04284 33.2684 2.16915C32.3035 1.59773 33.6398 2.24118 33.9565 2.39897C34.7638 2.89324 35.1855 3.33233 35.4201 3.52327C35.5435 3.60001 36.8964 4.66089 36.3089 4.30982C36.9682 4.8935 37.59 5.52235 38.1626 6.16029C38.378 6.4253 38.5894 6.696 38.7898 6.96253C38.2864 6.4319 39.5443 8.1338 38.5548 6.93184C37.7962 6.04111 37.642 5.80648 37.2555 5.39336C36.9087 5.03249 36.6925 4.87187 36.2897 4.49737C33.8376 2.25307 31.1061 0.737716 27.7974 0.688822C27.4745 0.686205 27.1492 0.698915 26.821 0.727837C26.0935 0.7913 25.4567 0.9536 24.9836 1.08306C24.4613 1.23346 25.0979 0.982934 24.4396 1.20433C23.7531 1.45464 23.6204 1.57688 23.4502 1.6483C23.3432 1.69512 22.9866 1.81415 22.6767 1.97666C21.386 2.61067 19.8272 3.94365 19.6775 4.09079C19.4634 4.15684 16.7274 7.01861 16.6849 7.17567C16.6218 7.25181 16.6277 6.99141 16.2272 7.77163C16.0648 7.98984 15.9078 8.20673 15.7588 8.41767C15.7592 8.36591 15.7597 8.31418 15.7604 8.26246C14.9565 9.58977 15.1798 9.15291 14.3869 10.3977C12.4366 13.4616 10.2237 18.2613 8.92217 21.9578C8.62452 22.7897 8.55791 23.0918 8.22778 24.0774C7.91028 25.0026 7.07522 27.3306 7.38738 26.8657C6.64161 28.8683 6.79902 29.2534 6.36794 30.2562C6.35635 30.3843 6.34495 30.5127 6.33373 30.6414C5.95113 31.7226 5.94105 32.0988 5.6541 33.3288C5.53411 33.8529 5.57704 33.2239 5.43847 34.311C5.38285 34.5124 5.32755 34.7146 5.27258 34.9175C5.2592 34.8645 5.24585 34.8115 5.23253 34.7585C4.98107 35.9545 4.9548 36.0356 5.07543 35.9167C4.93303 36.4853 4.79565 37.0476 4.6596 37.6207C4.67501 37.6984 4.6905 37.776 4.70606 37.8538C4.66545 37.5734 7.88779 24.6053 8.69697 22.9046C9.45332 20.8497 11.0573 16.7506 11.8753 15.183C12.1975 14.5384 12.3898 14.2876 12.8733 13.387C13.3739 12.453 13.9641 11.3317 14.2651 10.8433C14.9847 9.10231 20.9134 2.56414 17.001 7.09546C17.1319 6.98226 17.2594 6.87534 17.3937 6.76262C18.9041 4.91369 18.3675 5.57053 19.8169 4.24699C20.4401 3.66222 22.0738 2.49647 22.0581 2.68764C20.7111 3.53287 19.4761 4.5633 18.5268 5.54978C18.4402 5.62357 17.3946 6.8616 16.9071 7.47331C16.4537 8.03561 16.6156 7.57574 15.8208 8.92815C15.0206 9.81948 14.7789 10.4672 14.6266 10.7351C14.3655 11.2041 14.2729 11.2195 13.9883 11.6856C13.692 12.1733 13.539 12.5493 13.5006 12.6186C13.057 13.3288 11.2811 17.0318 11.1987 17.2218C11.255 17.0623 11.3117 16.9036 11.3688 16.7458C10.9064 17.7272 11.0682 17.559 10.9633 17.8209C10.8812 18.0107 10.7995 18.2018 10.7182 18.3943C10.7359 18.312 10.7536 18.2298 10.7715 18.1477C10.2877 19.3162 10.7033 18.4302 10.0273 20.1223C9.61572 21.1665 9.1526 22.2787 9.1188 22.3876C9.10918 22.4184 9.26959 22.0913 9.11734 22.5338C8.86963 23.2479 8.44262 24.5217 8.34282 24.6508C8.23066 25.0187 8.29448 25.0024 8.28016 25.0503C8.20645 25.2403 7.13126 28.8664 6.97305 29.5232C6.4832 31.3343 5.96825 33.3505 5.53575 35.3299C5.49096 35.5349 5.48412 35.3962 5.43958 35.6021C5.36235 35.9456 5.06774 37.6135 5.02168 37.8736C4.89923 38.51 4.55888 40.1576 4.52967 40.4205C4.5252 40.4578 4.67613 39.9227 4.57352 40.5621C4.46081 41.2737 4.46357 40.8804 4.45577 40.9186C4.1685 42.3721 4.06805 43.2744 3.91792 44.2688C3.8697 44.5889 3.72427 45.1818 3.67178 45.6344C3.66573 45.6862 3.72898 45.5911 3.72369 45.6421C3.64668 46.3226 3.4663 46.9496 3.41868 47.2457C3.3028 47.9704 3.42439 47.5839 3.41946 47.6217C3.35457 48.1054 3.24139 48.7637 3.15208 49.4902C2.75192 52.7835 2.48577 55.4471 2.21295 58.9649C2.17946 59.4029 2.09407 59.9186 2.08936 59.9861C2.07546 60.1937 2.13655 60.1376 2.09544 60.7389C2.00924 62.0107 1.94623 63.1879 1.88622 64.4428C1.87419 64.6961 1.81504 64.802 1.80527 64.9955C1.76903 65.6508 1.83723 67.855 1.65973 67.8879C1.78056 69.1784 1.62698 70.0369 1.61285 71.0664C1.60328 71.8 1.59869 72.6611 1.60076 73.5764C1.6037 75.7143 1.65273 78.1019 1.68753 79.817C1.69751 80.3305 1.65764 80.5722 1.66434 80.857C1.6707 81.3766 1.82514 84.3114 1.83025 84.4592C1.83214 84.7587 1.60509 84.5959 1.88088 86.1378C1.94914 87.0455 1.85586 86.9429 1.86281 87.1309C1.91931 88.5828 2.23343 90.0123 2.03068 89.7555C2.21296 91.45 2.42076 92.546 2.31685 93.2585C2.39945 93.2411 2.52649 94.0373 2.597 94.9951C2.35496 94.0291 2.26847 94.1702 2.07503 91.7626C2.07208 91.7246 2.13859 91.7915 2.13564 91.7535C2.1092 91.4117 2.01846 90.7091 1.97553 90.1264C1.93278 89.544 1.99921 89.8639 1.98023 89.6307C1.96297 89.417 1.90626 89.4288 1.88228 89.1188C1.80461 88.1065 1.73248 87.233 1.69635 86.6612C1.67366 86.3022 1.69991 85.8962 1.68417 85.6163C1.61915 84.5218 1.4771 82.2633 1.44066 80.8741C1.43295 80.5895 1.4911 80.7075 1.47737 80.0838C1.47589 80.0108 1.41067 79.7472 1.38556 79.1993C1.36058 78.6511 1.38059 78.2237 1.36842 77.8699C1.35855 77.575 1.30955 77.6962 1.29779 77.0938C1.29243 76.8337 1.28092 75.1718 1.29757 73.5764C1.31088 72.1055 1.34567 70.7214 1.35215 70.5737C1.37146 70.1295 1.445 69.9239 1.4425 69.6487C1.44175 69.6006 1.37686 69.5179 1.37601 69.3512C1.34043 66.6155 1.73716 60.5689 2.02046 57.4577C2.57195 50.9604 3.33139 44.9576 4.602 38.4902C4.61507 38.3719 4.62825 38.2538 4.64157 38.1359C4.50725 38.7962 4.37924 39.4489 4.25608 40.0994C4.22745 40.0984 4.19883 40.0974 4.1702 40.0964C3.99978 40.98 4.08911 40.8766 4.13322 40.8582C4.05604 41.1839 3.97964 41.5111 3.90403 41.8398C3.9471 42.1492 3.51381 44.306 3.34199 45.4591C3.22987 46.1882 3.14158 47.071 3.08411 47.4612C2.96277 48.286 2.90487 48.2581 2.89474 48.3227C2.87681 48.4403 2.78022 49.5823 2.67688 50.414C2.5256 51.6417 2.40882 51.7743 2.3112 53.4555C2.03074 55.6157 1.84528 58.0114 1.69416 60.3373C1.6313 59.8852 1.57643 61.9874 1.52607 62.9301C1.33701 66.2028 1.20397 69.9044 1.17237 73.5764C1.14695 76.3599 1.17734 79.1018 1.24951 81.6155C1.27126 82.3695 1.23629 82.9386 1.25642 83.3558C1.26737 83.5819 1.34123 83.6772 1.34674 83.9909C1.34772 84.0462 1.28376 84.087 1.30302 84.6712C1.34243 86.145 1.70078 89.7582 1.65722 90.6861C2.0836 95.6656 2.70258 100.614 3.56355 105.556C3.5568 105.685 3.55016 105.815 3.54363 105.945C3.83888 106.863 4.44939 110.558 4.86718 112.359C5.56238 115.513 6.66461 119.486 7.53631 122.194C7.72173 122.778 7.84218 123.288 8.02758 123.84C8.1078 124.078 8.26119 124.354 8.34587 124.598C9.29837 127.387 10.7512 131.111 12.1425 133.774C15.317 139.52 19.1481 146.266 27.3685 147.117C27.5112 147.123 27.6542 147.127 27.7974 147.127C41.7195 144.95 45.0473 130.942 48.7388 120.848C52.0294 109.961 53.7127 98.7415 54.5687 87.5268C54.5911 87.2257 54.6723 87.2462 54.6895 87.0123C54.797 85.6244 54.9004 82.5359 54.9604 80.9574C55.0149 79.7207 55.1968 77.7348 55.0746 77.2989C54.7831 81.732 54.5505 86.4093 54.0788 91.0022C54.0455 91.3269 53.964 91.36 53.959 91.3999C53.8624 92.1364 54.0146 91.6818 53.9126 92.7642C53.8852 93.1314 53.2694 96.4161 53.5532 96.0538C53.3835 96.8491 52.5631 102.411 52.3894 103.506C52.3454 103.834 52.4537 103.615 52.4466 103.68C52.4156 103.964 52.2975 104.074 52.2528 104.324C52.1393 104.976 51.9052 106.721 51.843 107.035C51.7098 107.764 51.1819 110.001 50.9875 110.962C50.8088 111.859 50.9424 111.721 50.7756 112.497C50.6415 113.107 50.715 112.431 50.3712 113.773C50.2045 114.444 49.6634 116.802 49.5024 117.369C49.3462 117.944 49.1128 118.561 48.8928 119.334C48.5778 120.466 47.8438 122.896 47.461 124.035C47.4389 124.102 47.4542 124.29 47.3951 124.454C47.2725 124.792 47.2199 124.659 47.1203 124.911C47.0415 125.199 45.3251 129.618 44.9478 130.357C44.7173 130.872 44.6056 131.242 44.4752 131.519C44.3718 131.737 44.2949 131.72 44.1844 131.949C44.1507 132.02 43.9216 132.65 43.6242 133.228C43.3667 133.763 42.1546 135.814 42.0041 136.036C41.9109 136.191 42.0599 136.051 41.7823 136.506C41.5284 136.918 41.3013 137.143 41.1544 137.369C40.8111 137.896 40.4436 138.54 40.053 139.075C38.8695 140.661 38.8404 140.483 38.7705 140.58C38.5612 140.819 38.5243 140.98 38.4557 141.062C38.157 141.425 37.4223 142.228 37.11 142.528C36.7409 142.89 36.5381 142.978 36.1306 143.334C35.8076 143.612 35.2471 144.178 34.4402 144.72C32.6955 145.936 30.1436 146.913 27.9229 146.885C27.8786 146.885 27.8369 146.885 27.7974 146.884C27.2515 146.87 27.1568 146.796 26.972 146.782C25.9315 146.681 25.3578 146.588 25.0657 146.514C22.9229 146.054 19.9571 143.845 18.716 142.512C18.1368 142.013 15.9688 139.576 15.0182 138.052C14.9025 137.878 15.0526 138.013 14.917 137.824C14.5913 137.363 14.5431 137.47 14.3964 137.234C14.3269 137.121 14.2134 136.835 14.0149 136.496C12.9914 134.741 12.3369 133.517 11.9349 132.7C8.10015 124.745 5.88547 116.056 4.36631 108.086C4.20114 107.209 3.94547 106.11 3.7724 104.745C3.79366 104.7 3.81493 104.654 3.8362 104.608C3.80087 104.566 3.76557 104.524 3.73029 104.481C3.46958 102.972 3.34107 102.366 3.15571 100.815C3.1397 100.681 3.20953 100.253 3.01726 100.02C2.92399 98.4496 2.92048 99.3121 2.76363 98.1625C2.61081 97.0223 2.51601 95.8846 2.40607 94.7645C2.39421 94.1417 2.80448 96.712 2.82857 96.8762C2.8599 97.1459 2.81558 97.435 2.84306 97.694C2.92323 98.4552 3.08484 99.2028 3.0378 99.3836C3.24498 100.37 3.04202 99.1346 3.12548 99.2499C3.18593 99.9201 3.24966 100.586 3.31662 101.247C3.58092 101.546 3.86433 105.254 4.00301 104.962C4.01751 105.262 4.03262 105.56 4.04837 105.858C4.49262 107.097 4.46879 107.849 4.74186 109.567C4.74562 109.439 4.74948 109.312 4.75344 109.184C4.77061 109.219 5.11854 110.692 4.88997 110.187C5.36155 111.657 5.09147 111.681 5.58702 112.993C5.79865 113.797 5.56536 113.317 5.91818 114.781C6.13022 115.651 6.44815 116.658 6.71523 117.632C6.77547 117.852 6.73696 117.965 6.79041 118.161C6.84395 118.355 6.93343 118.433 7.00053 118.667C7.13911 119.15 7.27335 119.782 7.36993 120.093C7.45454 120.366 7.62599 120.741 7.83496 121.387C8.57773 123.637 8.2964 122.991 8.38257 123.356C8.48234 123.75 8.6789 123.992 8.9288 124.746C8.95429 124.822 8.81905 124.647 8.90991 124.897C8.98412 125.099 9.09016 125.179 9.34549 125.838C9.41879 126.105 11.0461 130.13 11.3615 130.735C11.7633 131.646 12.7103 133.718 13.2416 134.659C13.4396 135.02 13.6997 135.354 13.9212 135.734C14.6481 136.996 15.8984 138.92 17.0822 140.345C18.0958 141.668 20.2088 143.792 21.0838 144.184C23.0783 145.52 23.6841 145.711 23.8426 145.812C24.3163 146 24.5516 146.009 25.167 146.175C25.9997 146.391 26.8815 146.515 27.7974 146.514C36.361 146.239 41.3184 137.091 44.0338 131.545C50.9747 116.189 53.2637 99.3087 54.1901 82.7085C54.1535 82.6621 54.1168 82.6157 54.0801 82.5693C53.9663 84.5292 53.7564 86.8476 53.5895 88.7815C53.3779 91.373 53.1348 95.2118 52.6362 97.084C52.7094 96.318 52.9505 95.0685 52.8157 95.0759C52.6509 96.4648 52.4755 97.8081 52.2789 99.1873C52.3446 99.1543 52.4103 99.1213 52.476 99.0883C52.2985 100.53 52.0712 101.971 51.8457 103.412C51.8067 103.66 51.8892 103.493 51.8541 103.709C51.8145 103.95 51.7868 103.778 51.7789 103.823C51.6775 104.432 51.7008 104.622 51.6875 104.696C51.6525 104.887 51.627 104.724 51.5152 105.279C51.3075 106.305 51.3084 107.055 51.1223 106.775C51.0615 107.103 50.9999 107.43 50.9374 107.755C50.9839 107.851 51.0302 107.947 51.0764 108.043C50.4239 110.041 50.6638 111.023 50.0644 112.08C50.0345 112.46 50.0032 112.837 49.9706 113.213C49.8612 113.404 49.7516 113.594 49.6419 113.783C49.6849 113.835 49.7278 113.887 49.7708 113.939C49.2557 115.915 48.7611 118.012 48.205 119.858C47.8075 121.169 47.696 121.45 47.328 122.595C46.4841 125.131 47.2369 122.6 46.4118 124.633C46.5104 124.548 46.6089 124.463 46.7075 124.377C46.6116 124.721 46.5065 125.085 46.4016 125.44C46.2638 125.664 46.1256 125.886 45.987 126.106C45.8473 127.247 45.357 127.866 45.3007 128.007C45.2515 128.124 45.2514 128.581 44.59 129.759C45.0206 129.33 44.1721 130.709 44.1168 130.815C44.0725 130.919 43.4546 132.344 43.1641 132.899C42.9471 133.328 42.4073 134.253 42.0482 134.889C41.7326 135.45 41.8278 135.426 41.8054 135.468C41.4013 136.167 41.6085 135.704 41.3046 136.203C40.9989 136.7 40.8117 137.103 40.7401 137.204C40.704 137.254 40.7587 137.044 40.5994 137.276C40.1506 137.94 39.4068 139.094 38.8336 139.804C38.6339 140.055 38.3538 140.306 38.1117 140.585C37.7507 141.001 37.6365 141.236 37.4218 141.463C37.3521 141.535 36.7785 141.982 36.1531 142.578C36.0409 142.685 35.8291 143.215 35.0956 143.349C35.0872 143.418 35.0784 143.488 35.0693 143.558C32.7441 145.43 31.6962 145.262 30.55 146.002C28.3702 146.449 29.8392 145.982 29.5952 146.019C29.4433 146.041 28.7413 146.169 28.6611 146.167C28.5221 146.174 28.5426 146.129 28.3912 146.139C28.1692 146.153 27.9722 146.158 27.7974 146.16C25.7918 146.076 26.7635 146.185 25.9486 146.123C24.8848 145.988 24.0258 145.594 23.8402 145.472C23.6681 145.323 24.1003 145.6 25.877 146.039C25.8817 146.016 25.8863 145.992 25.891 145.968C24.9731 145.879 22.9132 144.953 23.6518 145.139C23.9369 145.229 25.3169 145.747 26.3386 145.863C27.3573 145.98 27.9218 145.993 26.4481 145.779C25.7997 145.641 25.3999 145.677 24.3741 145.133C23.6608 144.841 23.4791 145.015 22.5914 144.43C22.7049 144.582 22.8216 144.733 22.9417 144.881C21.5959 144.315 20.2698 143.098 19.4599 142.386C19.1776 142.161 17.977 141.429 18.4589 141.411C17.9924 141.015 16.2015 138.66 15.9128 138.241C15.8442 138.142 15.5418 138.105 14.6083 136.494C14.56 136.371 14.5119 136.248 14.4642 136.123C15.4173 137.552 13.9 134.92 14.4813 135.536C14.5544 135.828 15.2209 136.993 15.3097 137.192C15.4615 137.548 14.7597 136.654 15.5796 137.841C16.3252 138.417 14.7923 136.359 15.2566 136.536C14.1693 135.037 14.2148 134.797 14.0122 134.438C13.16 132.847 12.6446 131.857 11.9849 130.332C11.7501 129.983 12.9764 132.785 13.1855 133.088C12.3773 131.948 13.4454 134.095 14.0628 134.905C14.0502 135.009 14.0379 135.112 14.0257 135.216C13.4035 134.064 12.8252 132.914 12.2109 131.747C12.1943 131.659 12.1779 131.57 12.1615 131.482C12.3206 131.738 12.4805 131.99 12.6412 132.238C12.2173 131.232 12.3261 131.888 11.8712 130.527C11.79 130.515 11.7088 130.502 11.6276 130.49C11.0704 129.196 10.574 127.93 10.0976 126.62C9.70564 126.013 8.86778 123.463 9.19917 123.873C8.86681 122.857 9.20233 124.139 8.84088 123.2C8.6838 122.791 8.41097 121.961 8.39616 121.755C8.5764 121.781 8.99687 123.012 9.23034 123.337C9.14221 123.102 7.32981 117.464 7.68681 117.912C7.58307 117.448 7.54435 117.688 7.29608 116.859C6.60544 114.584 5.96699 110.89 5.36846 109.065C5.6855 111.301 5.97917 111.951 6.37471 113.622C6.58587 114.735 8.42646 121.211 7.86137 119.816C7.95389 120.052 8.04696 120.286 8.14058 120.518C8.16387 120.775 8.18774 121.03 8.21216 121.285C7.99659 120.616 7.7809 119.921 7.5788 119.246C7.58223 119.071 7.58589 118.895 7.58979 118.72C7.53317 118.655 7.4766 118.59 7.42009 118.526C7.33266 118.241 7.24598 117.955 7.16008 117.667C7.22488 117.737 7.28974 117.807 7.35467 117.876C7.24029 117.431 7.12477 116.972 7.01698 116.53C6.99094 116.663 6.96511 116.797 6.94061 116.934C6.38399 114.854 6.60563 115.55 6.4224 114.351C6.22391 113.472 6.46057 114.965 6.00254 113.139C5.48848 111.003 5.95629 112.346 5.34032 109.584C5.30394 109.55 5.26757 109.515 5.23123 109.48C5.13549 108.862 5.03976 108.222 4.95323 107.609C4.93352 107.696 4.91385 107.784 4.89423 107.871C4.66655 106.616 4.29246 104.834 4.3625 104.401C4.51358 105.703 4.75603 105.658 4.73954 105.309C4.63146 104.627 3.12263 94.3099 3.01531 92.3071C2.76826 89.7441 2.69729 87.7937 2.44622 85.4507C2.42354 87.0523 2.95672 92.6359 3.02239 93.705C3.02695 93.8099 2.80967 93.8042 3.12029 94.449C3.30951 96.6278 3.69662 99.2171 4.09498 101.902C4.01993 101.828 3.94497 101.754 3.8701 101.68C3.75747 100.021 3.26878 98.5016 3.53807 98.6886C3.4941 98.3516 3.45289 98.0281 3.41174 97.6978C3.37029 97.7031 3.32884 97.7083 3.28739 97.7135C3.2257 97.2167 3.16589 96.7175 3.10797 96.2158C3.14928 96.211 3.19058 96.2062 3.23189 96.2014C3.18385 95.7867 3.13683 95.3678 3.09168 94.9523C3.04597 94.914 3.00029 94.8757 2.95463 94.8374C2.89338 93.6024 2.29816 89.3722 2.70369 91.2131C2.65273 90.6332 2.60426 90.0505 2.55831 89.4651C2.52877 89.4694 2.49923 89.4736 2.46969 89.4779C2.446 89.2265 2.42278 88.9745 2.40004 88.7221C2.43304 88.8033 2.4661 88.8844 2.49924 88.9654C2.36282 87.8021 2.43395 86.7232 2.29593 85.9664C2.30588 86.4677 2.31757 86.9673 2.33098 87.4652C2.30248 86.5127 2.1234 84.7446 2.11634 84.5839C2.09094 84.1053 2.13743 83.8501 2.11597 83.3297C2.09687 82.8596 2.05486 82.9261 2.0525 82.8383C1.99448 80.2899 2.27901 81.2486 1.95123 80.0769C1.98673 79.9497 2.0223 79.8226 2.05793 79.6954C2.02037 79.5287 1.98306 79.3616 1.94601 79.1944C1.92966 78.4453 1.91723 77.685 1.90918 76.9379C1.86423 77.1871 1.81966 77.4391 1.77546 77.6923C1.7339 76.5638 1.82831 76.0441 1.82899 75.9339C1.83165 75.6258 1.76977 75.4851 1.76897 75.3896C1.76433 74.5804 1.76691 73.9976 1.77214 73.5764C1.80213 71.6119 1.86094 73.1728 2.06476 71.2868C1.98669 70.4708 1.88708 71.294 1.79559 71.4093C1.85224 70.3236 1.83293 69.9915 1.86501 68.8369C1.8737 68.5375 1.93058 68.2175 1.93659 68.0293C1.94166 67.8661 1.90578 67.3553 1.91893 66.9654C1.94027 66.3198 2.00384 65.4431 2.04403 64.5503C2.07456 63.8102 2.15893 61.5315 2.2716 59.9512C2.31875 59.2785 2.34967 59.4379 2.36216 59.2645C2.36713 59.1948 2.35657 58.6604 2.39071 58.2252C2.6649 54.7067 3.08232 51.0729 3.57008 47.5512C3.91195 45.078 4.28172 42.5473 4.751 40.0696C4.85046 39.5469 4.83175 39.83 4.87622 39.6024C4.89234 39.5218 4.84789 39.4279 5.03384 38.6083C5.101 38.3145 5.07398 38.6622 5.13385 38.3723C5.16336 38.2319 5.12303 38.1593 5.28065 37.3387C5.56627 35.863 5.82342 35.0593 5.84951 34.9306C5.90251 34.6798 5.84447 34.7432 5.91901 34.4128C6.28005 32.8195 6.61952 31.4404 6.99829 30.0229C7.15416 29.3313 8.51755 24.7811 8.63548 24.5344C8.83731 23.9782 8.74359 24.5249 8.98126 23.8095C9.02856 23.6032 9.07636 23.3979 9.12466 23.1935C9.00049 23.5018 8.87721 23.813 8.75484 24.1271C9.07437 23.256 9.38078 22.2774 9.62436 21.6233C9.66897 21.4989 10.1068 20.4406 10.3243 19.8858C10.2431 20.1338 10.1701 20.3643 10.0952 20.6032C10.1392 20.5259 10.1833 20.4487 10.2274 20.3719C10.6438 19.2426 11.1067 18.1258 11.6185 16.99C11.7996 16.5904 11.7676 16.7379 11.9524 16.3384C13.0732 14.004 12.6484 14.5463 14.0646 12.4638C13.6104 13.169 12.2626 15.9351 12.0942 16.327C11.9596 16.5967 11.2752 17.6178 11.6538 17.2996C10.6718 19.5801 11.4011 17.5361 10.5447 19.6957C10.5869 19.6622 10.629 19.6287 10.6712 19.5954C10.3792 20.371 10.1924 20.904 9.97448 21.3514C10.03 21.5535 9.03686 24.0947 8.59993 25.5409C7.95625 27.6009 7.3186 30.0017 6.81125 32.0599C6.63318 32.7797 6.48258 33.1823 6.46057 33.2736C6.4296 33.4037 6.38823 33.781 6.32755 34.0431C6.09028 35.0233 5.37231 38.0118 5.36265 38.7995C6.52592 32.8901 8.02643 27.0652 10.1219 21.4123C9.75647 22.0911 12.0344 16.4293 12.2272 16.1864C12.3488 15.9324 12.2865 16.1648 12.3243 16.0902C12.6046 15.533 12.7983 15.0041 12.8862 14.8279C12.9548 14.691 13.1178 14.4255 13.3639 13.9512C13.4095 13.8637 13.394 13.8287 13.4458 13.7302C13.7853 13.0863 14.1237 12.4771 14.4784 11.871C14.5011 11.8327 14.6316 11.6958 14.7254 11.5393C14.8193 11.3822 14.8759 11.2066 14.8997 11.1675C15.1958 10.679 15.7467 9.88043 16.0626 9.42806C16.1698 9.27323 16.0696 9.36232 16.1904 9.19007C16.567 8.66247 16.4752 8.88731 16.9561 8.21971C17.117 8.00136 17.0688 7.98322 17.393 7.58642C17.6231 7.30832 17.6628 7.39296 17.701 7.35071C17.7387 7.29974 18.5362 6.277 18.853 6.03696C18.3441 6.7778 19.5391 5.33445 19.4499 5.36085C19.8223 5.02235 20.1894 4.71205 20.595 4.39693C20.7178 4.27634 20.8414 4.15842 20.9659 4.04319C22.6175 2.89431 23.704 2.2441 25.6323 1.76437C25.722 1.70655 27.379 1.52125 27.3046 1.57768C26.3112 1.6602 25.3454 1.90677 24.7286 2.04962C23.7881 2.53833 23.7178 2.40376 22.2643 3.27785C21.7918 3.58436 21.7796 3.64581 21.7254 3.68148C19.8618 4.91246 17.5865 7.58274 16.6478 8.75857C16.4205 9.1114 17.3314 7.90724 16.9956 8.39023C16.6619 8.5387 12.8513 15.1525 13.9681 12.9834C13.8487 13.2074 13.7302 13.4342 13.6123 13.6638C13.588 13.9484 13.0087 15.0356 12.9673 14.8631C12.9354 14.9806 12.9037 15.0985 12.8723 15.2169C12.7872 15.4367 12.6693 15.7051 12.5116 16.0557C11.7568 17.3672 8.67753 25.707 8.65035 26.1959C8.67478 26.2147 8.69922 26.2334 8.72367 26.2522C9.92297 22.5112 11.1548 18.9134 13.1186 15.0832C13.0403 15.1835 12.962 15.2846 12.8838 15.3864C13.6638 13.8649 14.4964 12.3985 15.4419 10.9527C14.4992 12.5133 13.2159 15.0516 12.4071 16.7692C12.2623 17.0717 12.3307 16.8328 12.2949 16.9012C12.2016 17.0814 12.1687 17.3014 11.8815 17.9815C11.5989 18.6355 10.8744 20.3263 10.8193 20.4856C10.7067 20.781 10.4704 21.615 10.2819 22.1372C10.0338 22.8236 10.1563 22.3479 10.1059 22.4855C9.89742 23.0566 9.75054 23.5542 9.59652 24.0013C9.36511 24.6645 8.84868 26.0184 8.82397 26.518C8.97535 26.0419 9.12573 25.5809 9.28442 25.1064C8.51019 27.6658 7.78101 29.6994 7.2592 32.2881C7.25766 32.9111 7.76841 30.772 7.38212 32.5925C7.4606 32.2627 7.54005 31.935 7.62043 31.6092C7.60968 31.5253 7.59903 31.4414 7.58846 31.3576C7.75187 30.8086 7.92265 30.2474 8.09735 29.689C8.02718 29.8423 7.95716 29.9963 7.8873 30.151C8.39633 28.152 8.98608 26.1462 9.33912 25.5215C9.3183 25.471 9.29754 25.4206 9.27681 25.3701C9.89067 23.5388 10.7506 20.8134 10.7466 21.3816C10.7685 21.2938 10.7905 21.2061 10.8126 21.1187C11.2541 20.0692 11.0088 20.4939 11.1589 20.0831C11.1989 19.9526 12.0872 17.912 11.7618 18.8436C12.6495 16.8564 12.2403 17.397 12.4743 16.8462C13.1119 15.6102 14.16 13.3271 13.7983 14.3211C13.8953 14.1439 13.9974 13.9594 14.1013 13.7745C14.3356 13.1065 14.7565 12.5977 15.1701 11.9745C15.3015 11.7566 15.4335 11.542 15.5662 11.3308C15.6235 11.1698 15.6814 11.01 15.74 10.8513C17.1724 8.9673 16.3915 9.35089 17.3336 8.69846C17.2507 8.84745 17.1656 9.00203 17.0909 9.14454C16.8735 9.46397 16.658 9.79281 16.4446 10.1308C17.3295 8.82819 18.3286 7.54945 19.412 6.42987C20.8896 5.08699 21.684 4.22213 23.635 3.27461C23.8108 3.17536 23.9874 3.08173 24.1649 2.99378C24.018 3.15615 23.2961 3.44313 24.6419 2.91597C24.7724 2.92248 23.8837 3.29049 23.4729 3.47169C23.3711 3.51186 24.1683 3.04474 23.2486 3.52695C22.6351 3.89752 23.7541 3.23784 21.9718 4.39028C22.0455 4.35528 22.119 4.32119 22.1924 4.28802C22.0002 4.4208 21.814 4.55672 21.6356 4.69296C21.4551 4.78871 21.2739 4.88994 21.0921 4.99667C20.7051 5.39194 20.5411 5.59672 19.6597 6.47194C19.8805 6.21652 19.5071 6.48923 19.1074 6.93217C19.1258 6.94891 19.1441 6.96565 19.1625 6.98239C18.1996 8.10647 18.4828 7.6639 17.7694 8.66446C17.6786 8.75074 17.5878 8.83832 17.497 8.92712C17.148 9.48996 15.852 11.6044 15.9973 11.1572C15.7278 11.8027 14.9523 13.0424 14.6118 13.4761C14.6141 13.5253 14.6165 13.5746 14.619 13.6239C14.4862 13.8812 14.3482 14.1543 14.2236 14.4074C14.1371 14.5412 14.0509 14.6762 13.9648 14.8124C13.8868 15.0014 13.8094 15.192 13.7326 15.3842C13.6546 15.4847 13.5766 15.5859 13.4987 15.6878C13.381 16.0035 13.265 16.3228 13.1585 16.6284C13.0562 16.801 12.9541 16.9753 12.8523 17.1513C12.8874 17.1888 12.0987 19.0438 11.8656 19.5494C11.8177 19.711 11.7701 19.8733 11.7228 20.0365C11.6681 20.1036 11.6135 20.171 11.5588 20.2387C11.5322 20.3641 11.5056 20.4906 11.4798 20.616C11.3589 20.8713 11.2387 21.1291 11.119 21.3895C10.8345 22.5313 10.7187 22.5377 10.6278 22.7927C10.4605 23.2574 10.005 24.8785 9.91503 25.1576C9.82293 25.4306 9.73776 25.5436 9.66599 25.7569C8.49909 29.3307 9.08266 27.8992 8.889 28.6215C8.79019 29.013 8.67066 29.2781 8.58056 29.6279C8.41065 30.239 7.72066 33.2436 7.67886 33.4354C7.61085 33.6876 7.54149 33.0452 7.40365 33.8751C7.5075 33.9246 6.99721 35.6634 7.33956 34.8738C7.16375 35.5936 6.98777 36.3444 6.82628 37.0563C6.9786 37.0029 6.70596 37.876 6.52257 38.8704C6.25444 40.2612 5.81607 43.4434 5.6983 43.2962C5.6772 43.6357 5.65715 43.9765 5.63814 44.3184C5.23523 46.6241 4.98441 48.8903 4.72846 51.1837C3.96027 58.0069 3.53521 65.4515 3.49415 72.2849C3.49195 72.6142 3.43959 72.5666 3.43832 72.804C3.43736 73.0114 3.43789 73.2741 3.44001 73.5764C3.44733 75.0973 3.51487 77.5675 3.55277 79.0282C3.56617 79.5857 3.52357 79.8575 3.52728 80.0339C3.54025 80.6318 3.60461 80.4882 3.61316 80.7629C3.62388 81.2008 3.66632 83.515 3.70787 84.2996C3.7266 84.6901 3.81045 85.1584 3.82258 85.6192C3.82371 85.659 3.76152 85.5892 3.76265 85.6228C3.80978 86.4626 3.82701 85.9546 3.84304 86.2384C3.9584 88.2488 4.13444 90.413 4.34357 92.6027C4.39508 93.1476 4.44188 93.9798 4.48966 94.4418C4.50805 94.6183 4.51685 94.297 4.58212 94.9069C4.60506 95.1189 4.55516 95.1978 4.57917 95.4369C4.68406 96.4659 4.91497 96.783 4.87609 97.6729C5.10022 99.3687 5.58858 102.295 5.8547 103.824C5.91609 104.185 5.91049 104.361 5.97161 104.708C6.01526 104.956 6.14678 105.38 6.21733 105.763C6.28779 106.145 6.34716 106.756 6.48996 107.48C6.64128 108.252 6.87121 109.21 6.90716 109.38C6.95081 109.589 6.90531 109.699 6.95027 109.907C7.08017 110.521 7.52938 112.225 7.72901 113.016C7.9403 113.868 8.04558 114.418 8.11993 114.71C8.19032 114.985 8.32848 115.288 8.36134 115.412C8.41252 115.605 8.3589 115.668 8.4239 115.912C8.52907 116.304 8.68456 116.72 8.85344 117.323C12.0029 127.698 15.9607 139.851 25.3222 143.872C26.178 144.129 26.7399 144.209 27.7974 144.224C28.0108 144.223 28.2435 144.216 28.5025 144.196C29.1289 144.133 28.8769 144.244 29.3611 144.142C29.5764 144.09 29.5087 144.044 29.7791 143.973C30.9645 143.678 32.3193 142.976 32.7672 142.669C32.9508 142.549 33.1345 142.344 33.4955 142.072C36.2573 140.006 38.76 136.466 40.5768 132.993C41.5541 131.169 42.8117 128.264 43.6531 126C46.0115 119.777 47.7293 112.762 48.8131 106.745C50.4525 97.6581 51.2063 88.455 51.5227 79.2292C51.231 83.543 50.9117 89.4107 50.3882 94.1819C48.8391 107.858 46.2115 122.851 39.2646 134.94C36.9036 138.982 32.5955 144.059 27.897 143.989C27.868 143.989 27.8347 143.99 27.7974 143.992C27.5707 144.004 27.1989 144.031 26.8166 143.978C26.7203 143.985 25.5747 143.657 25.2089 143.506C25.5128 143.804 24.0715 143.112 23.6372 142.834C23.0843 142.547 21.881 141.883 20.7695 140.766C19.7606 139.731 20.1136 139.957 20.0545 139.901C19.7312 139.522 19.5349 139.457 19.2646 139.163C17.9694 138.161 13.7252 130.766 12.9371 128.453C12.6968 127.893 12.7497 127.849 12.696 127.722C12.5541 127.383 12.2948 126.918 12.0726 126.354C11.6872 125.382 11.3078 124.171 11.1162 123.625C10.6421 122.311 9.74403 119.754 9.24579 117.989C9.10346 117.492 9.17435 117.504 9.1105 117.278C8.81847 116.267 8.0743 113.681 7.79069 112.44C7.31037 110.397 6.90888 108.278 6.50181 106.206C6.50432 106.069 6.50695 105.931 6.50971 105.794C6.44265 105.589 6.37597 105.384 6.30969 105.178C5.69677 101.639 5.11777 98.0175 4.72258 94.4487C4.67459 94.0446 4.51364 92.0048 4.48351 91.6597C4.45581 91.3724 4.36496 91.1081 4.33644 90.6893C4.29726 90.1037 4.46934 90.6444 4.35037 89.6903C4.31883 89.4332 4.28689 89.688 4.22704 89.1703C4.19954 88.9928 3.93606 85.6825 3.93515 85.4977C3.92228 85.1983 4.01795 84.9246 4.01565 84.8471C4.00409 84.4441 3.91956 84.4658 3.89644 84.1998C3.82762 83.4148 3.83486 82.3766 3.82783 82.2475C3.73318 80.6803 3.57334 77.7774 3.59067 76.1443C3.59247 75.9185 3.65516 75.9448 3.65654 75.9051C3.66541 75.6492 3.59248 75.4907 3.58782 75.2468C3.57897 74.7669 3.57818 74.1862 3.58309 73.5764C3.59123 72.5182 3.61804 71.3852 3.6345 70.552C3.63732 70.4004 3.60754 70.0821 3.61467 69.8106C3.65776 68.2697 3.70483 68.7723 3.70804 68.6844C3.71775 68.4776 3.66613 68.1122 3.67627 67.5634C3.6975 66.1596 3.81122 63.4327 3.90153 61.9182C3.96756 60.7785 4.03451 60.8024 4.0397 60.7275C4.05164 60.5687 4.02533 60.1229 4.06895 59.3804C4.1561 57.9384 4.19859 58.1047 4.2404 57.5139C4.24439 57.4645 4.1872 57.5459 4.23409 56.8918C4.31915 55.6395 4.63666 52.7942 4.78947 51.4424C4.84659 50.9211 4.81378 50.7939 4.87497 50.2632C4.96818 49.4294 5.26616 47.5264 5.28809 47.3793C5.29376 47.3374 5.25349 47.2358 5.28728 46.9899C5.32446 46.7194 5.38877 46.4582 5.41705 46.2578C5.5751 45.111 5.80057 43.1111 5.89888 43.693C5.91102 43.3195 5.92445 42.9474 5.93918 42.5767C6.35091 40.1592 6.7717 37.8535 7.27826 35.4925C7.39262 34.9607 7.52531 34.5291 7.62524 34.0875C7.71753 33.6577 8.14654 31.6557 8.22995 31.3432C8.36219 30.7604 9.26659 27.4757 9.40941 27.0616C9.65582 26.2628 9.95855 25.5462 10.0526 25.2073C10.1257 24.9437 10.0089 25.1705 10.159 24.6728C10.416 23.8123 10.9632 22.4136 11.0607 22.1498C11.1007 22.0417 10.9941 22.2283 11.3696 21.2143C11.5713 20.675 11.7209 20.3883 11.7992 20.188C11.8242 20.1281 11.7325 20.1898 12.1754 19.1223C12.4806 18.3956 12.6607 18.0933 12.6939 18.0153C12.7448 17.8986 12.8254 17.5968 13.0334 17.138C13.5048 16.0765 14.5152 14.1546 15.0711 13.1823C15.178 12.9944 15.0862 13.0362 15.5219 12.2936C15.842 11.7569 15.8233 11.8758 15.9439 11.6788C16.139 11.3651 16.3631 10.8988 16.8246 10.2153C17.1044 9.79847 18.3174 8.04624 19.7277 6.61327C21.1199 5.14347 22.7398 4.11897 22.8953 4.04503C23.1049 3.92522 23.3605 3.78142 23.4791 3.7425C23.3962 3.81142 23.3139 3.88171 23.2322 3.95338C22.2785 4.44645 22.6934 4.30314 22.4551 4.4631C22.0925 4.69096 20.8455 5.70047 20.5979 5.98615C20.5028 6.0877 20.7612 5.89496 20.2427 6.43486C19.6804 7.0358 19.4089 7.23112 19.273 7.55213C18.4125 8.35134 17.8734 9.2997 18.7111 8.28674C18.9499 8.01074 20.2318 6.43199 21.8376 5.19765C23.4234 3.91411 25.3516 3.22627 26.0079 3.11082C26.4675 3.00367 27.1043 2.89536 27.7974 2.88685C28.7056 2.86692 29.6882 3.04486 30.4207 3.29524C31.1988 3.49241 32.9612 4.51989 32.8473 4.54494C33.4601 4.95923 32.8399 4.48097 32.9725 4.56029C33.2726 4.68034 35.0701 6.1947 35.3719 6.5493C36.9726 8.08145 38.7275 10.4086 39.8051 12.359C39.74 12.2778 39.6749 12.1973 39.6097 12.1175C39.3342 11.6783 38.0855 9.76279 37.853 9.59586C39.8433 12.3032 41.4465 15.3484 42.8276 18.497C42.8754 18.3943 44.4772 22.371 44.4955 22.5755C44.4448 22.5136 44.3941 22.452 44.3433 22.3905C43.5795 20.0975 43.5233 20.3515 42.9614 18.8354C42.7023 18.2357 42.7376 18.4294 42.5988 18.1364C41.175 15.2504 42.6764 18.0354 41.5773 15.8415C41.8461 16.5294 40.9363 14.7401 40.4823 13.9565C40.4033 13.7754 39.0425 11.4545 38.8549 11.2135C37.9011 9.70986 35.9901 7.37282 34.7362 6.23734C33.7467 5.34716 33.1346 4.95845 32.1327 4.38824C31.3563 3.9783 31.5998 4.078 31.2268 3.90183C30.4476 3.56747 30.1559 3.60698 29.6798 3.32927C29.13 3.21768 28.5735 3.16425 28.0228 3.17186C28.0235 3.14819 28.0242 3.12451 28.0249 3.10084C27.9492 3.09921 27.8733 3.0987 27.7974 3.09931C27.523 3.10153 27.2502 3.11838 26.9784 3.14965C26.8789 3.18499 26.78 3.22236 26.683 3.26154C25.5962 3.4334 26.0327 3.30695 25.8126 3.28374C25.5711 3.34313 25.3414 3.41022 25.1067 3.48922C24.944 3.60299 24.7845 3.72221 24.6279 3.84674C23.6317 4.26916 22.6477 4.89953 21.7668 5.62139C21.6934 5.65015 21.6198 5.67982 21.5458 5.71041C21.5596 5.73079 21.5734 5.75116 21.5872 5.77153C20.0893 7.05218 18.7843 8.63269 17.6238 10.3343C17.3288 10.787 19.2803 8.16778 19.4826 8.01437C20.3116 6.90105 23.0194 4.66264 23.108 4.81643C23.7148 4.25965 25.8887 3.3777 26.5961 3.42056C25.5535 3.59458 24.5456 3.98316 23.5692 4.54933C23.6154 4.55579 23.6613 4.56259 23.707 4.56973C22.4721 5.1868 22.2864 5.33827 21.2458 6.40893C21.2183 6.38073 21.1909 6.35252 21.1634 6.32432C20.478 7.10987 19.0738 8.41002 19.1784 8.56932C18.817 8.99293 18.4457 9.45971 18.1 9.92111C17.4477 10.9732 18.4812 9.34906 15.9432 13.5715C15.776 13.8693 15.7705 13.7827 15.528 14.2444C15.4551 14.3902 15.1149 15.1407 14.4021 16.6486C14.2916 16.8841 14.2506 16.8787 14.1365 17.1171C13.8727 17.6601 13.4554 18.8396 13.5607 18.2683C12.5791 20.5107 13.0772 19.6153 12.8303 20.3389C12.6711 20.8246 12.6348 20.7066 12.4952 21.1224C12.3291 21.6386 12.5291 21.2636 11.7649 23.33C11.8412 23.0928 11.9181 22.8573 11.9956 22.6235C11.9342 22.7329 11.873 22.8429 11.8118 22.9534C11.4496 24.1525 11.4261 24.0057 11.3535 24.6038C11.0194 25.4544 10.7798 26.1959 10.4378 27.389C9.7861 29.7365 10.2488 28.5381 9.37117 31.1834C9.28657 31.6174 9.20381 32.0548 9.1229 32.4958C8.89932 33.2004 8.9724 32.6 8.70591 33.6776C9.02687 32.8708 8.46248 35.1075 8.50014 35.52C8.464 35.554 8.42784 35.5881 8.39168 35.6223C8.33987 35.863 8.28855 36.1047 8.23773 36.3474C8.2597 36.353 8.28168 36.3585 8.30366 36.3641C8.21881 36.6869 8.13791 36.9969 8.05705 37.3118C8.03091 37.5556 8.00533 37.8002 7.98032 38.0457C7.85608 38.4321 7.73285 38.8215 7.61066 39.2136C7.56024 39.4649 7.51015 39.7182 7.46234 39.963C7.51019 39.891 7.55804 39.8192 7.6059 39.7475C7.53661 40.0626 7.46809 40.3793 7.40035 40.6975C7.52207 40.3363 7.54299 40.5783 7.37002 41.581C7.23059 42.4091 7.26371 41.461 7.02511 43.2478C7.01036 43.3738 7.05301 43.5964 6.81789 45.2933C6.54618 47.3248 6.62663 46.3265 6.57366 46.6878C6.56363 46.7582 6.52295 47.3805 6.45497 47.9636C6.41623 48.2943 6.34195 48.6094 6.33662 48.6534C6.31297 48.8581 6.35453 48.9262 6.32238 49.2083C6.24121 49.9171 6.10856 50.8737 6.03649 51.5803C6.00347 51.9012 6.00198 52.2074 5.98775 52.3513C5.96547 52.5739 5.89279 52.8449 5.87123 53.068C5.79071 53.8886 5.83217 55.1621 5.58951 55.5305C5.71507 56.3433 5.35832 57.9835 5.49893 57.8748C5.27141 60.0048 5.20658 65.6888 4.99918 65.5193C5.1572 66.744 5.02196 66.6218 5.01221 67.1283C5.00289 67.6928 5.04715 67.4014 5.03645 67.8506C5.01235 68.8986 4.98414 69.9147 4.97926 70.952C4.94818 70.7878 4.91734 70.6237 4.88675 70.4596C4.871 71.5544 4.94559 71.1776 4.96099 72.2987C4.97238 73.0347 4.97463 73.3995 4.96635 73.5764C4.95182 73.8957 4.90526 73.6043 4.85307 73.8013C4.93013 73.7214 4.95407 76.155 4.95262 76.3989C4.95003 76.5461 4.8273 75.9028 4.89899 77.3857C4.9293 77.3033 4.95964 77.2206 4.99002 77.1396C4.96081 77.822 5.08155 79.663 5.08513 79.9721C5.08589 80.1156 4.85161 80.8845 5.09597 81.5849C5.06712 81.6712 5.0383 81.7575 5.0095 81.8438C5.08758 82.6237 5.17042 83.3991 5.25794 84.1698C5.20573 84.2963 5.15354 84.4225 5.10156 84.5516C5.11719 84.8003 5.13328 85.0487 5.14982 85.2965C5.19212 85.1289 5.23454 84.9612 5.27709 84.7935C5.34994 86.3323 5.58433 88.1609 5.43134 88.4996C5.49243 88.8248 5.5544 89.149 5.61725 89.472C5.57574 89.689 5.53447 89.9058 5.49343 90.1224C5.64983 91.6197 5.69627 91.6488 5.8694 92.6733C5.81749 92.6377 5.7656 92.6021 5.71374 92.5664C5.86061 93.3253 6.0773 94.6828 6.22483 95.7874C6.29322 96.3085 6.34381 97.204 6.36644 97.3243C6.38752 97.4442 6.81752 98.6261 6.6114 98.7901C6.97044 100.57 6.99549 101.348 7.11665 102.082C7.19581 102.553 7.2864 102.759 7.38258 103.285C7.51982 104.034 7.63171 104.801 7.71718 105.239C7.76602 105.489 7.8286 105.526 7.86273 105.697C8.0256 106.505 7.87904 106.043 8.04878 106.89C8.06451 106.967 8.25319 107.577 8.3922 108.285C8.4687 108.681 8.61225 109.704 8.63242 109.791C8.72179 110.186 8.79351 109.828 8.93355 111.228C8.95275 111.182 8.97195 111.137 8.99116 111.091C9.45273 112.749 9.39474 113.015 9.46972 113.362C9.47971 113.405 9.6311 113.801 9.68658 114.045C9.78003 114.457 9.75622 114.636 9.77676 114.727C9.84911 115.049 10.1603 116.092 10.2962 116.815C10.4426 116.628 11.2111 119.003 11.174 119.612C11.3502 120.025 11.5281 120.434 11.7076 120.836C11.7333 121.034 11.7622 121.24 11.7914 121.445C11.8663 121.55 11.9412 121.656 12.0163 121.76C12.1487 122.404 12.2824 123.032 12.4245 123.663C12.5169 123.675 12.6093 123.686 12.7017 123.697C12.7559 123.872 12.8105 124.047 12.8654 124.22C12.8532 124.375 12.8412 124.53 12.8294 124.685C12.9216 124.892 13.0141 125.097 13.107 125.3C13.1719 125.335 13.2367 125.369 13.3015 125.403C13.7995 126.489 13.1358 126.133 14.4085 128.059C14.5201 128.406 14.6329 128.748 14.747 129.086C15.0847 129.375 15.2962 130.082 15.5922 130.625C15.7973 130.999 15.853 130.948 16.1176 131.451C16.3817 131.948 16.3152 131.97 16.3351 132.009C16.5583 132.431 16.7861 132.708 16.9436 133.007C16.9674 133.052 16.9566 133.207 17.1683 133.576C17.3882 133.955 17.6052 134.141 17.9319 134.685C18.1008 134.963 18.0867 135.073 18.2444 135.321C19.0008 136.512 20.109 137.328 20.4379 138.353C20.625 138.502 21.8763 139.522 22.3532 139.917C23.1262 140.583 22.7691 140.392 23.0707 140.645C23.1105 140.672 23.3761 140.858 24.0448 141.268C24.1638 141.339 24.161 141.28 24.1784 141.29C24.9707 141.791 26.4928 142.348 27.3497 142.361C27.3942 142.364 27.5482 142.33 27.7974 142.323C27.9823 142.318 28.2163 142.328 28.5158 142.37C29.4751 142.173 31.5403 141.603 32.7023 140.321C32.8754 140.175 33.1241 140.026 33.2023 139.954C33.8328 139.334 33.531 139.507 35.0844 138.085C34.9107 138.165 35.1875 137.74 35.6204 137.188C36.2771 136.332 35.9468 137.027 36.4419 136.319C36.4077 136.295 36.3735 136.27 36.3394 136.245C37.5762 134.638 37.6415 134.165 38.6303 132.358C38.9967 131.678 39.561 130.742 39.6426 130.57C39.6726 130.511 39.9441 129.69 39.9699 129.628C40.1504 129.226 40.2966 129.015 40.4532 128.658C40.9845 127.455 41.4 126 41.5319 126.342C41.6138 125.99 41.6983 125.624 41.7703 125.282C42.4844 124.13 42.4741 123.013 42.8034 122.845C42.8297 122.6 42.8553 122.354 42.8802 122.106C44.7164 116.575 46.0467 110.834 47.0545 105.015C47.0154 104.757 47.4418 102.237 47.4707 102.101C47.6196 101.507 47.7178 102.173 47.8504 100.933C47.7864 100.786 47.7222 100.639 47.6577 100.492C47.8379 98.9521 47.8205 99.7021 47.957 99.1003C47.9795 98.8431 47.9043 98.9171 47.9433 98.5696C48.1623 96.6963 48.5547 92.8501 48.7044 90.7802C48.736 90.3673 48.7929 90.4347 48.8031 90.3063C48.83 89.9529 48.8041 89.2474 48.8522 88.5314C49.1635 84.183 49.3826 78.0159 49.3958 73.5764C49.3962 73.5205 49.3965 73.4649 49.3969 73.4096C49.3987 73.1073 49.4754 73.0696 49.4769 72.8655C49.4789 72.5826 49.4071 71.9514 49.408 71.654C49.4089 71.374 49.4643 71.1937 49.4648 70.8939C49.4689 69.5211 49.3086 67.6814 49.4169 66.2093C49.4275 66.086 49.6681 64.5356 49.6858 64.4995C49.7975 64.2891 50.0657 65.6508 50.1236 63.392C50.3878 65.3955 50.6425 64.7578 50.623 62.13C50.7399 63.4415 50.8432 64.7547 50.9332 66.0695C50.9661 66.0701 50.999 66.0708 51.0319 66.0715C51.1439 64.8668 51.1435 63.6734 51.0457 61.8504C51.0799 61.9054 51.114 61.9605 51.1482 62.0155C51.4018 63.6172 51.5203 65.5623 51.7707 66.7856C51.8583 64.9757 51.9231 63.1629 51.9642 61.3472C51.9941 61.436 52.0239 61.5248 52.0536 61.6136C52.172 62.4758 52.3062 64.3683 52.3933 65.0866C52.731 67.832 52.4528 62.6689 52.6218 63.5108C52.7639 66.4205 52.842 69.3335 52.8586 72.2468C53.0274 72.3506 52.922 61.1296 53.161 61.2236C53.237 62.1395 53.3064 63.0557 53.3693 63.9729C53.4268 63.56 53.4833 63.147 53.5386 62.7334C53.5688 62.8448 53.5989 62.9564 53.6289 63.0682C53.7666 64.6157 53.8856 66.166 53.9862 67.7176C53.7912 62.9964 53.6605 60.8086 54.2001 59.6333C54.2241 59.7604 54.2479 59.8876 54.2716 60.015C53.9702 61.0651 54.3397 65.8885 54.4537 68.4612C54.5552 67.9341 54.4019 65.6707 54.4465 65.1898C54.4604 65.0533 54.5546 65.5234 54.582 65.2075C54.6616 64.3816 54.6123 60.8696 54.7619 61.3711C54.8804 61.6926 55.2223 67.3386 55.2142 68.4424C55.3047 65.8537 55.2418 63.1874 55.265 60.5818C55.6042 62.2037 55.9849 63.6438 56.0842 66.644C56.2538 67.556 56.1943 61.1915 56.2326 61.0381C56.368 62.1342 56.4937 63.2319 56.61 64.3309C56.5551 63.3993 56.4937 62.4682 56.4257 61.5375C56.4507 61.5333 56.4758 61.5291 56.5009 61.5249C56.7404 63.9324 57.031 66.1379 57.0579 68.9077C57.1894 68.8157 57.148 67.1578 57.1259 66.3536ZM35.371 7.03915C35.3743 7.10928 34.7231 6.44999 34.3407 6.12451C34.3916 6.18097 34.4424 6.238 34.4931 6.29561C33.7051 5.51966 32.0502 4.44883 31.9344 4.53197C31.2798 4.19862 31.606 4.27822 31.4002 4.16446C31.3163 4.11502 30.4351 3.77114 29.7371 3.54584C29.5666 3.50338 29.3964 3.46682 29.2263 3.43612C29.187 3.46235 29.148 3.48887 29.1095 3.51572C28.8805 3.4368 28.6481 3.36846 28.4112 3.31113C30.9316 3.47017 33.3686 5.00782 35.368 7.03613C35.369 7.03713 35.37 7.03814 35.371 7.03915ZM14.7744 15.6241C14.2647 16.6024 13.5738 18.1013 13.7992 17.8385C14.0718 17.2043 14.3469 16.5913 14.6463 15.958C14.6888 15.8461 14.7315 15.7348 14.7744 15.6241ZM12.2537 123.587C12.4399 124.512 12.8367 125.23 13.3471 126.552C13.3745 126.539 13.4018 126.526 13.4292 126.513C13.1329 125.988 12.6394 124.6 12.2537 123.587ZM47.2495 31.1882C47.297 31.3883 47.3442 31.5893 47.391 31.791C47.0951 30.9995 47.1144 30.8414 46.8555 29.9411C46.8395 29.886 46.8262 29.9103 46.8206 29.8911C46.7565 29.6675 46.7205 29.4552 46.6626 29.2548C46.55 28.8665 46.4395 28.5686 46.2337 27.8821C46.0741 27.353 46.1082 27.3388 46.0505 27.1545C46.0042 27.0005 45.412 25.4725 45.1128 24.4724C44.5971 22.5436 47.1816 30.5687 47.2495 31.1882ZM48.578 36.969C48.5353 36.7749 48.4924 36.5815 48.4491 36.3887C48.6307 36.9546 48.3684 35.7969 48.1625 34.9285C48.2243 34.9474 48.6158 36.7607 48.8031 37.5855C48.7285 37.3791 48.6535 37.1736 48.578 36.969ZM40.5038 13.4992C40.8774 14.1591 40.7491 14.0885 40.7145 14.0696C40.5981 13.8556 40.4812 13.6445 40.3636 13.4362C40.4103 13.457 40.4571 13.478 40.5038 13.4992ZM43.0627 18.6576C42.9248 18.4522 42.2266 16.9441 41.8718 16.2373C41.8567 16.2071 41.9761 16.3866 41.731 15.8925C41.6609 15.7367 40.817 14.3271 41.0846 14.596C41.7958 15.9182 42.4476 17.2671 43.0618 18.6555C43.0621 18.6562 43.0624 18.6569 43.0627 18.6576ZM43.6857 20.2236C43.5562 19.9446 43.4176 19.6484 43.2821 19.366C43.2406 19.2072 43.1987 19.049 43.1566 18.8916C43.3018 19.2161 43.4459 19.5449 43.5887 19.8781C43.6224 19.996 43.6538 20.1089 43.6857 20.2236ZM48.8337 101.867C48.7691 101.932 48.7045 101.996 48.6398 102.061C48.5665 102.339 48.5872 103.736 48.6996 103.313C48.7462 102.834 48.7909 102.352 48.8337 101.867ZM49.7002 96.1013C49.7602 95.8184 49.8195 95.5345 49.8783 95.2497C49.821 94.9071 49.7622 94.5676 49.7018 94.2322C49.4952 95.6534 49.2425 97.164 49.5448 96.9515C49.5065 97.2767 49.4674 97.6008 49.4275 97.9239C49.3476 97.6399 49.3089 97.6603 49.1289 98.5135C49.2616 98.722 49.069 99.5988 48.9631 100.604C49.074 99.8773 49.1808 99.1447 49.2835 98.4061C49.3111 98.4098 49.3387 98.4134 49.3663 98.4171C49.143 100.065 49.5892 98.0294 49.6004 96.9629C49.6472 96.8836 49.694 96.8042 49.7407 96.7246C49.7276 96.5171 49.7141 96.3094 49.7002 96.1013ZM4.83767 91.6443C4.83738 91.8523 4.83738 92.0599 4.83766 92.2673C5.18589 93.0395 4.764 91.4331 4.87282 90.2785C4.74656 90.6719 4.59903 88.9199 4.582 88.8177C4.54526 89.0245 4.50872 89.2311 4.47241 89.4376C4.58976 90.1784 4.71088 90.9069 4.83767 91.6443ZM5.31238 97.4545C5.34957 96.7258 5.82638 100.211 5.98444 101.353C6.0211 101.639 6.02666 102.156 6.06913 102.359C6.1167 102.478 6.16441 102.597 6.21226 102.716C6.13768 102.881 6.62786 105.11 6.85158 105.993C6.83215 106.082 6.81277 106.172 6.79342 106.262C6.86797 106.582 6.94339 106.9 7.01966 107.216C6.97687 107.183 6.9341 107.149 6.89135 107.116C6.98044 107.35 7.06944 107.581 7.16117 107.821C7.40237 108.776 7.09104 108.22 7.29884 108.929C7.53143 109.712 7.37268 108.383 7.45247 108.391C7.29622 107.735 6.97117 106.29 6.84829 105.624C6.7791 105.246 6.98217 105.648 6.54362 104.04C6.51719 103.678 6.49169 103.315 6.46714 102.951C6.302 102.304 6.13847 101.637 5.98277 100.991C6.01247 100.861 6.04226 100.732 6.07213 100.602C6.06751 100.534 5.73513 99.0189 5.7119 99.1038C5.7148 98.4609 5.55797 97.199 5.39837 95.8481C5.35649 95.7212 5.31476 95.594 5.27319 95.4666C5.48804 96.7673 5.29608 95.8858 5.2939 96.2809C5.29267 96.509 5.32306 97.1997 5.31238 97.4545ZM47.3673 110.835C47.6611 108.661 47.5173 110.029 47.9705 107.69C47.859 107.838 47.7474 107.986 47.6357 108.133C47.5658 109.314 47.0757 111.146 47.3669 110.837C47.367 110.836 47.3672 110.835 47.3673 110.835ZM50.1814 87.8301C50.1468 89.0922 50.3265 88.4747 50.2477 90.0658C50.2476 90.0666 50.2476 90.0673 50.2475 90.0681C50.3214 89.2513 50.391 88.4196 50.4543 87.6011C50.3633 87.6776 50.2723 87.7539 50.1814 87.8301ZM21.998 141.106C21.18 140.377 21.3267 140.577 20.6785 139.79C19.5577 138.815 20.4349 139.709 20.3467 139.791C20.6111 140.013 20.8892 140.235 21.1586 140.436C21.6792 141.062 21.073 140.593 21.0644 140.598C21.065 140.599 21.0655 140.599 21.066 140.6C21.0409 140.626 21.0158 140.616 21.233 140.841C21.4789 140.929 21.7452 141.028 21.998 141.106ZM18.612 137.776C18.9187 138.035 19.1053 138.12 18.5163 137.261C18.5159 137.26 18.5154 137.26 18.515 137.259C18.3174 137.3 17.8658 136.432 17.5988 136.05C17.5151 135.961 17.4313 135.871 17.3476 135.779C17.7626 136.485 18.1539 137.111 18.612 137.776ZM10.6589 121.945C10.8372 121.882 11.1435 122.743 10.9021 121.468C10.8205 121.231 10.7437 121.006 10.6652 120.773C10.5766 120.632 10.4882 120.491 10.4001 120.348C9.81325 117.236 8.95474 116.514 10.7527 121.516C10.7531 121.517 10.7534 121.518 10.7538 121.518C10.722 121.661 10.6904 121.803 10.6589 121.945ZM12.5882 127.121C12.6967 127.121 12.8053 127.119 12.9138 127.118C12.9515 127.844 13.508 128.573 13.9166 129.863C13.9956 129.959 14.0747 130.055 14.1539 130.149C14.2601 130.676 16.5927 134.967 16.226 133.95C16.058 133.533 15.4879 132.693 15.4483 132.61C15.3095 132.336 15.2172 131.975 14.987 131.535C14.8558 131.286 14.4851 130.776 14.2339 130.246C13.6684 129.077 12.9567 126.737 12.109 125.211C12.0927 125.083 12.0765 124.955 12.0606 124.827C11.59 123.61 11.6476 124.046 11.3569 122.88C10.6039 122.26 13.0601 127.4 12.294 126.436C12.2943 126.437 12.2945 126.438 12.2948 126.439C12.3921 126.668 12.4899 126.896 12.5882 127.121ZM35.503 139.362C35.6258 139.384 36.4402 138.187 36.396 138.591C36.6245 138.187 36.8486 137.767 37.0683 137.333C37.0491 137.324 37.0299 137.314 37.0107 137.304C36.7429 137.697 36.4729 138.074 36.201 138.433C36.1741 138.413 36.1471 138.393 36.1202 138.373C35.8017 139.04 33.788 140.959 33.7538 140.772C33.6743 140.907 33.5938 141.04 33.5123 141.171C32.4353 141.87 31.5725 142.59 30.3166 142.926C30.2371 142.998 30.1565 143.069 30.0745 143.139C30.003 143.128 29.9323 143.116 29.8624 143.103C29.4153 143.234 28.9707 143.321 28.5209 143.367C27.7933 143.49 28.1348 143.555 28.7304 143.54C29.3207 143.53 30.1533 143.315 30.3202 143.238C30.3656 143.218 30.3306 143.145 30.6121 143.02C31.1288 142.922 33.8786 141.222 34.5432 140.358C34.5891 140.393 34.6351 140.428 34.6811 140.464C34.9678 140.107 35.2473 139.732 35.503 139.362ZM8.86499 115.159C8.89374 115.066 8.92254 114.973 8.95139 114.88C8.54187 113.5 8.3819 112.612 8.30246 113.007C8.30264 113.008 8.30281 113.009 8.30299 113.01C8.4808 113.715 8.67313 114.453 8.86499 115.159ZM16.8928 10.7179C16.8094 10.718 16.4248 11.2486 16.0178 12.0279C16.0571 12.0022 16.0964 11.9766 16.1357 11.9513C16.3237 11.531 16.6876 11.1038 17.4698 9.94618C17.441 9.92588 17.4123 9.90558 17.3835 9.88528C17.2185 10.1566 17.055 10.4342 16.8928 10.7179ZM9.15981 116.352C9.21632 116.798 9.72802 117.928 9.51753 117.149C9.35707 116.552 9.12917 116.114 9.15981 116.352ZM50.5742 82.9108C50.5469 83.2343 50.5188 83.5569 50.49 83.8788C50.5395 84.0499 50.5886 84.2208 50.6375 84.3918C50.6376 84.391 50.6376 84.3903 50.6376 84.3895C50.6184 83.8979 50.5973 83.405 50.5742 82.9108ZM25.004 142.896C24.1658 142.578 23.3497 142.121 22.5563 141.55C22.5303 141.57 22.5042 141.589 22.478 141.608C23.3412 142.092 23.5919 142.346 23.7886 142.469C23.7877 142.469 23.7869 142.468 23.786 142.468C24.3993 142.833 24.9959 143.105 25.5971 143.323C25.3947 143.189 25.1973 143.046 25.004 142.896ZM27.9196 143.626C27.8848 143.576 27.8485 143.536 27.7974 143.506C27.6225 143.392 27.2926 143.457 26.2507 143.379C26.2973 143.417 26.3445 143.454 26.3923 143.491C27.0884 143.602 27.4988 143.541 27.3695 143.656C27.5124 143.654 27.655 143.647 27.7974 143.636C27.8382 143.633 27.8789 143.63 27.9196 143.626ZM16.3836 134.422C16.4262 134.642 17.3107 135.906 17.2953 135.808C17.2857 135.792 16.2959 134.033 16.3836 134.422ZM25.3334 3.15456C25.0171 3.24479 24.7002 3.354 24.3826 3.48247C24.7953 3.28638 25.205 3.12446 25.6284 2.99245C25.5268 3.04524 25.4298 3.09897 25.3334 3.15456ZM28.9228 2.64548C29.1528 2.70638 28.3873 2.66211 29.7639 2.96647C29.1174 2.81296 28.4574 2.73626 27.7974 2.74197C27.4363 2.74498 27.0779 2.7722 26.7211 2.82318C27.0761 2.75892 27.4345 2.71826 27.7974 2.702C27.9164 2.69666 28.0354 2.69396 28.1544 2.69388C28.072 2.65723 27.9884 2.6218 27.9037 2.58763C28.2443 2.5858 28.5839 2.60516 28.9228 2.64548ZM30.0016 2.94731C29.7401 2.83825 30.3298 2.94124 31.0038 3.19415C31.6763 3.43678 32.408 3.84941 32.5278 3.92842C32.5811 3.9613 32.804 4.17205 32.8903 4.24449C32.5027 3.99915 32.0966 3.77227 31.6917 3.57831C31.8181 3.66194 31.9437 3.74862 32.0686 3.83834C31.5985 3.59672 31.1107 3.38822 30.6163 3.22421C30.8361 3.27844 31.0496 3.33883 31.2659 3.40842C30.8563 3.22578 30.429 3.06877 30.0016 2.94731ZM19.4215 7.21847C19.6868 6.92786 19.9578 6.64584 20.2463 6.36347C20.1656 6.39481 20.0846 6.42705 20.0034 6.46018C19.8306 6.63527 19.6704 6.80366 19.511 6.97641C19.4808 7.05676 19.451 7.13746 19.4215 7.21847ZM25.8395 2.88522C25.3584 3.15725 23.8465 3.33366 25.5383 2.90251C25.7124 2.86664 25.886 2.85792 25.8395 2.88522ZM33.4855 4.56642C34.5394 5.21146 34.1655 5.22068 33.2816 4.50196C33.237 4.46676 33.4063 4.52039 33.4855 4.56642ZM39.647 11.5384C39.6993 11.6274 39.7388 11.8183 40.2974 12.6243C40.372 12.7695 40.4463 12.9158 40.5203 13.0635C40.3237 12.7199 38.568 10.0155 38.8601 10.3523C39.1427 10.7668 39.3748 11.0995 39.647 11.5384ZM38.106 8.78658C37.8123 8.40255 37.5003 8.01486 37.1904 7.65153C37.2754 7.79039 37.3556 7.92571 37.4374 8.06509C37.2822 7.88519 37.1273 7.71038 36.9635 7.53051C36.7263 7.19006 36.4954 6.87096 36.2383 6.53963C36.9699 7.29542 37.6539 8.11073 38.2926 8.95681C38.2304 8.89949 38.1682 8.84274 38.106 8.78658ZM27.813 2.21864C28.7009 2.25307 29.8115 2.33948 31.1775 2.88441C31.1782 2.88475 31.1788 2.88509 31.1794 2.88543C31.2469 2.91295 31.353 2.99229 31.5684 3.08955C31.6658 3.12894 32.6102 3.55565 33.4343 4.12391C34.2554 4.67325 34.9528 5.3066 34.8156 5.22344C33.5867 4.25721 33.1089 3.92285 32.7322 3.83826C32.6828 3.77655 32.6335 3.71558 32.5828 3.65454C31.3079 2.89844 30.8481 2.88297 30.07 2.68874C30.0786 2.66914 30.0873 2.64956 30.096 2.62998C29.5704 2.4857 29.037 2.38955 28.4989 2.34476C28.5736 2.36477 28.6479 2.38574 28.7217 2.40766C28.5327 2.38761 28.343 2.3739 28.153 2.36661C28.0356 2.34586 27.909 2.33079 27.7974 2.31977C27.4755 2.291 27.2788 2.27664 27.7974 2.22005C27.8025 2.21958 27.8078 2.21911 27.813 2.21864ZM39.3573 10.6186C39.7724 10.8786 41.9178 14.7697 42.7528 16.6298C42.2252 15.6964 41.54 14.2006 40.9707 13.1874C39.8564 11.2391 40.5801 12.6129 40.3698 12.2951C40.2715 12.1438 39.6862 11.0012 39.3573 10.6186ZM24.63 2.85097C25.6201 2.50162 26.207 2.34129 27.1121 2.31235C27.0376 2.33056 26.9635 2.34976 26.8897 2.36993C26.734 2.37811 26.0374 2.46313 25.4446 2.62425C24.8626 2.77479 24.3847 2.96349 24.63 2.85097ZM43.9133 19.3728C43.1238 17.3648 43.4122 18.3876 43.0493 17.3217C43.36 17.9947 43.659 18.6733 43.9482 19.3585C43.9365 19.3633 43.9249 19.368 43.9133 19.3728ZM8.9151 118.987C9.16818 119.873 9.42869 120.866 9.6852 121.348C9.51236 120.76 9.34282 120.163 9.17667 119.558C9.0891 119.369 8.99944 119.17 8.9151 118.987ZM3.21972 93.4353C3.21923 93.6474 3.36823 94.4653 3.378 94.5513C3.39534 94.7121 3.35978 94.6715 3.35197 94.6747C3.47368 95.7321 3.46121 94.7434 3.57035 95.5292C3.58734 95.6659 3.75779 97.5153 3.85999 98.2521C4.01537 99.4116 4.17296 100.557 4.23705 100.982C4.34211 101.689 4.62467 103.051 4.82547 104.221C4.9081 104.704 4.87862 104.885 4.96643 105.381C5.49073 108.529 6.93366 114.676 7.67879 117.406C7.85487 118.089 7.95868 118.749 8.06694 119.099C8.17455 119.363 8.28844 119.645 8.40112 119.918C8.40479 120.863 8.72152 121.081 9.03728 121.982C9.24478 122.573 9.26097 122.87 9.28732 122.949C9.46353 123.47 9.58724 123.712 9.73325 124.111C9.89308 124.549 10.1045 125.239 10.1693 125.395C10.2123 125.488 10.1863 125.153 10.8506 126.88C11.5543 128.68 12.2812 130.385 13.1452 132.139C13.1535 131.411 12.7075 131.005 12.3722 130.299C12.2818 130.108 12.3848 130.208 12.3067 130.041C12.0842 129.567 11.6392 128.663 11.4899 128.267C11.3248 127.832 11.4962 127.936 11.2325 127.401C11.2192 127.374 11.2086 127.481 11.1487 127.354C10.5543 126.072 10.4753 125.631 9.88578 123.956C9.43283 122.871 7.39377 116.045 7.4146 115.791C7.21793 114.517 9.23141 121.752 9.56264 122.559C9.65557 122.853 9.50206 122.563 9.58122 122.833C9.6174 122.955 10.0443 123.904 10.4184 124.904C10.855 126.103 11.7321 128.488 12.2382 129.597C15.4144 136.398 19.8498 144.72 27.7974 145.163C30.2253 145.181 32.5681 144.098 34.4826 142.555C34.6467 142.422 34.8511 142.176 35.359 141.712C44.7235 132.025 47.9826 117.466 50.3726 104.183C50.8538 101.234 51.1822 98.2991 51.5728 95.3065C51.5586 94.9229 51.5417 94.5521 51.5241 94.176C51.4736 95.1175 51.1413 96.8638 51.1197 97.0144C51.1123 97.071 51.1323 97.4378 51.0563 98.0116C50.9485 98.8247 50.8442 99.1806 50.8357 99.2464C50.8076 99.4539 50.8835 99.3258 50.8564 99.5239C50.6534 100.994 50.4996 102.136 50.2839 103.484C50.0406 104.988 49.7944 105.764 49.7093 106.879C49.6416 106.995 49.5738 107.111 49.5059 107.226C49.5647 108.095 48.5304 112.974 48.0039 114.933C47.8461 115.552 47.7968 115.422 47.7444 115.629C47.7073 115.766 47.836 115.717 47.3785 117.343C47.1466 118.154 47.0147 118.342 46.9031 118.743C46.8421 118.961 46.9239 118.944 46.8324 119.259C46.2939 121.099 45.798 122.571 45.1766 124.299C44.9958 124.799 44.9363 124.781 44.8972 124.893C44.7503 125.306 44.5979 126.027 44.194 127.051C43.5594 128.728 42.0585 132.008 41.3125 133.249C41.2036 133.439 41.056 133.563 40.9812 133.703C40.8679 133.915 40.887 134.032 40.867 134.068C40.4801 134.761 40.6543 134.312 40.4075 134.776C40.2677 135.033 40.1846 135.346 39.8408 135.918C39.3849 136.667 39.3937 136.46 39.1959 136.781C39.1752 136.814 39.2265 136.865 39.0233 137.169C38.2856 138.293 37.0279 139.909 36.1416 140.803C35.8766 141.076 35.6472 141.242 35.2745 141.587C34.9084 141.93 33.5936 143.107 32.1434 143.848C30.7044 144.631 29.1571 144.878 28.9309 144.885C28.883 144.886 29.3651 144.732 28.5752 144.827C28.3489 144.889 28.1186 144.942 27.8841 144.986C27.8552 144.981 27.8263 144.977 27.7974 144.972C27.4337 144.912 27.0797 144.829 26.7346 144.726C26.7216 145.021 24.4424 144.471 24.5684 144.205C24.3349 144.106 24.1076 143.998 23.8873 143.884C23.3494 143.796 23.0464 143.594 22.1347 143.1C22.0267 142.968 21.917 142.833 21.8153 142.699C21.7645 142.702 21.7134 142.704 21.6622 142.706C21.3324 142.256 20.5088 141.773 20.4382 141.704C20.1227 141.425 19.92 141.166 19.7741 141.023C19.2268 140.506 18.1012 139.31 17.5923 138.581C17.5678 138.546 17.6506 138.536 17.5032 138.326C17.2346 137.94 17.1316 137.982 16.8833 137.415C16.7875 137.333 16.6917 137.25 16.5959 137.165C16.535 137.048 16.4744 136.93 16.4141 136.81C15.9729 136.165 15.5729 135.539 15.1617 134.855C15.6329 135.409 15.2642 134.669 14.8155 134.063C14.6613 133.854 14.7083 134.089 14.6565 134.02C14.559 133.936 13.0057 130.806 12.9791 130.573C12.8894 130.435 12.7999 130.296 12.7106 130.156C12.718 130.062 12.7255 129.967 12.7331 129.872C12.6809 129.796 12.6288 129.719 12.5767 129.642C12.2611 128.767 11.2091 126.67 11.0766 126.261C11.0033 126.045 11.2547 126.174 10.8533 125.155C10.7902 125.138 10.7271 125.12 10.664 125.103C10.5696 124.868 10.4759 124.632 10.3827 124.394C10.2281 123.95 10.0945 123.281 10.1463 123.238C10.0632 123.112 9.98026 122.984 9.89749 122.856C9.87804 122.434 9.19611 120.462 8.88144 119.654C8.84459 119.404 8.80731 119.149 8.77456 118.907C8.63979 118.603 8.50595 118.297 8.37307 117.988C8.15169 117.246 8.44262 118.014 8.4041 117.853C8.31846 117.517 7.73684 115.82 7.91936 115.9C7.85892 115.668 7.79896 115.434 7.73949 115.2C7.66626 115.09 7.59317 114.98 7.52022 114.869C7.56592 114.429 7.33291 113.732 7.0568 112.293C6.99546 112.18 6.93425 112.066 6.87319 111.953C6.81998 111.497 6.76661 111.029 6.71841 110.576C6.6433 110.497 6.5683 110.418 6.49338 110.339C6.44424 110.148 6.39543 109.957 6.34694 109.764C6.38842 109.346 6.10943 108.66 6.08857 108.284C6.05851 107.735 6.22604 108.135 6.44355 109.112C6.51115 109.017 5.90171 106.115 5.78194 105.432C5.77242 105.48 5.76292 105.528 5.75342 105.576C5.89187 106.268 6.03423 106.953 6.18041 107.631C6.06399 108.247 5.76615 106.384 5.58527 105.517C5.56934 105.442 5.39919 104.99 5.26256 104.133C5.20811 103.799 5.11939 102.462 5.08784 102.207C4.83302 100.158 4.87985 101.689 4.7478 99.6773C4.68864 100.112 4.62088 98.9428 4.44555 97.7572C4.41359 97.559 4.10744 95.8471 4.09327 95.7276C3.99397 94.9988 4.18759 95.7799 4.04196 94.7291C4.0008 94.6067 3.95977 94.4841 3.91889 94.3613C3.89244 94.1177 3.86643 93.8736 3.84087 93.629C3.92924 92.1201 3.72122 91.7782 3.64963 91.2558C3.62116 91.0441 3.70844 91.3124 3.64571 90.762C3.62239 90.5545 3.54951 90.3287 3.49883 89.7667C3.3436 87.9986 3.52271 87.3962 3.18888 85.7885C3.20657 85.5372 3.22465 85.2856 3.24311 85.0336C3.19342 84.8671 3.144 84.7003 3.09485 84.5332C3.14048 83.25 3.04846 83.7167 3.02623 83.254C2.96469 82.0288 2.89995 79.5154 2.98991 79.2955C2.74299 78.2438 2.96032 76.9615 2.94542 76.5512C2.91547 76.3045 2.88603 76.0575 2.85709 75.81C2.87935 75.5184 2.90215 75.2265 2.9255 74.9343C2.75106 75.0552 2.86055 74.0023 2.9037 73.5764C2.91173 73.4959 2.91722 73.438 2.91769 73.4148C2.91764 73.2448 2.86607 70.9166 2.88436 70.0593C2.89713 69.193 2.9896 67.6864 2.99421 67.5559C2.99768 67.4036 2.98517 65.9388 3.03505 64.7837C3.05221 63.7791 3.50327 57.848 3.40675 58.2073C3.35304 58.595 3.29143 59.154 3.24794 59.6259C3.06228 61.102 2.67078 69.8499 2.69579 72.0799C2.68963 72.5753 2.68564 73.0743 2.6838 73.5764C2.66805 77.6042 2.7973 81.7492 3.02578 85.7477C3.04097 86.0128 2.98776 86.0565 3.00098 86.2836C3.02093 86.6288 3.13641 87.4959 3.16011 87.8322C3.24603 89.1049 3.36855 90.6478 3.42912 91.3179C3.56551 92.8386 3.63995 93.8803 3.76006 95.0151C3.79723 95.3795 4.07886 97.1844 4.21279 98.4142C4.22635 98.6426 4.24028 98.8705 4.25457 99.098C4.14538 98.4499 3.88712 96.8052 3.79184 96.0199C3.64783 94.8522 3.63287 94.2534 3.58682 93.8255C3.54727 93.4753 3.31199 91.6238 3.24161 90.8029C3.21865 90.5448 3.27334 90.4867 3.25425 90.2654C3.14941 89.0631 3.0303 87.4694 2.90679 86.4322C2.95035 86.863 2.82407 84.1748 2.82164 84.0449C2.80916 83.8064 2.74127 83.5502 2.71805 83.0609C2.67506 82.1186 2.79216 82.2349 2.63331 81.055C2.65529 80.7607 2.67802 80.4722 2.70115 80.1802C2.54417 80.1724 2.65272 76.4726 2.47262 75.4329C2.43955 75.4018 2.47966 80.2034 2.50452 80.5906C2.56259 82.9729 2.79415 86.4746 2.94866 88.771C2.99045 89.4713 3.08352 91.6365 3.10351 91.8045C3.13084 92.0705 3.16242 91.8251 3.17503 91.9398C3.44108 94.2811 3.22134 93.1201 3.21972 93.4353ZM30.1328 2.45851C29.4839 2.27853 28.8198 2.1703 28.1507 2.14046C28.2002 2.11866 28.2502 2.0973 28.3005 2.07639C28.6088 2.10269 28.9146 2.14523 29.2185 2.20364C29.4563 2.2279 29.6907 2.26113 29.9268 2.30416C29.9963 2.35482 30.065 2.40628 30.1328 2.45851ZM31.7356 2.93715C32.2795 3.17933 32.275 3.24578 32.3965 3.31071C32.7591 3.51543 33.0616 3.67552 33.4006 3.89989C32.9535 3.73201 32.147 3.21483 31.7356 2.93715ZM20.4569 5.1933C20.5688 5.10371 21.3186 4.60268 22.1005 3.92645C22.7524 3.53066 23.4483 3.18374 24.1403 2.9258C22.9353 3.35249 21.491 4.47513 21.0194 4.88557C20.8313 5.04087 20.7692 5.04111 20.6189 5.171C19.7861 5.88961 19.1057 6.78287 18.9348 6.76879C19.6616 6.01949 20.333 5.29109 20.4569 5.1933ZM26.3401 2.17688C26.5162 2.17469 26.6926 2.17752 26.8678 2.18565C26.2478 2.25373 25.6273 2.39137 25.0337 2.58569C25.1862 2.50659 25.3384 2.43207 25.4995 2.36003C25.7787 2.28548 26.0589 2.22438 26.3401 2.17688ZM4.78442 45.5364C4.84569 45.1269 4.90825 44.7194 4.97211 44.3138C4.94448 44.3321 4.87242 44.7969 4.83013 44.9666C4.83024 44.9658 4.83036 44.965 4.83047 44.9643C4.78298 45.1531 4.7642 45.066 4.69801 45.4132C4.72679 45.4543 4.75559 45.4953 4.78442 45.5364ZM51.7427 93.7019C51.8442 93.0222 52.3487 86.6865 52.1456 87.225C52.0585 87.483 51.9629 89.664 51.9055 90.2958C51.8379 91.1438 51.4617 93.4598 51.7427 93.7019ZM52.5757 82.5009C52.4423 82.3853 52.2162 86.3404 52.2061 86.7276C52.232 86.647 52.2861 86.5237 52.3034 86.415C52.3911 85.8839 52.504 83.3515 52.5757 82.5009ZM2.60024 68.3794C2.65671 68.0603 2.71376 67.7419 2.77138 67.4244C2.70594 67.5065 2.64048 67.5886 2.57502 67.6709C2.58299 67.9068 2.5914 68.143 2.60024 68.3794ZM4.32155 99.3495C5.04472 104.635 6.00459 109.859 7.30286 115.041C7.1591 114.594 7.01615 114.139 6.87719 113.688C5.81763 109.23 4.9706 104.402 4.31078 100.016C4.31406 99.7943 4.31764 99.5721 4.32155 99.3495ZM19.2359 6.05652C18.3094 7.01725 17.611 7.92307 16.6966 9.09082C17.4859 7.91042 17.982 7.42837 18.8456 6.35975C18.8461 6.35921 18.8466 6.35865 18.8471 6.35811C18.9768 6.25507 19.1021 6.15893 19.2359 6.05652ZM6.85659 33.4894C6.91431 33.0771 6.97656 32.6556 7.03912 32.2428C6.91901 32.7259 6.79662 33.2319 6.68507 33.7054C6.74224 33.6332 6.79941 33.5612 6.85659 33.4894ZM20.174 142.201C21.2359 143.151 24.3258 145.177 25.5533 145.171C25.625 145.174 24.9889 144.97 26.074 145.088C25.2648 144.955 24.7176 144.769 24.6254 144.84C24.4047 144.727 24.1838 144.605 23.9721 144.477C23.597 144.34 23.2216 144.179 22.8465 143.995C22.9336 143.932 22.8945 143.93 22.3348 143.66C22.1066 143.488 21.8808 143.307 21.6571 143.117C21.5319 143.076 21.417 143.041 21.2962 143C21.1338 142.808 20.9742 142.611 20.8172 142.409C20.029 141.817 20.4159 142.286 20.174 142.201ZM16.8639 138.476C16.8542 138.826 21.5001 143.483 19.5196 141.233C18.9651 140.688 18.4496 140.122 17.9499 139.524C18.114 140.217 17.0068 138.4 16.9196 138.237C16.4664 137.574 15.7953 136.693 15.4919 136.198C15.2202 135.758 15.1056 135.462 14.9147 135.141C14.2785 134.092 13.3685 132.325 13.1452 132.139C13.5694 133 14.0407 133.894 14.5381 134.756C15.0798 135.677 15.4431 136.563 16.7388 138.105C17.0085 138.506 16.8337 138.425 16.8639 138.476ZM7.35484 31.0362C7.41907 31.1188 8.06466 28.6487 8.03971 28.6344C8.02096 28.623 7.80023 29.4146 7.76202 29.5277C7.76182 29.5284 7.76161 29.5292 7.76141 29.5299C7.74513 29.5766 7.77837 29.3262 7.66665 29.6992C7.5595 30.1458 7.45346 30.5999 7.35484 31.0362ZM50.7913 103.533C50.975 103.205 51.9905 95.479 51.9348 95.226C51.9306 95.1622 51.8839 95.2453 51.8653 95.2183C51.7853 97.0529 51.3121 99.6055 51.0493 101.301C50.9771 101.772 51.0557 101.644 51.0531 101.669C51.0529 101.671 51.0528 101.672 51.0526 101.673C51.0126 101.948 50.68 103.15 50.7913 103.533ZM27.9988 145.387C27.9316 145.384 27.8645 145.381 27.7974 145.376C27.5382 145.36 27.2814 145.333 27.0268 145.295C26.9416 145.328 26.8554 145.36 26.7681 145.391C26.7689 145.391 26.7696 145.392 26.7704 145.392C27.113 145.413 27.4553 145.416 27.7974 145.399C27.8647 145.396 27.9318 145.392 27.9988 145.387ZM37.629 139.945C37.5531 139.989 37.4774 140.033 37.4017 140.076C36.849 140.713 36.2822 141.305 35.6684 141.871C35.7178 141.802 35.7671 141.733 35.816 141.664C34.8957 142.47 34.5134 142.879 33.9787 143.251C33.9794 143.251 33.98 143.25 33.9806 143.25C33.9199 143.291 33.813 143.294 33.5903 143.442C33.101 143.807 31.5426 144.572 31.3546 144.678C31.0306 145.051 34.143 143.356 34.5908 142.846C34.8256 142.665 35.139 142.471 35.2808 142.348C35.4347 142.215 35.5806 141.992 35.9332 141.657C36.0508 141.562 37.1942 140.504 37.629 139.945ZM44.7002 127.085C44.5406 127.304 44.4006 127.83 44.3151 128.008C44.2948 128.051 44.3803 127.69 44.1962 128.094C44.1848 128.225 44.1731 128.356 44.1612 128.486C44.3434 128.027 44.523 127.56 44.7002 127.085ZM8.46089 26.9295C8.42858 26.997 8.047 28.3091 8.0387 28.3675C7.88746 29.1697 8.66668 26.4678 8.46089 26.9295ZM28.3103 1.58624C27.9887 1.53003 29.7442 1.52562 31.4793 2.27548C33.2285 2.97376 34.8132 4.31488 35.0762 4.53793C35.0237 4.54592 33.6501 3.43954 34.3413 4.05892C33.7024 3.44312 31.5315 2.30849 30.9737 2.1695C30.6481 2.04789 30.5794 1.97606 30.5297 1.95838C30.3393 1.84893 28.5318 1.58675 28.3103 1.58624ZM39.1319 9.11249C38.7292 8.52697 38.3127 7.96071 37.8756 7.41165C38.4074 8.04762 38.9121 8.71027 39.3936 9.39262C39.3075 9.29958 39.2217 9.20819 39.1319 9.11249ZM39.6559 9.82359C39.7072 9.77001 40.9499 11.8102 41.256 12.3621C40.8221 11.7898 40.2968 10.7353 39.6559 9.82359ZM11.3215 18.3846C10.858 19.3774 10.8712 19.8982 11.2969 18.6273C11.3097 18.5888 11.3413 18.3436 11.3215 18.3846ZM20.1463 142.757C20.267 142.921 22.1527 144.412 22.3214 144.398C22.7757 144.49 21.4017 143.727 21.0366 143.344C20.4459 142.745 21.4268 143.488 19.8452 142.195C19.9272 142.226 20.0092 142.258 20.0909 142.288C19.2354 141.49 19.366 141.894 19.1907 141.769C19.1335 141.729 18.6196 141.175 18.5248 141.088C17.2407 139.974 19.9583 142.704 20.1463 142.757ZM4.30841 44.7152C3.91014 46.8884 4.14779 45.9468 3.83274 48.1892C3.86864 48.2594 4.29784 45.019 4.30841 44.7152ZM9.47022 124.314C10.2562 126.468 10.8535 128.225 11.8289 130.129C11.858 129.937 9.27169 123.775 9.47022 124.314ZM53.782 77.5262C53.2054 86.3637 52.5053 96.5438 50.8414 105.831C50.6603 106.844 50.5558 106.922 50.4974 107.287C50.4586 107.525 50.5346 107.496 50.4748 107.811C48.1798 119.202 45.2666 130.393 38.4418 139.465C38.0543 140.05 35.5761 142.472 35.0673 143.042C34.7436 143.533 36.5615 141.808 36.8348 141.464C37.0473 141.245 37.1095 141.285 37.2506 141.134C37.3999 140.972 37.2401 141.072 37.4119 140.882C38.1558 140.056 38.8905 139.147 39.457 138.345C44.8962 130.376 47.6209 121.286 49.774 112.09C50.0262 110.963 50.035 111.205 50.0483 111.149C50.0483 111.148 50.0483 111.147 50.0483 111.146C51.3707 105.141 52.2592 98.1557 52.9065 91.6613C53.3737 87.0968 53.6747 82.5157 53.8243 77.9281C53.8103 77.7942 53.7962 77.6602 53.782 77.5262ZM16.9637 139.04C17.165 139.621 17.351 139.62 18.6858 141.204C18.8241 141.298 18.9673 141.394 19.1141 141.492C18.3481 140.73 17.6258 139.895 16.9615 139.037C16.9622 139.038 16.9629 139.039 16.9637 139.04ZM28.2883 145.809C28.4654 145.947 29.7839 145.906 31.1943 145.377C32.6161 144.875 34.048 143.896 34.8801 143.266C35.1265 142.944 32.6514 144.763 31.9308 144.957C31.598 145.121 29.7363 145.671 28.2668 145.78C28.274 145.79 28.2811 145.799 28.2883 145.809ZM20.9725 3.85363C20.7096 4.0601 20.4488 4.27787 20.1903 4.50669C20.8554 3.96154 21.5397 3.47684 22.2713 3.0519C21.1045 3.75169 20.0639 4.60289 19.1017 5.54658C19.2559 5.34037 19.4121 5.13871 19.5704 4.9417C20.0062 4.56961 20.4963 4.18473 20.9725 3.85363ZM17.8357 6.89363C19.404 5.11842 17.8065 7.01786 17.4282 7.44738C17.1922 7.69659 17.6676 7.08778 17.8357 6.89363ZM14.2833 11.8665C14.7755 10.8543 16.0045 9.02777 15.6758 9.75414C14.9736 10.7021 14.5913 11.4008 13.7401 12.8555C13.8388 12.6234 13.9385 12.3938 14.0392 12.1667C14.0398 12.1657 14.0403 12.1647 14.0409 12.1637C14.1216 12.0638 14.2024 11.9647 14.2833 11.8665ZM18.4971 6.03521C19.5753 4.9431 16.6102 8.26774 17.4895 7.18359C17.5129 7.13689 18.4541 6.06222 18.4971 6.03521ZM53.6032 87.3244C53.5353 87.1368 53.4541 88.3018 53.4169 88.6998C53.2638 90.3989 53.1005 92.5708 52.8991 94.324C52.9395 94.1951 52.9797 94.066 53.0198 93.9367C53.254 91.7316 53.4471 89.5327 53.6032 87.3244ZM52.2213 99.8155C52.0534 101.017 51.8729 102.216 51.6774 103.42C51.6595 103.532 51.6397 104.065 51.7198 103.679C51.9029 102.392 52.07 101.102 52.2213 99.8155ZM12.6165 132.685C13.002 133.551 11.6275 131.176 11.881 131.213C12.1114 131.69 12.3681 132.206 12.6165 132.685ZM9.18012 124.679C9.39568 125.235 9.61524 125.783 9.83763 126.321C9.81663 126.33 9.79562 126.338 9.77462 126.347C9.57316 125.8 9.37461 125.243 9.18012 124.679ZM53.9359 82.5606C53.8093 83.1782 53.7499 84.6368 53.69 85.5665C53.815 84.9306 53.8549 83.4301 53.9359 82.5606ZM21.108 143.89C21.0951 143.847 21.8677 144.393 22.5546 144.777C23.2512 145.173 23.8189 145.436 23.1896 145.204C22.4474 144.825 21.7714 144.39 21.108 143.89ZM28.5555 146.301C28.2756 146.326 28.0147 146.333 27.7974 146.329C27.3522 146.318 27.0962 146.264 27.2171 146.213C27.4099 146.227 27.6034 146.234 27.7974 146.236C28.0547 146.239 28.3115 146.231 28.5675 146.214C28.5635 146.243 28.5595 146.272 28.5555 146.301ZM12.2423 15.498C11.6729 16.6949 11.1274 17.9496 10.6318 19.1809C10.6359 19.1287 10.6401 19.0766 10.6443 19.0245C11.123 17.8423 11.6532 16.6272 12.2023 15.4737C12.2156 15.4818 12.2289 15.4899 12.2423 15.498ZM54.2302 81.8125C54.2506 80.8814 54.2638 79.9745 54.2713 79.0511C54.2251 79.9742 54.1734 80.8804 54.1147 81.8102C54.1533 81.8118 54.1919 81.8133 54.2306 81.8149C54.2304 81.8141 54.2303 81.8133 54.2302 81.8125ZM24.174 1.66583C20.2525 3.43094 25.1444 0.850638 26.4173 1.05113C26.4185 1.05089 26.4197 1.05063 26.4209 1.05038C26.5214 1.04541 26.3175 1.11561 26.4847 1.10994C26.0481 1.14874 25.6139 1.21628 25.1802 1.31241C24.7968 1.43959 24.4321 1.5848 24.0665 1.75231C23.9402 1.79131 23.814 1.83275 23.6879 1.87657C23.8491 1.80231 24.0111 1.73204 24.174 1.66583ZM38.9017 7.7744C41.0842 10.835 38.847 7.70671 37.6367 6.2798C37.6675 6.27096 38.6967 7.48432 38.9017 7.7744ZM31.1934 1.58591C30.6124 1.38859 30.0113 1.23891 29.4019 1.14643C29.3261 1.12169 29.2498 1.09781 29.1732 1.07482C29.6471 1.131 30.1111 1.21989 30.5741 1.34148C30.7827 1.41655 30.9889 1.49801 31.1934 1.58591ZM14.7712 10.0793C14.2587 10.8738 13.7042 11.9675 15.3427 9.37954C15.3292 9.37235 15.3157 9.36517 15.3022 9.35799C15.2344 9.46125 15.0432 9.77438 15.0314 9.79105C14.997 9.83692 14.9887 9.75445 14.7712 10.0793ZM42.8794 13.497C42.9315 13.5909 43.0835 13.5678 43.4521 14.636C43.6112 14.9421 43.7576 15.2293 43.9085 15.5321C43.9182 15.6234 43.9278 15.715 43.9374 15.8066C43.4115 14.6245 43.2829 14.5275 43.2425 14.4432C43.0446 14.0581 43.2154 14.3305 43.091 14.0813C42.7806 13.4451 41.969 12.0067 42.4043 12.617C42.5602 12.8342 42.8254 13.4017 42.8794 13.497ZM41.7145 11.2182C41.7843 11.3595 41.4925 10.9445 41.5429 11.0526C41.5899 11.1378 42.3351 12.5384 42.0641 12.1986C41.9392 11.9687 41.8134 11.7417 41.6868 11.5177C41.6592 11.4328 41.6315 11.3481 41.6037 11.2637C41.4644 11.0608 41.3189 10.8518 41.1724 10.6458C40.991 10.2585 40.5633 9.47282 41.1618 10.3524C40.9513 10.0203 40.7392 9.696 40.5147 9.36432C40.3826 9.20569 40.2502 9.04961 40.1174 8.89608C40.2055 8.96372 40.2935 9.03225 40.3816 9.10166C40.8538 9.80063 41.2923 10.5007 41.7145 11.2182ZM46.6586 22.2356C46.6273 22.1961 46.596 22.1567 46.5646 22.1174C47.0727 23.4462 47.7485 25.5585 47.2699 24.3944C46.667 22.5599 46.0094 20.746 45.2817 18.9588C45.2451 18.8341 45.2084 18.7098 45.1716 18.586C45.6694 19.9548 45.6887 19.4441 46.0829 20.6501C46.146 20.8516 45.8725 20.3063 46.3676 21.5294C46.3672 21.4793 46.3668 21.4292 46.3663 21.3791C46.4646 21.6624 46.5621 21.9479 46.6586 22.2356ZM49.9701 33.9966C49.4451 31.6299 50.106 34.215 50.1535 34.6691C50.1533 34.6684 50.1532 34.6676 50.153 34.6668C50.2954 35.9001 49.7805 33.2986 49.7379 33.1477C49.687 32.9379 49.4837 32.4666 49.3351 31.3102C49.5543 32.1933 49.7705 33.1086 49.9701 33.9966ZM47.98 26.3069C48.0415 26.5012 47.9858 26.4002 48.0114 26.4845C48.0117 26.4853 48.0119 26.486 48.0121 26.4867C48.4064 27.7429 49.218 30.7147 49.22 31.0696C49.0006 30.1313 47.8029 25.9801 47.7593 25.727C47.8349 25.9246 47.9068 26.1126 47.98 26.3069ZM44.8361 17.6751C44.5703 16.9117 45.2816 18.5701 45.4315 19.0285C45.4597 19.1141 45.1073 18.4545 44.8361 17.6751ZM6.33055 29.2C5.89672 30.9285 6.55962 28.6827 6.40701 29.4804C6.49214 29.1517 6.57827 28.8251 6.66541 28.5006C6.55344 28.7322 6.44182 28.9654 6.33055 29.2ZM3.62299 108.903C3.69144 109.313 3.7054 109.109 3.71293 109.144C3.76318 109.412 3.77106 109.671 3.79565 109.773C4.25747 111.634 4.0491 110.375 4.05481 110.355C4.09735 110.305 4.25631 110.785 4.17586 110.091C4.07442 109.68 3.97445 109.267 3.87594 108.85C3.86395 108.637 3.85229 108.422 3.84096 108.208C3.62796 107.399 3.81126 108.475 3.75691 108.62C3.7346 108.674 3.54781 107.894 3.62299 108.903ZM5.38973 32.2287C5.38699 32.525 5.30378 33.2353 5.53917 32.5755C5.53935 32.5748 5.53954 32.574 5.53973 32.5732C5.58303 32.4511 5.71705 31.9468 5.77418 31.797C5.96741 30.677 5.76394 31.0668 5.38973 32.2287ZM2.22276 101.413C2.14858 100.737 2.07781 100.056 2.01047 99.3716C2.06413 99.3762 2.11779 99.3808 2.17146 99.3853C2.20449 99.7518 2.23849 100.117 2.27347 100.481C2.31453 100.605 2.35574 100.728 2.39709 100.851C2.39492 100.394 2.39411 99.9363 2.39468 99.4765C2.30279 98.9347 2.21339 98.3903 2.12804 97.8568C2.13055 98.1085 2.13322 98.3577 2.13681 98.6105C1.94484 97.2966 2.10651 97.5688 2.02859 96.465C1.93809 96.0939 1.84878 95.7212 1.76068 95.3469C1.75096 94.7953 1.74449 94.2531 1.73939 93.703C1.62897 92.7901 1.58631 92.7113 1.58946 93.3347C1.48394 92.8849 1.53612 92.3745 1.46276 91.8234C1.45676 91.7779 1.40569 91.8694 1.40149 91.829C1.12646 89.0069 1.30544 89.1332 1.27628 88.6796C1.25638 88.3513 1.07228 87.0928 1.03699 87.0727C0.991023 87.0484 0.958489 89.725 0.712733 85.5548C0.695105 87.7219 1.01121 90.1656 1.08664 88.5614C1.1087 89.2583 1.39789 92.2346 1.41625 92.4392C1.43287 92.7204 1.35137 92.6292 1.38165 92.9801C1.4007 93.1877 1.61273 93.7195 1.63707 95.3606C1.68669 95.5681 1.73668 95.7752 1.78704 95.9817C1.78599 96.1807 1.7852 96.3795 1.78466 96.5781C1.65879 96.1843 1.53436 95.7884 1.4114 95.3904C1.66873 96.9963 1.66074 98.3107 1.92564 99.2791C2.01757 100.125 2.05763 100.533 1.93786 100.183C1.97131 100.435 2.00526 100.687 2.03969 100.937C2.10047 101.096 2.16149 101.255 2.22276 101.413ZM4.32441 37.3039C4.08707 38.1119 4.1694 38.4409 4.20319 38.3128C4.39373 37.5953 4.44835 36.8849 4.32441 37.3039ZM3.43794 107.384C3.31993 106.47 3.20514 105.528 3.10337 104.614C3.04759 104.624 2.99181 104.633 2.93604 104.643C3.0933 105.548 3.26388 106.481 3.43794 107.384ZM6.30552 28.9241C6.36047 28.8505 6.41544 28.7771 6.47041 28.7039C6.63068 27.7004 7.08989 26.7775 7.20603 26.2845C7.23108 26.1779 7.1106 26.3717 7.03735 26.5685C6.98388 26.6987 6.3397 28.7429 6.30552 28.9241ZM33.6406 2.07205C33.2801 1.87868 32.909 1.69965 32.5337 1.54051C32.5678 1.52219 32.602 1.50402 32.6364 1.48599C32.8203 1.56901 33.0026 1.6564 33.1843 1.74867C33.338 1.8531 33.4954 1.96411 33.6406 2.07205ZM29.2161 0.510795C28.7475 0.442552 28.2738 0.405948 27.7974 0.402155C27.5193 0.399933 27.2418 0.408868 26.9653 0.428815C27.3129 0.399191 27.5853 0.391658 27.7974 0.389264C29.3264 0.43518 27.6954 0.29986 29.2287 0.419538C29.2245 0.449957 29.2203 0.480376 29.2161 0.510795ZM21.9447 1.99209C22.0096 1.93197 22.0814 1.86874 22.1521 1.80728C22.8081 1.44419 23.4702 1.14214 24.1878 0.893777C23.7176 0.984962 23.2437 1.10857 22.7921 1.24962C22.5444 1.36767 22.2986 1.49415 22.055 1.62879C22.0155 1.7503 21.9759 1.8731 21.9447 1.99209ZM8.18227 126.684C8.31799 127.07 8.9235 128.384 8.93628 128.316C8.75049 127.73 8.58158 127.168 8.41468 126.594C8.35715 126.613 8.29961 126.631 8.24208 126.65C8.24114 126.56 8.24028 126.471 8.2395 126.381C8.10182 126.069 7.96523 125.754 7.82976 125.436C7.82127 125.253 7.81499 125.074 7.80993 124.898C7.69818 124.758 7.58667 124.617 7.4754 124.475C7.89874 126.044 8.00057 125.979 8.11145 126.296C8.17024 126.459 8.17293 126.575 8.17646 126.639C8.17839 126.654 8.18033 126.669 8.18227 126.684ZM2.96831 106.819C3.2875 108.711 3.65844 109.804 3.81287 111.184C3.87024 110.271 2.54924 104.586 2.50168 102.531C2.42851 102.326 2.35574 102.121 2.28338 101.915C2.48112 103.023 2.51415 103.796 2.58624 104.333C2.64388 104.758 2.68117 104.706 2.68568 104.738C2.68593 104.74 2.68618 104.741 2.68642 104.743C2.82964 105.737 2.84299 106.067 2.96831 106.819ZM6.54854 27.5053C6.35149 27.982 6.10595 28.8603 6.17718 28.8911C6.3368 28.4078 6.49843 27.9297 6.66201 27.4568C6.61411 27.5498 6.58207 27.4237 6.54854 27.5053ZM21.1253 2.27714C20.7275 2.50145 19.9275 3.13347 20.3142 2.91534C20.3712 2.87671 21.2056 2.24406 20.7631 2.68146C21.5993 2.10701 21.3453 2.15419 21.1253 2.27714ZM0.521779 73.9261C0.521372 73.8096 0.521063 73.693 0.520852 73.5764C0.520444 73.3508 0.520404 73.1254 0.520731 72.9002C0.485483 72.8205 0.450308 72.7408 0.415206 72.6611C0.439878 72.9659 0.465297 73.271 0.491467 73.5764C0.501462 73.693 0.511566 73.8096 0.521779 73.9261ZM7.84654 23.286C8.13556 22.9002 8.2519 22.1375 8.67013 21.3588C8.78201 21.0606 8.89483 20.7651 9.00861 20.4722C9.00889 20.4715 9.00917 20.4708 9.00945 20.4701C8.97535 20.448 8.94127 20.426 8.90719 20.404C8.53845 21.3522 8.17871 22.3329 7.84654 23.286ZM1.4568 95.1294C1.45915 94.9197 1.46178 94.7097 1.46469 94.4994C1.39988 94.1324 1.33615 93.764 1.27353 93.3943C1.27268 93.5978 1.27209 93.801 1.27178 94.0039C1.33232 94.3805 1.394 94.7557 1.4568 95.1294ZM9.82654 18.0788C9.38093 19.0938 9.33956 19.5298 9.88411 18.219C10.1153 17.6725 10.2975 17.0296 9.82654 18.0788ZM19.9128 145.051C19.588 144.786 19.2694 144.508 18.9563 144.217C18.821 144.153 18.6814 144.083 18.5538 144.022C18.9889 144.382 19.4522 144.734 19.9128 145.051ZM26.5198 0.241879C26.4727 0.271303 26.4259 0.301047 26.3795 0.331114C26.0031 0.375124 25.6306 0.438782 25.2598 0.521908C25.3471 0.476725 25.4352 0.432639 25.5241 0.389681C25.8542 0.325089 26.1835 0.27603 26.5198 0.241879ZM17.8065 143.182C17.5747 142.94 17.3478 142.693 17.1383 142.455C16.9775 142.31 16.8174 142.161 16.658 142.009C16.8456 142.251 17.0357 142.489 17.2283 142.721C17.4086 142.867 17.613 143.033 17.8065 143.182ZM14.8483 8.73431C14.5598 9.08432 13.7029 10.5799 14.5753 9.29266C15.1553 8.46384 14.8904 8.68497 14.8483 8.73431ZM16.2369 6.82247C15.1682 8.11903 16.1073 7.26939 17.3016 5.64202C15.9773 7.19744 16.3145 6.74919 16.2369 6.82247ZM29.5531 0.141012C29.5986 0.150002 29.633 0.190798 29.9949 0.267227C31.3159 0.528326 32.8922 1.26495 33.6748 1.74681C35.8202 2.67131 40.0799 7.56628 40.2874 8.30019C40.3585 8.44086 40.0974 8.18661 40.131 8.24068C40.2392 8.40265 40.8451 9.24269 40.697 9.11302C40.1342 8.2654 39.5163 7.41262 38.8615 6.60677C39.0484 6.78063 39.2347 6.95929 39.4204 7.14263C37.7723 5.11766 38.2957 5.81504 37.7398 5.29467C37.4548 4.94384 37.175 4.61504 36.8637 4.27489C36.1463 3.62937 35.3504 3.00447 34.5202 2.47244C34.7164 2.57935 34.9121 2.69163 35.1072 2.80918C33.9135 1.90146 34.2195 2.16903 33.4855 1.78917C33.4953 1.76822 33.5052 1.74726 33.515 1.7263C32.1955 1.06283 31.9141 0.94346 31.6112 0.814476C30.9802 0.622771 30.1883 0.436077 27.7974 0.129588C27.7052 0.12033 27.6105 0.111535 27.5133 0.103348C26.4155 0.284224 26.4079 0.0408356 25.7866 0.2796C24.3461 0.497302 26.0864 -0.0355067 27.7974 0.00188875C28.2995 0.00749063 28.7866 0.0526778 29.1716 0.106081C29.1725 0.1062 29.1734 0.106319 29.1743 0.106438C29.3014 0.125607 29.1031 0.0669727 29.5531 0.141012ZM20.5873 2.60398C21.0013 2.23954 20.3119 2.6594 19.7337 3.1322C19.1361 3.61712 18.6704 4.11036 19.2364 3.72854C19.3988 3.59519 19.5649 3.46309 19.7304 3.33608C20.0124 3.07985 20.2947 2.83798 20.5894 2.60248C20.5887 2.60297 20.588 2.60348 20.5873 2.60398ZM4.22858 35.7408C3.52158 39.2978 4.03734 37.2929 4.21645 36.0827C4.2525 35.8434 4.26116 35.7026 4.22858 35.7408ZM3.33223 109.573C3.36438 109.621 3.39655 109.669 3.42875 109.717C3.16409 108.503 2.84391 106.18 2.70378 106.23C2.9016 107.352 3.1071 108.447 3.33223 109.573ZM1.69182 100.032C1.71636 100.295 1.83984 101.357 1.87721 101.221C1.85255 100.758 1.82939 100.292 1.80775 99.825C1.75568 99.6131 1.70399 99.4007 1.65269 99.1877C1.68247 99.4909 1.68479 99.9611 1.69182 100.032Z" fill="var(--stroke-0, #0061FE)"/>
</svg>
