<svg preserveAspectRatio="none" width="100%" height="100%" overflow="visible" style="display: block;" viewBox="0 0 127.053 7.07791" fill="none" xmlns="http://www.w3.org/2000/svg">
<path id="Vector 45" d="M2.95715 0.145277C5.59884 -0.241037 7.42641 0.40667 9.85399 0.607896C15.2472 1.0554 22.4011 1.1451 27.9322 1.30275C32.1158 1.42539 36.3866 1.54626 40.5408 1.62627C40.7554 1.63034 40.8826 1.6893 40.9798 1.69115C41.8978 1.70883 43.4132 1.67124 44.3224 1.68543C46.2329 1.71732 49.5418 1.71891 51.279 1.77004C52.0121 1.79239 52.7823 1.80001 53.0689 1.936C53.3399 1.94219 53.4872 1.81802 53.5578 1.81105C53.5586 1.81117 53.5594 1.81129 53.5602 1.81141C53.7878 1.78981 54.3619 1.87415 54.4882 1.86813C54.5071 1.86719 54.3903 1.77819 54.6971 1.8038C54.7244 1.80599 54.6996 1.86703 54.9576 1.8666C55.0248 1.86657 55.8864 1.76835 56.137 1.76088C56.9665 1.73747 58.926 1.79409 59.9124 1.78149C60.0636 1.77984 60.1502 1.74325 60.3097 1.74081C60.392 1.73951 60.5159 1.77674 60.5412 1.77623C60.6523 1.77361 61.1347 1.59217 60.965 1.94077C61.4705 1.9126 61.3199 1.79983 61.3305 1.72531C61.8788 1.70766 62.1447 1.86718 62.2853 1.69231C64.9819 1.67643 67.6827 1.64797 70.3771 1.60799C70.3772 1.57978 70.3774 1.55158 70.3776 1.52337C71.1729 1.61797 71.4448 1.4208 71.9024 1.57342C72.1818 1.53064 72.4609 1.48775 72.7398 1.44474C79.9307 1.37581 87.1088 0.982272 94.2196 0.673448C94.5198 0.660383 94.5973 0.717095 95.0926 0.695747C95.639 0.67214 96.4077 0.568124 97.1261 0.536424C97.7574 0.508536 98.6922 0.522483 99.3984 0.498482C99.5577 0.492972 99.6712 0.449628 99.6892 0.449003C99.7947 0.44556 99.8028 0.505408 99.9053 0.502325C100.028 0.498502 100.174 0.447021 100.315 0.443154C100.842 0.428344 101.415 0.385677 101.482 0.383533C101.804 0.373908 101.878 0.429261 101.904 0.428651C102.263 0.418699 102.126 0.372067 102.215 0.370874C102.679 0.364924 103.012 0.481588 103.641 0.323669C103.626 0.373645 103.611 0.42362 103.596 0.473595C104.084 0.477611 103.756 0.36266 103.854 0.334186C103.895 0.323484 104.936 0.288522 105.017 0.286816C105.297 0.281483 105.308 0.34639 105.332 0.346079C105.391 0.345305 106.092 0.236356 106.457 0.275306C106.889 0.32152 106.391 0.479445 106.499 0.499088C106.517 0.502429 106.965 0.466449 107.027 0.505002C107.096 0.546414 106.708 0.564839 106.715 0.583294C106.72 0.595983 107.369 0.655979 107.248 0.724211C107.152 0.791474 106.274 0.755233 106.091 0.793626C106.061 0.799985 106.122 0.873954 106.095 0.878114C105.986 0.894093 103.98 0.995055 103.887 0.986666C103.991 0.946546 104.093 0.906498 104.196 0.866402C104.057 0.869642 103.918 0.872873 103.778 0.876136C103.975 0.838417 104.17 0.800789 104.367 0.763085C104.061 0.489287 103.186 0.824521 103.157 0.970047C103.144 1.03732 103.695 1.18214 103.195 1.30623C103.273 1.31959 103.35 1.33294 103.428 1.34629C103.585 1.31058 103.742 1.27484 103.898 1.23909C103.792 1.22655 103.686 1.21399 103.58 1.20143C103.617 1.17955 103.655 1.15767 103.693 1.13579C103.988 1.08931 104.28 1.04293 104.573 0.996428C104.725 1.00379 104.697 1.06436 104.801 1.07066C106.108 1.15046 105.251 1.00931 106.104 0.993547C106.227 1.01921 106.35 1.04486 106.474 1.0705C106.424 0.941536 106.806 1.00509 107.26 0.925638C107.208 0.9708 107.155 1.01596 107.103 1.06112C107.768 1.00533 109.111 1.15188 108.739 0.935949C108.891 0.948297 109.044 0.960631 109.196 0.972949C109.322 0.928188 109.448 0.883416 109.574 0.838635C109.751 0.834037 109.928 0.829421 110.105 0.824783C110.107 0.845466 110.109 0.86615 110.111 0.886833C109.969 0.894152 109.828 0.90146 109.687 0.908754C109.796 0.966519 109.906 1.02428 110.015 1.08203C110.118 1.06624 110.222 1.05044 110.326 1.03463C109.885 0.997209 110.457 0.870263 110.592 0.779743C110.959 0.730076 111.201 0.826176 111.325 0.824698C111.385 0.823956 112.054 0.59809 111.798 0.821616C112.147 0.778109 112.497 0.734531 112.846 0.690886C112.984 0.699875 113.123 0.708851 113.261 0.717819C112.968 0.831007 113.838 0.903931 113.203 0.977476C112.73 1.0325 112.608 0.947147 112.383 0.959412C112.18 0.970336 112.076 1.03741 111.856 1.05151C110.367 1.14546 109.15 1.19614 107.74 1.23964C107.46 1.24823 107.207 1.29117 107.018 1.29633C106.806 1.30206 107.068 1.2116 106.798 1.24388C106.516 1.27789 106.457 1.34392 106.383 1.34892C106.336 1.35195 106.185 1.30262 106.05 1.30935C105.491 1.33711 104.677 1.432 104.598 1.43554C104.51 1.43934 102.926 1.46507 102.85 1.45927C102.81 1.45613 102.883 1.24284 102.546 1.48274C102.437 1.49211 102.329 1.50147 102.22 1.51081C102.236 1.46815 102.252 1.42549 102.267 1.38282C101.632 1.57214 101.849 1.4729 101.23 1.51479C99.7499 1.61527 97.5551 1.68137 95.9335 1.7681C95.5708 1.78762 95.4348 1.84383 95.0059 1.8663C94.6074 1.88709 93.5611 1.78259 93.7962 1.97982C92.9026 1.83869 92.7732 2.15371 92.3208 1.97969C92.2683 2.01001 92.2157 2.04032 92.1632 2.07063C91.6761 1.9705 91.5318 2.08249 91.0064 2.11879C90.7799 2.13446 91.036 1.99571 90.5843 2.15702C90.4964 2.14999 90.4086 2.14294 90.3207 2.13589C90.3398 2.10409 90.3589 2.07228 90.3779 2.04047C89.8709 2.08649 89.8375 2.07159 89.9002 2.18521C89.654 2.17402 89.408 2.16276 89.1618 2.15144C89.1328 2.19071 89.1039 2.22998 89.0749 2.26925C89.1951 2.33978 94.7611 1.99741 95.5358 1.92541C96.4519 1.97142 98.2706 1.78091 99.0079 1.76705C99.3027 1.76165 99.4367 1.84167 99.8659 1.83199C100.296 1.82226 100.829 1.71882 101.056 1.70523C101.812 1.66044 105.417 1.50254 102.971 1.72841C103.044 1.76695 103.116 1.80549 103.189 1.84403C104.155 1.6537 103.808 1.75888 104.614 1.73432C104.952 1.72407 105.755 1.59059 105.719 1.78328C105.09 1.84994 104.42 1.82178 103.872 1.8512C103.817 1.85417 103.171 1.97274 102.835 1.9652C102.533 1.95814 102.732 1.76661 102.085 2.00196C101.589 1.82606 101.316 2.02009 101.189 2.0454C100.968 2.08923 100.939 1.99207 100.717 1.9911C100.474 1.98986 100.311 2.06291 100.278 2.0649C99.9451 2.08224 98.215 2.17123 98.1343 2.135C98.203 2.11438 98.2717 2.09376 98.3405 2.07313C97.8901 2.06566 97.9886 2.16186 97.8711 2.17929C97.7832 2.18294 97.6953 2.18658 97.6075 2.19021C97.6413 2.16777 97.6752 2.14533 97.7091 2.1229C97.1794 2.15141 97.588 2.20554 96.836 2.23759C96.3585 2.25783 95.8597 2.20023 95.8137 2.20817C95.8001 2.21047 95.9531 2.25745 95.7584 2.27331C95.436 2.29949 94.878 2.32264 94.8124 2.25234C94.6548 2.26959 94.6714 2.34044 94.6505 2.34299C94.5588 2.35417 92.9828 2.44652 92.6998 2.46252C91.9161 2.50739 91.043 2.52845 90.1946 2.57496C90.1074 2.57971 90.1613 2.53159 90.0738 2.53662C89.9335 2.54471 89.2158 2.64562 89.1082 2.65494C88.8398 2.67815 88.1315 2.67739 88.021 2.70253C88.0053 2.70611 88.2405 2.75902 87.9691 2.78884C87.6678 2.82185 87.8272 2.73216 87.8108 2.73197C87.1948 2.7273 86.8088 2.79997 86.3894 2.82701C86.2535 2.83573 86 2.7824 85.8088 2.80808C85.7867 2.811 85.8327 2.86736 85.8111 2.87102C85.5219 2.91224 85.2469 2.81459 85.1212 2.81221C84.8136 2.8064 84.9836 2.8797 84.9676 2.88086C84.7632 2.89086 84.4869 2.8722 84.176 2.88714C82.7895 2.95363 81.6569 2.99732 80.1829 3.03978C79.9977 3.04513 79.7761 2.99613 79.7477 2.99696C79.6601 3.00017 79.6873 3.06523 79.434 3.07177C78.9002 3.08526 78.4031 3.10379 77.876 3.11841C77.7698 3.12134 77.7226 3.06169 77.6416 3.0628C77.3699 3.06724 76.4469 3.25401 76.4259 3.05558C75.8908 3.24704 75.5273 3.10539 75.0922 3.11903C74.0605 3.15137 72.4547 3.2283 71.4243 3.22956C71.2076 3.22979 71.1047 3.18121 70.9841 3.18126C70.7672 3.18146 69.5393 3.23726 69.4741 3.23045C69.3471 3.21771 69.4185 2.99191 68.7717 3.20101C68.3902 3.22286 68.4333 3.12981 68.3543 3.12647C67.738 3.10207 67.1414 3.31894 67.25 3.12852C66.535 3.19335 66.0753 3.30554 65.7799 3.13463C65.7852 3.22048 65.4498 3.27796 65.0432 3.25201C65.4563 3.1006 65.4039 3.0096 66.4072 3.01793C66.423 3.01806 66.394 3.08074 66.4098 3.08088C66.5531 3.08247 66.8506 3.04559 67.0948 3.04431C67.3404 3.04301 67.2049 3.08808 67.3031 3.08538C67.393 3.0828 67.3889 3.02341 67.519 3.02004C67.9409 3.0095 68.3134 2.98554 68.5529 2.97955C68.7038 2.97583 68.8738 3.02454 68.9908 3.02208C69.4438 3.01222 70.3987 2.95042 70.9747 2.94265C71.095 2.94119 71.046 3.00099 71.3091 2.99968C71.3399 2.99952 71.4505 2.93578 71.6803 2.91761C71.9102 2.89943 72.0894 2.92543 72.2369 2.91549C72.3602 2.90717 72.3074 2.85417 72.5603 2.8445C72.7721 2.83725 75.1577 2.81364 75.2901 2.81795C75.4773 2.82527 75.5682 2.89903 75.6819 2.88655C75.7019 2.88399 75.7338 2.80941 75.8032 2.80218C76.9462 2.68371 79.4835 2.7071 80.7922 2.66269C83.5271 2.57154 86.0492 2.43609 88.8079 2.3099C88.8566 2.29514 88.9053 2.28039 88.954 2.26563C88.6751 2.27621 88.3961 2.28671 88.1172 2.29712C88.1141 2.26255 88.1109 2.22798 88.1078 2.19341C87.7305 2.20263 87.7837 2.28257 87.7962 2.33161C87.6558 2.31604 87.5155 2.30046 87.3751 2.28485C87.2594 2.41027 86.3256 2.36549 85.8458 2.38344C85.5335 2.39509 85.1643 2.45475 84.9997 2.45718C84.6519 2.46247 84.6582 2.3876 84.6309 2.38742C84.5845 2.38742 84.1016 2.47066 83.7514 2.48052C83.2337 2.4952 83.1738 2.38285 82.4683 2.50447C81.5572 2.47638 80.555 2.53955 79.576 2.58035C79.759 2.46871 78.8849 2.59659 78.4887 2.60699C76.0777 2.67124 73.1132 2.70619 70.6634 2.71978C70.3501 2.72166 70.1119 2.66461 69.9373 2.67054C69.8426 2.67368 69.8028 2.74806 69.671 2.74121C69.6478 2.73984 69.6303 2.67152 69.385 2.66645C68.7756 2.65391 67.2522 2.79893 66.8657 2.67395C64.7854 2.73336 62.6934 2.78579 60.6073 2.83056C60.5545 2.8031 60.5016 2.77563 60.4487 2.74817C60.05 2.89657 58.4863 2.82844 57.7223 2.84116C56.3744 2.86474 54.66 2.91896 53.4817 2.9275C53.2253 2.92941 53.0149 2.88931 52.7718 2.89076C52.6671 2.89144 52.537 2.94451 52.428 2.94501C51.2027 2.95184 49.5672 2.89696 48.3292 2.89454C45.5459 2.8893 42.9229 2.86132 40.0862 2.82811C30.5863 2.71714 21.0825 2.5117 11.678 2.0648C11.5515 2.05879 11.5605 1.99845 11.4624 1.99368C10.8882 1.96545 9.56751 1.95533 8.93025 1.92247C8.41447 1.89626 7.59535 1.76407 7.41164 1.84864C9.23642 2.07859 11.2182 2.15853 13.1282 2.2795C13.2642 2.28808 13.2786 2.34642 13.2953 2.34819C13.6039 2.38132 13.4121 2.29375 13.8603 2.30899C14.005 2.31412 15.4096 2.55597 15.2479 2.36578C15.584 2.45353 17.935 2.58173 18.3832 2.57328C18.5202 2.57097 18.4254 2.51311 18.4527 2.51137C18.5704 2.50374 18.6227 2.58059 18.7299 2.58648C19.0163 2.60175 19.7441 2.56721 19.8814 2.57245C20.1985 2.5845 21.1425 2.67832 21.5575 2.67782C21.9382 2.67752 21.8696 2.59696 22.1979 2.60066C22.4564 2.6037 22.1732 2.6603 22.7486 2.69894C23.0307 2.71798 24.0523 2.70315 24.2958 2.71048C24.5414 2.71803 24.8128 2.77311 25.1503 2.77958C25.6371 2.78918 26.6906 2.79332 27.1807 2.79165C27.2103 2.79162 27.282 2.73272 27.356 2.73602C27.508 2.74272 27.4603 2.81659 27.5748 2.82733C27.6914 2.83863 29.6705 2.88073 30.0024 2.88904C30.2327 2.89507 30.3926 2.85411 30.5195 2.85752C30.6192 2.86031 30.6284 2.92314 30.7299 2.92623C30.7614 2.92697 31.0304 2.87891 31.2971 2.88627C31.5451 2.89337 32.5211 2.96652 32.6314 2.96923C32.7045 2.97099 32.6254 2.92484 32.8413 2.93046C33.0379 2.93569 33.1657 2.9961 33.2777 2.99925C33.5374 3.00648 33.8282 2.96307 34.1028 2.96822C34.8918 2.98293 34.849 3.05341 34.8964 3.05668C35.0272 3.06559 35.0808 3.00103 35.1237 3.00047C35.3059 2.99836 35.7468 2.99417 35.9133 2.99452C36.1173 2.99491 36.2026 3.05867 36.419 3.06255C36.5802 3.06524 36.9066 3.00998 37.2732 3.01285C38.1002 3.0191 39.0765 3.02165 39.8817 3.03426C40.125 3.03801 40.1615 3.09529 40.2358 3.09769C40.6261 3.11033 40.8447 3.04927 40.9558 3.0514C41.7493 3.06657 43.1537 3.17999 43.8812 3.19406C44.1825 3.2001 45.4956 3.16352 46.231 3.17536C46.3152 3.17666 46.2361 3.22082 46.3299 3.21433C46.5541 3.19875 46.5337 3.10788 46.6473 3.11118C46.7021 3.11304 46.8268 3.1648 46.9863 3.17059C47.8099 3.2006 48.3865 3.16227 48.766 3.1659C52.3939 3.2009 56.12 3.2076 59.5051 3.18003C59.8856 3.17691 60.3564 3.11778 60.9294 3.16329C60.9473 3.19128 60.9653 3.21926 60.9832 3.24724C61.0029 3.21929 61.0226 3.19134 61.0423 3.16339C61.6901 3.14039 61.9341 3.10154 62.5942 3.12771C62.651 3.12988 62.8262 3.25615 62.9311 3.09474C63.585 3.20107 63.2259 3.08956 63.7129 3.07146C64.2005 3.05326 64.6743 3.08134 65.1459 3.08144C65.4056 3.13444 64.3226 3.2845 64.2514 3.28504C64.1372 3.28634 64.0174 3.20871 63.9073 3.20619C63.5817 3.19858 63.266 3.26631 63.1935 3.19642C62.7766 3.2775 63.2965 3.23246 63.2452 3.30077C62.9658 3.27692 62.6862 3.25294 62.4063 3.22883C62.2677 3.46093 60.7157 3.18084 60.825 3.35425C60.7012 3.32069 60.5774 3.28711 60.4536 3.2535C59.9154 3.47917 59.591 3.32817 58.8747 3.26986C58.9268 3.29744 58.9788 3.325 59.0309 3.35257C59.0164 3.36448 58.3829 3.41537 58.6085 3.29364C57.9596 3.45719 57.9847 3.19481 57.4019 3.38906C57.0546 3.41607 57.263 3.30451 56.6403 3.31093C56.2721 3.3146 55.8093 3.37511 55.4012 3.38141C55.3069 3.38268 55.2655 3.31917 55.1816 3.31962C55.0976 3.3201 55.057 3.3828 54.9552 3.38489C54.745 3.38935 54.4719 3.34675 54.3403 3.35154C54.2224 3.35566 54.054 3.4115 53.7692 3.42122C52.774 3.45527 53.0739 3.37535 52.9166 3.34923C52.7473 3.32135 52.626 3.42539 52.288 3.41403C52.2541 3.41283 52.3416 3.34804 52.2314 3.35079C52.1425 3.35293 52.098 3.42329 51.8032 3.4368C51.6876 3.44271 49.8819 3.45811 49.604 3.4585C49.1812 3.46001 48.2345 3.39836 47.7945 3.39714C47.6269 3.39657 47.4475 3.4523 47.269 3.4512C46.6781 3.44763 45.7287 3.43794 44.9727 3.42996C44.289 3.423 43.1027 3.28842 42.7323 3.39711C41.7822 3.40257 41.5502 3.30356 41.4786 3.30156C41.2843 3.29583 41.1935 3.35844 40.9479 3.35857C37.7782 3.36053 33.6061 3.24354 30.6002 3.17592C23.6427 3.02377 16.6357 2.80886 9.64436 2.46013C9.62416 2.48743 9.60397 2.51472 9.58377 2.54202C10.417 2.59878 11.3889 2.69144 12.2017 2.73804C13.2832 2.80028 14.9017 2.74988 15.6983 2.97433C15.3731 2.97829 14.8454 2.88283 14.8508 2.98222C15.4332 3.0131 16.0133 3.04336 16.5911 3.07301C16.5757 3.0266 16.5602 2.98018 16.5448 2.93377C17.149 2.94407 17.7635 2.9775 18.3647 2.99328C18.4691 2.99608 18.3967 2.95181 18.4876 2.95497C18.5892 2.95858 18.5187 2.9983 18.5378 2.99934C18.7993 3.00943 18.88 2.96954 18.9118 2.97133C18.9936 2.976 18.9286 3.0144 19.164 3.03439C19.6008 3.07158 19.9166 2.97447 19.8078 3.15099C19.9487 3.15601 20.0894 3.16099 20.23 3.16593C20.2681 3.11817 20.3062 3.07041 20.3443 3.02265C21.2014 3.25084 21.6087 2.91668 22.0738 3.20807C22.2315 3.17116 22.389 3.13421 22.5463 3.09722C22.6326 3.14913 22.7189 3.20104 22.8051 3.25292C22.8236 3.21139 22.8421 3.16985 22.8605 3.12831C23.7111 3.1869 24.6209 3.16438 25.429 3.19304C25.9923 3.21296 26.1263 3.23342 26.6233 3.24431C27.7286 3.26788 26.6241 3.32095 27.5475 3.43653C27.5004 3.38361 27.4533 3.33067 27.4062 3.27773C27.5611 3.26303 27.7158 3.24828 27.8703 3.23349C27.9764 3.27845 28.0825 3.3234 28.1884 3.36832C28.6692 3.16249 28.971 3.34649 29.0355 3.34814C29.0875 3.34906 29.2701 3.22229 29.8259 3.34737C29.5988 3.16198 30.2517 3.35672 30.304 3.35897C30.3541 3.36095 30.9931 3.33592 31.2511 3.34345C31.4517 3.34935 31.8926 3.39798 32.199 3.40274C32.4698 3.40694 32.4435 3.3453 32.4633 3.3451C32.7962 3.34715 32.5867 3.39011 32.827 3.39753C33.0673 3.40492 33.2544 3.35674 33.3061 3.36245C33.3321 3.36546 33.2438 3.42052 33.3629 3.42845C33.6829 3.45002 34.2614 3.41168 34.6258 3.42004C34.755 3.42296 34.9169 3.47424 35.0605 3.47837C35.2807 3.48454 35.3847 3.42234 35.5124 3.42654C35.556 3.42816 35.8403 3.53226 36.1987 3.52321C36.2668 3.52133 36.47 3.31538 36.7299 3.6164C36.751 3.575 36.7722 3.53359 36.7933 3.49219C37.99 3.4083 38.3141 3.7517 38.8465 3.45835C39.7068 3.50385 39.1143 3.61292 39.2085 3.63219C39.2694 3.64439 39.5502 3.61591 39.5809 3.61814C39.6353 3.62245 39.6255 3.65996 39.6852 3.66053C40.7921 3.66768 40.3022 3.59028 40.6534 3.54957C41.4882 3.45217 42.1347 3.69725 40.6867 3.6093C40.6865 3.63029 40.6862 3.65129 40.686 3.67228C41.044 3.65661 41.9476 3.67586 41.6446 3.77908C41.4081 3.86109 39.2536 3.77982 40.4728 3.91253C40.7494 3.94249 40.8937 3.86546 41.3703 4.01853C41.6863 4.03 41.7339 3.83914 42.1601 3.92033C42.0906 3.85285 42.0211 3.78536 41.9516 3.71787C42.535 3.63694 43.2496 3.76022 43.6942 3.72646C43.8429 3.715 44.3997 3.40097 44.268 3.71822C44.526 3.70058 45.7328 3.76716 45.9559 3.73965C46.0096 3.73299 46.0814 3.56424 46.8573 3.62704C46.9111 3.64852 46.9649 3.67 47.0187 3.69148C46.3089 3.75004 47.5615 3.81829 47.2206 3.9776C47.1055 3.90491 46.5427 3.85824 46.452 3.82139C46.2974 3.75803 46.7593 3.67979 46.1711 3.69872C45.7989 3.96552 46.8595 3.84733 46.6962 4.10163C47.4677 3.98604 47.5433 4.0997 47.7175 4.1051C48.4677 4.12689 48.9429 4.10092 49.6493 4.13164C49.822 4.0796 48.541 4.00176 48.3811 4.02368C48.9683 3.83941 47.9554 3.82849 47.5365 3.93709C47.5014 3.88081 47.4663 3.82453 47.4311 3.76824C47.9748 3.80077 48.523 3.81799 49.0684 3.77295C49.104 3.79402 49.1395 3.81508 49.1751 3.83614C49.0524 3.86753 48.9295 3.8989 48.8066 3.93025C49.2617 3.98294 48.9893 3.81877 49.5947 3.96312C49.6135 3.89991 49.6323 3.8367 49.6511 3.77349C50.2312 3.79519 50.8097 3.81628 51.3866 3.83678C51.6824 3.70996 52.8078 3.75493 52.6018 3.91946C53.0536 3.92995 52.4957 3.84397 52.9188 3.80295C53.103 3.78515 53.4623 3.77914 53.5512 3.82299C53.5136 3.97948 52.9756 4.00056 52.8127 4.10827C52.9142 4.14356 55.409 4.02145 55.1863 4.20472C55.3851 4.22561 55.2934 4.13198 55.6512 4.10579C56.6653 4.03292 58.2291 4.20628 59.035 3.96448C58.0837 3.84369 57.8028 3.98359 57.0715 3.99478C56.6004 4.00326 53.7605 4.04002 54.3943 3.87131C54.2901 3.89277 54.1859 3.91421 54.0815 3.93563C53.9758 3.88686 53.8701 3.83808 53.7643 3.78927C54.0619 3.7811 54.359 3.77277 54.6558 3.76428C54.7269 3.81302 54.798 3.86175 54.8691 3.91046C54.9016 3.87527 54.9341 3.84007 54.9665 3.80487C55.0914 3.79728 55.2161 3.78965 55.3408 3.78201C55.306 3.82431 55.2712 3.86662 55.2364 3.90892C55.4292 3.91508 55.6193 3.92118 55.8147 3.9272C55.7621 3.87124 55.7095 3.81528 55.6569 3.75932C56.5708 3.73953 56.2613 3.77663 56.7681 3.87837C57.1456 3.88634 56.5076 3.783 57.3054 3.74944C58.2317 3.70992 57.6263 3.8873 58.8232 3.83946C58.8402 3.81122 58.8571 3.78298 58.8741 3.75474C59.1379 3.78026 59.3985 3.8057 59.6647 3.83096C59.6293 3.79642 59.5939 3.76188 59.5585 3.72734C60.1061 3.73522 60.8571 3.65974 61.0393 3.79443C60.4858 3.73516 60.4937 3.97409 60.6382 4.0164C60.9372 4.10573 65.3148 3.95887 66.1618 3.93472C67.2411 3.90765 68.0708 3.9679 69.0582 3.8294C68.3842 3.74794 66.0222 3.87196 65.5754 3.81211C65.531 3.80632 65.5397 3.58695 65.259 3.8384C64.3409 3.81216 63.2373 3.89921 62.0954 3.90729C62.1296 3.84372 62.1637 3.78014 62.1978 3.71657C62.9033 3.8413 63.5492 3.53667 63.4621 3.78319C63.603 3.78108 63.7438 3.77895 63.8846 3.77678C63.8839 3.73455 63.8833 3.69232 63.8826 3.65009C64.0948 3.64682 64.3068 3.64347 64.5186 3.64006C64.5193 3.68229 64.52 3.72452 64.5207 3.76675C64.6961 3.76392 64.8715 3.76104 65.0468 3.7581C65.0644 3.71569 65.0819 3.67328 65.0995 3.63087C65.6267 3.71 67.4054 3.44311 66.6262 3.70907C66.8719 3.70453 67.1171 3.6999 67.3649 3.69513C67.3635 3.66426 67.3621 3.6334 67.3607 3.60254C67.4669 3.59634 67.573 3.59013 67.6791 3.58389C67.6447 3.61253 67.6103 3.64116 67.5758 3.66979C68.0616 3.61023 68.5252 3.74793 68.842 3.64458C68.6313 3.62786 68.4204 3.61107 68.2095 3.59421C68.6142 3.62624 69.3551 3.5274 69.4214 3.52571C69.6238 3.52093 69.7318 3.58102 69.951 3.57936C70.1489 3.57769 70.1206 3.53032 70.1575 3.53119C71.2243 3.55596 70.8253 3.82468 71.3176 3.50571C71.3719 3.54643 71.4261 3.58715 71.4803 3.62787C71.5503 3.59117 71.6203 3.55446 71.6903 3.51774C72.0065 3.51348 72.3225 3.50906 72.6383 3.50449C72.5317 3.45464 72.4251 3.40478 72.3185 3.35489C72.7912 3.31982 73.0143 3.41936 73.0602 3.42063C73.1899 3.42347 73.2475 3.35591 73.2875 3.35477C75.213 3.3103 74.0434 3.39906 75.0151 3.62119C75.3566 3.51442 75.0057 3.42638 74.9542 3.32868C75.413 3.36262 75.5549 3.33124 76.0375 3.32311C76.163 3.32105 76.2995 3.37061 76.3786 3.36907C76.4473 3.36774 76.6599 3.30479 76.8244 3.29977C77.0986 3.29137 77.4644 3.31446 77.8394 3.30232C78.15 3.29222 79.1076 3.22274 79.7741 3.20093C80.0587 3.19183 79.9942 3.24141 80.0677 3.23915C80.0983 3.23816 80.3182 3.17414 80.5007 3.16797C81.9872 3.11827 83.5166 3.10132 85.0115 3.04562C86.0648 3.0065 87.1346 2.9202 88.1905 2.88355C88.4153 2.87581 88.2979 2.92221 88.3961 2.91984C88.4298 2.91888 88.4675 2.84449 88.8161 2.86004C88.9421 2.86562 88.7997 2.92229 88.9233 2.91993C88.9834 2.91875 89.0064 2.85392 89.3569 2.82533C89.9937 2.7732 90.3401 2.84424 90.3969 2.83941C90.5041 2.83013 90.4706 2.77857 90.6128 2.77085C91.3084 2.73307 91.8892 2.69987 92.5105 2.66919C92.8015 2.65514 94.7986 2.55824 94.9094 2.56259C95.1561 2.57291 94.9321 2.69329 95.2472 2.67567C95.3343 2.64385 95.4214 2.61203 95.5084 2.58019C95.3672 2.56518 95.226 2.55015 95.0848 2.53509C95.4725 2.5536 95.9083 2.48398 96.1945 2.4731C96.2474 2.47119 96.7363 2.49943 96.9831 2.48279C96.8788 2.50827 96.7745 2.53374 96.6703 2.55919C96.7083 2.5752 96.7463 2.59121 96.7843 2.60722C97.278 2.55815 97.8019 2.53503 98.3103 2.51551C98.4937 2.50839 98.4337 2.5542 98.6193 2.54713C99.701 2.50622 99.4203 2.34028 100.477 2.62674C100.124 2.61298 98.8429 2.71529 98.6566 2.71258C98.5264 2.71077 98.0104 2.45054 98.2082 2.73281C97.1707 2.7789 98.0643 2.57755 97.0975 2.65651C97.1185 2.69112 97.1394 2.72574 97.1604 2.76035C96.8234 2.798 96.5747 2.82712 96.3658 2.77373C96.3043 2.94904 95.1488 2.89954 94.5189 2.93851C93.6084 2.99473 92.5811 3.08062 91.6776 3.12564C91.3665 3.14111 91.1875 3.08089 91.1484 3.08272C91.0914 3.08556 90.9335 3.15127 90.8197 3.15637C90.3944 3.17569 89.0974 3.12781 88.7818 3.30448C91.3121 3.20442 93.8407 3.0971 96.3727 2.98382C96.0525 2.91771 98.6074 2.79415 98.7383 2.79166C98.8586 2.78973 98.7602 2.851 98.796 2.85279C99.0631 2.8648 99.2864 2.77218 99.3709 2.76825C99.4353 2.76527 99.5672 2.79774 99.7963 2.7862C99.8384 2.78412 99.8481 2.74284 99.8934 2.74061C100.193 2.72662 100.487 2.71336 100.786 2.69905C100.804 2.69858 100.883 2.75451 100.958 2.75105C101.034 2.74747 101.106 2.68448 101.125 2.68339C101.364 2.6725 101.776 2.69164 102.004 2.68116C102.083 2.67737 102.026 2.63643 102.115 2.63261C102.387 2.62063 102.301 2.71021 102.637 2.67208C102.749 2.65925 102.739 2.5944 102.956 2.59257C103.109 2.5913 103.098 2.70831 103.123 2.71136C103.156 2.71485 103.681 2.59747 103.857 2.66509C103.489 2.88429 104.272 2.65544 104.229 2.57258C104.438 2.58374 104.648 2.59486 104.858 2.60595C104.928 2.58099 104.998 2.55604 105.068 2.53108C105.916 2.58629 106.428 2.50267 107.261 2.49085C107.302 2.49034 108.005 2.50286 107.973 2.53473C107.558 2.60763 107.138 2.63104 106.865 2.54842C106.433 2.75343 106.418 2.60802 105.707 2.66752C105.469 2.68753 105.454 2.73801 105.427 2.73999C104.504 2.8104 103.017 2.90396 102.386 2.78864C102.212 2.83632 102.843 2.82164 102.599 2.86232C102.465 2.88526 99.2587 3.08304 100.277 2.86747C100.17 2.87711 100.064 2.88675 99.957 2.89637C99.8576 3.05931 99.3254 3.04788 99.3784 2.88778C99.3296 2.92231 99.2809 2.95683 99.2321 2.99135C99.1341 3.02319 99.0174 3.04322 98.8531 3.05947C98.2246 3.12262 94.4725 3.23529 94.2741 3.26549C94.2712 3.303 94.2683 3.34052 94.2654 3.37803C95.9246 3.34827 97.5261 3.18341 99.3383 3.20638C99.2841 3.17382 99.23 3.14126 99.1759 3.1087C99.8998 3.12428 100.623 3.13944 101.345 3.15432C100.588 3.25382 99.3735 3.36394 98.5703 3.34855C98.4276 3.34579 98.5296 3.29219 98.4967 3.28778C98.4105 3.27635 98.3225 3.36527 98.016 3.38753C97.7093 3.40983 96.936 3.38466 96.8656 3.38949C96.73 3.39909 96.3658 3.51251 96.1334 3.52163C95.8281 3.53354 96.03 3.46446 95.9687 3.46592C95.715 3.4713 95.4891 3.51106 95.2905 3.51537C94.9956 3.52179 94.3792 3.44303 94.1802 3.60678C94.3908 3.60474 94.6015 3.60265 94.8122 3.60052C93.6737 3.70591 92.7744 3.54601 91.6559 3.7456C91.4081 3.94377 92.3363 3.87969 91.554 3.99247C91.6965 3.98386 91.8391 3.97522 91.9816 3.96657C92.0134 3.9259 92.0452 3.88523 92.077 3.84455C92.324 3.8623 92.5709 3.87998 92.8179 3.8976C92.7463 3.86557 92.6747 3.83354 92.6031 3.80151C93.4732 3.73831 94.3495 3.66427 94.662 3.83911C94.6779 3.79284 94.6939 3.74657 94.7098 3.7003C95.5205 3.72042 96.727 3.47317 96.5114 3.73641C96.5491 3.72128 96.5868 3.70614 96.6246 3.69101C97.1151 3.7208 96.9018 3.62551 97.0847 3.60542C97.1368 3.59979 98.0882 3.61069 97.671 3.70495C98.5997 3.72014 98.3034 3.49655 98.5582 3.47448C99.1565 3.56448 100.217 3.33876 99.7763 3.54489C99.8651 3.54771 99.9539 3.55053 100.043 3.55334C100.327 3.39404 100.62 3.54547 100.936 3.58574C101.043 3.584 101.15 3.58226 101.256 3.5805C101.325 3.52811 101.394 3.47571 101.463 3.42331C102.476 3.60887 102.128 2.98594 102.612 3.5C102.542 3.5355 102.472 3.571 102.402 3.60649C102.234 3.62985 102.065 3.65318 101.897 3.6765C102.58 3.65808 103.264 3.63929 103.949 3.62013C104.821 3.7282 105.304 3.54109 106.273 3.6122C106.362 3.59346 106.452 3.57472 106.541 3.55597C106.456 3.68191 106.105 3.68149 106.759 3.70352C106.819 3.78657 106.379 3.8196 106.176 3.76369C106.126 3.75002 106.535 3.66389 106.072 3.68449C105.758 3.69837 106.333 3.77336 105.391 3.78159C105.426 3.80085 105.462 3.8201 105.498 3.83935C105.396 3.84377 105.294 3.84818 105.192 3.85259C105.099 3.80852 105.006 3.76445 104.913 3.72037C104.684 3.80188 104.559 3.9065 104.025 3.91155C104.169 3.87409 103.967 3.78624 103.703 3.80073C103.705 3.83584 103.706 3.87095 103.708 3.90607C103.069 3.95967 103.285 3.84596 102.758 3.95201C102.703 3.92665 102.649 3.90129 102.594 3.87592C102.31 4.00497 101.25 4.1339 101.436 3.95216C101.145 4.13399 100.516 4.08787 100.276 3.96474C100.26 4.00045 100.243 4.03617 100.227 4.07188C100.103 4.08479 99.9788 4.09768 99.8548 4.11056C99.7844 4.0927 99.714 4.07484 99.6437 4.05698C99.5565 4.08218 99.4694 4.10737 99.3823 4.13255C99.3275 4.10003 99.2726 4.0675 99.2178 4.03497C99.0782 4.08347 98.9386 4.13196 98.799 4.18044C98.7111 4.15651 98.6232 4.13257 98.5354 4.10862C98.5297 4.18208 97.673 4.23757 97.4316 4.20044C97.3612 4.22489 97.2909 4.24933 97.2206 4.27377C97.1841 4.2406 97.1477 4.20742 97.1113 4.17424C97.0595 4.20443 97.0077 4.23463 96.9559 4.26482C96.8323 4.24253 96.7091 4.22021 96.5851 4.19791C96.0927 4.39069 96.0699 4.24185 95.9559 4.248C95.7443 4.2594 95.0289 4.39785 94.9083 4.39759C94.7878 4.39732 94.7271 4.3387 94.6298 4.33718C93.0266 4.31048 93.6911 4.44591 93.3715 4.48575C93.199 4.50731 93.0744 4.45546 92.9214 4.46829C92.6596 4.49016 91.341 4.62093 91.2647 4.61653C91.1536 4.61044 91.4031 4.33063 91.0461 4.41481C91.0402 4.55983 90.2648 4.44547 90.6326 4.63225C90.3151 4.62752 89.9975 4.62268 89.68 4.61772C89.7228 4.78755 89.3278 4.69312 88.9024 4.71948C88.2997 4.7569 86.9456 4.92172 86.9885 4.74399C86.8456 4.78988 86.7026 4.83573 86.5596 4.88156C85.5682 4.8636 84.6015 4.95698 83.6197 4.99376C80.7049 5.10347 77.5467 5.16446 74.6405 5.20768C74.5007 5.20972 74.5196 5.15175 74.4193 5.15316C73.8933 5.16107 72.5244 5.23672 71.7836 5.24154C71.5464 5.2432 71.4296 5.18989 71.3543 5.18909C71.0988 5.186 71.1607 5.25838 71.043 5.259C70.8562 5.26007 69.8797 5.21355 69.5421 5.21351C69.3752 5.21356 69.179 5.27642 68.9831 5.26241C68.9663 5.26129 68.9961 5.2002 68.9818 5.19944C68.6253 5.19949 68.8407 5.24726 68.7201 5.24702C67.8598 5.2452 66.9372 5.26187 66.0083 5.26588C65.7771 5.26683 65.4222 5.23034 65.2234 5.22967C65.1475 5.22952 65.2843 5.27311 65.0221 5.2737C64.9323 5.27389 64.9006 5.21476 64.7991 5.21256C64.3618 5.20342 64.2183 5.39738 63.8396 5.24903C63.1105 5.27057 61.86 5.33701 61.1967 5.34604C61.0402 5.34814 60.9636 5.31384 60.8144 5.31625C60.7085 5.31793 60.5227 5.37469 60.3573 5.37723C60.1919 5.37975 59.9301 5.3307 59.6114 5.33595C59.2772 5.3414 58.8651 5.37627 58.7896 5.37679C58.699 5.37766 58.6561 5.31241 58.5654 5.31409C58.2914 5.31883 57.5565 5.38967 57.2017 5.3993C56.8206 5.40962 56.5911 5.37935 56.4607 5.38089C56.3398 5.3826 56.1991 5.43891 56.1439 5.43976C56.0579 5.44116 56.0372 5.37655 55.928 5.37777C55.7491 5.37994 55.5665 5.42175 55.3016 5.42429C50.4989 5.47067 45.8021 5.42033 41.1375 5.3204C40.6169 5.30915 40.316 5.35107 39.5512 5.32036C39.2426 5.30781 39.3736 5.24275 39.1329 5.25211C39.0255 5.25634 39.0519 5.30925 38.9161 5.30991C38.3161 5.3126 37.6145 5.25301 37.3528 5.24968C37.2491 5.24829 37.1295 5.30608 36.9164 5.30348C35.3118 5.28422 33.4759 5.23236 31.7521 5.20418C30.85 5.18975 29.4957 5.1877 28.4542 5.16442C25.5926 5.10154 22.5156 4.99153 19.9121 4.90477C15.9753 4.77385 12.0584 4.6654 8.13187 4.41325C9.94117 4.6443 12.4737 4.74547 14.5051 4.8442C20.4118 5.13282 26.7139 5.24999 32.7755 5.38022C34.8809 5.42618 37.5529 5.46912 39.8453 5.53148C39.9507 5.53432 40.1699 5.49121 40.3974 5.49884C40.4459 5.50061 41.0437 5.59142 41.2448 5.59445C41.0558 5.44357 41.8427 5.58489 42.0855 5.58367C42.3922 5.58213 43.0315 5.51407 43.7441 5.56197C44.3971 5.60528 44.2174 5.66098 44.2532 5.66488C44.4848 5.68983 44.5662 5.59817 44.7436 5.59011C45.4708 5.56015 49.1745 5.62899 50.2134 5.63062C50.4807 5.63159 50.4881 5.69019 50.5483 5.69042C50.7076 5.69083 50.9343 5.63291 51.189 5.63314C51.6464 5.63373 52.1807 5.68819 52.4357 5.68784C53.0459 5.68735 54.1987 5.61819 54.9845 5.61273C55.2055 5.61121 55.1923 5.67228 55.2923 5.67153C55.7292 5.66826 56.891 5.58869 57.4383 5.58348C58.3325 5.57528 59.2381 5.60609 60.1516 5.57584C60.2096 5.60242 60.2675 5.62899 60.3254 5.65556C60.416 5.62597 60.5065 5.59636 60.597 5.56674C62.133 5.57064 63.6855 5.48711 65.2138 5.46533C65.3896 5.4629 66.2586 5.49974 66.403 5.49722C66.5233 5.49503 66.6404 5.42545 66.8187 5.43206C67.0688 5.44115 66.835 5.57402 67.2439 5.52952C67.3541 5.51747 67.246 5.46458 67.4673 5.44318C67.5409 5.43632 68.9586 5.38539 69.0343 5.38734C69.1613 5.39107 69.2769 5.5064 69.3097 5.50823C69.4801 5.51788 69.4709 5.42768 69.5848 5.41697C69.9208 5.38505 70.3614 5.43599 70.416 5.43341C71.0747 5.40206 72.3161 5.30028 73.0104 5.32527C73.1065 5.3288 73.0967 5.39636 73.1137 5.39812C73.2228 5.4093 73.2885 5.33098 73.3918 5.32656C73.9482 5.30371 74.8202 5.33209 75.3828 5.32957C75.4474 5.32922 75.5828 5.28859 75.6981 5.28894C76.3504 5.29133 76.1406 5.35633 76.1777 5.35785C76.2657 5.36162 76.4182 5.29203 76.6515 5.28126C77.253 5.25325 78.4037 5.22809 79.0506 5.21284C79.5342 5.20174 79.5292 5.27655 79.561 5.27704C79.6289 5.27758 79.8153 5.21202 80.1331 5.19503C80.7445 5.16196 80.6766 5.22278 80.928 5.21202C80.9491 5.21132 80.9105 5.15515 81.1891 5.14C81.7268 5.11094 82.9408 5.12596 83.5176 5.10252C83.7395 5.09364 83.7895 5.03646 84.0167 5.02731C84.3768 5.01267 85.1917 5.04296 85.2557 5.0404C85.2737 5.03974 85.3116 4.97459 85.4172 4.9707C85.5334 4.96643 85.6488 4.99498 85.7355 4.99155C86.2291 4.97246 87.0749 4.82903 86.8473 5.06526C87.0033 5.00314 87.1592 4.941 87.3152 4.87883C88.3489 4.85038 89.3519 4.78816 90.3746 4.73514C90.6047 4.72324 90.7987 4.75841 90.9929 4.74833C91.187 4.7383 92.0413 4.63145 92.1845 4.62403C92.4405 4.61115 93.8919 4.54171 94.0726 4.5388C94.4255 4.53327 94.7718 4.61221 94.9147 4.58755C95.0291 4.56772 94.9203 4.51949 95.1394 4.49485C95.5184 4.45225 96.1681 4.49147 96.2843 4.48519C96.334 4.48253 96.2391 4.4455 96.704 4.42168C96.9538 4.40877 97.09 4.44814 97.1807 4.44383C97.2089 4.44231 97.1632 4.3706 97.6585 4.35803C98.0007 4.34945 98.1491 4.39959 98.185 4.39816C98.2389 4.39608 98.3661 4.32948 98.5826 4.32164C99.0883 4.30374 100.018 4.33018 100.499 4.31282C100.591 4.30951 100.556 4.23775 100.926 4.22704C101.191 4.21939 101.148 4.27986 101.247 4.2775C101.404 4.27364 101.635 4.19116 101.982 4.1769C102.419 4.15963 105.668 4.07549 105.836 4.08592C105.95 4.09321 106.081 4.08754 106.138 4.11643C106.092 4.14916 106.045 4.1819 105.999 4.21463C105.497 4.13267 105.703 4.2445 105.572 4.25883C105.381 4.27947 104.662 4.29924 104.489 4.33472C104.428 4.3475 104.573 4.4054 104.242 4.45497C103.886 4.50804 103.72 4.40044 103.585 4.565C103.068 4.41465 102.589 4.62387 103.18 4.6451C103.514 4.65726 106.729 4.56198 107.392 4.53799C107.93 4.51893 108.918 4.42212 109.575 4.40078C109.96 4.38846 110.911 4.34804 110.875 4.43387C111.219 4.42688 110.852 4.36202 110.923 4.34673C111.073 4.31479 112.143 4.31756 112.344 4.3049C113.336 4.24275 114.591 4.08356 115.567 4.13855C115.523 4.16333 115.479 4.1881 115.436 4.21288C115.219 4.2655 114.204 4.25938 114.096 4.37292C115.58 4.29574 117.041 4.21909 118.523 4.14089C118.493 4.05065 120.319 3.95528 120.407 3.99207C120.377 4.03814 120.348 4.08421 120.318 4.13027C119.278 4.01647 119.385 4.23402 118.681 4.15269C118.397 4.16599 118.487 4.23478 118.348 4.25608C116.967 4.46767 118.317 4.10688 117.259 4.22837C117.584 4.31791 116.717 4.40248 116.33 4.43632C116.242 4.44394 115.08 4.4777 114.939 4.4867C114.16 4.53693 112.829 4.66435 112.058 4.64562C111.453 4.66974 111.117 4.76294 110.566 4.80866C110.147 4.84338 110.265 4.78399 110.067 4.7934C109.653 4.81299 109.525 4.98197 109.249 4.76932C108.97 4.81168 108.692 4.85399 108.413 4.89624C108.412 4.86113 108.41 4.82602 108.408 4.79091C108.232 4.79977 108.057 4.80859 107.881 4.81742C107.831 4.85502 107.781 4.89262 107.73 4.93022C107.167 4.91039 107.397 4.8141 107.287 4.71994C107.166 4.71916 107.044 4.71838 106.923 4.71758C106.833 4.79857 106.743 4.87956 106.654 4.96053C106.113 4.98118 105.573 5.00163 105.034 5.02186C104.998 4.98858 104.961 4.9553 104.925 4.92202C104.925 4.95707 104.926 4.99211 104.927 5.02716C104.018 5.07896 103.098 5.13077 102.186 5.18161C101.945 5.24947 103.412 5.22164 103.524 5.21949C104.146 5.20814 105.773 5.0717 105.783 5.19617C106.161 5.08425 107.318 5.04983 107.684 5.14337C107.137 5.16406 106.591 5.18454 106.046 5.20481C106.066 5.24576 106.085 5.2867 106.105 5.32765C105.418 5.19257 105.319 5.20674 104.63 5.40025C104.627 5.3442 104.623 5.28815 104.62 5.2321C104.146 5.45082 103.265 5.16191 103.253 5.40381C102.992 5.39684 102.732 5.38982 102.472 5.38275C101.914 5.43872 102.79 5.58312 100.598 5.61398C100.447 5.616 100.476 5.55319 100.248 5.56808C100.183 5.5724 99.8111 5.67933 99.0929 5.70325C98.9807 5.70694 98.9698 5.65412 98.8533 5.65272C98.5841 5.64908 98.0546 5.77877 98.2894 5.59615C97.2249 5.59461 97.6716 5.71523 97.3447 5.78614C97.127 5.83319 97.1666 5.72971 96.9777 5.76128C96.744 5.80035 96.9213 5.89509 95.9758 5.89004C96.0813 5.87838 96.1869 5.86672 96.2924 5.85505C96.2379 5.82962 96.1835 5.80419 96.129 5.77876C95.5936 5.8694 95.6402 5.76961 95.3933 5.93707C94.9991 5.88461 94.6604 5.89389 94.1264 5.92969C93.0888 5.99909 93.6296 6.14477 92.433 5.96825C92.2421 6.00818 92.0513 6.04807 91.8604 6.08792C91.5416 6.03413 91.7937 5.93979 91.3215 5.94243C91.6973 6.09255 90.7 6.07332 90.5379 6.22748C90.5189 6.19308 90.4998 6.15867 90.4807 6.12426C90.3754 6.12855 90.2702 6.13283 90.1649 6.13709C90.1657 6.16528 90.1665 6.19346 90.1673 6.22165C90.0262 6.20623 89.8851 6.19079 89.7441 6.17532C89.6397 6.20749 89.5354 6.23964 89.4311 6.27179C89.2553 6.2198 89.0795 6.16779 88.9037 6.11574C88.7946 6.11602 88.6856 6.11629 88.5765 6.11654C88.6126 6.15714 88.6488 6.19775 88.6849 6.23835C88.5444 6.22983 88.4039 6.2213 88.2633 6.21274C88.4289 6.2752 88.3297 6.36 87.8938 6.37481C87.5341 6.387 87.9337 6.22777 87.1627 6.31718C87.1089 6.32347 87.0174 6.42978 86.287 6.47309C85.411 6.5248 85.8341 6.43463 85.6778 6.43787C85.6471 6.43859 85.3814 6.50006 85.131 6.51661C84.9889 6.52602 84.8504 6.48934 84.8316 6.49013C84.7439 6.49522 84.7204 6.55506 84.5989 6.56158C84.2903 6.57781 83.8745 6.56372 83.572 6.57731C83.4344 6.58342 83.3062 6.62286 83.2448 6.62542C83.1496 6.62916 83.0269 6.58004 82.9306 6.58359C82.5751 6.59706 82.0404 6.79236 81.8675 6.55216C81.5338 6.78969 80.8089 6.5401 80.8663 6.68989C79.9519 6.6635 77.5179 6.92395 77.5832 6.66661C77.0728 6.89968 77.1142 6.74056 76.8976 6.75016C76.6554 6.76079 76.7822 6.79939 76.5895 6.80304C76.1394 6.81155 75.7087 6.80551 75.2602 6.81699C75.3297 6.78016 75.3991 6.74332 75.4685 6.70647C74.9975 6.70824 75.1619 6.78503 74.6818 6.81366C73.8019 6.86569 74.1714 6.79091 74.039 6.7029C74.0764 6.79041 73.0371 6.80347 72.9308 6.79437C72.8674 6.78885 73.1414 6.66818 72.5053 6.72071C72.5411 6.75488 72.5767 6.78904 72.6125 6.82319C72.3211 6.78258 71.5333 6.86232 71.3988 6.85362C71.3375 6.84957 71.0002 6.57487 70.7059 6.8052C70.6689 6.771 70.6319 6.7368 70.5949 6.7026C70.2629 6.75226 69.9305 6.80175 69.5979 6.85106C69.5432 6.78912 69.4886 6.72717 69.434 6.66522C69.3281 6.66749 69.2222 6.66975 69.1163 6.67199C69.1878 6.72652 69.2592 6.78104 69.3307 6.83556C68.6764 6.82425 67.8771 6.9285 67.7382 6.74218C67.5984 6.77997 67.4585 6.81772 67.3185 6.85544C67.2259 6.79434 67.1327 6.73324 67.041 6.67209C66.3945 6.70005 66.3844 6.74216 65.9426 6.81704C65.9591 6.76767 65.9755 6.7183 65.992 6.66893C65.6665 6.74364 65.0704 6.81802 64.5974 6.83429C64.3726 6.84195 63.985 6.78037 63.9319 6.7873C63.8786 6.79462 63.3533 7.06823 63.2934 6.83903C62.5227 6.95217 62.18 6.85253 61.8659 6.85922C61.6617 6.86359 61.5692 6.91999 61.3383 6.92859C61.0078 6.94096 60.6743 6.91819 60.4831 6.92419C60.3738 6.92777 60.354 6.98184 60.2785 6.98438C59.9218 6.99656 60.1303 6.93926 59.7539 6.94691C59.719 6.94791 59.4448 7.01652 59.1377 7.01112C58.9657 7.0082 58.5194 6.93853 58.4801 6.93904C58.3056 6.94187 58.4467 7.08843 57.8482 6.92301C57.8658 6.95093 57.8834 6.97886 57.9009 7.00679C57.1623 7.08421 57.0437 6.95966 56.8941 6.95215C56.8751 6.95158 56.6949 7.00128 56.5868 6.99536C56.4042 6.98523 56.3301 6.91946 56.2896 6.91682C56.1477 6.90764 55.6648 6.93982 55.3555 6.87746C55.4224 7.06576 54.3311 7.13834 54.0873 6.92565C53.8939 6.96854 53.7002 7.01138 53.5063 7.05414C53.4184 7.01928 53.3305 6.98441 53.2425 6.94952C53.1892 6.98472 53.1359 7.01991 53.0825 7.05509C52.7992 6.97876 52.5155 6.90228 52.2316 6.82566C52.2136 6.90296 52.1957 6.98026 52.1777 7.05756C52.0982 7.04892 52.0187 7.04026 51.9391 7.03159C51.877 6.97028 51.8144 6.90897 51.7528 6.84765C51.6545 6.8595 51.5562 6.87133 51.4579 6.88314C51.4336 6.92759 51.4093 6.97204 51.3849 7.0165C50.8555 7.068 51.1286 6.64444 50.1174 7.01663C49.96 6.98149 49.8025 6.94631 49.6449 6.91109C49.4667 7.08139 49.1328 6.97763 48.8628 6.9962C48.6725 7.0093 48.6827 7.07707 48.4231 7.07791C48.1633 7.07868 48.1727 7.0139 48.1525 7.01342C47.9405 7.0088 47.7804 7.06537 47.6274 7.05344C47.6042 7.05166 47.5466 6.97455 47.3506 6.9689C47.1545 6.96326 47.036 7.04459 46.7435 7.02782C46.5935 7.01929 46.5505 6.95427 46.4174 6.94787C45.7833 6.91679 45.1396 7.2409 44.6634 6.8482C44.5564 6.89684 43.7667 7.06347 43.439 7.05062C42.923 7.03026 43.1225 6.95562 42.9173 6.93978C42.8877 6.93738 42.7304 6.96181 42.296 6.95288C42.2182 6.95126 42.2358 6.99455 42.2247 6.99501C41.7183 6.98923 40.7312 6.94417 40.1701 6.93092C40.121 6.92966 39.8524 7.04656 39.4181 6.87911C38.7665 6.99001 37.54 6.71548 36.6696 6.88089C36.5493 6.8827 36.404 6.83726 36.3507 6.83782C35.8937 6.84326 36.0488 6.97685 35.0301 6.76721C35.1119 6.83528 34.871 6.89099 34.5314 6.87946C34.0206 6.86204 34.3861 6.74497 33.9748 6.74708C33.9741 6.78211 33.9734 6.81713 33.9727 6.85216C33.0274 6.73907 32.8353 6.88487 31.8782 6.86481C31.5309 6.85739 31.0328 6.7683 30.9515 6.76619C30.9202 6.76571 30.5463 6.84144 30.5106 6.84122C30.3103 6.83901 30.198 6.79736 30.0248 6.79296C29.4527 6.77835 28.7633 6.87061 28.8925 6.67434C28.7333 6.7124 28.5739 6.75042 28.4144 6.7884C27.8214 6.55984 27.3636 6.84103 27.2432 6.63075C27.1344 6.67051 27.0289 6.71035 26.9216 6.75012C24.38 6.65809 21.8173 6.55455 19.2568 6.44051C19.1516 6.5035 18.0314 6.43862 17.9795 6.42615C17.7207 6.36946 18.0016 6.23481 17.4682 6.24782C17.4069 6.30913 17.3455 6.37044 17.2841 6.43174C16.613 6.42673 16.9378 6.37583 16.6746 6.32251C16.5635 6.32605 16.5974 6.37676 16.4472 6.37449C15.6386 6.36295 13.9364 6.29591 13.0647 6.26246C12.8861 6.2557 12.915 6.21074 12.8595 6.20826C12.707 6.20216 12.4032 6.24731 12.096 6.23395C10.1847 6.15093 7.50467 5.99265 5.5802 5.84698C5.44942 5.83706 5.43594 5.78128 5.34765 5.7741C5.2253 5.76439 4.94897 5.79498 4.81993 5.78378C4.69879 5.7734 4.62109 5.7276 4.49476 5.71627C3.91224 5.66374 3.12006 5.69332 2.49593 5.53686C2.44369 5.52374 1.79388 5.26727 1.77946 5.2519C1.69604 5.16104 2.29256 5.05748 1.3315 4.8794C2.20199 4.81588 1.94401 4.60747 0.823209 4.45134C1.38987 4.45766 1.95429 4.46342 2.51652 4.46861C2.51855 4.44562 2.52058 4.42262 2.5226 4.39963C2.01791 4.25838 1.51248 4.19331 0.730535 4.14005C0.756107 4.12005 0.781675 4.10006 0.807236 4.08006C1.50434 4.01125 2.33422 4.03581 2.86288 3.91777C2.10412 3.76988 1.34159 3.62098 0.575178 3.47104C0.614674 3.45633 0.654159 3.44162 0.693631 3.42691C1.06643 3.40356 1.87299 3.42135 2.17995 3.39679C3.35321 3.30349 1.16569 3.22605 1.52926 3.1503C2.76661 3.22044 3.9748 3.28695 5.21029 3.35271C5.24563 3.28697 0.55388 2.84662 0.59943 2.63545C0.989597 2.64265 1.3787 2.64959 1.76676 2.65626C1.59702 2.59348 1.4271 2.53064 1.25699 2.46775C1.30558 2.45339 1.35415 2.43903 1.4027 2.42467C2.05938 2.41849 2.71302 2.41156 3.36368 2.40388C1.38836 2.34225 0.455015 2.2593 0 1.81169C0.0548792 1.80397 0.109736 1.79625 0.164572 1.78852C0.585397 2.07657 2.62539 2.10164 3.69491 2.10395C3.48149 2.01554 2.53358 2.02549 2.33521 1.96826C2.27918 1.95193 2.4799 1.90886 2.34991 1.87442C2.01153 1.78517 0.544413 1.61339 0.762749 1.53754C0.906938 1.48974 3.27016 1.53911 3.72276 1.56782C2.65799 1.41135 1.54886 1.32277 0.466226 1.14022C1.16268 1.00697 1.78223 0.831141 3.02339 0.887316C3.40881 0.818237 0.780188 0.553073 0.717473 0.499734C1.17943 0.472366 1.63986 0.444621 2.09878 0.416504C1.71224 0.409868 1.32466 0.402967 0.936011 0.395799C0.935835 0.378186 0.935658 0.360572 0.935482 0.342959C1.94444 0.316307 2.86586 0.215558 3.99918 0.284431C3.96761 0.189717 3.28812 0.163647 2.95715 0.145277ZM112.529 4.83471C112.556 4.91053 112.137 4.91951 111.901 4.93014C111.938 4.94234 111.974 4.95454 112.01 4.96673C111.508 4.97802 110.561 4.99682 110.535 5.14797C110.175 5.18494 110.328 5.04684 110.211 5.03798C110.165 5.03439 109.699 5.13397 109.319 5.06096C109.23 5.06585 109.14 5.07073 109.051 5.07561C109.036 5.12549 109.022 5.17537 109.007 5.22525C108.88 5.17205 108.752 5.11883 108.625 5.06561C109.921 4.98973 111.234 4.91209 112.527 4.83481C112.528 4.83478 112.529 4.83474 112.529 4.83471ZM99.5555 5.53846C99.0793 5.53292 98.3507 5.5226 98.5037 5.65011C98.8031 5.62928 99.1025 5.60837 99.4021 5.58738C99.4533 5.57107 99.5044 5.55477 99.5555 5.53846ZM52.287 6.69995C51.8863 6.56838 51.5231 6.68339 50.9112 6.65972C50.912 6.68768 50.9128 6.71563 50.9137 6.74358C51.1647 6.67644 51.8224 6.72055 52.287 6.69995ZM124.256 3.71091C124.344 3.71664 124.431 3.72237 124.519 3.72811C124.173 3.89699 124.104 3.79461 123.706 3.83042C123.682 3.83261 123.692 3.86651 123.683 3.86717C123.586 3.87468 123.493 3.83814 123.405 3.84346C123.236 3.85376 123.099 3.90305 122.794 3.91777C122.559 3.92899 122.553 3.86324 122.471 3.86932C122.4 3.87469 121.713 4.09292 121.262 4.0384C120.401 3.93471 124.003 3.71048 124.256 3.71091ZM126.786 3.70053C126.701 3.70564 126.617 3.71075 126.532 3.71586C126.781 3.60109 126.269 3.64378 125.894 3.66587C125.9 3.56818 126.697 3.56739 127.053 3.51948C126.964 3.57983 126.875 3.64018 126.786 3.70053ZM116.14 4.0561C116.467 4.02901 116.419 4.15305 116.407 4.18986C116.303 4.19534 116.198 4.20082 116.094 4.20629C116.109 4.15623 116.125 4.10616 116.14 4.0561ZM118.613 3.88383C118.514 3.97158 117.8 4.04535 117.462 4.06991C117.447 4.0707 117.538 4.02064 117.298 4.03744C117.226 4.04256 116.529 4.24405 116.674 4.04934C117.318 3.99437 117.964 3.93921 118.612 3.88388C118.612 3.88386 118.612 3.88385 118.613 3.88383ZM119.339 3.89422C119.207 3.92713 119.072 3.96018 118.938 3.99315C118.866 3.9582 118.795 3.92325 118.723 3.88829C118.876 3.87042 119.029 3.85254 119.183 3.83465C119.235 3.85449 119.287 3.87434 119.339 3.89422ZM17.83 5.42047C17.8596 5.463 17.8892 5.50552 17.9188 5.54804C18.0388 5.57798 18.631 5.41963 18.4469 5.3779C18.2415 5.39217 18.0359 5.40636 17.83 5.42047ZM15.3411 5.23666C15.2185 5.21084 15.0958 5.18498 14.9731 5.1591C14.8281 5.22346 14.6829 5.28777 14.5376 5.35205C15.1547 5.42482 15.8072 5.50533 15.7098 5.29431C15.8507 5.29993 15.9915 5.30551 16.1321 5.31106C16.0102 5.39188 16.0253 5.42075 16.3909 5.48944C16.476 5.3736 16.8538 5.44911 17.2881 5.4395C16.9732 5.4205 16.6575 5.40132 16.3412 5.38195C16.342 5.36097 16.3429 5.33999 16.3437 5.31901C17.0484 5.3541 16.178 5.18701 15.7135 5.25195C15.6783 5.22257 15.643 5.19319 15.6078 5.1638C15.519 5.1881 15.4301 5.21239 15.3411 5.23666ZM66.4024 5.86166C66.3146 5.84213 66.2269 5.8226 66.1391 5.80305C65.8052 6.08407 66.4904 5.81103 66.9846 6.01937C66.8185 5.85716 67.5698 5.84978 67.6128 5.83775C67.5252 5.78379 67.4376 5.72981 67.35 5.67582C67.0314 5.73799 66.7186 5.79987 66.4024 5.86166ZM63.9164 5.71371C64.222 5.84633 62.7294 5.87733 62.231 5.85346C62.1095 5.84767 61.8919 5.77523 61.8043 5.78587C61.7514 5.81439 61.6986 5.84291 61.6457 5.87142C61.5817 5.77616 60.6052 5.89637 60.2192 5.9523C60.1824 5.91767 60.1456 5.88305 60.1089 5.84842C59.9682 5.86389 59.8274 5.87934 59.6866 5.89474C59.7039 5.85965 59.7213 5.82455 59.7386 5.78945C59.6326 5.83258 59.5256 5.87569 59.4208 5.91876C59.0063 5.96968 59.2603 5.77679 58.949 5.83925C58.6027 5.90855 59.1723 6.01638 59.1624 6.0902C59.4415 6.06846 60.0883 6.01897 60.3753 6.01352C60.5402 6.01046 60.3552 6.14494 61.0641 5.98454C61.2202 6.01804 61.3763 6.0515 61.5324 6.08492C61.8172 6.02502 62.1017 5.96499 62.3859 5.90482C62.4397 5.95304 62.4935 6.00125 62.5473 6.04946C62.578 6.05676 63.2346 5.93622 63.1988 5.89991C63.4665 5.9896 64.0199 5.99802 64.5989 5.99337C64.6542 5.96586 64.7096 5.93834 64.7649 5.91082C64.2055 5.97737 64.5861 5.88556 64.4183 5.83732C64.3214 5.8095 64.0253 5.75644 63.9164 5.71371ZM21.733 5.45192C20.793 5.53964 21.3769 5.46107 20.3618 5.4259C20.4305 5.49157 20.4993 5.55724 20.568 5.62289C21.0718 5.52489 21.8867 5.62905 21.7339 5.45195C21.7336 5.45194 21.7333 5.45193 21.733 5.45192ZM11.7968 5.27738C12.3346 5.26259 12.0704 5.15274 12.7496 5.15049C12.7499 5.1505 12.7502 5.15052 12.7505 5.15053C12.4006 5.12843 12.0499 5.1061 11.6984 5.08355C11.7312 5.14816 11.764 5.21277 11.7968 5.27738ZM43.2056 6.04406C43.7191 6.076 43.6134 6.0259 44.0844 6.12793C44.7858 6.01408 44.1928 6.02643 44.1936 5.91821C44.0338 5.94872 43.8709 5.97915 43.7139 6.00959C43.3314 5.90519 43.6954 5.8573 43.6954 5.84758C43.6951 5.84757 43.6948 5.84757 43.6945 5.84757C43.6948 5.81508 43.7072 5.80836 43.5604 5.78748C43.4422 5.87303 43.3239 5.95856 43.2056 6.04406ZM45.4153 5.92709C45.2378 5.99782 45.1577 6.08964 45.6227 6.13856C45.623 6.13856 45.6233 6.13856 45.6237 6.13857C45.662 5.97821 46.1068 6.11041 46.3096 6.10065C46.3629 6.08347 46.4162 6.06629 46.4694 6.0491C46.1187 6.00865 45.7673 5.96798 45.4153 5.92709ZM53.186 5.79213C53.1885 5.96953 52.7979 5.98759 53.3481 6.14941C53.4548 6.14589 53.5614 6.14236 53.668 6.13881C53.7378 6.09962 53.8076 6.06042 53.8774 6.02122C55.2278 6.33631 55.6294 5.78868 53.3476 6.00183C53.3473 6.00195 53.347 6.00208 53.3466 6.0022C53.2931 5.93218 53.2395 5.86216 53.186 5.79213ZM50.8055 5.8109C50.7884 5.90404 50.7713 5.99718 50.7542 6.09031C50.4566 5.86566 50.0719 6.07999 49.4862 5.92068C49.4331 5.94892 49.3801 5.97716 49.327 6.0054C49.1078 5.94346 46.9544 5.91851 47.4213 6.06319C47.6224 6.12657 48.0655 6.04305 48.1046 6.04504C48.2344 6.05246 48.4034 6.13297 48.6223 6.12885C48.7488 6.12637 49.0154 6.03292 49.2729 6.03351C49.8489 6.03501 50.8967 6.28803 51.6474 6.048C51.7017 6.07601 51.7552 6.10402 51.8102 6.13202C52.3741 6.11402 52.1858 6.0254 52.7097 6.13032C53.0684 5.68771 50.6105 6.15533 51.1229 5.79577C51.1225 5.79577 51.1222 5.79577 51.1219 5.79577C51.0165 5.80083 50.911 5.80588 50.8055 5.8109ZM35.3645 5.80456C35.3326 5.72459 34.6838 5.83517 34.8392 5.64766C34.6269 5.70998 34.4142 5.77222 34.2012 5.83437C34.2025 5.8521 34.2037 5.86983 34.205 5.88755C34.4157 5.87773 34.6261 5.86783 34.8363 5.85784C34.8365 5.88592 34.8368 5.91401 34.8371 5.9421C35.1485 5.84663 36.4628 5.91384 36.4223 6.0124C36.4935 5.97161 36.5646 5.9308 36.6357 5.88998C37.264 6.01475 37.8064 5.90164 38.4865 6.0231C38.5398 5.98908 38.5931 5.95505 38.6463 5.92102C38.6803 5.94958 38.7143 5.97814 38.7482 6.0067C38.9962 6.01374 39.2439 6.02067 39.4912 6.02749C40.2985 5.92508 38.7348 5.75808 38.5429 5.77158C38.5176 5.77353 38.5205 5.84628 38.362 5.85539C38.0816 5.8717 36.5027 5.77446 36.0093 5.81342C36.0059 5.76514 36.0025 5.71686 35.9991 5.66858C35.7858 5.71395 35.5738 5.75927 35.3645 5.80456ZM56.1995 5.96747C56.2355 6.0163 56.2716 6.06514 56.3077 6.11397C56.9244 6.06083 57.3118 6.10049 57.1528 5.93947C57.1525 5.93947 57.1522 5.93947 57.1519 5.93947C56.8348 5.94898 56.5174 5.95831 56.1995 5.96747ZM101.842 4.64994C101.821 4.55327 101.526 4.53083 101.151 4.61859C101.171 4.64601 101.19 4.67344 101.21 4.70086C101.403 4.60854 101.656 4.74154 102.264 4.69318C102.262 4.64416 102.259 4.59515 102.257 4.54613C102.119 4.58075 101.98 4.61536 101.842 4.64994ZM55.6664 5.94954C55.4799 5.89283 54.9572 6.07116 55.3018 6.07796C55.565 6.08307 55.7672 5.98001 55.6664 5.94954ZM9.68012 5.08729C9.81966 5.10397 9.95907 5.12062 10.0984 5.13724C10.1731 5.09886 10.2477 5.06046 10.3223 5.02206C10.322 5.02204 10.3217 5.02203 10.3214 5.02201C10.1079 5.04385 9.8942 5.06561 9.68012 5.08729ZM41.4468 6.03469C41.9187 6.03375 42.3894 6.03241 42.8589 6.03066C42.8638 6.00348 42.8687 5.97631 42.8737 5.94913C42.4025 6.04408 42.2137 5.93502 42.1039 5.92737C42.1044 5.92737 42.1048 5.92738 42.1053 5.92738C41.7525 5.90224 41.4157 5.88274 41.0808 5.84639C41.2029 5.90918 41.3249 5.97195 41.4468 6.03469ZM39.8266 5.84363C39.9039 6.03692 40.0089 6.06092 40.7376 5.93434C40.7092 5.91032 40.6807 5.8863 40.6522 5.86228C40.2753 5.87194 40.0543 5.91351 40.1219 5.81405C40.0235 5.82393 39.9251 5.83379 39.8266 5.84363ZM47.2081 5.96786C47.1221 5.90636 46.4346 5.96465 46.4716 5.99564C46.4867 6.00809 47.3763 6.08868 47.2081 5.96786ZM107.061 4.35248C106.902 4.34638 106.742 4.34027 106.583 4.33413C106.793 4.30279 107.003 4.27142 107.213 4.24002C107.162 4.27751 107.112 4.31499 107.061 4.35248ZM108.786 3.99195C108.9 4.01073 108.542 4.202 109.219 4.21243C108.728 4.24097 108.239 4.26928 107.748 4.29758C107.978 4.25806 108.205 4.21865 108.433 4.17914C108.391 4.13154 108.348 4.08394 108.306 4.03634C108.466 4.02156 108.626 4.00676 108.786 3.99195ZM109.319 4.09183C109.048 3.97403 110.44 3.89338 110.572 3.90268C110.601 3.90501 110.744 3.99748 110.796 4.01627C110.585 4.02718 110.374 4.03806 110.163 4.04891C110.235 4.07665 110.308 4.10439 110.38 4.13212C110.134 4.15543 109.888 4.1787 109.642 4.20194C109.746 4.16514 109.85 4.12833 109.953 4.09152C109.742 4.09165 109.53 4.09176 109.319 4.09183ZM103.732 4.40132C103.909 4.39605 104.087 4.39069 104.262 4.38544C104.224 4.33814 104.187 4.29084 104.149 4.24353C104.044 4.24867 103.938 4.25383 103.832 4.25897C103.799 4.30642 103.766 4.35387 103.732 4.40132ZM107.319 4.16105C107.073 4.40989 106.348 3.9289 107.175 4.07911C107.259 4.09441 107.342 4.13703 107.319 4.16105ZM111.096 3.90406C111.637 3.70385 111.532 4.09005 111.008 4.00539C110.982 4.0008 111.056 3.91888 111.096 3.90406ZM115.203 3.68597C115.247 3.68494 115.333 3.80376 115.748 3.66481C115.819 3.67518 115.889 3.68555 115.959 3.69592C115.802 3.7615 114.4 3.86878 114.588 3.73679C114.802 3.7237 114.98 3.69379 115.203 3.68597ZM113.821 3.30179C113.611 3.31612 113.401 3.33042 113.192 3.34471C113.263 3.37964 113.334 3.41458 113.405 3.44951C113.303 3.46535 113.2 3.48118 113.097 3.49701C112.917 3.43971 112.738 3.38239 112.558 3.32505C113.013 3.29092 113.469 3.25668 113.925 3.22232C113.89 3.24881 113.856 3.2753 113.821 3.30179ZM108.235 3.49246C108.641 3.52051 109.132 3.44412 109.789 3.41897C109.789 3.41908 109.789 3.41918 109.79 3.41929C109.823 3.41818 109.883 3.46815 109.989 3.46489C110.078 3.46218 111.853 3.31296 111.718 3.40978C111.035 3.52548 110.771 3.41637 110.617 3.62426C110.581 3.58391 110.546 3.54357 110.51 3.50322C109.846 3.46411 109.665 3.61922 109.298 3.69141C109.298 3.65964 109.298 3.62786 109.297 3.59609C109.05 3.60545 108.803 3.61477 108.556 3.62405C108.592 3.64315 108.628 3.66224 108.664 3.68133C108.576 3.68574 108.489 3.69014 108.402 3.69454C108.184 3.61133 107.914 3.60298 108.235 3.49246ZM114.778 3.30441C114.965 3.05368 116.855 3.11989 117.719 3.02371C117.273 3.1924 116.565 3.12954 116.072 3.15389C115.119 3.20105 115.782 3.25516 115.623 3.30246C115.545 3.32578 114.992 3.20013 114.778 3.30441ZM106.76 3.60852C107.238 3.60415 107.504 3.53534 107.921 3.60285C107.888 3.62214 107.854 3.64141 107.821 3.66071C107.678 3.65184 106.521 3.65875 106.76 3.60852ZM118.992 3.01962C118.063 2.98213 118.531 3.1757 118.042 3.03788C118.357 3.01087 118.673 2.98382 118.989 2.95672C118.99 2.97769 118.991 2.99865 118.992 3.01962ZM54.6091 5.04951C54.2212 5.04584 53.787 5.00357 53.5545 5.09516C53.819 5.10829 54.0832 5.1213 54.3471 5.13419C54.4345 5.10598 54.5219 5.07775 54.6091 5.04951ZM65.6839 4.03913C65.595 4.01893 65.2455 4.08917 65.2085 4.08978C65.1398 4.09093 65.158 4.05897 65.1569 4.05072C64.7074 4.06397 65.1239 4.15521 64.7914 4.18206C64.7347 4.18658 63.9513 4.15062 63.6322 4.15933C63.1399 4.17292 62.6572 4.17334 62.474 4.17755C62.1665 4.18458 61.5958 4.26582 61.0884 4.27579C60.8792 4.27978 60.8055 4.22171 60.595 4.22565C59.2376 4.25244 56.5964 4.35574 55.3921 4.32407C55.0978 4.31643 54.8164 4.24062 54.6605 4.24765C54.5377 4.27643 54.4148 4.30518 54.2918 4.33391C53.9121 4.08168 53.7863 4.30793 53.3773 4.33295C53.1173 4.34874 52.9954 4.27385 52.9604 4.27414C52.7286 4.27624 52.6142 4.3123 52.4319 4.31862C52.2273 4.32562 51.9327 4.29217 51.8594 4.29839C51.8149 4.3025 51.9561 4.40253 51.1694 4.40126C50.3668 4.39976 49.5714 4.38855 48.7487 4.38201C49.0225 4.68441 49.259 4.47832 49.594 4.46774C49.6839 4.46489 49.6269 4.51274 49.7051 4.51072C49.9261 4.50529 50.3483 4.45846 50.5306 4.46987C50.7274 4.4822 50.6602 4.59327 50.9096 4.55225C50.9223 4.55013 50.8824 4.50428 50.941 4.49657C51.5306 4.4204 51.7209 4.50007 52.4736 4.5009C52.9766 4.50298 55.9715 4.44356 56.0811 4.47154C56.6166 4.62969 53.4559 4.64771 53.081 4.63451C52.9509 4.63042 53.0871 4.5794 52.9685 4.57C52.9183 4.56626 52.4665 4.66405 52.0185 4.67277C51.4774 4.68353 50.4027 4.618 49.8878 4.61967C45.4761 4.63563 41.107 4.53868 36.7096 4.46467C36.6151 4.46309 36.4899 4.51891 36.1817 4.51363C30.4625 4.41487 24.5367 4.20756 18.7496 4.02184C17.4916 3.98155 16.2485 3.98788 14.9679 3.89263C14.8073 3.92836 14.6465 3.96405 14.4855 3.99968C14.8946 3.98301 15.6341 4.10837 15.7015 4.11241C15.7258 4.11381 15.8814 4.07237 16.1285 4.08466C16.4759 4.10175 16.6262 4.14889 16.6547 4.15C16.7429 4.15357 16.6869 4.10743 16.7711 4.11092C17.3988 4.13716 17.8831 4.14301 18.4553 4.1638C19.1121 4.18766 19.4431 4.28139 19.9231 4.20858C19.9759 4.2455 20.0286 4.28242 20.0813 4.31934C20.4482 4.18123 22.5432 4.26926 23.4061 4.30392C23.6782 4.31508 23.6284 4.37505 23.7198 4.37792C23.778 4.37962 23.7584 4.29863 24.4674 4.33619C24.824 4.35509 24.9155 4.41651 25.0941 4.41995C25.1911 4.42171 25.1772 4.36308 25.3164 4.3672C26.1233 4.39101 26.7688 4.42816 27.5614 4.46045C27.7848 4.46944 27.7859 4.51804 27.8359 4.51875C28.02 4.5215 28.3421 4.4478 28.8079 4.45997C29.5772 4.48047 31.0897 4.5168 31.7148 4.5704C31.8074 4.57839 31.8827 4.63835 31.9509 4.63901C32.054 4.63979 32.0957 4.57988 32.1138 4.57996C32.4581 4.5864 32.2498 4.63843 32.4805 4.62966C32.6048 4.62491 32.7358 4.55837 33.024 4.55654C33.4042 4.55407 33.3276 4.63479 33.4865 4.62978C33.5032 4.62883 33.5094 4.57172 33.6652 4.57296C34.2561 4.57815 35.1093 4.58104 35.6633 4.59101C35.8244 4.59387 35.9446 4.63453 36.1698 4.63905C36.6274 4.64925 39.1901 4.66328 39.3957 4.68728C39.4177 4.68989 39.19 4.77131 39.5512 4.77358C39.6569 4.73981 39.7605 4.70601 39.868 4.67223C40.0452 4.73078 40.2222 4.78927 40.399 4.84771C40.3955 4.65337 41.4379 4.63543 41.4249 4.83397C41.5387 4.84328 41.6524 4.85256 41.766 4.86182C42.0042 4.72695 42.1613 4.77935 42.6184 4.70306C42.6891 4.74585 42.7597 4.78863 42.8304 4.8314C42.8485 4.8035 42.8667 4.77559 42.8848 4.74768C43.1267 4.9021 43.5262 4.75277 43.5744 4.75232C43.76 4.75051 43.8997 4.79031 43.9885 4.78977C44.3185 4.78845 45.031 4.74027 45.4138 4.7673C45.4318 4.76868 45.4137 4.83361 45.5227 4.84231C45.7191 4.85801 45.7389 4.76292 46 4.87623C46.053 4.84845 46.106 4.82066 46.159 4.79287C46.2149 4.8077 46.2709 4.82252 46.3268 4.83733C46.6575 4.83159 46.9876 4.82566 47.3171 4.81953C47.0168 4.92841 47.3618 4.99139 47.6877 4.90588C47.798 4.87688 47.7005 4.80951 47.7372 4.79949C47.7865 4.78624 49.2809 4.82418 49.3779 4.86733C49.4484 4.84632 49.5188 4.8253 49.5892 4.80427C49.6248 4.84655 49.6603 4.88883 49.6959 4.9311C49.7347 4.91638 49.7735 4.90165 49.8124 4.88692C50.1996 4.96188 51.2005 4.79111 51.3811 4.80429C51.4782 4.81137 51.3901 4.99156 51.8555 4.97257C51.8717 4.92311 51.8879 4.87365 51.9041 4.82419C52.0114 4.81695 52.1186 4.80969 52.2258 4.80241C52.4271 4.80646 52.7197 4.89145 52.7292 4.95001C52.7919 4.9147 52.8546 4.87938 52.9172 4.84406C53.0863 4.95827 53.9833 4.9147 54.3424 4.84052C54.4478 4.8746 54.5532 4.90867 54.6585 4.94272C54.7996 4.90006 54.9405 4.85736 55.0814 4.81464C55.4081 4.80026 55.0633 4.8719 55.1329 4.87735C55.2795 4.88872 56.0324 4.7663 55.9845 4.91344C56.0879 4.91315 56.1911 4.91285 56.2944 4.91253C56.3472 4.87019 56.3999 4.82784 56.4527 4.78549C56.6307 4.92902 56.937 4.8759 57.5641 4.92365C57.6164 4.8899 57.6686 4.85614 57.7209 4.82238C57.9149 4.86813 58.1089 4.91381 58.3026 4.95943C58.3419 4.9039 58.3811 4.84837 58.4202 4.79284C58.5042 4.78414 58.5882 4.77542 58.6721 4.7667C58.8439 4.88869 59.1488 4.75213 59.3051 4.80151C59.533 4.87356 59.3584 4.9641 58.9363 4.98536C58.9669 5.07528 60.2311 5.02079 60.5234 5.01057C60.5039 4.99321 60.4844 4.97586 60.4649 4.95851C60.1666 4.97585 59.868 4.99305 59.569 5.0101C59.3161 4.78638 60.1289 4.83859 60.5001 4.80502C60.534 4.80182 60.7259 4.71389 61.1001 4.71732C61.2451 4.71876 61.8113 4.83691 61.919 4.84242C62.7888 4.88796 62.1477 4.71766 62.999 4.86269C62.8208 4.74496 63.3079 4.83803 63.8202 4.80691C63.9072 4.80168 64.6425 4.69253 64.692 4.68911C65.0016 4.66838 64.6661 4.78026 65.1138 4.74513C65.1672 4.71628 65.2205 4.68742 65.2739 4.65856C65.3782 4.65679 65.4824 4.655 65.5866 4.6532C66.2231 4.89128 66.3665 4.70503 66.5904 4.6774C66.6808 4.66621 66.5654 4.73337 66.8 4.71527C66.8887 4.7085 66.9843 4.65264 67.2241 4.64426C67.973 4.61803 68.2317 4.84431 68.9137 4.58918C69.0198 4.62188 69.1259 4.65455 69.232 4.68721C69.3022 4.64384 69.3724 4.60046 69.4426 4.55707C69.9886 4.66678 69.7897 4.54658 69.9859 4.54376C70.5025 4.53634 71.5664 4.53527 71.6621 4.63308C72.1052 4.39236 72.6471 4.6386 72.8234 4.62518C72.9276 4.59461 73.0317 4.56402 73.1359 4.53342C73.2598 4.55835 73.3838 4.58327 73.5077 4.60816C73.442 4.38384 74.0855 4.5894 74.1468 4.59112C74.2165 4.59276 75.1985 4.49947 75.5646 4.49037C75.9302 4.48152 76.5683 4.5245 76.6243 4.52296C76.6887 4.52113 77.3082 4.44169 77.7934 4.42772C78.2168 4.41651 80.7417 4.42368 80.5787 4.32762C80.4131 4.30512 80.1778 4.28855 79.9746 4.28195C79.3419 4.26371 75.6501 4.3225 74.7015 4.33013C72.8121 4.34926 70.8295 4.40294 68.9315 4.42068C68.8195 4.42176 68.8013 4.36356 68.7052 4.36423C68.5593 4.36558 68.1902 4.43174 68.0462 4.43333C67.5083 4.43907 66.8536 4.44186 66.5682 4.44559C65.9277 4.45438 65.4869 4.4267 65.0008 4.42911C64.8487 4.43001 64.0799 4.51515 63.5501 4.49238C63.4541 4.47734 63.3574 4.4623 63.2621 4.44722C63.5337 4.42406 64.248 4.36331 64.5787 4.35217C65.0712 4.33595 65.3284 4.37901 65.51 4.37507C65.6622 4.37189 66.4372 4.30404 66.7898 4.29609C66.8993 4.29362 66.9229 4.35461 67.0165 4.35263C67.5276 4.34154 68.2015 4.32651 68.6428 4.25711C68.4627 4.2806 69.5913 4.29455 69.6501 4.29289C69.7513 4.29067 69.8599 4.23082 70.0665 4.22624C70.4638 4.2174 70.4155 4.33877 70.9097 4.20715C71.034 4.23932 71.1582 4.27148 71.2824 4.3036C71.2866 4.14357 72.8496 4.32372 73.2862 4.11748C73.2979 4.09567 71.2738 4.083 71.1057 4.08319C70.1046 4.0875 68.6278 4.15843 67.6523 4.14921C67.3575 4.14667 66.4388 4.06644 66.3698 4.06941C66.2583 4.07418 66.3601 4.12804 66.3119 4.13089C65.3253 4.18993 65.8158 4.06916 65.6839 4.03913ZM109.28 3.33409C108.979 3.34271 108.679 3.35128 108.38 3.35979C108.4 3.32359 108.42 3.28738 108.439 3.25117C108.577 3.25791 108.715 3.26463 108.853 3.27135C108.958 3.24504 109.062 3.21873 109.167 3.19241C109.204 3.23964 109.242 3.28686 109.28 3.33409ZM110.012 3.14947C110.272 3.11852 110.288 3.19189 110.349 3.19244C110.529 3.19425 110.683 3.15637 110.857 3.14849C110.665 3.33465 110.233 3.27589 110.012 3.14947ZM104.633 3.35502C104.692 3.36056 105.092 3.53077 105.529 3.33259C105.865 3.37211 106.201 3.41155 106.538 3.4509C105.967 3.39365 105.188 3.52114 104.91 3.53133C104.805 3.53521 104.782 3.47807 104.698 3.48124C104.214 3.50031 103.748 3.65497 103.689 3.46486C104.153 3.49841 104.557 3.34835 104.633 3.35502ZM107.566 3.27821C107.646 3.31454 107.726 3.35086 107.806 3.38718C107.524 3.40132 107.243 3.4154 106.962 3.42942C107.036 3.38491 107.11 3.34039 107.184 3.29587C107.311 3.29 107.439 3.28411 107.566 3.27821ZM85.9677 4.10673C86.141 4.10076 86.3142 4.09475 86.4874 4.0887C86.4768 4.05972 86.2787 4.0673 86.2049 4.05022C86.2053 4.05021 86.2056 4.05019 86.2059 4.05018C86.1237 4.03084 86.1571 3.99177 86.0087 3.98061C85.995 4.02265 85.9814 4.06469 85.9677 4.10673ZM14.2791 3.86508C13.9848 3.85175 11.3231 3.73658 11.5418 3.85271C11.655 3.91135 12.5724 3.90474 12.8407 3.91697C13.2045 3.93381 14.1706 4.09019 14.2791 3.86508ZM9.53221 3.63611C9.48177 3.74089 11.167 3.83452 11.3302 3.82281C11.296 3.80606 11.2438 3.76984 11.1977 3.7601C10.9736 3.71345 9.89629 3.6823 9.53221 3.63611ZM76.26 4.11945C76.3966 4.16952 76.5332 4.21957 76.6698 4.2696C76.6322 4.20047 76.5947 4.13133 76.5571 4.0622C76.4581 4.0813 76.359 4.10038 76.26 4.11945ZM63.1544 4.48139C60.9104 4.51069 58.6563 4.53154 56.4029 4.5434C56.6013 4.51288 56.7996 4.48229 56.9977 4.45163C58.9349 4.44764 61.0099 4.45427 62.8761 4.38249C62.9689 4.41547 63.0617 4.44843 63.1544 4.48139ZM103.985 3.07024C103.408 3.0973 102.928 3.1721 102.298 3.12025C102.891 3.01221 103.193 3.12073 103.769 2.97553C103.769 2.97552 103.77 2.9755 103.77 2.97549C103.842 3.00707 103.913 3.03866 103.985 3.07024ZM91.1206 3.63144C91.2938 3.57518 91.467 3.51889 91.6402 3.46256C91.4294 3.47134 91.2187 3.48006 91.008 3.48874C91.0455 3.53631 91.0831 3.58387 91.1206 3.63144ZM43.5197 4.26992C42.9205 4.37232 41.3811 4.16276 40.8866 4.2855C40.8546 4.29358 41.1466 4.35139 40.6723 4.45108C41.0301 4.43378 41.282 4.41455 41.3095 4.33207C41.4151 4.36132 41.5206 4.39055 41.6261 4.41977C41.8018 4.40042 41.9774 4.38101 42.1527 4.36155C42.1329 4.44377 42.1469 4.43956 42.4163 4.38578C42.5387 4.40786 42.661 4.42991 42.7832 4.45193C42.8354 4.41751 42.8875 4.38308 42.9397 4.34865C43.0451 4.39844 43.1506 4.44822 43.2559 4.49798C43.6686 4.4486 43.4184 4.35181 43.5197 4.26992ZM45.6356 4.30541C45.5391 4.28776 42.7319 4.32505 44.0044 4.49949C44.3371 4.49688 44.6691 4.49407 45.0005 4.49106C44.728 4.21703 45.6289 4.46641 45.7026 4.47243C46.0565 4.50114 46.507 4.43872 46.7628 4.44324C46.9828 4.44722 47.1131 4.4966 47.2677 4.49597C47.7901 4.49398 48.6343 4.49447 48.7487 4.38201C48.3373 4.37873 47.9121 4.37623 47.49 4.37746C47.0402 4.37865 46.6456 4.27082 45.7956 4.41182C45.5855 4.39492 45.661 4.3102 45.6356 4.30541ZM92.1683 3.45184C92.1519 3.56587 93.218 3.49363 93.2224 3.44861C93.2233 3.42234 92.8765 3.43774 92.8262 3.42992C92.8259 3.42994 92.8256 3.42995 92.8253 3.42996C92.8044 3.42651 92.9076 3.37878 92.7437 3.37368C92.5519 3.39977 92.3601 3.42583 92.1683 3.45184ZM18.4557 3.77574C18.3212 3.70862 15.0327 3.60342 14.9279 3.62822C14.9011 3.63557 14.9369 3.6649 14.9258 3.68054C15.7029 3.62267 16.791 3.77159 17.5157 3.80604C17.7178 3.81561 17.659 3.76836 17.6705 3.76794C17.671 3.76796 17.6715 3.76798 17.6719 3.768C17.7867 3.77227 18.2995 3.90147 18.4557 3.77574ZM39.8246 4.32412C39.9656 4.34364 40.1064 4.36312 40.2472 4.38256C40.2833 4.34798 40.3195 4.31339 40.3557 4.27879C40.3554 4.27879 40.3551 4.27879 40.3547 4.27878C40.1782 4.29395 40.0015 4.30906 39.8246 4.32412ZM34.9771 4.13243C35.0105 4.15772 35.0439 4.183 35.0774 4.20828C35.4278 4.21817 35.7775 4.22783 36.1342 4.23739C36.0982 4.25069 36.0622 4.26399 36.0262 4.27728C36.5624 4.32375 36.7854 4.24067 37.0701 4.25777C37.0698 4.25776 37.0695 4.25776 37.0692 4.25775C37.0998 4.25969 37.1361 4.31167 37.25 4.31522C37.5116 4.3235 38.2582 4.35389 38.3488 4.30344C38.5419 4.19618 37.0378 4.22572 36.7551 4.21563C36.6279 4.21121 36.4754 4.16369 36.3979 4.16132C36.313 4.1589 36.1963 4.21764 35.9892 4.21217C35.9261 4.2105 35.2637 4.1273 34.9771 4.13243ZM28.7533 4.06807C28.861 4.12645 29.0898 4.07857 29.1731 4.08976C29.1929 4.09241 29.0366 4.135 29.2244 4.15369C29.2784 4.1233 29.3323 4.09291 29.3863 4.06251C29.1756 4.06445 28.9646 4.0663 28.7533 4.06807ZM93.9574 3.32209C93.9262 3.31153 93.3543 3.34049 93.3272 3.34919C92.9888 3.46527 94.1732 3.40339 93.9574 3.32209ZM108.395 2.52448C108.123 2.39087 111.253 2.37698 111.559 2.3531C111.549 2.44644 110.798 2.39162 111.195 2.49864C110.819 2.44794 109.793 2.53747 109.551 2.52942C109.404 2.52461 109.363 2.44654 109.34 2.44513C109.253 2.44057 108.49 2.57176 108.395 2.52448ZM114.139 2.28272C113.841 2.28063 113.543 2.2785 113.246 2.27632C113.595 2.24769 113.945 2.219 114.295 2.19025C114.243 2.22108 114.191 2.2519 114.139 2.28272ZM114.511 2.22119C114.496 2.13203 115.512 2.14751 115.772 2.11313C115.484 2.28122 114.977 2.16351 114.511 2.22119ZM97.7435 2.92194C97.277 2.8837 97.0902 3.16624 97.6487 3.02156C97.6656 3.01685 97.7631 2.9242 97.7435 2.92194ZM43.3804 3.88347C43.3021 3.88124 42.3214 3.78328 42.2637 3.82652C42.0823 3.96498 42.7281 3.91515 42.9432 3.97001C43.2902 4.05894 42.7785 4.12522 43.6273 4.08076C43.5924 4.10855 43.5575 4.13633 43.5225 4.16411C44.0183 4.17756 43.8585 3.98169 43.9483 3.95742C43.976 3.95005 44.2899 3.96885 44.3466 3.95685C45.055 3.80552 43.4485 3.88572 43.3804 3.88347ZM86.2507 3.38118C85.323 3.33332 85.7253 3.4395 84.7767 3.46679C84.7472 3.52979 86.1322 3.43998 86.2507 3.38118ZM52.3865 4.02429C51.4217 4.0505 50.6489 3.97005 49.7541 4.07756C49.8142 4.24575 52.6298 4.06786 52.3865 4.02429ZM7.47127 2.77872C11.1609 3.25532 15.4777 3.342 19.4252 3.4788C19.8592 3.49398 19.8981 3.56153 20.0551 3.55991C20.1579 3.55888 20.1419 3.50496 20.2781 3.5095C25.1898 3.67308 29.8912 3.73044 34.6079 3.85226C34.9016 3.86029 36.3407 4.00049 36.6563 3.83273C36.8931 3.70575 35.8487 3.79026 35.6747 3.78582C35.5459 3.78268 35.5415 3.72103 35.4557 3.71926C35.3645 3.7174 35.4391 3.76082 35.3332 3.75953C34.8845 3.75435 34.3938 3.72857 33.9859 3.7241C29.9652 3.67897 26.0924 3.56571 22.0968 3.42757C21.6173 3.41099 21.7173 3.36491 21.6933 3.36391C21.6929 3.36402 21.6926 3.36413 21.6923 3.36424C19.1039 3.27296 16.1578 3.27218 13.4116 3.1133C11.5058 2.99869 9.54148 2.87573 7.64017 2.7502C7.5839 2.75972 7.5276 2.76922 7.47127 2.77872ZM45.4255 4.07268C45.1853 3.8851 45.1311 4.07262 44.2635 3.99028C44.1926 4.02148 44.1216 4.05266 44.0507 4.08384C44.5106 4.08051 44.9693 4.07679 45.4269 4.07269C45.4264 4.07269 45.4259 4.07268 45.4255 4.07268ZM39.7151 3.94988C39.5749 3.69727 37.6502 3.8479 36.7758 3.7849C36.6142 3.90856 37.8823 3.87225 38.1788 3.88965C38.3275 3.89846 39.1208 4.03973 39.7229 3.97561C39.7203 3.96704 39.7177 3.95846 39.7151 3.94988ZM105.109 2.31864C104.969 2.33285 104.829 2.34705 104.689 2.36123C105.041 2.37184 105.393 2.38236 105.746 2.39279C105.185 2.40258 104.625 2.41213 104.065 2.42145C104.166 2.36431 104.268 2.30717 104.37 2.25002C104.616 2.27294 104.862 2.29581 105.109 2.31864ZM103.292 2.43404C104.275 2.36673 103.255 2.55595 103.007 2.50577C102.858 2.4757 103.192 2.44102 103.292 2.43404ZM100.736 2.46642C101.188 2.35353 102.112 2.30311 101.792 2.50135C101.294 2.4394 100.979 2.52559 100.261 2.51004C100.364 2.47012 100.467 2.43023 100.57 2.39031C100.57 2.39028 100.57 2.39026 100.571 2.39024C100.626 2.41564 100.681 2.44103 100.736 2.46642ZM103.736 2.30179C104.385 2.37542 102.519 2.42994 103.102 2.33253C103.129 2.32806 103.711 2.29903 103.736 2.30179ZM11.5892 2.78006C11.5091 2.83632 12.0037 2.85701 12.1675 2.86813C12.8818 2.9171 13.7765 2.92909 14.5289 2.96828C14.4735 2.94633 14.418 2.92437 14.3625 2.9024C13.4324 2.8627 12.5194 2.8224 11.5892 2.78006ZM16.8549 3.06165C17.3631 3.08135 17.8696 3.10058 18.3744 3.11934C18.4214 3.12109 18.6438 3.07804 18.4803 3.05951C17.9405 3.06076 17.3987 3.06148 16.8549 3.06165ZM48.6437 3.72846C48.2516 3.69413 49.3812 3.52521 49.3297 3.70859C49.1013 3.71531 48.8726 3.72193 48.6437 3.72846ZM52.2797 3.65611C52.034 3.67403 51.7854 3.69186 51.5431 3.70956C51.5427 3.68845 51.5424 3.66733 51.542 3.64621C51.7847 3.64962 52.0336 3.65292 52.2797 3.65611ZM9.57794 2.64696C9.8368 2.73131 10.461 2.74872 10.8483 2.76756C10.5844 2.69359 9.94521 2.69508 9.57794 2.64696ZM42.7891 3.61994C42.8211 3.66981 41.2675 3.64142 41.8064 3.56034C42.1346 3.5804 42.4621 3.60027 42.7891 3.61994ZM39.6275 3.51145C39.9578 3.50502 40.2215 3.52518 40.1506 3.60166C39.9728 3.59614 39.7937 3.59054 39.6193 3.58496C39.622 3.56045 39.6248 3.53595 39.6275 3.51145ZM98.9858 2.40081C98.4242 2.43375 97.8632 2.46641 97.3026 2.49877C97.3225 2.47673 97.3423 2.4547 97.3621 2.43266C97.9026 2.40131 98.4435 2.36969 98.9848 2.3378C98.9852 2.35881 98.9855 2.37981 98.9858 2.40081ZM9.27013 2.44279C8.88778 2.4388 8.50441 2.43455 8.12003 2.43003C8.50341 2.46249 8.88579 2.49468 9.26719 2.5266C9.26849 2.49856 9.2698 2.47051 9.2711 2.44247C9.27078 2.44257 9.27045 2.44268 9.27013 2.44279ZM106.664 1.75729C104.943 1.74418 107.127 1.53157 107.589 1.65311C107.59 1.65297 107.59 1.65282 107.591 1.65267C107.631 1.66345 107.55 1.72945 107.618 1.75106C107.441 1.73193 107.265 1.71277 107.088 1.69359C106.93 1.73632 106.773 1.77902 106.615 1.8217C106.562 1.81066 106.509 1.79962 106.455 1.78858C106.525 1.77815 106.595 1.76772 106.664 1.75729ZM113.582 1.34981C115.141 1.28022 113.554 1.51776 112.779 1.43544C112.783 1.40694 113.439 1.35622 113.582 1.34981ZM109.509 1.59252C109.264 1.61898 109.02 1.64541 108.776 1.6718C108.744 1.65571 108.712 1.63961 108.68 1.62351C108.867 1.59647 109.054 1.5694 109.241 1.54231C109.33 1.55905 109.419 1.57579 109.509 1.59252ZM101.437 1.71685C101.042 1.71611 100.549 1.93665 101.812 1.82476C101.81 1.8037 101.808 1.78264 101.807 1.76157C101.756 1.76735 101.609 1.79419 101.601 1.793C101.578 1.78883 101.602 1.71709 101.437 1.71685ZM116.433 0.643932C116.477 0.633581 116.489 0.409899 116.962 0.615811C117.1 0.594476 117.239 0.573134 117.377 0.551781C117.416 0.59889 117.454 0.645997 117.493 0.693104C116.952 0.683498 116.9 0.78561 116.861 0.789776C116.683 0.808459 116.813 0.750503 116.697 0.755867C116.399 0.769854 115.725 0.839516 116.024 0.677892C116.131 0.619974 116.39 0.654275 116.433 0.643932ZM115.377 0.572424C115.443 0.58759 115.237 0.66362 115.287 0.679441C115.33 0.693248 115.981 0.725768 115.811 0.844865C115.705 0.845798 115.598 0.846726 115.492 0.847649C115.454 0.819421 115.417 0.791195 115.379 0.762966C115.278 0.796114 115.176 0.829344 115.074 0.862551C114.895 0.797383 114.519 0.720517 114.957 0.636909C114.795 0.651721 114.633 0.666521 114.471 0.681306C114.389 0.721277 114.307 0.761242 114.225 0.801206C114.266 0.744671 114.307 0.688134 114.348 0.631597C114.691 0.611932 115.036 0.592096 115.377 0.572424ZM120.385 0.329406C120.367 0.358484 120.349 0.387562 120.33 0.416638C120.92 0.333136 121.845 0.264115 121.329 0.467831C120.524 0.52523 119.725 0.582232 118.923 0.639317C118.868 0.621064 118.813 0.602812 118.758 0.584557C119.366 0.633892 119.159 0.298169 119.685 0.369799C119.773 0.381969 119.525 0.516363 120.072 0.409774C120.051 0.382656 120.03 0.355538 120.009 0.32842C120.134 0.328755 120.26 0.329083 120.385 0.329406ZM125.491 0.10009C124.471 0.113765 125.586 -0.0482273 125.78 0.0267849C125.779 0.0268029 125.779 0.0268188 125.779 0.0268368C126.307 0.232115 125.192 0.178729 125.125 0.183778C125.035 0.190614 124.835 0.368389 124.335 0.151402C124.719 0.134339 125.105 0.117235 125.491 0.10009ZM122.171 0.234934C122.257 0.224892 122.212 0.26973 122.249 0.267135C122.249 0.267117 122.249 0.267101 122.25 0.267083C122.8 0.228743 124.083 0.122485 124.231 0.251509C123.832 0.28423 122.031 0.40958 121.915 0.322631C122.001 0.293403 122.086 0.264169 122.171 0.234934ZM118.348 0.539475C118.008 0.468749 118.762 0.417161 118.963 0.447608C119.001 0.454498 118.7 0.612739 118.348 0.539475ZM92.7207 1.56107C91.9878 1.64541 92.956 1.65762 92.6251 1.75498C92.7652 1.74196 92.9054 1.72892 93.0452 1.71587C92.9372 1.66427 92.829 1.61268 92.7207 1.56107ZM59.2254 2.31826C59.0548 2.31013 59.1361 2.36015 59.1213 2.36105C59.0093 2.36075 58.9032 2.32037 58.8603 2.32516C58.0654 2.41629 58.5949 2.45398 58.6031 2.46385C58.6204 2.51398 58.4117 2.57479 58.7021 2.62954C58.8778 2.61005 59.0535 2.59051 59.2289 2.57091C59.3164 2.59798 59.4038 2.62504 59.4913 2.65209C59.8429 2.58842 59.3817 2.57682 59.3303 2.49774C59.3101 2.46666 59.6377 2.42586 59.2254 2.31826ZM91.3969 1.44805C91.2814 1.54127 90.9941 1.66469 91.2845 1.74152C91.2848 1.74151 91.2851 1.74149 91.2855 1.74148C91.3391 1.75551 91.5555 1.75547 91.6228 1.77548C92.091 1.63811 91.9046 1.52422 91.3969 1.44805ZM62.3891 2.12231C62.6731 2.13904 62.9568 2.15563 63.2402 2.17209C63.2362 2.22514 63.2321 2.27818 63.2281 2.33122C63.0763 2.31917 62.9245 2.30707 62.7726 2.29495C62.7198 2.31987 62.6669 2.34478 62.614 2.36969C62.8033 2.42747 62.9925 2.48519 63.1816 2.54286C63.4081 2.51842 63.6376 2.49385 63.8654 2.46922C63.76 2.44289 63.6546 2.41654 63.5491 2.39017C64.107 2.35082 63.9874 2.48148 64.4497 2.52338C64.6069 2.47178 64.764 2.42013 64.921 2.36845C65.1502 2.41396 65.3794 2.45939 65.6084 2.50474C65.9913 2.47501 66.0242 2.43682 65.7653 2.38516C65.9547 2.31758 66.165 2.4149 66.3937 2.38454C66.4126 2.38209 66.3758 2.32224 66.3925 2.3212C67.5745 2.25855 67.5202 2.41794 67.7091 2.42113C67.8435 2.42317 68.3766 2.30517 68.3843 2.2684C68.3933 2.21885 67.2776 2.04759 69.0187 2.00652C68.1167 1.89126 67.0932 2.04764 67.7602 2.23186C67.4727 2.21794 66.2202 2.29053 66.1404 2.28584C66.0237 2.279 66.0632 2.20348 65.9172 2.20412C65.8309 2.20455 65.6056 2.37975 64.9189 2.24176C64.8319 2.27128 64.7449 2.3008 64.6579 2.33029C64.5755 2.30856 64.4931 2.28682 64.4107 2.26507C64.5783 2.1801 64.7457 2.09508 64.9131 2.01002C64.2463 2.1105 63.6878 1.95106 63.2815 2.0986C62.9311 2.08729 62.7606 2.07337 62.9101 1.9989C62.8049 2.0004 62.6997 2.00189 62.5944 2.00337C62.526 2.04302 62.4576 2.08267 62.3891 2.12231ZM89.244 1.66219C88.8912 1.59407 88.7725 1.77608 88.8273 1.78396C89.1362 1.82691 89.4276 1.69762 89.244 1.66219ZM59.8614 2.40572C60.2491 2.44717 60.6363 2.48837 61.023 2.52932C61.0223 2.4733 61.0216 2.41727 61.0209 2.36125C60.635 2.37632 60.2485 2.39115 59.8614 2.40572ZM92.8228 1.43065C92.8601 1.47109 92.8974 1.51153 92.9346 1.55198C93.3501 1.38077 93.7787 1.58256 93.9855 1.52812C94.0303 1.51624 93.9357 1.44613 93.8487 1.43397C93.7944 1.42644 92.8972 1.41338 92.8228 1.43065ZM110.411 0.617748C110.255 0.653966 110.099 0.690168 109.943 0.726357C109.949 0.678734 109.955 0.631111 109.962 0.583488C110.039 0.570747 110.116 0.558001 110.194 0.545251C110.266 0.56942 110.339 0.593587 110.411 0.617748ZM108.624 0.783738C108.343 0.794119 108.063 0.80445 107.783 0.814727C108.849 0.717711 107.971 0.740741 108.617 0.646588C108.619 0.692305 108.622 0.738021 108.624 0.783738ZM105.776 0.830473C105.81 0.800602 105.843 0.77073 105.876 0.740858C106.157 0.726951 106.438 0.712987 106.719 0.698966C106.536 0.610057 106.354 0.521123 106.171 0.432167C106.068 0.437033 105.965 0.441894 105.862 0.446746C105.834 0.574655 105.805 0.702565 105.776 0.830473ZM51.6419 2.15054C51.4735 2.14911 50.8858 2.23498 50.9109 2.26643C51.1552 2.30505 51.3993 2.34357 51.6432 2.38198C51.6442 2.32583 51.6453 2.26967 51.6463 2.21352C51.6808 2.24144 51.7153 2.26935 51.7498 2.29725C51.8896 2.27608 52.0301 2.25487 52.1701 2.23362C52.2408 2.28256 52.3115 2.3315 52.3822 2.38043C52.453 2.32425 52.5237 2.26807 52.5944 2.21188C51.9184 2.114 51.9414 2.21304 51.8005 2.21223C51.7291 2.21185 51.6849 2.17714 51.6597 2.15968C51.6538 2.15663 51.6479 2.15359 51.6419 2.15054ZM60.1249 2.04539C59.3154 2.04039 58.8647 2.19253 58.282 2.07421C58.6529 2.33504 61.0652 2.03739 61.9152 2.24479C62.0027 2.2014 62.0902 2.15799 62.1776 2.11457C61.7166 2.1584 61.395 2.07543 61.1693 2.06571C60.99 2.05799 61.0092 2.102 60.9955 2.10153C60.9948 2.10154 60.9942 2.10155 60.9936 2.10156C60.5736 2.08845 60.443 2.04732 60.1249 2.04539ZM93.4109 1.1988C93.1921 1.14141 92.815 1.16415 92.8147 1.26166C93.0263 1.28088 93.2375 1.30008 93.449 1.31923C93.4048 1.29616 93.4483 1.20862 93.4109 1.1988ZM105.437 0.574851C105.266 0.551516 104.87 0.598831 105.046 0.67441C105.077 0.687812 105.471 0.609213 105.246 0.772353C105.632 0.750956 105.533 0.588316 105.437 0.574851ZM73.8654 1.98625C74.007 1.97973 74.1485 1.97318 74.2899 1.96661C74.3218 1.92644 74.3538 1.88627 74.3857 1.84609C74.2123 1.89285 74.0389 1.93957 73.8654 1.98625ZM95.2309 1.05218C95.4281 1.23603 95.7423 1.03476 96.1036 1.17695C96.2346 1.17233 96.3656 1.16769 96.4966 1.16303C96.4969 1.16302 96.4972 1.16301 96.4975 1.16299C96.4987 1.1104 96.5 1.0578 96.5011 1.00521C96.0775 1.02104 95.6541 1.0367 95.2309 1.05218ZM65.0198 2.08186C65.1076 2.10481 65.1953 2.12775 65.2831 2.15067C65.4382 2.11959 65.5931 2.08846 65.748 2.0573C65.6636 2.03839 65.5792 2.01947 65.4947 2.00054C65.3365 2.02769 65.1782 2.05479 65.0198 2.08186ZM97.5285 0.932769C97.0705 0.929445 96.9062 1.10427 97.4905 1.07819C97.7369 1.06699 98.0084 0.936109 97.5285 0.932769ZM42.9105 2.17745C43.0665 2.19318 43.2223 2.20886 43.378 2.2245C43.4313 2.18981 43.4847 2.15511 43.538 2.12041C43.3291 2.1395 43.1199 2.15852 42.9105 2.17745ZM107.61 0.485749C107.593 0.521786 107.576 0.557822 107.56 0.593859C107.419 0.593823 107.278 0.593776 107.138 0.593714C107.171 0.557083 107.205 0.520453 107.238 0.483821C107.362 0.484474 107.486 0.485117 107.61 0.485749ZM43.9598 2.20812C44.0859 2.21584 44.2118 2.22354 44.3377 2.2312C44.4225 2.21475 44.5072 2.19829 44.5918 2.18181C44.4742 2.16399 44.3565 2.14615 44.2388 2.12828C44.1459 2.15491 44.0529 2.18152 43.9598 2.20812ZM101.864 0.746613C101.686 0.712822 100.99 0.877768 101.624 0.881236C102.028 0.883313 101.891 0.751769 101.864 0.746613ZM102.811 0.659001C102.136 0.610828 102.658 0.99503 103.447 0.691654C102.642 0.76699 102.851 0.661931 102.811 0.659001ZM108.694 0.156842C108.711 0.156202 108.728 0.214195 108.863 0.209562C109.347 0.192672 109.989 0.183264 110.336 0.169096C111.177 0.135068 113.715 -0.102531 114.026 0.0514015C114.09 0.0838317 113.952 0.197876 113.978 0.202046C114.053 0.213496 114.479 0.139474 114.403 0.222063C113.983 0.243354 113.563 0.264556 113.144 0.285661C113.244 0.224987 113.344 0.164307 113.444 0.103621C112.402 0.187298 112.748 0.165919 112.454 0.30196C112.275 0.264383 112.096 0.226789 111.918 0.189177C111.537 0.25582 111.153 0.3226 110.77 0.389292C110.856 0.349825 110.941 0.310356 111.027 0.27088C110.442 0.23587 110.606 0.270074 110.293 0.371162C110.29 0.336208 110.288 0.301253 110.285 0.266298C109.729 0.380181 109.615 0.280818 109.493 0.285775C109.242 0.296426 108.943 0.726765 107.968 0.362882C107.576 0.581189 107.564 0.17775 107.336 0.394577C106.641 0.205737 107.947 0.221381 108.558 0.19781C108.559 0.197793 108.559 0.197778 108.559 0.197761C108.606 0.196055 108.53 0.162206 108.694 0.156842ZM105.197 0.537153C105.601 0.335035 103.97 0.398039 104.522 0.634104C104.603 0.638706 104.684 0.643303 104.765 0.647895C104.909 0.61098 105.054 0.574051 105.198 0.537106C105.198 0.537121 105.198 0.537138 105.197 0.537153ZM89.8538 1.11067C88.3454 1.24608 89.209 1.31633 89.7168 1.19354C89.8181 1.16915 89.8729 1.13909 89.8538 1.11067ZM58.9748 1.91755C58.953 1.93961 58.9313 1.96168 58.9095 1.98374C59.4111 1.95858 60.3992 2.03187 60.383 1.88463C59.9132 1.89599 59.4402 1.907 58.9748 1.91755ZM62.9825 1.77262C62.874 1.76533 62.4303 1.75057 62.4846 1.80493C62.6774 1.84132 62.87 1.87766 63.0626 1.91393C63.1518 1.88822 63.24 1.86251 63.3301 1.83675C63.2042 1.83032 63.012 1.77452 62.9825 1.77262Z" fill="var(--stroke-0, #009DFF)"/>
</svg>
