<svg preserveAspectRatio="none" width="100%" height="100%" overflow="visible" style="display: block;" viewBox="0 0 47.6464 120.346" fill="none" xmlns="http://www.w3.org/2000/svg">
<path id="Ellipse 41" d="M47.2839 53.6502C47.6462 55.8001 47.6936 57.6823 47.6125 59.4835C47.4951 62.0289 47.1298 64.3875 46.9036 67.2014C46.1001 77.7594 44.2647 91.7094 40.2707 102.119C37.163 109.038 34.2979 118.971 22.8667 120.346C22.3345 120.341 21.8048 120.294 21.2866 120.21C20.7292 120.117 20.4205 119.965 20.1767 119.899C17.7957 119.357 14.8103 117.128 13.5411 115.637C10.5593 112.574 7.62784 106.474 6.5124 103.178C6.01572 101.802 5.55019 100.36 5.51496 99.772C5.356 99.2546 5.14568 99.0168 5.09838 98.8883C5.09804 98.8867 5.0977 98.8852 5.09736 98.8836C4.94383 98.4684 4.71025 97.349 4.63643 97.1046C4.62627 97.0711 4.5948 97.3105 4.46076 96.7283C4.44892 96.6759 4.52313 96.707 4.38966 96.2182C4.35277 96.0971 3.8193 94.4568 3.70452 93.9971C3.27502 92.4115 2.5564 88.652 2.23481 86.7488C2.18388 86.4602 2.1193 86.3 2.0663 85.9931C2.03888 85.8346 2.03748 85.5892 2.02914 85.5402C1.9903 85.3226 1.66675 84.4234 2.06514 84.6983C1.88998 83.7365 1.82235 84.0378 1.74453 84.0287C1.57232 82.9756 1.66203 82.4258 1.45273 82.1816C0.749362 76.9793 0.344815 71.734 0.188574 66.5023C0.161963 66.5019 0.135353 66.5014 0.108743 66.501C0.164699 64.9413 -0.0202103 64.435 0.11726 63.5449C0.0752826 63.002 0.0361297 62.4539 0 61.9158C0.00172257 61.1088 0.00841761 60.2979 0.0202756 59.4835C0.251479 46.3483 1.59955 33.1883 5.56305 20.6516C5.7438 20.097 5.83053 19.9715 6.14931 19.0457C6.49666 18.0404 6.97141 16.5992 7.52044 15.2805C7.99349 14.1289 8.78934 12.4747 9.45405 11.216C9.60013 10.9368 9.68167 10.7259 9.69832 10.695C9.79672 10.5137 9.8439 10.5191 9.94362 10.3388C10.0637 10.1218 10.1801 9.84664 10.3219 9.60369C10.8415 8.70281 11.4827 7.70264 11.5518 7.6046C11.9257 7.05335 12.0469 6.96486 12.0776 6.92006C12.5031 6.33348 12.315 6.53468 12.4224 6.39067C13.0088 5.63039 13.4781 5.17195 14.3184 4.14372C14.3193 4.19319 14.3203 4.24265 14.3215 4.29209C15.0236 3.59175 14.504 3.99846 14.6349 3.83967C14.6722 3.74667 16.3403 2.28824 16.5088 2.2145C16.992 1.86783 17.0524 1.89404 17.0921 1.86548C17.1878 1.78303 18.4923 0.926439 19.2821 0.685841C20.2084 0.385884 19.1715 0.872202 19.4043 0.803838C19.4411 0.779911 20.383 0.454627 20.5296 0.460046C20.6771 0.446402 19.8499 0.686387 19.8696 0.702625C19.8724 0.684011 21.2809 0.390869 21.0232 0.505448C20.7995 0.544234 18.9593 1.11262 18.6398 1.34947C18.5823 1.38183 18.7174 1.37382 18.6661 1.40148C18.5585 1.45318 17.5464 1.97849 16.6762 2.65708C15.7839 3.33216 15.0444 4.08772 14.9653 4.16019C15.1022 3.9869 15.241 3.81734 15.3818 3.65156C15.172 3.8448 14.9557 4.05481 14.7586 4.25443C15.0262 3.94997 15.3164 3.64186 15.6036 3.3576C14.987 3.60438 13.8948 5.08928 13.9357 5.2244C13.9511 5.27435 14.7734 4.52554 14.1477 5.34528C14.2595 5.23378 14.3716 5.12444 14.4841 5.0173C14.6835 4.7656 14.8799 4.52778 15.091 4.28615C14.9298 4.43151 14.7809 4.56909 14.6269 4.71671C14.6693 4.65011 14.7121 4.58391 14.7551 4.51813C15.1428 4.07638 15.5796 3.62495 16.0174 3.22102C16.2689 3.02121 16.2446 3.09649 16.4185 2.96518C18.6701 1.45595 17.1252 2.35211 18.7075 1.46987C18.9515 1.37311 19.1881 1.28967 19.4415 1.20966C19.3262 1.16541 20.081 0.879376 21.056 0.638865C20.9452 0.691398 20.8359 0.746107 20.7281 0.802898C21.2979 0.648754 22.1348 0.547549 22.8667 0.572535C23.9141 0.600035 24.7052 0.822437 24.2685 0.63678C24.5926 0.705944 24.9062 0.792038 25.2182 0.895631C25.4881 0.946755 25.7561 1.01014 26.0243 1.08631C26.3726 1.22355 26.7254 1.38718 27.0505 1.55916C27.0457 1.57214 27.041 1.58512 27.0363 1.5981C26.7767 1.46342 26.4983 1.33333 26.223 1.21982C26.4142 1.34414 26.6034 1.4759 26.784 1.6113C26.98 1.69998 27.1748 1.79549 27.3685 1.89766C26.5825 1.42379 27.6812 1.93998 27.946 2.06084C28.6089 2.4624 28.9455 2.83126 29.1364 2.98729C29.237 3.05007 30.355 3.89715 29.8593 3.62998C30.3984 4.10275 30.9064 4.6117 31.3741 5.12782C31.5477 5.34426 31.718 5.56534 31.8792 5.78273C31.4617 5.36025 32.471 6.74814 31.6647 5.7776C31.0466 5.05839 30.9295 4.86046 30.6154 4.52524C30.3336 4.23234 30.1526 4.10726 29.825 3.80339C27.827 1.97954 25.5911 0.734213 22.8667 0.688898C22.6057 0.686319 22.3428 0.695849 22.0776 0.718176C21.4794 0.768 20.9571 0.903102 20.5688 1.00737C20.139 1.12884 20.6596 0.916006 20.1196 1.09791C19.5563 1.30354 19.4518 1.40982 19.3108 1.4685C19.2232 1.50655 18.928 1.5964 18.6741 1.72829C17.6147 2.2438 16.3458 3.33035 16.2243 3.44891C16.0473 3.50415 13.8135 5.81427 13.7774 5.94123C13.7257 6.00223 13.7086 5.77408 13.406 6.42352C13.2748 6.59947 13.1457 6.77752 13.0255 6.94757C13.0213 6.90235 13.0172 6.85713 13.0133 6.81191C12.3762 7.89751 12.5496 7.53543 11.9047 8.54416C10.3226 11.0207 8.52078 14.8922 7.46607 17.8731C7.22422 18.5458 7.17744 18.7903 6.90995 19.5851C6.65226 20.3326 5.95391 22.2007 6.23617 21.8355C5.6051 23.4433 5.77724 23.7645 5.39953 24.5659C5.394 24.6708 5.38886 24.7751 5.38376 24.8799C5.05585 25.7466 5.06309 26.0528 4.832 27.0456C4.73553 27.468 4.75164 26.9568 4.66001 27.8376C4.6133 27.9995 4.56685 28.162 4.52066 28.3251C4.50524 28.2813 4.48985 28.2375 4.47449 28.1937C4.27397 29.1583 4.25027 29.223 4.36535 29.1311C4.24633 29.5898 4.13182 30.0412 4.01812 30.5025C4.03631 30.5662 4.05456 30.63 4.07288 30.6938C4.05113 30.4701 6.6498 20.0178 7.30187 18.644C7.92738 16.9916 9.21453 13.6811 9.88179 12.4167C10.1445 11.8971 10.3102 11.7022 10.705 10.9745C11.1118 10.2232 11.583 9.31081 11.8267 8.9173C12.4085 7.51251 17.236 2.22803 14.0626 5.90036C14.1736 5.81231 14.28 5.73137 14.3953 5.64186C15.6078 4.13723 15.1814 4.67418 16.3628 3.60581C16.869 3.13499 18.1966 2.18026 18.1957 2.35702C17.1024 3.0428 16.0913 3.86986 15.3194 4.66727C15.2493 4.72644 14.4073 5.73498 14.0102 6.22521C13.6401 6.67678 13.7528 6.28947 13.1286 7.39885C12.458 8.10051 12.2806 8.63955 12.16 8.85589C11.9521 9.23643 11.8663 9.24034 11.6332 9.61685C11.391 10.0097 11.2752 10.3167 11.2441 10.3727C10.8838 10.9467 9.44616 13.9302 9.37432 14.0807C9.41773 13.9512 9.46144 13.8223 9.50545 13.6941C9.12698 14.4834 9.2718 14.3522 9.18737 14.5661C9.12079 14.7189 9.05457 14.8728 8.9887 15.0278C9.00028 14.9603 9.01195 14.8929 9.02371 14.8256C8.63215 15.7673 8.97893 15.0564 8.43034 16.421C8.09685 17.2617 7.71089 18.1533 7.68428 18.2413C7.67661 18.2665 7.81435 18.0045 7.69128 18.3631C7.49224 18.9388 7.14622 19.9643 7.05522 20.0648C6.96593 20.3611 7.02696 20.3533 7.01575 20.3914C6.95714 20.5443 6.08916 23.4667 5.96175 23.9952C5.56631 25.4551 5.14682 27.0782 4.79814 28.6722C4.76202 28.8373 4.74967 28.7241 4.71379 28.8899C4.6516 29.1662 4.4233 30.5128 4.38683 30.7221C4.28955 31.2345 4.00912 32.5614 3.98867 32.7733C3.9855 32.8035 4.11725 32.3745 4.03704 32.8898C3.94897 33.4633 3.93845 33.1442 3.932 33.175C3.69483 34.3441 3.62208 35.0733 3.50218 35.8739C3.46363 36.1318 3.33604 36.6069 3.2962 36.9727C3.29163 37.0145 3.35196 36.9393 3.34812 36.9805C3.29045 37.5291 3.12732 38.0314 3.08757 38.2696C2.99087 38.8528 3.102 38.5433 3.09808 38.5738C3.04588 38.9631 2.94944 39.4932 2.87758 40.0781C2.55555 42.7297 2.34004 44.8756 2.11722 47.7076C2.08982 48.0608 2.01122 48.475 2.00735 48.5295C1.9961 48.6967 2.05655 48.6522 2.02283 49.1364C1.95206 50.1602 1.90114 51.1086 1.8519 52.1189C1.84203 52.3229 1.78376 52.4076 1.77554 52.5635C1.74525 53.0911 1.82694 54.8672 1.64916 54.8926C1.77662 55.9325 1.62591 56.6234 1.61422 57.4525C1.6063 58.0459 1.60288 58.7428 1.60496 59.4835C1.60824 61.2029 1.64895 63.1209 1.67333 64.4997C1.68027 64.9133 1.63877 65.1083 1.64354 65.3377C1.64749 65.7561 1.77596 68.1198 1.77856 68.2389C1.77714 68.4801 1.55283 68.3516 1.81053 69.5915C1.86776 70.3224 1.77556 70.2409 1.78016 70.3924C1.81813 71.5626 2.10912 72.7112 1.91067 72.5071C2.0664 73.8716 2.25318 74.7524 2.13602 75.3299C2.21877 75.3142 2.33063 75.9546 2.38098 76.7269C2.15893 75.9517 2.0718 76.067 1.92191 74.1264C1.91963 74.0958 1.98486 74.1486 1.98257 74.118C1.9622 73.8426 1.88349 73.2769 1.84979 72.8073C1.81623 72.338 1.87755 72.5951 1.8622 72.4073C1.84823 72.2351 1.79143 72.2455 1.77209 71.9957C1.70952 71.18 1.6488 70.4765 1.61978 70.0158C1.60156 69.7265 1.63257 69.3988 1.62003 69.1733C1.56806 68.2914 1.44732 66.4722 1.4198 65.353C1.41399 65.1237 1.47146 65.2184 1.46161 64.7159C1.46056 64.6572 1.39705 64.4451 1.37484 64.0037C1.35274 63.5621 1.37462 63.2177 1.36388 62.9327C1.35515 62.6951 1.30578 62.7928 1.2961 62.3077C1.2917 62.0987 1.28529 60.7659 1.30163 59.4835C1.31511 58.295 1.34623 57.1742 1.35231 57.0549C1.37038 56.6972 1.44321 56.5316 1.43973 56.3099C1.43881 56.2711 1.37363 56.2043 1.37214 56.07C1.33018 53.8659 1.6722 48.9952 1.90297 46.4891C2.35273 41.2554 2.9635 36.4191 3.99289 31.2074C4.00157 31.1117 4.01036 31.0162 4.01926 30.9208C3.91019 31.4524 3.80593 31.9793 3.70588 32.503C3.67741 32.5011 3.64893 32.4993 3.62045 32.4975C3.48113 33.2092 3.56611 33.1283 3.60942 33.1149C3.54355 33.3766 3.4783 33.6396 3.41368 33.9038C3.46683 34.1576 3.10281 35.8913 2.96292 36.8213C2.87175 37.4086 2.80708 38.1208 2.75981 38.435C2.65999 39.0992 2.60127 39.0751 2.59285 39.1271C2.57802 39.2216 2.50955 40.1438 2.42508 40.8134C2.30141 41.802 2.18818 41.9076 2.12393 43.2634C1.88598 45.0025 1.73913 46.9333 1.61694 48.8075C1.54869 48.4421 1.51961 50.1365 1.47795 50.8963C1.3216 53.5356 1.20834 56.5218 1.17643 59.4835C1.15112 61.723 1.1703 63.9291 1.22337 65.952C1.23943 66.5596 1.19945 67.0188 1.21575 67.355C1.22461 67.5373 1.29755 67.6134 1.3 67.8663C1.30041 67.9109 1.23622 67.9446 1.24942 68.4154C1.27529 69.6037 1.58321 72.5143 1.52292 73.2645C1.86728 77.2784 2.36757 81.2673 3.06393 85.2522C3.05303 85.3578 3.04221 85.4633 3.03147 85.5688C3.29687 86.3044 3.77174 89.2875 4.10967 90.741C4.67195 93.2849 5.5697 96.4896 6.27438 98.675C6.42444 99.1471 6.51367 99.5615 6.6636 100.007C6.72847 100.199 6.8626 100.419 6.93106 100.616C7.70128 102.868 8.86568 105.883 9.99405 108.04C12.5761 112.686 15.6542 118.201 22.5006 118.932C22.6224 118.938 22.7444 118.941 22.8667 118.941C34.4477 117.11 37.0299 105.755 40.0518 97.6145C42.722 88.8257 44.088 79.7807 44.7932 70.7384C44.8117 70.4956 44.8931 70.5132 44.9073 70.3246C44.9962 69.2054 45.0692 66.714 45.1196 65.4411C45.1652 64.4439 45.3385 62.8431 45.2152 62.491C44.9385 66.0649 44.7502 69.8352 44.3553 73.5374C44.3274 73.7991 44.2467 73.8244 44.2423 73.8565C44.1585 74.4502 44.3023 74.0853 44.22 74.9581C44.1978 75.2542 43.6509 77.8969 43.9271 77.6102C43.7707 78.2489 43.0944 82.7318 42.9594 83.6156C42.9254 83.8801 43.0265 83.7053 43.0214 83.7581C42.9992 83.9873 42.885 84.0734 42.8482 84.2745C42.7549 84.7997 42.5793 86.2096 42.5286 86.463C42.4202 87.0502 41.9767 88.8519 41.8223 89.6271C41.6801 90.3523 41.8072 90.2439 41.6734 90.8707C41.5658 91.3626 41.6099 90.814 41.3262 91.8947C41.1882 92.4366 40.7603 94.3393 40.6291 94.7985C40.5023 95.2618 40.3021 95.7567 40.1243 96.3797C39.8695 97.294 39.2794 99.2572 38.972 100.177C38.9542 100.231 38.9801 100.388 38.9318 100.52C38.8317 100.793 38.7724 100.679 38.6898 100.881C38.6237 101.115 37.2323 104.682 36.9248 105.28C36.7375 105.696 36.656 105.999 36.55 106.223C36.4658 106.399 36.3908 106.378 36.3001 106.565C36.2727 106.622 36.0978 107.136 35.8556 107.603C35.6461 108.035 34.65 109.688 34.5265 109.87C34.4506 109.995 34.5805 109.887 34.3544 110.254C34.1475 110.588 33.9517 110.763 33.832 110.945C33.5509 111.374 33.2617 111.9 32.943 112.333C31.9767 113.621 31.9415 113.466 31.8839 113.544C31.7105 113.739 31.6924 113.878 31.6363 113.945C31.3939 114.24 30.7934 114.895 30.5387 115.139C30.2367 115.435 30.0629 115.495 29.7275 115.786C29.4629 116.012 29.0127 116.482 28.3477 116.927C26.9142 117.921 24.8022 118.726 22.9617 118.699C22.9283 118.699 22.8967 118.699 22.8667 118.699C22.4065 118.685 22.3289 118.613 22.1751 118.601C21.3151 118.515 20.8383 118.451 20.5967 118.389C18.8222 118.004 16.4024 116.176 15.3936 115.091C14.9208 114.684 13.1492 112.711 12.3791 111.475C12.2854 111.333 12.4149 111.438 12.3036 111.285C12.0366 110.914 11.9811 111.01 11.8626 110.819C11.8065 110.728 11.7235 110.49 11.5634 110.215C10.738 108.791 10.2009 107.806 9.87598 107.145C6.77707 100.712 4.99816 93.7057 3.77575 87.2804C3.6429 86.5731 3.42659 85.6896 3.2975 84.5876C3.32009 84.5498 3.34268 84.5119 3.36528 84.474C3.33147 84.441 3.29767 84.408 3.2639 84.3748C3.0512 83.1587 2.94094 82.6712 2.79875 81.4207C2.78646 81.3121 2.86748 80.9637 2.682 80.7802C2.62944 79.5118 2.60403 80.2099 2.47595 79.2837C2.35114 78.365 2.28193 77.4473 2.19527 76.5446C2.19672 76.0417 2.55156 78.1096 2.57091 78.2419C2.59599 78.4592 2.54507 78.694 2.56634 78.9028C2.62831 79.5165 2.77041 80.1171 2.7189 80.2648C2.89996 81.0578 2.72954 80.0631 2.80967 80.1543C2.85291 80.695 2.89876 81.2323 2.94721 81.7661C3.20428 82.0002 3.37437 84.9971 3.51998 84.7562C3.52485 84.9985 3.53022 85.2402 3.53608 85.4812C3.93647 86.4722 3.88734 87.0832 4.09454 88.4708C4.10304 88.3668 4.11163 88.2628 4.1203 88.1586C4.1364 88.1863 4.42552 89.372 4.21801 88.97C4.62876 90.1473 4.35997 90.1789 4.79641 91.2277C4.97178 91.8741 4.76212 91.4926 5.04703 92.6724C5.21818 93.3737 5.48591 94.1834 5.70211 94.9677C5.75085 95.1452 5.70733 95.24 5.75044 95.3974C5.79364 95.5545 5.87804 95.6133 5.93248 95.8019C6.0449 96.1914 6.14477 96.7033 6.2235 96.9538C6.29247 97.1739 6.44158 97.4733 6.61192 97.9932C7.21755 99.8058 6.97506 99.29 7.03946 99.5858C7.1145 99.9056 7.29335 100.094 7.49279 100.702C7.51316 100.764 7.39126 100.627 7.46534 100.829C7.52565 100.992 7.6249 101.052 7.83363 101.582C7.8936 101.797 9.21166 105.043 9.46688 105.531C9.79171 106.266 10.5471 107.945 10.9772 108.705C11.1375 108.997 11.3581 109.26 11.5377 109.568C12.1256 110.587 13.1385 112.144 14.0988 113.299C14.9198 114.369 16.6248 116.118 17.3542 116.418C18.9837 117.504 19.4745 117.681 19.6045 117.764C19.9932 117.919 20.1908 117.914 20.6959 118.05C21.3826 118.227 22.1105 118.329 22.8667 118.328C29.9144 118.088 33.9181 110.682 36.1258 106.212C41.7533 93.8201 43.5984 80.2228 44.3629 66.8471C44.3259 66.8094 44.2889 66.7717 44.2518 66.734C44.1541 68.3126 43.9707 70.1794 43.8322 71.7371C43.6566 73.8236 43.4882 76.9205 43.0357 78.422C43.0907 77.8046 43.3049 76.8005 43.1707 76.8036C43.0352 77.922 42.8913 79.0029 42.7302 80.1139C42.7948 80.089 42.8595 80.064 42.9241 80.0389C42.7836 81.2002 42.5966 82.3617 42.4155 83.5222C42.3842 83.7222 42.4613 83.5895 42.4328 83.7634C42.4008 83.9577 42.3679 83.817 42.3614 83.8533C42.2791 84.3434 42.3085 84.4989 42.2975 84.5584C42.2688 84.7115 42.238 84.5796 42.1447 85.0259C41.9712 85.8514 41.9982 86.4605 41.8036 86.226C41.7544 86.4904 41.7045 86.7535 41.6539 87.0155C41.7034 87.0954 41.7529 87.175 41.8021 87.2551C41.2257 88.8542 41.5032 89.6644 40.9518 90.5006C40.9377 90.8086 40.9223 91.1152 40.9059 91.4205C40.8056 91.5713 40.7053 91.7213 40.6048 91.8704C40.6496 91.9148 40.6943 91.9593 40.739 92.0037C40.3142 93.595 39.9257 95.2869 39.4737 96.7751C39.1508 97.8308 39.0571 98.0551 38.7592 98.9793C38.0774 101.023 38.6681 98.9779 37.98 100.608C38.0713 100.544 38.1627 100.479 38.254 100.414C38.1807 100.692 38.0992 100.989 38.0187 101.276C37.8977 101.453 37.7764 101.628 37.6549 101.802C37.5901 102.74 37.1534 103.225 37.108 103.338C37.0682 103.433 37.097 103.812 36.5365 104.752C36.9237 104.424 36.1981 105.519 36.1531 105.604C36.1174 105.687 35.6242 106.841 35.3886 107.288C35.2128 107.634 34.7663 108.377 34.4759 108.89C34.2205 109.342 34.3097 109.33 34.2916 109.364C33.9637 109.93 34.1233 109.55 33.8762 109.953C33.6279 110.353 33.486 110.685 33.427 110.765C33.3972 110.805 33.4308 110.629 33.3005 110.816C32.9329 111.35 32.3379 112.29 31.8722 112.862C31.71 113.065 31.474 113.261 31.2765 113.487C30.9831 113.822 30.9008 114.022 30.7259 114.205C30.6693 114.263 30.1859 114.61 29.6803 115.093C29.5906 115.179 29.4447 115.647 28.8079 115.702C28.8068 115.766 28.8052 115.83 28.8033 115.894C26.9161 117.431 26.033 117.226 25.115 117.888C23.3272 118.244 24.5273 117.839 24.3264 117.866C24.2021 117.881 23.6295 117.991 23.5639 117.989C23.4503 117.994 23.4665 117.949 23.343 117.957C23.1653 117.968 23.0073 117.972 22.8667 117.974C21.219 117.908 22.0143 118.01 21.3454 117.968C20.4726 117.868 19.7717 117.539 19.6236 117.432C19.4865 117.304 19.8407 117.521 21.2893 117.887C21.2939 117.863 21.2986 117.839 21.3033 117.816C20.5532 117.746 18.8763 116.992 19.4868 117.122C19.722 117.187 20.8429 117.605 21.6735 117.697C22.5017 117.79 22.9584 117.798 21.765 117.61C21.2413 117.493 20.911 117.538 20.0917 117.067C19.5166 116.83 19.3514 117.009 18.6398 116.521C18.7247 116.657 18.8126 116.792 18.9038 116.925C17.7995 116.482 16.7369 115.475 16.0755 114.906C15.8456 114.727 14.8222 114.182 15.2621 114.119C14.8806 113.802 13.4406 111.893 13.202 111.558C13.1454 111.479 12.8712 111.47 12.1257 110.162C12.0904 110.06 12.0554 109.958 12.0206 109.855C12.8024 111 11.5871 108.872 12.0863 109.35C12.1321 109.594 12.6624 110.537 12.7282 110.702C12.8399 110.997 12.2579 110.285 12.9251 111.24C13.5751 111.671 12.314 110.028 12.7351 110.14C11.836 108.949 11.893 108.742 11.7306 108.453C11.0466 107.171 10.6254 106.377 10.0985 105.147C9.89893 104.87 10.8746 107.133 11.0476 107.375C10.36 106.475 11.2216 108.206 11.7405 108.847C11.72 108.936 11.6997 109.025 11.6796 109.115C11.1824 108.184 10.7179 107.255 10.2131 106.319C10.2037 106.246 10.1944 106.173 10.1851 106.1C10.3196 106.303 10.4547 106.503 10.5904 106.699C10.2581 105.885 10.3145 106.427 9.97459 105.318C9.89701 105.314 9.8194 105.31 9.74177 105.306C9.29581 104.261 8.89892 103.24 8.51822 102.183C8.17733 101.703 7.50995 99.645 7.80946 99.9638C7.5435 99.1451 7.79725 100.184 7.49776 99.4297C7.36766 99.102 7.14636 98.4328 7.14308 98.2647C7.319 98.2755 7.66224 99.2657 7.87152 99.5194C7.80724 99.3285 6.32279 94.798 6.64664 95.1483C6.56724 94.7734 6.51759 94.9717 6.31258 94.3062C5.74221 92.4786 5.26318 89.4978 4.73507 88.0387C4.96551 89.8433 5.22918 90.3617 5.54935 91.7062C5.72036 92.6018 7.20993 97.8131 6.72164 96.7003C6.80039 96.8886 6.8796 97.0757 6.95924 97.2615C6.96842 97.4711 6.97806 97.68 6.98817 97.8881C6.81281 97.35 6.63748 96.7906 6.4729 96.247C6.48526 96.1031 6.49781 95.959 6.51054 95.8147C6.45801 95.7648 6.40552 95.7147 6.35308 95.6645C6.28118 95.436 6.20989 95.206 6.13923 94.9745C6.19974 95.0284 6.2603 95.082 6.32091 95.1355C6.23002 94.7772 6.13831 94.407 6.05265 94.051C6.02063 94.1609 5.98889 94.2716 5.9581 94.3854C5.50622 92.7102 5.69198 93.2694 5.5647 92.2989C5.40669 91.5906 5.5765 92.798 5.20166 91.3286C4.78087 89.6101 5.19166 90.6837 4.6877 88.4616C4.6529 88.4349 4.61813 88.4083 4.58337 88.3815C4.51163 87.8822 4.43991 87.3659 4.37555 86.8711C4.35289 86.9428 4.33027 87.0145 4.30767 87.0862C4.12673 86.0754 3.81238 84.6423 3.89526 84.2894C4.00431 85.3399 4.24599 85.2953 4.24117 85.0133C4.1713 84.4613 2.93827 76.1607 2.8509 74.5487C2.65042 72.4859 2.60739 70.9154 2.38344 69.031C2.34714 70.3213 2.79117 74.8145 2.83154 75.6764C2.83399 75.7609 2.61746 75.7607 2.91435 76.2748C3.05883 78.0296 3.38407 80.1122 3.70391 82.2736C3.63129 82.2162 3.55876 82.1586 3.48629 82.1008C3.42125 80.7607 2.97115 79.5454 3.23499 79.6897C3.19956 79.4183 3.16636 79.1579 3.13321 78.892C3.09176 78.8973 3.05031 78.9025 3.00886 78.9077C2.95919 78.5077 2.91104 78.1057 2.86442 77.7018C2.90572 77.697 2.94703 77.6921 2.98833 77.6873C2.94964 77.3534 2.91177 77.0162 2.87541 76.6817C2.83061 76.6518 2.78583 76.6219 2.74107 76.5919C2.70828 75.5958 2.18538 72.1939 2.55906 73.6719C2.51805 73.205 2.47906 72.7359 2.4421 72.2646C2.41253 72.2685 2.38296 72.2724 2.35339 72.2763C2.33357 72.0739 2.31413 71.8711 2.29508 71.6679C2.32686 71.7329 2.3587 71.7978 2.3906 71.8626C2.27155 70.9269 2.35631 70.0563 2.22729 69.4483C2.23133 69.852 2.23675 70.2545 2.24355 70.6557C2.22817 69.8883 2.06885 68.4658 2.06319 68.3364C2.04277 67.9511 2.09176 67.745 2.07516 67.3259C2.06036 66.9474 2.0177 67.0014 2.01613 66.9307C1.97897 64.8783 2.2552 65.649 1.93542 64.7074C1.97169 64.6048 2.00801 64.5022 2.04437 64.3996C2.00778 64.2656 1.9714 64.1313 1.93523 63.9968C1.92286 63.3937 1.91364 62.7814 1.90795 62.1801C1.86221 62.381 1.81676 62.5838 1.77159 62.788C1.7343 61.8795 1.82947 61.4607 1.83048 61.372C1.83382 61.1239 1.77217 61.0107 1.77154 60.9338C1.76831 60.2884 1.77099 59.822 1.77616 59.4835C1.80506 57.887 1.86533 59.1518 2.06661 57.631C1.9867 56.974 1.889 57.6363 1.79769 57.729C1.85197 56.8551 1.83169 56.5873 1.85898 55.6579C1.86636 55.4168 1.92168 55.1594 1.92671 55.0079C1.93097 54.8766 1.89235 54.4651 1.90308 54.1512C1.92048 53.6315 1.97795 52.9256 2.01056 52.2069C2.03531 51.6112 2.09746 49.7759 2.18899 48.5038C2.22732 47.9622 2.2602 48.0911 2.27037 47.9515C2.27439 47.8955 2.25655 47.4641 2.28425 47.1139C2.50683 44.2814 2.85126 41.3561 3.24634 38.5208C3.52314 36.5305 3.81588 34.4902 4.19656 32.4964C4.27727 32.0756 4.26848 32.3048 4.30471 32.1217C4.31775 32.0571 4.27091 31.9781 4.42587 31.3196C4.48185 31.0834 4.4677 31.3649 4.51654 31.1317C4.54061 31.0187 4.49828 30.9582 4.62371 30.2972C4.85093 29.1088 5.07208 28.4635 5.09272 28.3602C5.13488 28.1582 5.08004 28.2074 5.1401 27.9413C5.43098 26.6586 5.7045 25.5479 6.01077 24.4055C6.1366 23.849 7.2386 20.1856 7.3358 19.9861C7.50205 19.5394 7.44157 19.9847 7.63327 19.4089C7.66766 19.2415 7.70247 19.0749 7.73769 18.909C7.63431 19.1561 7.53162 19.4055 7.42965 19.6573C7.69293 18.9584 7.9347 18.1663 8.1319 17.6404C8.16822 17.5399 8.52865 16.6923 8.70473 16.2434C8.64205 16.4435 8.58495 16.6323 8.52731 16.8251C8.56533 16.7638 8.60337 16.7027 8.64145 16.6418C8.97511 15.7302 9.35006 14.8306 9.76436 13.9173C9.91102 13.5958 9.89067 13.7172 10.0403 13.3958C10.9482 11.5171 10.584 11.9393 11.7695 10.2883C11.3989 10.8529 10.3147 13.0809 10.1764 13.397C10.0668 13.6133 9.47658 14.4176 9.82053 14.1792C9.02588 16.0154 9.59474 14.3605 8.90686 16.1002C8.94571 16.0752 8.98454 16.0503 9.02336 16.0254C8.79061 16.6499 8.64134 17.0817 8.4569 17.4377C8.52527 17.6091 7.70892 19.6483 7.35696 20.8136C6.83923 22.4712 6.32978 24.4052 5.92075 26.062C5.77725 26.6411 5.64554 26.9625 5.62778 27.0359C5.60246 27.1421 5.57806 27.4468 5.52904 27.6579C5.33774 28.4461 4.74187 30.8487 4.75923 31.4872C5.69921 26.7325 6.91146 22.0459 8.60463 17.4978C8.29792 18.0405 10.1388 13.4829 10.2945 13.2891C10.3932 13.0851 10.3502 13.2755 10.3811 13.2157C10.6117 12.7671 10.7568 12.3383 10.8281 12.1962C10.8834 12.0861 11.02 11.8753 11.2186 11.494C11.255 11.4243 11.2387 11.391 11.2802 11.3124C11.5546 10.7945 11.827 10.3066 12.1149 9.81696C12.1333 9.78617 12.2458 9.68055 12.3215 9.55484C12.3973 9.4286 12.436 9.28304 12.4552 9.25158C12.6939 8.85969 13.1449 8.21861 13.3995 7.85597C13.4861 7.7316 13.4003 7.7996 13.4979 7.66124C13.8016 7.23808 13.7388 7.42337 14.1241 6.88609C14.2531 6.71014 14.2072 6.68985 14.4699 6.37188C14.6564 6.14901 14.7006 6.22752 14.7319 6.19399C14.7647 6.15129 15.3977 5.32337 15.6612 5.13772C15.27 5.75194 16.2167 4.57402 16.1368 4.58688C16.4388 4.31788 16.7391 4.06935 17.0675 3.81957C17.1647 3.72058 17.2627 3.62368 17.3615 3.52889C18.7031 2.61766 19.5762 2.09041 21.1329 1.71161C21.2055 1.6655 22.5419 1.52544 22.4817 1.57465C21.6822 1.64656 20.9073 1.84263 20.4055 1.94424C19.6562 2.35822 19.5934 2.23125 18.4221 2.93434C18.042 3.18054 18.0359 3.23545 17.9923 3.26404C16.4933 4.2513 14.6599 6.396 13.8859 7.32878C13.7065 7.61585 14.4445 6.64855 14.1764 7.03923C13.9083 7.16004 10.8392 12.4767 11.7197 10.7224C11.624 10.9027 11.5289 11.0852 11.4344 11.27C11.4331 11.5118 10.9623 12.3808 10.9087 12.2323C10.887 12.3289 10.8655 12.4257 10.8443 12.5229C10.7789 12.7017 10.6864 12.9166 10.5593 13.2011C9.95422 14.2575 7.46167 20.9592 7.44243 21.3549C7.46746 21.3717 7.49251 21.3885 7.51755 21.4053C8.49073 18.4001 9.47353 15.4996 11.0709 12.4299C11.0034 12.5082 10.9358 12.587 10.8682 12.6665C11.5028 11.449 12.1827 10.2703 12.9493 9.11589C12.1963 10.3745 11.1704 12.4135 10.5108 13.7914C10.3929 14.0337 10.4417 13.8389 10.412 13.8935C10.3348 14.0372 10.3194 14.2191 10.0891 14.7656C9.86148 15.2937 9.27076 16.6453 9.22551 16.7759C9.13525 17.0134 8.95811 17.6886 8.80609 18.1079C8.60598 18.6592 8.69629 18.2739 8.65549 18.3844C8.48596 18.8449 8.37222 19.2448 8.24736 19.6042C8.06016 20.1361 7.62813 21.2212 7.63058 21.6292C7.75368 21.2466 7.87545 20.8779 8.00492 20.4951C7.38872 22.5553 6.77215 24.1809 6.37386 26.2691C6.40071 26.7769 6.80807 25.0572 6.50911 26.523C6.57187 26.258 6.63541 25.9945 6.69972 25.7327C6.6852 25.6637 6.67077 25.5948 6.65643 25.5259C6.79208 25.0863 6.93416 24.6349 7.07882 24.1878C7.01718 24.3096 6.95564 24.4319 6.89421 24.5547C7.30011 22.9479 7.77076 21.3328 8.08171 20.8404C8.05844 20.7977 8.03522 20.755 8.01205 20.7124C8.51456 19.2428 9.18071 17.0433 9.21228 17.5133C9.22806 17.4421 9.24392 17.371 9.25987 17.3001C9.62216 16.4609 9.41119 16.794 9.53022 16.4641C9.56209 16.359 10.2844 14.7243 10.0326 15.4764C10.7555 13.8831 10.3942 14.3041 10.5814 13.8609C11.1112 12.874 11.9313 11.033 11.6639 11.8424C11.7425 11.7013 11.8268 11.5515 11.9109 11.4044C12.0813 10.8583 12.4397 10.4635 12.7801 9.96616C12.8861 9.7919 12.9926 9.62031 13.0997 9.45142C13.1398 9.31873 13.1805 9.18691 13.2217 9.05593C14.4018 7.56393 13.6996 7.82028 14.5188 7.3415C14.4563 7.4628 14.3899 7.59151 14.3341 7.70759C14.1613 7.96428 13.9902 8.22847 13.8208 8.50005C14.5316 7.46057 15.3379 6.43614 16.2051 5.54677C17.4017 4.49197 18.024 3.7862 19.5831 3.05221C19.7219 2.97196 19.8604 2.89653 20.0016 2.8248C19.8904 2.96964 19.319 3.19267 20.3875 2.78508C20.4949 2.80201 19.7933 3.09266 19.4638 3.22674C19.382 3.25636 20.0099 2.87943 19.2805 3.25939C18.7938 3.55159 19.6882 3.04416 18.2706 3.94982C18.3309 3.92464 18.3909 3.90023 18.4508 3.87657C18.2988 3.98104 18.149 4.08976 18.0077 4.19716C17.8601 4.26725 17.7116 4.3419 17.5624 4.42108C17.2607 4.74222 17.1379 4.9166 16.4335 5.60919C16.6071 5.40259 16.2976 5.61116 15.9787 5.96362C15.997 5.9804 16.0153 5.99719 16.0336 6.01398C15.2675 6.91016 15.4805 6.55055 14.9194 7.35489C14.8436 7.4212 14.7678 7.48855 14.6919 7.55696C14.4242 8.01776 13.3959 9.71297 13.4913 9.34217C13.296 9.87051 12.6642 10.8578 12.3742 11.195C12.3805 11.2369 12.3868 11.2788 12.3932 11.3207C12.2874 11.5275 12.1785 11.7449 12.0781 11.9504C12.0061 12.056 11.9342 12.1626 11.8623 12.2703C11.8025 12.423 11.7431 12.5771 11.6842 12.7324C11.6171 12.8105 11.5499 12.8892 11.4828 12.9686C11.3941 13.2236 11.3054 13.4843 11.2258 13.7312C11.14 13.8677 11.0543 14.0056 10.9688 14.1448C11.007 14.1788 10.3752 15.6683 10.1817 16.0704C10.1461 16.2011 10.1108 16.3325 10.0758 16.4645C10.0271 16.5163 9.97843 16.5684 9.92975 16.6207C9.9122 16.7229 9.89484 16.8254 9.87767 16.9282C9.77626 17.1327 9.67618 17.337 9.57612 17.5446C9.37137 18.4693 9.25748 18.4666 9.18463 18.6712C9.04974 19.0461 8.69967 20.3505 8.62655 20.5744C8.55196 20.7927 8.47414 20.8823 8.41582 21.0527C7.46461 23.9159 7.95689 22.7763 7.80537 23.3565C7.72814 23.6713 7.62371 23.8817 7.5523 24.1627C7.41747 24.6533 6.87463 27.0697 6.84011 27.2231C6.78383 27.4253 6.6874 26.8985 6.58688 27.5689C6.69233 27.614 6.2603 29.005 6.5661 28.3782C6.42238 28.9551 6.27812 29.5587 6.14585 30.1294C6.29477 30.0922 6.0589 30.7897 5.91327 31.5885C5.70002 32.7068 5.36696 35.2658 5.24418 35.1427C5.23379 35.4165 5.22427 35.6913 5.21562 35.967C4.88373 37.8181 4.69251 39.6401 4.48837 41.4824C3.87541 46.9644 3.53199 52.9454 3.4976 58.4362C3.49575 58.7008 3.44333 58.6625 3.44225 58.8533C3.44141 59.0221 3.44209 59.2366 3.44426 59.4835C3.45233 60.7067 3.51308 62.6839 3.54264 63.8546C3.55311 64.3026 3.50879 64.5213 3.51143 64.663C3.52062 65.1435 3.58583 65.0277 3.59253 65.2484C3.60087 65.6001 3.62412 67.4602 3.65678 68.0907C3.67146 68.4044 3.75017 68.7801 3.75692 69.1505C3.75758 69.1825 3.69625 69.1271 3.69699 69.1541C3.73414 69.829 3.75736 69.4202 3.76996 69.6482C3.86064 71.2638 4.00369 73.0025 4.1713 74.7618C4.21257 75.1995 4.24277 75.8689 4.2808 76.2402C4.29547 76.382 4.31103 76.1229 4.3633 76.6129C4.38168 76.7833 4.33021 76.848 4.34897 77.0401C4.431 77.8672 4.6538 78.1173 4.59365 78.8358C4.77723 80.1978 5.18206 82.5465 5.39767 83.7738C5.44739 84.0637 5.43617 84.2069 5.48576 84.4852C5.52116 84.684 5.63797 85.0233 5.69518 85.33C5.75232 85.6369 5.79043 86.1297 5.90629 86.7108C6.02907 87.3309 6.22087 88.0978 6.24991 88.2347C6.2852 88.4021 6.23579 88.4937 6.27229 88.6603C6.3777 89.1531 6.75322 90.5182 6.91584 91.1525C7.08806 91.8357 7.16683 92.2787 7.22702 92.5128C7.28403 92.733 7.40638 92.9738 7.43301 93.0732C7.4745 93.2278 7.4186 93.2814 7.47119 93.4771C7.55629 93.792 7.68984 94.1236 7.82634 94.6067C10.3518 102.926 13.6261 112.666 20.9442 115.774C21.6105 115.974 22.0466 116.027 22.8667 116.038C23.0297 116.037 23.2073 116.032 23.4048 116.018C23.8887 115.972 23.6967 116.075 24.0714 115.993C24.238 115.951 24.1827 115.902 24.3918 115.847C25.3076 115.617 26.3724 115.083 26.7252 114.842C26.8695 114.748 27.0043 114.575 27.2891 114.361C29.4595 112.744 31.4675 109.929 32.917 107.156C33.6978 105.699 34.6986 103.372 35.3721 101.559C37.2599 96.5756 38.6414 90.9497 39.5084 86.1196C40.8202 78.8262 41.4062 71.4358 41.672 64.0284C41.4013 67.4912 41.1522 72.2012 40.7302 76.0306C39.4851 87.0032 37.389 99.0513 31.8362 108.689C29.955 111.92 26.5119 115.887 22.9369 115.803C22.9163 115.803 22.8928 115.804 22.8667 115.806C22.6939 115.817 22.4053 115.848 22.1086 115.806C22.0343 115.811 21.1602 115.539 20.8786 115.423C21.101 115.69 19.9985 115.125 19.66 114.911C19.2302 114.691 18.2774 114.19 17.4045 113.304C16.6128 112.484 16.9011 112.651 16.8551 112.607C16.6031 112.305 16.4316 112.268 16.2152 112.038C15.1833 111.259 11.7907 105.362 11.155 103.508C10.962 103.06 11.0159 103.02 10.9728 102.918C10.8587 102.647 10.6388 102.281 10.4601 101.83C10.1497 101.051 9.85534 100.078 9.70074 99.6412C9.31898 98.5896 8.58196 96.5455 8.17945 95.1306C8.06451 94.7322 8.13363 94.7386 8.08204 94.5572C7.84618 93.7475 7.2311 91.6773 7.00168 90.6814C6.61333 89.0432 6.29614 87.341 5.96278 85.6791C5.97 85.5679 5.97731 85.4566 5.98471 85.3451C5.92499 85.1821 5.86558 85.0185 5.80649 84.8543C5.31434 82.0129 4.83333 79.107 4.51306 76.2408C4.47417 75.9162 4.35276 74.2771 4.32824 73.9999C4.30571 73.7693 4.21963 73.5582 4.19821 73.2216C4.16877 72.751 4.3319 73.1831 4.2284 72.4176C4.20092 72.2112 4.16511 72.4167 4.11329 72.0012C4.08993 71.8587 3.87098 69.2 3.87082 69.0514C3.86141 68.8109 3.96001 68.5898 3.95856 68.5275C3.95136 68.2036 3.86663 68.2222 3.84627 68.0085C3.78568 67.3782 3.80186 66.5435 3.79584 66.4399C3.71524 65.1814 3.57119 62.8491 3.59162 61.5371C3.59396 61.3557 3.65657 61.3767 3.65804 61.3448C3.66749 61.1392 3.59485 61.012 3.5906 60.816C3.58258 60.433 3.58233 59.97 3.58716 59.4835C3.59534 58.6306 3.62038 57.7161 3.6345 57.0442C3.6369 56.9223 3.60616 56.6668 3.61233 56.4484C3.6495 55.2105 3.69816 55.6146 3.70112 55.544C3.70987 55.3779 3.65657 55.084 3.66361 54.6431C3.67773 53.5153 3.76888 51.3245 3.84134 50.1076C3.89435 49.1921 3.96102 49.2121 3.96539 49.1519C3.97533 49.0244 3.94363 48.6657 3.97704 48.0691C4.04392 46.91 4.08816 47.0447 4.12094 46.5701C4.12412 46.5303 4.06844 46.5949 4.10472 46.0694C4.17044 45.0627 4.43336 42.7787 4.55495 41.6922C4.60037 41.2734 4.56478 41.1702 4.61351 40.7439C4.68765 40.0743 4.93605 38.5463 4.95352 38.4284C4.95805 38.3948 4.91527 38.3118 4.9423 38.1142C4.97206 37.897 5.02893 37.688 5.05152 37.527C5.17791 36.6051 5.34034 34.9966 5.45602 35.4699C5.45658 35.1684 5.45821 34.8682 5.46098 34.5688C5.79276 32.6269 6.12638 30.7751 6.53116 28.8782C6.6225 28.4511 6.73556 28.1061 6.81537 27.7516C6.88935 27.4051 7.22247 25.7965 7.28929 25.5453C7.39532 25.0762 8.12025 22.4394 8.23557 22.1077C8.43487 21.467 8.691 20.8977 8.76439 20.6234C8.82085 20.4113 8.71954 20.5906 8.83784 20.1907C9.04025 19.4997 9.48973 18.3797 9.56753 18.1688C9.59961 18.0821 9.50825 18.2295 9.80918 17.4164C9.97056 16.9846 10.0977 16.7553 10.1602 16.5953C10.1803 16.5474 10.0965 16.5926 10.4533 15.7377C10.6988 15.1564 10.852 14.9156 10.8784 14.8537C10.9192 14.7603 10.9757 14.5149 11.1429 14.1476C11.5225 13.2959 12.342 11.762 12.7876 10.9858C12.8735 10.8354 12.7898 10.8649 13.1411 10.2696C13.398 9.8412 13.3901 9.94072 13.487 9.7836C13.643 9.53404 13.8153 9.15357 14.1844 8.60905C14.4076 8.2775 15.3828 6.87827 16.5088 5.74279C17.6193 4.57905 18.9055 3.77378 19.0276 3.71769C19.1936 3.62534 19.3967 3.5117 19.4918 3.48561C19.4286 3.54367 19.3659 3.60277 19.3038 3.66291C18.5428 4.03712 18.8798 3.93973 18.6925 4.0664C18.4063 4.24751 17.4191 5.04097 17.2239 5.27114C17.1494 5.35248 17.3605 5.20721 16.953 5.63749C16.509 6.11815 16.282 6.26048 16.1907 6.53074C15.4859 7.1494 15.0783 7.91924 15.7501 7.11994C15.9427 6.90036 16.9648 5.65127 18.2327 4.68369C19.4859 3.67739 20.985 3.15064 21.4926 3.06189C21.8464 2.98018 22.3345 2.89606 22.8667 2.88724C23.5712 2.86872 24.3371 3.00347 24.9098 3.19906C25.5133 3.35135 26.8968 4.15369 26.8015 4.18386C27.2827 4.50892 26.8012 4.12514 26.9065 4.18573C27.1434 4.27573 28.561 5.47289 28.8021 5.75352C30.0745 6.96121 31.4906 8.80606 32.3447 10.3692C32.2901 10.3059 32.2354 10.2432 32.1807 10.1811C31.955 9.83329 30.9609 8.3047 30.7643 8.18079C32.3557 10.3311 33.6463 12.7632 34.7588 15.2815C34.807 15.1945 36.0987 18.3785 36.1093 18.5443C36.0636 18.4965 36.018 18.449 35.9723 18.4016C35.3739 16.5584 35.3048 16.7716 34.8645 15.5533C34.6559 15.0733 34.6765 15.232 34.5632 14.9983C33.4018 12.6987 34.6415 14.9095 33.7499 13.1598C33.9548 13.715 33.2186 12.2881 32.8527 11.6643C32.7886 11.5198 31.6997 9.66904 31.5497 9.47813C30.784 8.28157 29.2534 6.43645 28.2681 5.54021C27.4864 4.84031 26.9982 4.546 26.2154 4.10674C25.6098 3.7916 25.8033 3.86179 25.5135 3.72583C24.9087 3.46809 24.6789 3.5238 24.3213 3.27727C23.8967 3.19644 23.4697 3.16077 23.0483 3.17155C23.0491 3.14788 23.0498 3.12421 23.0505 3.10053C22.9893 3.09928 22.928 3.09897 22.8667 3.09962C22.6593 3.1018 22.4532 3.11482 22.2478 3.13853C22.172 3.17117 22.0971 3.20533 22.0234 3.2409C21.1899 3.36516 21.5206 3.25514 21.3478 3.22204C21.1615 3.26666 20.9831 3.31755 20.8012 3.37747C20.6792 3.47661 20.5601 3.57979 20.4437 3.68688C19.6735 4.01184 18.9071 4.49944 18.2145 5.06471C18.1537 5.08304 18.0926 5.10213 18.0312 5.12198C18.0454 5.14207 18.0595 5.16215 18.0737 5.18222C16.8982 6.18654 15.8637 7.4371 14.9422 8.78939C14.7153 9.15264 16.2677 7.08107 16.428 6.96069C17.089 6.08039 19.2053 4.32463 19.28 4.46366C19.747 4.01793 21.4241 3.34445 21.962 3.39581C21.169 3.52752 20.3953 3.82312 19.6397 4.25947C19.6786 4.27021 19.7173 4.28125 19.7556 4.29258C18.787 4.74672 18.6391 4.86719 17.8404 5.72324C17.8133 5.69476 17.7861 5.66628 17.759 5.6378C17.2432 6.27312 16.0982 7.26479 16.2063 7.41631C15.9184 7.74908 15.6235 8.11469 15.3457 8.4806C14.8318 9.31787 15.6757 8.0416 13.6502 11.3921C13.5167 11.6286 13.5043 11.5552 13.312 11.9229C13.2544 12.0386 12.9945 12.6444 12.426 13.8451C12.3367 14.035 12.2976 14.0257 12.2056 14.2158C11.9932 14.6479 11.6752 15.5959 11.7354 15.1294C10.9447 16.9193 11.3622 16.2112 11.1731 16.7926C11.0513 17.1831 11.0086 17.0816 10.8996 17.4173C10.7712 17.8315 10.9455 17.537 10.3294 19.1864C10.3892 18.9964 10.4495 18.8077 10.5103 18.6205C10.4574 18.7065 10.4045 18.7929 10.3517 18.8798C10.0718 19.8441 10.0393 19.7206 10.0042 20.2071C9.72776 20.8834 9.53513 21.4784 9.26449 22.4334C8.74782 24.3157 9.1434 23.3609 8.40835 25.4717C8.34582 25.8205 8.2848 26.1722 8.22529 26.5266C8.03669 27.0885 8.08186 26.6042 7.86673 27.467C8.14856 26.8264 7.68896 28.6177 7.74257 28.9531C7.7082 28.9791 7.67382 29.0052 7.63944 29.0313C7.59817 29.2242 7.55731 29.4179 7.51684 29.6124C7.53884 29.6178 7.56084 29.6232 7.58285 29.6287C7.51201 29.8862 7.44396 30.1352 7.37629 30.3866C7.35999 30.5829 7.34415 30.7798 7.32879 30.9774C7.22043 31.2852 7.11282 31.5954 7.00597 31.9078C6.96525 32.1088 6.9245 32.3129 6.88587 32.5088C6.9308 32.4524 6.97573 32.3961 7.02065 32.3399C6.96327 32.5921 6.90649 32.8455 6.85032 33.1001C6.95842 32.8127 6.98831 33.0091 6.85061 33.8127C6.7396 34.4766 6.74204 33.7117 6.56237 35.1469C6.55139 35.248 6.60236 35.4293 6.41874 36.79C6.20662 38.42 6.25772 37.6173 6.21529 37.907C6.20727 37.9635 6.18396 38.4636 6.13148 38.9313C6.10158 39.1966 6.03558 39.4483 6.03137 39.4835C6.01299 39.6479 6.05622 39.7032 6.03108 39.9303C5.96787 40.4986 5.85807 41.2651 5.80178 41.8317C5.77597 42.0891 5.78107 42.3353 5.76994 42.4507C5.75239 42.6299 5.68561 42.8457 5.66866 43.0247C5.60541 43.6829 5.67065 44.707 5.43484 44.9985C5.57514 45.6545 5.24495 46.9653 5.38347 46.8804C5.19414 48.5885 5.18406 53.1487 4.97252 53.0108C5.13968 53.9946 5.00318 53.8958 4.99673 54.302C4.99081 54.7548 5.03335 54.5213 5.02516 54.8816C5.00678 55.722 4.98258 56.5372 4.98027 57.3691C4.94878 57.2373 4.9175 57.1056 4.88643 56.9739C4.87355 57.852 4.94738 57.55 4.96445 58.4492C4.97695 59.0532 4.97885 59.3454 4.96995 59.4835C4.95477 59.7242 4.90877 59.4984 4.8572 59.6544C4.93489 59.5903 4.95573 61.5424 4.95286 61.738C4.94972 61.8561 4.82936 61.3405 4.89605 62.5297C4.92666 62.4634 4.95729 62.3972 4.98795 62.332C4.95686 62.8794 5.0681 64.3558 5.06936 64.6036C5.06925 64.7187 4.83012 65.3372 5.06889 65.8974C5.03938 65.9668 5.00988 66.0363 4.9804 66.1058C5.05218 66.731 5.12785 67.3525 5.20733 67.97C5.15384 68.0722 5.10034 68.1738 5.04701 68.2781C5.05997 68.4776 5.07329 68.6768 5.08697 68.8756C5.13116 68.7405 5.17544 68.6054 5.2198 68.4703C5.27614 69.7046 5.48427 71.1692 5.32624 71.4436C5.38245 71.7038 5.4394 71.9632 5.49707 72.2216C5.4522 72.3965 5.40749 72.5713 5.36294 72.7461C5.49402 73.9464 5.53934 73.9689 5.69292 74.7889C5.64179 74.7613 5.59068 74.7337 5.53959 74.706C5.67193 75.3132 5.86059 76.3999 5.98261 77.285C6.0392 77.7024 6.06828 78.4217 6.08783 78.518C6.10618 78.614 6.50508 79.5539 6.29519 79.6914C6.60635 81.1147 6.6076 81.7409 6.70658 82.3288C6.77128 82.7058 6.85518 82.8686 6.93443 83.2897C7.04754 83.889 7.13346 84.5041 7.20356 84.8549C7.24366 85.0548 7.30458 85.0823 7.3326 85.2195C7.46638 85.8661 7.33706 85.4979 7.4755 86.1761C7.48837 86.2371 7.65391 86.7231 7.76502 87.2903C7.8262 87.6074 7.92848 88.4289 7.94485 88.4986C8.01747 88.814 8.10391 88.5218 8.18465 89.6489C8.20558 89.6111 8.2265 89.5734 8.24743 89.5356C8.63484 90.8578 8.56371 91.0762 8.62277 91.3541C8.63072 91.389 8.76249 91.7032 8.80607 91.8982C8.87944 92.2279 8.84736 92.3751 8.8634 92.4478C8.9199 92.7055 9.17718 93.5375 9.27435 94.1191C9.42933 93.9593 10.063 95.8508 9.99106 96.3498C10.1414 96.6774 10.2931 97.0003 10.446 97.3186C10.4597 97.4783 10.4763 97.6455 10.4928 97.811C10.56 97.893 10.6273 97.9746 10.6946 98.0556C10.7861 98.5743 10.8784 99.0797 10.9777 99.589C11.0673 99.5925 11.1568 99.5959 11.2464 99.5991C11.2883 99.7392 11.3304 99.8786 11.3728 100.017C11.3509 100.146 11.3291 100.274 11.3076 100.402C11.3839 100.566 11.4606 100.728 11.5376 100.889C11.5985 100.913 11.6593 100.937 11.7202 100.96C12.1303 101.82 11.514 101.573 12.6086 103.072C12.6911 103.35 12.7746 103.625 12.859 103.897C13.163 104.11 13.3121 104.681 13.5523 105.109C13.7188 105.404 13.7766 105.356 13.9881 105.754C14.1989 106.147 14.1334 106.171 14.1491 106.202C14.3263 106.536 14.5189 106.748 14.6419 106.986C14.6605 107.021 14.6369 107.152 14.8043 107.443C14.9785 107.744 15.1666 107.88 15.4225 108.309C15.555 108.529 15.531 108.623 15.6551 108.819C16.2497 109.76 17.1809 110.342 17.3653 111.2C17.522 111.309 18.5259 112.063 18.8876 112.363C19.4757 112.87 19.1898 112.742 19.4173 112.936C19.4467 112.957 19.655 113.092 20.1549 113.396C20.2437 113.449 20.2479 113.394 20.261 113.401C20.856 113.772 21.9479 114.172 22.5473 114.18C22.579 114.182 22.6896 114.143 22.8667 114.137C22.9958 114.133 23.1575 114.146 23.3692 114.197C24.0256 114.019 25.5601 113.687 26.4206 112.67C26.5506 112.558 26.7474 112.455 26.8068 112.399C27.288 111.92 27.0257 112.034 28.2647 110.968C28.1165 111.019 28.3195 110.678 28.6567 110.25C29.1697 109.583 28.9375 110.147 29.3235 109.59C29.2893 109.565 29.2552 109.541 29.2211 109.516C30.2085 108.272 30.2291 107.877 31.0078 106.451C31.296 105.916 31.7604 105.182 31.8248 105.046C31.8486 104.998 32.0431 104.341 32.0643 104.289C32.2064 103.971 32.3311 103.808 32.455 103.525C32.8765 102.569 33.1793 101.402 33.3313 101.693C33.3862 101.41 33.4438 101.113 33.4906 100.838C34.1079 99.9409 34.0297 99.0236 34.341 98.908C34.3516 98.7093 34.3615 98.5095 34.3708 98.3089C35.8342 93.9019 36.8971 89.3138 37.7015 84.66C37.6528 84.4513 37.9967 82.436 38.0223 82.3273C38.1529 81.8541 38.2699 82.3936 38.366 81.399C38.2981 81.2789 38.2299 81.1587 38.1615 81.0386C38.2982 79.8055 38.3018 80.408 38.4216 79.928C38.4372 79.7218 38.3642 79.7793 38.394 79.501C38.5616 78.0008 38.8695 74.9223 38.9852 73.2647C39.0097 72.9341 39.0677 72.9892 39.0757 72.8863C39.0967 72.6033 39.0593 72.0372 39.0967 71.4641C39.3395 67.9808 39.5137 63.0395 39.5302 59.4835C39.5306 59.4406 39.5309 59.3979 39.5312 59.3554C39.5331 59.1133 39.6099 59.0831 39.6115 58.9196C39.6137 58.693 39.5426 58.1875 39.5442 57.9494C39.5456 57.7251 39.6014 57.5806 39.6027 57.3405C39.6102 56.2408 39.4587 54.7683 39.5779 53.5882C39.589 53.4895 39.8421 52.245 39.8604 52.2158C39.9741 52.0459 40.2293 53.1358 40.3085 51.3234C40.5542 52.9279 40.8124 52.4149 40.8209 50.3052C40.9231 51.3568 41.0143 52.4101 41.0947 53.4648C41.1276 53.4651 41.1605 53.4654 41.1934 53.4657C41.3143 52.4977 41.3237 51.5392 41.2465 50.0757C41.28 50.1195 41.3135 50.1634 41.347 50.2072C41.5823 51.4913 41.6844 53.053 41.9271 54.0341C42.0264 52.5793 42.1077 51.1214 42.1702 49.6604C42.199 49.7314 42.2277 49.8025 42.2564 49.8735C42.3644 50.5658 42.4803 52.0866 42.5619 52.6637C42.8778 54.8693 42.6415 50.7183 42.8042 51.3938C42.9184 53.734 42.9809 56.0767 42.9939 58.4198C43.1487 58.5039 43.1158 49.4756 43.3676 49.5464C43.4327 50.2833 43.4925 51.0206 43.5471 51.7588C43.6084 51.4257 43.6688 51.0924 43.7284 50.7585C43.7574 50.848 43.7863 50.9376 43.8152 51.0274C43.9374 52.273 44.0445 53.5211 44.1366 54.7704C43.9693 50.9681 43.8724 49.2065 44.4256 48.2508C44.4479 48.3531 44.47 48.4554 44.4921 48.5579C44.1751 49.4095 44.4952 53.294 44.6003 55.3671C44.7036 54.9418 44.5646 53.1181 44.6136 52.7301C44.6286 52.6199 44.7192 52.9982 44.749 52.7432C44.8333 52.0769 44.821 49.2435 44.9656 49.6463C45.0767 49.9045 45.3699 54.4579 45.3607 55.3483C45.4634 53.2595 45.4228 51.108 45.4776 49.0029C45.7975 50.3088 46.1612 51.4689 46.2406 53.8918C46.401 54.6278 46.3944 49.4852 46.4391 49.3599C46.5617 50.2448 46.6764 51.131 46.7834 52.0186C46.7364 51.2659 46.6841 50.5136 46.6264 49.7616C46.6515 49.7579 46.6766 49.7542 46.7017 49.7505C46.9147 51.695 47.1873 53.4765 47.2021 55.7156C47.3338 55.6408 47.3004 54.3004 47.2839 53.6502ZM28.7506 6.19166C28.7457 6.25411 28.2317 5.7351 27.9307 5.48058C27.9695 5.52623 28.0083 5.57234 28.047 5.61889C27.4252 5.00915 26.1356 4.17683 26.0369 4.26185C25.5289 4.00856 25.7904 4.05191 25.6319 3.96253C25.5669 3.92346 24.8832 3.67198 24.354 3.48763C24.2235 3.45555 24.0935 3.42801 23.9636 3.40495C23.9323 3.43268 23.9011 3.46063 23.8704 3.48886C23.698 3.41993 23.5226 3.35884 23.343 3.30599C25.2577 3.41942 27.1618 4.59232 28.7482 6.18928C28.749 6.19007 28.7498 6.19086 28.7506 6.19166ZM12.7032 13.0188C12.2939 13.796 11.7358 14.9923 11.9342 14.7902C12.1503 14.2843 12.3696 13.7925 12.6068 13.2878C12.6388 13.1977 12.6709 13.108 12.7032 13.0188ZM10.8155 99.5375C10.9394 100.286 11.281 100.849 11.6865 101.904C11.7139 101.891 11.7414 101.879 11.7689 101.866C11.5179 101.454 11.1298 100.344 10.8155 99.5375ZM38.3433 25.4468C38.3806 25.6077 38.4178 25.7692 38.4546 25.9313C38.1996 25.3005 38.2261 25.1708 38.0151 24.449C38.0021 24.4049 37.9877 24.4254 37.9832 24.41C37.9311 24.2307 37.9062 24.0592 37.8594 23.8985C37.7681 23.5871 37.6743 23.3496 37.5081 22.799C37.3792 22.3749 37.4137 22.3612 37.3668 22.2136C37.3293 22.09 36.8314 20.8716 36.598 20.0675C36.197 18.5153 38.2892 24.9483 38.3433 25.4468ZM39.4067 30.0888C39.3721 29.9331 39.3372 29.7779 39.302 29.6232C39.4595 30.075 39.2453 29.146 39.0783 28.4492C39.1382 28.462 39.4512 29.9185 39.606 30.58C39.5399 30.4155 39.4735 30.2518 39.4067 30.0888ZM32.9113 11.2758C33.2126 11.8021 33.0966 11.7529 33.065 11.74C32.9714 11.5692 32.8775 11.4008 32.7831 11.2346C32.8258 11.2482 32.8686 11.2619 32.9113 11.2758ZM34.9753 15.3981C34.8553 15.2374 34.2888 14.0326 34.0027 13.4682C33.9905 13.444 34.0914 13.5851 33.8938 13.1904C33.837 13.0653 33.1409 11.949 33.376 12.153C33.9501 13.2079 34.4774 14.286 34.9746 15.3964C34.9748 15.397 34.9751 15.3975 34.9753 15.3981ZM35.4724 16.6542C35.3651 16.4317 35.2506 16.1959 35.1387 15.971C35.1093 15.8421 35.0797 15.7138 35.05 15.5859C35.168 15.8452 35.2852 16.108 35.4014 16.3744C35.4261 16.4698 35.4491 16.5614 35.4724 16.6542ZM39.372 82.181C39.3095 82.2312 39.2471 82.2813 39.1847 82.3312C39.1196 82.5533 39.1835 83.6807 39.2822 83.3431C39.3137 82.9578 39.3436 82.5704 39.372 82.181ZM40.0854 77.56C40.1388 77.3338 40.1917 77.1068 40.2441 76.8789C40.1795 76.6021 40.1136 76.3272 40.0464 76.0564C39.8693 77.1952 39.6539 78.4039 39.9502 78.2405C39.9197 78.5013 39.8886 78.7612 39.8568 79.0203C39.7702 78.7895 39.7318 78.8056 39.574 79.4875C39.7116 79.6588 39.542 80.3597 39.4646 81.1661C39.5548 80.5841 39.6417 79.9971 39.7253 79.4051C39.7529 79.4088 39.7805 79.4124 39.8081 79.4161C39.6282 80.7373 40.0194 79.1091 40.0059 78.2511C40.0506 78.1884 40.0954 78.1256 40.1402 78.0627C40.1222 77.8953 40.104 77.7278 40.0854 77.56ZM4.68208 73.9811C4.67808 74.1484 4.6743 74.3155 4.67075 74.4823C5.00385 75.097 4.61335 73.8124 4.74065 72.882C4.60832 73.2005 4.48903 71.794 4.47315 71.7121C4.43336 71.8789 4.39372 72.0457 4.35424 72.2123C4.45991 72.8063 4.5687 73.3903 4.68208 73.9811ZM5.03388 78.6489C5.08934 78.0608 5.47827 80.8572 5.6008 81.7746C5.62916 82.0044 5.61956 82.4217 5.65576 82.5837C5.69955 82.6787 5.74346 82.7735 5.78749 82.868C5.70897 83.0029 6.12665 84.788 6.31768 85.4939C6.2953 85.5671 6.27295 85.6404 6.25062 85.7136C6.31364 85.9696 6.37736 86.2243 6.44177 86.4777C6.40048 86.4522 6.35919 86.4266 6.31793 86.401C6.39806 86.5875 6.47814 86.7708 6.56041 86.962C6.76458 87.7255 6.47621 87.2878 6.65573 87.8534C6.85658 88.4792 6.7498 87.4085 6.82846 87.4123C6.69835 86.8872 6.42691 85.73 6.32695 85.1963C6.27066 84.8926 6.46025 85.2107 6.07606 83.9265C6.06129 83.6352 6.04727 83.3429 6.03398 83.0494C5.88946 82.5323 5.74628 81.9989 5.60941 81.4824C5.64265 81.3771 5.67593 81.2718 5.70928 81.1665C5.70695 81.1112 5.4164 79.8991 5.39074 79.9681C5.41043 79.4497 5.286 78.4369 5.15699 77.3528C5.11806 77.2516 5.07926 77.1501 5.04059 77.0484C5.22585 78.091 5.05408 77.3855 5.043 77.7038C5.03663 77.8875 5.05074 78.4433 5.03388 78.6489ZM38.2287 89.3749C38.4334 87.6255 38.3433 88.7281 38.7054 86.853C38.6002 86.9689 38.4948 87.0842 38.3895 87.199C38.3634 88.1505 37.9522 89.6152 38.2283 89.3767C38.2285 89.3761 38.2286 89.3755 38.2287 89.3749ZM40.4142 70.9211C40.3979 71.9344 40.5678 71.4409 40.5143 72.718C40.5143 72.7186 40.5142 72.7192 40.5142 72.7198C40.5747 72.0648 40.6317 71.398 40.6837 70.7411C40.5939 70.8013 40.504 70.8613 40.4142 70.9211ZM18.447 113.478C17.8126 112.907 17.9186 113.072 17.4266 112.441C16.5236 111.699 17.2171 112.395 17.1292 112.478C17.3436 112.647 17.5674 112.815 17.7841 112.965C18.1758 113.471 17.6921 113.116 17.6835 113.121C17.6839 113.122 17.6843 113.122 17.6847 113.122C17.6596 113.149 17.6388 113.142 17.8064 113.322C18.0137 113.375 18.2364 113.435 18.447 113.478ZM15.7559 110.892C16.0126 111.086 16.1771 111.139 15.7186 110.456C15.7182 110.456 15.7179 110.455 15.7175 110.455C15.5307 110.509 15.1959 109.806 14.9814 109.505C14.9114 109.437 14.8414 109.368 14.7714 109.298C15.0948 109.861 15.3988 110.361 15.7559 110.892ZM9.35306 98.289C9.53155 98.2269 9.78166 98.914 9.61925 97.8835C9.55271 97.6938 9.49021 97.5142 9.42629 97.3278C9.34723 97.2178 9.26834 97.1071 9.18963 96.9957C8.77894 94.4853 7.97964 93.9402 9.46988 97.9319C9.47019 97.9324 9.47051 97.933 9.47083 97.9335C9.43144 98.052 9.39219 98.1705 9.35306 98.289ZM10.9097 102.429C11.0152 102.42 11.1208 102.412 11.2263 102.403C11.2124 103.001 11.702 103.565 11.9989 104.607C12.0679 104.682 12.1369 104.755 12.2059 104.828C12.2801 105.256 14.1444 108.671 13.8779 107.846C13.7557 107.508 13.2833 106.85 13.2519 106.784C13.1423 106.565 13.0835 106.269 12.8984 105.92C12.7927 105.722 12.4775 105.325 12.2756 104.903C11.822 103.971 11.3 102.084 10.5706 100.883C10.563 100.779 10.5556 100.674 10.5482 100.57C10.1661 99.5991 10.1948 99.9529 9.98154 99.0139C9.28845 98.55 11.3571 102.625 10.6701 101.882C10.6703 101.883 10.6705 101.883 10.6707 101.884C10.7499 102.067 10.8296 102.249 10.9097 102.429ZM28.7791 112.135C28.8899 112.167 29.5101 111.203 29.5116 111.553C29.6795 111.223 29.8436 110.881 30.0039 110.529C29.9852 110.518 29.9665 110.508 29.9478 110.498C29.739 110.81 29.5288 111.109 29.3173 111.393C29.2906 111.373 29.2639 111.353 29.2372 111.332C29.003 111.877 27.4184 113.368 27.3766 113.201C27.3221 113.314 27.2666 113.426 27.2101 113.536C26.3559 114.054 25.7082 114.633 24.7465 114.857C24.6899 114.921 24.6321 114.984 24.5731 115.046C24.5167 115.03 24.4611 115.013 24.4063 114.996C24.0694 115.093 23.737 115.158 23.4011 115.191C22.8594 115.3 23.1128 115.368 23.5636 115.37C24.0094 115.376 24.6457 115.222 24.7724 115.161C24.8068 115.145 24.7736 115.07 24.9865 114.972C25.3707 114.898 27.5072 113.605 28.026 112.916C28.0704 112.953 28.1148 112.989 28.1593 113.026C28.3754 112.738 28.5876 112.433 28.7791 112.135ZM7.94241 92.8425C7.97517 92.7657 8.00796 92.6888 8.04079 92.612C7.70044 91.5089 7.57926 90.7953 7.48372 91.1197C7.48386 91.1203 7.484 91.1209 7.48414 91.1214C7.62933 91.6869 7.78604 92.2772 7.94241 92.8425ZM14.2945 9.0482C14.2167 9.03952 13.9035 9.46187 13.5875 10.0882C13.6224 10.0699 13.6573 10.0517 13.6921 10.0337C13.8315 9.69285 14.1416 9.36103 14.7619 8.43945C14.7332 8.41908 14.7045 8.39872 14.6758 8.37835C14.5475 8.59671 14.4204 8.82002 14.2945 9.0482ZM8.17645 93.7994C8.21081 94.16 8.65811 95.0549 8.48988 94.4306C8.36161 93.9526 8.15775 93.607 8.17645 93.7994ZM40.7502 66.977C40.7258 67.2363 40.7009 67.495 40.6753 67.7531C40.7264 67.8908 40.7773 68.0286 40.828 68.1663C40.828 68.1657 40.828 68.1651 40.8281 68.1645C40.8037 67.7697 40.7778 67.3738 40.7502 66.977ZM20.7627 114.846C20.1258 114.609 19.4971 114.263 18.8799 113.824C18.8556 113.844 18.8312 113.865 18.8068 113.885C19.4924 114.238 19.6683 114.454 19.8199 114.551C19.8192 114.551 19.8186 114.55 19.8179 114.55C20.2877 114.835 20.742 115.044 21.1967 115.217C21.0476 115.1 20.9033 114.976 20.7627 114.846ZM22.9531 115.44C22.928 115.393 22.9021 115.354 22.8667 115.324C22.7361 115.208 22.5001 115.262 21.6983 115.234C21.7321 115.269 21.7664 115.303 21.8012 115.338C22.3284 115.417 22.6367 115.358 22.5379 115.473C22.6479 115.469 22.7574 115.461 22.8667 115.45C22.8955 115.447 22.9244 115.444 22.9531 115.44ZM13.9859 108.232C14.0085 108.414 14.726 109.409 14.7197 109.327C14.714 109.313 13.9391 107.909 13.9859 108.232ZM20.9608 3.06573C20.7138 3.13371 20.4657 3.21658 20.2166 3.31466C20.5382 3.15899 20.8567 3.03018 21.1869 2.92437C21.1092 2.97047 21.0343 3.01751 20.9608 3.06573ZM23.7566 2.62994C23.9355 2.68081 23.3355 2.67243 24.4067 2.91477C23.8993 2.79536 23.3829 2.73659 22.8667 2.74228C22.5893 2.74526 22.3142 2.7665 22.0402 2.80571C22.3125 2.75338 22.5876 2.71885 22.8667 2.70278C22.9626 2.69725 23.0586 2.69391 23.1546 2.69276C23.0908 2.65685 23.0259 2.62185 22.9599 2.58782C23.226 2.58543 23.4914 2.59951 23.7566 2.62994ZM24.5965 2.88325C24.3945 2.78901 24.8568 2.86392 25.3877 3.05949C25.9173 3.24698 26.4953 3.57147 26.5894 3.63455C26.6313 3.66091 26.8004 3.83861 26.867 3.89804C26.5606 3.7052 26.2405 3.5274 25.9219 3.37561C26.0194 3.44512 26.1162 3.51696 26.2124 3.59113C25.8418 3.40342 25.4586 3.24236 25.0717 3.11641C25.2451 3.1542 25.4138 3.19687 25.5855 3.24703C25.2644 3.10298 24.9303 2.97924 24.5965 2.88325ZM16.292 6.25075C16.5028 6.0212 16.7202 5.79621 16.9489 5.57376C16.88 5.59333 16.8107 5.61367 16.7412 5.63478C16.6044 5.77296 16.4751 5.90845 16.3487 6.04499C16.3295 6.11336 16.3106 6.18194 16.292 6.25075ZM21.3491 2.83019C20.9839 3.0759 19.7749 3.13971 21.1103 2.83058C21.2475 2.80547 21.3846 2.80559 21.3491 2.83019ZM27.3453 4.14027C28.1956 4.63063 27.867 4.67875 27.1763 4.10052C27.1415 4.07212 27.2815 4.10537 27.3453 4.14027ZM32.267 9.68318C32.3089 9.75438 32.3277 9.91487 32.7889 10.5514C32.8473 10.6682 32.9056 10.7861 32.9636 10.905C32.7991 10.6333 31.3863 8.47735 31.6334 8.7376C31.8603 9.06807 32.0489 9.33244 32.267 9.68318ZM31.0763 7.45221C30.8401 7.14548 30.5896 6.83643 30.3408 6.54663C30.4053 6.6608 30.4657 6.77186 30.5276 6.88622C30.4022 6.74361 30.2769 6.60497 30.1448 6.46257C29.9612 6.18562 29.7825 5.92534 29.5829 5.65522C30.1697 6.25684 30.7195 6.90689 31.2335 7.58255C31.1811 7.53861 31.1287 7.49517 31.0763 7.45221ZM22.8898 2.21887C23.5911 2.2535 24.4686 2.31421 25.5521 2.74606C25.5526 2.74634 25.5531 2.74663 25.5536 2.74691C25.6071 2.76876 25.6885 2.83828 25.8592 2.91541C25.9364 2.94668 26.6866 3.28202 27.3436 3.7326C27.9981 4.16809 28.5549 4.67287 28.4414 4.61123C27.4541 3.85194 27.0838 3.574 26.7704 3.53039C26.7342 3.47666 26.6978 3.42338 26.6605 3.37015C25.6524 2.76308 25.2805 2.76995 24.6654 2.62481C24.6734 2.60504 24.6815 2.58528 24.6895 2.56552C24.2745 2.45149 23.8541 2.37542 23.43 2.33957C23.4886 2.35831 23.5468 2.3778 23.6046 2.39802C23.4558 2.38224 23.3065 2.37142 23.157 2.36564C23.061 2.34503 22.9571 2.32999 22.8667 2.31865C22.6217 2.29008 22.476 2.27409 22.8667 2.22152C22.8742 2.22063 22.8819 2.21975 22.8898 2.21887ZM32.076 8.9205C32.434 9.11128 34.1439 12.2394 34.8224 13.7286C34.3818 12.9877 33.8403 11.7833 33.3824 10.9716C32.4858 9.41082 33.0591 10.5168 32.8857 10.2647C32.8047 10.145 32.35 9.2203 32.076 8.9205ZM20.3735 2.72091C21.1576 2.44891 21.621 2.31527 22.3366 2.30578C22.278 2.32258 22.2198 2.34016 22.1619 2.35851C22.0391 2.36368 21.4896 2.42758 21.0206 2.55118C20.5595 2.66668 20.1802 2.81204 20.3735 2.72091ZM35.7513 15.9321C35.124 14.3172 35.3331 15.148 35.0581 14.2852C35.3096 14.8243 35.5519 15.3685 35.7861 15.9178C35.7745 15.9226 35.7629 15.9273 35.7513 15.9321ZM7.80224 95.9635C8.00549 96.6755 8.20694 97.4753 8.43162 97.8561C8.29496 97.3834 8.16095 96.9037 8.02965 96.4173C7.95355 96.267 7.87586 96.1093 7.80224 95.9635ZM3.03373 75.4548C3.02924 75.626 3.1615 76.2828 3.16939 76.352C3.18338 76.4814 3.14873 76.4494 3.14087 76.4521C3.24012 77.3029 3.24857 76.5052 3.34066 77.137C3.35505 77.2468 3.48343 78.736 3.56664 79.3288C3.69319 80.2615 3.81915 81.1835 3.87119 81.5252C3.95649 82.094 4.1986 83.1874 4.36142 84.1282C4.42839 84.5168 4.39329 84.6649 4.46442 85.0633C4.88943 87.5967 6.0697 92.537 6.66371 94.7342C6.80398 95.2842 6.87264 95.8195 6.96123 96.1004C7.05354 96.3117 7.15107 96.5371 7.24746 96.7547C7.20083 97.53 7.50039 97.6912 7.75993 98.4152C7.93026 98.8887 7.92863 99.1328 7.94993 99.1965C8.09238 99.6155 8.19917 99.807 8.31811 100.128C8.44854 100.48 8.61236 101.037 8.66586 101.162C8.70138 101.237 8.69973 100.959 9.23534 102.348C9.80244 103.795 10.3866 105.166 11.0826 106.577C11.1467 105.963 10.7478 105.656 10.4754 105.09C10.4019 104.937 10.4941 105.013 10.4308 104.879C10.2505 104.5 9.88229 103.776 9.7642 103.457C9.63343 103.107 9.79317 103.181 9.5726 102.755C9.56142 102.733 9.54403 102.823 9.49421 102.722C8.9999 101.697 8.95196 101.337 8.47672 99.9901C8.11188 99.1189 6.45752 93.6337 6.48007 93.428C6.3527 92.3958 7.97781 98.2096 8.24247 98.8584C8.31656 99.0951 8.18284 98.8657 8.2448 99.0831C8.27325 99.1813 8.63634 99.9374 8.93976 100.74C9.29368 101.702 9.98799 103.623 10.3965 104.513C12.9557 109.978 16.5452 116.636 22.8667 116.977C24.7952 116.992 26.6623 116.137 28.1948 114.908C28.3265 114.802 28.4803 114.597 28.8885 114.225C36.4046 106.491 39.0584 94.7783 40.9735 84.0994C41.3596 81.7291 41.6102 79.3667 41.9356 76.9625C41.9132 76.653 41.8887 76.3532 41.8634 76.0498C41.8315 76.8082 41.5397 78.2085 41.522 78.3295C41.5159 78.3749 41.5443 78.6713 41.4825 79.1324C41.3949 79.7865 41.3004 80.0706 41.2936 80.1235C41.271 80.2903 41.3433 80.189 41.3215 80.3481C41.1578 81.5294 41.0371 82.4485 40.8637 83.5316C40.6681 84.7397 40.4494 85.3607 40.4034 86.2608C40.3401 86.3523 40.2768 86.4435 40.2135 86.5345C40.2986 87.2405 39.4617 91.1605 39.0357 92.7345C38.9081 93.2308 38.8536 93.1232 38.8114 93.2893C38.7815 93.3997 38.9048 93.3642 38.5323 94.6707C38.3438 95.3215 38.2237 95.4679 38.1343 95.7905C38.0854 95.966 38.1653 95.9551 38.0912 96.2095C37.6578 97.6872 37.2542 98.8679 36.7513 100.255C36.6052 100.656 36.5462 100.638 36.5149 100.727C36.3972 101.059 36.2937 101.643 35.968 102.467C35.4576 103.812 34.2492 106.444 33.6409 107.435C33.5522 107.586 33.4214 107.679 33.3615 107.791C33.2709 107.96 33.2989 108.061 33.2829 108.091C32.9722 108.645 33.1008 108.279 32.905 108.652C32.7936 108.86 32.7415 109.118 32.4668 109.578C32.1032 110.177 32.0926 110.003 31.9359 110.26C31.9196 110.287 31.972 110.335 31.8093 110.579C31.219 111.478 30.2111 112.773 29.5009 113.486C29.2888 113.704 29.0989 113.829 28.801 114.104C28.507 114.378 27.458 115.313 26.3047 115.9C25.1602 116.52 23.9359 116.713 23.7564 116.716C23.7188 116.716 24.0963 116.575 23.4732 116.649C23.2955 116.707 23.1139 116.757 22.9283 116.8C22.9077 116.796 22.8872 116.792 22.8667 116.787C22.5765 116.727 22.2956 116.649 22.0234 116.554C22.0102 116.834 20.1952 116.404 20.313 116.15C20.129 116.07 19.95 115.983 19.7764 115.892C19.3358 115.852 19.1007 115.682 18.3641 115.305C18.2833 115.193 18.2016 115.077 18.1262 114.963C18.0819 114.97 18.0374 114.978 17.9927 114.984C17.7511 114.599 17.072 114.243 17.0149 114.188C16.7621 113.966 16.606 113.753 16.4891 113.64C16.0507 113.229 15.1393 112.282 14.735 111.696C14.7156 111.668 14.7934 111.651 14.6766 111.482C14.4639 111.172 14.3637 111.217 14.1846 110.75C14.1027 110.688 14.0207 110.625 13.9387 110.561C13.8924 110.465 13.8464 110.369 13.8006 110.271C13.4444 109.756 13.1219 109.256 12.7898 108.709C13.1892 109.14 12.9041 108.54 12.5273 108.065C12.3977 107.901 12.4229 108.097 12.3793 108.042C12.2985 107.977 11.0546 105.465 11.0412 105.273C10.9649 105.165 10.8887 105.056 10.8127 104.945C10.8268 104.865 10.841 104.786 10.8553 104.706C10.8104 104.646 10.7656 104.586 10.7208 104.525C10.4809 103.817 9.60043 102.15 9.49587 101.82C9.43818 101.646 9.67591 101.735 9.34878 100.92C9.28827 100.909 9.22777 100.899 9.16726 100.889C9.08981 100.701 9.01282 100.512 8.9363 100.321C8.8123 99.9637 8.72143 99.421 8.77469 99.3828C8.70079 99.2837 8.62703 99.184 8.5534 99.0836C8.56019 98.7365 8.00208 97.1561 7.73405 96.5122C7.71111 96.3092 7.68766 96.102 7.66802 95.9056C7.55106 95.6643 7.43486 95.4207 7.31943 95.1749C7.13832 94.5799 7.38671 95.1927 7.35677 95.0634C7.29004 94.7927 6.79753 93.4355 6.9735 93.4926C6.92479 93.3059 6.87645 93.1183 6.82851 92.9299C6.76122 92.8438 6.69404 92.7574 6.62698 92.6706C6.69208 92.3097 6.49395 91.7525 6.28124 90.5937C6.22524 90.5045 6.16936 90.4149 6.11359 90.3251C6.07979 89.9565 6.0459 89.5793 6.01606 89.2127C5.94473 89.1518 5.87347 89.0907 5.8023 89.0294C5.76109 88.8763 5.72013 88.7227 5.67943 88.5685C5.7368 88.227 5.48567 87.6817 5.47865 87.3772C5.46868 86.9329 5.62109 87.2514 5.80014 88.0357C5.87214 87.9555 5.37156 85.6257 5.27346 85.0774C5.26241 85.1166 5.25137 85.1558 5.24033 85.195C5.35491 85.7504 5.47265 86.3004 5.59347 86.8447C5.4559 87.3478 5.22691 85.8483 5.07515 85.1529C5.06173 85.093 4.90785 84.7329 4.79896 84.0429C4.75557 83.7746 4.70772 82.6963 4.68351 82.4907C4.48827 80.8424 4.49231 82.0784 4.41514 80.4567C4.34462 80.8093 4.30866 79.8669 4.16241 78.9145C4.1358 78.7553 3.86987 77.3814 3.85795 77.2853C3.77469 76.6998 3.95116 77.3254 3.82816 76.4813C3.78964 76.3835 3.75125 76.2855 3.71297 76.1873C3.69157 75.9915 3.67052 75.7952 3.64984 75.5986C3.76745 74.3806 3.56505 74.1093 3.50279 73.6897C3.47799 73.5196 3.56062 73.7343 3.50728 73.292C3.48744 73.1252 3.41851 72.9446 3.37676 72.4928C3.24892 71.0711 3.43586 70.5841 3.12169 69.2943C3.14232 69.0918 3.16324 68.8891 3.18446 68.6861C3.13664 68.5527 3.08904 68.419 3.04167 68.2851C3.10038 67.2521 3.00348 67.6286 2.98571 67.2565C2.93644 66.2711 2.88789 64.2498 2.97844 64.0725C2.73745 63.2278 2.95916 62.1957 2.94531 61.8659C2.91606 61.6676 2.88723 61.469 2.85882 61.27C2.88171 61.0355 2.90501 60.8007 2.92874 60.5657C2.75587 60.6623 2.86279 59.832 2.90666 59.4835C2.91535 59.4138 2.92137 59.3635 2.92186 59.3439C2.92234 59.2073 2.86817 57.3352 2.8829 56.6458C2.89318 55.9489 2.97794 54.738 2.98162 54.633C2.98436 54.5106 2.96315 53.3321 3.00316 52.4034C3.01689 51.5957 3.39352 46.8271 3.29886 47.1149C3.25098 47.4262 3.19732 47.8759 3.16015 48.2551C3.00408 49.4412 2.68125 56.4766 2.69899 58.2703C2.69345 58.6719 2.68978 59.0765 2.68793 59.4835C2.6724 62.7202 2.77789 66.0505 2.95918 69.2634C2.97125 69.4766 2.91755 69.5124 2.92801 69.6951C2.94384 69.9728 3.04797 70.6695 3.06693 70.94C3.13552 71.9636 3.23286 73.2047 3.28157 73.7436C3.3913 74.9666 3.44492 75.8052 3.5409 76.718C3.5706 77.0111 3.81185 78.461 3.9143 79.4507C3.92215 79.6348 3.93029 79.8186 3.93871 80.0019C3.84687 79.4813 3.62887 78.1595 3.55085 77.528C3.43299 76.5889 3.42979 76.1063 3.39242 75.7621C3.36034 75.4805 3.16017 73.9922 3.1031 73.3319C3.08446 73.1243 3.14002 73.0765 3.12455 72.8985C3.03955 71.9314 2.94291 70.6496 2.83207 69.816C2.87089 70.1623 2.77563 67.9992 2.77361 67.895C2.76351 67.7031 2.6982 67.4975 2.67943 67.1039C2.64469 66.3459 2.76099 66.4385 2.61089 65.4902C2.63495 65.2534 2.6596 65.0209 2.68456 64.7859C2.52901 64.7804 2.65527 61.8035 2.4751 60.9675C2.44455 60.9425 2.46586 64.8057 2.48532 65.1174C2.52869 67.0342 2.72283 69.8513 2.84238 71.6992C2.87457 72.2627 2.93153 74.0066 2.94796 74.1417C2.97053 74.3557 3.00642 74.1572 3.01696 74.2495C3.23942 76.1325 3.04111 75.2005 3.03373 75.4548ZM24.7283 2.3946C24.2136 2.25119 23.6876 2.16453 23.1574 2.13959C23.1969 2.11744 23.2368 2.09563 23.2771 2.0742C23.5218 2.09714 23.7643 2.13289 24.0052 2.18115C24.1946 2.19757 24.3812 2.22111 24.5697 2.25251C24.6234 2.2993 24.6763 2.34667 24.7283 2.3946ZM26.0097 2.75537C26.4443 2.94566 26.4364 3.00752 26.533 3.05951C26.8214 3.2235 27.0648 3.34725 27.3355 3.52599C26.9655 3.41206 26.3301 2.99318 26.0097 2.75537ZM17.0201 4.53648C17.1133 4.46371 17.726 4.08872 18.3385 3.5294C18.8634 3.22174 19.4226 2.95359 19.9764 2.75707C19.0133 3.08242 17.8637 3.98634 17.4878 4.31164C17.3374 4.43492 17.2826 4.42867 17.1624 4.53193C16.4943 5.10475 15.9624 5.8307 15.8059 5.80044C16.3959 5.20602 16.9194 4.61383 17.0201 4.53648ZM21.7199 2.14975C21.8606 2.15381 22.0015 2.16185 22.1408 2.17413C21.6491 2.22746 21.1579 2.33541 20.6859 2.48875C20.8051 2.42083 20.9252 2.35619 21.0517 2.29376C21.2737 2.23506 21.4964 2.18702 21.7199 2.14975ZM4.40139 36.9255C4.45077 36.5963 4.5012 36.2687 4.55267 35.9426C4.52575 35.9566 4.46776 36.3303 4.43054 36.4662C4.43064 36.4655 4.43073 36.4649 4.43082 36.4643C4.38901 36.6155 4.36783 36.5446 4.31185 36.8233C4.34167 36.8574 4.37152 36.8914 4.40139 36.9255ZM42.0722 75.6722C42.1544 75.126 42.5603 70.0309 42.3684 70.4622C42.2842 70.6685 42.2199 72.423 42.1735 72.9308C42.1189 73.6125 41.7863 75.4713 42.0722 75.6722ZM42.7474 66.6658C42.6113 66.5716 42.4256 69.7512 42.4224 70.0627C42.4473 69.9982 42.4998 69.8997 42.5158 69.8124C42.5961 69.3861 42.682 67.3493 42.7474 66.6658ZM2.59202 55.2932C2.64694 55.0368 2.7023 54.781 2.75809 54.5259C2.69312 54.5915 2.62814 54.6572 2.56315 54.7231C2.57241 54.9129 2.58204 55.103 2.59202 55.2932ZM3.99899 80.2034C4.58257 84.4543 5.35713 88.6554 6.40431 92.8206C6.28259 92.4632 6.16159 92.0989 6.04369 91.7377C5.19054 88.152 4.51221 84.2689 3.97079 80.7423C3.97994 80.5629 3.98934 80.3833 3.99899 80.2034ZM16.0106 5.19292C15.2636 5.96334 14.7084 6.692 13.9617 7.62288C14.5897 6.66809 15.0026 6.29263 15.6853 5.42622C15.6857 5.42578 15.6861 5.42534 15.6866 5.4249C15.7947 5.34549 15.8976 5.27338 16.0106 5.19292ZM6.02883 27.2304C6.06836 26.8956 6.11101 26.5559 6.15426 26.2219C6.0573 26.6106 5.95879 27.0165 5.86845 27.3986C5.92192 27.3424 5.97538 27.2863 6.02883 27.2304ZM16.7315 114.667C17.5998 115.409 20.0643 117.071 21.0593 117.039C21.1166 117.04 20.6122 116.865 21.4843 116.935C20.8375 116.834 20.3982 116.69 20.3179 116.765C20.1431 116.669 19.9685 116.565 19.8017 116.457C19.4995 116.352 19.1965 116.228 18.8932 116.085C18.9721 116.019 18.9407 116.018 18.4851 115.813C18.3045 115.672 18.1261 115.523 17.9495 115.368C17.8443 115.341 17.7476 115.32 17.6459 115.293C17.5219 115.13 17.4005 114.964 17.2816 114.794C16.6419 114.331 16.9378 114.721 16.7315 114.667ZM14.0687 111.674C14.0589 111.959 17.8072 115.685 16.2395 113.854C15.793 113.419 15.3785 112.967 14.9753 112.489C15.0615 113.083 14.2116 111.591 14.1424 111.46C13.7826 110.926 13.2303 110.226 12.9866 109.829C12.7683 109.476 12.685 109.232 12.5311 108.975C12.0176 108.134 11.284 106.715 11.0826 106.577C11.424 107.268 11.8041 107.987 12.2053 108.678C12.6425 109.418 12.9169 110.143 13.9861 111.362C14.2004 111.686 14.0453 111.633 14.0687 111.674ZM6.41064 25.2522C6.47904 25.3234 6.99602 23.3352 6.96933 23.3222C6.95041 23.3119 6.77244 23.9483 6.74017 24.0389C6.74001 24.0394 6.73985 24.04 6.73968 24.0406C6.72591 24.078 6.74642 23.8749 6.65452 24.1742C6.57079 24.5337 6.48744 24.9011 6.41064 25.2522ZM41.37 83.5872C41.534 83.3267 42.3479 77.1096 42.295 76.9056C42.2894 76.854 42.2446 76.9201 42.2255 76.8978C42.184 78.376 41.7751 80.4263 41.5616 81.7894C41.5029 82.168 41.5776 82.0668 41.5757 82.0876C41.5756 82.0885 41.5754 82.0894 41.5753 82.0903C41.543 82.3117 41.2473 83.2739 41.37 83.5872ZM23.0205 117.202C22.9692 117.199 22.9179 117.195 22.8667 117.191C22.6567 117.175 22.4489 117.149 22.2433 117.115C22.1745 117.15 22.1046 117.184 22.0337 117.216C22.0343 117.217 22.0349 117.217 22.0355 117.217C22.3131 117.231 22.5902 117.23 22.8667 117.213C22.918 117.21 22.9693 117.206 23.0205 117.202ZM30.7732 112.871C30.7077 112.903 30.6424 112.934 30.5772 112.964C30.1321 113.474 29.6737 113.949 29.1799 114.401C29.2175 114.344 29.2549 114.286 29.2921 114.228C28.5449 114.868 28.2529 115.209 27.8194 115.505C27.8199 115.505 27.8204 115.505 27.8209 115.504C27.7718 115.537 27.6793 115.529 27.5004 115.647C27.107 115.938 25.8561 116.542 25.7092 116.639C25.4585 116.96 27.9552 115.596 28.3172 115.188C28.5063 115.044 28.7651 114.896 28.8795 114.798C29.0053 114.69 29.1123 114.502 29.3965 114.234C29.4905 114.159 30.4249 113.321 30.7732 112.871ZM36.4629 102.53C36.3219 102.701 36.2209 103.129 36.1499 103.271C36.1331 103.305 36.1917 103.011 36.0403 103.334C36.0381 103.442 36.0357 103.55 36.033 103.657C36.1784 103.288 36.3216 102.912 36.4629 102.53ZM7.29567 21.9467C7.26802 21.9999 6.96025 23.0568 6.95477 23.1036C6.84736 23.7532 7.47474 21.5791 7.29567 21.9467ZM23.2911 1.58426C23.0324 1.52891 24.4473 1.52775 25.844 2.13313C27.2524 2.6973 28.5261 3.7781 28.7384 3.957C28.6886 3.97254 27.59 3.07474 28.1368 3.58517C27.6277 3.08368 25.8787 2.17677 25.4316 2.06263C25.1704 1.96339 25.1181 1.89558 25.0782 1.88104C24.9248 1.79185 23.4684 1.59184 23.2911 1.58426ZM32.0011 7.63824C31.6783 7.16651 31.3442 6.70995 30.9936 6.26732C31.4232 6.77757 31.8312 7.30946 32.2206 7.85744C32.1484 7.78468 32.0763 7.71304 32.0011 7.63824ZM32.4278 8.20685C32.4782 8.15737 33.4736 9.8029 33.7226 10.2452C33.3568 9.79449 32.9481 8.93778 32.4278 8.20685ZM9.57366 15.0625C9.19148 15.8573 9.23884 16.2913 9.56645 15.2631C9.57622 15.2319 9.59005 15.0297 9.57366 15.0625ZM16.6544 115.18C16.751 115.311 18.2686 116.533 18.4108 116.514C18.794 116.562 17.6755 115.956 17.3868 115.637C16.9207 115.14 17.7228 115.725 16.4387 114.694C16.5091 114.715 16.5792 114.735 16.6492 114.755C15.961 114.113 16.0368 114.468 15.8914 114.371C15.8441 114.341 15.4309 113.891 15.3525 113.823C14.2891 112.948 16.5022 115.136 16.6544 115.18ZM3.90391 36.2471C3.56885 37.9946 3.78013 37.2393 3.52435 39.0435C3.5632 39.1015 3.90388 36.4927 3.90391 36.2471ZM8.04852 100.311C8.68766 102.044 9.15409 103.465 9.96229 104.988C10.0176 104.819 7.89704 99.8768 8.04852 100.311ZM43.9234 62.6695C43.3766 69.7822 42.8373 77.9746 41.4929 85.4508C41.3466 86.2664 41.2458 86.3255 41.2004 86.6193C41.1702 86.8112 41.2447 86.791 41.1964 87.0439C39.3436 96.2117 37.0055 105.227 31.4784 112.526C31.1622 112.999 29.144 114.925 28.7551 115.415C28.5106 115.835 29.9711 114.426 30.1916 114.15C30.3652 113.972 30.4246 114.015 30.5392 113.893C30.6602 113.762 30.5237 113.837 30.6628 113.684C31.2642 113.018 31.8624 112.288 32.3213 111.64C36.7176 105.217 38.9212 97.8992 40.6645 90.4964C40.8686 89.5891 40.8877 89.7866 40.8984 89.7415C40.8984 89.7409 40.8984 89.7402 40.8984 89.7396C41.9699 84.9035 42.6611 79.2759 43.1959 74.049C43.583 70.375 43.8362 66.6871 43.9673 62.9932C43.9528 62.8854 43.9382 62.7774 43.9234 62.6695ZM14.1092 112.158C14.2402 112.651 14.4222 112.625 15.4879 113.911C15.6045 113.982 15.7254 114.055 15.8486 114.128C15.229 113.516 14.6448 112.845 14.1075 112.156C14.1081 112.157 14.1087 112.158 14.1092 112.158ZM23.2563 117.626C23.4003 117.766 24.4735 117.738 25.6194 117.31C26.7752 116.904 27.9314 116.109 28.6103 115.605C28.7933 115.322 26.7945 116.798 26.2095 116.951C25.9369 117.082 24.4248 117.495 23.2386 117.597C23.2445 117.607 23.2504 117.616 23.2563 117.626ZM17.3501 3.35355C17.1379 3.52028 16.9276 3.69603 16.7191 3.88064C17.2589 3.44598 17.8164 3.05839 18.4091 2.72113C17.4659 3.27956 16.6191 3.96448 15.8406 4.7201C15.9604 4.54925 16.082 4.38192 16.2055 4.21813C16.5609 3.92279 16.9625 3.61531 17.3501 3.35355ZM14.8138 5.80128C16.0793 4.3731 14.8033 5.91098 14.4895 6.25266C14.295 6.44948 14.6767 5.95926 14.8138 5.80128ZM11.9285 9.79727C12.3164 8.97477 13.3111 7.50342 13.0656 8.10272C12.4868 8.86011 12.1857 9.42816 11.4918 10.5944C11.5673 10.4053 11.6437 10.2181 11.7209 10.0328C11.7214 10.032 11.7219 10.0312 11.7223 10.0304C11.791 9.95199 11.8596 9.87442 11.9285 9.79727ZM15.3377 5.10074C16.2205 4.2321 13.8171 6.90395 14.5215 6.02549C14.5421 5.98527 15.3022 5.12248 15.3377 5.10074ZM43.8259 70.562C43.7556 70.4097 43.6898 71.3483 43.6587 71.6686C43.5298 73.0363 43.4039 74.7864 43.2385 76.1979C43.2762 76.0947 43.3138 75.9912 43.3513 75.8876C43.5416 74.1118 43.6987 72.3407 43.8259 70.562ZM42.6889 80.6205C42.553 81.5881 42.4066 82.5542 42.2483 83.5235C42.2338 83.6135 42.2303 84.0452 42.2983 83.7348C42.4414 82.6975 42.5717 81.6569 42.6889 80.6205ZM10.5326 107.079C10.8379 107.781 9.69462 105.881 9.93418 105.894C10.122 106.279 10.3305 106.693 10.5326 107.079ZM7.74271 100.631C7.92033 101.079 8.10082 101.519 8.28378 101.951C8.26273 101.96 8.24169 101.968 8.22065 101.977C8.05866 101.536 7.89921 101.087 7.74271 100.631ZM44.1076 66.7258C43.986 67.2222 43.9404 68.3973 43.8913 69.1459C44.0088 68.6348 44.0336 67.4256 44.1076 66.7258ZM17.4008 116.14C17.3934 116.102 18.0223 116.543 18.5808 116.856C19.147 117.179 19.6084 117.399 19.0911 117.218C18.487 116.906 17.9382 116.549 17.4008 116.14ZM23.4792 118.121C23.2536 118.141 23.043 118.148 22.8667 118.143C22.4968 118.133 22.2838 118.083 22.3841 118.03C22.5444 118.042 22.7053 118.049 22.8667 118.051C23.0742 118.053 23.2814 118.048 23.4879 118.034C23.4851 118.063 23.4822 118.092 23.4792 118.121ZM10.2588 12.7104C9.79811 13.6759 9.3575 14.6866 8.95757 15.6778C8.9581 15.6346 8.95867 15.5914 8.95928 15.5483C9.34564 14.5966 9.774 13.6176 10.2184 12.6868C10.2319 12.6947 10.2453 12.7025 10.2588 12.7104ZM44.3957 66.1253C44.4091 65.375 44.4165 64.6439 44.4193 63.9C44.3778 64.6435 44.3319 65.3737 44.2802 66.1225C44.3189 66.124 44.3575 66.1256 44.3962 66.1272C44.396 66.1265 44.3959 66.1259 44.3957 66.1253ZM19.9225 1.53388C16.7175 2.94853 20.7062 0.84892 21.7521 1.03139C21.7531 1.03118 21.7541 1.03096 21.7551 1.03074C21.8373 1.02849 21.6719 1.09295 21.8087 1.0918C21.452 1.11903 21.0971 1.16957 20.7422 1.24342C20.4294 1.35058 20.1339 1.47193 19.8375 1.61132C19.7341 1.64106 19.6306 1.67278 19.5272 1.70646C19.6582 1.6457 19.7899 1.58815 19.9225 1.53388ZM31.9089 6.48906C33.6733 8.96161 31.8493 6.44766 30.8808 5.2847C30.9082 5.27522 31.7432 6.25477 31.9089 6.48906ZM25.649 1.47818C25.1749 1.31881 24.6847 1.1981 24.1877 1.12378C24.1262 1.10137 24.0644 1.07965 24.0022 1.05863C24.3892 1.10289 24.7682 1.1737 25.1465 1.27114C25.3157 1.33496 25.4832 1.40403 25.649 1.47818ZM12.2409 8.30322C11.8228 8.94243 11.3948 9.84036 12.7197 7.74744C12.7064 7.73998 12.6931 7.73251 12.6798 7.72505C12.6251 7.80861 12.4722 8.06268 12.4624 8.07599C12.4344 8.11189 12.418 8.04245 12.2409 8.30322ZM35.1825 11.0769C35.2255 11.1525 35.3717 11.1219 35.6455 11.9971C35.7755 12.2438 35.8952 12.4748 36.0186 12.7187C36.0213 12.7949 36.0239 12.8713 36.0264 12.9477C35.6058 11.9916 35.4912 11.9182 35.4584 11.8503C35.2976 11.5399 35.4409 11.7571 35.3404 11.5558C35.0898 11.0418 34.4302 9.88205 34.7971 10.3666C34.9286 10.5391 35.1381 11.0004 35.1825 11.0769ZM34.2534 9.2273C34.3079 9.34268 34.0652 9.01102 34.1041 9.09965C34.1406 9.16974 34.7365 10.3056 34.506 10.0375C34.4054 9.85152 34.3042 9.66787 34.2023 9.48657C34.183 9.41612 34.1637 9.34586 34.1443 9.27575C34.0288 9.11352 33.9081 8.9461 33.7868 8.78143C33.6476 8.46377 33.3109 7.82154 33.8015 8.52941C33.6305 8.26114 33.458 7.99884 33.2755 7.73085C33.165 7.60485 33.0542 7.48094 32.9431 7.35915C33.0198 7.41013 33.0965 7.46188 33.1732 7.51439C33.5561 8.08026 33.9114 8.64684 34.2534 9.2273ZM38.245 18.1269C38.2167 18.0961 38.1884 18.0654 38.1601 18.0348C38.5755 19.1049 39.1222 20.8078 38.7176 19.8752C38.2301 18.3964 37.6982 16.934 37.1094 15.4927C37.0822 15.3911 37.0548 15.2899 37.0273 15.189C37.4204 16.2972 37.4729 15.8702 37.7803 16.8476C37.8293 17.0108 37.5959 16.5761 38.0035 17.5596C38.0062 17.5181 38.0088 17.4765 38.0115 17.435C38.09 17.6638 38.1678 17.8945 38.245 18.1269ZM40.9074 27.6122C40.4894 25.7033 41.0317 27.7847 41.0609 28.1528C41.0608 28.1522 41.0607 28.1516 41.0605 28.151C41.1507 29.1505 40.7484 27.0511 40.7139 26.9295C40.6727 26.7603 40.4916 26.3851 40.3976 25.4463C40.5736 26.1584 40.7473 26.8963 40.9074 27.6122ZM39.3099 21.4111C39.36 21.5676 39.3107 21.4876 39.3314 21.5555C39.3315 21.5561 39.3317 21.5567 39.3319 21.5573C39.6506 22.5701 40.3078 24.9652 40.295 25.2549C40.1174 24.499 39.1495 21.1533 39.1242 20.9458C39.1878 21.1045 39.2483 21.2552 39.3099 21.4111ZM36.7636 14.4508C36.5584 13.8304 37.134 15.1689 37.2505 15.5406C37.2723 15.61 36.9728 15.0843 36.7636 14.4508ZM5.31227 23.698C4.96713 25.0936 5.5135 23.2853 5.40125 23.9318C5.4694 23.6665 5.53838 23.403 5.60818 23.1411C5.5093 23.3255 5.41066 23.5111 5.31227 23.698ZM3.00846 87.9723C3.06157 88.3035 3.08278 88.1372 3.08898 88.1657C3.12911 88.3819 3.12731 88.5929 3.14795 88.6745C3.53586 90.1737 3.37665 89.1559 3.38318 89.1394C3.42727 89.097 3.56674 89.4818 3.51327 88.9194C3.42814 88.5885 3.34421 88.2555 3.26147 87.9204C3.25731 87.7467 3.2534 87.5727 3.24976 87.3984C3.06665 86.748 3.21091 87.6172 3.15158 87.7374C3.1275 87.7823 2.96996 87.1537 3.00846 87.9723ZM4.5228 26.1342C4.5332 26.3764 4.48165 26.953 4.68582 26.4245C4.68598 26.4239 4.68613 26.4233 4.68628 26.4226C4.72382 26.3248 4.83404 25.9187 4.88375 25.7988C5.02388 24.8916 4.8413 25.2008 4.5228 26.1342ZM1.85329 81.9308C1.79792 81.3847 1.74529 80.835 1.69544 80.2817C1.7488 80.2841 1.80216 80.2864 1.85553 80.2887C1.87919 80.5848 1.90364 80.8798 1.92886 81.1739C1.96651 81.273 2.00427 81.3718 2.04216 81.4705C2.05225 81.1004 2.06341 80.7292 2.07567 80.3568C1.99787 79.9202 1.9221 79.4817 1.84962 79.0519C1.84617 79.2556 1.84283 79.4573 1.84025 79.6619C1.68049 78.6027 1.83514 78.8191 1.78235 77.9278C1.70033 77.6297 1.6193 77.3301 1.53927 77.0292C1.54115 76.5833 1.54562 76.1449 1.55117 75.7004C1.45844 74.9646 1.41708 74.9017 1.40858 75.4055C1.31178 75.044 1.37321 74.6304 1.30957 74.1864C1.30437 74.1498 1.25179 74.2246 1.2483 74.1921C1.02128 71.9165 1.19507 72.0161 1.17317 71.6502C1.15821 71.3854 0.990977 70.3721 0.955801 70.3563C0.909736 70.3372 0.844751 72.499 0.649939 69.1349C0.608603 70.8848 0.886428 72.8545 0.985405 71.5576C0.998864 72.12 1.23865 74.5198 1.25223 74.685C1.26373 74.912 1.18406 74.8398 1.20781 75.1229C1.22277 75.2904 1.4255 75.716 1.41565 77.043C1.4608 77.2098 1.50626 77.3762 1.55203 77.5422C1.54667 77.7033 1.54151 77.8642 1.53656 78.0249C1.41978 77.709 1.30422 77.3914 1.1899 77.0719C1.41291 78.3659 1.37346 79.4308 1.61322 80.2089C1.68356 80.8923 1.71243 81.2219 1.60232 80.9412C1.6291 81.1448 1.65626 81.3478 1.68383 81.5504C1.74011 81.6776 1.79659 81.8043 1.85329 81.9308ZM3.6737 30.2316C3.46836 30.8804 3.56155 31.1511 3.59055 31.0482C3.75375 30.4716 3.78087 29.8952 3.6737 30.2316ZM2.87816 86.7423C2.79227 86.0035 2.70898 85.2416 2.63615 84.5029C2.58038 84.5123 2.52461 84.5216 2.46883 84.531C2.59715 85.2614 2.73623 86.014 2.87816 86.7423ZM5.27417 23.4704C5.32477 23.4128 5.37537 23.3553 5.42598 23.298C5.53468 22.4829 5.93929 21.7464 6.02717 21.3474C6.04616 21.261 5.93796 21.414 5.87619 21.572C5.83152 21.6761 5.29987 23.3241 5.27417 23.4704ZM27.6976 1.77548C27.4003 1.61975 27.0937 1.47542 26.7842 1.34764C26.8146 1.32755 26.8451 1.3076 26.8758 1.28777C27.0273 1.35512 27.1778 1.42624 27.3277 1.50122C27.4525 1.59 27.5803 1.68414 27.6976 1.77548ZM24.0519 0.495516C23.6606 0.437509 23.2648 0.406068 22.8667 0.40223C22.6414 0.400051 22.4166 0.406687 22.1926 0.422024C22.4725 0.398385 22.6934 0.391921 22.8667 0.38964C24.1537 0.426273 22.7914 0.308924 24.0645 0.40427C24.0603 0.434686 24.0561 0.465101 24.0519 0.495516ZM18.0435 1.68547C18.0947 1.6336 18.1542 1.5778 18.2103 1.52479C18.7506 1.22872 19.2987 0.981318 19.8916 0.778802C19.4995 0.841373 19.1016 0.931682 18.7232 1.03595C18.5181 1.13258 18.3148 1.23608 18.1133 1.34621C18.0883 1.45931 18.0611 1.57469 18.0435 1.68547ZM6.64529 102.359C6.75467 102.672 7.2614 103.731 7.2777 103.673C7.13474 103.195 7.00524 102.737 6.87777 102.27C6.82044 102.289 6.76311 102.308 6.70578 102.327C6.71039 102.253 6.71507 102.178 6.71982 102.103C6.60443 101.852 6.48993 101.599 6.37634 101.343C6.37899 101.191 6.38319 101.043 6.38866 100.897C6.2875 100.788 6.18653 100.678 6.08576 100.566C6.40894 101.844 6.51043 101.784 6.5999 102.041C6.64736 102.173 6.64286 102.269 6.64235 102.323C6.64333 102.335 6.64431 102.347 6.64529 102.359ZM2.43064 86.2995C2.68413 87.8278 3.01153 88.7049 3.1114 89.8252C3.20908 89.0763 2.09422 84.4958 2.09966 82.8304C2.0327 82.6663 1.96607 82.5016 1.89977 82.3364C2.06566 83.2298 2.07507 83.857 2.13042 84.2904C2.1747 84.6341 2.21333 84.5906 2.21682 84.6169C2.21702 84.6181 2.21722 84.6194 2.21741 84.6206C2.32878 85.424 2.33111 85.6919 2.43064 86.2995ZM5.44306 22.3173C5.27339 22.6991 5.07432 23.4079 5.14598 23.4368C5.27987 23.0481 5.41534 22.6637 5.55236 22.2835C5.50991 22.3574 5.47194 22.252 5.44306 22.3173ZM17.3514 1.88836C17.0218 2.06783 16.3631 2.58786 16.6881 2.41821C16.7354 2.38873 17.4201 1.86505 17.0659 2.23816C17.7534 1.76987 17.5342 1.78979 17.3514 1.88836ZM0.525878 59.7557C0.525526 59.665 0.525248 59.5743 0.525044 59.4835C0.524629 59.2983 0.524523 59.1133 0.524725 58.9285C0.489431 58.8642 0.454202 58.7999 0.419038 58.7356C0.444282 58.9847 0.470163 59.234 0.496683 59.4835C0.50633 59.5743 0.516062 59.665 0.525878 59.7557ZM6.49095 18.9083C6.75183 18.6068 6.82221 17.9801 7.18333 17.3602C7.27449 17.1197 7.36645 16.8812 7.45917 16.6449C7.45939 16.6444 7.45962 16.6438 7.45984 16.6432C7.4252 16.6227 7.39056 16.6021 7.35593 16.5816C7.05554 17.3463 6.7616 18.1397 6.49095 18.9083ZM1.24063 76.8598C1.24731 76.69 1.25422 76.5201 1.26135 76.3499C1.20404 76.0543 1.14764 75.7577 1.09214 75.4599C1.08743 75.6245 1.08294 75.7888 1.07866 75.953C1.13172 76.2564 1.18572 76.5587 1.24063 76.8598ZM8.10139 14.7018C7.73542 15.5202 7.72355 15.8811 8.16667 14.8231C8.35479 14.3819 8.4881 13.8558 8.10139 14.7018ZM16.2476 117.333C15.9798 117.111 15.7176 116.879 15.4607 116.636C15.3445 116.589 15.2242 116.536 15.1143 116.49C15.4771 116.785 15.863 117.073 16.2476 117.333ZM21.8202 0.227024C21.7815 0.255335 21.7432 0.283913 21.7052 0.312746C21.3929 0.347406 21.0841 0.398233 20.7766 0.465107C20.8481 0.423994 20.9203 0.383766 20.9932 0.344449C21.2674 0.292659 21.5408 0.253689 21.8202 0.227024ZM14.5088 115.786C14.3188 115.586 14.1325 115.381 13.9614 115.185C13.8267 115.068 13.6926 114.948 13.5591 114.826C13.7107 115.027 13.8646 115.224 14.0207 115.418C14.1736 115.535 14.3454 115.667 14.5088 115.786ZM12.1994 7.14127C11.9598 7.42066 11.2726 8.64556 11.99 7.60295C12.4654 6.93371 12.2345 7.10175 12.1994 7.14127ZM13.3306 5.58657C12.4493 6.63087 13.2557 5.97911 14.209 4.63263C13.1268 5.901 13.395 5.52701 13.3306 5.58657ZM24.342 0.118881C24.3799 0.126446 24.4075 0.167033 24.7079 0.231278C25.8055 0.451355 27.1078 1.06467 27.7522 1.46224C29.524 2.23225 33.0046 6.2182 33.1547 6.82318C33.209 6.93992 32.9867 6.74086 33.0135 6.78517C33.0998 6.91771 33.5967 7.59617 33.4688 7.49614C33.0122 6.8083 32.5103 6.11576 31.9778 5.46032C32.1349 5.59749 32.2916 5.73864 32.4477 5.88368C31.1034 4.23774 31.5294 4.80452 31.0659 4.39049C30.8376 4.10076 30.613 3.8284 30.3624 3.54638C29.7722 3.0228 29.117 2.51544 28.4325 2.0832C28.5958 2.16756 28.7588 2.25635 28.9213 2.34949C27.9457 1.59792 28.1933 1.82111 27.5849 1.51728C27.595 1.49647 27.605 1.47565 27.6151 1.45483C26.5236 0.916453 26.2947 0.805645 26.0445 0.698713C25.5185 0.538496 24.8585 0.42678 22.8667 0.12809C22.7945 0.119314 22.7206 0.110765 22.6447 0.10254C21.7344 0.272716 21.7228 0.0244993 21.2095 0.244342C20.012 0.400695 21.4457 -0.0318353 22.8667 0.00188184C23.2896 0.00763261 23.7004 0.0471444 24.0242 0.0929713C24.0249 0.0930718 24.0257 0.0931724 24.0264 0.0932732C24.1321 0.109509 23.9678 0.0561961 24.342 0.118881ZM16.9047 2.14995C17.2404 1.8423 16.6659 2.18186 16.1906 2.56805C15.6994 2.9639 15.3194 3.37397 15.7966 3.07464C15.932 2.96568 16.0682 2.85977 16.2051 2.75697C16.4348 2.54495 16.6635 2.3457 16.9064 2.14872C16.9058 2.14913 16.9053 2.14954 16.9047 2.14995ZM3.51892 28.9533C2.95269 31.8263 3.38899 30.2114 3.52009 29.2322C3.54647 29.0389 3.5498 28.9231 3.51892 28.9533ZM2.69543 88.5294C2.72557 88.5674 2.75573 88.6053 2.78592 88.6433C2.56913 87.6631 2.32868 85.7832 2.18722 85.8291C2.34713 86.735 2.51334 87.62 2.69543 88.5294ZM1.36109 80.8254C1.37894 81.0381 1.47355 81.8965 1.51435 81.785C1.50234 81.4096 1.49152 81.0327 1.48191 80.6545C1.43545 80.4841 1.3893 80.3133 1.34348 80.1419C1.36564 80.3868 1.35592 80.7681 1.36109 80.8254Z" fill="var(--stroke-0, #0061FE)"/>
</svg>
