<svg preserveAspectRatio="none" width="100%" height="100%" overflow="visible" style="display: block;" viewBox="0 0 511.941 512.172" fill="none" xmlns="http://www.w3.org/2000/svg">
<g id="Group 44154">
<g id="Union">
<path d="M495.81 344.288C495.81 428.158 427.821 496.147 343.952 496.147V496.175C342.88 496.175 341.809 496.155 340.739 496.147L19.8102 496.266L81.8264 264.997C116.083 137.264 158.603 17.2774 330.807 17.2659H495.81V344.288Z" fill="var(--fill-0, #14387a)"/>
<path d="M231.319 478.986C225.206 479.459 218.961 479.394 212.626 479.086C218.781 478.873 225.027 478.907 231.319 478.986ZM231.319 478.986C231.421 478.979 231.525 478.971 231.628 478.962C231.628 478.962 231.535 478.982 231.489 478.982C231.489 478.984 231.489 478.986 231.489 478.988C231.432 478.988 231.375 478.987 231.319 478.986ZM231.581 478.982C231.63 478.989 231.683 478.994 231.731 479.001C231.651 479.001 231.57 479.001 231.489 479.001C231.52 478.995 231.551 478.988 231.581 478.982ZM54.3854 307.22C56.6919 303.124 58.6499 293.409 60.621 285.983C62.8193 277.668 65.0013 269.391 67.217 261.08C68.3042 257.002 69.4088 252.92 70.5421 248.824C74.0932 235.987 77.7623 222.779 81.6168 209.8C82.2961 207.5 82.7627 205.807 82.5772 207.784C82.5733 207.804 82.5696 207.825 82.5656 207.845C82.5682 207.84 82.5709 207.835 82.5735 207.83C82.5716 207.849 82.5706 207.867 82.5686 207.888C82.5651 207.887 82.5616 207.885 82.5582 207.884C82.5524 207.915 82.5466 207.945 82.5408 207.976C82.5372 207.975 82.5337 207.974 82.5301 207.972C82.8461 210.763 80.0314 217.198 78.8677 221.479C76.263 230.983 72.866 241.373 70.8273 250.345C70.0129 253.918 69.032 257.565 68.0316 261.298C66.3488 267.577 64.5871 274.089 63.4691 280.887C65.2529 274.355 67.0171 267.896 68.7623 261.494C76.1153 234.554 83.559 208.573 92.5508 182.695C92.2292 182.479 91.4555 185.551 90.8242 186.129C103.306 152.2 119.096 119.263 140.84 88.8626C132.544 98.9944 126.124 110.484 119.309 121.68C122.079 116.331 124.894 110.977 128.153 105.863C138.01 90.3801 149.523 75.4317 163.183 62.6834C167.958 58.2381 171.61 54.1638 176.857 50.1951C178.431 49.0015 180.833 46.9972 181.677 46.5468C189.683 42.1648 198.696 35.4168 208.131 30.5864C224.229 22.2962 240.934 15.8551 258.223 11.6157C279.537 6.38412 301.336 3.89255 322.832 3.56116C325.442 3.52141 328.105 3.51688 330.806 3.54428C340.58 3.6501 350.503 3.80477 359.701 3.72805C373.042 3.61202 386.337 3.67636 399.494 3.7086C417.344 3.76017 435.701 3.17998 453.045 4.25655C466.34 3.483 480.095 4.03099 493.621 3.99878C494.351 3.99715 495.08 3.99576 495.81 3.99461L508.803 3.72773L509.081 17.2659C509.13 48.2732 508.753 79.1555 508.665 110.169C508.555 149.089 508.439 188.056 508.201 226.93C508.046 252.693 508.039 278.502 507.943 304.265C507.943 305.277 507.859 306.29 507.807 307.486C507.356 305.876 507.788 302.563 507.453 300.861C507.272 303.943 507.098 308.128 507.433 309.831C507.988 312.637 507.84 316.135 507.827 319.263C507.781 327.605 507.742 335.947 507.694 344.288C507.662 350.439 507.288 356.55 506.564 362.635C503.781 386.261 495.941 409.481 483.385 429.753C472.582 447.254 458.412 462.537 442.027 474.797C424.463 487.966 404.215 497.649 382.83 502.964C410.299 496.432 435.93 482.563 456.539 463.214C456.574 463.323 456.614 463.436 456.612 463.58C432.749 486.519 401.218 501.08 368.953 506.776C368.97 506.886 368.987 506.996 369.004 507.107C383.295 505.019 397.332 501.01 410.606 495.264C414.671 493.506 418.736 491.3 422.556 489.584C421.06 491.085 417.009 492.74 414.351 494.18C415.218 494.022 417.774 492.386 418.468 492.425C418.171 492.618 417.887 492.839 417.526 493.018C405.878 498.962 393.398 503.438 380.675 505.987C377.71 506.582 375.523 507.114 373.23 507.728C366.505 509.616 355.433 510.648 349.793 510.061C346.926 509.791 348.076 509.229 350.099 508.824C353.203 508.157 353.112 507.728 349.702 507.413C347.671 507.206 347.575 506.986 349.283 506.627C353.938 505.547 353.658 505.684 344.062 505.662C354.09 505.013 350.877 504.369 348.986 503.424C346.25 502.027 339.058 500.412 349.257 498.611C350.561 498.359 351.664 497.384 350.021 496.661C348.227 495.861 346.229 494.678 350.123 493.527C350.702 493.357 352.226 493.123 353.269 493.057C363.626 492.302 361.898 491.095 360.708 490.543C357.608 488.92 360.093 486.885 363.103 484.602C364.706 483.371 364.658 482.263 366.165 480.988C367.822 479.6 375.116 478.212 380.245 476.627C390.355 473.622 400.307 469.832 409.776 465.007C414.013 462.852 418.415 460.117 422.273 457.274C428.959 452.329 435.208 448.001 441.003 442.131C443.169 439.925 444.777 438.047 446.137 436.133C449.197 434.164 452.261 429.391 455.002 425.827C457.795 422.237 460.607 418.152 462.38 414.165C463.63 411.334 464.856 410.538 466.205 407.994C473.414 394.293 478.518 379.287 480.501 364.015C481.377 357.319 481.844 350.756 481.949 344.288C481.97 342.854 481.994 341.428 482.021 340.01C482.563 311.119 482.124 282.044 482.363 253.108C482.466 240.502 482.853 227.023 482.215 214.05C481.963 208.943 482.176 203.099 482.279 197.625C482.447 188.608 482.588 179.729 482.331 170.483C482.086 161.604 482.653 152.586 482.486 143.432C482.266 131.424 482.427 119.416 482.511 107.363C482.55 101.704 482.621 95.908 481.912 91.2154C481.441 88.1333 482.414 88.7762 482.324 85.3258C482.15 78.7015 482.099 71.893 482.041 65.1768C481.918 51.3754 482.15 37.8037 482.518 24.1864C482.579 21.9343 482.614 19.613 482.627 17.2659L495.81 30.4492C491.253 30.4235 486.599 30.4778 482.165 30.5714C477.565 30.668 472.688 30.1587 468.502 30.7259C466.34 30.3005 462.613 29.8106 459.945 30.1845C455.667 30.784 451.527 30.5325 447.018 30.5776C438.139 30.6679 429.398 30.9645 420.565 30.5068C418.541 30.4037 418.357 30.9065 415.873 30.8743C411.227 30.8227 406.074 30.842 401.934 30.9129C391.307 31.0999 380.403 30.2684 370.052 31.1709C366.555 31.4803 362.093 31.1257 357.952 31.1515C348.939 31.2029 339.709 31.4316 330.807 31.137C329.685 31.0994 328.573 31.0585 327.473 31.0126C316.983 30.5626 306.515 31.533 296.47 32.7756C290.822 33.4569 283.802 34.213 278.888 35.8202C276.014 35.595 269.39 37.6363 266.229 37.6064C264.244 37.5591 260.023 39.0039 258.024 39.7866C250.963 42.5645 245.848 44.2105 238.215 47.1494C230.553 50.1338 222.524 53.4365 215.523 58.576C212.824 60.5328 206.539 63.7552 202.034 66.9749C199.06 69.067 195.568 71.7884 192.824 73.4242C191.928 73.9499 191.024 74.6716 190.383 75.4977C187.302 79.4159 182.785 82.7737 179.046 86.1862C175.721 89.2103 172.728 91.7006 170.921 95.2535C170.331 96.388 167.933 99.1336 166.407 100.841C162.316 105.457 162.349 105.388 159.218 110.344C158.738 111.115 158.06 112.064 157.47 112.867C151.095 121.613 145.896 131.214 140.164 140.979C136.04 147.95 131.297 157.86 128.853 164.868C125.938 173.145 122.671 180.193 119.984 187.929C116.839 197.013 113.642 206.566 110.569 215.768C104.797 233.059 100.195 250.875 95.2754 268.604C94.4183 271.694 93.5467 274.778 92.655 277.854C92.0633 279.886 91.2423 282.525 91.3144 283.973C91.3613 284.843 90.6455 287.413 90.3501 288.191C86.7138 297.695 84.6203 308.613 81.9149 318.652C74.4599 346.279 67.2729 374.026 59.8801 401.669C55.615 417.624 51.5977 433.551 47.2885 449.447C42.7058 466.342 38.3901 483.217 33.9288 500.052L19.8048 481.648C20.1934 481.647 20.582 481.646 20.9706 481.645C33.4838 481.608 46.2733 481.649 58.7865 481.244C63.3869 481.094 69.5971 480.473 73.3699 481.535C73.416 481.555 86.3444 480.924 86.6204 480.918C87.9082 480.879 89.197 480.814 90.4388 480.833C109.209 481.025 127.656 480.471 146.196 480.27C172.51 479.984 198.918 479.916 225.233 479.603C233.329 479.503 241.518 479.868 250.396 479.555C244.107 479.079 236.919 479.677 231.731 479.001C244.397 478.982 257.283 478.885 269.488 479.284C280.667 479.647 293.687 479.204 302.935 480.567C304.315 480.766 306.156 480.579 307.582 480.514C312.229 480.312 314.483 480.743 313.563 481.188C311.585 482.169 314.989 482.2 320.141 482.147C321.936 482.127 324.467 482.042 325.111 482.39C325.663 482.66 323.869 482.764 322.213 482.842C319.223 482.979 314.622 483.058 316.37 483.676C317.612 484.114 320.512 484.635 325.434 484.285C325.665 484.272 326.262 484.362 326.859 484.42C325.709 484.936 322.396 484.866 319.452 484.932C323.501 485.704 326.399 486.451 322.581 487.445C321.754 487.651 322.444 487.87 319.868 487.884C314.531 487.912 314.577 488.15 316.923 488.807C319.914 489.631 325.022 490.532 319.318 491.559C318.904 491.63 318.857 491.804 319.225 491.888C322.768 492.724 323.09 493.427 319.226 494.389C316.696 495.002 323.414 495.664 327.922 496.01C333.614 496.434 338.001 497.17 340.74 498.025L340.725 498.025C342.611 498.644 343.757 499.311 343.951 499.958L347.811 499.879L347.735 496.175C347.864 496.138 347.992 496.138 348.12 496.175L348.204 500.256L343.951 500.343C343.81 500.823 343.093 501.29 341.844 501.703C341.481 501.823 341.088 501.944 340.693 502.068L340.742 502.068C337.405 503.102 333.212 504.205 339.933 505.437C285.555 506.953 232.005 508.236 177.674 508.804C125.145 509.351 72.3976 509.17 19.8151 509.596L2.70879 509.948L6.93483 492.813C7.28453 491.468 7.63379 490.122 7.98258 488.776C7.57102 490.103 7.17804 491.437 6.79733 492.776L2.52615 510.094L19.8152 509.738C26.4059 509.835 33.0266 509.639 39.5217 509.887C40.1656 509.912 40.6264 510.028 42.4203 510.266C34.8853 510.269 27.3504 510.272 19.8154 510.274L1.83869 510.644L6.27975 492.638C7.51359 488.036 8.74742 483.435 9.98125 478.834C10.2791 477.723 10.6185 476.433 10.6168 477.385C10.6288 480.102 11.3857 475.638 11.3831 475.398C11.3614 472.916 12.4917 469.123 13.6005 465.611C15.0508 460.999 15.964 456.623 17.1362 452.127C22.4799 431.602 27.8855 411.046 33.2908 390.49C35.3983 382.482 37.7347 374.391 39.6589 366.096C40.7837 361.254 39.0742 364.891 40.1021 360.834C41.279 356.196 41.4386 359.333 42.6699 354.568C43.949 349.624 45.4644 344.694 46.7692 339.281C46.2477 340.379 45.8474 341.225 45.047 342.916C49.3222 330.059 51.7185 319.032 54.3854 307.22ZM155.895 113.31C150.655 120.21 146.483 127.775 142.229 135.399C146.75 127.968 151.025 120.408 155.895 113.31ZM126.873 167.132C130.896 159.018 134.492 150.499 138.615 142.313C134.315 150.309 130.693 158.787 126.873 167.132ZM171.153 93.5158C180.76 82.5638 191.551 72.8035 203.418 64.5901C203.335 64.5454 203.253 64.5003 203.17 64.4558C191.327 72.6664 180.555 82.4162 170.964 93.35C171.027 93.4053 171.09 93.4605 171.153 93.5158ZM228.117 50.0278C221.63 53.0772 215.44 56.5933 209.478 60.4055C215.557 56.6857 221.938 53.4149 228.117 50.0278ZM225.883 496.061C247.782 497.11 266.735 496.368 285.183 495.671C266.045 494.789 246.953 495.415 225.883 496.061ZM496.302 395.636C499.15 388.166 500.822 382.389 501.247 376.011C499.795 382.877 498.172 388.504 496.302 395.636ZM504.797 294.235C505.57 282.044 505.332 271.417 504.79 260.974C504.571 271.739 504.61 282.32 504.797 294.235ZM505.629 364.87C505.854 363.257 506.057 361.582 505.937 360.972C505.839 360.468 505.579 360.935 505.368 361.212C505.228 361.446 505.036 362.515 505.058 363.26C505.264 368.941 503.336 374.836 502.23 380.529C502.586 377.526 503.764 373.764 503.991 369.553C501.725 382.229 499.879 392.843 495.098 403.638C495.09 403.652 495.082 403.667 495.074 403.682C497.092 400.441 498.032 396.635 499.177 393.113C502.173 383.925 504.311 374.455 505.629 364.87ZM476.178 438.416C481.68 431.165 485.543 424.407 488.909 417.464C485.52 424.424 480.984 430.523 476.178 438.416ZM437.679 5.86176C437.54 5.81664 435.563 5.75226 434.965 5.94552C434.321 6.15181 435.011 6.31312 436.253 6.42916C440.578 6.83522 445.73 6.68688 452.401 6.95118C452.401 6.94901 452.401 6.94685 452.401 6.94469C450.929 6.65464 450.652 6.53867 450.1 6.50644C446.052 6.26151 439.979 6.79004 437.679 5.86176ZM506.789 320.381C506.72 327.983 506.335 335.59 506.789 343.23C506.789 335.614 506.789 327.997 506.789 320.381ZM506.911 309.279C507.027 302.332 507.234 295.431 506.808 288.577C506.789 295.523 506.376 302.516 506.911 309.279ZM506.995 142.971C506.86 138.831 507.672 135.38 507.453 133.494C506.718 127.087 507.335 120.811 507.284 114.581C506.765 123.755 506.327 132.981 506.995 142.971ZM506.957 266.771C506.911 261.066 507.956 258.029 507.717 251.405C506.518 254.487 506.924 261.112 506.957 266.771ZM507.93 94.9876C507.923 94.7116 507.911 94.4346 507.904 94.2047C507.633 86.568 507.788 78.9309 507.917 71.3403C507.975 68.1207 507.678 66.2806 507.363 66.0504C506.989 65.7744 507.085 68.8108 507.066 70.513C506.911 81.4161 507.208 92.3659 507.008 103.361C506.945 106.799 507.186 110.505 507.293 114.083C507.847 114.304 507.531 111.307 507.62 109.71C507.853 105.661 507.414 102.946 507.311 99.6334C507.169 95.1255 507.363 94.1137 507.93 94.9876ZM461.648 4.5597C460.636 4.07621 460.084 4.44366 460.13 4.60482C460.175 4.79162 457.508 4.79816 458.933 5.06875C459.945 5.05586 461.049 5.02371 462.153 5.03659C463.119 5.04304 464.408 4.99798 464.868 5.18493C464.853 5.18493 464.838 5.18493 464.822 5.18493C454.103 5.7909 443.061 4.6498 432.342 5.2622C453.5 5.48272 474.617 5.7325 495.81 5.51347L507.316 5.27713L507.563 17.2659C507.574 18.3762 507.587 19.4867 507.601 20.5975C507.62 22.2077 507.775 23.7719 507.64 25.3821C506.905 34.3991 507.395 44.2901 507.234 53.6752C507.182 56.6195 507.434 57.9531 507.865 59.9313C507.679 49.2124 507.62 39.5516 508.117 30.1667C508.194 28.6946 508.168 26.8997 508.168 25.2896C508.163 22.6149 508.155 19.9401 508.147 17.2659L507.888 4.68112L495.81 4.92921C485.928 4.95837 476.051 4.98434 466.203 4.86259C464.317 4.8368 462.43 4.94634 461.648 4.5597ZM339.106 508.087C327.053 508.923 202.747 511.373 195.754 510.944C226.255 510.204 257.539 509.993 288.04 508.905C303.865 508.338 319.967 507.514 336.989 507.933C337.679 507.946 338.278 508.023 339.106 508.087ZM411.457 4.57889C395.815 4.60467 380.172 4.61111 364.53 4.62401C360.476 4.624 356.289 4.5561 353.266 5.04982C353.279 5.04963 353.293 5.04975 353.306 5.04956C354.916 5.35241 357.308 5.26222 359.424 5.2622C376.721 5.28799 394.02 5.3008 411.272 5.33948C413.526 5.33948 416.287 5.45565 416.61 5.04956C416.978 4.5661 414.171 4.57244 411.457 4.57889ZM492.59 414.139C485.688 429.205 476.236 443.236 464.782 455.174C475.819 442.799 485.257 429.066 492.59 414.139ZM217.516 27.4796C211.436 29.9898 205.858 33.4299 200.107 36.6381C206.136 33.7985 211.651 30.4458 217.516 27.4796ZM292.801 6.61658C296.471 6.67615 300.446 6.39632 305.238 5.85181C310.61 5.24415 316.507 4.9977 321.961 5.08972C323.15 5.10635 324.3 5.33704 325.109 5.00259C325.921 4.66918 324.332 4.61019 322.38 4.65457C312.693 4.87314 302.734 5.49166 292.801 6.61658ZM328.767 4.45558C329.443 4.49316 330.122 4.5306 330.806 4.56794C337.922 4.97978 345.299 5.15551 352.94 5.05371C346.492 4.0679 338.197 4.69187 330.807 4.51659C330.117 4.50119 329.436 4.48145 328.767 4.45558ZM353.075 5.08171C353.091 5.08171 353.106 5.08171 353.121 5.08171C353.113 5.08043 353.105 5.07911 353.097 5.07782C353.09 5.0791 353.083 5.08043 353.075 5.08171ZM507.649 361.902C507.551 361.891 507.452 361.881 507.354 361.87C507.916 356.026 508.209 350.171 508.22 344.288C508.256 327.324 508.555 310.393 508.581 293.38C508.581 310.349 508.581 327.319 508.581 344.288C508.581 350.188 508.271 356.06 507.649 361.902ZM509.135 112.516C509.516 149.596 509.039 186.538 509.103 223.572C509.101 223.572 509.099 223.572 509.097 223.572C508.961 223.526 508.82 223.526 508.684 223.526C508.832 186.492 508.987 149.504 509.135 112.516ZM508.916 282.413C508.845 282.367 508.768 282.367 508.691 282.367C508.691 264.286 508.691 246.206 508.691 228.126C508.762 228.172 508.839 228.265 508.916 228.265C508.916 246.314 508.916 264.364 508.916 282.413ZM40.6304 366.927C38.0168 376.848 34.9791 386.609 33.0074 396.749C35.6647 386.84 38.322 376.93 40.9793 367.021C40.863 366.99 40.7467 366.958 40.6304 366.927ZM458.993 463.577C457.248 465.169 458.5 464.806 456.813 466.137C448.486 472.644 440.291 479.919 431.177 485.507C426.242 488.505 424.276 489.285 422.656 489.535C433.522 483.635 443.656 476.266 453.064 468.574C454.927 467.051 455.738 465.932 457.286 464.513C459.696 462.281 459.641 462.584 458.993 463.577ZM422.564 489.556C422.563 489.554 422.562 489.552 422.561 489.55C422.572 489.549 422.586 489.545 422.597 489.544C422.593 489.547 422.59 489.551 422.586 489.554C422.579 489.555 422.572 489.555 422.564 489.556ZM422.597 489.544C422.601 489.54 422.604 489.536 422.608 489.532C422.61 489.535 422.612 489.539 422.614 489.542C422.608 489.543 422.603 489.543 422.597 489.544ZM422.556 489.584C422.566 489.574 422.577 489.564 422.586 489.554C422.598 489.554 422.609 489.554 422.621 489.554C422.599 489.564 422.578 489.574 422.556 489.584ZM422.614 489.542C422.627 489.54 422.643 489.537 422.656 489.535C422.644 489.541 422.632 489.548 422.621 489.554C422.618 489.55 422.616 489.546 422.614 489.542ZM145.361 82.6683C144.385 83.834 142.759 85.9117 143.025 86.0565C143.288 86.2005 144.578 84.4279 145.715 83.0191C151.755 75.5342 158.324 68.4121 165.377 61.7686C158.232 67.5445 151.565 75.1799 145.361 82.6683ZM485.873 430.69C478.853 442.255 470.594 453.161 460.724 462.367C460.145 462.903 459.618 463.148 459.076 463.501C462.008 460.095 465.335 456.516 468.999 452.39C474.65 446.027 479.782 439.129 484.384 431.899C485.303 430.46 486.388 428.599 486.727 428.682C486.901 428.727 486.554 429.573 485.873 430.69ZM97.1202 509.782C91.5538 510.357 76.5559 510.447 67.1707 509.96C78.0275 509.627 87.6895 510.043 97.1202 509.782ZM62.6507 283.193C60.8123 288.082 59.5808 292.276 58.4945 297.796C60.4215 293.074 61.415 288.672 62.6507 283.193ZM44.1975 350.166C43.7857 351.627 43.4111 353.098 43.5995 353.292C43.8259 353.543 44.579 351.506 44.8011 350.28C45.9111 344.1 48.338 337.463 50.0226 329.389C50.0186 329.404 50.0146 329.419 50.0106 329.434C47.7129 337.629 45.9523 343.92 44.1975 350.166ZM510.354 327.268C510.265 332.954 510.276 338.628 510.285 344.288C510.294 349.839 510.029 355.356 509.425 360.822C508.235 371.866 506.266 383.47 502.314 392.68C507.563 377.45 509.798 360.642 509.92 344.288C509.978 338.55 510.098 332.86 510.354 327.268ZM509.838 64.3476C509.756 64.3476 509.675 64.3476 509.593 64.3476C509.593 48.6537 509.593 32.9598 509.593 17.2659L509.304 3.20581L495.81 3.48298C493.394 3.48298 490.977 3.48298 488.56 3.48298C488.56 3.4013 488.56 3.31961 488.56 3.23792C490.977 3.23792 493.394 3.23792 495.81 3.23792L509.544 2.95582L509.838 17.2659C509.838 32.9598 509.838 48.6537 509.838 64.3476ZM458.94 463.659C458.912 463.692 458.88 463.727 458.852 463.76C458.852 463.76 458.931 463.662 458.977 463.602C458.983 463.593 458.988 463.586 458.993 463.577C458.996 463.575 458.999 463.572 459.002 463.569C459.012 463.555 459.015 463.55 459.007 463.557C459.019 463.545 459.031 463.534 459.043 463.522C459.055 463.514 459.065 463.508 459.076 463.501C459.052 463.529 459.027 463.558 459.002 463.587C458.966 463.634 458.929 463.682 458.893 463.73C458.909 463.705 458.924 463.683 458.94 463.659ZM502.817 393.569C500.487 400.233 498.3 407.51 494.838 413.309C497.805 406.572 500.134 399.551 502.817 393.569ZM200.69 33.8458C201.924 33.1086 203.378 32.3409 203.295 32.6988C203.248 33.0211 201.958 33.7654 200.625 34.5189C197.196 36.4481 193.823 38.4799 190.489 40.6293C190.502 40.6204 190.515 40.6116 190.529 40.6027C190.568 40.4833 190.571 40.3961 190.569 40.3043C193.852 38.0627 197.249 35.8844 200.69 33.8458ZM418.586 3.00609C428.523 2.62574 438.232 3.08989 448.077 3.05121C438.186 3.41222 428.385 3.05122 418.586 3.00609ZM510.399 287.61C510.631 287.564 510.831 288.807 510.779 290.004C510.444 297.318 510.586 304.725 510.612 312.178C510.618 313.006 510.463 313.88 510.296 315.628C509.658 306.887 510.147 298.514 509.948 290.555C509.902 288.853 510.135 287.657 510.399 287.61ZM510.895 245.286C510.811 257.109 510.702 268.98 510.676 280.849C510.67 283.287 510.599 284.759 510.328 284.851C509.87 284.989 510.077 282.182 510.089 280.71C510.173 269.577 510.289 258.49 510.399 247.357C510.399 247.372 510.399 247.388 510.399 247.403C510.56 246.713 510.728 246.022 510.895 245.286ZM98.8199 160.097C102.058 152.077 105.698 144.338 110.422 135.27C108.297 140.193 106.953 143.527 105.613 146.929C106.833 145.406 108.093 141.747 109.664 139.424C105.036 149.011 101.407 157.816 97.6256 166.903C93.2305 177.468 89.2388 188.658 85.8375 199.532C85.8317 199.563 85.826 199.595 85.8203 199.626C84.3085 204.454 83.5986 205.87 82.5735 207.83C82.575 207.814 82.5757 207.799 82.5772 207.784C83.3755 203.589 84.2046 199.406 86.6655 194.703C87.4546 193.183 87.5783 191.837 88.0199 190.45C90.4844 182.714 92.7396 175.061 96.3783 167.328C97.494 164.961 97.7906 162.658 98.8199 160.097ZM510.534 211.749C511.216 223.678 511.057 235.469 510.404 247.26C510.226 235.423 510.412 223.586 510.534 211.749ZM510.399 247.357C510.401 247.325 510.402 247.292 510.404 247.26C510.404 247.292 510.405 247.325 510.405 247.357C510.403 247.357 510.401 247.357 510.399 247.357ZM510.934 114.263C511.237 116.379 511.727 117.116 511.521 120.658C510.85 132.067 511.527 143.478 511.476 154.887C511.469 155.669 511.456 156.451 511.45 157.371C511.031 156.543 511.443 153.782 511.056 152.218C510.947 158.152 510.824 163.72 511.005 169.47C511.031 170.206 511.218 171.08 511.198 171.356C510.973 174.393 511.327 180.142 510.799 180.557C510.277 181.017 510.438 175.404 510.457 173.15C510.457 173.134 510.457 173.119 510.457 173.104C510.599 153.69 510.567 134.229 510.934 114.263ZM186.048 511.07C174.915 511.248 164.333 511.981 152.832 511.682C151.405 511.644 149.06 511.78 148.784 511.458C148.508 511.161 150.531 511.09 152.187 511.089C152.187 511.087 152.187 511.085 152.187 511.083C163.474 511.078 174.761 511.074 186.048 511.07ZM95.2793 511.877C87.6427 511.448 80.6038 512.418 73.0592 512.079C73.0438 512.081 73.0283 512.083 73.0129 512.085C69.9307 511.945 66.3886 511.94 63.5823 511.444C74.5313 511.06 84.4233 511.437 94.2223 511.33C95.4641 511.316 96.9807 511.451 96.8433 511.69C96.7973 511.761 95.6014 511.897 95.2793 511.877ZM48.4474 511.566C42.9727 511.6 37.7739 512.949 32.3907 511.507C37.7271 511.028 43.0648 511.536 48.4474 511.566ZM27.147 511.451C24.5562 511.62 22.1273 511.689 19.8159 511.708L0 512.115L4.89543 492.266C6.12124 487.552 7.42763 483.399 8.47176 479.286C7.5828 483.406 6.60003 487.546 5.27622 492.368L0.505772 511.71L19.8158 511.313C22.0839 511.326 24.5058 511.37 27.147 511.451ZM82.5244 207.925C82.5319 207.911 82.5396 207.895 82.547 207.881C82.5378 207.878 82.5286 207.875 82.5193 207.872C82.5217 207.888 82.5223 207.909 82.5244 207.925ZM124.492 511.828C118.466 511.733 112.117 512.135 104.48 511.577C112.209 511.001 118.605 511.604 124.77 511.422C125.001 511.415 125.782 511.544 125.69 511.583C125.506 511.673 124.861 511.821 124.539 511.821C124.523 511.824 124.508 511.826 124.492 511.828ZM138.785 87.2418C142.467 82.245 144.851 80.4105 148.12 76.0593C148.129 76.0453 148.139 76.0313 148.148 76.0174C148.223 76.1474 148.265 76.3158 148.34 76.4458C147.458 77.5104 146.638 78.5618 145.761 79.6286C133.202 94.9264 122.819 111.608 114.05 128.794C112.997 130.853 112.024 132.74 111.596 132.904C110.937 133.169 112.23 130.679 113.313 128.577C118.171 119.112 123.458 109.648 129.469 100.799C132.717 96.0158 135.753 91.3871 138.785 87.2418ZM511.404 96.7349C511.553 102.807 511.778 107.776 511.65 112.975C510.857 110.95 510.657 103.13 511.404 96.7349ZM511.74 49.6735C512.139 53.4917 511.843 57.1262 511.701 60.4384C511.701 60.423 511.701 60.4076 511.701 60.3922C511.417 67.0168 511.295 73.4581 511.572 80.1747C510.792 70.4219 511.153 59.8864 511.082 49.6735C511.076 47.9714 511.14 46.2218 511.456 46.2216C511.811 46.2676 511.643 48.7534 511.74 49.6735ZM459.623 1.49734C462.521 1.18792 462.383 0.485481 465.603 0.878599C470.066 1.42655 474.484 1.20747 478.532 1.03342C484.282 0.782034 488.561 1.47814 494.311 1.29767C494.809 1.2823 495.309 1.27082 495.81 1.26264L511.478 0.940821L511.813 17.2659C511.925 24.1273 511.42 31.2812 511.804 38.3552C511.895 39.9654 511.83 41.9433 511.508 41.8053C511.185 41.6672 511.211 39.6429 511.211 37.9868C511.227 31.0973 511.171 24.1183 511.243 17.2659L510.92 1.52249L495.81 1.83284C494.152 1.81542 492.501 1.79054 490.861 1.75537C490.845 1.75321 490.83 1.75105 490.815 1.74889C480.924 1.54261 470.986 1.7681 459.623 1.49734ZM198.093 32.6754C199.457 31.6405 200.125 31.4832 200.417 31.3879C203.182 30.4483 206.896 28.457 210.227 26.4707C213.373 24.6064 213.542 25.0406 213.909 24.9999C214.913 24.8926 212.112 26.2283 211.227 26.6807C199.668 32.5466 188.569 39.8117 178.336 47.502C171.75 52.4524 166.427 57.6738 160.769 63.0422C160.756 63.0523 160.742 63.0625 160.729 63.0726C156.246 67.3076 151.656 72.9085 148.413 75.396C148.792 74.1471 153.035 71.2818 151.287 71.51C150.956 71.5462 152.957 69.3262 154.189 68.0202C161.911 59.7573 170.274 52.2978 179.423 45.8029C185.36 41.5553 192.673 36.7717 198.093 32.6754ZM416.378 1.27173C422.773 0.517523 429.445 1.00747 434.321 1.18797C441.222 1.43937 446.605 0.87863 452.815 0.975327C454.241 0.994581 456.449 0.762711 456.817 1.07854C457.185 1.38142 455.023 1.52972 452.862 1.52976C452.846 1.53192 452.831 1.53408 452.815 1.53624C441.038 1.5298 429.122 1.86481 416.378 1.27173ZM256.357 9.33033C257.079 9.22107 257.971 8.35532 259.283 8.57834C259.705 8.65805 259.219 8.95907 257.297 9.48733C244.275 13.083 231.481 17.4116 218.839 22.9228C218.431 23.1009 218.063 23.0961 216.962 23.3348C227.411 18.4782 237.172 14.5258 247.618 11.5871C250.452 10.7909 253.464 9.77288 256.357 9.33033ZM277.193 4.55029C282.211 3.54285 282.844 4.20788 286.247 3.84109C279.121 5.43425 272.893 6.57571 267.65 6.36275C271.669 5.89552 274.384 5.12645 277.193 4.55029ZM342.764 0.134602C344.877 0.0652561 348.873 -0.317913 348.383 0.633539C348.245 0.86558 349.487 0.859219 350.499 0.743233C351.051 0.678783 351.373 0.569221 351.833 0.478983C358.458 1.11719 365.774 0.627268 372.721 0.756199C373.917 0.775528 375.756 0.78203 375.388 1.07206C375.158 1.24604 374.284 1.29117 372.95 1.29118C358.89 1.30947 344.853 1.33097 330.807 1.35113C324.63 1.36102 318.725 1.51103 312.696 1.81738C312.696 1.81306 312.696 1.80874 312.695 1.80443C312.009 1.83897 311.318 1.78968 309.949 1.7844C313.646 1.14005 318.098 0.722593 321.138 0.841408C324.374 0.962547 327.586 0.89592 330.806 0.842411C334.058 0.784929 337.27 0.696274 340.47 0.833477C341.804 0.891497 344.519 1.07197 344.703 0.582193C344.832 0.262384 343.725 0.165827 342.764 0.134602ZM341.712 0.118004C341.962 0.119946 342.349 0.121138 342.764 0.134602C342.3 0.149811 341.928 0.15044 341.712 0.118004Z" fill="var(--stroke-0, #14387a)"/>
</g>
</g>
</svg>
