<svg preserveAspectRatio="none" width="100%" height="100%" overflow="visible" style="display: block;" viewBox="0 0 14.7559 11.1138" fill="none" xmlns="http://www.w3.org/2000/svg">
<g id="Polygon 1">
<path d="M7.21058 0.532003L12.1153 9.40735H2.30581L7.21058 0.532003Z" fill="var(--fill-0, #7AD595)"/>
<path d="M8.97616 0.328617C9.55217 0.729475 9.47146 1.26498 9.70792 1.80147C10.2286 2.98238 11.1395 4.41575 11.7682 5.57043C12.2441 6.4444 12.7137 7.34011 13.1766 8.2144C13.2004 8.25922 13.1853 8.30216 13.196 8.3225C13.25 8.42461 13.3328 8.55842 13.4135 8.68993L14.7559 10.6146L12.1153 10.8906C11.9804 10.8967 11.8479 10.9023 11.7476 10.9002C11.2957 10.8909 10.5094 10.8962 10.0955 10.8643C9.91973 10.8508 9.73944 10.8451 9.67113 10.7642C9.6069 10.76 9.57185 10.8332 9.55508 10.8372C9.55489 10.8371 9.55469 10.837 9.5545 10.837C9.50049 10.8493 9.3641 10.798 9.334 10.8012C9.3295 10.8017 9.35721 10.8547 9.28418 10.8387C9.27768 10.8373 9.28369 10.8013 9.2222 10.8008C9.20619 10.8007 9.00055 10.8559 8.94178 10.8593C8.7462 10.8703 8.27913 10.8269 8.0453 10.8276C8.00954 10.8276 7.98894 10.8487 7.95118 10.8491C7.93167 10.8493 7.90242 10.8264 7.89642 10.8266C7.87012 10.8274 7.75519 10.9313 7.79644 10.7262C7.67646 10.7392 7.71181 10.807 7.70909 10.851C7.57884 10.8574 7.51606 10.7608 7.48205 10.8632C6.8415 10.8508 6.20096 10.8385 5.56042 10.8261C5.56023 10.8428 5.56004 10.8595 5.55984 10.8762C5.37105 10.8095 5.30628 10.9223 5.1985 10.8255C5.13204 10.8468 5.06558 10.8681 4.99912 10.8894C4.09969 10.8548 3.20138 10.8601 2.30581 10.8728L0 11.1138L1.02319 8.69853C1.40264 7.98828 1.77576 7.27707 2.16259 6.57734C2.19706 6.51496 2.23674 6.51656 2.29382 6.4138C2.35681 6.30033 2.40899 6.12061 2.49215 5.97114C2.56505 5.84 2.7015 5.66251 2.78703 5.51863C2.80628 5.48612 2.79981 5.45133 2.80198 5.44767C2.81484 5.42622 2.8466 5.44234 2.85921 5.4216C2.87423 5.39675 2.8681 5.35333 2.88573 5.32478C2.95145 5.21802 3.0095 5.09418 3.01771 5.0806C3.0576 5.01538 3.09622 5.01746 3.0996 5.01215C3.14441 4.93984 3.1015 4.95252 3.11333 4.93489C3.17486 4.84345 3.28105 4.81347 3.28786 4.6455C3.31136 4.66316 3.33485 4.68082 3.35835 4.69849C3.42832 4.60573 3.32388 4.63482 3.32299 4.60747C3.32309 4.59657 3.45111 4.38443 3.46156 4.36838C3.4981 4.31259 3.53282 4.32973 3.53605 4.32496C3.54392 4.3133 3.58643 4.14562 3.65747 4.08688C3.74158 4.0174 3.75267 4.16002 3.77779 4.1451C3.78204 4.14259 3.82637 4.04569 3.85483 4.04512C3.88564 4.04416 3.84071 4.1243 3.85112 4.12845C3.85828 4.13126 3.97988 4.02415 3.99791 4.06754C4.01882 4.10595 3.87732 4.26424 3.87129 4.311C3.8703 4.31873 3.91673 4.3288 3.9151 4.33521C3.908 4.36071 3.67854 4.77877 3.66143 4.79424C3.65529 4.76248 3.64916 4.73072 3.64303 4.69896C3.62523 4.72684 3.60742 4.75473 3.58962 4.78262C3.59778 4.73349 3.60595 4.68437 3.61412 4.63524C3.43099 4.61375 3.48078 4.88137 3.55116 4.93015C3.58382 4.95249 3.73467 4.88908 3.72851 5.02226C3.74615 5.01125 3.76379 5.00023 3.78143 4.98921C3.78501 4.94839 3.78859 4.90757 3.79217 4.86675C3.77094 4.88352 3.7497 4.90029 3.72847 4.91706C3.72255 4.90329 3.71662 4.88953 3.71069 4.87576C3.72794 4.80529 3.74518 4.73482 3.76242 4.66435C3.78749 4.63707 3.81448 4.66053 3.83237 4.64215C4.05617 4.41324 3.86396 4.537 3.97536 4.36773C4.00575 4.35156 4.03614 4.33539 4.06653 4.31922C3.99363 4.29057 4.07959 4.23583 4.10263 4.12488C4.11837 4.14836 4.13412 4.17183 4.14986 4.19531C4.21399 4.05159 4.47865 3.83467 4.31577 3.84267C4.34352 3.81695 4.37126 3.79124 4.39901 3.76552C4.39383 3.728 4.38866 3.69047 4.38349 3.65294C4.40605 3.6175 4.4286 3.58205 4.45116 3.54661C4.462 3.55238 4.47284 3.55815 4.48368 3.56392C4.46757 3.59323 4.45146 3.62253 4.43535 3.65183C4.48023 3.64796 4.52512 3.64409 4.57 3.64022C4.5765 3.61561 4.583 3.59101 4.5895 3.5664C4.50846 3.63989 4.52389 3.49248 4.49664 3.43967C4.52288 3.35446 4.60596 3.33667 4.62265 3.31246C4.6305 3.30108 4.60987 3.10456 4.68795 3.22028C4.71506 3.14001 4.74217 3.05973 4.76929 2.97946C4.7934 2.95554 4.81751 2.93162 4.84162 2.9077C4.85808 2.99763 5.01831 2.85191 4.96627 2.99573C4.92748 3.10316 4.86665 3.1013 4.84109 3.14832C4.81799 3.19068 4.83756 3.23064 4.81359 3.27739C4.65176 3.59141 4.50678 3.83994 4.33045 4.12567C4.29556 4.18209 4.28206 4.24348 4.25834 4.28123C4.23152 4.32381 4.22194 4.24659 4.20072 4.308C4.1785 4.37254 4.20413 4.40331 4.1962 4.41921C4.19123 4.42908 4.14491 4.44349 4.12932 4.4717C4.06528 4.5876 3.99984 4.77313 3.99057 4.78951C3.97996 4.80793 3.77231 5.12106 3.75881 5.13409C3.75158 5.14095 3.6526 5.06373 3.72838 5.19989C3.71807 5.22362 3.70777 5.24734 3.69746 5.27107C3.6778 5.25544 3.65813 5.23981 3.63847 5.22417C3.64688 5.40312 3.62627 5.33178 3.5616 5.46406C3.40683 5.78084 3.13732 6.22537 2.9587 6.56668C2.91886 6.64292 2.92897 6.68594 2.88163 6.77602C2.83755 6.85966 2.64071 7.03286 2.77398 7.04518C2.57933 7.17791 2.72321 7.29605 2.57236 7.33297C2.58073 7.35216 2.58911 7.37135 2.59749 7.39053C2.47982 7.45608 2.51759 7.51726 2.46479 7.63065C2.44207 7.67952 2.4057 7.5886 2.42708 7.72443C2.41155 7.73954 2.39602 7.75465 2.38049 7.76976C2.36676 7.75667 2.35304 7.74358 2.33931 7.73048C2.29415 7.84324 2.28202 7.84542 2.34876 7.86659C2.30968 7.91148 2.27059 7.95637 2.23151 8.00127C2.24773 8.0185 2.26396 8.03572 2.28019 8.05295C2.33129 8.04934 2.91369 6.86145 2.98465 6.69039C3.13368 6.52618 3.28757 6.11587 3.38249 5.96914C3.42051 5.91043 3.48003 5.9081 3.5345 5.82219C3.58896 5.73632 3.61023 5.60212 3.63492 5.55402C3.71698 5.39364 4.13851 4.6519 3.91337 5.19039C3.94318 5.1878 3.973 5.18522 4.00281 5.18263C4.04012 4.93983 4.04543 5.03815 4.14562 4.87493C4.18785 4.80625 4.23192 4.61179 4.32552 4.67573C4.27157 4.81679 4.16316 4.9384 4.10168 5.05301C4.0956 5.06437 4.06622 5.22406 4.01564 5.28664C3.96988 5.34303 3.89953 5.24792 3.93002 5.44247C3.77087 5.48651 3.83226 5.59674 3.82746 5.62895C3.81923 5.68464 3.76546 5.66153 3.73403 5.70439C3.6997 5.75103 3.71441 5.80433 3.71084 5.81131C3.67352 5.88066 3.47975 6.24219 3.4501 6.24729C3.44904 6.22786 3.44797 6.20843 3.44691 6.189C3.38084 6.27419 3.44373 6.2835 3.43642 6.31147C3.42615 6.32961 3.41587 6.34776 3.40559 6.36591C3.39878 6.3527 3.39197 6.33949 3.38516 6.32628C3.32661 6.43765 3.41073 6.37417 3.32338 6.52991C3.26787 6.62878 3.16996 6.70848 3.16768 6.71981C3.16699 6.72313 3.21208 6.70727 3.19345 6.74978C3.16257 6.82014 3.09788 6.93553 3.05287 6.92757C3.0401 6.96333 3.07869 6.981 3.07712 6.98582C3.07021 7.00686 2.90174 7.34146 2.87149 7.40137C2.78764 7.56733 2.67968 7.74403 2.58854 7.92369C2.57915 7.94215 2.56177 7.91745 2.5525 7.93603C2.53761 7.96586 2.49222 8.1361 2.4825 8.15991C2.45813 8.21926 2.36223 8.35785 2.36027 8.38692C2.35999 8.39105 2.41881 8.3605 2.39756 8.42247C2.37393 8.49126 2.34938 8.43363 2.34706 8.4368C2.26177 8.55623 2.24727 8.65338 2.20494 8.7437C2.1912 8.77296 2.1299 8.80708 2.11749 8.85222C2.11605 8.85741 2.15112 8.86493 2.15011 8.87025C2.1326 8.93915 2.04571 8.96465 2.02771 8.9887C1.98366 9.04756 2.04399 9.03559 2.04245 9.03908C2.0203 9.08226 1.97387 9.1312 1.94016 9.19685C1.93903 9.19904 1.93791 9.20123 1.93679 9.20341L1.6424 9.89832L2.30581 9.82898C2.63133 9.81915 2.8983 9.81635 3.2453 9.81945C3.28921 9.81982 3.34132 9.85299 3.34804 9.85303C3.36879 9.85278 3.36286 9.81381 3.42288 9.81468C3.54942 9.81668 3.66674 9.8148 3.79203 9.81555C3.81725 9.81571 3.82801 9.85182 3.84724 9.8526C3.91175 9.85485 4.13174 9.76029 4.13535 9.87795C4.26339 9.77379 4.34844 9.86356 4.45147 9.86257C4.69556 9.86032 5.07775 9.83909 5.32109 9.8526C5.37232 9.85549 5.39636 9.88564 5.42486 9.88727C5.47597 9.89026 5.76817 9.87342 5.78345 9.87817C5.81346 9.8873 5.79547 10.0201 5.94977 9.90439C6.04023 9.89614 6.02955 9.95063 6.04826 9.95357C6.19406 9.97546 6.33591 9.85385 6.30939 9.96527C6.47916 9.93502 6.58918 9.87344 6.65846 9.97762C6.65756 9.92678 6.7374 9.89628 6.83362 9.91565C6.73509 10.0011 6.74729 10.0556 6.50901 10.04C6.50525 10.0398 6.51242 10.003 6.50866 10.0028C6.47464 10.0003 6.40366 10.0188 6.34567 10.0168C6.28766 10.0148 6.31987 9.98971 6.29665 9.99019C6.2754 9.99069 6.27611 10.0259 6.24534 10.0264C6.14557 10.0278 6.05727 10.0374 6.00051 10.0381C5.96475 10.0384 5.92473 10.0075 5.89697 10.0075C5.78967 10.0078 5.56231 10.0319 5.42577 10.0285C5.39732 10.0278 5.40927 9.99306 5.34703 9.99019C5.33976 9.98985 5.31325 10.026 5.25876 10.0335C5.20425 10.041 5.16199 10.0231 5.12699 10.0268C5.09773 10.0299 5.10996 10.0621 5.04997 10.0641C4.99995 10.0657 4.43345 10.0426 4.40269 10.0374C4.35844 10.03 4.3374 9.9849 4.3104 9.99041C4.30564 9.99159 4.2976 10.0352 4.28113 10.0383C4.00953 10.0898 3.40839 10.0303 3.09803 10.0307C2.8278 10.031 2.56629 10.0356 2.30581 10.0416L1.30788 10.1459L1.7507 9.10058C1.91979 8.7772 2.08546 8.45426 2.26498 8.1172C2.26399 8.10332 2.26299 8.08944 2.262 8.07556C2.22975 8.13332 2.1975 8.19108 2.16525 8.24884C2.14709 8.23929 2.12893 8.22974 2.11078 8.22018C2.06467 8.29689 2.11287 8.30999 2.1397 8.32194C2.11282 8.3449 2.08594 8.36786 2.05906 8.39082C2.10782 8.45038 1.95944 8.62058 1.9045 8.72022C1.8687 8.785 1.84996 8.87526 1.82923 8.9084C1.78552 8.97845 1.74796 8.95523 1.74421 8.96056C1.7401 8.96662 1.72922 9.02118 1.71027 9.07823L1.23519 10.1997L2.30581 10.0878C2.33589 10.0822 2.36754 10.0781 2.39554 10.0786C2.51829 10.0807 2.53158 10.1485 2.69961 10.0909C2.91493 10.1261 3.1535 10.1084 3.38557 10.1026C3.34139 10.1652 3.54936 10.106 3.64315 10.107C4.21534 10.1131 4.91862 10.1399 5.49832 10.1646C5.57282 10.1677 5.6291 10.2046 5.67061 10.2034C5.69312 10.2028 5.70294 10.1593 5.7342 10.165C5.73969 10.1662 5.74351 10.2068 5.8017 10.2129C5.9465 10.2283 6.30719 10.1605 6.39847 10.2385C6.89354 10.2264 7.38861 10.2144 7.88368 10.2023C7.89612 10.2189 7.90855 10.2355 7.92099 10.2522C8.01504 10.1673 8.38683 10.2171 8.56815 10.2131C8.88725 10.206 9.29442 10.1796 9.57402 10.1767C9.63478 10.1761 9.68456 10.2002 9.74206 10.1997C9.76681 10.1995 9.79758 10.1682 9.82333 10.1681C10.1124 10.1657 10.5039 10.1979 10.7952 10.1971C11.2441 10.196 11.6752 10.1978 12.1153 10.1987L13.5241 10.0514L12.808 9.02459C12.7075 8.84187 12.6058 8.65747 12.5012 8.46911C11.4048 6.49535 10.2789 4.55281 9.21233 2.58459C9.19804 2.55821 9.23018 2.54215 9.21915 2.52168C9.15428 2.40066 8.98008 2.14663 8.9065 2.01013C8.84784 1.90139 8.80104 1.70322 8.7321 1.69274C8.87116 2.11736 9.10096 2.52017 9.30149 2.93139C9.31576 2.96061 9.28784 2.98065 9.28923 2.98446C9.31463 3.05494 9.33317 2.99132 9.38692 3.08418C9.40488 3.11521 9.46969 3.45774 9.54556 3.3708C9.54595 3.4612 9.79736 3.96098 9.86212 4.04845C9.8818 4.07501 9.8987 4.03916 9.90327 4.04407C9.92314 4.06535 9.89053 4.09794 9.90174 4.12059C9.93187 4.1808 10.0461 4.31318 10.0616 4.34176C10.0974 4.40741 10.1743 4.62115 10.2296 4.70349C10.2801 4.77898 10.3124 4.74176 10.354 4.80821C10.3867 4.86065 10.3201 4.82066 10.3765 4.9469C10.4044 5.00944 10.5443 5.20499 10.5724 5.25579C10.6005 5.30657 10.6075 5.37646 10.648 5.44548C10.7064 5.54493 10.8412 5.75696 10.9057 5.85534C10.9095 5.86122 10.9493 5.85874 10.957 5.87421C10.973 5.90622 10.9288 5.91833 10.938 5.94414C10.9471 5.96995 11.1781 6.37669 11.216 6.44646C11.2423 6.4945 11.2838 6.51478 11.2982 6.54138C11.3095 6.56228 11.2783 6.58242 11.2896 6.60382C11.2933 6.61039 11.3523 6.65069 11.3825 6.70687C11.411 6.75997 11.4949 6.97502 11.5074 6.99835C11.5157 7.01352 11.5295 6.98423 11.5537 7.02919C11.5756 7.07019 11.5605 7.11345 11.5728 7.13689C11.6016 7.19125 11.6604 7.23732 11.692 7.29436C11.7831 7.45834 11.7414 7.47037 11.7456 7.48088C11.7574 7.51004 11.7973 7.50223 11.803 7.51081C11.8268 7.54709 11.8843 7.63639 11.9043 7.66941C11.9291 7.71053 11.9067 7.74616 11.9313 7.79087C11.9497 7.82414 12.0183 7.87397 12.0618 7.94905C12.16 8.11822 12.2784 8.31849 12.3701 8.48726C12.3975 8.53756 12.3723 8.56152 12.38 8.57727C12.4204 8.66002 12.4783 8.68691 12.4905 8.71013C12.543 8.80934 12.6036 8.96435 12.6608 9.10591L13.2248 9.91459L12.1153 10.0306C12.0139 10.0183 11.9185 10.0076 11.8488 10.0056C11.7781 10.0036 11.4682 10.0308 11.2934 10.0259C11.2734 10.0254 11.2921 9.99906 11.2699 10.0032C11.2166 10.0131 11.2216 10.0668 11.1946 10.0652C11.1815 10.0642 11.1518 10.0339 11.1139 10.0309C10.917 10.0153 10.7817 10.0388 10.6919 10.0372C9.82962 10.0216 8.95032 10.0075 8.14505 10.0028C8.05527 10.0023 7.94393 10.0342 7.80838 10.0032C7.80421 9.98651 7.80004 9.96982 7.79587 9.95314C7.79113 9.96953 7.78638 9.98593 7.78164 10.0023C7.6281 10.0112 7.57008 10.0323 7.41329 10.0114C7.39979 10.0097 7.35856 9.93351 7.33305 10.0281C7.17775 9.95958 7.26297 10.0287 7.14768 10.035C7.0324 10.0414 6.92037 10.0203 6.8086 10.0155C6.74733 9.98165 7.00443 9.90349 7.02118 9.90374C7.04818 9.90404 7.07622 9.95107 7.10222 9.95357C7.17922 9.96105 7.25369 9.92373 7.27096 9.96571C7.37047 9.92132 7.24658 9.9435 7.25902 9.90352C7.32544 9.92006 7.39186 9.9366 7.45829 9.95314C7.49212 9.81716 7.85914 9.99449 7.83364 9.89095C7.86283 9.91168 7.89202 9.93241 7.92122 9.95314C8.04924 9.82325 8.12453 9.91471 8.2953 9.95335C8.28298 9.93674 8.27066 9.92013 8.25834 9.90352C8.26184 9.89659 8.41255 9.87002 8.35866 9.94079C8.51317 9.84755 8.50666 10.0026 8.64517 9.89052C8.72745 9.87614 8.67797 9.94126 8.82527 9.94014C8.91255 9.93951 9.0209 9.90546 9.11843 9.90309C9.1409 9.90265 9.15067 9.94035 9.17066 9.94035C9.19064 9.94034 9.2004 9.90337 9.22461 9.90244C9.27463 9.90043 9.33947 9.92639 9.37073 9.92389C9.39874 9.92175 9.43878 9.88914 9.50629 9.88402C9.74207 9.86589 9.67085 9.91246 9.70809 9.92822C9.7481 9.94498 9.77686 9.88362 9.85662 9.89074C9.86462 9.89149 9.84393 9.92972 9.86993 9.92822C9.89092 9.92704 9.90147 9.88548 9.97095 9.87773C9.99861 9.87461 10.4281 9.86571 10.4936 9.86495C10.5939 9.86383 10.8172 9.899 10.921 9.89875C10.961 9.89875 11.0038 9.86538 11.0463 9.8656C11.1871 9.86635 11.4125 9.86918 11.591 9.8708C11.7479 9.87227 12.0204 9.9424 12.1153 9.8841L12.9641 9.79538L12.5326 9.17675C12.5302 9.17537 12.5277 9.17413 12.5253 9.17304C12.4085 8.97959 12.4317 8.90411 12.4242 8.88884C12.4038 8.84754 12.3605 8.8471 12.3309 8.79716C11.9483 8.14999 11.4914 7.27181 11.1445 6.65031C10.3396 5.20875 9.51863 3.76574 8.73061 2.30825C8.71386 2.31244 8.69711 2.31662 8.68036 2.32081C8.76566 2.4974 8.8516 2.71284 8.93931 2.88524C9.05648 3.11536 9.30247 3.41684 9.29423 3.63769C9.24834 3.57533 9.22611 3.44471 9.17587 3.47503C9.23859 3.59718 9.30131 3.71933 9.36402 3.84148C9.38575 3.8248 9.40747 3.80812 9.4292 3.79143C9.5054 3.91304 9.57113 4.04418 9.64407 4.16816C9.65671 4.18972 9.66968 4.16234 9.68031 4.18132C9.69216 4.20257 9.66227 4.20024 9.66431 4.20432C9.69384 4.25828 9.72498 4.26229 9.72829 4.26903C9.73673 4.28637 9.70839 4.28492 9.72934 4.33678C9.76811 4.43303 9.85981 4.46661 9.75476 4.49702C9.77084 4.52612 9.78693 4.55523 9.80301 4.58433C9.83259 4.57782 9.86216 4.57131 9.89174 4.5648C9.88806 4.80051 10.1137 4.78359 10.0255 4.96143C10.0654 4.98199 10.1052 5.00256 10.145 5.02312C10.1298 5.05555 10.1145 5.08798 10.0993 5.12041C10.1231 5.11194 10.1468 5.10347 10.1706 5.095C10.2517 5.27964 10.3813 5.4523 10.4716 5.62177C10.5346 5.73983 10.5415 5.77264 10.6004 5.87545C10.7317 6.10409 10.5618 5.8989 10.621 6.11643C10.6422 6.09167 10.6634 6.06691 10.6846 6.04216C10.712 6.06849 10.7393 6.09482 10.7667 6.12115C10.7571 6.15531 10.7475 6.18946 10.7379 6.22362C10.9052 6.25915 10.849 6.37312 10.8564 6.38648C10.8625 6.39715 10.9511 6.39656 10.9575 6.54447C11.024 6.4449 11.007 6.63268 11.0125 6.64393C11.0179 6.65454 11.1122 6.77607 11.1411 6.83055C11.1639 6.87338 11.194 6.97505 11.2299 7.03775C11.2616 7.09311 11.2901 7.06998 11.2927 7.07387C11.3333 7.14115 11.2849 7.11166 11.3112 7.16201C11.3374 7.21236 11.3857 7.23602 11.3892 7.24808C11.3909 7.25418 11.3515 7.25241 11.3623 7.27868C11.3912 7.3493 11.4833 7.455 11.5245 7.53136C11.5391 7.55841 11.5329 7.60614 11.5487 7.63654C11.573 7.6831 11.618 7.68624 11.6318 7.71349C11.6365 7.72301 11.618 7.81062 11.6666 7.87996C11.6759 7.8931 11.8071 7.87435 11.6837 8.01397C11.7077 8.00624 11.7316 7.99851 11.7556 7.99079C11.9457 8.20833 11.808 8.37416 12.0246 8.3979C12.1064 8.58696 11.9776 8.49733 11.9792 8.52217C11.9803 8.53815 12.0293 8.58742 12.0319 8.59438C12.0364 8.60679 12.0158 8.6156 12.0228 8.62802C12.1528 8.85476 12.1335 8.73287 12.1969 8.79243C12.3475 8.93402 12.2986 9.13651 12.17 8.81644C12.1591 8.82245 12.1483 8.82846 12.1374 8.83447C12.1886 8.9025 12.2871 9.09251 12.1974 9.06045C12.1267 9.03521 11.9096 8.57523 11.9877 8.86055C12.0055 8.9253 12.0626 8.93235 12.0408 9.07357C12.0728 9.14129 12.1771 9.09594 12.1863 9.20652C12.2128 9.17285 12.2394 9.13917 12.2659 9.10549C12.3148 9.1474 12.3465 9.20584 12.3726 9.26521L12.6385 9.64653L12.1153 9.70122C12.0321 9.69365 11.952 9.6772 11.8923 9.68966C11.8563 9.6972 11.7265 9.88556 11.7568 9.69724C11.6962 9.70898 11.4109 9.67429 11.3579 9.69118C11.3451 9.69525 11.3285 9.79551 11.1441 9.76051C11.1312 9.74795 11.1184 9.73538 11.1056 9.72281C11.2743 9.6863 10.9763 9.64916 11.0573 9.55402C11.0848 9.59678 11.2186 9.62287 11.2401 9.64437C11.2769 9.68139 11.1674 9.7291 11.3069 9.71609C11.3949 9.55708 11.1434 9.63025 11.1818 9.47927C10.9986 9.54975 10.9803 9.4825 10.9388 9.4797C10.7615 9.46832 10.6499 9.48432 10.4827 9.4667C10.4419 9.49771 10.7447 9.54248 10.7823 9.5291C10.6442 9.63903 10.8818 9.644 10.9821 9.57872C10.9905 9.61194 10.9989 9.64517 11.0073 9.67839C10.8768 9.66038 10.7495 9.65113 10.6202 9.67839C10.6118 9.66597 10.6033 9.65355 10.5949 9.64112C10.6239 9.62242 10.6529 9.60371 10.6819 9.585C10.5744 9.55437 10.6389 9.65125 10.4956 9.56637C10.4912 9.60378 10.4868 9.6412 10.4823 9.67861C10.345 9.66619 10.2076 9.65376 10.0702 9.64134C9.99872 9.71636 9.73441 9.68842 9.78281 9.59129C9.67613 9.58443 9.80783 9.63612 9.70786 9.65976C9.66434 9.67001 9.5793 9.67289 9.55829 9.64676C9.56734 9.55426 9.6946 9.54278 9.73311 9.47927C9.70974 9.45878 9.1179 9.52481 9.17066 9.41665C9.1234 9.40364 9.14513 9.45937 9.05989 9.47363C8.82106 9.5134 8.45112 9.40326 8.2588 9.54145C8.48463 9.61836 8.55143 9.5369 8.72449 9.53365C8.83503 9.53153 9.509 9.51841 9.35845 9.61621C9.3832 9.60378 9.40796 9.59136 9.43272 9.57894C9.45774 9.60804 9.48276 9.63715 9.50779 9.66626C9.43727 9.67045 9.36675 9.67464 9.29624 9.67882C9.2794 9.64979 9.26256 9.62076 9.24573 9.59172C9.23796 9.61245 9.2302 9.63318 9.22243 9.65391C9.19274 9.65802 9.16305 9.66214 9.13335 9.66626C9.1417 9.64134 9.15004 9.61642 9.15838 9.5915C9.11262 9.58724 9.06685 9.58298 9.02109 9.57872C9.03341 9.61202 9.04573 9.64531 9.05805 9.67861C8.84254 9.68698 8.91553 9.66613 8.796 9.60386C8.70676 9.59749 8.85751 9.66149 8.6687 9.67774C8.44915 9.69662 8.59319 9.59488 8.30885 9.61664C8.30475 9.63325 8.30066 9.64986 8.29657 9.66647C8.23405 9.64986 8.17153 9.63325 8.10901 9.61664C8.11727 9.6373 8.12554 9.65795 8.1338 9.67861C8.00475 9.67061 7.82693 9.71003 7.78416 9.62899C7.91496 9.66801 7.91368 9.52651 7.87966 9.5005C7.80945 9.44713 6.77227 9.49678 6.57122 9.50028C6.31415 9.50479 6.11984 9.45946 5.88503 9.5291C6.04416 9.58622 6.60373 9.53943 6.70977 9.57894C6.72027 9.58281 6.71731 9.71252 6.78484 9.56659C7.0024 9.59134 7.26246 9.54999 7.53427 9.55424C7.52597 9.59158 7.51767 9.62892 7.50937 9.66626C7.34231 9.58685 7.18767 9.76127 7.20943 9.61621C7.17618 9.61621 7.14293 9.61621 7.10968 9.61621C7.10968 9.6412 7.10968 9.66619 7.10968 9.69118C7.05956 9.69118 7.00943 9.69118 6.95931 9.69118C6.95931 9.66619 6.95931 9.6412 6.95931 9.61621C6.9178 9.61621 6.87628 9.61621 6.83477 9.61621C6.83045 9.64112 6.82612 9.66604 6.8218 9.69096C6.69748 9.63921 6.27369 9.77758 6.45999 9.62877C6.40161 9.62877 6.34322 9.62877 6.28483 9.62877C6.28502 9.64705 6.28521 9.66532 6.2854 9.68359C6.2603 9.68605 6.2352 9.6885 6.21011 9.69096C6.21837 9.67442 6.22663 9.65788 6.2349 9.64134C6.11988 9.67097 6.01083 9.5839 5.93531 9.64112C5.98513 9.65362 6.03494 9.66611 6.08476 9.67861C5.98922 9.65487 5.8132 9.70405 5.79745 9.70418C5.74944 9.70442 5.72412 9.66748 5.6721 9.66561C5.62515 9.66401 5.63161 9.69239 5.62286 9.69139C5.36957 9.6625 5.4661 9.50882 5.34783 9.69074C5.33525 9.6659 5.32266 9.64105 5.31007 9.61621C5.29331 9.63693 5.27655 9.65766 5.25979 9.67839C5.18499 9.67644 5.11019 9.67449 5.03539 9.67254C5.06033 9.7036 5.08528 9.73466 5.11023 9.76571C4.9981 9.77957 4.94581 9.71731 4.93495 9.71588C4.90422 9.71225 4.89016 9.75134 4.88066 9.75141C4.42375 9.74803 4.70127 9.71362 4.47294 9.5668C4.39152 9.62442 4.47389 9.68218 4.48545 9.74079C4.3772 9.7133 4.34341 9.72953 4.22913 9.72628C4.1994 9.72539 4.16743 9.69377 4.14867 9.69334C4.13241 9.69297 4.08162 9.72657 4.04261 9.72671C3.97759 9.72696 3.89104 9.70693 3.80201 9.70743C3.72799 9.70793 3.50139 9.73166 3.34333 9.73191C3.27588 9.73191 3.29153 9.7038 3.27412 9.70374C3.26686 9.70374 3.2143 9.73741 3.17104 9.73754C2.88558 9.73815 2.59439 9.72432 2.30581 9.71935L1.8149 9.77066L2.03274 9.25644C2.06673 9.19736 2.10022 9.13817 2.13288 9.07882C2.25339 8.85998 2.35248 8.62469 2.47597 8.40692C2.50228 8.3606 2.51027 8.39724 2.52229 8.3773C2.52635 8.37041 2.49325 8.34114 2.54827 8.27743C2.56814 8.25441 2.57798 8.29895 2.59345 8.27407C2.60097 8.26195 2.5708 8.23837 2.60351 8.16134C2.6629 8.02131 2.74635 7.97452 2.75156 7.96198C2.76134 7.93828 2.73035 7.92966 2.74569 7.89958C2.8207 7.75249 2.88269 7.62933 2.95163 7.49916C2.9838 7.43836 3.20761 7.02028 3.22513 7.00021C3.26426 6.95527 3.29522 7.03433 3.32941 6.96787C3.32505 6.94155 3.3207 6.91523 3.31635 6.88891C3.28927 6.91194 3.26218 6.93496 3.2351 6.95798C3.29776 6.88803 3.32195 6.78282 3.35572 6.72405C3.362 6.71321 3.44367 6.62669 3.46926 6.57368C3.46792 6.60149 3.46659 6.62929 3.46525 6.6571C3.47869 6.65443 3.49213 6.65176 3.50557 6.64909C3.54852 6.53854 3.60901 6.42993 3.66928 6.32553C3.69097 6.28786 3.70614 6.31302 3.72819 6.27493C3.85685 6.05321 3.73294 6.05869 4.02601 5.93893C3.96999 6.00309 3.84519 6.28115 3.81805 6.31659C3.79912 6.34128 3.59456 6.36453 3.76645 6.40952C3.64676 6.62454 3.66702 6.39152 3.57402 6.60272C3.59464 6.60887 3.61526 6.61502 3.63587 6.62116C3.60866 6.6978 3.58929 6.7548 3.53325 6.77953C3.61458 6.84316 3.43052 7.05291 3.36421 7.1871C3.26824 7.38093 3.17194 7.60662 3.07223 7.7961C3.03785 7.86137 2.98267 7.8786 2.97831 7.88676C2.97202 7.89873 2.98427 7.94891 2.97143 7.97266C2.92356 8.06136 2.72346 8.30113 2.77161 8.41489C3.06168 7.88999 3.35176 7.36509 3.64183 6.84019C3.56356 6.88309 3.85289 6.34988 3.86985 6.32411C3.88549 6.30022 3.90325 6.33741 3.90912 6.33099C3.95219 6.28278 3.93566 6.21219 3.94534 6.19467C3.95272 6.18132 3.98759 6.1654 4.01339 6.11766C4.01815 6.10892 3.99837 6.09483 4.00348 6.08543C4.03771 6.02349 4.0718 5.9625 4.10605 5.90028C4.10834 5.8966 4.14785 5.89796 4.15658 5.8823C4.16528 5.86657 4.14306 5.83398 4.14516 5.82996C4.17284 5.78039 4.23995 5.70629 4.2663 5.65913C4.27535 5.64272 4.24648 5.64161 4.25686 5.62335C4.28861 5.56718 4.32255 5.61022 4.34975 5.5341C4.35885 5.50858 4.3242 5.49141 4.35343 5.44905C4.37414 5.41907 4.43251 5.45578 4.43748 5.45196C4.44396 5.44647 4.45691 5.31065 4.51615 5.29661C4.577 5.43244 4.56891 5.21397 4.52062 5.19758C4.55567 5.16029 4.59072 5.123 4.62576 5.08572C4.62282 5.06476 4.61987 5.04382 4.61692 5.02286C4.76383 4.87546 4.79276 4.75199 4.90339 4.58826C4.90876 4.58036 5.0137 4.44888 5.02561 4.46432C5.00451 4.56608 4.95784 4.65344 4.87735 4.68154C4.92168 4.82547 4.84519 4.78525 4.77612 4.93996C4.75306 4.99178 4.77686 5.00953 4.77404 5.0154C4.68053 5.21486 4.52133 5.52911 4.37443 5.61712C4.37471 5.6647 4.45497 5.53855 4.4419 5.59761C4.4348 5.62985 4.09047 6.30972 4.12147 6.04887C4.11166 6.0723 4.10185 6.09573 4.09204 6.11916C4.16169 6.18651 4.08222 6.28608 4.00757 6.22854C4.01851 6.24818 4.02944 6.26782 4.04037 6.28746C4.04312 6.31583 4.03723 6.34436 4.02285 6.38098C3.96766 6.52117 3.50938 7.28336 3.49823 7.3312C3.51706 7.34282 3.53588 7.35445 3.55471 7.36608C3.76651 7.03452 3.90268 6.67457 4.16515 6.33045C4.14099 6.3313 4.11684 6.33216 4.09268 6.33302C4.20072 6.19754 4.30877 6.06205 4.41681 5.92657C4.36219 6.10297 4.25063 6.36999 4.13178 6.52119C4.11064 6.54805 4.0973 6.51242 4.09049 6.51751C4.07273 6.53084 4.1061 6.57416 4.07517 6.6402C4.04423 6.70626 3.92467 6.84909 3.91744 6.86424C3.90363 6.89351 3.91168 6.99757 3.88445 7.04535C3.84861 7.10813 3.84096 7.04855 3.83328 7.06088C3.80121 7.11171 3.79059 7.16732 3.76555 7.20719C3.72838 7.26638 3.60359 7.36307 3.66027 7.45012C3.68805 7.40851 3.71583 7.3669 3.74361 7.32529C3.64163 7.57782 3.43678 7.70611 3.38709 7.98296C3.45502 8.08964 3.54833 7.88977 3.49981 8.07555C3.51477 8.04521 3.52972 8.01487 3.54467 7.98453C3.52814 7.96635 3.51162 7.94817 3.49509 7.92999C3.53778 7.88708 3.58047 7.84418 3.62316 7.80128C3.59698 7.80579 3.57081 7.8103 3.54463 7.81481C3.63075 7.62666 3.71292 7.43403 3.84528 7.42488C3.82375 7.40814 3.80223 7.39139 3.7807 7.37464C3.90202 7.22283 3.94117 6.91591 4.04639 7.03543C4.04382 7.02366 4.04125 7.01188 4.03868 7.0001C4.12151 6.91357 4.04333 6.92687 4.05825 6.8854C4.06253 6.87357 4.19941 6.69207 4.19011 6.80089C4.32608 6.62518 4.17071 6.61667 4.19459 6.56075C4.32332 6.4713 4.35448 6.19967 4.39906 6.34574C4.41279 6.32942 4.42651 6.31309 4.44024 6.29676C4.39798 6.19483 4.51622 6.18272 4.58084 6.13328C4.59476 6.11212 4.60868 6.09096 4.6226 6.0698C4.60537 6.04096 4.58814 6.01211 4.5709 5.98327C4.80677 5.84216 4.43961 5.72521 4.77001 5.78379C4.77846 5.80778 4.78691 5.83177 4.79535 5.85576C4.78386 5.89523 4.77236 5.93469 4.76087 5.97415C4.84643 5.83665 4.93199 5.69914 5.01755 5.56164C5.19475 5.42501 5.16673 5.27606 5.33866 5.1105C5.34159 5.08773 5.34452 5.06495 5.34745 5.04218C5.39986 5.096 5.35055 5.16339 5.45342 5.04395C5.50427 5.05704 5.45963 5.15142 5.40252 5.17412C5.38866 5.17954 5.4017 5.07543 5.34752 5.17061C5.31065 5.2353 5.42952 5.14653 5.30183 5.3308C5.3167 5.32958 5.33157 5.32835 5.34644 5.32713C5.33443 5.34812 5.32241 5.36911 5.3104 5.3901C5.27484 5.39502 5.23928 5.39993 5.20372 5.40485C5.21333 5.4733 5.24924 5.5286 5.17732 5.63315C5.17813 5.59446 5.10513 5.60722 5.07575 5.66239C5.09396 5.67245 5.11216 5.68252 5.13037 5.69258C5.0689 5.83148 5.04075 5.75624 5.02161 5.88939C5.00104 5.89241 4.98048 5.89542 4.95991 5.89844C4.98642 5.99138 4.90498 6.23462 4.83781 6.14493C4.89048 6.2549 4.77938 6.36333 4.68314 6.37329C4.69916 6.387 4.71519 6.40071 4.73121 6.41442C4.72065 6.44219 4.71008 6.46997 4.69952 6.49775C4.68064 6.50608 4.66177 6.5144 4.64289 6.52272C4.64374 6.54702 4.64459 6.57131 4.64544 6.59561C4.62121 6.5966 4.59698 6.59759 4.57275 6.59858C4.57828 6.63993 4.58382 6.68129 4.58935 6.72264C4.56495 6.73259 4.54056 6.74254 4.51616 6.75249C4.55298 6.77526 4.46313 6.95775 4.41084 6.9937C4.41366 7.01458 4.41648 7.03546 4.4193 7.05634C4.39729 7.05361 4.37527 7.05089 4.35326 7.04817C4.36158 7.06715 4.36991 7.08613 4.37823 7.10512C4.34979 7.12254 4.32135 7.13996 4.29291 7.15737C4.32402 7.30972 4.24468 7.27023 4.23217 7.29417C4.20896 7.33855 4.1818 7.51836 4.16517 7.54173C4.14853 7.56507 4.11018 7.55958 4.09608 7.57804C3.86303 7.88212 4.02343 7.79283 4.00014 7.86679C3.98763 7.90674 3.94402 7.9158 3.92976 7.94934C3.90523 8.00665 3.79303 8.30213 3.78049 8.31577C3.76228 8.33566 3.65267 8.20457 3.6474 8.29901C3.72092 8.34287 3.55721 8.46057 3.70284 8.44374C3.65738 8.50435 3.61192 8.56495 3.56646 8.62556C3.65934 8.66717 3.5575 8.7166 3.51368 8.80753C3.4515 8.93635 3.35435 9.25002 3.26897 9.18941C3.27335 9.23092 3.27773 9.27242 3.28211 9.31392C3.16919 9.46436 3.09483 9.63287 3.01308 9.7982L2.30581 8.59927C2.35306 8.59711 2.40036 8.59548 2.44777 8.59523C3.13726 8.59135 3.8853 8.61393 4.57154 8.63444C4.60453 8.63546 4.59978 8.66944 4.62354 8.6702C4.74833 8.67395 5.0727 8.64991 5.24751 8.65741C5.30351 8.65979 5.33077 8.69294 5.34852 8.69446C5.40879 8.69984 5.39457 8.65616 5.42233 8.65741C5.46612 8.65942 5.69771 8.69996 5.77748 8.70421C5.81697 8.70632 5.8637 8.67161 5.90994 8.68233C5.91392 8.6832 5.90657 8.71897 5.90994 8.7196C5.99422 8.72398 5.94353 8.69305 5.97204 8.69468C6.17535 8.70631 6.39267 8.70702 6.61323 8.7144C6.668 8.71627 6.75182 8.74149 6.79884 8.74387C6.81677 8.74471 6.78461 8.71757 6.84659 8.71981C6.86782 8.72058 6.87508 8.75588 6.89905 8.75817C7.00232 8.7678 7.03688 8.65438 7.12564 8.7456C7.29695 8.7396 7.59514 8.71047 7.75145 8.70985C7.78842 8.70974 7.80643 8.73059 7.84167 8.73022C7.86667 8.72996 7.91068 8.69767 7.94968 8.69728C7.9887 8.69691 8.05028 8.72766 8.12531 8.72653C8.2043 8.7254 8.30252 8.70714 8.32033 8.70725C8.34183 8.70725 8.35186 8.74609 8.37336 8.7456C8.43838 8.74435 8.61247 8.70617 8.69625 8.70205C8.78627 8.69767 8.84031 8.71651 8.87107 8.71613C8.89956 8.71561 8.93278 8.68284 8.94579 8.68255C8.96604 8.68205 8.97082 8.72035 8.99653 8.72003C9.03853 8.71941 9.08184 8.69532 9.14483 8.69468C10.1492 8.68416 11.1363 8.69945 12.1153 8.72245L11.5159 9.73862C11.4572 9.62628 11.3987 9.51399 11.3403 9.40176C11.2836 9.29257 11.2264 9.24471 11.1495 9.0801C11.1183 9.01335 11.1679 9.02133 11.1336 8.97488C11.1183 8.95419 11.0943 8.97487 11.0773 8.94737C11.0027 8.82575 10.9476 8.6664 10.9173 8.61258C10.9054 8.59121 10.8609 8.58378 10.8362 8.54006C10.6516 8.21433 10.446 7.82187 10.2458 7.47222C10.1398 7.28708 9.96781 7.01312 9.84731 6.79997C9.51431 6.2111 9.16948 5.57021 8.86801 5.03192C8.41293 4.21904 7.93593 3.42339 7.52013 2.5911C7.65572 3.01305 7.9484 3.52793 8.17449 3.95616C8.82771 5.193 9.59136 6.47227 10.283 7.72761C10.5236 8.16437 10.8294 8.71372 11.0762 9.20111C11.0874 9.2232 11.136 9.25498 11.1594 9.30321C11.1643 9.31349 11.1891 9.46084 11.2117 9.50265C11.2669 9.42066 11.2883 9.62148 11.3179 9.67079C11.3362 9.70107 11.3721 9.74297 11.4111 9.79655L12.1153 8.60268C12.0461 8.6113 11.9639 8.61665 11.8768 8.60389C11.7228 8.58138 11.7653 8.54752 11.7568 8.54539C11.7023 8.53166 11.6833 8.58624 11.6415 8.59176C11.471 8.61377 10.5937 8.58206 10.3488 8.58006C10.2855 8.57956 10.2838 8.54487 10.2695 8.54474C10.2318 8.54451 10.178 8.57877 10.1175 8.57854C10.0085 8.57804 9.88289 8.5453 9.82287 8.54517C9.67932 8.5448 9.40693 8.58343 9.22036 8.58418C9.1679 8.5844 9.17111 8.5483 9.14736 8.54842C9.0428 8.54906 8.77048 8.5916 8.64069 8.59198C8.42987 8.5926 8.21302 8.56926 7.9987 8.58114C7.98511 8.56504 7.97153 8.54893 7.95795 8.53282C7.93652 8.54972 7.91509 8.56662 7.89367 8.58353C7.5313 8.57065 7.16242 8.60692 6.80206 8.60454C6.76054 8.60429 6.55499 8.57347 6.52072 8.57334C6.49221 8.57334 6.46415 8.61324 6.42189 8.60736C6.36268 8.5992 6.41839 8.52323 6.32168 8.54496C6.29567 8.55083 6.32089 8.58336 6.26865 8.59349C6.25139 8.59687 5.91647 8.61004 5.89846 8.60779C5.86846 8.604 5.8417 8.53432 5.83395 8.53282C5.7937 8.52496 5.79542 8.57843 5.76841 8.58331C5.68873 8.59791 5.58462 8.56194 5.57167 8.56272C5.41511 8.5726 5.12245 8.61529 4.95814 8.59003C4.93541 8.5865 4.93814 8.54668 4.93415 8.54539C4.9084 8.53714 4.8924 8.58248 4.86791 8.58353C4.73612 8.58865 4.52973 8.55813 4.39718 8.55037C4.38191 8.54953 4.34969 8.57134 4.32245 8.56922C4.1684 8.55697 4.21837 8.52197 4.20962 8.52047C4.18886 8.51676 4.15236 8.55535 4.09713 8.55774C3.95483 8.56412 3.68195 8.55858 3.5294 8.55557C3.41511 8.5532 3.41683 8.509 3.40933 8.50812C3.39331 8.50653 3.34878 8.54182 3.27354 8.54582C3.12877 8.5537 3.14526 8.51897 3.08575 8.52047C3.08075 8.52047 3.08945 8.55446 3.02342 8.55796C2.89586 8.5647 2.60933 8.53129 2.4728 8.53304C2.42028 8.53367 2.40799 8.56643 2.35422 8.56706C2.34048 8.56724 2.32394 8.56647 2.30581 8.56505L3.04303 9.81475C3.09509 9.7358 3.18337 9.62759 3.18945 9.61642C3.19151 9.6127 3.16312 9.58612 3.17522 9.56423C3.18853 9.54016 3.2186 9.52586 3.22841 9.50785C3.28444 9.40539 3.32416 9.19748 3.4149 9.3115C3.40392 9.26268 3.39294 9.21386 3.38196 9.16504C3.50607 8.95417 3.60934 8.73977 3.72065 8.5244C3.7457 8.47598 3.79001 8.44848 3.81118 8.40761C3.83233 8.36675 3.89358 8.16876 3.90929 8.13869C3.93736 8.08505 4.09982 7.7819 4.12313 7.74591C4.16857 7.67559 4.25644 7.63156 4.26337 7.59653C4.26889 7.56843 4.22927 7.57534 4.24666 7.52552C4.27677 7.43929 4.38601 7.32484 4.39876 7.30046C4.40422 7.29006 4.37221 7.29749 4.42387 7.20037C4.45166 7.14801 4.49061 7.13317 4.50091 7.11429C4.50402 7.10837 4.46097 7.09604 4.52285 6.99618C4.56565 6.92726 4.61183 6.9133 4.61605 6.90592C4.62242 6.89486 4.60588 6.85052 4.63176 6.80627C4.69245 6.70294 4.83443 6.53116 4.89221 6.43309C4.9034 6.41413 4.86179 6.39969 4.90773 6.32482C4.94061 6.27127 4.96552 6.29757 4.9781 6.27767C4.99798 6.24609 4.98783 6.17704 5.02882 6.1057C5.08043 6.01593 5.49066 5.36428 5.51986 5.33497C5.53948 5.31523 5.55491 5.2883 5.57774 5.28577C5.58798 5.30442 5.59823 5.32306 5.60847 5.34171C5.49629 5.41422 5.5824 5.40753 5.57134 5.43712C5.55525 5.47995 5.46468 5.6248 5.45873 5.66866C5.45668 5.68432 5.50656 5.67343 5.48564 5.75212C5.46313 5.83652 5.38507 5.83647 5.45047 5.91118C5.30155 5.96632 5.34197 6.12067 5.43507 6.01296C5.48703 5.95283 5.88838 5.30309 5.96876 5.16953C6.03389 5.06122 6.12399 4.84075 6.20534 4.70828C6.25321 4.63044 6.36617 4.436 6.40503 4.46834C6.44969 4.40044 6.36496 4.45159 6.36716 4.43338C6.37179 4.3953 6.52399 4.19046 6.54596 4.14792C6.65445 3.93814 6.74997 3.65056 6.91573 3.48014C6.9222 3.49591 6.92867 3.51168 6.93514 3.52745C6.93156 3.58434 6.78541 3.77673 6.82817 3.83122C6.99728 3.5252 7.16639 3.21919 7.33551 2.91317C7.28486 2.89261 7.49525 2.51341 7.52662 2.50731C7.54595 2.52669 7.56528 2.54607 7.58461 2.56545C7.37875 2.73168 7.50481 2.77623 7.36393 2.88638C7.33066 2.94454 7.37846 2.94785 7.36972 2.98073C7.28259 3.30796 7.28915 2.94223 7.20152 3.18116C7.29329 3.14537 7.21381 3.33679 7.17617 3.42144C7.16754 3.44068 7.02012 3.67443 7.00515 3.70359C6.92105 3.86741 6.79837 4.16077 6.67974 4.30408C6.60646 4.42816 6.60738 4.51926 6.55322 4.63875C6.5121 4.72944 6.49825 4.68928 6.47531 4.72999C6.42713 4.81538 6.49557 4.89006 6.34798 4.88022C6.33044 4.94646 6.31289 5.0127 6.29535 5.07894C6.27715 5.06888 6.25894 5.05881 6.24073 5.04875C6.22054 5.08529 6.20035 5.12182 6.18016 5.15836C6.19236 5.17914 6.20456 5.19991 6.21677 5.22069C6.12784 5.32291 6.11075 5.25028 6.04723 5.24346C6.02985 5.26655 6.01246 5.28964 5.99508 5.31274C6.02394 5.35399 6.0528 5.39525 6.08165 5.43651C6.01662 5.54658 5.95158 5.65665 5.88654 5.76672C5.8644 5.76393 5.84226 5.76114 5.82012 5.75834C5.83814 5.76861 5.85615 5.77886 5.87416 5.78913C5.77322 5.9806 5.67228 6.17207 5.57133 6.36354C5.57259 6.43001 5.76236 6.13871 5.77681 6.1167C5.85709 5.99418 6.01552 5.63857 6.08045 5.67388C6.0761 5.56774 6.22029 5.33513 6.31932 5.2927C6.25342 5.40374 6.18752 5.51477 6.12162 5.62581C6.14532 5.63414 6.16902 5.64247 6.19272 5.65081C6.02749 5.74322 6.02092 5.76647 6.0236 5.95682C5.99445 5.94089 5.9653 5.92495 5.93614 5.90902C5.98151 6.06578 5.71144 6.14931 5.83345 6.22341C5.79365 6.27154 5.75385 6.31966 5.71405 6.36779C5.66517 6.49219 5.86072 6.36513 5.57211 6.79846C5.55218 6.82831 5.52399 6.80421 5.50017 6.85248C5.49333 6.86641 5.49664 6.96969 5.40969 7.11565C5.3961 7.13843 5.36754 7.12494 5.35074 7.14708C5.3117 7.19807 5.30507 7.33894 5.24394 7.23953C5.09634 7.44537 5.21974 7.39445 5.211 7.47877C5.2051 7.53492 5.15755 7.49669 5.14771 7.54268C5.13557 7.5996 5.20837 7.59314 5.0761 7.77484C5.0846 7.75095 5.0931 7.72706 5.1016 7.70317C5.0811 7.70622 5.0606 7.70927 5.0401 7.71232C5.01311 7.84284 4.9684 7.80439 5.02037 7.90168C4.93949 7.96271 4.89789 8.03119 4.84325 8.14557C4.73715 8.36781 4.8854 8.30575 4.63215 8.48636C4.62666 8.53526 4.62118 8.58416 4.61569 8.63306C4.54485 8.67929 4.53068 8.6024 4.46798 8.69517C4.5959 8.66614 4.45084 8.85482 4.50801 8.93185C4.48778 8.92544 4.46756 8.91903 4.44734 8.91262C4.43529 8.93442 4.42324 8.95622 4.41119 8.97802C4.42576 8.98616 4.44033 8.99429 4.45489 9.00243C4.42791 9.02542 4.40093 9.04841 4.37395 9.0714C4.37636 9.10124 4.37877 9.13107 4.38118 9.1609C4.3308 9.17993 4.28043 9.19896 4.23006 9.21798C4.21552 9.23937 4.20098 9.26075 4.18644 9.28214C4.21213 9.28702 4.23781 9.29191 4.2635 9.29679C4.24022 9.32174 4.21694 9.34669 4.19367 9.37164C4.24798 9.35765 4.27811 9.40196 4.22718 9.49154C4.18517 9.56547 4.15702 9.44049 4.09958 9.61761C4.09561 9.63 4.13781 9.67911 4.06245 9.83486C3.97206 10.0217 3.98228 9.9123 3.96308 9.94389C3.95936 9.95011 3.95547 10.0203 3.93063 10.0743C3.91655 10.1049 3.87929 10.1214 3.8772 10.1253C3.86815 10.144 3.89575 10.1662 3.88295 10.1919C3.87248 10.2129 3.85897 10.235 3.84436 10.2576L2.30581 7.6495C2.36274 7.6535 2.4236 7.66102 2.47222 7.65983C2.50473 7.65908 2.53531 7.63842 2.54982 7.63817C2.57232 7.63793 2.60087 7.66949 2.62362 7.66937C2.70765 7.66871 2.83518 7.56398 2.8742 7.70945C2.95497 7.57568 3.12419 7.73741 3.11181 7.6477C3.32766 7.68156 3.90338 7.5715 3.8865 7.72224C4.00875 7.59334 3.99783 7.68669 4.04903 7.68475C4.1063 7.68262 4.07664 7.65762 4.12215 7.65875C4.22843 7.66138 4.32997 7.67212 4.43575 7.67262C4.41914 7.69327 4.40253 7.71393 4.38593 7.73459C4.49696 7.74121 4.45873 7.69314 4.572 7.68388C4.78032 7.667 4.69253 7.70536 4.72329 7.7595C4.71503 7.70723 4.96068 7.71536 4.98569 7.72224C5.0006 7.72643 4.93524 7.7938 5.08566 7.77207C5.07744 7.75134 5.06921 7.73061 5.06098 7.70989C5.12952 7.73824 5.31567 7.70226 5.34726 7.70924C5.36177 7.71249 5.43935 7.87966 5.51037 7.74737C5.51894 7.7681 5.52751 7.78883 5.53608 7.80956C5.61494 7.78464 5.6938 7.75972 5.77266 7.7348C5.78524 7.77214 5.79783 7.80948 5.81042 7.84682C5.83545 7.84682 5.86047 7.84682 5.88549 7.84682C5.86889 7.81367 5.85228 7.78052 5.83567 7.74737C5.99019 7.76237 6.17896 7.7101 6.21079 7.82191C6.24389 7.80118 6.27699 7.78045 6.31008 7.75972C6.33162 7.79692 6.35317 7.83411 6.37471 7.87131C6.52796 7.86193 6.53049 7.83706 6.63527 7.79742C6.63118 7.82646 6.62708 7.85549 6.62299 7.88453C6.70027 7.84376 6.84135 7.8058 6.95288 7.80067C7.00591 7.79831 7.09695 7.83832 7.10945 7.83469C7.12209 7.83087 7.24644 7.67367 7.25994 7.80977C7.443 7.7495 7.52359 7.81106 7.59787 7.80956C7.64611 7.80855 7.66813 7.77588 7.72264 7.7725C7.80066 7.76763 7.87918 7.78342 7.9242 7.78117C7.94996 7.7798 7.95477 7.74794 7.97253 7.74694C8.05648 7.74208 8.00729 7.77463 8.09581 7.7725C8.10397 7.77214 8.16867 7.73328 8.24158 7.73827C8.28235 7.74103 8.38783 7.78474 8.39712 7.78464C8.43838 7.78389 8.4054 7.6965 8.54645 7.79742C8.54236 7.78081 8.53827 7.7642 8.53417 7.74759C8.70873 7.70544 8.73629 7.77951 8.77155 7.78464C8.77605 7.78506 8.81855 7.75643 8.84398 7.76037C8.88693 7.76711 8.90426 7.80631 8.91377 7.80804C8.94728 7.81404 9.06015 7.7968 9.13393 7.83469C9.11842 7.72314 9.37694 7.68347 9.43421 7.80977C9.47997 7.78486 9.52573 7.75994 9.57149 7.73502C9.59219 7.75582 9.61289 7.77662 9.63359 7.79742C9.64618 7.77669 9.65877 7.75597 9.67136 7.73524C9.73805 7.78088 9.80474 7.82653 9.87143 7.87218C9.87567 7.82646 9.87992 7.78074 9.88417 7.73502C9.90284 7.74022 9.92151 7.74542 9.94018 7.75062C9.95476 7.78695 9.96934 7.82328 9.98392 7.85961C10.0073 7.85267 10.0306 7.84574 10.0539 7.83881C10.0597 7.81252 10.0655 7.78623 10.0713 7.75994C10.1967 7.72963 10.1323 7.98038 10.3713 7.75994C10.4085 7.78067 10.4457 7.80139 10.4829 7.82212C10.5249 7.72124 10.6036 7.78233 10.6671 7.77099C10.7119 7.76299 10.7094 7.72291 10.7704 7.72202C10.8314 7.72114 10.8293 7.75947 10.834 7.75972C10.8838 7.76208 10.9213 7.72829 10.9578 7.73502C10.9633 7.73602 10.977 7.78153 11.0235 7.78442C11.07 7.7873 11.0981 7.73889 11.1674 7.74802C11.2029 7.75265 11.2131 7.791 11.2446 7.79439C11.3947 7.8109 11.5458 7.61671 11.6583 7.84704C11.6837 7.81786 11.8677 7.71571 11.9464 7.72159C12.0689 7.73097 12.0217 7.77615 12.0704 7.78442C12.0742 7.78511 12.0873 7.7808 12.1153 7.77723L10.6886 10.1958C10.675 10.1771 10.6569 10.1495 10.6357 10.1084C10.6272 10.0921 10.6069 10.1082 10.6054 10.106C10.5479 10.001 10.453 9.78763 10.3925 9.67073C10.3872 9.66026 10.2952 9.64079 10.3284 9.50326C10.1919 9.40217 10.1839 9.07397 9.99213 8.94709C9.97649 8.92345 9.98216 8.88112 9.97535 8.87059C9.91632 8.78006 9.86784 8.85198 9.84897 8.5841C9.82404 8.62041 9.76536 8.58773 9.72904 8.51582C9.67443 8.4077 9.7803 8.44743 9.72799 8.36519C9.70985 8.37522 9.6917 8.38524 9.67356 8.39527C9.61411 8.17242 9.51501 8.17632 9.40595 7.98001C9.36677 7.90937 9.34926 7.78272 9.34006 7.7658C9.33634 7.75935 9.24987 7.7062 9.24546 7.699C9.22116 7.65814 9.22835 7.62351 9.20862 7.58755C9.14349 7.46868 9.00836 7.35857 9.12583 7.32708C9.08599 7.30651 9.04616 7.28595 9.00632 7.26538C9.04855 7.08117 8.84556 7.07305 8.93845 6.98801C8.90415 6.9782 8.86984 6.96839 8.83554 6.95858C8.55464 6.42385 8.27374 5.88912 7.99284 5.35439C7.94674 5.35243 7.83161 5.11518 7.83044 5.10039C7.82475 5.03269 7.93162 5.04847 7.85323 4.94721C7.81352 4.95315 7.77381 4.9591 7.7341 4.96504C7.64645 4.83177 7.71622 4.88061 7.70819 4.81333C7.69144 4.79262 7.66998 4.81416 7.65095 4.78411C7.54763 4.62119 7.35544 4.27627 7.25151 4.09312C7.23053 4.05619 7.25752 4.0486 7.25121 4.03702C7.23345 4.00541 7.16874 3.95943 7.13353 3.89576C6.91614 3.50187 6.62477 2.93451 6.43099 2.52414C6.41786 2.49624 6.44451 2.47716 6.4359 2.45821C6.42383 2.43201 6.36972 2.3885 6.35749 2.36068C6.3459 2.33453 6.35871 2.30659 6.34649 2.2785C6.29081 2.14983 6.1635 2.00582 6.15509 1.83988C6.1544 1.82592 6.19346 1.62561 6.19928 1.61835C6.2339 1.5755 6.37129 1.6584 6.3262 1.42244C6.48193 1.56954 6.5519 1.45803 6.47294 1.19879C6.54995 1.30814 6.62697 1.41749 6.70399 1.52684C6.71603 1.52041 6.72807 1.51397 6.74011 1.50754C6.74078 1.36888 6.7024 1.25289 6.61885 1.08878C6.63269 1.08769 6.64653 1.0866 6.66037 1.08551C6.79427 1.19724 6.89934 1.36322 7.03463 1.42989C7.00263 1.24014 6.97064 1.05039 6.93864 0.860643C6.95175 0.863759 6.96486 0.866875 6.97797 0.869991C7.04272 0.933643 7.14797 1.09268 7.20406 1.14426C7.41812 1.34135 7.14748 0.899495 7.23775 0.946756C7.37695 1.20282 7.51614 1.45888 7.65534 1.71494C7.69647 1.70388 7.25413 0.667329 7.36897 0.617063C7.4206 0.693182 7.47224 0.769301 7.52388 0.84542C7.53189 0.794351 7.53989 0.743283 7.54789 0.692215C7.56212 0.697204 7.57635 0.702194 7.59058 0.707184C7.68688 0.830531 7.78319 0.953878 7.87949 1.07723C7.63056 0.677963 7.54068 0.478165 7.70478 0.258895C7.7165 0.266973 7.72823 0.27505 7.73995 0.283127C7.65247 0.447765 7.92909 0.843853 8.07984 1.05228C8.09472 0.984595 7.95504 0.804912 7.95613 0.75002C7.95652 0.734421 8.00703 0.760155 8.00617 0.72499C8.00373 0.633191 7.8833 0.302819 7.95303 0.321966C7.99787 0.334331 8.30819 0.801506 8.35786 0.898635C8.28656 0.646023 8.17432 0.40717 8.11393 0.147672C8.28084 0.240293 8.45865 0.305755 8.60632 0.561592C8.69638 0.614676 8.45841 0.0318382 8.47679 0.00510967C8.55637 0.0847584 8.63596 0.164407 8.71554 0.244056C8.664 0.167969 8.61246 0.0918818 8.56093 0.0157949C8.5699 0.0105299 8.57887 0.00526494 8.58785 0C8.74477 0.184157 8.92723 0.331143 9.05322 0.57154C9.09715 0.537264 9.01383 0.397809 8.97616 0.328617ZM6.84308 4.26923C6.88566 4.28651 6.83099 4.36996 6.80313 4.41857C6.81447 4.41522 6.82582 4.41187 6.83716 4.40852C6.77178 4.50897 6.64882 4.69527 6.72233 4.74532C6.69071 4.82528 6.64156 4.75504 6.62059 4.77487C6.61232 4.78259 6.59771 4.90168 6.50692 4.95323C6.49687 4.97186 6.48683 4.99048 6.47679 5.0091C6.50022 5.02673 6.52365 5.04436 6.54708 5.06198C6.50197 5.07076 6.45685 5.07953 6.41173 5.0883C6.55544 4.81541 6.69915 4.54252 6.84286 4.26964C6.84293 4.2695 6.843 4.26937 6.84308 4.26923ZM5.38923 6.97753C5.32058 7.06788 5.21474 7.20591 5.30115 7.21397C5.33179 7.14985 5.36244 7.08574 5.39308 7.02162C5.3918 7.00692 5.39051 6.99223 5.38923 6.97753ZM9.85834 7.9465C9.95212 8.02478 10.0385 7.95707 10.1835 7.9712C10.1833 7.95466 10.1831 7.93812 10.183 7.92158C10.1236 7.96129 9.96685 7.93487 9.85834 7.9465ZM7.92887 1.6858C7.94424 1.67069 7.95961 1.65557 7.97497 1.64046C8.01215 1.75701 7.95003 1.73987 7.91162 1.82722C7.90932 1.8325 7.9281 1.8406 7.92724 1.84241C7.91719 1.86343 7.88535 1.8704 7.87551 1.88897C7.85658 1.9248 7.86233 1.96571 7.82685 2.02811C7.79934 2.07632 7.76493 2.0579 7.75637 2.07546C7.74917 2.09047 7.76348 2.28655 7.67164 2.35689C7.49687 2.49061 7.89189 1.73566 7.92887 1.6858ZM8.28214 1.19841C8.27282 1.21603 8.26349 1.23365 8.25416 1.25128C8.23065 1.1698 8.18012 1.28009 8.13828 1.35838C8.08926 1.32815 8.20163 1.17569 8.22728 1.09386C8.24557 1.12871 8.26385 1.16356 8.28214 1.19841ZM6.9549 3.3452C6.9875 3.27409 7.04406 3.3202 7.0612 3.33338C7.04919 3.35512 7.03718 3.37685 7.02517 3.39858C7.00175 3.38079 6.97833 3.36299 6.9549 3.3452ZM7.21686 2.81967C7.24781 2.86449 7.18457 3.02302 7.14925 3.09522C7.14756 3.09829 7.13479 3.06605 7.10952 3.11694C7.10195 3.13224 7.10609 3.32612 7.0272 3.24036C7.09038 3.1002 7.15356 2.96003 7.21675 2.81987C7.21678 2.8198 7.21682 2.81973 7.21686 2.81967ZM7.32481 2.68391C7.32277 2.71925 7.32074 2.75458 7.31871 2.78992C7.29069 2.79328 7.26268 2.79664 7.23466 2.8C7.24717 2.76542 7.25967 2.73085 7.27218 2.69627C7.28972 2.69215 7.30726 2.68803 7.32481 2.68391ZM8.32644 4.77541C8.3086 4.79375 8.29076 4.81208 8.27292 4.83042C8.27369 4.86285 8.43463 4.93366 8.43128 4.88494C8.39633 4.84843 8.36139 4.81192 8.32644 4.77541ZM8.08579 4.23377C8.08253 4.20235 8.07928 4.17092 8.07602 4.1395C8.0235 4.13032 7.97098 4.12114 7.91845 4.11195C7.9642 4.25265 8.01072 4.40354 8.10585 4.32249C8.12193 4.35159 8.13801 4.38069 8.1541 4.40979C8.09624 4.40978 8.08346 4.42114 8.09742 4.51285C8.16829 4.49543 8.1804 4.59155 8.24377 4.6742C8.21114 4.60664 8.17851 4.53908 8.14587 4.47152C8.15675 4.46551 8.16762 4.4595 8.17849 4.45349C8.25533 4.60182 8.22392 4.38205 8.12807 4.31073C8.1384 4.29523 8.14873 4.27973 8.15906 4.26423C8.13464 4.25408 8.11021 4.24393 8.08579 4.23377ZM6.52244 8.35775C6.54314 8.37024 6.56384 8.38274 6.58454 8.39523C6.66476 8.23249 6.50143 8.38687 6.38515 8.25808C6.42357 8.35591 6.24631 8.35183 6.23616 8.3584C6.25655 8.39133 6.27695 8.42427 6.29734 8.4572C6.37237 8.42405 6.44741 8.3909 6.52244 8.35775ZM7.10922 8.46999C7.03745 8.38882 7.39004 8.38385 7.50833 8.40173C7.5371 8.40613 7.58836 8.4507 7.60911 8.44507C7.6217 8.4286 7.63429 8.41213 7.64688 8.39567C7.66179 8.45258 7.89278 8.38859 7.98377 8.35796C7.99235 8.37869 8.00092 8.39942 8.00949 8.42015C8.04266 8.41192 8.07583 8.40368 8.10901 8.39545C8.10484 8.41611 8.10066 8.43676 8.09649 8.45742C8.12159 8.43257 8.14669 8.40773 8.17179 8.38288C8.27033 8.35525 8.20957 8.46786 8.2836 8.43272C8.36587 8.3937 8.23105 8.32664 8.23355 8.28299C8.16677 8.29425 8.01493 8.31945 7.94716 8.3207C7.90824 8.32137 7.95235 8.24317 7.78462 8.33305C7.74785 8.3121 7.71108 8.29116 7.67431 8.27021C7.60682 8.30351 7.53932 8.3368 7.47183 8.3701C7.45924 8.34114 7.44665 8.31217 7.43407 8.28321C7.42686 8.27868 7.27077 8.34444 7.27911 8.3662C7.21588 8.31083 7.08606 8.30097 6.94933 8.29816C6.93616 8.31391 6.923 8.32965 6.90984 8.3454C7.04209 8.31139 6.95192 8.36206 6.99134 8.3922C7.01409 8.40958 7.08371 8.44372 7.10922 8.46999ZM8.82766 5.55113C8.65841 5.39095 8.77594 5.48309 8.65984 5.27299C8.6352 5.30576 8.61056 5.33852 8.58592 5.37128C8.70284 5.44152 8.75697 5.63346 8.82777 5.55134C8.82774 5.55127 8.8277 5.5512 8.82766 5.55113ZM7.5827 3.55547C7.66395 3.6557 7.68404 3.57176 7.77823 3.70367C7.77827 3.70374 7.77831 3.70381 7.77834 3.70387C7.74174 3.62898 7.70514 3.55408 7.66853 3.47918C7.63992 3.50461 7.61131 3.53004 7.5827 3.55547ZM12.0039 8.31593C11.8821 8.29967 11.9061 8.32878 11.7956 8.27064C11.631 8.34117 11.7703 8.3312 11.7703 8.39523C11.8079 8.37645 11.8456 8.35768 11.8832 8.3389C11.9743 8.39877 11.8879 8.42892 11.8879 8.43467C11.8879 8.43467 11.888 8.43467 11.8881 8.43467C11.8881 8.45389 11.8851 8.45793 11.9201 8.46955C11.9481 8.41835 11.976 8.36714 12.0039 8.31593ZM11.4827 8.39502C11.5244 8.3525 11.5432 8.29791 11.4334 8.27064C11.4334 8.27064 11.4333 8.27064 11.4332 8.27064C11.4244 8.36567 11.3191 8.28897 11.2711 8.29535C11.2585 8.30567 11.2459 8.316 11.2334 8.32633C11.3165 8.34923 11.3996 8.37212 11.4827 8.39502ZM9.6461 8.48234C9.64564 8.37736 9.73778 8.36737 9.60811 8.27064C9.58293 8.27252 9.55776 8.2744 9.53258 8.27628C9.51605 8.29932 9.49952 8.32236 9.48299 8.3454C9.16363 8.15544 9.06842 8.4789 9.60811 8.35796C9.60819 8.35789 9.60826 8.35782 9.60834 8.35775C9.62093 8.39928 9.63351 8.44081 9.6461 8.48234ZM10.2086 8.47345C10.2126 8.41835 10.2167 8.36324 10.2207 8.30813C10.2912 8.44107 10.3824 8.31422 10.5207 8.40802C10.5332 8.39126 10.5457 8.3745 10.5582 8.35775C10.6099 8.39462 11.1176 8.40525 11.0076 8.32048C10.9596 8.28346 10.855 8.33374 10.846 8.33261C10.8155 8.32846 10.7757 8.28111 10.7242 8.28386C10.6944 8.28552 10.6317 8.34117 10.5709 8.34106C10.4351 8.34081 10.1873 8.19141 10.0087 8.33283C9.99585 8.31622 9.983 8.29961 9.97014 8.28299C9.83764 8.29313 9.88187 8.34577 9.75859 8.28299C9.67342 8.54475 10.2542 8.27008 10.1333 8.48234C10.1333 8.48234 10.1334 8.48234 10.1335 8.48234C10.1585 8.47938 10.1835 8.47641 10.2086 8.47345ZM10.387 8.37281C10.4243 8.34307 10.2865 8.24364 10.4025 8.22077C10.3439 8.19583 10.2853 8.1709 10.2267 8.14596C10.2178 8.15136 10.2088 8.15676 10.1998 8.16217C10.2311 8.20182 10.2624 8.24147 10.2938 8.28112C10.2793 8.28933 10.2649 8.29753 10.2504 8.30573C10.3389 8.34168 10.466 8.62571 10.4099 8.6459C10.4397 8.64839 10.4694 8.65087 10.4992 8.65335C10.5117 8.81588 10.6364 8.89276 10.6567 9.06609C10.6808 9.06709 10.7049 9.06808 10.7289 9.06908C10.7184 9.08425 10.7078 9.09941 10.6972 9.11458C10.7238 9.1671 10.7504 9.21962 10.777 9.27214C10.9283 9.40763 10.8239 9.03962 10.7935 9.00484C10.7894 9.00025 10.7522 9.02186 10.7281 8.9923C10.6855 8.93972 10.5426 8.5926 10.462 8.50539C10.4865 8.49072 10.511 8.47605 10.5355 8.46138C10.486 8.43186 10.4365 8.40233 10.387 8.37281ZM8.93351 8.3701C8.9251 8.34106 8.91668 8.31203 8.90826 8.28299C8.76299 8.31199 8.67152 8.28665 8.70876 8.38267C8.70884 8.38267 8.70892 8.38267 8.70899 8.38267C8.78383 8.37848 8.85867 8.37429 8.93351 8.3701ZM5.25139 6.27277C5.19903 6.24819 5.14656 6.29853 5.13937 6.39709C5.15612 6.40141 5.17288 6.40573 5.18964 6.41005C5.16924 6.34535 5.27244 6.3357 5.33228 6.20389C5.30687 6.18985 5.28146 6.17581 5.25604 6.16176C5.25449 6.19876 5.25294 6.23577 5.25139 6.27277ZM9.05886 8.38267C9.10314 8.4169 9.22741 8.31304 9.14564 8.30791C9.08312 8.30404 9.0351 8.36428 9.05886 8.38267ZM7.39014 3.091C7.40071 3.12266 7.41128 3.15433 7.42185 3.186C7.45174 3.18902 7.48163 3.19204 7.51152 3.19507C7.51148 3.195 7.51145 3.19493 7.51141 3.19486C7.47099 3.16024 7.43056 3.12562 7.39014 3.091ZM11.0084 9.67069C11.0605 9.75805 11.1125 9.84541 11.1646 9.93277L12.1153 8.32105C12.1056 8.32137 12.0959 8.32168 12.0862 8.322C12.0851 8.3381 12.084 8.35421 12.0829 8.37032C12.0944 8.36425 12.1052 8.35949 12.1153 8.35582L11.195 9.91595C11.1245 9.85421 11.1508 9.79572 11.1426 9.77362C11.1426 9.77372 11.1427 9.77382 11.1427 9.77392C11.1135 9.69466 11.0832 9.62049 11.0619 9.54202C11.044 9.58491 11.0262 9.6278 11.0084 9.67069ZM10.9128 9.28749C10.8222 9.35895 10.8225 9.3868 10.9753 9.4978C10.9843 9.4851 10.9933 9.47239 11.0022 9.45969C10.952 9.38616 10.904 9.35362 10.9635 9.33853C10.9466 9.32152 10.9297 9.3045 10.9128 9.28749ZM11.0583 8.37638C11.0788 8.41261 11.2418 8.37623 11.2329 8.35796C11.2294 8.35071 11.0183 8.30535 11.0583 8.37638ZM5.82762 5.17809C5.8022 5.20693 5.77677 5.23576 5.75135 5.2646C5.76469 5.21492 5.77803 5.16525 5.79137 5.11557C5.80345 5.13641 5.81554 5.15725 5.82762 5.17809ZM5.88527 4.73914C5.91091 4.72273 5.95838 4.84837 6.05888 4.72111C6.00446 4.82406 5.95004 4.92701 5.89562 5.02997C5.90755 4.97418 5.91948 4.91839 5.93142 4.8626C5.90108 4.85672 5.87074 4.85084 5.84041 4.84496C5.85536 4.80969 5.87032 4.77441 5.88527 4.73914ZM6.01135 4.66599C5.91296 4.68325 6.06754 4.39146 6.09073 4.36914C6.09603 4.36424 6.16338 4.36424 6.18028 4.35987C6.15622 4.40354 6.13217 4.44721 6.10812 4.49088C6.13244 4.48526 6.15675 4.47963 6.18107 4.47401C6.15841 4.52815 6.13575 4.5823 6.11309 4.63644C6.10885 4.6056 6.1046 4.57475 6.10036 4.5439C6.07069 4.5846 6.04102 4.62529 6.01135 4.66599ZM5.38715 5.83448C5.40905 5.79889 5.43094 5.76329 5.45284 5.7277C5.4234 5.72096 5.39395 5.71422 5.3645 5.70747C5.35242 5.72934 5.34033 5.75121 5.32825 5.77308C5.34788 5.79354 5.36752 5.81401 5.38715 5.83448ZM5.76574 5.0719C5.85871 5.19271 5.51111 5.18984 5.70378 5.07517C5.72329 5.06366 5.7567 5.06033 5.76574 5.0719ZM6.16519 4.26891C6.13876 4.10601 6.32155 4.24049 6.20459 4.31586C6.19854 4.31956 6.16706 4.28107 6.16519 4.26891ZM6.63304 3.41559C6.63879 3.40675 6.71145 3.42591 6.69935 3.30456C6.71463 3.29408 6.72992 3.28359 6.7452 3.27311C6.75608 3.32342 6.61328 3.62345 6.57226 3.54842C6.59583 3.50344 6.60567 3.46047 6.63304 3.41559ZM6.24178 3.56632C6.21947 3.61086 6.19716 3.65541 6.17486 3.69996C6.20277 3.69663 6.23069 3.6933 6.2586 3.68997C6.25219 3.71441 6.24579 3.73885 6.23938 3.76329C6.18468 3.78088 6.12998 3.79848 6.07528 3.81608C6.12212 3.71833 6.16896 3.62059 6.2158 3.52284C6.22446 3.53733 6.23312 3.55183 6.24178 3.56632ZM5.55233 4.69743C5.62372 4.62745 5.6538 4.51 5.73331 4.37621C5.73341 4.37618 5.73351 4.37614 5.73361 4.37611C5.73765 4.36948 5.77175 4.37261 5.78492 4.35135C5.79609 4.33321 5.96916 3.94885 5.99983 4.00323C5.96291 4.16854 5.87014 4.18666 5.9547 4.27797C5.92906 4.27284 5.90342 4.26772 5.87778 4.2626C5.76442 4.37854 5.81834 4.4593 5.80358 4.55143C5.78731 4.54205 5.77104 4.53266 5.75477 4.52328C5.72478 4.57367 5.69478 4.62407 5.66478 4.67447C5.67959 4.67321 5.6944 4.67195 5.70921 4.67069C5.69918 4.68884 5.68914 4.70699 5.67911 4.72514C5.60598 4.74244 5.56365 4.79222 5.55233 4.69743ZM6.37811 3.38369C6.27569 3.27452 6.57799 2.92922 6.65091 2.73549C6.67396 2.8711 6.54164 2.98833 6.48415 3.09055C6.37307 3.28822 6.49482 3.17643 6.49635 3.22123C6.49712 3.24337 6.35498 3.31176 6.37811 3.38369ZM5.40491 5.01571C5.46966 4.92233 5.47156 4.85108 5.56461 4.79078C5.56975 4.80298 5.57489 4.81517 5.58004 4.82737C5.55551 4.85208 5.39715 5.07652 5.40491 5.01571ZM6.82871 2.4908C6.67834 2.65715 6.84331 2.62528 6.70378 2.6779C6.73455 2.60952 6.76532 2.54115 6.79609 2.47278C6.80696 2.47879 6.81784 2.4848 6.82871 2.4908ZM9.30875 8.91851C9.40075 8.92177 9.50351 8.94776 9.55852 8.89402C9.496 8.88572 9.43348 8.87741 9.37096 8.8691C9.35022 8.88557 9.32948 8.90204 9.30875 8.91851ZM6.68497 9.44351C6.70598 9.4564 6.78906 9.41838 6.79781 9.41838C6.81407 9.41838 6.80963 9.43711 6.80986 9.442C6.91632 9.4386 6.8181 9.38052 6.89687 9.36789C6.91034 9.36581 7.09537 9.39452 7.17063 9.39216C7.28642 9.38854 7.40205 9.3923 7.44531 9.3913C7.51835 9.38966 7.65392 9.34609 7.77395 9.34384C7.82343 9.34299 7.8407 9.37787 7.89045 9.37699C8.20982 9.37112 8.83853 9.32323 9.12188 9.34536C9.19188 9.35086 9.25864 9.39654 9.29566 9.39281C9.32486 9.37613 9.35405 9.35944 9.38324 9.34276C9.47302 9.49295 9.50306 9.35937 9.59984 9.34536C9.66133 9.33651 9.69007 9.38101 9.69833 9.3809C9.75309 9.38002 9.7801 9.35884 9.8231 9.35533C9.87137 9.35145 9.94072 9.37152 9.95797 9.36789C9.96857 9.36546 9.93474 9.30632 10.122 9.30744C10.3129 9.30861 10.5013 9.31486 10.6954 9.31763C10.6306 9.13906 10.5749 9.26127 10.4956 9.26779C10.4744 9.26954 10.4879 9.24119 10.4693 9.24244C10.4171 9.24582 10.317 9.27368 10.2738 9.26692C10.227 9.25964 10.243 9.19393 10.1838 9.21817C10.1808 9.21942 10.1902 9.24656 10.1763 9.25111C10.0362 9.296 9.99041 9.2488 9.81334 9.24742C9.69603 9.24643 8.98356 9.27336 8.95911 9.25566C8.83156 9.16061 9.58231 9.15997 9.67009 9.16747C9.70082 9.17011 9.6686 9.20007 9.69661 9.20582C9.70848 9.20812 9.8152 9.15098 9.92067 9.14623C10.0482 9.14048 10.3045 9.17946 10.4261 9.17809C10.9919 9.17165 11.5535 9.17883 12.1153 9.18688L11.9224 9.51398C11.6983 9.09445 11.4748 8.6745 11.2436 8.25549C11.2328 8.23601 11.1887 8.22692 11.1536 8.16345C10.4995 6.97852 9.84462 5.73768 9.16749 4.54576C9.01988 4.2859 8.84835 4.04206 8.7248 3.76575C8.68483 3.74509 8.64486 3.72442 8.60489 3.70376C8.66858 3.77792 8.70394 3.95877 8.71094 3.97315C8.7135 3.97831 8.75572 3.99644 8.78271 4.04837C8.82075 4.12136 8.81682 4.16476 8.82009 4.17067C8.83014 4.18902 8.84625 4.16445 8.85581 4.18201C8.92692 4.31301 8.98916 4.41038 9.05555 4.52999C9.1305 4.66512 9.12602 4.75709 9.22697 4.82988C9.21499 4.85106 9.20301 4.87223 9.19103 4.89341C9.31016 4.92364 9.54363 5.36664 9.63757 5.54644C9.66719 5.60318 9.6299 5.61096 9.6403 5.62978C9.64698 5.64178 9.68608 5.61398 9.75887 5.76505C9.79547 5.84111 9.77577 5.87725 9.7972 5.9137C9.80889 5.93348 9.83723 5.91356 9.85318 5.94243C9.94547 6.10944 10.0111 6.2512 10.0958 6.41779C10.1197 6.4646 10.0948 6.47901 10.1008 6.48912C10.1229 6.52637 10.2019 6.5687 10.255 6.66504C10.3423 6.82363 10.5167 7.13955 10.5677 7.28057C10.5751 7.30131 10.5537 7.33376 10.5618 7.34753C10.5743 7.36831 10.6104 7.35923 10.6127 7.36286C10.6524 7.43348 10.5995 7.40699 10.6329 7.45056C10.6509 7.47404 10.7015 7.48089 10.7385 7.53817C10.7873 7.61378 10.7361 7.62187 10.7585 7.65235C10.7611 7.65545 10.7913 7.6401 10.8101 7.67182C10.8813 7.79224 10.9862 7.96595 11.0501 8.08179C11.0684 8.11505 11.0622 8.15082 11.0875 8.19739C11.1384 8.29122 11.4448 8.81545 11.4573 8.86537C11.4587 8.87063 11.3888 8.84755 11.4318 8.92212C11.4621 8.93393 11.4923 8.94574 11.5226 8.95754C11.5137 9.01022 11.5048 9.06289 11.4958 9.11557C11.5958 9.05861 11.7302 9.26516 11.6261 9.31991C11.6349 9.34576 11.6438 9.37161 11.6526 9.39746C11.7508 9.40717 11.7426 9.45432 11.8368 9.52598C11.8284 9.54236 11.8201 9.55873 11.8118 9.57511L12.1153 9.0605C12.1088 9.0508 12.1022 9.0411 12.0956 9.0314C12.0914 9.04801 12.0871 9.06462 12.0829 9.08123C12.0251 8.99121 11.9304 9.0816 11.9189 9.0821C11.8746 9.08409 11.8414 9.06121 11.8206 9.06195C11.7431 9.06432 11.5753 9.09585 11.4847 9.08123C11.4805 9.08048 11.4847 9.042 11.4589 9.03725C11.4125 9.02866 11.4079 9.085 11.346 9.01883C11.3335 9.03544 11.3209 9.05205 11.3084 9.06866C11.2952 9.06007 11.2819 9.05147 11.2686 9.04288C11.1902 9.04729 11.1119 9.05169 11.0335 9.0561C11.1048 8.99094 11.0228 8.95455 10.9452 9.00583C10.919 9.02321 10.9423 9.06288 10.9335 9.06888C10.9215 9.07701 10.5699 9.05682 10.5466 9.03118C10.53 9.04367 10.5133 9.05617 10.4967 9.06866C10.4882 9.04367 10.4798 9.01868 10.4714 8.99369C10.4622 9.00243 10.453 9.01117 10.4439 9.01991C10.3523 8.9759 10.1148 9.07686 10.0717 9.06888C10.0487 9.06463 10.0694 8.95811 9.95912 8.96899C9.9553 8.99824 9.95147 9.0275 9.94764 9.05675C9.92239 9.06094 9.89714 9.06512 9.87189 9.06931C9.8245 9.06671 9.75552 9.01601 9.75331 8.98134C9.7385 9.00214 9.7237 9.02294 9.70889 9.04375C9.66913 8.97597 9.45706 8.99999 9.37176 9.04288C9.34682 9.02244 9.32187 9.002 9.29692 8.98156C9.26341 9.00641 9.22989 9.03125 9.19637 9.0561C9.11872 9.06358 9.20075 9.02227 9.1842 9.01883C9.14919 9.0117 8.97077 9.08148 8.98253 8.99456C8.95819 8.99434 8.93386 8.99413 8.90952 8.99391C8.89701 9.01876 8.8845 9.0436 8.87199 9.06845C8.83021 8.98279 8.75794 9.01303 8.6097 8.98178C8.59727 9.00149 8.58483 9.02121 8.5724 9.04093C8.52656 9.01291 8.48072 8.98488 8.43488 8.95686C8.42547 8.98951 8.41606 9.02215 8.40665 9.0548C8.38671 9.05949 8.36678 9.06419 8.34684 9.06888C8.30634 8.99575 8.23361 9.07478 8.19659 9.04461C8.14257 9.00059 8.18434 8.94814 8.28463 8.93801C8.27713 8.88475 7.97839 8.9092 7.90951 8.91309C7.91406 8.92349 7.91861 8.93389 7.92317 8.94429C7.99361 8.93606 8.06405 8.92782 8.13449 8.91959C8.19351 9.05353 8.00222 9.0176 7.91444 9.03486C7.90642 9.03652 7.86093 9.08726 7.77245 9.08253C7.73819 9.08066 7.60455 9.00649 7.57904 9.00236C7.37303 8.96849 7.52451 9.07447 7.32295 8.98156C7.36497 9.05272 7.24916 8.99359 7.12862 9.00734C7.1081 9.0097 6.9341 9.06738 6.92235 9.06888C6.84908 9.07814 6.92885 9.01524 6.82283 9.03161C6.81009 9.04815 6.79735 9.06469 6.78461 9.08123C6.75993 9.08123 6.73525 9.08123 6.71057 9.08123C6.56081 8.93383 6.52598 9.04238 6.47273 9.05631C6.45123 9.06194 6.47892 9.02348 6.42315 9.03161C6.40215 9.03464 6.37886 9.06663 6.32237 9.06888C6.14558 9.07587 6.08556 8.93891 5.92303 9.08145C5.89808 9.06079 5.87313 9.04013 5.84819 9.01948C5.83135 9.04425 5.81452 9.06903 5.79768 9.0938C5.66892 9.02191 5.7154 9.09554 5.66889 9.09467C5.54609 9.09241 5.29477 9.07832 5.27276 9.01905C5.16675 9.15521 5.03999 9.0016 4.9982 9.00691C4.97337 9.02345 4.94853 9.03999 4.9237 9.05653C4.89451 9.03992 4.86531 9.02331 4.83612 9.00669C4.85031 9.14041 4.69911 9.00892 4.6846 9.00691C4.66785 9.00491 4.43531 9.04448 4.34874 9.04375C4.26229 9.043 4.11166 9.00677 4.09839 9.00669C4.08314 9.00669 3.93599 9.04304 3.82095 9.04266C3.72029 9.04227 3.12393 8.99064 3.16151 9.05025C3.20052 9.06675 3.25606 9.08106 3.30407 9.08882C3.45314 9.11258 4.32799 9.14301 4.55157 9.15252C4.99995 9.1714 5.46759 9.1679 5.91798 9.1809C5.94447 9.18165 5.94851 9.21631 5.97124 9.21709C6.00575 9.21809 6.09333 9.1834 6.12734 9.18415C6.25439 9.18715 6.40896 9.19281 6.47698 9.19369C6.62901 9.19544 6.73329 9.21631 6.84831 9.21969C6.88432 9.22069 7.06639 9.17773 7.19118 9.19585C7.21379 9.2056 7.2364 9.21535 7.25902 9.2251C7.19475 9.23649 7.02611 9.26593 6.94783 9.26931C6.83134 9.27418 6.77057 9.24607 6.72756 9.24656C6.69155 9.24693 6.50752 9.27895 6.42372 9.27971C6.39771 9.27996 6.39237 9.24361 6.37012 9.24374C6.24933 9.24461 6.09025 9.24559 5.98547 9.28122C6.02824 9.26959 5.76118 9.2473 5.74717 9.24742C5.72317 9.24743 5.69712 9.28144 5.64811 9.28144C5.55387 9.28142 5.56582 9.21029 5.44804 9.28144C5.41889 9.26071 5.38973 9.23998 5.36058 9.21925C5.35878 9.31402 4.99037 9.18512 4.88559 9.30029C4.88284 9.3133 5.36158 9.3502 5.4011 9.35208C5.63816 9.36345 5.98899 9.34022 6.21906 9.35684C6.2883 9.36184 6.50601 9.41945 6.52244 9.41838C6.54893 9.41676 6.525 9.3838 6.53644 9.38263C6.77069 9.35813 6.65382 9.42436 6.68497 9.44351ZM5.6183 4.44904C5.58046 4.50944 5.54262 4.56984 5.50479 4.63025C5.48908 4.61566 5.47337 4.60108 5.45767 4.5865C5.48051 4.56188 5.50336 4.53726 5.52621 4.51264C5.52746 4.4847 5.52871 4.45675 5.52996 4.42881C5.5594 4.43555 5.58885 4.4423 5.6183 4.44904ZM5.62689 4.2534C5.64758 4.19432 5.68743 4.21289 5.69619 4.20147C5.72244 4.16741 5.7247 4.12665 5.7452 4.09084C5.81341 4.18283 5.72266 4.24832 5.62689 4.2534ZM4.97754 5.35093C4.98863 5.34117 5.13174 5.31412 5.09149 5.17116C5.15874 5.118 5.22599 5.06485 5.29324 5.0117C5.18396 5.10474 5.14015 5.29286 5.10659 5.34946C5.09384 5.37096 5.0614 5.35848 5.05125 5.37567C4.9932 5.47503 5.00739 5.61066 4.90188 5.56578C4.98351 5.4866 4.96358 5.36351 4.97754 5.35093ZM5.34878 4.76292C5.37855 4.75834 5.40831 4.75376 5.43807 4.74918C5.40591 4.80738 5.37374 4.86559 5.34158 4.92379C5.32916 4.89638 5.31675 4.86897 5.30433 4.84157C5.31915 4.81535 5.33397 4.78913 5.34878 4.76292ZM2.80528 9.20241C2.82537 9.16665 2.84547 9.13089 2.86556 9.09513C2.84927 9.0887 2.82663 9.12981 2.808 9.13926C2.80804 9.13919 2.80807 9.13913 2.80811 9.13906C2.78719 9.1495 2.7716 9.13147 2.74602 9.15734C2.76578 9.17236 2.78553 9.18739 2.80528 9.20241ZM8.64609 3.6242C8.61392 3.56342 8.30694 3.00766 8.27766 3.08564C8.26315 3.12481 8.39233 3.30152 8.42286 3.35779C8.46404 3.43364 8.51682 3.67078 8.64609 3.6242ZM8.11302 2.63407C8.05245 2.65498 8.23558 3.00713 8.26396 3.03577C8.26786 3.02421 8.27925 3.0034 8.27792 2.9916C8.27108 2.93423 8.13929 2.71728 8.11302 2.63407ZM4.18184 9.25154C4.14985 9.21962 4.11787 9.18769 4.08588 9.15577C4.0943 9.1973 4.10272 9.23883 4.11113 9.28036C4.1347 9.27075 4.15827 9.26115 4.18184 9.25154ZM7.28473 9.20582C7.8176 9.20784 8.35048 9.20987 8.88335 9.21189C8.83648 9.22915 8.78961 9.24641 8.74274 9.26367C8.28358 9.25754 7.7939 9.24007 7.3505 9.26671C7.32858 9.24641 7.30665 9.22612 7.28473 9.20582ZM4.74125 5.3919C4.67467 5.5111 4.64621 5.62566 4.5319 5.7322C4.55921 5.58557 4.65678 5.55942 4.66267 5.40552C4.66271 5.40546 4.66275 5.40539 4.66278 5.40532C4.68894 5.40085 4.7151 5.39637 4.74125 5.3919ZM3.25586 8.05378C3.25053 8.0034 3.2452 7.95302 3.23987 7.90264C3.21571 7.94635 3.19156 7.99005 3.16741 8.03375C3.1969 8.04043 3.22638 8.0471 3.25586 8.05378ZM11.9329 9.36724C11.977 9.34764 12.0425 9.34508 12.1153 9.34863L12.064 9.43575C11.9923 9.28966 11.9296 9.09687 11.8448 9.05218C11.8368 9.04803 11.842 9.12398 11.7335 9.05648C11.7854 9.12406 11.8256 9.16983 11.8715 9.15163C11.8691 9.18157 11.8666 9.2115 11.8642 9.24144C11.8953 9.27169 11.9264 9.30195 11.9574 9.33221C11.9126 9.35186 11.9164 9.35348 11.9765 9.39315C11.9795 9.42181 11.9825 9.45048 11.9854 9.47914L12.1153 9.25891C12.1128 9.25782 12.1102 9.25674 12.1077 9.25566C12.0954 9.27631 12.083 9.29697 12.0707 9.31763C12.0455 9.28873 12.0204 9.25985 11.9952 9.23095C11.8971 9.2623 11.9568 9.31827 11.9329 9.36724ZM11.433 9.35533C11.4562 9.36606 12.1183 9.33104 11.8174 9.23377C11.7392 9.23688 11.661 9.23998 11.5828 9.24309C11.6475 9.40416 11.4344 9.26012 11.4169 9.25674C11.3331 9.241 11.2264 9.27931 11.1656 9.27732C11.1134 9.27557 11.0823 9.24668 11.0456 9.24742C10.9204 9.24992 10.7226 9.25098 10.6954 9.31763C10.7927 9.31901 10.8916 9.31973 10.9928 9.31806C11.0998 9.31631 11.1939 9.37921 11.395 9.29292C11.4447 9.3022 11.427 9.35258 11.433 9.35533ZM3.30621 7.79649C3.36239 7.83324 3.4706 7.60433 3.44823 7.59012C3.43489 7.58218 3.39541 7.65439 3.38458 7.66183C3.38454 7.6619 3.38451 7.66197 3.38447 7.66203C3.37985 7.66508 3.36945 7.63092 3.34451 7.66133C3.33174 7.70638 3.31897 7.75143 3.30621 7.79649ZM9.25477 4.41609C9.27113 4.36802 8.88187 3.69157 8.85501 3.68016C8.84761 3.67711 8.8374 3.6927 8.82789 3.69514C8.96233 3.82884 9.0326 4.0857 9.11256 4.23894C9.13488 4.28164 9.15121 4.25617 9.15297 4.25831C9.15303 4.25841 9.15308 4.25851 9.15314 4.25861C9.16642 4.28251 9.16919 4.42196 9.25477 4.41609ZM11.6972 8.84824C11.704 8.88234 11.7109 8.91644 11.7178 8.95054C11.74 8.94788 11.7622 8.94523 11.7844 8.94257C11.7844 8.9425 11.7844 8.94243 11.7843 8.94236C11.7553 8.91099 11.7262 8.87962 11.6972 8.84824ZM11.201 7.80927C11.1921 7.82339 11.1833 7.83751 11.1744 7.85164C11.213 7.92572 11.2517 7.9998 11.2903 8.07389C11.279 8.0705 11.2677 8.06712 11.2564 8.06373C11.2983 8.18492 11.3684 8.2059 11.3945 8.26834C11.3945 8.26828 11.3945 8.26821 11.3944 8.26814C11.3972 8.2749 11.3748 8.29727 11.3869 8.32133C11.4147 8.37652 11.4904 8.53689 11.5275 8.54081C11.6065 8.54886 11.4072 8.25212 11.3776 8.19256C11.3643 8.16563 11.3702 8.12116 11.3619 8.10488C11.3527 8.0871 11.3081 8.08063 11.2855 8.03745C11.2789 8.02479 11.2395 7.86602 11.201 7.80927ZM10.4498 6.53996C10.4334 6.57841 10.4873 6.61011 10.4921 6.63C10.4933 6.63475 10.4514 6.61594 10.4657 6.65887C10.4883 6.66081 10.5108 6.66274 10.5333 6.66468C10.5055 6.62311 10.4776 6.58153 10.4498 6.53996ZM3.48389 7.40956C3.47419 7.41251 3.41084 7.5325 3.4116 7.54037C3.42482 7.64054 3.55505 7.39146 3.48389 7.40956ZM5.07976 4.37976C4.97322 4.39218 5.40642 3.78561 5.43711 3.72058C5.48337 3.75024 5.34992 3.87775 5.46042 3.8334C5.38161 3.89043 5.28314 4.11406 5.24493 4.15838C5.22177 4.18529 5.17607 4.17006 5.17222 4.17393C5.15758 4.18939 5.11732 4.37538 5.07976 4.37976ZM5.76565 3.20313C5.72252 3.25968 5.67938 3.31624 5.63624 3.37279C5.67096 3.29712 5.70569 3.22144 5.74041 3.14577C5.74882 3.16489 5.75724 3.18401 5.76565 3.20313ZM5.78665 3.11362C5.73904 3.08988 5.89 2.90042 5.90964 2.83955C5.95454 2.94522 5.82283 3.00732 5.78665 3.11362ZM3.79912 6.55557C3.71514 6.63489 3.83406 6.75464 3.83704 6.60342C3.83697 6.59873 3.80297 6.55246 3.79912 6.55557ZM11.9668 9.59519C11.9769 9.59573 12.0488 9.61111 12.1153 9.62122L12.4961 9.58142L12.3025 9.3039C12.2824 9.24942 12.2608 9.20032 12.2472 9.20068C12.1741 9.20284 12.2216 9.2757 12.2444 9.33604L12.3778 9.52734L12.1153 9.55477C12.0977 9.55221 12.0818 9.54845 12.0707 9.54167C11.9879 9.4909 12.1097 9.44906 11.9076 9.4797C11.9159 9.46309 11.9241 9.44648 11.9324 9.42986C11.8141 9.42436 11.8528 9.53944 11.8316 9.55424C11.8251 9.55873 11.7512 9.54906 11.7378 9.5564C11.5712 9.64911 11.9494 9.59442 11.9668 9.59519ZM2.47076 8.93375C2.32211 9.1019 2.43034 9.05402 2.31777 9.24867C2.3461 9.2729 2.48499 8.97418 2.47076 8.93375ZM9.83366 9.52953C10.0602 9.51516 10.2466 9.56292 10.4579 9.49877C10.4441 9.39997 9.77489 9.50402 9.83366 9.52953ZM8.26448 1.97949C8.53687 2.83615 9.07939 3.69811 9.53576 4.51825C9.58546 4.60765 9.55592 4.63518 9.57754 4.66552C9.59168 4.68541 9.61724 4.66644 9.63295 4.69457C10.2008 5.71144 10.7763 6.66753 11.2994 7.65312C11.3323 7.71523 11.4383 8.04724 11.5631 8.06176C11.6576 8.07262 11.4859 7.88689 11.4668 7.85073C11.4523 7.82356 11.4836 7.8048 11.4738 7.78679C11.4633 7.76769 11.4503 7.79546 11.4377 7.77353C11.3844 7.6807 11.3364 7.57377 11.2878 7.4901C10.8109 6.66928 10.3694 5.85832 9.9158 5.03033C9.86085 4.93012 9.89776 4.93657 9.89509 4.93148C9.89499 4.93144 9.89488 4.93141 9.89478 4.93138C9.60083 4.39377 9.20507 3.81298 8.91306 3.23286C8.70959 2.82316 8.50612 2.41347 8.30265 2.00377C8.28993 1.99567 8.2772 1.98758 8.26448 1.97949ZM11.483 9.49227C11.54 9.60231 11.5528 9.49136 11.7574 9.53625C11.774 9.51747 11.7906 9.49869 11.8073 9.47992C11.6991 9.48403 11.5909 9.48815 11.4827 9.49227C11.4828 9.49227 11.4829 9.49227 11.483 9.49227ZM11.8771 8.71774C11.9904 8.61559 11.6772 8.26601 11.6024 8.07202C11.5188 8.07508 11.693 8.32095 11.7203 8.38655C11.7339 8.41929 11.7581 8.62171 11.8647 8.72679C11.8688 8.72377 11.873 8.72076 11.8771 8.71774ZM4.5139 4.95216C4.50159 4.98339 4.48928 5.01462 4.47697 5.04585C4.53168 4.98091 4.58638 4.91597 4.64108 4.85103C4.56751 4.9622 4.49395 5.07337 4.42038 5.18454C4.40536 5.14796 4.39034 5.11138 4.37532 5.07479C4.42152 5.03391 4.46771 4.99304 4.5139 4.95216ZM4.31921 5.33716C4.4216 5.12787 4.37636 5.38042 4.31614 5.41349C4.28006 5.43327 4.30881 5.35856 4.31921 5.33716ZM3.97999 5.84124C3.98509 5.72006 4.08791 5.5263 4.14485 5.64684C4.04379 5.725 4.04406 5.81152 3.9363 5.94627C3.93017 5.91451 3.92404 5.88275 3.91791 5.85099C3.91796 5.85089 3.91802 5.85079 3.91807 5.85069C3.93871 5.84754 3.95935 5.84439 3.97999 5.84124ZM4.31335 5.21248C4.44144 5.10913 4.20943 5.48505 4.24073 5.34388C4.24223 5.33729 4.30836 5.21658 4.31335 5.21248ZM8.8337 2.77836C8.79389 2.77938 8.85117 2.88166 8.86795 2.91694C8.94052 3.06998 9.05884 3.25229 9.13961 3.40852C9.14338 3.39131 9.14716 3.3741 9.15093 3.35688C9.04519 3.16404 8.93944 2.9712 8.8337 2.77836ZM9.40541 3.88995C9.46384 3.99568 9.52227 4.1014 9.58069 4.20712C9.58613 4.21697 9.63822 4.24852 9.62568 4.21059C9.55226 4.10371 9.47884 3.99683 9.40541 3.88995ZM10.7205 9.70418C10.8131 9.72397 10.5464 9.8254 10.5584 9.71674C10.6124 9.71255 10.6665 9.70837 10.7205 9.70418ZM9.85869 9.74751C9.91677 9.73718 9.97485 9.72685 10.0329 9.71653C10.033 9.72902 10.0331 9.74152 10.0332 9.75401C9.975 9.75184 9.91684 9.74968 9.85869 9.74751ZM8.62582 2.35068C8.61815 2.42521 8.6949 2.55049 8.73841 2.63102C8.74007 2.55807 8.65158 2.43529 8.62582 2.35068ZM12.1081 9.74795C12.1074 9.74519 12.1101 9.74277 12.1153 9.74067L12.7087 9.67864L12.4071 9.24612C12.3651 9.21167 12.2333 8.95178 12.3298 9.03041C12.358 9.10099 12.3861 9.17158 12.4142 9.24217L12.7233 9.6853L12.1153 9.74885C12.1129 9.74855 12.1105 9.74825 12.1081 9.74795ZM12.0927 8.57312C12.1365 8.63919 12.1574 8.69761 12.1095 8.70551C12.0909 8.6679 12.0723 8.63029 12.0538 8.59268C12.0668 8.58616 12.0798 8.57964 12.0927 8.57312ZM3.70394 6.16068C3.64314 6.27921 3.58234 6.39774 3.52154 6.51627C3.51299 6.50591 3.50444 6.49555 3.49589 6.48518C3.55444 6.37087 3.61299 6.25656 3.67154 6.14225C3.68234 6.14839 3.69314 6.15454 3.70394 6.16068ZM8.68764 2.23049C8.63626 2.1544 8.58489 2.07831 8.53351 2.00222C8.57045 2.08638 8.60738 2.17053 8.64432 2.25469C8.65886 2.24666 8.6734 2.23862 8.68794 2.23059C8.68784 2.23055 8.68774 2.23052 8.68764 2.23049ZM4.44454 4.4859C4.19679 4.81373 4.39392 4.32967 4.52079 4.27715C4.52078 4.27701 4.52077 4.27688 4.52076 4.27674C4.53193 4.27218 4.55435 4.30727 4.57484 4.30073C4.54034 4.32896 4.50584 4.35719 4.47134 4.38543C4.47109 4.42844 4.47084 4.47145 4.47059 4.51446C4.4575 4.52143 4.4444 4.5284 4.43131 4.53537C4.43572 4.51888 4.44013 4.50239 4.44454 4.4859ZM5.21014 3.03332C5.39445 2.71377 5.29202 3.08835 5.14046 3.21317C5.12645 3.20393 5.19316 3.06276 5.21014 3.03332ZM4.75986 3.88887C4.73902 3.94376 4.71818 3.99865 4.69734 4.05353C4.68458 4.05497 4.67182 4.0564 4.65907 4.05783C4.67154 4.01375 4.68402 3.96967 4.6965 3.92559C4.71762 3.91335 4.73874 3.90111 4.75986 3.88887ZM3.69387 5.48364C3.63856 5.55994 3.68277 5.72069 3.80122 5.44303C3.79021 5.43713 3.7792 5.43122 3.76819 5.42531C3.76415 5.43675 3.75742 5.47316 3.75568 5.47439C3.75028 5.47769 3.7169 5.45183 3.69387 5.48364ZM5.25241 2.27635C5.25333 2.26486 5.14074 2.19611 5.31291 2.16644C5.32161 2.13352 5.33031 2.10061 5.33901 2.06769C5.36855 2.07426 5.39809 2.08084 5.42763 2.08741C5.34611 2.18838 5.39098 2.22865 5.3876 2.23735C5.37186 2.2772 5.36062 2.23506 5.347 2.25885C5.31189 2.32031 5.25187 2.47087 5.21167 2.36531C5.19734 2.32739 5.25149 2.28785 5.25241 2.27635ZM5.06593 2.4588C5.08306 2.45056 5.09265 2.51291 5.10785 2.50794C5.12112 2.50356 5.23005 2.38778 5.2669 2.45577C5.25226 2.47657 5.23763 2.49738 5.22299 2.51819C5.20323 2.51706 5.18347 2.51594 5.16371 2.51481C5.16628 2.54421 5.16885 2.57361 5.17142 2.603C5.11293 2.61783 5.02054 2.6671 5.03957 2.55847C5.02431 2.59384 5.00906 2.62921 4.9938 2.66458C5.00265 2.69216 5.01151 2.71975 5.02036 2.74733C4.99727 2.72267 4.97417 2.69802 4.95107 2.67336C4.98936 2.60184 5.02764 2.53032 5.06593 2.4588ZM5.65159 1.42456C5.66388 1.43668 5.67616 1.4488 5.68844 1.46092C5.72951 1.32275 5.82529 1.12516 5.85622 1.28453C5.77155 1.45566 5.68688 1.62679 5.60221 1.79793C5.58515 1.80297 5.56809 1.80801 5.55103 1.81305C5.66199 1.71179 5.46142 1.6512 5.57274 1.57128C5.59156 1.55783 5.62496 1.64549 5.64828 1.5085C5.63142 1.50452 5.61456 1.50053 5.5977 1.49655C5.61566 1.47255 5.63363 1.44856 5.65159 1.42456ZM6.25886 0.377204C6.12124 0.576599 6.19662 0.31485 6.26226 0.300266C6.26223 0.300331 6.26219 0.3004 6.26215 0.300467C6.44187 0.260393 6.25666 0.457768 6.24969 0.4722C6.24047 0.491409 6.30292 0.582526 6.12097 0.614182C6.16693 0.535189 6.2129 0.456196 6.25886 0.377204ZM5.85654 1.05415C5.86349 1.03485 5.88001 1.05679 5.88392 1.04895C5.88396 1.04889 5.884 1.04882 5.88403 1.04875C5.94174 0.933203 6.07056 0.6537 6.15746 0.663725C6.11717 0.750596 5.92573 1.13315 5.86509 1.12917C5.86224 1.10416 5.85939 1.07915 5.85654 1.05415ZM5.47004 1.87806C5.38587 1.92207 5.46604 1.76259 5.50989 1.7334C5.51876 1.72821 5.55724 1.83247 5.47004 1.87806ZM2.41231 7.13161C2.35558 7.29942 2.49388 7.11418 2.49866 7.2074C2.5111 7.17624 2.52353 7.14507 2.53597 7.11391C2.49475 7.11981 2.45353 7.12571 2.41231 7.13161ZM8.20956 10.5143C8.25019 10.5202 8.23094 10.4901 8.23447 10.4896C8.26116 10.4905 8.28632 10.515 8.29657 10.5124C8.48594 10.4629 8.36 10.4377 8.35809 10.4318C8.35409 10.402 8.40387 10.3672 8.3349 10.3332C8.29305 10.3437 8.25119 10.3543 8.20933 10.3648C8.18855 10.3483 8.16778 10.3317 8.147 10.3152C8.06384 10.3507 8.17266 10.3604 8.18499 10.4075C8.18975 10.426 8.11153 10.4482 8.20956 10.5143ZM2.174 7.35677C2.20609 7.40679 2.2303 7.4993 2.30917 7.46517C2.30921 7.4651 2.30925 7.46504 2.30929 7.46497C2.32378 7.45861 2.35318 7.41633 2.3726 7.40908C2.36593 7.27718 2.28214 7.27999 2.174 7.35677ZM7.45875 10.6079C7.39125 10.5957 7.32376 10.5835 7.25626 10.5713C7.25741 10.54 7.25856 10.5086 7.25971 10.4773C7.29583 10.4857 7.33195 10.4942 7.36806 10.5026C7.38073 10.4883 7.39339 10.474 7.40606 10.4597C7.36122 10.424 7.31637 10.3882 7.27153 10.3525C7.2175 10.365 7.16348 10.3775 7.10945 10.39C7.13428 10.4065 7.15912 10.423 7.18395 10.4396C7.0519 10.4578 7.08065 10.3816 6.97136 10.3525C6.93394 10.3815 6.89652 10.4105 6.8591 10.4396C6.80492 10.4104 6.75075 10.3812 6.69657 10.352C6.60553 10.3657 6.59753 10.3879 6.6588 10.4212C6.61354 10.4592 6.56398 10.3994 6.50947 10.4149C6.50497 10.4161 6.51344 10.4519 6.50947 10.4524C6.22762 10.4765 6.24261 10.3825 6.19759 10.3785C6.16583 10.3757 6.03901 10.4392 6.03701 10.4608C6.03457 10.49 6.29833 10.6049 5.88526 10.6079C6.09882 10.6875 6.34161 10.6065 6.18462 10.4898C6.25221 10.5016 6.55027 10.4725 6.56927 10.476C6.59697 10.4813 6.58726 10.5255 6.62196 10.5267C6.64246 10.5273 6.6968 10.4261 6.8591 10.5145C6.87984 10.4979 6.90058 10.4813 6.92132 10.4647C6.94075 10.4784 6.96019 10.492 6.97963 10.5057C6.93961 10.5543 6.89958 10.603 6.85956 10.6517C7.0181 10.5988 7.14963 10.6982 7.24616 10.6144C7.32962 10.6242 7.37017 10.6338 7.33432 10.6766C7.35938 10.6766 7.38444 10.6766 7.4095 10.6766C7.42592 10.6537 7.44233 10.6308 7.45875 10.6079ZM1.9917 7.8412C1.90904 7.89029 1.98639 7.96711 1.99783 7.95868C2.06157 7.91079 2.03471 7.81565 1.9917 7.8412ZM8.05896 10.4586C7.96744 10.4316 7.87592 10.4046 7.78439 10.3776C7.78439 10.4108 7.78439 10.4439 7.78439 10.4771C7.87592 10.4709 7.96744 10.4648 8.05896 10.4586ZM2.3594 7.07325C2.38521 7.0779 2.41103 7.08255 2.43685 7.0872C2.40591 6.95557 2.56801 6.93143 2.56844 6.87507C2.56849 6.86282 2.5196 6.8606 2.50145 6.87399C2.49014 6.88231 2.36065 7.05366 2.3594 7.07325ZM4.38837 3.4264C4.38491 3.46715 4.38145 3.50791 4.37799 3.54866C4.35452 3.53333 4.33106 3.518 4.30759 3.50268C4.31196 3.48402 4.31633 3.46536 4.3207 3.44671C4.34326 3.43994 4.36581 3.43317 4.38837 3.4264ZM4.22171 3.8198C4.18753 3.87702 4.15335 3.93424 4.11917 3.99147C4.21963 3.75668 4.10782 3.93314 4.15059 3.7805C4.1743 3.7936 4.198 3.8067 4.22171 3.8198ZM3.84609 4.38258C3.83545 4.36735 3.8248 4.35211 3.81416 4.33688C3.84638 4.27857 3.8786 4.22027 3.91082 4.16197C3.83975 4.17082 3.76867 4.17967 3.6976 4.18853C3.68567 4.20982 3.67373 4.23112 3.6618 4.25241C3.72323 4.2958 3.78466 4.33919 3.84609 4.38258ZM10.0089 10.6389C10.0492 10.6399 10.1893 10.5893 10.1833 10.5707C10.1251 10.5478 10.0669 10.5249 10.0087 10.502C10.0084 10.5352 10.0082 10.5684 10.0079 10.6017C9.99968 10.5851 9.99145 10.5686 9.98323 10.552C9.95013 10.5645 9.91703 10.5769 9.88394 10.5893C9.86726 10.5603 9.85057 10.5312 9.83389 10.5022C9.81713 10.5353 9.80037 10.5685 9.78362 10.6017C9.94342 10.6604 9.93792 10.6017 9.97118 10.6023C9.98804 10.6026 9.99871 10.6232 10.0047 10.6335C10.0061 10.6353 10.0075 10.6371 10.0089 10.6389ZM7.99571 10.6701C8.18652 10.6784 8.29558 10.5909 8.43362 10.6641C8.34508 10.5082 7.77338 10.6692 7.57181 10.5392C7.55088 10.5642 7.52995 10.5892 7.50902 10.6142C7.61878 10.592 7.69483 10.6434 7.74835 10.6508C7.79086 10.6567 7.78642 10.6305 7.78967 10.6309C7.78982 10.6309 7.78998 10.6309 7.79013 10.6309C7.88966 10.6417 7.92045 10.6669 7.99571 10.6701ZM2.321 6.89007C2.26165 6.91585 2.22171 6.99628 2.27167 7.02504C2.31042 6.9894 2.34918 6.95377 2.38793 6.91814C2.37006 6.91997 2.33115 6.88568 2.321 6.89007ZM3.66771 4.37253C3.63193 4.39848 3.6006 4.48917 3.66388 4.47756C3.67516 4.47542 3.69007 4.37609 3.74201 4.46789C3.78517 4.38692 3.68815 4.35783 3.66771 4.37253ZM4.73511 10.552C4.70144 10.5537 4.66777 10.5554 4.6341 10.557C4.62625 10.5803 4.61841 10.6035 4.61057 10.6268C4.65208 10.6019 4.69359 10.5769 4.73511 10.552ZM2.49542 6.49203C2.61669 6.5079 2.55673 6.3874 2.67927 6.35914C2.69491 6.33233 2.71055 6.30552 2.72619 6.27871C2.72623 6.27865 2.72627 6.27858 2.72631 6.27851C2.69953 6.26275 2.67276 6.24699 2.64598 6.23124C2.59579 6.31817 2.54561 6.4051 2.49542 6.49203ZM6.83454 10.6082C6.8138 10.5937 6.79306 10.5793 6.77233 10.5648C6.7354 10.5816 6.69848 10.5985 6.66156 10.6153C6.68153 10.6274 6.7015 10.6394 6.72148 10.6515C6.75916 10.637 6.79685 10.6226 6.83454 10.6082ZM2.75072 6.0099C2.68574 6.09801 2.7526 6.18159 2.81995 6.06023C2.84825 6.00902 2.81876 5.91758 2.75072 6.0099ZM12.0824 10.6021C12.0452 10.5936 12.008 10.5852 11.9709 10.5767C11.9582 10.5975 11.9455 10.6183 11.9329 10.6391C11.9827 10.6268 12.0326 10.6144 12.0824 10.6021ZM3.92652 3.92749C3.94262 3.94137 3.95871 3.95525 3.97481 3.96913C3.9551 3.99614 3.93538 4.02315 3.91567 4.05015C3.90163 4.03286 3.88758 4.01557 3.87354 3.99828C3.8912 3.97468 3.90886 3.95109 3.92652 3.92749ZM11.8322 10.5893C11.8025 10.5853 11.7727 10.5814 11.743 10.5774C11.723 10.5875 11.7031 10.5976 11.6831 10.6077C11.7109 10.6178 11.7387 10.6278 11.7665 10.6378C11.7884 10.6217 11.8103 10.6055 11.8322 10.5893ZM3.25669 5.11404C3.2146 5.1385 3.20211 5.3222 3.2922 5.20029C3.34957 5.1226 3.26305 5.1104 3.25669 5.11404ZM3.34375 4.90498C3.22512 5.02114 3.49446 5.03373 3.44913 4.7918C3.37551 4.96944 3.35079 4.89819 3.34375 4.90498ZM3.91103 3.62044C3.91307 3.617 3.9451 3.63093 3.96169 3.60358C4.02127 3.50507 4.10675 3.37881 4.14841 3.30782C4.24857 3.13717 4.48661 2.57647 4.60896 2.56312C4.6346 2.56043 4.67344 2.6207 4.67919 2.61702C4.69565 2.60599 4.71785 2.50247 4.74947 2.54136C4.70106 2.62823 4.65264 2.71509 4.60423 2.80195C4.58734 2.76472 4.57044 2.7275 4.55355 2.69027C4.44902 2.91561 4.48693 2.84284 4.51495 2.93976C4.47045 2.96308 4.42596 2.98641 4.38147 3.00973C4.36165 3.10308 4.34183 3.19644 4.32201 3.28979C4.31388 3.26165 4.30575 3.2335 4.29762 3.20536C4.19749 3.30717 4.23801 3.2859 4.2456 3.37609C4.22738 3.3662 4.20917 3.3563 4.19095 3.34641C4.17094 3.48708 4.10405 3.47967 4.08936 3.5047C4.05951 3.5562 4.23748 3.74122 3.91409 3.82187C3.97052 3.96242 3.76259 3.84502 3.84163 3.95298C3.6476 4.03085 3.83849 3.78431 3.91284 3.65882C3.91288 3.65875 3.91292 3.65869 3.91295 3.65862C3.9186 3.64917 3.89068 3.65369 3.91103 3.62044ZM3.6149 4.40761C3.56804 4.26966 3.3718 4.6039 3.56995 4.5669C3.58361 4.55263 3.59727 4.53837 3.61093 4.5241C3.61229 4.4852 3.61365 4.44631 3.61501 4.40741C3.61497 4.40748 3.61494 4.40754 3.6149 4.40761ZM1.79144 7.55939C1.65661 7.8949 1.80955 7.74629 1.81536 7.61063C1.81658 7.5836 1.8086 7.56401 1.79144 7.55939ZM8.26833 10.7529C8.27357 10.74 8.27881 10.727 8.28405 10.7141C8.16371 10.7262 7.93099 10.6763 7.93419 10.7635C8.04557 10.76 8.15695 10.7564 8.26833 10.7529ZM7.3163 10.8099C7.34214 10.8151 7.44773 10.8275 7.43498 10.7949C7.38922 10.7718 7.34346 10.7487 7.2977 10.7256C7.27639 10.74 7.25508 10.7545 7.23376 10.7689C7.26353 10.7738 7.3093 10.8085 7.3163 10.8099Z" fill="var(--stroke-0, #7AD595)"/>
</g>
</svg>
