<svg preserveAspectRatio="none" width="100%" height="100%" overflow="visible" style="display: block;" viewBox="0 0 1944.76 3148.04" fill="none" xmlns="http://www.w3.org/2000/svg">
<g id="Group 43896">
<path id="t" d="M1036.83 523.815C1030.25 517.425 1024.46 510.086 1018.95 502.226C1025.3 508.902 1031.14 516.251 1036.83 523.815ZM1036.83 523.815C1036.94 523.922 1037.05 524.031 1037.16 524.137C1037.16 524.137 1037.04 524.062 1037 524.008C1036.99 524.011 1036.99 524.015 1036.98 524.019C1036.93 523.951 1036.88 523.883 1036.83 523.815ZM1037.08 524.116C1037.11 524.185 1037.15 524.257 1037.18 524.326C1037.11 524.231 1037.03 524.136 1036.96 524.041C1037 524.066 1037.04 524.091 1037.08 524.116ZM500.063 331.429C495.429 325.167 481.829 325.211 471.876 323.536C455.136 320.722 438.568 318.477 421.749 316.302C404.592 314.084 386.732 312.945 369.403 312.831C366.342 312.829 364.039 313.032 366.69 311.221C366.718 311.211 366.745 311.201 366.773 311.191C366.766 311.186 366.759 311.181 366.752 311.176C366.778 311.159 366.802 311.14 366.829 311.122C366.828 311.138 366.827 311.155 366.826 311.172C366.866 311.157 366.908 311.143 366.948 311.128C366.947 311.145 366.946 311.163 366.944 311.18C370.654 306.041 379.321 310.297 385.104 310.29C397.919 310.251 411.826 313.773 424.018 313.471C437.187 313.183 450.538 318.224 465.761 315.944C419.911 307.22 376.03 302.256 332.529 303.152C332.351 304.904 336.423 303.547 337.316 305.474C291.37 302.432 244.855 300.387 201.483 313.312C217.15 312.765 232.536 306.843 248.833 307.796C241.548 309.343 234.415 311.662 227.165 312.666C205.15 315.68 183.725 320.942 162.642 325.294C155.344 326.802 150.127 331.617 142.912 332.963C140.671 333.389 137.528 335.107 136.311 334.799C128.933 332.963 121.666 335.594 114.84 338.757L152.152 253.464C154.189 258.216 156.367 262.98 157.965 267.816C159.48 272.413 161.089 276.961 162.761 281.476C169.412 299.437 177.052 316.871 183.695 334.817C193.995 362.554 204.974 390.104 214.642 418.011C220.241 434.199 225.261 451.501 231.297 466.73C231.348 466.857 231.4 466.983 231.452 467.109C236.657 479.768 242.597 492.091 250.037 503.447C260.227 519.024 274.862 530.697 286.283 545.708C297.135 550.307 306.357 557.458 316.846 563.01C319.887 564.556 322.938 566.068 326.013 567.502C367.025 586.673 406.947 607.793 447.554 627.864C497.339 652.481 547.077 677.366 596.441 702.761C629.163 719.572 662.144 735.971 694.894 752.721C696.186 753.367 697.359 754.28 698.812 755.207C696.11 755.619 692.499 752.132 689.841 752.124C693.519 754.664 698.621 757.87 701.273 757.889C705.648 757.917 709.899 760.626 713.874 762.663C717.777 764.682 721.682 766.699 725.586 768.715C737.041 774.798 749.117 779.748 761.638 783.539C786.911 791.204 814.271 792.732 841.109 789.243C864.275 786.244 887.291 779.396 908.484 768.357C931.209 756.537 951.831 740.039 968.704 720.012C946.642 745.327 918.704 764.581 888.341 776.163C888.28 775.899 888.212 775.62 888.203 775.336C922.94 761.264 956.141 737.879 977.517 705.502C977.329 705.384 977.141 705.265 976.954 705.146C966.782 718.64 954.992 730.8 942.029 741.098C938.068 744.257 934.125 747.767 929.756 749.933C930.772 747.538 935.304 745.341 937.723 742.895C936.629 743.122 934.446 745.777 933.36 745.554C933.62 745.251 933.831 744.892 934.193 744.622C945.745 735.571 956.562 725.398 966.749 714.504C969.114 711.961 970.568 709.826 971.914 707.469C975.9 700.618 983.076 690.266 987.516 685.151C989.793 682.563 990.011 684.138 989.358 686.51C988.367 690.143 989.141 690.514 991.951 687.319C993.61 685.408 994.029 685.463 993.523 687.556C992.059 693.233 992.5 693.18 998.319 682.71C993.3 694.137 996.094 691.207 999.012 689.948C1003.11 688.244 1010.21 680.486 1006.79 694.36C1006.32 696.124 1007.13 698.35 1009.48 696.979C1012.03 695.494 1015.35 693.782 1014.57 699.866C1014.45 700.773 1013.73 702.943 1013.02 704.335C1005.84 717.975 1008.62 716.966 1010.77 716.224C1016.16 714.208 1017.31 719.432 1017.81 726.201C1018.07 729.8 1019.82 731.15 1020.12 734.801C1020.5 738.874 1013.78 750.385 1008.39 758.371C997.921 774.224 984.775 788.562 970.087 800.901C963.537 806.432 956.319 812.375 949.469 817.807C937.542 827.29 924.939 833.001 911.711 840.003C906.723 842.635 902.75 844.79 899.082 847.201C892.336 847.451 883.45 852.945 875.451 855.242C867.425 857.584 858.669 859.7 851.08 862.889C845.661 865.16 842.992 863.677 837.753 864.601C809.482 869.546 780.081 869.098 751.494 865.422C736.39 863.497 721.862 859.85 708.37 854.953C702.17 852.709 696.146 850.342 690.073 847.751C657.111 833.804 623.237 821.518 590.295 807.52C573.746 800.493 556.528 791.912 538.343 787.246C531.181 785.417 523.789 781.537 516.718 778.226C505.065 772.787 493.572 767.473 480.927 763.445C468.784 759.577 457.835 752.569 445.472 748.232C429.25 742.556 413.687 735.413 397.951 728.497C390.561 725.256 383.055 721.793 375.61 722.035C370.71 722.217 373.291 718.709 368.586 717.175C359.55 714.237 350.491 710.709 341.545 707.251C323.154 700.162 305.72 691.742 288.509 682.667C281.902 679.176 274.54 676.067 267.263 673.362C264.826 672.418 262.415 671.473 260.043 670.529C252.284 667.448 245.645 661.368 237.775 659.88C235.348 656.264 230.874 650.939 225.911 649.782C217.899 647.92 212.374 642.653 205.782 637.891C192.794 628.511 179.916 618.758 170.521 605.623C168.384 602.622 166.393 603.958 163.49 600.478C158.051 593.996 152.105 586.746 147.345 580.865C134.974 565.687 128.312 546.748 116.41 531.473C112.766 526.827 111.004 519.775 108.693 513.314C108.478 512.705 108.25 512.104 108.005 511.515C102.442 498.119 95.7304 484.738 92.8137 470.688C89.6557 455.325 82.2389 441.37 76.2078 427.52C72.8077 419.689 70.2326 409.368 64.3213 403.332C65.9797 398.07 59.352 389.642 61.2596 383.864C62.4556 380.252 58.5086 374.592 56.451 371.935C49.0121 362.41 46.2817 354.744 42.1782 342.829C40.6302 338.333 39.3188 333.637 37.8089 328.952C35.3172 321.221 32.2843 313.519 26.7555 306.793C25.8117 305.646 25.0409 303.988 24.361 302.019L-3.49138e-05 237.478L63.7588 211.955C69.784 209.702 78.4769 208.093 85.2858 205.842C91.2977 203.827 98.8914 201.252 104.827 201.889C106.757 202.112 108.701 201.655 110.112 200.159C116.982 193.085 127.307 193.404 136.097 192.636C144.016 191.952 150.755 193.098 156.295 187.192C158.105 185.31 164.268 184.389 168.19 184.294C178.777 184.027 178.71 184.171 188.054 180.821C189.517 180.31 191.468 180.046 193.146 179.924C211.259 178.444 228.965 174.357 247.685 175.74C260.925 176.688 278.562 176.518 290.388 174.064C304.351 171.136 316.8 173.571 329.754 173.331C345.02 173.035 360.847 173.984 375.968 176.135C409.127 180.806 442.492 183.371 474.504 192.073C477.61 192.927 481.615 194.29 484.053 192.78C485.519 191.853 489.477 192.858 490.638 193.509C504.734 201.521 521.802 202.114 537.014 206.467C578.884 218.426 620.073 231.989 659.871 249.105C682.762 258.934 705.638 268.783 727.506 280.479C746.084 290.414 764.459 300.286 782.503 310.941C787.608 313.956 792.637 317.004 797.66 320.145C813.627 330.132 829.476 341.004 845.519 350.803C851.413 354.377 860.148 358.185 862.589 364.65C862.639 364.704 879.25 374.776 879.563 375.065C881.16 376.155 882.801 377.179 884.221 378.395C905.893 396.524 927.865 413.274 948.407 432.053C977.547 458.669 1004.61 487.682 1029.96 517.765C1037.77 527.043 1044.6 537.322 1053.08 547.477C1048.4 539.14 1040.7 531.591 1037.18 524.326C1048.96 539.212 1060.56 554.674 1070.17 570.31C1073.33 575.448 1076.86 580.782 1080.24 586.114L1094.14 607.513L1084.77 624.53C1079.43 633.919 1074 643.152 1068.27 649.832C1066.95 651.394 1066.05 653.87 1065.2 655.716C1062.4 661.722 1060.05 664.19 1059.85 662.663C1059.36 659.351 1057.01 663.614 1053.63 670.152C1052.45 672.429 1050.89 675.685 1049.84 676.218C1048.98 676.697 1050 674.35 1050.97 672.197C1052.74 668.313 1055.66 662.436 1053.36 664.132C1051.72 665.338 1048.86 668.588 1046.24 675.104C1046.11 675.406 1045.55 676.09 1045.06 676.801C1044.9 674.932 1047.2 670.786 1049.02 667C1044.94 671.498 1041.76 674.601 1042.43 668.93C1042.58 667.707 1041.75 668.41 1043.37 665.11C1046.72 658.276 1046.24 658.13 1043.55 660.587C1040.13 663.725 1035.37 669.57 1037.01 661.393C1037.14 660.802 1036.85 660.599 1036.47 661.004C1032.77 664.881 1031.35 664.747 1031.91 658.953C1032.29 655.168 1027.1 663.338 1023.85 668.928C1016.6 681.415 1010.3 687.944 1007.6 686.728C1007.6 686.728 1007.6 686.728 1007.6 686.728C1006.69 686.32 1006.17 685.044 1006.12 682.828C1006.05 677.616 1007.2 668.422 1000.88 677.376C1010.12 651.224 1019.2 625.16 1028.25 599.135L1031.17 623.953C998.333 588.508 962.701 556.264 925.181 526.23C867.306 480.012 805.496 438.711 739.434 406.896C748.481 412.785 758.784 416.786 767.572 422.874C768.289 423.374 768.62 424.035 770.295 425.943C757.157 418.689 743.871 411.735 730.45 405.086C728.959 404.347 727.468 403.613 725.977 402.883C724.577 402.198 722.941 401.43 724.504 401.16C728.993 400.345 722.727 399.067 722.331 399.152C718.219 399.955 713.603 397.303 709.4 394.66C703.837 391.186 697.894 389.541 692.125 387.119C665.7 376.043 638.902 365.963 611.796 357.105C601.266 353.662 590.709 349.513 579.459 347.362C572.888 346.114 576.968 350.473 571.535 349.117C565.326 347.587 570.448 344.796 564.075 343.153C557.488 341.468 551.069 338.86 543.712 337.553C544.981 338.865 545.96 339.87 547.906 341.881C531.534 333.951 516.269 332.691 500.063 331.429ZM195.999 184.593C210.447 184.507 224.258 181.185 238.42 180.333C224.192 179.608 210.078 182.519 195.999 184.593ZM295.013 178.458C280.643 175.912 265.75 177.809 251.023 179.164C265.694 178.988 280.453 177.229 295.013 178.458ZM154.842 192.28C130.765 197.417 106.754 204.058 83.0075 212.603C83.217 212.96 83.4252 213.318 83.6343 213.675C107.255 205.186 131.143 198.581 155.102 193.467C155.015 193.072 154.928 192.676 154.842 192.28ZM42.8432 325.522C39.4655 316.63 35.6914 307.889 32.0887 299.082L10.5959 242.141L66.8477 219.623C68.2843 219.007 69.7276 218.4 71.1781 217.805C69.6968 218.319 68.2163 218.834 66.7402 219.356L10.227 241.979L31.8196 299.185C34.7864 308.313 37.7805 317.445 42.8432 325.522ZM998.959 547.817C1017.06 571.17 1034.77 589.701 1051.11 608.581L1051.42 609.066L1051.21 609.452C1050.67 610.863 1050.13 612.271 1049.59 613.677C1050.31 612.35 1051.02 611.019 1051.73 609.685L1052.08 609.042L1051.56 608.234C1037.08 586.778 1019.42 567.566 998.959 547.817ZM799.541 799.023C790.068 797.423 783.314 795.744 775.553 797.121C783.725 798.719 790.772 799.961 799.541 799.023ZM677.505 756.525C662.991 746.409 649.033 740.498 634.795 735.851C648.288 743.277 661.943 749.703 677.505 756.525ZM763.698 786.302C761.932 785.778 760.14 785.185 759.369 785.569C758.727 785.882 759.102 786.702 759.295 787.359C759.48 787.8 760.612 788.37 761.508 788.244C768.233 787.217 774.463 791.559 781.145 792.01C777.622 792.465 773.382 790.38 768.485 790.645C782.962 794.584 795.328 792.52 808.799 794.532C808.819 794.539 808.838 794.546 808.857 794.553C804.521 792.391 800.102 793.277 795.902 792.792C784.941 791.509 774.142 789.4 763.698 786.302ZM854.598 790.404C843.993 791.794 835.188 793.109 826.3 794.126C835.126 793.159 844.415 794.384 854.598 790.404ZM268.959 540.897C268.982 540.637 267.601 538.943 266.518 539.153C265.355 539.374 265.391 540.455 266.041 541.802C268.321 546.505 273.113 549.816 278.361 555.364C278.366 555.356 278.372 555.348 278.378 555.34C277.853 553.247 277.944 552.628 277.546 552.128C274.69 548.477 267.956 545.884 268.959 540.897ZM713.843 766.622C717.264 768.414 720.63 770.329 724.016 772.208C729.183 775.178 734.548 777.785 740.377 779.068C734.883 776.876 729.512 774.45 724.213 771.771C720.757 770.054 717.3 768.337 713.843 766.622ZM699.824 759.196C691.106 754.428 682.589 749.373 673.195 746.429C682.052 750.888 690.41 756.616 699.824 759.196ZM486.793 654.664C481.24 652.619 478.203 647.372 475.404 647.04C465.903 645.892 458.9 639.643 450.805 635.983C461.687 643.682 472.811 651.025 486.793 654.664ZM645.508 732.179C638.134 728.743 635.839 723.283 627.002 719.902C629.104 725.948 638.219 728.713 645.508 732.179ZM426.751 621.342C426.385 621.197 426.006 621.076 425.699 620.96C415.399 617.313 405.847 611.998 396.314 606.805C392.276 604.59 389.372 604.651 388.504 605.782C387.472 607.118 391.557 608.591 393.714 609.713C407.477 617.017 422.099 622.574 435.889 630.14C440.201 632.506 445.393 633.844 450.179 635.643C451.433 633.619 447.028 632.996 445.131 631.66C440.335 628.247 436.073 628.285 431.629 626.65C425.579 624.43 424.62 623.043 426.751 621.342ZM292.867 552.206C293.199 549.729 291.798 550.815 291.424 551.462C290.987 552.214 288.636 550.586 289.184 552.507C290.108 553.087 291.166 553.641 292.119 554.359C292.965 554.97 294.231 555.559 294.194 556.563C294.18 556.553 294.166 556.544 294.152 556.535C282.79 552.459 276.684 540.748 266.634 534.829C279.901 549.123 295.779 561.465 313.838 569.704C319.319 572.199 324.83 574.632 330.381 576.99C332.493 577.893 334.796 578.209 336.621 579.751C346.885 588.28 360.539 592.306 372.332 598.715C376.031 600.727 378.206 600.525 381.537 599.995C367.401 594.162 354.842 588.499 343.669 580.713C341.915 579.493 339.555 578.5 337.481 577.515C329.998 574.02 322.49 570.583 315.016 567.083C308.417 563.954 302.067 560.327 296.179 556.081C294.54 554.886 292.584 554.176 292.867 552.206ZM996.815 674.258C998.784 667.276 1010.1 633.905 1022.69 596.635L1026.34 627.678C990.284 588.789 943.587 550.704 939.814 546.694C970.598 570.805 999.696 598.562 1027.31 626.93L1023.8 597.137C1022.92 599.881 1022.04 602.624 1021.17 605.365C1014.32 627.031 1007.55 649.159 998.152 671.548C997.779 672.46 997.344 673.201 996.815 674.258ZM254.104 516.025C243.793 503.091 235.442 488.665 229.27 473.391C228.583 471.674 227.975 469.908 227.249 468.268C226.002 465.341 224.527 462.711 222.425 460.891C222.432 460.909 222.439 460.928 222.446 460.945C221.896 463.564 223.41 466.545 224.452 469.33C224.468 469.371 224.483 469.412 224.497 469.452C230.746 486.918 239.84 503.38 251.208 518.134C252.703 520.048 254.208 522.705 255.869 521.712C257.83 520.514 255.896 518.266 254.104 516.025ZM820.533 788.984C838.927 787.972 857.427 784.92 875.703 780.042C857.938 786.428 839.083 789.271 820.533 788.984ZM156.157 282.468C154.494 273.766 149.43 266.285 147.175 257.738C147.373 267.137 152.207 274.635 156.157 282.468ZM195.342 381.131C194.933 386.549 196.345 391.84 199.556 397.778C203.107 404.359 205.75 411.917 207.411 419.426C207.779 421.041 207.194 422.946 209.033 423.44C210.873 423.934 210.469 421.774 209.533 419.252C204.817 406.54 200.086 393.833 195.342 381.131ZM213.06 427.244C214.647 438.4 217.636 449.5 222.247 460.462C223.592 449.247 215.311 438.356 213.06 427.244ZM222.188 460.691C222.196 460.711 222.203 460.732 222.211 460.752C222.213 460.739 222.215 460.727 222.216 460.714C222.207 460.706 222.198 460.698 222.188 460.691ZM761.463 780.15C761.392 780.46 761.321 780.77 761.25 781.08C749.03 777.945 737.327 773.09 726.329 767.061C711.565 759.243 696.866 751.276 681.925 743.711C696.859 751.198 711.784 758.707 726.7 766.235C737.782 771.971 749.419 776.646 761.463 780.15ZM451.392 627.488C499.632 649.142 546.122 674.212 593.575 697.456C593.572 697.464 593.568 697.471 593.565 697.479C593.292 697.927 593.066 698.428 592.852 698.905C545.724 674.936 498.601 651.117 451.392 627.488ZM668.426 735.597C668.263 735.801 668.148 736.056 668.033 736.311C644.959 724.756 621.863 713.251 598.744 701.796C598.914 701.576 599.155 701.363 599.277 701.091C622.349 712.543 645.399 724.045 668.426 735.597ZM581.754 342.971C594.985 346.873 607.395 352.744 621.61 354.653C608.536 349.984 595.426 345.613 582.253 341.529C582.086 342.01 581.92 342.491 581.754 342.971ZM884.598 772.149C887.107 771.36 885.251 770.41 887.645 769.979C899.528 767.784 909.54 760.442 919.667 754.319C925.182 750.956 927.36 749.955 929.645 749.997C918.188 758.039 906.01 765.422 892.981 769.751C890.407 770.588 889.321 771.794 887.102 772.59C883.626 773.806 883.677 773.202 884.598 772.149ZM929.767 749.984C929.771 749.988 929.774 749.992 929.777 749.996C929.762 749.996 929.743 749.998 929.728 749.997C929.73 749.992 929.733 749.986 929.735 749.981C929.746 749.982 929.757 749.983 929.767 749.984ZM929.728 749.997C929.725 750.004 929.723 750.01 929.721 750.017C929.715 750.01 929.709 750.003 929.703 749.996C929.712 749.996 929.72 749.997 929.728 749.997ZM929.756 749.933C929.749 749.949 929.741 749.965 929.735 749.981C929.718 749.977 929.7 749.974 929.683 749.971C929.707 749.958 929.731 749.946 929.756 749.933ZM929.703 749.996C929.685 749.996 929.664 749.997 929.645 749.997C929.657 749.988 929.67 749.979 929.683 749.971C929.69 749.979 929.696 749.987 929.703 749.996ZM192.737 316.333C194.509 316.062 197.583 315.422 197.266 314.027C196.945 312.63 194.428 313.504 192.33 313.968C181.117 316.365 169.973 318.968 159.101 321.99C170.199 322.337 181.301 318.106 192.737 316.333ZM839.157 782.021C853.663 780.215 867.742 776.131 882.072 772.118C882.914 771.888 883.686 772.139 884.478 772.186C880.282 774.889 875.181 776.885 869.231 778.377C860.053 780.668 850.778 782.507 841.45 783.538C839.598 783.75 837.266 784.066 836.991 783.133C836.85 782.648 837.757 782.186 839.157 782.021ZM834.837 462.951C827.378 460.292 810 449.716 799.981 441.793C813.283 448.432 823.576 456.62 834.837 462.951ZM468.797 317.359C475.16 320.814 480.69 322.303 488.428 322.129C482.423 318.038 476.358 317.682 468.797 317.359ZM558.553 340.099C560.475 340.724 562.448 341.2 562.93 340.309C563.54 339.225 561.019 337.613 559.288 337.584C550.538 337.473 542.224 332.436 530.985 331.699C531.005 331.704 531.025 331.709 531.045 331.714C541.958 334.874 550.297 337.441 558.553 340.099ZM727.603 759.962C728.113 760.248 728.624 760.532 729.136 760.814C739.325 766.723 750.339 770.706 761.402 774.568C772.449 778.408 784.441 779.443 794.798 783.875C771.939 779.034 747.992 774.099 729.085 760.926C728.59 760.606 728.096 760.285 727.603 759.962ZM390.794 594.759C390.646 595.088 390.498 595.418 390.35 595.747C367.077 584.531 343.779 573.368 320.458 562.259C320.61 561.919 320.763 561.579 320.915 561.24C344.233 572.359 367.526 583.532 390.794 594.759ZM884.673 772.06C884.713 772.034 884.758 772.008 884.798 771.981C884.798 771.981 884.686 772.066 884.62 772.123C884.613 772.132 884.606 772.14 884.598 772.149C884.594 772.151 884.59 772.152 884.586 772.154C884.572 772.167 884.568 772.174 884.579 772.171C884.561 772.177 884.544 772.184 884.526 772.19C884.51 772.189 884.495 772.187 884.478 772.186C884.513 772.164 884.549 772.141 884.584 772.118C884.636 772.074 884.687 772.03 884.739 771.985C884.716 772.011 884.695 772.036 884.673 772.06ZM795.641 781.691C803.037 783.326 810.967 782.003 818.259 784.063C810.442 784.481 802.362 784.903 795.641 781.691ZM157.672 256.488C158.409 258.243 158.976 260.344 157.629 260.506C156.363 260.706 155.602 258.889 154.994 256.944C154.573 255.58 154.154 254.22 153.736 252.862L115.473 340.329C118.498 339.374 121.551 338.451 124.671 337.546C124.654 337.552 124.637 337.558 124.621 337.565C124.648 337.956 124.716 338.299 124.795 338.671C121.94 339.888 119.111 341.152 116.314 342.415L155.838 252.063C156.455 253.535 157.068 255.01 157.672 256.488ZM264.397 516.932C272.204 523.352 277.685 531.777 285.604 538.041C276.739 532.946 270.63 524.595 264.397 516.932ZM677.235 734.077C677.517 733.288 679.392 733.441 680.838 734.385C689.651 740.22 699.281 744.56 708.788 749.331C709.849 749.849 710.741 750.908 712.726 752.571C700.704 748.914 690.743 741.95 680.322 737.452C678.088 736.502 676.905 734.972 677.235 734.077ZM624.091 705.089C639.023 712.994 653.973 721.024 669.039 728.791C672.132 730.39 673.9 731.577 673.618 732.524C673.119 734.115 669.849 731.629 667.993 730.637C653.938 723.182 639.985 715.657 625.963 708.129C625.982 708.139 626.002 708.149 626.022 708.159C625.391 707.162 624.769 706.141 624.091 705.089ZM302.954 313.909C292.244 314.497 281.717 313.897 269.163 313.649C275.729 311.917 279.953 310.835 284.505 309.729C282.038 307.524 277.389 309.641 273.886 307.913C286.981 307.273 298.969 306.29 311.395 306.955C325.798 307.741 340.876 308.071 355.513 307.976C355.554 307.957 355.596 307.939 355.637 307.92C362.121 307.91 364.098 309.237 366.752 311.176C366.73 311.191 366.711 311.207 366.69 311.221C361.034 313.241 355.55 315.306 349.157 311.17C347.068 309.863 345.295 311.288 343.433 311.39C333.098 311.963 323.062 314.213 312.445 311.692C309.211 310.918 306.37 313.72 302.954 313.909ZM580.756 684.847C597.075 690.034 611.824 698.234 625.848 708.049C610.482 701.062 595.667 692.848 580.756 684.847ZM625.963 708.129C625.925 708.103 625.886 708.076 625.848 708.049C625.89 708.068 625.931 708.088 625.973 708.107C625.969 708.114 625.966 708.122 625.963 708.129ZM456.782 621.572C460.023 621.722 461.82 620.286 465.994 623.321C479.433 633.107 495.203 637.711 509.69 645.166C510.678 645.687 511.656 646.233 512.82 646.842C511.054 647.893 508.224 644.586 505.568 645.055C512.97 649.23 519.883 653.213 527.534 656.194C528.518 656.566 529.947 656.427 530.267 656.674C533.77 659.441 541.702 661.795 541.357 664.006C541.081 666.22 534.172 662.067 531.322 660.566C531.303 660.556 531.283 660.546 531.263 660.536C506.682 647.695 481.716 635.548 456.782 621.572ZM929.48 538.351C917.495 528.928 904.778 521.583 892.93 511.457C891.457 510.189 888.647 508.597 888.989 507.619C889.282 506.702 891.614 508.184 893.414 509.556C893.418 509.551 893.422 509.546 893.427 509.541C905.655 518.847 917.679 528.451 929.48 538.351ZM828.603 467.27C820.741 460.496 810.772 458.2 802.695 452.012C802.673 452.007 802.651 452.003 802.629 451.998C799.34 449.457 795.239 447.02 792.916 443.649C806.434 450.016 817.103 458.141 828.48 465.008C829.922 465.881 831.379 467.362 830.752 467.906C830.559 468.063 828.932 467.557 828.603 467.27ZM774.944 433.875C768.417 430.353 759.717 431.246 756.034 423.346C763.28 425.214 768.66 430.254 774.944 433.875ZM749.879 419.876C740.885 417.045 734.492 412.806 728.02 409.48C726.87 408.89 725.718 408.332 724.552 407.819C725.783 408.22 727.009 408.64 728.238 409.086C734.956 411.524 741.742 414.717 749.879 419.876ZM366.881 311.268C366.862 311.254 366.841 311.24 366.821 311.226C366.818 311.271 366.814 311.316 366.811 311.361C366.832 311.329 366.86 311.299 366.881 311.268ZM861.556 489.152C855.056 484.229 847.149 480.429 839.632 473.261C849.505 477.524 855.471 484.025 862.674 488.348C862.941 488.511 863.553 489.444 863.374 489.469C862.988 489.55 861.978 489.42 861.621 489.171C861.599 489.165 861.578 489.158 861.556 489.152ZM203.652 325.76C196.659 327.642 192.817 325.075 187.016 328.048C187 328.062 186.983 328.076 186.967 328.091C186.879 327.407 186.848 326.711 186.761 326.028C188.299 325.558 189.767 324.984 191.304 324.624C213.58 319.374 236.614 315.539 260.039 312.866C262.831 312.551 265.427 312.464 265.934 313.905C266.725 316.094 263.323 316.155 260.487 316.446C247.635 317.765 234.89 320.097 222.411 321.399C215.578 322.108 209.411 324.222 203.652 325.76ZM435.156 608.716C443.199 611.943 449.957 614.192 456.385 617.973C452.408 619.782 442.025 615.677 435.156 608.716ZM375.41 577.941C381.04 578.696 385.161 582.171 389.153 584.81C389.134 584.8 389.114 584.79 389.094 584.781C397.077 590.062 405.124 594.567 414.231 597.666C400.327 594.678 387.45 586.68 374.209 580.615C372.011 579.584 369.882 578.235 370.46 576.947C371.168 575.531 374.052 577.761 375.41 577.941ZM298.945 539.208C302.051 539.657 303.648 536.834 305.25 540.094C307.511 544.629 311.77 546.014 315.538 547.202C318.242 548.046 320.161 549.634 322.139 551.23C325.12 553.268 328.091 555.335 331.931 556.732C341.751 560.329 350.49 567.61 360.999 570.634C363.232 571.266 365.653 572.761 364.884 573.992C364.115 575.222 361.562 573.861 359.435 572.834C348.478 567.446 337.133 562.443 326.643 556.498C326.627 556.48 326.611 556.461 326.595 556.443C324.791 555.424 322.968 554.443 321.126 553.486C313.796 549.426 306.089 545.619 298.945 539.208ZM167.481 250.446C169.155 252.195 168.582 253.325 168.429 253.805C167.154 258.289 168.912 263.516 171.964 267.83C174.811 271.872 172.794 272.569 172.371 273.221C171.26 274.976 169.902 271.141 169.435 269.915C166.774 263.291 163.964 256.662 161.227 250.015L118.468 347.762C125.896 344.471 133.717 341.496 141.678 339.498C150.483 337.295 157.961 333.085 166.58 331.385C166.601 331.391 166.622 331.396 166.642 331.401C173.507 330.034 181.082 326.27 186.455 329.227C185.657 331.955 178.863 327.398 181.572 332.468C182.076 333.437 178.833 334.274 176.911 334.787C164.631 338.125 152.91 341.146 140.743 343.315C133.683 344.561 125.47 347.09 120.23 352.137L165.636 248.34C166.224 249.076 166.838 249.779 167.481 250.446ZM269.111 509.871C275.644 512.268 278.223 518.392 281.055 522.327C285.059 527.86 290.667 529.255 295.05 533.277C296.079 534.2 298.38 534.592 297.834 536.002C297.326 537.368 295.239 536.682 293.572 535.38C293.554 535.379 293.536 535.378 293.518 535.377C284.541 528.332 274.86 521.237 269.111 509.871ZM195.216 328.615C195.241 329.659 198.586 329.932 196.791 332.368C196.185 333.159 195.083 332.805 193.903 330.376C186.025 314.211 179.533 297.377 173.926 280.138C173.747 279.575 174.287 278.878 174.888 277.107C180.464 291.34 186.989 303.458 191.54 317.238C192.781 320.978 195.091 324.452 195.216 328.615ZM207.204 354.659C210.434 360.729 207.339 362.538 208.521 367.141C202.225 359.007 199.139 351.125 202.429 342.505C202.764 348.133 205.406 351.272 207.204 354.659ZM239.297 438.46C240.644 441.172 244.314 445.874 239.81 446.837C238.702 447.048 239.339 448.7 240.354 449.858C240.912 450.488 241.561 450.734 242.19 451.196C242.328 454.828 243.184 458.327 244.349 461.771C245.619 465.77 247.956 469.428 249.304 473.371C249.68 474.437 250.387 476.016 249.005 476.32C248.171 476.492 247.621 475.832 247.094 474.67C245.273 470.72 243.614 466.699 242.123 462.616C234.566 442.202 226.962 421.828 219.316 401.429C219.335 401.421 219.355 401.414 219.374 401.407C219.055 400.545 219.115 399.54 218.856 397.673C222.484 401.558 225.744 406.986 226.301 411.195C227.561 420.542 233.199 427.875 235.035 436.581C235.429 438.466 235.951 442.409 238.238 441.821C239.736 441.448 239.627 439.801 239.297 438.46ZM238.856 437.024C238.97 437.361 239.154 437.882 239.297 438.46C239.001 437.865 238.816 437.367 238.856 437.024Z" fill="#C6EDD1"/>
<path id="l" d="M339.177 1673.47C336.866 1682.21 333.636 1690.82 330.112 1699.68C332.183 1690.77 335.407 1682.01 339.177 1673.47ZM339.177 1673.47C339.216 1673.33 339.256 1673.18 339.295 1673.03C339.295 1673.03 339.289 1673.18 339.263 1673.24C339.269 1673.24 339.274 1673.24 339.279 1673.24C339.245 1673.32 339.211 1673.4 339.177 1673.47ZM339.316 1673.11C339.36 1673.05 339.404 1672.98 339.448 1672.92C339.402 1673.03 339.356 1673.14 339.31 1673.25C339.312 1673.21 339.314 1673.16 339.316 1673.11ZM454.103 2182.41C452.714 2184.12 452.042 2186.37 451.806 2188.94C451.16 2193.44 453.279 2199.1 454.171 2203.78C456.3 2214.85 459.541 2225.45 463.497 2235.87C467.549 2246.55 473.438 2256.81 480.479 2265.8C481.738 2267.38 482.854 2268.42 480.281 2268.11C480.261 2268.11 480.241 2268.1 480.222 2268.09C480.221 2268.1 480.22 2268.1 480.219 2268.11C480.193 2268.11 480.168 2268.1 480.142 2268.1C480.156 2268.09 480.17 2268.08 480.185 2268.07C480.156 2268.06 480.127 2268.05 480.098 2268.04C480.113 2268.03 480.127 2268.02 480.142 2268.01C474.377 2269.03 474.263 2261.98 471.995 2258.93C466.807 2252 464.69 2242.63 460.14 2235.75C455.196 2228.15 455.473 2218.53 448.756 2209.68C454.251 2241.1 468.02 2269.22 489.008 2290.46C490.402 2289.39 487.489 2288.24 488.545 2286.53C506.878 2311.37 532.283 2334.6 563.938 2339.75C554.44 2334.24 542.785 2333.19 534.275 2325.43C539.115 2327.23 544.258 2328.19 548.803 2330.22C562.675 2336.47 577.502 2339.71 592.186 2343.13C597.387 2344.33 602.034 2341.62 607.171 2342.83C608.736 2343.19 611.26 2342.64 611.998 2343.34C615.146 2346.27 618.803 2347.14 622.65 2347.14C629.371 2347.07 636.388 2345.81 643.171 2345.9C647.376 2345.96 651.564 2345.91 655.743 2345.79C672.367 2345.33 688.826 2343.76 705.436 2343.29C725.1 2342.72 744.782 2341.74 764.441 2341.27L702.442 2390.48C703.857 2385.62 705.25 2380.63 706.619 2375.63C710.047 2363.2 713.991 2349.75 715.469 2337.21C717.168 2322.74 719.121 2308.17 720.375 2293.59C722.111 2273.75 719.951 2253.2 724.585 2233.4C720.746 2218.53 722.508 2202.73 721.109 2187.31C717.885 2151.15 714.18 2114.74 706.777 2078.48C697.733 2034.14 685.272 1990.04 670.137 1946.78C660.081 1918.09 648.11 1889.96 635.16 1862.26C634.641 1861.17 634.376 1859.95 633.912 1858.59C636.135 1859.55 636.515 1863.81 638.42 1865.07C637.408 1861.48 635.746 1856.71 633.828 1855.46C630.673 1853.4 629.263 1849.39 627.641 1846.07C620.385 1831.07 612.662 1816.22 604.697 1801.47C601.829 1796.16 598.852 1790.87 595.787 1785.61C585.529 1767.99 574.423 1750.79 563.1 1733.76C550.415 1714.7 537.32 1695.86 523.3 1677.68C508.266 1658.2 492.269 1639.32 475.509 1621.1C496.585 1644.85 516.363 1669.53 534.868 1695.07C534.631 1695.2 534.38 1695.34 534.11 1695.42C511.945 1666.28 489.341 1636.39 463.197 1610.76C463.045 1610.93 462.893 1611.09 462.741 1611.25C473.486 1623.21 483.962 1635.45 494.005 1647.94C497.081 1651.76 500.628 1655.43 502.995 1659.54C500.568 1658.74 498.214 1654.41 495.784 1652.12C496.018 1653.2 498.692 1655.21 498.512 1656.29C498.204 1656.05 497.842 1655.87 497.564 1655.52C488.273 1644.6 478.924 1633.63 469.905 1622.43C467.806 1619.84 465.99 1618.13 463.976 1616.48C458.058 1611.64 449.946 1602.61 446.525 1597.12C444.783 1594.33 446.314 1594.52 448.316 1595.7C451.407 1597.49 451.943 1596.83 449.815 1593.44C448.55 1591.43 448.735 1591.05 450.495 1592.02C455.314 1594.66 455.207 1594.3 447.589 1586.37C456.342 1593.77 454.595 1590.39 454.312 1587.4C453.976 1583.16 449.55 1574.98 460.635 1581.09C462.057 1581.89 464.263 1581.55 463.78 1579.11C463.258 1576.45 462.866 1573.09 467.893 1574.95C468.638 1575.23 470.308 1576.28 471.3 1577.15C481.135 1585.91 481.151 1582.97 481.051 1580.95C480.782 1575.71 485.68 1575.39 491.643 1575.56C494.827 1575.64 496.456 1574.15 499.683 1574.14C503.25 1574.09 511.499 1580.69 517.5 1585.4C529.344 1594.66 540.425 1604.94 550.953 1615.67C555.664 1620.46 561.006 1625.49 566.128 1630C575.075 1637.85 581.334 1646.57 589.6 1654.82C592.712 1657.92 595.333 1660.28 598.172 1662.24C599.625 1667.46 606.442 1672.14 610.485 1677.1C614.568 1682.11 618.938 1687.54 624.11 1691.36C627.804 1694.08 627.413 1696.66 630.043 1699.81C641.273 1713.21 651.819 1727.3 662.395 1741.23C665.159 1744.87 667.922 1748.49 670.702 1752.07C677.773 1761.2 684.163 1770.57 689.824 1779.85C709.287 1811.74 730.01 1843.51 746.641 1877.38C753.884 1892.12 760.15 1908.47 769.461 1923C773.146 1928.73 775.438 1935.96 777.883 1942.75C781.9 1953.85 785.699 1964.8 791.024 1975.78C796.132 1986.31 797.944 1998.19 802.458 2009.36C808.404 2024.05 812.457 2039.34 816.406 2054.71C818.28 2061.97 819.915 2069.32 824.47 2074.7C827.481 2078.23 823.143 2078.31 824.625 2082.66C827.461 2090.97 829.726 2099.76 831.848 2108.41C836.229 2126.2 838.467 2144.24 839.444 2162.32C839.927 2171.22 841.377 2180.59 843.029 2189.54C844.163 2195.65 842.463 2202.2 845.562 2207.67C843.871 2210.71 842.015 2215.8 843.993 2219.25C847.173 2224.77 846.366 2230.46 846.877 2236.5C847.888 2248.33 849.594 2260.25 847.452 2272.17C846.965 2274.91 849.327 2275.21 849.151 2278.58C848.86 2284.86 848.785 2291.87 848.91 2297.55C849.278 2312.06 844.304 2326.58 847.078 2341.3C848.046 2346.26 845.651 2352.2 845.01 2357.93C843.444 2371.85 842.324 2386.61 837.083 2399.84C833.815 2407.99 831.702 2416.76 829.821 2425.27L816.545 2471.94L769.417 2473.22C763.728 2473.76 758.087 2474.5 752.53 2475.02C745.145 2475.69 735.932 2474.78 729.343 2478.41C725.457 2475.14 716.699 2478.67 712.456 2475C709.804 2472.69 704.06 2474.59 701.308 2475.67C691.424 2479.62 684.359 2479.72 673.415 2479.73C669.285 2479.74 665.056 2479.46 660.781 2479.36C653.726 2479.21 646.549 2479.58 639.494 2482.63C636.871 2483.77 632.47 2483.34 627.767 2482.82C623.552 2482.5 619.194 2482.04 615.275 2481.95C609.042 2481.83 601.236 2481.6 596.005 2478.85C594.299 2477.95 592.352 2477.66 590.512 2478.53C581.679 2482.59 572.167 2478.27 563.939 2475.37C556.529 2472.76 550.892 2468.83 543.367 2471.69C540.946 2472.59 534.933 2470.62 531.377 2468.87C521.815 2464.13 522.056 2464.07 512.112 2462.33C510.574 2462.04 508.719 2461.28 507.192 2460.53C490.682 2452.61 473.18 2446.06 458.721 2433.6C448.409 2424.83 434.536 2413.64 423.977 2407.37C411.338 2399.94 403.895 2389.16 394.687 2379.64C383.749 2368.34 373.941 2355.1 366.361 2341.3C349.69 2311.17 334.647 2279.31 330.052 2245.24C329.607 2241.93 329.351 2237.55 327.051 2235.78C325.641 2234.71 325.141 2230.51 325.346 2229.15C327.132 2217.35 325.358 2205.64 324.458 2193.74C324.13 2189.95 323.825 2186.18 323.82 2182.48C323.806 2147.02 322.704 2111.55 322.748 2076.09C322.754 2055.63 321.894 2035.31 322.256 2014.89C322.648 1992.7 322.083 1970.66 322.249 1948.59C322.366 1933.08 322.774 1917.22 321.669 1901.76C321.249 1896.07 319.286 1888.45 323.074 1883.64C323.131 1883.58 321.342 1867.62 321.341 1867.28C321.248 1865.69 321.07 1864.1 321.174 1862.56C322.414 1839.25 321.252 1816.44 321.445 1793.46C321.5 1785.89 321.606 1778.31 321.742 1770.72C321.989 1740.41 327.55 1710.4 337.405 1682.32C341.369 1671.05 347.141 1660.39 352.594 1648.68C347.089 1656.29 344.018 1666.41 339.448 1672.92C346.605 1655.61 355.649 1638.8 366.545 1624.65C376.36 1611.64 387.93 1596.73 399.471 1589.32C401.166 1588.2 402.727 1586.11 404.085 1584.62C405.366 1583.23 406.541 1582.12 407.552 1581.27C409.772 1579.49 411.11 1579.12 410.982 1580.11C410.638 1583.13 413.798 1580.31 418.43 1575.91C420.041 1574.37 422.237 1572.13 423.326 1572.06C424.218 1571.95 422.73 1573.6 421.334 1575.1C418.806 1577.81 414.742 1581.81 417.246 1581.18C419.025 1580.73 422.398 1578.96 426.34 1574.31C426.53 1574.09 427.199 1573.71 427.821 1573.27C427.519 1574.94 424.437 1577.67 421.882 1580.27C426.663 1577.87 430.295 1576.35 428.341 1580.98C427.907 1581.98 428.836 1581.67 426.577 1583.93C421.892 1588.59 422.297 1588.89 425.335 1587.75C429.198 1586.28 434.926 1582.97 431.478 1589.4C431.224 1589.87 431.44 1590.15 431.88 1589.93C436.171 1587.93 437.432 1588.56 435.55 1593.34C434.304 1596.45 440.975 1591.3 445.261 1587.66C454.836 1579.53 462.125 1576.18 464.301 1578.2C464.301 1578.2 464.301 1578.2 464.301 1578.2C465.031 1578.88 465.201 1580.16 464.714 1582.08C463.541 1586.58 460.307 1594.07 468.197 1588.65C460.893 1598.2 453.633 1607.75 446.398 1617.3C416.162 1657.88 403.202 1707.29 406.364 1753.86C406.663 1758.43 407.108 1762.97 407.699 1767.48C414.821 1828.64 419.894 1890.08 426.626 1951.27C426.932 1941.4 424.785 1931.5 425.031 1921.74C425.054 1920.94 425.425 1920.36 426.087 1918.11C427.46 1933.3 428.805 1948.49 430.123 1963.68C430.247 1965.1 430.413 1966.74 429.388 1965.64C426.407 1962.51 428.486 1968.01 428.756 1968.29C431.526 1971.15 431.542 1976.05 431.309 1980.62C431.024 1986.62 432.455 1992.09 433.065 1997.83C435.871 2024 438.434 2050.24 440.931 2076.48C441.902 2086.7 442.027 2097.13 444.056 2107.6C445.237 2113.71 447.859 2108.71 448.511 2113.87C449.25 2119.77 444.855 2116.23 445.508 2122.31C446.181 2128.61 445.855 2135.01 446.975 2141.86C447.81 2140.35 448.447 2139.19 449.715 2136.86C447.542 2153.7 450.87 2167.54 454.103 2182.41ZM507.087 2455.05C494.61 2447.78 481.16 2443.02 469.003 2435.4C480.289 2444.34 493.909 2449.68 507.087 2455.05ZM423.433 2400.94C432.464 2412.69 445.398 2420.98 458.057 2428.83C446.154 2420.07 433.496 2411.84 423.433 2400.94ZM546.9 2467.76C570.655 2473.69 595.178 2476.55 619.546 2476.33C619.469 2475.93 619.394 2475.52 619.318 2475.11C595.122 2475.31 570.774 2472.47 547.188 2466.58C547.092 2466.97 546.996 2467.37 546.9 2467.76ZM659.327 2473.49C649.878 2473.85 640.451 2474.76 631.01 2475.31C640.534 2475.44 650.129 2475.97 659.327 2473.49ZM379.024 1693.81C389.482 1668.71 398.317 1647.2 410.257 1627.44C394.922 1645.82 384.923 1668.34 379.024 1693.81ZM592.253 1763.23C595.845 1770.54 598.533 1776.19 603.258 1780.63C603.875 1781.21 604.526 1781.77 605.218 1782.31C604.794 1781.58 604.379 1780.86 603.969 1780.16C600.49 1774.14 597.367 1768.8 592.253 1763.23ZM650.14 1867.78C654.055 1882.24 659.971 1893.41 666.77 1903.99C662.373 1891.85 656.942 1880.35 650.14 1867.78ZM605.212 1798.08C606.064 1799.68 606.917 1801.35 607.733 1801.61C608.408 1801.83 608.716 1800.99 609.042 1800.39C609.221 1799.95 608.826 1798.76 608.116 1798.24C603.307 1794.75 601.972 1788.5 599.016 1783.46C598.631 1782.79 598.219 1782.15 597.77 1781.55C598.317 1782.04 598.804 1782.63 599.264 1783.29C600.975 1785.74 602.299 1789.09 605.062 1791.69C603.42 1788.55 601.621 1785.68 599.765 1782.96C594.001 1774.54 587.801 1767.61 583.451 1758.47C583.446 1758.45 583.442 1758.43 583.437 1758.41C584.008 1763.15 587.246 1766.18 589.336 1769.76C592.146 1774.61 594.935 1779.46 597.679 1784.35C600.247 1788.91 602.765 1793.48 605.212 1798.08ZM558.709 1721.32C563.969 1730.19 569.019 1737.23 574.152 1744.22C569.06 1737.21 566.141 1728.72 558.709 1721.32ZM732.168 2250.71C731.958 2250.87 731.644 2253.14 732.539 2253.82C733.495 2254.55 734.257 2253.75 734.806 2252.32C736.723 2247.25 736.021 2241.45 737.076 2233.64C737.066 2233.64 737.056 2233.64 737.046 2233.64C735.74 2235.4 735.206 2235.74 735.069 2236.38C734.022 2241.1 736.511 2247.96 732.168 2250.71ZM630.135 1843.13C626.247 1834.97 623.044 1826.2 617.412 1819.01C621.737 1826.96 626.023 1835.07 630.135 1843.13ZM635.709 1855.17C639.027 1862.79 641.886 1870.51 646.681 1877.23C643.26 1869.68 640.921 1861.5 635.709 1855.17ZM704.652 2039.3C706.448 2043.86 704.166 2048.73 705.582 2050.62C710.372 2057.02 709.604 2064.98 711.392 2072C711.195 2060.99 710.335 2049.87 704.652 2039.3ZM656.81 1901.12C659.651 1907.26 657.536 1912.22 661.314 1919.12C664.017 1913.85 659.575 1907.21 656.81 1901.12ZM713.413 2095.05C713.502 2095.35 713.617 2095.66 713.696 2095.91C716.563 2104.46 717.47 2113.26 718.349 2122.13C718.704 2125.88 720.313 2127.75 721.728 2127.76C723.402 2127.77 722.425 2124.36 722.183 2122.38C720.769 2109.66 717.14 2097.32 715.341 2084.57C714.778 2080.57 712.83 2076.51 711.485 2072.57C709.138 2072.92 711.199 2075.97 711.229 2077.91C711.269 2082.79 713.744 2085.45 714.956 2089.14C716.603 2094.16 716 2095.49 713.413 2095.05ZM725.738 2223.56C723.546 2224.83 725.258 2225.37 726 2225.27C726.861 2225.18 726.978 2228.21 728.181 2226.53C728.088 2225.38 727.9 2224.12 727.916 2222.86C727.908 2221.76 727.646 2220.29 728.485 2219.71C728.486 2219.73 728.487 2219.75 728.487 2219.77C731.768 2231.89 726.643 2244.67 729.314 2256.84C730.766 2231.52 730.865 2205.77 727.222 2180.24C726.964 2178.39 726.096 2176.67 726.519 2174.73C728.792 2163.99 725.221 2152.79 724.417 2141.91C724.163 2138.47 722.83 2137.1 720.611 2135.16C723.253 2147.38 724.912 2158.45 723.827 2169.52C723.658 2171.26 723.979 2173.28 724.159 2175.13C725.685 2189.58 727.073 2203.9 726.942 2218.28C726.911 2220.44 727.491 2222.57 725.738 2223.56ZM471.154 1592.79C469.008 1596.09 461.118 1606.86 450.573 1621.17C420.162 1657.14 411.291 1731.08 412.527 1735.7C411.85 1704.26 420.796 1671.45 436.106 1641.7C439.901 1634.3 444.164 1626.95 449.204 1619.9C455.456 1611.39 462.057 1602.93 469.292 1594.64C469.848 1593.99 470.421 1593.51 471.154 1592.79ZM725.329 2280.41C724.533 2298.01 722.91 2315.41 720.504 2332.51C719.861 2336.98 718.811 2341.48 720.593 2345.11C720.595 2345.1 720.598 2345.08 720.6 2345.07C722.328 2343.55 722.327 2340.87 722.686 2338.54C725.743 2319.59 727.715 2300.25 728.898 2280.73C729.03 2278.2 729.709 2275.09 727.815 2274.68C725.562 2274.21 725.459 2277.37 725.329 2280.41ZM572.587 1751.72C562.306 1736.59 552.003 1721.3 541.975 1705.8C553.266 1720.34 563.326 1735.78 572.587 1751.72ZM654.758 2352.36C647.13 2351.11 639.58 2353.47 631.917 2352.83C639.721 2355.69 647.222 2353.55 654.758 2352.36ZM746.8 2347.3C751.156 2349.44 755.903 2349.82 761.676 2348.71C762.672 2348.52 763.683 2348.36 764.703 2348.23L709.157 2392.32C709.911 2387.59 711.442 2382.76 713.48 2378.18C713.985 2377.03 715.444 2376.14 714.125 2374.97C712.804 2373.81 712.067 2375.32 711.589 2377.28C710.38 2382.24 709.09 2387.14 707.736 2391.93L764.648 2346.75C758.698 2346.93 752.749 2347.11 746.8 2347.3ZM712.586 2370.76C716.786 2363.07 719.537 2354.64 720.552 2345.47C714.193 2352.28 716.22 2362.74 712.586 2370.76ZM720.709 2345.34C720.712 2345.33 720.715 2345.31 720.718 2345.29C720.71 2345.3 720.703 2345.31 720.695 2345.32C720.7 2345.32 720.705 2345.33 720.709 2345.34ZM602.443 1804.01C602.711 1803.84 602.979 1803.67 603.248 1803.5C617.042 1826.36 627.67 1850.83 638.672 1874.98C627.556 1850.94 615.47 1827.26 602.443 1804.01ZM704.25 2076.3C693.618 2034.72 683.447 1992.63 668.286 1951.83C668.294 1951.82 668.301 1951.82 668.309 1951.82C668.81 1951.66 669.317 1951.45 669.8 1951.25C684.24 1992.38 695.787 2034.22 704.25 2076.3ZM642.961 1887.33C643.211 1887.27 643.46 1887.14 643.709 1887.01C652.429 1906.55 660.475 1926.22 667.909 1946.2C667.639 1946.25 667.327 1946.27 667.053 1946.38C659.652 1926.46 651.641 1906.82 642.961 1887.33ZM439.135 2107.1C438.02 2094.43 438.733 2081.75 434.789 2069.13C435.747 2081.81 436.687 2094.48 437.61 2107.16C438.118 2107.14 438.626 2107.12 439.135 2107.1ZM531.964 1699.71C530.556 1697.52 530.115 1699.55 529.096 1697.36C524.044 1686.53 515.207 1678.3 508.105 1669.02C504.248 1663.99 503.152 1661.88 503.063 1659.64C511.617 1670.25 520.497 1680.8 527.608 1692.28C529.001 1694.56 530.432 1695.3 531.746 1697.2C533.794 1700.19 533.223 1700.31 531.964 1699.71ZM503.044 1659.52C503.048 1659.52 503.052 1659.52 503.056 1659.51C503.056 1659.53 503.059 1659.55 503.059 1659.56C503.054 1659.56 503.048 1659.56 503.042 1659.55C503.043 1659.54 503.044 1659.53 503.044 1659.52ZM503.059 1659.56C503.066 1659.56 503.073 1659.56 503.079 1659.57C503.073 1659.57 503.066 1659.58 503.059 1659.58C503.059 1659.58 503.06 1659.57 503.059 1659.56ZM502.995 1659.54C503.01 1659.54 503.027 1659.55 503.042 1659.55C503.04 1659.57 503.038 1659.59 503.035 1659.61C503.022 1659.58 503.008 1659.56 502.995 1659.54ZM503.059 1659.58C503.06 1659.6 503.062 1659.62 503.063 1659.64C503.054 1659.63 503.044 1659.62 503.035 1659.61C503.043 1659.6 503.051 1659.59 503.059 1659.58ZM570.414 2340.36C569.232 2339.94 567.141 2339.35 566.747 2340.72C566.354 2342.1 568.234 2342.28 569.702 2342.65C577.497 2344.74 585.404 2346.42 593.402 2347.46C586.365 2343.21 578.052 2343.08 570.414 2340.36ZM557.496 1738.71C549.352 1726.44 540.401 1714.77 532.612 1702.14C532.16 1701.4 532.194 1700.59 532.031 1699.82C535.735 1703.11 539.077 1707.32 542.419 1712.39C547.572 1720.23 552.813 1728.03 557.838 1735.98C558.838 1737.55 560.179 1739.49 559.475 1740.16C559.108 1740.51 558.276 1739.9 557.496 1738.71ZM418.249 1850.63C420.808 1857.43 422.905 1875.94 422.251 1887.59C419.887 1874.23 420.217 1862.24 418.249 1850.63ZM449.192 2207.36C450.599 2202.41 450.466 2198.55 448.233 2193.61C445.896 2198.36 447.269 2202.53 449.192 2207.36ZM444.509 2128.11C444.452 2126.23 444.228 2124.35 443.226 2124.22C442 2124.04 441.341 2126.74 441.893 2128.26C444.726 2135.91 442.665 2144.71 445.401 2154.81C445.399 2154.79 445.398 2154.77 445.397 2154.75C445.062 2144.22 444.774 2136.13 444.509 2128.11ZM615.919 1841.91C610.691 1830.23 604.308 1819.4 598.6 1808.07C595.569 1802.06 591.89 1796.23 588.748 1790.3C586.279 1785.63 584.151 1780.92 582.884 1776.02C585.058 1780.59 587.387 1785.1 589.799 1789.6C599.047 1806.88 609.552 1823.73 615.919 1841.91ZM711.276 2131.69C711.631 2131.62 711.986 2131.56 712.341 2131.49C715.427 2152.12 717.734 2172.72 719.21 2193.29C718.84 2193.33 718.469 2193.36 718.099 2193.4C716.637 2172.86 714.344 2152.29 711.276 2131.69ZM531.859 1699.67C531.823 1699.64 531.786 1699.6 531.75 1699.57C531.75 1699.57 531.861 1699.65 531.933 1699.7C531.943 1699.71 531.953 1699.71 531.964 1699.71C531.967 1699.72 531.969 1699.72 531.971 1699.72C531.988 1699.73 531.996 1699.74 531.99 1699.73C532 1699.74 532.011 1699.76 532.022 1699.77C532.026 1699.79 532.028 1699.8 532.031 1699.82C532 1699.79 531.969 1699.76 531.938 1699.74C531.882 1699.7 531.826 1699.66 531.77 1699.62C531.8 1699.64 531.829 1699.65 531.859 1699.67ZM580.625 1776.65C577.367 1769.62 571.698 1763.63 569.566 1756.22C574.083 1762.78 579.029 1769.2 580.625 1776.65ZM633.752 2342.5C635.4 2342.37 637.287 2342.52 637.053 2343.84C636.872 2345.11 635.166 2345.24 633.397 2345.18C629.768 2345.05 626.175 2344.92 622.561 2344.79C621.895 2344.75 621.23 2344.7 620.565 2344.65C620.578 2344.65 620.591 2344.65 620.604 2344.65C620.675 2344.27 620.707 2343.92 620.737 2343.55C621.325 2343.49 621.916 2343.44 622.508 2343.38C626.235 2343.07 629.992 2342.75 633.752 2342.5ZM718.31 2272.24C716.992 2261.15 719.341 2250.27 719.073 2239.24C720.838 2250.27 718.984 2261.33 718.31 2272.24ZM635.729 1884.18C635.011 1884.61 633.785 1883.61 633.376 1882.24C630.914 1873.81 626.83 1866.2 622.961 1858.31C622.52 1857.44 622.544 1856.25 622.147 1854.1C628.603 1862.34 631.249 1872.02 635.745 1880.27C636.714 1882.03 636.549 1883.7 635.729 1884.18ZM653.084 1930.76C648.404 1917.74 643.505 1904.72 638.03 1891.89C636.915 1889.26 636.445 1887.57 637.268 1887.03C638.669 1886.13 639.342 1889.48 639.988 1891.08C644.97 1903.23 649.54 1915.4 653.915 1927.73C653.908 1927.71 653.902 1927.7 653.895 1927.68C653.636 1928.68 653.352 1929.7 653.084 1930.76ZM510.594 2297.02C516.064 2301.42 520.738 2306.47 526.964 2312.03C522.627 2310.63 519.763 2309.57 516.791 2308.41C516.618 2311.21 520.315 2311.64 521.065 2314.54C513.892 2309.26 507.245 2304.47 501.766 2298.14C495.385 2290.74 488.825 2283.21 482.402 2275.76C482.369 2275.75 482.336 2275.74 482.304 2275.73C479.487 2272.4 479.738 2270.58 480.219 2268.11C480.24 2268.11 480.26 2268.11 480.281 2268.11C484.286 2269.87 488.161 2271.28 487.685 2277.02C487.569 2278.88 489.451 2278.86 490.342 2279.7C495.342 2284.44 501.43 2287.59 504.603 2294.28C505.594 2296.35 508.86 2295.62 510.594 2297.02ZM667.745 1966.99C660.745 1954.78 656.708 1941.7 653.938 1927.84C659.581 1940.45 663.704 1953.71 667.745 1966.99ZM653.915 1927.73C653.922 1927.77 653.931 1927.81 653.938 1927.84C653.923 1927.81 653.908 1927.78 653.893 1927.74C653.9 1927.74 653.908 1927.74 653.915 1927.73ZM696.384 2076.25C694.622 2074.2 692.436 2073.91 692.415 2069.71C692.32 2056.1 686.453 2044.1 683.321 2031.37C683.116 2030.49 682.935 2029.6 682.685 2028.56C684.581 2028.96 683.776 2032.56 685.759 2033.82C684.461 2027.08 683.194 2020.62 680.685 2014.5C680.352 2013.72 679.353 2012.99 679.339 2012.66C679.245 2008.99 675.992 2003.07 677.861 2001.89C679.696 2000.67 680.966 2007.16 681.616 2009.69C681.621 2009.71 681.626 2009.72 681.631 2009.74C687.4 2031.58 693.087 2053.33 696.384 2076.25ZM412.7 1745.6C413.087 1753 414.592 1760.08 415.929 1767.17C416.675 1771.89 417.259 1776.69 417.47 1781.63C417.542 1783.39 418.269 1786.27 417.315 1786.65C416.44 1787.03 415.961 1784.54 415.746 1782.49C415.74 1782.49 415.733 1782.49 415.726 1782.49C415.192 1777.41 414.655 1772.32 414.115 1767.24C413.238 1760.09 412.763 1752.87 412.7 1745.6ZM425.491 1852.64C424.987 1862.12 429.163 1870.68 428.934 1880.04C428.944 1880.06 428.953 1880.08 428.963 1880.1C428.853 1883.92 429.27 1888.29 427.864 1891.82C425.228 1878.36 425.35 1866.1 423.783 1854.01C423.587 1852.48 423.853 1850.59 424.668 1850.73C424.911 1850.78 425.515 1852.24 425.491 1852.64ZM430.08 1910.49C430.825 1917.25 436.368 1923.48 431.729 1930.33C429.371 1923.8 430.609 1917.14 430.08 1910.49ZM432.121 1936.81C434.98 1946.68 434.08 1954.75 435.095 1962.46C433.258 1954.95 432.119 1947.3 432.121 1936.81ZM480.24 2267.99C480.236 2268.01 480.234 2268.03 480.231 2268.04C480.269 2268.02 480.307 2268 480.345 2267.97C480.31 2267.98 480.274 2267.98 480.24 2267.99ZM421.621 1816.59C422.085 1824.04 424.225 1831.82 423.343 1841.32C420.486 1831.85 421.664 1823.88 420.285 1816.29C420.236 1816.01 420.548 1815.03 420.683 1815.14C420.995 1815.36 421.552 1816.13 421.594 1816.53C421.603 1816.55 421.612 1816.57 421.621 1816.59ZM567.983 2327.78C572.631 2328.68 573.899 2332.44 578.375 2331.84C578.39 2331.83 578.405 2331.82 578.42 2331.82C578.214 2332.47 577.969 2333.12 577.762 2333.78C576.69 2333.64 575.626 2333.63 574.573 2333.39C559.536 2329.95 544.906 2324.25 531.186 2316.53C529.545 2315.61 528.156 2314.57 528.755 2313.2C529.657 2311.11 531.405 2312.49 533.028 2313.44C540.362 2317.72 548.254 2320.82 555.69 2324.52C559.709 2326.53 564.126 2327.02 567.983 2327.78ZM698.383 2096.45C696.474 2089.79 694.411 2084.41 693.728 2078.45C697.479 2079.85 700.193 2088.56 698.383 2096.45ZM705.221 2149.72C702.936 2145.73 703.698 2141.4 703.798 2137.56C703.8 2137.58 703.803 2137.59 703.805 2137.61C704.02 2129.99 703.408 2122.53 700.974 2115.25C706.152 2125.56 706.367 2137.75 708.116 2149.26C708.386 2151.17 708.338 2153.19 706.943 2153.4C705.373 2153.6 705.777 2150.69 705.221 2149.72ZM711.681 2226.6C710.175 2223.45 706.949 2223.8 708.65 2220.1C711.012 2214.95 709.788 2210.08 708.765 2205.64C707.289 2199.32 710.143 2194.19 708.846 2187.85C707.217 2179.76 709.171 2170.8 706.407 2162.49C705.812 2160.73 705.847 2158.45 707.291 2158.4C708.737 2158.34 708.884 2160.65 709.087 2162.53C710.048 2172.19 711.343 2181.97 711.198 2191.5C711.19 2191.51 711.181 2191.53 711.173 2191.55C711.021 2202.77 712.625 2213.83 711.681 2226.6ZM631.448 2331.26C633.347 2330.25 634.122 2331.16 634.476 2331.46C637.825 2334.12 642.614 2334.15 647.004 2332.66C651.113 2331.28 651.138 2333.41 651.56 2334.03C652.704 2335.65 649.171 2335.69 648.033 2335.73C639.491 2336.24 630.865 2337.01 622.286 2337.49C618.009 2337.76 613.801 2337.7 609.671 2337.11C603.443 2336.19 597.567 2337.55 591.699 2336.08C591.688 2336.07 591.677 2336.06 591.666 2336.04C587.084 2334.91 581.139 2335.62 579.14 2330.96C580.586 2328.75 582.911 2335.38 583.149 2329.75C583.205 2328.68 585.377 2329.07 586.68 2329.28C594.945 2330.55 602.92 2331.76 611.233 2333.83C614.624 2334.67 618.489 2335.11 622.165 2334.27C625.457 2333.73 628.623 2332.79 631.448 2331.26ZM710.052 2274.51C706.858 2267.39 709.386 2260.17 710.321 2254.75C711.624 2247.02 709.024 2241.24 709.4 2234.28C709.471 2232.68 708.36 2230.28 709.811 2229.81C711.203 2229.33 711.935 2231.69 711.966 2234.13C711.976 2234.14 711.986 2234.16 711.996 2234.18C712.123 2247.31 713.515 2260.52 710.052 2274.51ZM703.467 2330.39C704.334 2330.7 705.473 2327.63 706.991 2330.11C707.478 2330.94 706.885 2331.87 704.561 2332.2C689.082 2334.41 673.431 2335.09 657.687 2334.8C657.174 2334.79 656.747 2334.05 655.451 2332.9C668.708 2332.25 680.48 2330.01 693.084 2330.17C696.506 2330.21 700.001 2329.15 703.467 2330.39ZM728.212 2327.5C734.099 2326.41 734.745 2329.92 738.863 2330.3C730.438 2333.61 723.097 2333.98 716.888 2328.07C721.62 2329.58 724.929 2328.1 728.212 2327.5ZM695.313 2352.3C695.42 2350.08 694.381 2345.65 698.785 2346.91C699.855 2347.24 700.067 2345.92 699.706 2344.79C699.504 2344.18 699.045 2343.76 698.702 2343.22C702.939 2336.86 701.822 2328.74 703.402 2321.5C703.662 2320.24 703.942 2318.28 705.266 2318.82C706.058 2319.15 706.154 2320.11 705.968 2321.54C703.314 2342.7 699.474 2363.33 694.226 2383.09C694.206 2383.09 694.186 2383.08 694.166 2383.08C693.991 2383.71 693.426 2384.25 692.681 2385.41C691.647 2381.5 691.639 2376.9 693.276 2374.18C696.875 2368.26 695.623 2361.24 698.141 2355.25C698.695 2353.94 700.098 2351.28 697.819 2350.68C696.333 2350.28 695.656 2351.34 695.313 2352.3ZM695.019 2353.35C695.08 2353.1 695.165 2352.71 695.313 2352.3C695.29 2352.78 695.217 2353.16 695.019 2353.35Z" fill="#C6EDD1"/>
<path id="r" d="M917.157 1775.43C902.208 1780.31 887.037 1784.23 871.106 1788.08C886.138 1783.02 901.371 1779.04 917.157 1775.43ZM917.157 1775.43C917.407 1775.34 917.664 1775.26 917.91 1775.18C917.911 1775.18 917.694 1775.28 917.579 1775.31C917.581 1775.32 917.582 1775.32 917.584 1775.33C917.442 1775.36 917.299 1775.39 917.157 1775.43ZM917.81 1775.26C917.934 1775.24 918.068 1775.23 918.192 1775.21C917.994 1775.26 917.795 1775.31 917.593 1775.36C917.665 1775.33 917.738 1775.29 917.81 1775.26ZM724.863 2498.15C726.653 2509.94 742.416 2528.02 752.963 2542.91C770.712 2567.95 788.561 2592.5 806.641 2617.66C825.164 2643.44 844.823 2669.31 864.677 2694.46C868.2 2698.89 870.944 2702.03 866.623 2699.5C866.584 2699.47 866.545 2699.44 866.506 2699.4C866.511 2699.42 866.516 2699.43 866.52 2699.44C866.477 2699.42 866.436 2699.4 866.392 2699.37C866.406 2699.36 866.419 2699.35 866.433 2699.34C866.376 2699.29 866.319 2699.24 866.261 2699.19C866.275 2699.18 866.289 2699.17 866.303 2699.16C858.375 2697.45 851.475 2681.98 844.859 2673.81C830.131 2655.62 816.462 2633.42 802.173 2616.76C786.782 2598.75 774.449 2576.25 755.454 2557.64C803.193 2626.93 849.935 2691.6 899.262 2754.44C900.804 2753.57 895.19 2748.49 895.657 2745.94C941.872 2810.54 986.348 2875.76 1037.8 2936.14C1040.79 2939.57 1043.87 2942.81 1047.07 2945.92C1044.46 2942.31 1041.79 2938.76 1039.07 2935.15C1024.63 2916.12 1008.04 2898.06 994.752 2877.46C1003.78 2887.83 1013.64 2898.16 1022.05 2908.96C1028.48 2917.24 1034.92 2925.39 1041.29 2933.43C1056.5 2952.5 1074.53 2968.34 1094.06 2981.66C1103.22 2987.87 1112.71 2989.25 1122.26 2994.35C1125.17 2995.91 1130.25 2997.18 1131.48 2998.35C1143.49 3009.72 1163.68 3010.9 1181.25 3013.02C1187.4 3013.8 1193.59 3014.19 1199.76 3014.23C1224.4 3014.39 1248.58 3008.98 1271.39 3000.45C1306.14 2987.46 1336.31 2964.3 1360.11 2934.89C1360.75 2934.09 1361.4 2933.29 1362.04 2932.49C1380.42 2909.68 1400.41 2886.15 1417.18 2863.72C1436.41 2837.98 1456.32 2812.57 1475.61 2787.47C1501.89 2753.32 1526.31 2716.37 1555.18 2685.67C1571.31 2657.82 1592.88 2632.55 1611.7 2606.02C1655.79 2543.9 1700.44 2482.39 1740.87 2418.79C1785.02 2348.36 1837.03 2262.17 1844.33 2204.83C1844.51 2200.42 1844.5 2195.96 1844.3 2191.45C1842.31 2142.78 1816.69 2091.84 1780.95 2048.12C1779.53 2046.4 1778.26 2044.43 1776.72 2042.34C1780.2 2043.97 1783.79 2050.69 1786.98 2052.84C1783.29 2047.13 1777.62 2039.55 1774.31 2037.56C1768.85 2034.23 1763.83 2027.97 1759.12 2023.01C1737.59 2000.2 1713.39 1979.23 1687.62 1959.91C1647.07 1929.55 1601.65 1904.24 1554.6 1882.78C1513.96 1864.27 1471.78 1848.64 1428.57 1836.42C1382.22 1823.32 1334.51 1813.95 1286.27 1808.23C1347.93 1816.12 1408.69 1829.9 1467.11 1849.54C1466.93 1849.76 1466.75 1850 1466.47 1850.19C1398.33 1828.17 1326.46 1811.81 1254.76 1806.95C1254.75 1807.17 1254.74 1807.39 1254.72 1807.62C1286.06 1810.77 1317.32 1815.44 1348.07 1821.68C1357.52 1823.59 1367.28 1825.22 1376.07 1827.96C1371.49 1828.34 1362.51 1825.46 1356.05 1824.59C1357.77 1825.45 1364.24 1825.99 1365.36 1827.08C1364.61 1827.01 1363.84 1827.01 1363 1826.83C1335.48 1821.29 1307.45 1816.64 1279.78 1812.54C1273.32 1811.6 1268.38 1811.25 1263.32 1811.11C1248.39 1810.63 1224.63 1808.6 1212.47 1806.68C1206.26 1805.68 1208.77 1804.83 1213.26 1804.44C1220.15 1803.81 1220.08 1802.96 1212.53 1801.74C1208.05 1801.03 1207.83 1800.63 1211.68 1800.21C1222.21 1799.15 1221.64 1798.83 1200.01 1797.85C1222.63 1797.7 1215.58 1796.34 1211.31 1794.23C1205.29 1791.22 1188.06 1787.95 1212.42 1785.32C1215.54 1785 1218.36 1783.33 1214.47 1781.77C1210.25 1780.08 1205.31 1777.78 1215.12 1775.94C1216.59 1775.67 1220.41 1775.41 1222.99 1775.45C1248.73 1776.04 1245.04 1773.88 1242.24 1772.3C1235.02 1768.34 1241.83 1765.03 1250.82 1761.53C1255.6 1759.66 1256.06 1757.49 1260.77 1755.54C1265.89 1753.34 1286.64 1753.87 1301.46 1754.55C1330.82 1755.78 1360.25 1759.22 1389.32 1764.32C1402.35 1766.59 1416.43 1768.97 1429.66 1771.2C1452.49 1775.02 1472.57 1781.4 1494.87 1787.08C1503.24 1789.22 1509.8 1790.77 1516.37 1791.94C1525.09 1797.1 1540.36 1799.9 1552.36 1804.3C1564.35 1808.69 1577.1 1813.64 1589.09 1816.76C1597.6 1818.98 1600.06 1822.1 1607.6 1825.23C1647.81 1841.98 1686.87 1862.7 1724.34 1885.45C1743.95 1897.34 1762.65 1910.58 1779.7 1924.5C1837.72 1972.23 1894.39 2029.8 1924.94 2108.13C1936.09 2137.18 1942.82 2170.7 1944.58 2204.83C1944.89 2211.66 1944.76 2218.71 1944.42 2225.19C1943.64 2242 1938.53 2259.55 1933.89 2273.65C1925.98 2297.7 1916.59 2319.5 1907.9 2341.81C1899.57 2363.12 1887.14 2383.14 1877.2 2403.73C1864 2431.08 1848.59 2457.2 1833.22 2482.75C1825.8 2495.08 1818.39 2506.86 1814.82 2518.68C1812.59 2526.29 1809.86 2522.64 1805.74 2530.12C1797.72 2544.62 1789.1 2558.85 1780.31 2573.16C1762.53 2602.16 1743.3 2629.62 1723.23 2656.52C1713.53 2669.51 1703.66 2684.43 1694.89 2698.35C1688.86 2707.92 1680.12 2716.44 1676.39 2726.37C1671.77 2729.59 1664.69 2735.77 1662.32 2742.14C1658.55 2752.34 1651.76 2759.97 1645.53 2769.11C1633.27 2787.12 1621.91 2805.37 1607.5 2821.62C1604.2 2825.35 1605.85 2827.1 1602.14 2831.95C1595.24 2841.05 1587.9 2851.26 1582.17 2859.64C1567.46 2881.21 1548.46 2900.2 1536.68 2923.13C1532.7 2930.91 1524.9 2938.48 1518.83 2946.74C1504.07 2966.78 1489.8 2987.8 1473 3005.78C1469.94 3009.04 1466.99 3012.36 1464.13 3015.72C1446.83 3036.45 1428.64 3057.01 1408.12 3074.13C1394.21 3085.87 1374.83 3097.13 1361.93 3107.96C1352.27 3109.58 1333.9 3121.84 1323.03 3121.85C1316.37 3122 1303.7 3128.27 1297.42 3131.14C1274.96 3141.53 1257.5 3145.04 1230.74 3147.32C1220.61 3148.1 1210.23 3148.15 1199.76 3147.9C1182.46 3147.48 1165.01 3146.25 1147.1 3146.24C1135.77 3146.37 1113.49 3138.68 1096.17 3132.71C1084.83 3128.98 1070.99 3123.62 1062.57 3117.17C1059.85 3115.08 1056.49 3113.36 1053.05 3112.82C1036.44 3110.07 1021.62 3097.86 1009.01 3087.33C997.68 3077.88 989.879 3068.25 977.454 3063.42C973.403 3061.82 964.987 3053.52 960.267 3047.72C947.821 3032.2 948.209 3032.37 935.053 3018.96C934.545 3018.42 934.022 3017.83 933.495 3017.2C932.228 3015.72 930.939 3013.98 929.842 3012.4C913.697 2989.44 894.927 2968.4 879.635 2943.69C868.747 2926.12 852.427 2903.47 839.412 2889.83C823.999 2873.69 814.159 2856.51 801.521 2840.38C786.54 2821.29 771.765 2800.95 758.29 2780.75C728.621 2736.35 696.054 2693.78 668.055 2648.24C665.323 2643.78 661.973 2637.85 658.454 2636.16C656.327 2635.15 652.819 2629.62 651.99 2627.68C642.114 2604.13 624.369 2583.32 610.655 2561.37C573.257 2501.34 535.877 2440.58 503.701 2374.81C485.486 2336.61 466.872 2298.71 455.91 2249.93C453.168 2236.74 450.74 2221.73 450.909 2204.83C451.517 2163.26 462.006 2123.62 478.209 2088.63C493.447 2055.68 513.775 2026.18 534.841 1999.21C542.415 1989.39 552.56 1975.42 562.39 1970.87C562.397 1970.57 586.05 1945.42 586.826 1945.05C589.361 1942.65 591.784 1940.27 594.33 1938.2C632.773 1906.49 672.461 1878.44 714.474 1855.38C774.284 1822.6 838.078 1798.44 902.519 1780.76C922.527 1775.29 942.997 1771.56 964.878 1766.58C949.051 1768.36 931.357 1773.81 918.192 1775.21C949.433 1767.62 981.773 1761.38 1012.5 1758.07C1040.62 1754.89 1073.3 1751.03 1096.86 1752.67C1100.35 1752.89 1104.92 1752.25 1108.49 1751.96C1120.12 1751.03 1125.9 1751.8 1123.64 1752.76C1118.81 1754.95 1127.38 1754.62 1140.2 1754.28C1144.67 1754.15 1151 1753.93 1152.65 1754.6C1154.06 1755.12 1149.57 1755.35 1145.45 1755.57C1137.99 1755.93 1126.58 1756.46 1131 1757.57C1134.15 1758.37 1141.38 1759.14 1153.62 1758.3C1154.2 1758.27 1155.7 1758.43 1157.19 1758.53C1154.36 1759.55 1146.1 1759.53 1138.81 1759.87C1148.95 1761.14 1156.2 1762.47 1146.84 1764.64C1144.81 1765.11 1146.54 1765.48 1140.18 1765.72C1127.04 1766.27 1127.21 1766.81 1133.05 1767.86C1140.51 1769.2 1153.12 1770.48 1139.26 1773.11C1138.26 1773.3 1138.17 1773.65 1139.08 1773.78C1147.84 1775.05 1148.66 1776.36 1139.38 1778.77C1133.32 1780.35 1149.68 1780.7 1160.72 1780.97C1185.18 1781.54 1199.77 1784.81 1199.76 1787.74C1199.76 1787.74 1199.76 1787.74 1199.76 1787.74C1199.76 1788.74 1198.14 1789.73 1194.75 1790.7C1186.74 1792.93 1171.97 1795.92 1190.05 1797.75C1060.31 1805.57 935.135 1839.24 822.274 1896.45C712.293 1952.61 605.854 2036.37 569.559 2140.38C575.879 2125.83 581.695 2110.55 590.992 2096.75C591.741 2095.65 592.565 2095.05 595.214 2092.33C581.892 2114.29 571.795 2137.22 566.244 2159.98C565.725 2162.09 565.195 2164.61 564.684 2162.65C563.217 2157.02 562.792 2165.94 562.993 2166.4C564.508 2171.44 562.904 2178.51 561.67 2185.17C560.412 2191.93 560.665 2198.49 561.161 2204.83C561.301 2205.76 561.463 2206.87 561.642 2208.16C566.156 2239.19 589.817 2287.82 613.017 2329.16C622.419 2345.96 631.567 2363.08 643.06 2379.78C649.691 2389.36 647.477 2379.94 652.783 2388.14C658.918 2397.57 651.653 2393.64 658.008 2403.52C664.438 2413.47 670.438 2424.45 678.023 2435.09C677.294 2432.21 676.777 2430.08 675.633 2425.62C689.905 2454.24 706.875 2475.54 724.863 2498.15ZM931.842 3006.74C919.828 2987.84 904.978 2971.28 891.82 2953.38C903.659 2972.15 918.302 2989.17 931.842 3006.74ZM838.653 2881.36C850.117 2901.28 865.329 2919.31 879.595 2937.59C866.396 2918.78 851.369 2900.76 838.653 2881.36ZM984.076 3063.01C1019.12 3093.47 1060.96 3116.53 1105.67 3129.79C1105.65 3129.36 1105.64 3128.93 1105.62 3128.5C1061.23 3115.28 1019.69 3092.35 984.87 3062.09C984.605 3062.4 984.341 3062.7 984.076 3063.01ZM1196.8 3141.96C1174.02 3141.76 1151.18 3139.74 1128.8 3135.03C1151.11 3140.45 1174.36 3143.91 1196.8 3141.96ZM916.61 1821.59C968.349 1808.85 1012.92 1797.55 1057.17 1789.62C1010.77 1794.28 965.162 1805.17 916.61 1821.59ZM1629.36 1911.53C1644.36 1921.25 1654.98 1928.74 1668.14 1934.09C1655.22 1925.48 1644.33 1918.37 1629.36 1911.53ZM1803.26 2058.61C1817.32 2082.23 1829.39 2101.73 1840.14 2121.57C1831.7 2099.92 1819.67 2079.64 1803.26 2058.61ZM1684.82 1955.25C1687.62 1957.33 1690.44 1959.51 1691.79 1959.78C1692.9 1960.01 1692.45 1958.83 1692.28 1957.98C1692.07 1957.36 1690.34 1955.79 1688.85 1955.15C1677.56 1950.35 1668.21 1940.45 1657.27 1934.18C1663.35 1936.87 1669.6 1942.51 1677.92 1946.62C1655.19 1930.14 1633.51 1921.1 1611.89 1907.38C1611.87 1907.35 1611.84 1907.33 1611.81 1907.31C1618.04 1913.06 1625.82 1916.16 1632.77 1920.38C1650.65 1931.26 1668.06 1942.79 1684.82 1955.25ZM1533.4 1869.87C1551.5 1878.23 1567.05 1885.09 1582.44 1892.17C1567.1 1885.06 1552.76 1875.92 1533.4 1869.87ZM1539.16 2719.84C1538.79 2719.98 1535.7 2723.63 1535.57 2725.32C1535.42 2727.14 1537.02 2726.25 1539.25 2724.16C1547 2716.9 1553.85 2706.49 1564.39 2694.23C1564.38 2694.23 1564.37 2694.22 1564.36 2694.22C1561.17 2696.29 1560.33 2696.51 1559.42 2697.5C1552.7 2704.7 1545.97 2717.93 1539.16 2719.84ZM1759.88 2018.68C1748.07 2006.21 1736.05 1993.42 1721.85 1983.46C1735.05 1994.56 1747.86 2006.35 1759.88 2018.68ZM1776.45 2037.25C1786.35 2049.2 1795.14 2061.69 1804.77 2073.07C1796.34 2060.59 1787.77 2047.36 1776.45 2037.25ZM1786.82 2355.83C1782.45 2364.71 1775.44 2369.96 1774 2374.23C1768.94 2388.97 1759.14 2400.14 1751.43 2413.02C1764.91 2395.43 1777.63 2377.73 1786.82 2355.83ZM1827.84 2113.83C1833.1 2124.64 1832.04 2132.06 1837.05 2144.33C1839.45 2136.94 1833.14 2124.44 1827.84 2113.83ZM1724.16 2450.91C1723.82 2451.48 1723.51 2452.07 1723.23 2452.54C1714.33 2468.47 1703.63 2483.46 1693.1 2498.1C1688.59 2504.36 1687.18 2508.77 1688.04 2509.99C1689.05 2511.45 1692.8 2505.13 1695.14 2501.79C1710.15 2480.64 1723.63 2457.72 1738.26 2436.27C1742.94 2429.38 1746.75 2421.35 1750.78 2413.99C1749.03 2412.33 1746.47 2419 1744.12 2422.03C1738.17 2429.65 1736.22 2436.23 1732.42 2443.01C1727.17 2452.35 1725.1 2453.98 1724.16 2450.91ZM1568.6 2669.8C1565.35 2670.47 1565.94 2672.53 1566.61 2672.88C1567.37 2673.29 1563.6 2678.49 1566.64 2676.45C1568.03 2674.45 1569.49 2672.22 1571.11 2670.1C1572.52 2668.24 1574.18 2665.61 1575.54 2665.21C1575.52 2665.24 1575.5 2665.27 1575.47 2665.3C1562.5 2687.81 1542.37 2706.12 1529.21 2728.51C1562.22 2686.11 1594.87 2643.52 1624.91 2599.05C1627.08 2595.84 1628.65 2592.42 1631.42 2589.57C1646.71 2573.71 1658.49 2552.96 1671.82 2534.83C1676.03 2529.09 1676.9 2525.83 1677.97 2520.87C1664.13 2542.63 1651.09 2561.84 1636.3 2578.93C1633.97 2581.63 1631.57 2585.22 1629.32 2588.4C1612 2613.03 1594.57 2637.87 1576.23 2661.75C1573.45 2665.35 1571.17 2669.32 1568.6 2669.8ZM1188.13 1802.76C1173.97 1803.95 1092.65 1810.56 1016.46 1830.8C939.839 1849.79 870.219 1881.58 862.704 1884.39C926.868 1854.05 997.331 1832.51 1068.04 1817.71C1104.72 1810.01 1142.61 1804.03 1183.09 1802.72C1184.73 1802.66 1186.15 1802.73 1188.13 1802.76ZM1496.35 2766.92C1473.68 2797.13 1450.8 2827.09 1427.72 2857.1C1421.8 2864.76 1415.23 2872.72 1412.67 2879.88C1412.69 2879.86 1412.71 2879.83 1412.73 2879.81C1416.26 2877.62 1419.46 2872.78 1422.6 2868.71C1448.27 2835.71 1473.71 2802.56 1498.96 2769.41C1502.24 2765.07 1506.7 2760.05 1505.63 2758.3C1504.34 2756.23 1500.28 2761.68 1496.35 2766.92ZM1589.08 1901.55C1557.18 1885.74 1524.12 1871.39 1490.59 1858.28C1524.72 1869.92 1557.64 1884.52 1589.08 1901.55ZM1197.89 3020.75C1186.41 3019.11 1174.64 3020.11 1163.3 3017.16C1174.33 3022.32 1186.38 3021.56 1197.89 3020.75ZM1327.29 2975.06C1333.79 2972.88 1339.81 2968.51 1345.57 2961.64C1351.82 2954.21 1358.8 2946.68 1365.82 2939.32C1366.05 2939.08 1366.27 2938.84 1366.49 2938.59C1368.36 2936.57 1370.95 2935.22 1370.88 2932.79C1370.82 2930.36 1368.27 2933.01 1365.49 2936.56C1365.08 2937.08 1364.67 2937.6 1364.27 2938.11C1353.36 2951.99 1340.95 2964.41 1327.29 2975.06ZM1374.14 2924.65C1387.63 2911.29 1400.3 2896.73 1412.2 2880.52C1397.77 2890.74 1387.33 2910.64 1374.14 2924.65ZM1412.51 2880.34C1412.53 2880.31 1412.55 2880.28 1412.57 2880.25C1412.56 2880.26 1412.54 2880.27 1412.52 2880.29C1412.52 2880.3 1412.51 2880.32 1412.51 2880.34ZM1687.21 1963.61C1687.39 1963.35 1687.58 1963.08 1687.76 1962.82C1729.51 1992.7 1765.41 2028.94 1793.71 2068.34C1765.32 2029.07 1728.31 1994.06 1687.21 1963.61ZM1742.09 2413.06C1783.53 2343.2 1835.03 2259.04 1841.01 2204.83C1841.08 2202.53 1841.09 2200.23 1841.05 2197.91C1841.05 2197.91 1841.06 2197.91 1841.07 2197.91C1841.6 2197.97 1842.14 2197.95 1842.67 2197.92C1842.68 2200.24 1842.65 2202.54 1842.56 2204.83C1835.86 2259.8 1785.31 2344.32 1742.09 2413.06ZM1805.79 2088.51C1806.06 2088.45 1806.29 2088.3 1806.52 2088.14C1826.7 2120.56 1840.04 2155.76 1842.28 2189.38C1842 2189.33 1841.69 2189.18 1841.4 2189.21C1839.14 2155.81 1825.88 2120.79 1805.79 2088.51ZM638.156 2381.08C625.558 2360.42 615.108 2338.85 601.43 2319.39C612.405 2340.12 624.401 2361.08 636.833 2381.84C637.274 2381.58 637.715 2381.33 638.156 2381.08ZM1468.8 1855.47C1464.03 1853.71 1465.95 1855.99 1461.72 1854.09C1440.97 1844.79 1417.81 1840.25 1395.6 1834.56C1383.64 1831.51 1379.31 1830.08 1376.3 1828.02C1402.3 1833.89 1428.58 1840.42 1453.23 1849.43C1458.06 1851.22 1461.01 1851.43 1465.32 1852.93C1472.03 1855.29 1471.34 1855.63 1468.8 1855.47ZM1376.12 1827.92C1376.12 1827.91 1376.12 1827.91 1376.12 1827.9C1376.14 1827.92 1376.17 1827.93 1376.19 1827.95C1376.18 1827.95 1376.17 1827.95 1376.16 1827.95C1376.14 1827.94 1376.13 1827.93 1376.12 1827.92ZM1376.19 1827.95C1376.2 1827.94 1376.21 1827.94 1376.22 1827.94C1376.22 1827.95 1376.22 1827.96 1376.22 1827.97C1376.21 1827.96 1376.2 1827.95 1376.19 1827.95ZM1376.07 1827.96C1376.09 1827.95 1376.13 1827.95 1376.16 1827.95C1376.17 1827.97 1376.19 1827.98 1376.21 1828C1376.16 1827.99 1376.11 1827.97 1376.07 1827.96ZM1376.22 1827.97C1376.24 1827.99 1376.27 1828 1376.3 1828.02C1376.27 1828.01 1376.24 1828.01 1376.21 1828C1376.21 1827.99 1376.22 1827.98 1376.22 1827.97ZM1057.22 2954.76C1055.39 2952.84 1052.23 2949.58 1051.24 2950.6C1050.25 2951.65 1053.16 2954.18 1055.46 2956.39C1067.52 2968.21 1080.79 2978.6 1095.13 2987.15C1083.37 2976.32 1068.87 2967.11 1057.22 2954.76ZM1552.71 1890.08C1526.65 1878.15 1499.58 1868.16 1472.76 1857.78C1471.19 1857.17 1470.23 1856.3 1469.02 1855.56C1478.46 1857.63 1488.33 1860.85 1499.44 1865.25C1516.38 1871.98 1533.35 1879.09 1549.89 1886.82C1553.21 1888.36 1557.4 1890.25 1557.21 1891.22C1557.12 1891.72 1555.24 1891.25 1552.71 1890.08ZM670.758 2000.82C662.518 2010.54 639.24 2034.12 625.213 2048.78C639.473 2029.91 655.721 2015.61 670.758 2000.82ZM752.801 2552.35C747.52 2540.81 742.007 2532.1 732.928 2521.89C737.484 2533.51 744.229 2541.85 752.801 2552.35ZM662.56 2413.49C660.728 2410.43 658.783 2407.47 657.762 2407.71C656.494 2407.96 658.435 2412.68 660.373 2414.94C670.224 2426.36 676.849 2441.71 689.384 2457.16C689.364 2457.13 689.344 2457.1 689.324 2457.07C678.491 2439.78 670.484 2426.7 662.56 2413.49ZM1740.62 2016.59C1724.05 1999.56 1705.32 1984.47 1686.23 1969.54C1668.23 1955.44 1647.13 1943.07 1630.98 1929.52C1669.75 1955.63 1710.84 1983.03 1740.62 2016.59ZM1676.61 2507.38C1676.91 2507.57 1677.21 2507.77 1677.51 2507.97C1653.14 2543.75 1628.1 2579.27 1602.66 2614.58C1602.35 2614.37 1602.05 2614.16 1601.74 2613.94C1627.19 2578.64 1652.23 2543.13 1676.61 2507.38ZM1468.59 1855.46C1468.5 1855.44 1468.4 1855.42 1468.31 1855.4C1468.31 1855.4 1468.57 1855.45 1468.73 1855.47C1468.76 1855.47 1468.78 1855.47 1468.8 1855.47C1468.81 1855.48 1468.81 1855.48 1468.82 1855.48C1468.86 1855.49 1468.87 1855.49 1468.85 1855.48C1468.88 1855.49 1468.92 1855.5 1468.95 1855.51C1468.98 1855.53 1469 1855.54 1469.02 1855.56C1468.95 1855.54 1468.87 1855.52 1468.79 1855.51C1468.66 1855.49 1468.53 1855.47 1468.41 1855.45C1468.47 1855.46 1468.53 1855.46 1468.59 1855.46ZM1628.61 1930.74C1616.23 1922.34 1601.71 1916.18 1590.14 1907.71C1604.03 1914.6 1618.01 1921.5 1628.61 1930.74ZM1168.26 3007.6C1170.63 3007.92 1173.3 3008.49 1172.71 3009.74C1172.22 3010.94 1169.72 3010.67 1167.18 3010.12C1160.65 3008.71 1154.27 3006.99 1147.95 3004.95C1147.97 3004.95 1148 3004.96 1148.03 3004.97C1148.28 3004.65 1148.45 3004.33 1148.63 3003.99C1155.06 3005.5 1161.65 3006.67 1168.26 3007.6ZM1500.78 2748.78C1513.76 2728.62 1529.55 2711.17 1543.53 2692.02C1530.7 2712.13 1515.17 2730.07 1500.78 2748.78ZM1795.44 2082.25C1794.82 2082.81 1792.82 2081.08 1791.57 2078.92C1783.86 2065.51 1773.5 2053.17 1762.84 2041.22C1761.63 2039.89 1760.76 2038.1 1758.57 2034.85C1773.16 2047.49 1783.1 2062.67 1793.3 2076.2C1795.48 2079.06 1796.16 2081.62 1795.44 2082.25ZM1828.96 2159.43C1823.91 2137.9 1814.71 2115.85 1802.16 2094.77C1799.61 2090.46 1798.13 2087.71 1798.84 2087C1800.05 2085.82 1802.59 2091.23 1804.09 2093.86C1815.76 2113.89 1824.58 2134.59 1829.77 2155.13C1829.76 2155.11 1829.76 2155.08 1829.75 2155.05C1829.51 2156.49 1829.24 2157.93 1828.96 2159.43ZM940.834 2791.69C953.315 2807.54 964.433 2823.8 977.998 2843.31C969.419 2834.23 963.695 2828.15 957.835 2821.95C958.673 2826.86 965.545 2832.77 967.938 2839.09C953.069 2819.4 939.09 2802.01 925.848 2783.22C910.389 2761.26 893.697 2738.99 876.969 2717.85C876.908 2717.8 876.847 2717.75 876.786 2717.7C869.408 2708.33 868.139 2704.61 866.52 2699.44C866.555 2699.46 866.588 2699.48 866.623 2699.5C874.509 2706.18 882.336 2712.77 886.589 2724.95C887.99 2728.87 891.047 2730.48 893.236 2733.13C905.368 2747.84 918.501 2761.33 928.443 2778.78C931.493 2784.14 936.857 2786.65 940.834 2791.69ZM1834.01 2214.84C1834.22 2210.85 1834.27 2206.94 1834.13 2204.83C1833.73 2188.92 1832.55 2172.68 1829.8 2155.32C1834.89 2171.98 1836.73 2188.8 1835.78 2204.83C1835.52 2207.05 1834.91 2210.98 1834.01 2214.84ZM1829.77 2155.13C1829.78 2155.19 1829.79 2155.26 1829.8 2155.32C1829.78 2155.26 1829.76 2155.2 1829.75 2155.14C1829.76 2155.14 1829.76 2155.14 1829.77 2155.13ZM1737.66 2405.65C1739.15 2400.84 1738.37 2398.15 1743.51 2391.52C1759.99 2370.22 1771.1 2345.78 1783.85 2322.92C1784.73 2321.36 1785.63 2319.83 1786.64 2318.02C1787.3 2320.44 1782.78 2325.18 1782.43 2329.11C1789.4 2317.44 1795.92 2306.17 1800.91 2294.55C1801.58 2292.98 1801.77 2290.87 1802.12 2290.35C1806.07 2284.49 1809.97 2272.73 1812.34 2272.59C1814.7 2272.55 1808.95 2283.47 1806.64 2287.97C1806.63 2288 1806.61 2288.03 1806.6 2288.06C1786.88 2327.19 1764 2366.44 1737.66 2405.65ZM842.373 1894.02C819.339 1905.43 798.702 1918.83 775.814 1931.47C772.941 1933.05 768.586 1936.21 767.567 1935.68C766.581 1935.21 770.404 1932.6 773.673 1930.65C773.67 1930.64 773.666 1930.64 773.663 1930.63C795.772 1917.36 818.836 1905.12 842.373 1894.02ZM672.286 2008.94C658.973 2019.31 650.51 2032.66 638.907 2044.11C638.891 2044.14 638.874 2044.17 638.858 2044.2C634.13 2048.84 629.297 2054.63 624.221 2058.23C637.806 2039.03 653.876 2024.12 669.365 2009.14C671.346 2007.23 674.146 2005.29 674.436 2006.1C674.511 2006.35 672.848 2008.5 672.286 2008.94ZM605.835 2084.29C599.533 2094.07 598.532 2105.61 589.062 2112.61C592.424 2102.17 599.54 2093.67 605.835 2084.29ZM584.303 2121.97C579.469 2137.23 574.038 2148.46 571.489 2159.86C573.162 2148.55 576.505 2136.76 584.303 2121.97ZM866.439 2699.19C866.451 2699.23 866.465 2699.27 866.477 2699.31C866.513 2699.28 866.55 2699.26 866.586 2699.23C866.539 2699.22 866.486 2699.2 866.439 2699.19ZM722.483 1967.39C711.417 1975.16 701.023 1984.91 686.872 1994.6C698.897 1981.83 711.466 1974.61 722.254 1965.95C722.662 1965.62 724.314 1964.93 724.216 1965.15C724.041 1965.64 723.136 1966.89 722.555 1967.31C722.531 1967.34 722.507 1967.37 722.483 1967.39ZM1056.6 2937.63C1063.81 2944.78 1064.93 2950.45 1072.63 2955.13C1072.66 2955.14 1072.69 2955.15 1072.72 2955.16C1072.2 2955.62 1071.62 2956.02 1071.1 2956.48C1069.31 2955.06 1067.54 2953.78 1065.86 2952.24C1058.51 2945.5 1051.69 2938.24 1045.26 2930.34C1025.94 2906.3 1006.51 2881.99 987.217 2857.73C983.873 2853.52 981.032 2849.65 981.725 2848.13C982.776 2845.81 986.496 2850.97 989.877 2855.28C1005.1 2874.65 1020.8 2893.5 1035.36 2913.09C1039.41 2918.53 1043.63 2923.6 1047.77 2928.4C1050.74 2931.74 1053.74 2934.75 1056.6 2937.63ZM1713.67 2439.46C1720.89 2427.18 1726.51 2416.59 1733.44 2406.62C1733.89 2412.28 1724.6 2428.62 1713.67 2439.46ZM1649.69 2531.56C1653.4 2523.12 1659.51 2516.62 1664.48 2510.49C1664.46 2510.52 1664.44 2510.55 1664.42 2510.58C1674.35 2498.37 1683.52 2485.81 1691.36 2471.92C1681.36 2493.01 1665.85 2512.92 1652.12 2533.19C1649.83 2536.53 1647.2 2539.79 1646.03 2539C1644.78 2538.03 1648.8 2533.59 1649.69 2531.56ZM1554.22 2665.49C1557.2 2659.05 1554.38 2657.42 1560.44 2652.25C1568.86 2645.07 1574.28 2635.96 1579.38 2627.62C1586.59 2615.79 1595.18 2609.36 1602.6 2597.66C1611.98 2582.89 1625.02 2569.37 1633.9 2553.57C1635.8 2550.17 1638.77 2546.45 1639.77 2547.53C1640.78 2548.61 1637.89 2552.52 1635.59 2555.79C1623.77 2572.39 1611.96 2589.65 1599.46 2605.57C1599.43 2605.6 1599.4 2605.62 1599.37 2605.65C1584.71 2624.34 1571.48 2644.22 1554.22 2665.49ZM1167.53 2996C1170.29 2995.52 1171.13 2996.59 1171.55 2996.97C1175.51 3000.4 1182.2 3001.41 1188.4 3000.44C1194.18 2999.53 1194.02 3001.59 1194.57 3002.25C1196.04 3003.95 1191.09 3003.72 1189.49 3003.61C1168.78 3002.87 1147.4 2999.26 1128.76 2990.72C1116.84 2985.25 1105.36 2981.43 1095.03 2974.1C1095.01 2974.08 1094.99 2974.06 1094.98 2974.03C1086.87 2968.34 1076.36 2962.47 1074.16 2955.1C1077.2 2954.5 1079.52 2964.11 1081.38 2958.46C1081.74 2957.39 1085.46 2960.28 1087.74 2961.92C1102.13 2972.24 1117.01 2980.78 1132.77 2988.71C1142.92 2993.88 1156.51 2997.98 1167.53 2996ZM1491.02 2748.18C1497.46 2733.81 1508.99 2722.35 1516.71 2713.46C1527.62 2700.86 1533.26 2688.94 1542.53 2677.22C1544.64 2674.52 1546.93 2669.63 1548.64 2669.78C1550.31 2669.88 1547.77 2674.46 1544.68 2678.64C1544.66 2678.67 1544.65 2678.71 1544.63 2678.74C1527.73 2701.47 1511.78 2725.38 1491.02 2748.18ZM1264.86 2989.04C1266.1 2988.96 1266.6 2985.53 1269.34 2987.17C1270.24 2987.72 1269.78 2988.91 1266.83 2990.28C1247.23 2999.44 1225.06 3003.82 1203.06 3003.29C1202.35 3003.27 1201.77 3002.53 1200.03 3001.34C1218.47 3001.1 1234.44 2996.92 1251.15 2992.88C1255.71 2991.76 1260.01 2989.38 1264.86 2989.04ZM1294.61 2972.71C1301.05 2967.79 1303.47 2970.34 1308.49 2967.52C1300.54 2976.79 1291.11 2982.12 1281.12 2980.15C1287.57 2978.87 1291.01 2975.39 1294.61 2972.71ZM1378.39 2885.55C1381.26 2881.33 1385.8 2872.53 1388.67 2876.26C1389.35 2877.2 1391.15 2874.84 1392.21 2872.59C1392.77 2871.35 1392.83 2870.42 1393.17 2869.29C1405.41 2858.55 1414.36 2843.19 1425.11 2830.28C1426.96 2828.05 1429.71 2824.53 1430.26 2826.07C1430.58 2827.01 1429.46 2828.83 1427.48 2831.38C1402.48 2863.93 1377.39 2896.31 1352.1 2928.66C1348.98 2932.64 1345.82 2936.38 1342.47 2940.08C1342.46 2940.06 1342.44 2940.05 1342.43 2940.04C1341.66 2940.88 1340.59 2941.45 1338.74 2942.8C1341.45 2937.01 1345.43 2930.59 1349.34 2927.13C1349.46 2927.02 1349.58 2926.91 1349.71 2926.8C1360.51 2916.12 1367.73 2902.59 1377.64 2891.95C1379.84 2889.59 1384.57 2884.94 1382.98 2883.16C1381.96 2881.97 1379.94 2883.81 1378.39 2885.55ZM1376.76 2887.5C1377.14 2887.03 1377.72 2886.29 1378.39 2885.55C1377.76 2886.47 1377.21 2887.18 1376.76 2887.5Z" fill="#C6EDD1"/>
</g>
</svg>
