<svg preserveAspectRatio="none" width="100%" height="100%" overflow="visible" style="display: block;" viewBox="0 0 72.0072 193.186" fill="none" xmlns="http://www.w3.org/2000/svg">
<path id="Ellipse 41" d="M71.6085 86.5081C71.995 89.9979 72.0547 93.0396 71.9783 95.9558C71.8675 100.03 71.5022 103.82 71.2114 108.335C70.1894 125.357 67.206 147.849 61.0427 164.501C56.3378 175.658 51.4774 191.242 35.1173 193.186C34.3844 193.181 33.6555 193.121 32.9387 193.007C32.1368 192.878 31.6825 192.693 31.3288 192.598C27.8873 191.833 23.4527 188.459 21.5079 186.153C16.966 181.454 12.3278 171.751 10.5255 166.492C9.72134 164.293 8.97507 161.99 8.82563 161.075C8.56693 160.243 8.31678 159.839 8.24542 159.629C8.24479 159.627 8.24417 159.624 8.24354 159.622C8.01272 158.951 7.5803 157.171 7.46587 156.776C7.44982 156.721 7.46205 157.092 7.22873 156.16C7.20817 156.076 7.28534 156.139 7.07108 155.353C7.01173 155.157 6.22199 152.504 6.04118 151.762C5.3657 149.21 4.15726 143.166 3.63747 140.097C3.55506 139.632 3.47522 139.369 3.38982 138.874C3.34566 138.618 3.31655 138.227 3.30317 138.148C3.24127 137.797 2.83851 136.327 3.24399 136.811C2.97526 135.256 2.94488 135.729 2.8703 135.706C2.5979 134.006 2.63017 133.135 2.40995 132.724C1.2492 124.333 0.560635 115.859 0.266618 107.403C0.241987 107.401 0.217357 107.4 0.192727 107.398C0.201487 104.881 0.0227084 104.057 0.133998 102.621C0.0861864 101.743 0.0426581 100.855 0.00384378 99.9851C-0.00289726 98.6485 -0.000805378 97.3052 0.0103862 95.9558C0.248496 74.7453 2.37822 53.4796 8.53868 33.2598C8.82221 32.357 8.92357 32.1626 9.42285 30.6582C9.96572 29.0282 10.7374 26.7134 11.5876 24.5961C12.3285 22.7258 13.536 20.063 14.5675 18.0298C14.7946 17.5781 14.9373 17.2465 14.9632 17.1964C15.1166 16.9021 15.1564 16.914 15.3138 16.6173C15.5005 16.266 15.6999 15.8324 15.9198 15.4394C16.7142 14.0019 17.7233 12.3823 17.8289 12.2266C18.3913 11.362 18.5693 11.1846 18.6142 11.1163C19.2726 10.1686 18.9995 10.5087 19.165 10.2759C20.0549 9.06642 20.7329 8.29129 22.0733 6.67894C22.0593 6.74178 22.0454 6.80468 22.0318 6.86763C23.106 5.7345 22.3432 6.43327 22.5494 6.18968C22.6074 6.04761 25.1492 3.71786 25.4079 3.59635C26.1391 3.04257 26.2088 3.06377 26.2715 3.01617C26.4221 2.88047 28.4125 1.54862 29.5861 1.14064C30.9793 0.626971 29.3909 1.35233 29.7396 1.23108C29.7945 1.19119 31.232 0.667936 31.4419 0.658646C31.6601 0.616059 30.4104 1.00599 30.4355 1.02404C30.4396 0.988993 32.5687 0.464724 32.1742 0.622112C31.8213 0.662927 29.036 1.61951 28.534 1.99044C28.4447 2.04081 28.6386 1.99436 28.5591 2.03802C28.0593 2.00219 22.9422 6.11221 22.8603 6.47974C23.075 6.22139 23.3084 5.95226 23.5358 5.69848C23.2104 6.01279 22.8764 6.35274 22.5802 6.66682C22.9842 6.20669 23.458 5.7028 23.9073 5.25814C23.0347 5.76345 21.2675 8.03948 21.2813 8.21058C21.2735 8.2808 22.5082 7.00115 21.4957 8.29871C21.6618 8.11572 21.8344 7.92908 22.0046 7.74951C22.3252 7.35102 22.6495 6.96608 22.9777 6.59498C22.7419 6.82584 22.5073 7.06337 22.2738 7.30743C22.3468 7.20608 22.4201 7.10549 22.4937 7.00567C23.0921 6.31862 23.7984 5.58222 24.4751 4.95204C24.8513 4.63211 24.8048 4.72503 25.0705 4.509C28.5093 2.01759 26.1825 3.53014 28.6022 2.09862C28.971 1.92812 29.3403 1.77377 29.713 1.63447C29.5536 1.6219 30.7128 1.11674 32.209 0.744297C32.0354 0.810968 31.8634 0.881196 31.6929 0.954881C32.6062 0.692631 33.9563 0.50159 35.1173 0.530108C36.6762 0.555743 37.8264 0.864532 37.1567 0.644271C37.6602 0.739701 38.1474 0.862284 38.6341 1.01338C39.0511 1.10749 39.4599 1.21968 39.8709 1.3526C40.4143 1.56437 40.9604 1.81627 41.4697 2.08496C41.4662 2.09743 41.4628 2.1099 41.4593 2.12236C41.0554 1.91159 40.6193 1.70699 40.192 1.53079C40.4994 1.69971 40.804 1.88058 41.1006 2.07028C41.4053 2.21379 41.7084 2.36835 42.0098 2.5337C40.7672 1.80924 42.4692 2.66067 42.8627 2.88087C43.8918 3.52512 44.4459 4.07195 44.748 4.31897C44.9068 4.41805 46.6123 5.82924 45.8911 5.33553C46.7338 6.09856 47.5273 6.9198 48.2589 7.75406C48.5388 8.09666 48.8124 8.44546 49.0732 8.79041C48.4425 8.0831 50.0834 10.2849 48.8162 8.7103C47.845 7.54381 47.6313 7.25352 47.1341 6.71507C46.6881 6.24491 46.4203 6.02523 45.9026 5.5369C42.7777 2.63546 39.3008 0.687918 35.1173 0.63639C34.6708 0.63379 34.2209 0.654766 33.767 0.700756C32.8415 0.793477 32.0241 1.00667 31.4253 1.18154C30.762 1.38483 31.5764 1.06974 30.7369 1.36198C29.8584 1.69324 29.6917 1.83583 29.4737 1.93117C29.337 1.9935 28.8874 2.16682 28.4921 2.38291C26.8582 3.21941 24.8577 4.96803 24.6731 5.15634C24.3992 5.24767 20.9342 8.99966 20.8743 9.2149C20.7944 9.31622 20.8432 9.01051 20.2867 9.99813C20.0737 10.2904 19.887 10.5541 19.6915 10.8364C19.7005 10.7754 19.7097 10.7145 19.7189 10.6536C18.6544 12.3776 18.9706 11.7991 17.95 13.4378C15.4512 17.4542 12.6397 23.7254 10.9717 28.5644C10.5957 29.6379 10.4937 30.0402 10.071 31.3294C9.66847 32.5269 8.63621 35.6014 8.98179 34.9711C8.07984 37.5944 8.19352 38.0916 7.69792 39.4058C7.67555 39.5714 7.6534 39.7373 7.63147 39.9036C7.17515 41.3276 7.13173 41.8202 6.76361 43.4181C6.60844 44.104 6.69856 43.2896 6.48218 44.7028C6.414 44.9675 6.34624 45.233 6.27891 45.4995C6.27037 45.4322 6.26186 45.365 6.2534 45.2978C5.92472 46.8641 5.89733 46.9634 6.0182 46.8047C5.84397 47.5417 5.67304 48.2854 5.50549 49.0358C5.51452 49.1349 5.52364 49.2342 5.53284 49.3335C5.45913 48.9668 9.60746 32.006 10.6506 29.7835C11.594 27.0903 13.6723 21.7338 14.7092 19.6852C15.1191 18.8395 15.3504 18.4891 15.9611 17.3176C16.6006 16.089 17.3653 14.6426 17.7545 13.9957C18.6766 11.7193 26.2403 3.12602 21.2264 9.0592C21.3853 8.90317 21.5444 8.74997 21.7037 8.5996C23.662 6.19325 22.952 7.04925 24.8046 5.29817C25.6 4.52642 27.6958 3.00643 27.6556 3.21137C25.9342 4.32034 24.3515 5.70506 23.1466 6.99444C23.0315 7.09672 21.6872 8.69888 21.0609 9.516C20.4816 10.2636 20.7286 9.6864 19.6715 11.4269C18.6815 12.6418 18.3469 13.4434 18.143 13.7995C17.8019 14.4091 17.6962 14.4592 17.3454 15.0536C16.9678 15.6973 16.7565 16.1828 16.707 16.274C16.1448 17.1948 13.864 22.057 13.7671 22.3132C13.8437 22.1056 13.9208 21.8992 13.9983 21.694C13.4111 22.9884 13.5959 22.7511 13.4608 23.0876C13.3555 23.337 13.2507 23.5882 13.1464 23.8411C13.1743 23.7353 13.2022 23.6298 13.2303 23.5245C12.6094 25.056 13.1201 23.8962 12.2597 26.1012C11.7323 27.4705 11.1555 28.9476 11.115 29.0773C11.1023 29.1175 11.2907 28.6929 11.0978 29.2606C10.7769 30.1967 10.2294 31.8685 10.1205 32.0449C9.97551 32.5217 10.0398 32.4899 10.0206 32.5536C9.92316 32.8061 8.54179 37.546 8.33675 38.4104C7.70819 40.7743 7.05286 43.4152 6.49527 46.0093C6.43755 46.2778 6.4416 46.0993 6.38415 46.369C6.2862 46.8113 5.88805 48.9946 5.82771 49.3346C5.66682 50.1703 5.24106 52.3204 5.19725 52.666C5.19066 52.7149 5.3662 52.0101 5.22928 52.8465C5.07882 53.7776 5.10631 53.2671 5.09656 53.3173C4.73664 55.2252 4.59294 56.3946 4.39714 57.6989C4.33456 58.1166 4.16604 58.9017 4.09468 59.4855C4.08633 59.5533 4.15026 59.4258 4.14266 59.4925C4.0352 60.3822 3.83613 61.2084 3.77735 61.5963C3.63429 62.546 3.76629 62.0362 3.75983 62.0858C3.67588 62.7208 3.54057 63.5771 3.42514 64.5299C2.90871 68.8434 2.56878 72.3198 2.22332 76.9247C2.1811 77.4954 2.08948 78.1733 2.08356 78.2612C2.0658 78.5329 2.12344 78.4579 2.07169 79.2448C1.96325 80.9101 1.88271 82.4468 1.80728 84.0898C1.79218 84.4212 1.7359 84.5606 1.72399 84.8138C1.67948 85.6719 1.71773 88.5509 1.55426 88.5969C1.65374 90.2841 1.50675 91.4062 1.48935 92.7534C1.47783 93.6914 1.47164 94.7887 1.47351 95.9558C1.47549 98.7715 1.53752 101.934 1.5903 104.197C1.6054 104.869 1.57171 105.184 1.58162 105.556C1.59225 106.237 1.78477 110.074 1.79428 110.267C1.80241 110.66 1.58739 110.441 1.8768 112.461C1.96094 113.648 1.87267 113.512 1.88357 113.757C1.97122 115.655 2.30549 117.529 2.10998 117.188C2.32898 119.404 2.56104 120.842 2.49023 121.767C2.56627 121.747 2.71254 122.79 2.81601 124.041C2.55437 122.772 2.4757 122.953 2.21406 119.808C2.21006 119.758 2.27394 119.848 2.26994 119.798C2.23392 119.35 2.12721 118.432 2.06995 117.67C2.01294 116.909 2.08405 117.328 2.05958 117.024C2.03738 116.744 1.98515 116.758 1.95415 116.353C1.85361 115.03 1.76513 113.887 1.71818 113.14C1.68866 112.671 1.7038 112.141 1.68317 111.776C1.59816 110.345 1.42604 107.392 1.37509 105.576C1.36429 105.204 1.41935 105.359 1.39914 104.543C1.39695 104.448 1.3334 104.103 1.30455 103.387C1.27588 102.67 1.29073 102.112 1.27669 101.649C1.26532 101.263 1.22078 101.423 1.20583 100.634C1.19885 100.289 1.17786 98.0652 1.19407 95.9558C1.20599 94.0629 1.24405 92.301 1.25066 92.1104C1.27069 91.5298 1.33996 91.2593 1.33936 90.9016C1.33898 90.8386 1.27955 90.731 1.27993 90.5131C1.25832 86.9358 1.72623 79.0309 2.08602 74.9631C2.78539 66.4664 3.76577 58.6177 5.39143 50.1649C5.41173 50.0109 5.43219 49.857 5.4528 49.7034C5.2808 50.5707 5.11929 51.4153 4.96166 52.2695C4.93492 52.2703 4.90818 52.2711 4.88143 52.2718C4.66551 53.4287 4.75626 53.2886 4.79853 53.2617C4.70593 53.6892 4.61437 54.1188 4.52386 54.5502C4.54601 54.9383 4.01409 57.7774 3.79646 59.277C3.65353 60.2312 3.52762 61.3841 3.45542 61.895C3.30292 62.9747 3.25093 62.9414 3.23837 63.0261C3.21594 63.1808 3.07447 64.6666 2.94348 65.7564C2.75182 67.3644 2.63776 67.5361 2.48496 69.7335C2.14619 72.562 1.9029 75.692 1.70951 78.7306C1.66148 78.1412 1.56265 80.8906 1.50012 82.1196C1.26569 86.3763 1.10689 91.1819 1.07836 95.9558C1.05457 99.6213 1.10455 103.233 1.20867 106.542C1.23974 107.527 1.21705 108.27 1.24299 108.815C1.25712 109.11 1.32711 109.236 1.33806 109.645C1.34007 109.718 1.28138 109.769 1.31083 110.533C1.3732 112.457 1.80059 117.182 1.79215 118.389C2.34241 124.895 3.13979 131.358 4.24767 137.813C4.24933 137.981 4.25113 138.148 4.25307 138.315C4.58257 139.525 5.40412 144.344 5.94145 146.696C6.836 150.814 8.24151 156.002 9.36467 159.539C9.6021 160.298 9.77345 160.962 10.012 161.681C10.1153 161.992 10.2937 162.36 10.4028 162.679C11.6287 166.318 13.5187 171.166 15.3046 174.633C19.3699 182.115 24.3152 190.857 34.649 191.879C34.8049 191.885 34.961 191.888 35.1173 191.888C52.6025 189.1 56.9878 170.854 61.6859 157.661C65.8973 143.444 68.0505 128.777 69.1242 114.125C69.1522 113.732 69.2269 113.757 69.2483 113.451C69.3826 111.638 69.5349 107.607 69.6081 105.547C69.675 103.932 69.859 101.337 69.748 100.77C69.4515 106.56 69.154 112.67 68.5741 118.671C68.5331 119.095 68.4565 119.141 68.4506 119.193C68.3375 120.154 68.4938 119.557 68.3626 120.971C68.3274 121.452 67.6296 125.751 67.9057 125.268C67.7237 126.314 66.6958 133.576 66.4623 135.01C66.4027 135.438 66.5162 135.147 66.5059 135.232C66.4609 135.602 66.3443 135.753 66.2881 136.079C66.1449 136.934 65.8197 139.203 65.7401 139.616C65.57 140.57 64.9244 143.495 64.6689 144.752C64.4365 145.915 64.5712 145.731 64.3552 146.744C64.1814 147.541 64.3045 146.665 63.8737 148.422C63.6677 149.289 62.9514 152.382 62.7487 153.112C62.5489 153.863 62.2706 154.678 61.9875 155.688C61.5846 157.159 60.636 160.331 60.1393 161.821C60.1106 161.909 60.1048 162.145 60.0297 162.359C59.874 162.802 59.838 162.64 59.7137 162.971C59.6204 163.337 57.4173 169.126 56.9408 170.079C56.646 170.753 56.4854 171.229 56.3187 171.591C56.1876 171.875 56.1093 171.875 55.9747 172.161C55.9329 172.251 55.6176 173.067 55.2378 173.823C54.9084 174.525 53.379 177.219 53.1947 177.497C53.0755 177.7 53.2499 177.505 52.8953 178.101C52.5711 178.641 52.3013 178.951 52.1138 179.247C51.6871 179.92 51.1919 180.763 50.695 181.46C49.1965 183.52 49.1737 183.322 49.087 183.447C48.8234 183.76 48.7628 183.942 48.6729 184.051C48.2859 184.53 47.3611 185.561 46.9586 185.958C46.4894 186.43 46.2412 186.573 45.7325 187.03C45.3275 187.39 44.587 188.119 43.5773 188.817C41.369 190.402 38.1514 191.68 35.3457 191.663C35.2629 191.665 35.187 191.664 35.1173 191.663C34.4882 191.647 34.3673 191.579 34.1412 191.563C32.821 191.443 32.0999 191.299 31.7299 191.207C29.0182 190.63 25.217 187.812 23.6238 186.079C22.885 185.435 20.1174 182.247 18.8965 180.267C18.7477 180.039 18.9258 180.227 18.7538 179.977C18.3395 179.37 18.3119 179.494 18.1215 179.186C18.0317 179.039 17.8688 178.678 17.6117 178.237C16.2893 175.957 15.4611 174.352 14.9424 173.285C10.001 162.913 7.12852 151.555 5.16209 141.144C4.94816 139.997 4.63711 138.557 4.39384 136.778C4.41097 136.72 4.4281 136.662 4.44524 136.604C4.40973 136.547 4.37424 136.49 4.33878 136.433C4.00675 134.459 3.85329 133.665 3.6001 131.641C3.57824 131.465 3.6215 130.913 3.43095 130.6C3.26744 128.554 3.30582 129.674 3.10622 128.172C2.91179 126.681 2.77557 125.196 2.62969 123.732C2.59342 122.92 3.07792 126.286 3.10919 126.501C3.14999 126.854 3.12158 127.228 3.15878 127.566C3.26745 128.56 3.45382 129.541 3.41886 129.774C3.65992 131.068 3.41056 129.45 3.49399 129.604C3.58258 130.479 3.67541 131.348 3.77243 132.211C4.03032 132.615 4.50746 137.445 4.62232 137.074C4.65398 137.463 4.68645 137.851 4.71975 138.237C5.21361 139.873 5.23937 140.844 5.61677 143.086C5.61124 142.921 5.60584 142.756 5.60059 142.591C5.61847 142.638 6.0516 144.569 5.80039 143.898C6.35173 145.833 6.09934 145.841 6.66959 147.574C6.93389 148.626 6.67374 147.991 7.12823 149.902C7.40178 151.039 7.79103 152.363 8.134 153.635C8.21151 153.923 8.18543 154.064 8.25444 154.319C8.32356 154.574 8.41592 154.682 8.50196 154.988C8.67992 155.622 8.86837 156.439 8.99177 156.847C9.09966 157.205 9.30055 157.702 9.56705 158.548C10.513 161.491 10.1799 160.639 10.3007 161.111C10.4399 161.623 10.6553 161.954 10.9821 162.938C11.0152 163.037 10.8657 162.801 10.9803 163.124C11.0753 163.389 11.1862 163.503 11.5108 164.367C11.6047 164.72 13.6935 169.977 14.1009 170.773C14.6199 171.968 15.8555 174.655 16.5414 175.889C16.7959 176.36 17.1138 176.813 17.3957 177.303C18.3349 178.957 19.9385 181.461 21.464 183.326C22.7685 185.053 25.5081 187.777 26.6004 188.323C29.1538 190.067 29.9423 190.273 30.1446 190.402C30.7496 190.643 31.0405 190.68 31.8277 190.894C32.8702 191.167 33.9726 191.323 35.1173 191.322C46.0468 190.963 52.4026 178.948 55.8777 171.692C64.7665 151.602 67.712 129.544 68.871 107.845C68.8379 107.785 68.8047 107.725 68.7715 107.665C68.6361 110.229 68.3925 113.262 68.1853 115.789C67.9223 119.183 67.558 124.188 67.0105 126.652C67.112 125.651 67.3859 124.009 67.2598 124.029C67.0527 125.842 66.8308 127.607 66.583 129.407C66.6457 129.36 66.7084 129.314 66.7711 129.267C66.5376 131.154 66.2522 133.035 65.9602 134.922C65.9097 135.247 65.9962 135.025 65.9511 135.307C65.9004 135.623 65.8843 135.401 65.8744 135.46C65.7447 136.256 65.7549 136.502 65.7382 136.599C65.694 136.849 65.6803 136.639 65.5428 137.363C65.2864 138.709 65.2381 139.68 65.0821 139.33C65.0042 139.76 64.9251 140.188 64.845 140.613C64.8821 140.735 64.9192 140.856 64.9561 140.977C64.2106 143.606 64.3622 144.851 63.7173 146.268C63.66 146.76 63.601 147.25 63.5404 147.737C63.4221 147.993 63.3034 148.247 63.1845 148.5C63.2209 148.563 63.2572 148.627 63.2935 148.69C62.6488 151.273 61.991 154.018 61.2828 156.426C60.7749 158.142 60.6361 158.522 60.1666 160.009C59.0802 163.333 60.0824 160.028 59.0607 162.709C59.1655 162.589 59.2703 162.468 59.3751 162.347C59.2426 162.799 59.1048 163.258 58.961 163.724C58.8017 164.026 58.6418 164.324 58.4814 164.62C58.2097 166.083 57.6593 166.91 57.5851 167.099C57.5227 167.251 57.4646 167.836 56.6673 169.387C57.1476 168.788 56.1303 170.634 56.0594 170.774C56.0008 170.915 55.1993 172.759 54.8248 173.493C54.5444 174.061 53.875 175.268 53.4104 176.108C53.0045 176.844 53.104 176.799 53.0749 176.853C52.5647 177.752 52.8411 177.169 52.4533 177.822C52.0614 178.476 51.8024 178.993 51.7122 179.126C51.6667 179.192 51.7573 178.931 51.5547 179.239C50.9914 180.102 50.0239 181.602 49.287 182.538C49.033 182.866 48.6798 183.223 48.3829 183.575C47.9196 184.124 47.7533 184.413 47.4786 184.712C47.386 184.811 46.6931 185.419 45.8813 186.205C45.7314 186.349 45.4214 186.957 44.5515 187.25C44.5301 187.326 44.5083 187.403 44.4861 187.479C41.4975 189.902 40.2083 189.833 38.7051 190.682C35.9192 191.301 37.805 190.728 37.4948 190.787C37.2999 190.822 36.397 190.981 36.2939 190.981C36.1153 190.993 36.1426 190.95 35.9477 190.964C35.6337 190.986 35.3584 190.994 35.1173 190.995C32.6227 190.888 33.8455 191.001 32.811 190.905C31.4506 190.712 30.3455 190.215 30.1006 190.07C29.8731 189.891 30.4239 190.272 32.7144 190.822C32.7187 190.8 32.723 190.778 32.7273 190.756C31.5471 190.636 28.8908 189.433 29.8253 189.718C30.1869 189.854 31.9721 190.534 33.2937 190.686C34.6117 190.839 35.3458 190.86 33.4303 190.613C32.5852 190.447 32.0771 190.462 30.7241 189.81C29.7934 189.429 29.593 189.581 28.4279 188.842C28.5888 189.017 28.7529 189.188 28.9203 189.355C27.2039 188.583 25.4667 187.031 24.4331 186.086C24.07 185.784 22.6201 184.732 23.1469 184.804C22.5512 184.28 20.2223 181.208 19.8622 180.654C19.7764 180.525 19.4399 180.429 18.2205 178.34C18.1509 178.183 18.0817 178.026 18.0128 177.868C19.2219 179.756 17.2416 176.318 17.9363 177.162C18.0555 177.529 18.9342 179.052 19.0571 179.298C19.2741 179.749 18.3955 178.557 19.4462 180.119C20.3186 180.941 18.3836 178.215 18.8954 178.506C17.529 176.505 17.5525 176.223 17.2877 175.75C16.1823 173.669 15.5219 172.355 14.6619 170.365C14.3785 169.899 15.9873 173.558 16.2501 173.962C15.2735 172.43 16.6521 175.238 17.4119 176.327C17.4153 176.451 17.4189 176.574 17.4228 176.698C16.6083 175.193 15.8591 173.693 15.0818 172.152C15.0531 172.041 15.0233 171.927 14.996 171.819C15.1886 172.157 15.3848 172.495 15.5808 172.827C15.0139 171.514 15.2163 172.351 14.5762 170.59C14.4943 170.563 14.4124 170.536 14.3305 170.508C13.6033 168.815 12.9559 167.162 12.3345 165.452C11.8748 164.635 10.7777 161.308 11.1443 161.866C10.7109 160.536 11.1764 162.204 10.7245 160.968C10.5278 160.429 10.1788 159.345 10.143 159.081C10.3181 159.136 10.8524 160.748 11.1145 161.189C10.9871 160.882 8.69102 153.487 9.08353 154.093C8.94145 153.486 8.92638 153.79 8.6148 152.702C7.7486 149.716 6.85634 144.895 6.16946 142.485C6.62686 145.402 6.95488 146.263 7.46358 148.453C7.73478 149.91 10.1013 158.393 9.43342 156.547C9.54509 156.858 9.65747 157.167 9.77055 157.474C9.81886 157.805 9.8679 158.133 9.91765 158.461C9.64217 157.585 9.36557 156.67 9.10838 155.79C9.09461 155.566 9.08115 155.342 9.06799 155.117C9.00788 155.029 8.94784 154.94 8.88787 154.851C8.77757 154.478 8.66825 154.103 8.55992 153.725C8.62796 153.821 8.69609 153.917 8.7643 154.012C8.61409 153.431 8.4617 152.828 8.3207 152.254C8.30817 152.423 8.29484 152.588 8.28429 152.763C7.5717 150.041 7.8442 150.955 7.56877 149.396C7.30858 148.246 7.65382 150.188 7.07313 147.798C6.42101 145 6.96164 146.772 6.17993 143.154C6.14329 143.107 6.10668 143.059 6.07009 143.012C5.93611 142.204 5.80189 141.368 5.68008 140.569C5.66747 140.681 5.65491 140.793 5.6424 140.904C5.34335 139.263 4.88413 136.926 4.92462 136.37C5.14389 138.068 5.36948 138.027 5.33208 137.573C5.15987 136.686 3.2417 123.173 3.10434 120.552C2.78735 117.197 2.66846 114.646 2.38463 111.577C2.38981 113.67 3.05248 120.98 3.1612 122.377C3.16944 122.514 2.96722 122.497 3.28037 123.351C3.54033 126.201 4.01563 129.593 4.53279 133.107C4.45882 133.007 4.38496 132.906 4.31119 132.805C4.11681 130.642 3.59186 128.638 3.85108 128.896C3.79421 128.454 3.74092 128.031 3.68769 127.599C3.64939 127.604 3.61108 127.609 3.57278 127.613C3.49294 126.963 3.41551 126.31 3.34052 125.654C3.37869 125.65 3.41686 125.645 3.45503 125.641C3.39286 125.098 3.33206 124.55 3.27357 124.006C3.22961 123.954 3.18569 123.903 3.14179 123.851C3.03111 122.238 2.34334 116.696 2.77872 119.113C2.71267 118.354 2.64983 117.592 2.59023 116.826C2.56299 116.83 2.53576 116.835 2.50852 116.84C2.47926 116.511 2.4506 116.181 2.42256 115.851C2.45536 115.958 2.48824 116.064 2.52121 116.171C2.36208 114.648 2.4017 113.24 2.25697 112.247C2.27748 112.903 2.30026 113.556 2.32528 114.207C2.27389 112.961 2.07061 110.647 2.06142 110.437C2.02836 109.809 2.06655 109.478 2.03741 108.797C2.0115 108.182 1.97393 108.268 1.97024 108.153C1.87654 104.821 2.15532 106.076 1.83704 104.54C1.86834 104.374 1.89975 104.209 1.93127 104.043C1.89469 103.824 1.85842 103.605 1.82246 103.386C1.79965 102.406 1.78191 101.413 1.76975 100.434C1.72977 100.759 1.69037 101.09 1.65144 101.42C1.60462 99.9425 1.69028 99.2645 1.69026 99.1201C1.69134 98.717 1.6337 98.5328 1.63261 98.408C1.62516 97.2969 1.62751 96.5123 1.63272 95.9558C1.6624 93.5094 1.71466 95.4822 1.90605 93.0395C1.83716 91.9719 1.74177 93.0498 1.65693 93.2011C1.71342 91.7796 1.69728 91.3476 1.73564 89.8361C1.74603 89.4443 1.80145 89.025 1.80878 88.7787C1.81496 88.5652 1.78684 87.8973 1.80345 87.3871C1.83044 86.5415 1.90032 85.3968 1.95151 84.2275C1.99047 83.2579 2.10951 80.2801 2.25309 78.2107C2.31309 77.3302 2.338 77.5377 2.35388 77.3107C2.3603 77.2182 2.36386 76.5247 2.4075 75.9538C2.75731 71.3466 3.27928 66.5942 3.90343 61.9858C4.34198 58.7423 4.82627 55.4464 5.42705 52.1951C5.55423 51.5102 5.51829 51.8786 5.57488 51.5803C5.59555 51.4741 5.5591 51.3571 5.78842 50.285C5.87152 49.8991 5.82235 50.3516 5.8984 49.9716C5.93592 49.7875 5.90239 49.6964 6.10861 48.6218C6.48289 46.6869 6.78656 45.638 6.82139 45.4666C6.89076 45.1381 6.83107 45.225 6.92722 44.792C7.39313 42.7029 7.83073 40.8979 8.31533 39.0493C8.51616 38.1414 10.2687 32.1753 10.4139 31.8617C10.6677 31.1293 10.5183 31.8365 10.8248 30.8972C10.8929 30.629 10.9616 30.3621 11.0309 30.0966C10.8769 30.5036 10.724 30.9144 10.5724 31.3289C10.9751 30.1771 11.3759 28.9141 11.6899 28.0501C11.746 27.8895 12.3004 26.4815 12.5746 25.7709C12.4691 26.0837 12.3691 26.3869 12.2676 26.6982C12.3197 26.5946 12.3719 26.4913 12.4242 26.3884C12.9589 24.9261 13.5616 23.4385 14.212 21.9606C14.4447 21.4345 14.393 21.6232 14.6304 21.0972C16.0634 18.039 15.559 18.7747 17.3027 15.9867C16.7219 16.9267 14.9825 20.5537 14.7725 21.0609C14.6008 21.4176 13.7895 22.7965 14.2054 22.3419C12.9491 25.325 13.9225 22.6669 12.813 25.5007C12.8583 25.4525 12.9036 25.4045 12.9489 25.3566C12.5708 26.3656 12.3256 27.0646 12.0612 27.6598C12.0876 27.9092 10.8376 31.2547 10.276 33.1417C9.44157 35.8534 8.61754 38.9743 7.96105 41.6818C7.7316 42.6251 7.55564 43.1634 7.52956 43.2736C7.48964 43.4441 7.41993 43.9347 7.34179 44.2786C7.03545 45.5678 6.14396 49.4823 6.08379 50.5076C7.57785 42.7635 9.50622 35.1293 12.197 27.7173C11.751 28.6102 14.672 21.1975 14.9237 20.8652C15.0796 20.5301 14.9855 20.8291 15.0334 20.7302C15.3805 20.0112 15.6553 19.3128 15.7675 19.0831C15.8558 18.9026 16.0569 18.5473 16.3745 17.9218C16.4328 17.8072 16.4245 17.7628 16.4874 17.6404C16.9189 16.8029 17.3621 15.9859 17.8145 15.1947C17.841 15.149 17.9946 14.9612 18.1161 14.7535C18.2374 14.5457 18.3238 14.3228 18.3545 14.2712C18.74 13.62 19.4292 12.5786 19.841 11.9735C19.9795 11.7684 19.8594 11.8938 20.0153 11.6656C20.5007 10.9676 20.3677 11.2463 20.9841 10.378C21.1937 10.0896 21.1446 10.0775 21.5618 9.54945C21.858 9.17931 21.8864 9.26964 21.935 9.21274C21.9814 9.14619 23.0226 7.81399 23.421 7.47603C22.7288 8.41754 24.2962 6.55005 24.1994 6.59865C24.6826 6.13838 25.1372 5.73531 25.6648 5.3039C25.8276 5.14734 25.9913 4.9944 26.156 4.84512C28.2742 3.29054 29.6856 2.42797 32.1945 1.75844C32.3112 1.67973 34.4714 1.40043 34.3753 1.46823C33.0754 1.57497 31.8104 1.91628 31.0168 2.13845C29.7741 2.7531 29.6943 2.61489 27.8114 3.78134C27.1955 4.19241 27.1725 4.26274 27.1018 4.31069C24.6931 5.94973 21.7446 9.49411 20.5709 11.0646C20.2723 11.5207 21.4332 9.93975 20.9964 10.5705C20.5678 10.7622 15.6469 19.4756 17.1249 16.639C16.9698 16.9342 16.8156 17.2331 16.6624 17.5357C16.6043 17.8687 15.8573 19.3231 15.8435 19.1134C15.7946 19.264 15.746 19.4153 15.6976 19.5671C15.581 19.854 15.4257 20.2055 15.2242 20.6577C14.2461 22.3765 10.2941 33.3449 10.2566 33.9726C10.2781 33.9938 10.2995 34.0149 10.321 34.0361C11.8554 29.1181 13.4567 24.4228 15.9628 19.3612C15.8701 19.4984 15.7774 19.6365 15.6849 19.7755C16.6828 17.7562 17.739 15.8281 18.948 13.9108C17.7235 15.9514 16.0458 19.3082 15.0215 21.5636C14.8367 21.964 14.9372 21.6549 14.8924 21.7459C14.7759 21.9851 14.7116 22.2666 14.3394 23.1602C13.9799 24.0029 13.0501 26.2618 12.9865 26.4506C12.8403 26.8392 12.51 27.9271 12.2668 28.615C11.9469 29.5192 12.1208 28.8989 12.056 29.0803C11.7943 29.816 11.5929 30.4792 11.3961 31.0654C11.0977 31.9433 10.4648 33.7182 10.3898 34.3648C10.5825 33.7403 10.778 33.123 10.9762 32.5132C9.96533 35.8627 9.07852 38.555 8.36546 41.9332C8.31058 42.7373 8.97745 39.928 8.45589 42.3144C8.55804 41.8812 8.66142 41.4506 8.76604 41.0227C8.76319 40.9155 8.76044 40.8084 8.7578 40.7014C8.96182 39.9743 9.17112 39.2474 9.38994 38.5072C9.309 38.7119 9.2283 38.9173 9.14782 39.1235C9.81353 36.4942 10.5802 33.8739 10.9869 33.0298C10.9723 32.9678 10.9577 32.9058 10.9431 32.8438C11.7181 30.4395 12.8773 26.8756 12.807 27.5945C12.8388 27.4802 12.8708 27.3662 12.9028 27.2524C13.4621 25.8589 13.1654 26.4476 13.3641 25.9032C13.4166 25.7317 14.5518 23.0335 14.1119 24.2535C15.2384 21.6423 14.7736 22.3719 15.0775 21.6492C15.8642 20.0228 17.2705 17.0125 16.7561 18.3046C16.8829 18.0639 17.0031 17.8392 17.1389 17.5879C17.4752 16.7276 17.9897 16.016 18.5021 15.2011C18.6719 14.9114 18.8426 14.626 19.0143 14.345C19.0998 14.139 19.1861 13.9347 19.273 13.7321C21.0669 11.2124 20.2082 11.806 21.3022 10.8651C21.1836 11.0634 21.0806 11.2434 20.9727 11.4329C20.6863 11.8558 20.4026 12.2912 20.1215 12.7387C21.2778 10.9921 22.5469 9.32008 23.97 7.8022C25.8693 5.97361 26.9252 4.84965 29.486 3.52014C29.7208 3.38756 29.9567 3.26263 30.1936 3.14542C29.9854 3.3343 29.0314 3.73499 30.8083 2.99264C30.9721 2.977 29.7939 3.48112 29.2534 3.75017C29.1204 3.80991 30.1866 3.18535 28.9659 3.84984C28.1639 4.35191 29.6256 3.42567 27.2736 5.01009C27.3661 4.95822 27.4615 4.90537 27.5552 4.85476C27.2966 5.03969 27.0662 5.21338 26.8265 5.40202C26.5958 5.54442 26.3647 5.69383 26.1333 5.85023C25.6093 6.37174 25.3848 6.6196 24.2356 7.79917C24.517 7.47649 24.0683 7.84102 23.5387 8.44182C23.5559 8.45705 23.5731 8.47228 23.5903 8.48751C22.3191 9.99929 22.7278 9.40501 21.7738 10.735C21.661 10.8557 21.5483 10.978 21.4356 11.1019C20.9662 11.8192 19.2604 14.619 19.4885 14.053C19.0959 14.8907 18.1145 16.5311 17.7012 17.131C17.6959 17.1912 17.6906 17.2514 17.6855 17.3118C17.5098 17.6548 17.3332 18.0075 17.1711 18.3388C17.0639 18.5192 16.9568 18.7011 16.8501 18.8845C16.7437 19.132 16.6379 19.3817 16.5329 19.6336C16.4401 19.7714 16.3475 19.9102 16.255 20.05C16.0893 20.4676 15.9374 20.8651 15.7862 21.2693C15.6603 21.5014 15.5347 21.7357 15.4096 21.972C15.4348 22.0174 14.4144 24.4502 14.1224 25.1282C14.0547 25.3392 13.9874 25.5512 13.9206 25.7643C13.8587 25.857 13.7968 25.9501 13.7349 26.0435C13.6928 26.207 13.6524 26.3673 13.6139 26.5238C13.4644 26.8639 13.3157 27.2073 13.1679 27.554C12.7541 29.042 12.6432 29.0672 12.5255 29.4027C12.3137 29.9994 11.6907 32.1368 11.5763 32.5028C11.459 32.8616 11.3677 33.0085 11.2756 33.2922C9.78897 38.0124 10.504 36.0971 10.2446 37.05C10.1126 37.5642 9.97359 37.9183 9.85507 38.3781C9.63124 39.1852 8.71847 43.1207 8.66597 43.3748C8.58211 43.7021 8.56868 42.8808 8.37093 43.9642C8.4639 44.0186 7.84491 46.3156 8.23017 45.2628C8.00678 46.2135 7.78618 47.1911 7.58145 48.1308C7.72866 48.0489 7.40747 49.2043 7.16694 50.5106C6.81698 52.3302 6.21407 56.5029 6.1146 56.3197C6.07497 56.7634 6.03664 57.2088 5.99961 57.6559C5.49453 60.6814 5.15098 63.6527 4.81728 66.6642C3.81713 75.6133 3.27242 85.3797 3.22393 94.342C3.22131 94.774 3.17303 94.7117 3.1716 95.0231C3.17058 95.2765 3.17081 95.593 3.17252 95.9558C3.17742 97.941 3.25381 101.244 3.30569 103.185C3.32377 103.917 3.28774 104.272 3.29324 104.503C3.31251 105.287 3.37035 105.1 3.38182 105.46C3.39639 106.036 3.47248 109.069 3.52788 110.098C3.553 110.611 3.64028 111.225 3.66179 111.83C3.66372 111.882 3.60463 111.789 3.60642 111.833C3.66904 112.934 3.6735 112.269 3.69487 112.641C3.84863 115.277 4.07422 118.116 4.34656 120.989C4.41365 121.704 4.48848 122.794 4.55118 123.4C4.57527 123.631 4.57051 123.211 4.65558 124.012C4.68546 124.29 4.64233 124.391 4.67451 124.704C4.8149 126.053 5.04371 126.479 5.04819 127.639C5.33241 129.865 5.94232 133.708 6.28421 135.716C6.36306 136.189 6.36866 136.42 6.44688 136.874C6.50289 137.199 6.65238 137.761 6.74291 138.263C6.83333 138.765 6.92854 139.565 7.11167 140.515C7.30547 141.528 7.59052 142.79 7.63683 143.013C7.69305 143.287 7.65842 143.427 7.71602 143.7C7.88264 144.507 8.43742 146.751 8.69227 147.793C8.96124 148.91 9.10923 149.633 9.20477 150.016C9.29522 150.377 9.45297 150.783 9.49517 150.946C9.56087 151.2 9.51562 151.275 9.59926 151.596C9.73474 152.113 9.91949 152.662 10.1373 153.456C14.243 167.108 19.1497 183.135 31.7902 188.713C32.9406 189.061 33.7028 189.187 35.1173 189.206C35.425 189.206 35.7622 189.193 36.1401 189.16C36.9983 189.064 36.6475 189.184 37.3095 189.045C37.6036 188.974 37.5164 188.938 37.8863 188.84C39.5101 188.423 41.3134 187.427 41.9167 187.004C42.1609 186.84 42.4326 186.577 42.9038 186.212C46.5926 183.375 49.836 178.65 52.2127 174.038C53.4857 171.623 55.1323 167.787 56.2255 164.803C59.2914 156.594 61.5132 147.36 62.9215 139.458C65.0529 127.519 66.0642 115.44 66.4502 103.329C66.142 108.994 65.7154 116.699 65.0411 122.966C63.0389 140.935 59.6126 160.6 50.5618 176.666C47.4725 182.018 41.8559 188.985 35.3105 188.988C35.2565 188.989 35.1915 188.991 35.1173 188.994C34.8005 189.007 34.3156 189.021 33.8181 188.955C33.6855 188.966 32.0945 188.554 31.5924 188.343C32.0326 188.683 30.038 187.786 29.4503 187.401C28.6999 187.001 27.0994 186.055 25.6126 184.558C24.259 183.168 24.7139 183.499 24.633 183.422C24.1966 182.917 23.9672 182.799 23.6133 182.4C21.9111 181.025 16.3609 171.2 15.3457 168.157C15.0337 167.416 15.0805 167.369 15.0108 167.2C14.8267 166.752 14.5115 166.127 14.2241 165.383C13.7261 164.103 13.2122 162.505 12.9661 161.791C12.3521 160.055 11.2163 156.676 10.5745 154.355C10.3909 153.7 10.4598 153.723 10.3775 153.425C10.0018 152.097 9.06777 148.681 8.70342 147.052C8.08479 144.365 7.5539 141.583 7.03786 138.86C7.03125 138.682 7.0248 138.503 7.01852 138.324C6.94261 138.053 6.86719 137.782 6.79226 137.509C5.99661 132.861 5.27539 128.102 4.76767 123.419C4.70599 122.888 4.48203 120.213 4.44347 119.76C4.40806 119.383 4.31495 119.034 4.27511 118.485C4.22032 117.717 4.39639 118.43 4.25699 117.177C4.2201 116.84 4.19797 117.172 4.12735 116.492C4.09411 116.26 3.76554 111.915 3.76325 111.673C3.74473 111.281 3.8275 110.924 3.82376 110.822C3.80473 110.294 3.72697 110.32 3.70034 109.971C3.621 108.941 3.61051 107.58 3.60207 107.41C3.4876 105.353 3.30928 101.547 3.31896 99.4035C3.31952 99.1075 3.3776 99.1422 3.37868 99.0902C3.38574 98.7546 3.31773 98.5465 3.3126 98.2267C3.30247 97.5762 3.30068 96.7847 3.30556 95.9558C3.31313 94.5907 3.3405 93.1403 3.3596 92.0681C3.36295 91.8695 3.33718 91.4505 3.34546 91.0968C3.396 89.075 3.43663 89.7338 3.44003 89.6185C3.45075 89.3471 3.40613 88.8682 3.42119 88.1482C3.45383 86.3064 3.60071 82.7287 3.71727 80.744C3.80251 79.2484 3.86492 79.2779 3.87123 79.1796C3.886 78.9712 3.87174 78.3875 3.93108 77.4132C4.0492 75.5254 4.08539 75.739 4.14085 74.9643C4.14606 74.8994 4.09038 75.0079 4.15354 74.1495C4.26838 72.5061 4.66386 68.7701 4.86322 66.9997C4.93792 66.3151 4.91282 66.1504 4.99274 65.4537C5.1148 64.3573 5.48255 61.8622 5.51136 61.6671C5.51873 61.6121 5.48625 61.4818 5.53014 61.1588C5.57845 60.8036 5.65185 60.4589 5.68867 60.1957C5.89328 58.6972 6.22072 56.0704 6.27879 56.8238C6.31177 56.336 6.34634 55.8502 6.38249 55.3663C6.91218 52.1971 7.46565 49.1642 8.12388 46.0698C8.27293 45.3706 8.43256 44.7996 8.56281 44.2189C8.68262 43.6565 9.25835 41.0318 9.36713 40.6193C9.53691 39.8624 10.71 35.5431 10.8944 34.9946C11.2105 33.9436 11.5809 32.9795 11.7032 32.5497C11.802 32.2035 11.6649 32.5078 11.8637 31.853C12.2056 30.7166 12.8917 28.8807 13.0201 28.5278C13.0722 28.3851 12.9447 28.636 13.4329 27.2974C13.6969 26.5809 13.8725 26.2146 13.976 25.9451C14.0086 25.866 13.9087 25.9561 14.4813 24.5439C14.8778 23.5776 15.0896 23.1891 15.1348 23.0809C15.2009 22.9264 15.321 22.5346 15.5908 21.9269C16.2003 20.5259 17.487 17.9879 18.2137 16.6876C18.3509 16.4408 18.2567 16.4937 18.8112 15.5255C19.2274 14.8103 19.1895 14.9592 19.3464 14.6964C19.6022 14.2743 19.9035 13.677 20.505 12.7649C20.8783 12.1979 22.4279 9.89281 24.2878 7.94206C26.1071 5.96335 28.2385 4.56038 28.4513 4.4515C28.7324 4.28106 29.0601 4.09009 29.2184 4.02495C29.1051 4.11092 28.9849 4.20329 28.8805 4.28863C27.6255 4.9956 28.16 4.76587 27.8411 4.98396C27.3652 5.28887 25.7179 6.66516 25.3847 7.04735C25.257 7.18307 25.5871 6.90632 24.8943 7.63238C24.159 8.42378 23.814 8.72197 23.6051 9.12058C22.522 10.217 21.7645 11.4667 22.8588 10.091C23.1573 9.73331 24.8444 7.59341 26.972 5.90377C29.0733 4.14418 31.6872 3.159 32.5828 2.99157C33.2298 2.83181 34.1353 2.67286 35.1173 2.66568C36.3367 2.64512 37.6396 2.88962 38.6123 3.22231C39.6744 3.49162 42.0435 4.89321 41.9011 4.90594C42.7245 5.46843 41.8801 4.83618 42.0564 4.94728C42.4578 5.11869 44.8562 7.15564 45.2519 7.63159C47.3663 9.69906 49.6385 12.8148 51.0613 15.3868C50.981 15.276 50.9006 15.1661 50.8202 15.057C50.471 14.4702 48.8279 11.9266 48.5445 11.6868C51.1498 15.302 53.2272 19.3339 55.0162 23.4951C55.0594 23.3687 57.1306 28.6149 57.1622 28.8807C57.1057 28.7955 57.0492 28.7105 56.9926 28.6258C55.9719 25.616 55.9446 25.9318 55.1931 23.9394C54.8582 23.1491 54.9182 23.3965 54.7414 23.0079C52.925 19.1769 54.812 22.8915 53.3999 19.9808C53.7706 20.8802 52.598 18.5062 52.0104 17.4647C51.9084 17.224 50.1316 14.1443 49.8854 13.8204C48.6445 11.82 46.1467 8.67475 44.467 7.14466C43.15 5.93999 42.343 5.39051 40.9893 4.60104C39.939 4.03283 40.2604 4.18355 39.7533 3.9408C38.6925 3.47964 38.3018 3.48479 37.6284 3.16761C36.8745 3.00521 36.1069 2.92392 35.3443 2.92928C35.3448 2.9074 35.3453 2.88552 35.3458 2.86364C35.2697 2.86238 35.1935 2.86195 35.1173 2.86236C34.7098 2.86456 34.3048 2.89075 33.9014 2.94052C33.7632 2.97967 33.6254 3.02175 33.4906 3.06624C31.9912 3.33336 32.6009 3.17858 32.3043 3.1796C31.9757 3.2666 31.6632 3.36408 31.3428 3.47863C31.114 3.61536 30.8869 3.76066 30.6656 3.91246C29.3075 4.5114 27.9806 5.39273 26.8065 6.38315C26.7141 6.4317 26.6215 6.48136 26.5287 6.53215C26.5409 6.55147 26.5532 6.57081 26.5654 6.59012C24.5653 8.3437 22.8483 10.4726 21.3252 12.7463C20.923 13.3456 23.4882 9.81269 23.7476 9.61165C24.8293 8.11461 28.4611 5.04754 28.5763 5.21457C29.4007 4.47229 32.3741 3.2075 33.3617 3.22251C31.9083 3.48092 30.5258 4.04014 29.1993 4.83497C29.2548 4.83266 29.3077 4.83211 29.3655 4.82901C27.7147 5.73893 27.4661 5.9473 26.0481 7.37314C26.0219 7.34786 25.9957 7.32259 25.9696 7.29732C25.0074 8.3366 23.2146 10.1703 23.3143 10.321C22.8408 10.8961 22.3432 11.5453 21.905 12.1512C21.0365 13.5609 22.3569 11.3527 19.0398 17.0085C18.8212 17.4074 18.829 17.3011 18.5095 17.9172C18.4115 18.1157 17.9497 19.0912 17.0181 21.0984C16.8789 21.4007 16.8353 21.4084 16.6883 21.7247C16.3468 22.4491 15.773 24.0034 15.9556 23.2658C14.6924 26.2308 15.3016 25.0369 14.9647 25.9879C14.7469 26.6271 14.7247 26.4873 14.5406 27.0237C14.3164 27.7024 14.5472 27.2035 13.5648 29.9335C13.6621 29.6327 13.7676 29.3128 13.8701 29.0059C13.7975 29.1539 13.725 29.3026 13.6526 29.4519C13.1666 31.016 13.1589 30.8427 13.0217 31.6156C12.6029 32.7524 12.2963 33.7179 11.8445 35.2974C10.9907 38.38 11.5412 36.802 10.464 40.298C10.3442 40.8679 10.2267 41.4426 10.1116 42.0218C9.83906 42.9564 9.95889 42.1723 9.61621 43.5928C9.98563 42.5213 9.26893 45.4619 9.27311 45.9984C9.23635 46.0458 9.19958 46.0933 9.16282 46.1409C9.09506 46.4582 9.02793 46.7768 8.96146 47.0967C8.98172 47.1021 9.00198 47.1075 9.02225 47.1128C8.91757 47.5399 8.81956 47.9428 8.71974 48.3612C8.67705 48.6805 8.63507 49.001 8.59379 49.3225C8.44908 49.8358 8.30579 50.3526 8.16395 50.8729C8.09873 51.2068 8.03629 51.5308 7.97446 51.8561C8.02416 51.7587 8.07389 51.6615 8.12365 51.5644C8.03722 51.9804 7.9518 52.3983 7.86742 52.8182C8.00553 52.3383 8.00801 52.6521 7.7818 53.9729C7.59966 55.0623 7.68718 53.8283 7.357 56.1687C7.33628 56.3343 7.36001 56.6219 7.04596 58.8552C6.68377 61.5209 6.81267 60.2156 6.74404 60.6901C6.731 60.7828 6.6608 61.5993 6.56887 62.3665C6.51648 62.8016 6.4323 63.2182 6.42524 63.2759C6.39358 63.5445 6.42854 63.6351 6.38621 64.0003C6.27751 64.9327 6.11205 66.1928 6.01587 67.1223C5.97186 67.5443 5.95805 67.9466 5.9392 68.1348C5.91012 68.4228 5.83164 68.7846 5.80313 69.0773C5.69636 70.1566 5.69012 71.8262 5.45311 72.3188C5.54185 73.3756 5.16234 75.5446 5.29622 75.3964C5.01471 78.1957 4.85308 85.6658 4.66923 85.4469C4.79831 87.0548 4.67578 86.8933 4.66067 87.5599C4.64581 88.3021 4.68988 87.9185 4.67535 88.5091C4.64258 89.8877 4.6093 91.2212 4.60024 92.5855C4.57224 92.3698 4.54453 92.1543 4.51713 91.9389C4.49747 93.3779 4.56771 92.8822 4.57913 94.356C4.58731 95.224 4.59028 95.6994 4.58512 95.9558C4.5747 96.5011 4.52943 96.0577 4.47857 96.3312C4.54855 96.2262 4.57726 99.4242 4.57868 99.7447C4.57735 99.9383 4.45929 99.0912 4.53543 101.042C4.56284 100.934 4.59027 100.825 4.61779 100.718C4.59457 101.616 4.72461 104.035 4.73239 104.442C4.73476 104.63 4.52772 105.638 4.76424 106.562C4.73886 106.675 4.71353 106.787 4.68824 106.9C4.7725 107.926 4.86282 108.946 4.95908 109.96C4.91329 110.125 4.86763 110.291 4.82219 110.459C4.84176 110.786 4.86193 111.112 4.88268 111.438C4.91813 111.219 4.95377 111 4.98959 110.78C5.08855 112.802 5.35529 115.211 5.22355 115.65C5.28928 116.079 5.35613 116.506 5.42408 116.932C5.39216 117.216 5.36057 117.499 5.32933 117.781C5.5221 119.75 5.56718 119.791 5.7644 121.141C5.71494 121.092 5.66551 121.044 5.61612 120.995C5.77951 121.995 6.0331 123.784 6.21795 125.238C6.30362 125.924 6.39125 127.099 6.41801 127.258C6.44269 127.416 6.89918 128.985 6.71588 129.189C7.13869 131.538 7.20701 132.557 7.36113 133.524C7.46179 134.144 7.5582 134.418 7.67924 135.112C7.85194 136.099 8.00455 137.107 8.11276 137.685C8.17452 138.015 8.23552 138.067 8.27864 138.293C8.48443 139.36 8.31622 138.746 8.53257 139.863C8.55259 139.964 8.77069 140.773 8.95221 141.707C9.05205 142.229 9.26307 143.572 9.28894 143.687C9.40345 144.208 9.44142 143.748 9.6836 145.58C9.69806 145.523 9.71254 145.465 9.72702 145.407C10.2944 147.602 10.2661 147.944 10.3652 148.398C10.3783 148.455 10.5555 148.984 10.6294 149.305C10.7539 149.848 10.7476 150.078 10.7751 150.198C10.8723 150.623 11.2617 152.001 11.461 152.952C11.5804 152.726 12.5464 155.874 12.5784 156.655C12.7905 157.208 13.0048 157.754 13.2213 158.294C13.2679 158.552 13.3172 158.816 13.3685 159.084C13.4523 159.229 13.5362 159.373 13.6203 159.517C13.8203 160.36 14.0235 161.185 14.235 162.006C14.3258 162.033 14.4167 162.059 14.5075 162.086C14.5812 162.317 14.6553 162.548 14.7298 162.776C14.737 162.973 14.7445 163.17 14.7523 163.366C14.8674 163.643 14.9831 163.917 15.0994 164.189C15.1669 164.242 15.2345 164.294 15.302 164.347C15.9277 165.795 15.2259 165.253 16.7402 167.879C16.8988 168.336 17.0592 168.786 17.2212 169.23C17.5985 169.65 17.9108 170.57 18.2917 171.303C18.555 171.807 18.6024 171.751 18.9488 172.427C19.2953 173.096 19.2294 173.105 19.2565 173.159C19.551 173.725 19.8291 174.11 20.0405 174.511C20.0725 174.571 20.087 174.762 20.3674 175.257C20.6555 175.761 20.9136 176.037 21.3507 176.767C21.5765 177.142 21.5842 177.276 21.7915 177.605C22.8017 179.209 24.1667 180.432 24.7464 181.712C24.9785 181.93 26.6118 183.407 27.2761 183.966C28.3479 184.901 27.8805 184.598 28.3027 184.95C28.3597 184.988 28.7155 185.262 29.6619 185.854C29.8305 185.956 29.8146 185.893 29.8391 185.907C30.9547 186.632 33.1995 187.461 34.4926 187.479C34.5563 187.482 34.7697 187.46 35.1173 187.451C35.4017 187.444 35.7711 187.445 36.2401 187.461C37.7168 187.234 40.6533 186.206 42.3059 184.48C42.5486 184.274 42.883 184.04 42.9869 183.943C43.8559 183.081 43.4945 183.37 45.5391 181.322C45.3319 181.454 45.7197 180.901 46.3065 180.136C47.19 178.957 46.6966 179.867 47.3593 178.911C47.3274 178.889 47.2956 178.867 47.2638 178.844C48.8884 176.616 49.0233 176.038 50.3386 173.601C50.8282 172.679 51.5335 171.42 51.6436 171.184C51.6852 171.101 52.0744 170.034 52.1103 169.947C52.3503 169.409 52.5264 169.118 52.7331 168.641C53.4278 167.046 54.0295 165.115 54.1125 165.535C54.2408 165.07 54.3654 164.604 54.4809 164.153C55.3257 162.574 55.4408 161.155 55.7805 160.892C55.8347 160.574 55.888 160.254 55.9405 159.932C58.3396 152.593 60.0729 145.008 61.3874 137.327C61.3696 136.991 61.9182 133.67 61.9512 133.487C62.1234 132.701 62.1791 133.563 62.3697 131.937C62.318 131.748 62.266 131.559 62.2137 131.37C62.4623 129.34 62.4066 130.324 62.5643 129.527C62.5981 129.189 62.5245 129.29 62.5778 128.832C62.8765 126.367 63.3982 121.295 63.6 118.57C63.6427 118.026 63.6932 118.113 63.7067 117.944C63.7429 117.478 63.7405 116.551 63.8051 115.607C64.22 109.894 64.5062 101.799 64.5124 95.9558C64.5128 95.8669 64.5132 95.7785 64.5135 95.6907C64.515 95.2927 64.5858 95.243 64.5869 94.9743C64.5884 94.6017 64.5204 93.7705 64.5201 93.3788C64.5198 93.0102 64.5702 92.7731 64.5692 92.3783C64.5664 90.5711 64.4013 88.1468 64.4806 86.2107C64.4893 86.0483 64.6876 84.0123 64.7029 83.9654C64.8022 83.6911 65.0749 85.4853 65.0878 82.5178C65.3672 85.1561 65.5958 84.321 65.5244 80.8711C65.6604 82.5953 65.7789 84.3215 65.8804 86.0493C65.9108 86.0506 65.9412 86.052 65.9717 86.0534C66.0582 84.4735 66.0391 82.9077 65.9094 80.5139C65.9423 80.5869 65.9751 80.66 66.0078 80.733C66.2773 82.8394 66.4178 85.393 66.6639 87.0009C66.7224 84.6283 66.7509 82.2534 66.7483 79.8764C66.7779 79.9934 66.8074 80.1104 66.8368 80.2273C66.9662 81.3594 67.1251 83.8407 67.2158 84.7832C67.5694 88.3844 67.2324 81.6179 67.4005 82.7237C67.5852 86.5357 67.6872 90.3516 67.71 94.1679C67.8922 94.3028 67.6561 79.6107 67.8529 79.7436C67.9437 80.9427 68.026 82.1422 68.1001 83.3428C68.1461 82.8039 68.1907 82.2651 68.2338 81.7256C68.2639 81.8719 68.2939 82.0184 68.3237 82.165C68.4803 84.1904 68.613 86.2189 68.7224 88.2483C68.4892 82.0741 68.3043 79.2121 68.7769 77.6936C68.8022 77.86 68.8274 78.0266 68.8524 78.1934C68.6037 79.5548 69.0389 85.8629 69.1617 89.2249C69.2519 88.5372 69.0829 85.579 69.1156 84.9517C69.1265 84.7737 69.2206 85.389 69.2412 84.9769C69.3058 83.8995 69.1899 79.3164 69.3374 79.9744C69.4609 80.3963 69.8697 87.7672 69.8643 89.2077C69.9245 85.8305 69.8239 82.352 69.7852 78.9579C70.1353 81.0795 70.5194 82.962 70.6492 86.8725C70.8234 88.0618 70.6676 79.7726 70.6909 79.5754C70.8403 81.0048 70.9774 82.4358 71.1027 83.8681C71.0369 82.6548 70.9628 81.442 70.8803 80.2297C70.9034 80.2248 70.9265 80.2199 70.9496 80.215C71.2213 83.3523 71.524 86.226 71.572 89.831C71.6933 89.7123 71.6398 87.5547 71.6085 86.5081ZM45.3478 8.187C45.3665 8.26705 44.4997 7.3764 43.9885 6.93311C44.0589 7.00693 44.1291 7.08155 44.1992 7.15696C43.1492 6.10606 40.9085 4.63786 40.7669 4.71081C39.8761 4.24287 40.3041 4.38897 40.0214 4.23527C39.9059 4.16828 38.7064 3.66684 37.7297 3.37971C37.4938 3.32041 37.2587 3.26958 37.0217 3.22668C36.97 3.24811 36.9187 3.26996 36.8678 3.2922C36.545 3.20067 36.2188 3.1246 35.8874 3.06446C39.4048 3.28311 42.6992 5.4441 45.3439 8.18291C45.3452 8.18427 45.3465 8.18564 45.3478 8.187ZM17.5409 19.7571C16.8771 21.0705 15.9936 23.0477 16.2512 22.6864C16.6126 21.8391 16.9658 21.0441 17.3625 20.1961C17.4217 20.049 17.4812 19.9027 17.5409 19.7571ZM14.0614 161.889C14.3504 163.09 14.8243 164.066 15.4943 165.813C15.5194 165.801 15.5445 165.788 15.5695 165.776C15.2091 165.065 14.5529 163.231 14.0614 161.889ZM60.6968 40.2228C60.7599 40.4855 60.8227 40.7491 60.885 41.0138C60.5337 39.9645 60.5377 39.762 60.2075 38.5777C60.1871 38.5052 60.1767 38.5351 60.1696 38.5098C60.0875 38.2154 60.0329 37.9385 59.9585 37.6748C59.8138 37.164 59.6796 36.7688 59.4144 35.866C59.2086 35.1696 59.2393 35.1553 59.1652 34.9126C59.106 34.7099 58.3789 32.685 57.9773 31.3735C57.2829 28.8463 60.6079 39.4119 60.6968 40.2228ZM62.4285 47.8142C62.3739 47.5593 62.3188 47.3051 62.2633 47.0518C62.4771 47.7998 62.1434 46.2784 61.8791 45.137C61.9397 45.1667 62.4508 47.547 62.6858 48.6316C62.6006 48.358 62.5148 48.0856 62.4285 47.8142ZM51.9595 16.9057C52.4432 17.7817 52.3009 17.6735 52.2633 17.6441C52.112 17.3603 51.9599 17.0802 51.807 16.8038C51.8578 16.8376 51.9086 16.8715 51.9595 16.9057ZM55.2688 23.7307C55.1078 23.4533 54.2111 21.4575 53.7519 20.5209C53.7324 20.4808 53.878 20.7233 53.561 20.0691C53.4715 19.8654 52.4084 17.9775 52.7181 18.3558C53.638 20.1106 54.4771 21.8934 55.2676 23.728C55.268 23.7289 55.2684 23.7298 55.2688 23.7307ZM56.0845 25.7924C55.9223 25.4218 55.7487 25.0297 55.5785 24.6541C55.5169 24.448 55.4548 24.2428 55.3925 24.0387C55.5784 24.468 55.7628 24.903 55.9455 25.3435C55.994 25.4975 56.0384 25.6425 56.0845 25.7924ZM63.2361 133.096C63.1722 133.185 63.1083 133.273 63.0444 133.362C62.961 133.731 62.8989 135.555 63.0285 134.995C63.1002 134.365 63.1693 133.733 63.2361 133.096ZM64.3244 125.509C64.3921 125.136 64.4592 124.761 64.5255 124.385C64.4864 123.938 64.4448 123.5 64.402 123.062C64.1558 124.929 63.8521 126.924 64.1428 126.63C64.0927 127.058 64.0415 127.484 63.9893 127.909C63.9281 127.541 63.8916 127.572 63.684 128.695C63.7974 128.96 63.576 130.119 63.4244 131.439C63.5659 130.483 63.7021 129.518 63.8329 128.546C63.8584 128.549 63.8839 128.552 63.9095 128.556C63.6217 130.723 64.1369 128.041 64.1939 126.642C64.241 126.536 64.288 126.43 64.3349 126.323C64.3319 126.052 64.3284 125.781 64.3244 125.509ZM4.7713 119.753C4.77812 120.026 4.78532 120.298 4.79289 120.569C5.14347 121.594 4.69383 119.474 4.75915 117.965C4.65406 118.476 4.46388 116.176 4.44597 116.042C4.41783 116.311 4.39001 116.581 4.36249 116.85C4.49319 117.825 4.62858 118.782 4.7713 119.753ZM5.44386 127.375C5.44346 126.425 6.05116 131.004 6.26468 132.503C6.3143 132.879 6.34828 133.554 6.3994 133.82C6.45054 133.979 6.50185 134.137 6.55334 134.295C6.49194 134.505 7.08251 137.442 7.35137 138.607C7.33903 138.722 7.32674 138.838 7.31451 138.953C7.40531 139.375 7.49722 139.794 7.59022 140.212C7.54784 140.165 7.50548 140.118 7.46314 140.071C7.56259 140.383 7.66151 140.688 7.76434 141.008C8.05759 142.268 7.72624 141.522 7.97199 142.458C8.24723 143.495 8.00182 141.755 8.07772 141.772C7.8836 140.906 7.48162 139.003 7.32447 138.127C7.23604 137.629 7.44923 138.167 6.94082 136.043C6.89424 135.57 6.84889 135.094 6.8048 134.617C6.61304 133.763 6.42323 132.882 6.2436 132.031C6.26436 131.863 6.28523 131.696 6.30622 131.529C6.2976 131.439 5.91095 129.441 5.89412 129.551C5.86488 128.711 5.65838 127.054 5.45273 125.279C5.40841 125.111 5.36428 124.943 5.32034 124.774C5.57515 126.486 5.35938 125.324 5.37429 125.84C5.38293 126.139 5.44198 127.043 5.44386 127.375ZM61.2734 144.885C61.7114 142.043 61.4782 143.829 62.0687 140.748C61.9538 140.95 61.8388 141.152 61.7237 141.352C61.576 142.898 60.9756 145.313 61.2727 144.888C61.273 144.887 61.2732 144.886 61.2734 144.885ZM65.0548 114.647C64.9888 116.302 65.1731 115.488 65.0528 117.578C65.0528 117.579 65.0527 117.58 65.0526 117.581C65.146 116.507 65.234 115.411 65.3134 114.338C65.2272 114.441 65.141 114.544 65.0548 114.647ZM27.1091 185.208C25.999 184.216 26.2124 184.474 25.3113 183.431C23.8573 182.064 25.0211 183.286 24.9388 183.361C25.2773 183.669 25.6415 183.987 25.9923 184.273C26.7225 185.093 25.9249 184.431 25.9171 184.435C25.9177 184.435 25.9184 184.436 25.9191 184.437C25.8958 184.461 25.8643 184.445 26.1607 184.745C26.4636 184.898 26.7928 185.065 27.1091 185.208ZM22.6401 180.635C23.0203 181.005 23.2355 181.149 22.44 180.002C22.4394 180.001 22.4389 180 22.4383 179.999C22.2375 180.013 21.5941 178.878 21.2471 178.363C21.1436 178.239 21.0374 178.109 20.9371 177.987C21.4926 178.918 22.026 179.756 22.6401 180.635ZM12.335 159.588C12.4995 159.529 12.8894 160.669 12.5163 159.006C12.4133 158.697 12.3142 158.396 12.2141 158.089C12.1141 157.898 12.0144 157.706 11.9149 157.513C11.0384 153.447 10.1329 152.431 12.378 159.05C12.3785 159.051 12.3789 159.052 12.3793 159.053C12.3643 159.232 12.3496 159.41 12.335 159.588ZM14.8262 166.426C14.9323 166.44 15.0384 166.455 15.1445 166.469C15.2777 167.394 15.9182 168.392 16.5092 170.076C16.6014 170.209 16.6938 170.342 16.7863 170.473C16.9437 171.153 19.9943 176.864 19.4644 175.544C19.2215 175 18.5074 173.86 18.4552 173.751C18.2706 173.385 18.1236 172.927 17.8243 172.339C17.6545 172.007 17.2042 171.305 16.88 170.607C16.1437 169.055 15.1252 165.993 14.1171 163.938C14.0856 163.774 14.0542 163.609 14.023 163.443C13.4191 161.829 13.5288 162.397 13.1124 160.87C12.3022 159.986 15.3106 166.852 14.4502 165.517C14.4506 165.518 14.4509 165.519 14.4513 165.52C14.5755 165.825 14.7005 166.127 14.8262 166.426ZM45.7463 182.722C45.886 182.718 47.0019 181.148 46.8766 181.629C47.2039 181.103 47.5259 180.557 47.8426 179.99C47.8238 179.983 47.8051 179.975 47.7863 179.968C47.4255 180.496 47.0613 181.002 46.6942 181.486C46.6686 181.468 46.643 181.45 46.6174 181.433C46.1709 182.288 43.4777 184.945 43.4685 184.726C43.3471 184.895 43.2246 185.062 43.1009 185.225C41.6817 186.241 40.4635 187.205 38.7332 187.75C38.6155 187.835 38.4965 187.918 38.3763 187.998C38.2806 187.998 38.1856 187.998 38.0914 187.995C37.4663 188.187 36.8335 188.319 36.1968 188.389C35.1618 188.536 35.6495 188.589 36.4832 188.536C37.311 188.489 38.4617 188.161 38.6949 188.055C38.7583 188.028 38.7219 187.964 39.1159 187.791C39.8496 187.652 43.5777 185.23 44.4655 184.079C44.5111 184.109 44.5568 184.138 44.6025 184.167C45.0064 183.693 45.384 183.213 45.7463 182.722ZM9.9498 150.667C9.96878 150.55 9.98782 150.433 10.0069 150.316C9.49692 148.491 9.27588 147.329 9.23291 147.833C9.23314 147.834 9.23336 147.835 9.23359 147.836C9.45941 148.763 9.70516 149.737 9.9498 150.667ZM20.4892 13.3568C20.3992 13.3783 19.9163 14.0743 19.3646 15.1078C19.4093 15.069 19.4541 15.0304 19.4988 14.9919C19.7678 14.4386 20.1968 13.8666 21.2318 12.3118C21.205 12.2933 21.1783 12.2749 21.1515 12.2564C20.9288 12.615 20.7081 12.9818 20.4892 13.3568ZM10.3374 152.236C10.4317 152.817 11.0271 154.327 10.7523 153.3C10.5428 152.514 10.2864 151.925 10.3374 152.236ZM65.5241 108.177C65.4934 108.602 65.4617 109.027 65.4291 109.45C65.4716 109.674 65.5138 109.898 65.5557 110.121C65.5557 110.12 65.5558 110.119 65.5558 110.118C65.5477 109.473 65.5371 108.826 65.5241 108.177ZM31.2301 187.713C30.0624 187.258 28.9429 186.612 27.8684 185.819C27.8409 185.834 27.8133 185.849 27.7857 185.864C28.9278 186.577 29.3055 186.886 29.5748 187.055C29.5736 187.054 29.5724 187.053 29.5712 187.053C30.4175 187.554 31.2469 187.929 32.0883 188.219C31.7974 188.064 31.5116 187.895 31.2301 187.713ZM35.3426 188.652C35.2828 188.596 35.2192 188.554 35.1173 188.525C34.8551 188.437 34.3463 188.513 32.9901 188.35C33.0584 188.39 33.1272 188.43 33.1966 188.469C34.1707 188.634 34.7493 188.572 34.5704 188.679C34.7528 188.679 34.935 188.675 35.1173 188.666C35.1925 188.662 35.2676 188.658 35.3426 188.652ZM19.7034 176.149C19.7812 176.427 20.9186 178.135 20.8877 178.012C20.8703 177.993 19.5446 175.657 19.7034 176.149ZM31.6816 3.11996C31.2556 3.25145 30.8213 3.41278 30.404 3.59272C30.9525 3.32887 31.5192 3.10314 32.0861 2.92526C31.9481 2.98819 31.8155 3.05245 31.6816 3.11996ZM36.5502 2.46712C36.8634 2.54233 35.8308 2.433 37.7035 2.83177C36.855 2.62957 35.9865 2.52696 35.1173 2.53218C34.5962 2.53512 34.0788 2.57609 33.5643 2.65426C34.0769 2.56311 34.5943 2.50895 35.1173 2.49304C35.2495 2.48901 35.3816 2.48744 35.5136 2.4883C35.4007 2.45363 35.2867 2.42071 35.1715 2.38958C35.6328 2.38612 36.0925 2.41215 36.5502 2.46712ZM38.0167 2.83792C37.6585 2.70858 38.4535 2.85731 39.358 3.20516C40.2592 3.53841 41.2357 4.09665 41.3974 4.20203C41.4688 4.24546 41.7796 4.50637 41.8978 4.59939C41.3816 4.26756 40.8372 3.95887 40.2948 3.69575C40.4679 3.80117 40.6402 3.91088 40.8116 4.02486C40.1833 3.6939 39.5275 3.40647 38.8591 3.17954C39.1527 3.26192 39.439 3.35337 39.7258 3.45615C39.1744 3.21082 38.5963 2.99978 38.0167 2.83792ZM23.8325 8.70234C24.186 8.30454 24.5266 7.93962 24.9121 7.55083C24.8146 7.60438 24.7169 7.65901 24.6191 7.71471C24.3905 7.95257 24.1907 8.16797 23.9777 8.4044C23.929 8.50319 23.8806 8.6025 23.8325 8.70234ZM32.3767 2.79721C31.7105 3.10631 29.7182 3.51579 31.9761 2.85075C32.2082 2.79415 32.441 2.76589 32.3767 2.79721ZM42.6757 5.0573C44.0464 5.96489 43.6118 5.89409 42.4193 4.94798C42.3592 4.90183 42.5727 4.99235 42.6757 5.0573ZM50.7617 14.3616C50.8303 14.4797 50.9056 14.7154 51.6088 15.7989C51.7086 15.9893 51.808 16.1814 51.9071 16.3752C51.6635 15.9137 49.3852 12.3225 49.7408 12.7858C50.1093 13.3372 50.4063 13.7796 50.7617 14.3616ZM48.6663 10.7797C48.2853 10.2714 47.8771 9.75403 47.4742 9.27202C47.5914 9.4489 47.7039 9.62304 47.8179 9.80178C47.6168 9.56053 47.4172 9.32742 47.2046 9.08575C46.8816 8.64366 46.5684 8.23173 46.2197 7.80244C47.1749 8.80988 48.0662 9.89504 48.8955 11.017C48.8191 10.9372 48.7427 10.8581 48.6663 10.7797ZM35.0456 2.04939C35.0694 2.04978 35.0933 2.05023 35.1173 2.05073C36.2917 2.07885 37.7551 2.21192 39.5369 2.92644C39.5377 2.92686 39.5386 2.92729 39.5395 2.92771C39.6291 2.9644 39.7756 3.05716 40.062 3.18715C40.1913 3.23942 41.4459 3.81708 42.533 4.57908C43.6162 5.3154 44.5334 6.15958 44.3605 6.03929C42.756 4.73002 42.1039 4.30752 41.6321 4.14705C41.5608 4.07399 41.4908 4.00271 41.4168 3.93006C39.7164 2.93222 39.1189 2.87436 38.0788 2.59872C38.0881 2.58096 38.0974 2.5632 38.1066 2.54545C37.4039 2.35344 36.6879 2.22693 35.9664 2.17143C36.0672 2.19192 36.1676 2.21377 36.2673 2.23695C36.0135 2.2111 35.7588 2.19398 35.5036 2.18571C35.3769 2.16961 35.2427 2.15755 35.1173 2.1489C34.6296 2.11972 34.2782 2.11761 35.0456 2.04939ZM50.3057 13.1994C50.799 13.5785 53.6141 18.6929 54.6839 21.1479C54.0297 19.9018 53.1234 17.943 52.3839 16.6042C50.9379 14.0327 51.8943 15.8349 51.6291 15.4103C51.5053 15.2074 50.7144 13.7176 50.3057 13.1994ZM30.801 2.93094C32.1194 2.43907 32.8999 2.23125 34.1082 2.15613C34.0082 2.17651 33.9086 2.19825 33.8094 2.22134C33.6007 2.23649 32.6686 2.3652 31.8802 2.59662C31.1083 2.81264 30.4721 3.08151 30.801 2.93094ZM56.1977 24.7526C55.1587 22.1166 55.5768 23.444 55.0737 22.0554C55.474 22.9436 55.8579 23.8363 56.23 24.7396C56.2192 24.744 56.2085 24.7483 56.1977 24.7526ZM10.3571 155.601C10.6848 156.762 11.0384 158.066 11.3358 158.711C11.1073 157.939 10.8831 157.155 10.6633 156.361C10.5603 156.108 10.4558 155.846 10.3571 155.601ZM3.33428 122.033C3.34145 122.31 3.51096 123.383 3.52355 123.495C3.54596 123.706 3.51137 123.652 3.50423 123.655C3.65945 125.04 3.60812 123.75 3.74139 124.78C3.76206 124.959 3.99952 127.378 4.13002 128.343C4.3284 129.862 4.5341 131.362 4.61622 131.919C4.75076 132.844 5.08873 134.633 5.34639 136.165C5.45252 136.799 5.43582 137.031 5.54864 137.681C6.22155 141.805 8.05333 149.867 9.02851 153.442C9.25926 154.337 9.4219 155.194 9.55933 155.653C9.68808 156.005 9.8236 156.374 9.95892 156.737C10.0577 157.945 10.3835 158.259 10.7816 159.443C11.0435 160.219 11.0927 160.6 11.1265 160.703C11.3536 161.387 11.5001 161.709 11.6865 162.234C11.8901 162.809 12.1753 163.709 12.2569 163.914C12.3106 164.037 12.2414 163.615 13.0985 165.878C14.009 168.245 14.9521 170.482 16.0698 172.786C15.9707 171.884 15.4707 171.315 15.0404 170.383C14.9245 170.13 15.0403 170.272 14.94 170.051C14.6535 169.425 14.0976 168.233 13.8999 167.713C13.6818 167.143 13.8626 167.297 13.5366 166.588C13.5201 166.552 13.5234 166.685 13.4488 166.516C12.7106 164.825 12.5766 164.251 11.816 162.056C11.2293 160.627 8.61553 151.67 8.63174 151.343C8.31858 149.687 10.9163 159.182 11.3484 160.239C11.4702 160.625 11.2906 160.238 11.3965 160.591C11.4444 160.749 11.9612 162.014 12.4402 163.325C13.0011 164.904 14.1593 168.03 14.8116 169.486C18.9229 178.404 24.5845 189.43 35.1173 190.073C38.3619 190.096 41.4652 188.604 43.9794 186.521C44.1952 186.341 44.4761 186.035 45.137 185.415C57.3046 172.49 61.4352 153.438 64.54 136.018C65.1642 132.147 65.6129 128.313 66.0967 124.383C66.0992 123.881 66.0975 123.402 66.0956 122.91C66.0143 124.138 65.6313 126.438 65.604 126.635C65.5945 126.709 65.5973 127.187 65.5003 127.94C65.3632 129.002 65.2479 129.476 65.237 129.561C65.2007 129.833 65.2777 129.662 65.2428 129.922C64.981 131.853 64.7772 133.344 64.4981 135.115C64.1832 137.09 63.9048 138.11 63.7521 139.568C63.6811 139.723 63.6099 139.878 63.5387 140.033C63.5446 141.152 62.216 147.564 61.5412 150.132C61.3384 150.945 61.3026 150.783 61.2348 151.055C61.1872 151.233 61.3152 151.165 60.7338 153.294C60.4378 154.362 60.2935 154.617 60.1483 155.145C60.0691 155.431 60.1478 155.403 60.0311 155.812C59.3358 158.23 58.7049 160.164 57.9058 162.442C57.6768 163.09 57.6183 163.083 57.5679 163.228C57.3776 163.77 57.1411 164.715 56.6242 166.051C55.8006 168.268 53.8644 172.58 52.9167 174.227C52.7777 174.48 52.6091 174.658 52.5114 174.843C52.3636 175.123 52.3645 175.264 52.3384 175.312C51.8354 176.23 52.0838 175.649 51.7577 176.261C51.583 176.583 51.4413 176.992 50.993 177.747C50.3943 178.742 50.4445 178.477 50.1833 178.903C50.1559 178.947 50.2013 178.998 49.9361 179.402C48.9672 180.904 47.3476 183.025 46.1816 184.233C45.8483 184.585 45.5505 184.832 45.0638 185.295C44.5962 185.745 42.8641 187.335 40.9532 188.343C39.0552 189.408 36.9894 189.76 36.6898 189.775C36.6254 189.779 37.2758 189.608 36.2182 189.741C35.9141 189.81 35.6059 189.866 35.2933 189.909C35.2345 189.903 35.1759 189.897 35.1173 189.89C34.6524 189.837 34.1966 189.756 33.7493 189.647C33.7378 189.951 30.7188 189.202 30.8525 188.933C30.5397 188.802 30.2349 188.66 29.9403 188.51C29.2523 188.331 28.84 188.08 27.6564 187.383C27.5039 187.224 27.347 187.057 27.2039 186.896C27.144 186.889 27.0841 186.881 27.0239 186.872C26.548 186.327 25.5079 185.623 25.4162 185.533C25.0033 185.159 24.7261 184.825 24.535 184.634C23.8204 183.944 22.3684 182.338 21.6968 181.377C21.6644 181.332 21.7508 181.336 21.5557 181.06C21.1993 180.549 21.1015 180.585 20.7388 179.861C20.6236 179.745 20.5084 179.627 20.3933 179.508C20.309 179.356 20.2252 179.202 20.1416 179.048C19.5736 178.196 19.0531 177.361 18.5229 176.457C19.0945 177.212 18.5971 176.253 18.0443 175.43C17.8545 175.147 17.9395 175.444 17.8759 175.35C17.7534 175.235 15.7281 171.111 15.6801 170.817C15.5716 170.632 15.4634 170.445 15.3554 170.256C15.3495 170.139 15.3438 170.022 15.3381 169.905C15.2759 169.801 15.2138 169.697 15.1518 169.593C14.718 168.458 13.4165 165.659 13.2428 165.13C13.1454 164.848 13.4039 165.045 12.8914 163.701C12.8282 163.67 12.7649 163.64 12.7017 163.609C12.5823 163.3 12.4636 162.988 12.3458 162.673C12.146 162.095 11.9404 161.223 11.9859 161.176C11.8916 161.005 11.7974 160.833 11.7035 160.659C11.6354 160.118 10.7709 157.522 10.3911 156.452C10.3304 156.126 10.2705 155.799 10.2151 155.483C10.0567 155.079 9.89951 154.672 9.74355 154.261C9.46247 153.285 9.81214 154.302 9.76026 154.092C9.64501 153.65 8.93886 151.411 9.11986 151.532C9.04174 151.227 8.96425 150.92 8.88738 150.612C8.80842 150.463 8.72963 150.314 8.65102 150.165C8.65635 149.601 8.37518 148.683 7.99954 146.798C7.93271 146.646 7.86604 146.494 7.79956 146.342C7.71357 145.748 7.62705 145.137 7.54798 144.548C7.47141 144.44 7.39495 144.332 7.3186 144.223C7.25817 143.972 7.19815 143.72 7.13853 143.467C7.14672 142.928 6.83598 142.018 6.79044 141.528C6.7245 140.813 6.90806 141.345 7.18208 142.63C7.23614 142.511 6.46649 138.7 6.31458 137.803C6.3087 137.865 6.30284 137.927 6.29699 137.988C6.47025 138.897 6.64856 139.798 6.83179 140.689C6.76436 141.479 6.35841 139.039 6.13597 137.9C6.11645 137.802 5.92841 137.204 5.74948 136.079C5.67813 135.642 5.51854 133.898 5.47544 133.563C5.12685 130.879 5.25138 132.877 5.02511 130.248C4.99203 130.811 4.86899 129.283 4.65169 127.728C4.61202 127.467 4.25265 125.219 4.23529 125.062C4.11301 124.106 4.32455 125.135 4.14694 123.756C4.10385 123.594 4.06094 123.432 4.01821 123.27C3.98417 122.951 3.95069 122.631 3.9178 122.311C3.94379 120.343 3.7409 119.888 3.65691 119.202C3.62362 118.924 3.71313 119.278 3.63729 118.556C3.6091 118.284 3.53426 117.986 3.47039 117.25C3.27475 114.933 3.42522 114.148 3.07922 112.036C3.08995 111.708 3.1012 111.379 3.11298 111.049C3.06351 110.83 3.01436 110.611 2.96553 110.391C2.98257 108.711 2.90693 109.321 2.87784 108.715C2.79747 107.11 2.70633 103.816 2.78827 103.53C2.54865 102.15 2.74079 100.471 2.72493 99.9336C2.69586 99.6103 2.66742 99.2865 2.63962 98.9622C2.65892 98.5803 2.67895 98.198 2.69971 97.8152C2.53016 97.9815 2.64885 96.4455 2.68298 95.9558C2.68727 95.8922 2.69 95.8464 2.69031 95.8245C2.68922 95.6016 2.64578 92.5505 2.66915 91.4271C2.68536 90.2943 2.78493 88.3174 2.79089 88.1466C2.79548 87.9461 2.79981 86.0301 2.8642 84.5153C2.88637 83.1969 3.44143 75.4275 3.34897 75.8989C3.2884 76.4091 3.21687 77.1381 3.16481 77.7581C2.9378 79.6961 2.4493 91.1552 2.48674 94.0757C2.48021 94.6982 2.47611 95.3252 2.47446 95.9558C2.4593 101.257 2.62482 106.715 2.92739 111.979C2.94739 112.326 2.89917 112.382 2.91667 112.679C2.94298 113.131 3.07135 114.269 3.10232 114.709C3.21483 116.377 3.37598 118.397 3.45456 119.275C3.6314 121.268 3.73976 122.63 3.89666 124.117C3.94521 124.594 4.28225 126.963 4.4658 128.573C4.48919 128.871 4.51306 129.169 4.53741 129.466C4.40357 128.616 4.08842 126.459 3.96756 125.43C3.78477 123.9 3.74852 123.117 3.68946 122.557C3.63871 122.098 3.3545 119.671 3.26409 118.596C3.23462 118.258 3.28349 118.184 3.25895 117.894C3.12432 116.319 2.97129 114.231 2.83299 112.871C2.8823 113.436 2.70632 109.917 2.70321 109.746C2.68713 109.433 2.61945 109.097 2.58947 108.456C2.53391 107.223 2.64363 107.376 2.48002 105.83C2.49626 105.443 2.51358 105.067 2.53142 104.685C2.38368 104.673 2.44945 99.8286 2.28289 98.4669C2.24758 98.4258 2.32152 104.713 2.35479 105.219C2.4369 108.339 2.72248 112.924 2.93198 115.931C2.98891 116.848 3.14366 119.679 3.16894 119.899C3.20329 120.248 3.22425 119.928 3.23984 120.079C3.56866 123.146 3.3248 121.621 3.33428 122.033ZM38.1366 2.38595C37.2734 2.14865 36.387 2.00881 35.495 1.97663C35.5606 1.95683 35.6264 1.93761 35.6926 1.91899C36.103 1.94774 36.5102 1.99871 36.9149 2.0714C37.2301 2.1082 37.5412 2.15746 37.8528 2.21958C37.9483 2.27387 38.0429 2.32933 38.1366 2.38595ZM40.2495 3.06174C40.9678 3.38984 40.9688 3.46002 41.1301 3.54604C41.6102 3.81676 42.0059 4.03815 42.4519 4.33711C41.8884 4.07329 40.8092 3.3982 40.2495 3.06174ZM25.3713 6.19751C25.4961 6.09271 26.4719 5.35229 27.5078 4.49192C28.3599 3.93811 29.2572 3.45605 30.1714 3.08228C28.5768 3.702 26.6962 5.18404 26.0691 5.74481C25.8236 5.954 25.7456 5.9736 25.5578 6.14108C24.471 7.10881 23.5673 8.26786 23.3785 8.29172C24.3071 7.28646 25.2119 6.33053 25.3713 6.19751ZM33.0896 2.08026C33.322 2.06367 33.5536 2.05411 33.7864 2.05142C32.9638 2.14988 32.1327 2.34557 31.3516 2.61367C31.5575 2.51605 31.7606 2.42548 31.9748 2.33819C32.345 2.23388 32.7165 2.14784 33.0896 2.08026ZM5.13668 59.2946C5.2152 58.7601 5.29609 58.2235 5.37831 57.6918C5.35145 57.7173 5.25841 58.3272 5.2098 58.5507C5.20995 58.5497 5.2101 58.5487 5.21025 58.5477C5.15571 58.7966 5.14283 58.6843 5.06249 59.1406C5.08712 59.1924 5.11179 59.2442 5.13668 59.2946ZM66.3163 122.281C66.4464 121.388 67.0972 113.09 66.8886 113.798C66.8027 114.139 66.6557 116.993 66.5819 117.823C66.495 118.935 66.0658 121.976 66.3163 122.281ZM67.3816 107.603C67.2631 107.454 66.979 112.637 66.9566 113.145C66.9825 113.039 67.0354 112.876 67.0539 112.733C67.1489 112.035 67.3035 108.719 67.3816 107.603ZM2.41891 89.2299C2.47391 88.8114 2.52972 88.3937 2.58633 87.9771C2.52497 88.0854 2.46363 88.1938 2.4023 88.3023C2.40729 88.6112 2.41282 88.9204 2.41891 89.2299ZM4.61204 129.797C5.54557 136.724 6.78392 143.569 8.46016 150.365C8.28554 149.777 8.11141 149.175 7.94349 148.584C6.57268 142.739 5.46982 136.414 4.63521 130.665C4.62707 130.376 4.61934 130.087 4.61204 129.797ZM23.8393 7.42038C22.6393 8.69952 21.7222 9.89798 20.5651 11.4481C21.5944 9.90906 22.2079 9.24926 23.3546 7.84385C23.3553 7.84312 23.3559 7.84239 23.3566 7.84165C23.5174 7.69805 23.6783 7.55762 23.8393 7.42038ZM7.8859 43.5159C7.97131 42.9901 8.06724 42.4321 8.16109 41.8957C8.00564 42.5332 7.85071 43.1861 7.70636 43.8103C7.76618 43.7119 7.82603 43.6138 7.8859 43.5159ZM25.2074 186.025C26.5606 187.321 30.6362 189.935 32.2307 189.979C32.3252 189.987 31.4782 189.741 32.9 189.944C31.8329 189.758 31.1147 189.5 31.0063 189.559C30.7123 189.421 30.4175 189.27 30.1337 189.112C29.6444 188.921 29.1558 188.697 28.6686 188.443C28.7655 188.394 28.7145 188.389 27.9941 188.007C27.6906 187.786 27.3897 187.553 27.0915 187.309C26.938 187.242 26.7955 187.181 26.6469 187.113C26.4224 186.876 26.2009 186.632 25.9821 186.381C24.9658 185.575 25.5005 186.167 25.2074 186.025ZM20.9032 181.11C20.8937 181.564 26.9152 187.743 24.2894 184.817C23.5715 184.095 22.8965 183.338 22.2523 182.55C22.5534 183.388 21.0339 181.051 20.9219 180.842C20.3233 179.971 19.4777 178.796 19.0824 178.143C18.729 177.563 18.5634 177.183 18.3162 176.76C17.4955 175.38 16.3183 173.052 16.0698 172.786C16.6203 173.919 17.2279 175.09 17.8719 176.228C18.5707 177.439 19.0748 178.576 20.7076 180.651C21.064 181.178 20.8614 181.043 20.9032 181.11ZM8.56469 40.3104C8.61688 40.4067 9.45339 37.1763 9.4343 37.158C9.4173 37.1454 9.13264 38.1853 9.08613 38.3347C9.08587 38.3357 9.08561 38.3367 9.08534 38.3376C9.06556 38.3993 9.12027 38.0741 8.97964 38.565C8.83577 39.1537 8.69764 39.7354 8.56469 40.3104ZM64.9689 135.146C65.1762 134.707 66.4927 124.594 66.4362 124.262C66.4348 124.178 66.3881 124.289 66.3719 124.255C66.2255 126.655 65.6678 130.002 65.332 132.228C65.2397 132.846 65.3205 132.669 65.3165 132.704C65.3163 132.706 65.316 132.707 65.3158 132.709C65.2643 133.07 64.8875 134.655 64.9689 135.146ZM35.4447 190.278C35.3356 190.276 35.2264 190.273 35.1173 190.268C34.7968 190.254 34.4786 190.227 34.1626 190.187C34.0516 190.215 33.9397 190.242 33.8269 190.267C33.8279 190.267 33.8289 190.267 33.8299 190.267C34.2586 190.3 34.6878 190.309 35.1173 190.294C35.2266 190.29 35.3358 190.285 35.4447 190.278ZM47.9704 182.94C47.886 183 47.7918 183.07 47.7027 183.135C46.9822 183.988 46.261 184.764 45.4593 185.525C45.5277 185.439 45.5959 185.351 45.6638 185.264C44.4789 186.354 43.954 186.87 43.2715 187.366C43.2723 187.366 43.2732 187.365 43.274 187.364C43.195 187.42 43.0682 187.446 42.7772 187.646C42.1381 188.14 40.1026 189.182 39.8527 189.301C39.4063 189.755 43.4846 187.487 44.0536 186.812C44.3582 186.57 44.7573 186.289 44.9363 186.129C45.127 185.959 45.3402 185.679 45.797 185.232C45.9535 185.1 47.4055 183.677 47.9704 182.94ZM57.1138 166.023C56.9312 166.322 56.7277 167.005 56.6212 167.241C56.5959 167.297 56.7258 166.831 56.4938 167.366C56.4658 167.532 56.4375 167.698 56.409 167.863C56.6471 167.26 56.8821 166.647 57.1138 166.023ZM10.0009 34.9329C9.96142 35.0264 9.47272 36.7359 9.45888 36.8155C9.23733 37.8571 10.2407 34.3216 10.0009 34.9329ZM35.6916 1.46573C35.2699 1.41457 37.5652 1.38963 39.8356 2.37203C42.1223 3.28462 44.1917 5.05034 44.5326 5.34464C44.4791 5.33679 42.6744 3.89442 43.5941 4.68599C42.7518 3.88647 39.9192 2.38005 39.1845 2.20342C38.7572 2.04684 38.6613 1.9727 38.5962 1.95023C38.3464 1.80775 35.9838 1.44954 35.6916 1.46573ZM49.81 11.363C49.2842 10.5939 48.7417 9.85214 48.1711 9.13116C48.8594 9.97098 49.5116 10.8449 50.1328 11.7432C50.0262 11.6163 49.9215 11.4937 49.81 11.363ZM50.4807 12.3044C50.5308 12.248 52.1511 14.9182 52.544 15.6473C52.0122 14.8754 51.3039 13.5074 50.4807 12.3044ZM13.7394 23.7412C13.1572 25.055 13.1049 25.7092 13.6839 24.0495C13.7013 23.9992 13.7641 23.6868 13.7394 23.7412ZM25.275 186.625C25.4333 186.842 27.89 188.766 28.0984 188.764C28.6579 188.94 26.8885 187.913 26.4045 187.429C25.6177 186.672 26.8693 187.674 24.8331 185.952C24.9317 186.003 25.0303 186.054 25.1287 186.103C24.0145 185.053 24.2407 185.523 24.0206 185.349C23.9477 185.293 23.2814 184.572 23.1615 184.454C21.5487 182.941 25.0326 186.557 25.275 186.625ZM4.73689 58.2554C4.25107 61.0998 4.51957 59.8651 4.11737 62.8029C4.14521 62.89 4.70707 58.6529 4.73689 58.2554ZM11.4557 162.458C12.4603 165.283 13.2616 167.576 14.4801 170.089C14.4586 169.869 11.1814 161.752 11.4557 162.458ZM68.5522 101.076C67.9649 112.645 67.0168 125.967 64.8788 138.126C64.6458 139.454 64.542 139.561 64.4636 140.039C64.4116 140.351 64.4847 140.308 64.4077 140.72C61.4539 155.641 57.6876 170.269 48.9269 182.222C48.4422 182.979 45.2632 186.242 44.5713 186.926C44.1209 187.526 46.4884 185.278 46.8315 184.834C47.1053 184.543 47.1666 184.575 47.3484 184.375C47.5408 184.161 47.3477 184.308 47.5695 184.057C48.5265 182.968 49.4701 181.758 50.1906 180.716C57.1899 170.243 60.6804 158.352 63.443 146.305C63.7668 144.828 63.7557 145.14 63.7727 145.066C63.7727 145.065 63.7728 145.064 63.7729 145.063C65.4658 137.208 66.6578 128.072 67.4667 119.571C68.0487 113.596 68.4162 107.603 68.5885 101.602C68.5766 101.426 68.5645 101.251 68.5522 101.076ZM21.1084 181.791C21.4303 182.505 21.6063 182.552 23.3597 184.616C23.5302 184.751 23.7026 184.885 23.8848 185.024C22.8962 184.019 21.964 182.919 21.1057 181.787C21.1066 181.789 21.1075 181.79 21.1084 181.791ZM35.8196 190.662C36.0484 190.785 37.7528 190.711 39.5704 190.005C41.3995 189.337 43.2605 188.041 44.3166 187.205C44.6618 186.828 41.4705 189.215 40.5336 189.488C40.1147 189.706 37.7072 190.514 35.792 190.636C35.8012 190.644 35.8104 190.653 35.8196 190.662ZM26.1959 4.64088C25.8549 4.91504 25.5165 5.20422 25.1808 5.50812C26.0411 4.7708 26.9061 4.12809 27.8554 3.54637C26.337 4.49874 25.026 5.61287 23.7767 6.87981C23.9854 6.6161 24.1962 6.35877 24.4093 6.1079C24.9701 5.60174 25.5808 5.09551 26.1959 4.64088ZM22.1539 8.6664C24.1861 6.30878 22.0844 8.81955 21.624 9.38069C21.3242 9.72109 21.9526 8.90424 22.1539 8.6664ZM17.6181 15.2207C18.2644 13.9144 19.8431 11.5097 19.3823 12.4369C18.5057 13.6883 18 14.594 16.9136 16.522C17.0488 16.221 17.1852 15.9234 17.3228 15.6291C17.3235 15.6278 17.3242 15.6265 17.325 15.6252C17.4225 15.4893 17.5202 15.3544 17.6181 15.2207ZM23.0285 7.54847C24.3968 6.08292 20.5919 10.4829 21.7362 9.06258C21.7654 9.00372 22.9715 7.58802 23.0285 7.54847ZM68.2354 113.888C68.1772 113.645 68.0733 115.166 68.0277 115.688C67.8406 117.913 67.6199 120.749 67.3662 123.045C67.4085 122.875 67.4506 122.705 67.4926 122.535C67.7915 119.649 68.0372 116.774 68.2354 113.888ZM66.4991 130.227C66.2839 131.802 66.0534 133.365 65.8026 134.943C65.7796 135.09 65.7305 135.783 65.8275 135.277C66.0722 133.592 66.2952 131.911 66.4991 130.227ZM15.6209 173.374C16.1294 174.5 14.4203 171.362 14.6807 171.443C14.9725 172.064 15.3034 172.746 15.6209 173.374ZM11.2172 162.884C11.4873 163.61 11.7654 164.334 12.0457 165.04C12.0264 165.049 12.007 165.057 11.9877 165.065C11.7266 164.35 11.4678 163.618 11.2172 162.884ZM68.6383 107.657C68.512 108.467 68.4313 110.372 68.3557 111.589C68.4852 110.754 68.5503 108.795 68.6383 107.657ZM26.58 188.019C26.5574 187.972 27.5515 188.691 28.4366 189.188C29.3357 189.703 30.0685 190.034 29.2674 189.716C28.3105 189.228 27.4387 188.668 26.58 188.019ZM36.1556 191.108C35.7677 191.145 35.4084 191.155 35.1173 191.15C34.588 191.139 34.2903 191.084 34.4379 191.041C34.6637 191.056 34.8902 191.063 35.1173 191.065C35.4701 191.068 35.822 191.055 36.1727 191.028C36.167 191.055 36.1614 191.081 36.1556 191.108ZM15.0302 20.0171C14.3034 21.5764 13.6018 23.2209 12.9623 24.8407C12.9728 24.7745 12.9835 24.7084 12.9941 24.6423C13.6117 23.0876 14.2933 21.4952 14.9938 19.9933C15.0059 20.0013 15.018 20.0092 15.0302 20.0171ZM68.9215 106.674C68.9538 105.456 68.9765 104.273 68.9921 103.066C68.9407 104.273 68.8824 105.456 68.8148 106.673C68.8505 106.674 68.8862 106.676 68.9219 106.677C68.9218 106.676 68.9216 106.675 68.9215 106.674ZM30.36 1.84374C25.3481 4.2288 31.6163 0.813768 33.242 1.02383C33.2436 1.02352 33.2451 1.02321 33.2466 1.0229C33.3746 1.01191 33.1127 1.09018 33.3255 1.07434C32.7659 1.13783 32.2079 1.23946 31.6524 1.37846C31.1647 1.53939 30.689 1.72725 30.2167 1.94334C30.0562 1.99931 29.8908 2.06076 29.7384 2.1195C29.9351 2.02656 30.1519 1.9303 30.36 1.84374ZM49.3339 9.75086C52.1517 13.7529 49.2937 9.6368 47.709 7.78801C47.7441 7.78151 49.0687 9.3708 49.3339 9.75086ZM39.3925 1.666C38.6451 1.40858 37.87 1.2136 37.0841 1.09455C36.9855 1.06739 36.8866 1.0414 36.7872 1.0166C37.3968 1.08989 37.9945 1.20671 38.5891 1.36629C38.861 1.45809 39.1267 1.55747 39.3925 1.666ZM18.397 12.9857C17.7422 14.0371 16.9963 15.4334 19.0971 12.0539C19.0842 12.0479 19.0714 12.0419 19.0585 12.0359C18.9707 12.1715 18.7209 12.5813 18.7105 12.5965C18.669 12.6554 18.6745 12.5564 18.397 12.9857ZM54.3572 17.3013C54.4226 17.4246 54.5744 17.4186 55.0961 18.7893C55.2976 19.1887 55.4845 19.5666 55.6763 19.9634C55.6987 20.0778 55.721 20.1924 55.7431 20.3072C55.0563 18.7654 54.9112 18.6302 54.8591 18.5192C54.6055 18.0145 54.8158 18.3763 54.655 18.0506C54.2552 17.2215 53.2139 15.3359 53.747 16.1508C53.9377 16.4403 54.29 17.1774 54.3572 17.3013ZM52.8309 14.3421C52.9244 14.5242 52.5609 13.9743 52.6294 14.1132C52.6929 14.2221 53.6673 16.0437 53.3393 15.5867C53.1771 15.2867 53.0139 14.9906 52.8496 14.6983C52.8082 14.5911 52.7666 14.4842 52.7248 14.3777C52.5503 14.1087 52.3693 13.8342 52.1853 13.5608C51.9369 13.0641 51.3676 12.0519 52.1272 13.2077C51.8567 12.7729 51.586 12.3509 51.2975 11.9166C51.1342 11.7048 50.9702 11.4961 50.8057 11.2908C50.9091 11.3867 51.0124 11.4837 51.1156 11.5817C51.7237 12.4939 52.2879 13.407 52.8309 14.3421ZM59.2149 28.7256C59.1802 28.6718 59.1453 28.6181 59.1105 28.5645C59.7563 30.3042 60.6265 33.0661 60.0431 31.532C59.2666 29.1332 58.4199 26.7615 57.4831 24.4245C57.4316 24.2634 57.3799 24.1027 57.328 23.9427C57.987 25.7235 57.9421 25.0868 58.4717 26.6541C58.5568 26.9165 58.2273 26.1922 58.8517 27.7975C58.8454 27.7343 58.8391 27.6711 58.8328 27.6079C58.9613 27.9775 59.0887 28.3501 59.2149 28.7256ZM63.5089 44.0919C62.8204 41.001 63.6563 44.3842 63.7351 44.9737C63.7349 44.9727 63.7347 44.9717 63.7344 44.9707C63.9655 46.5719 63.2756 43.176 63.2207 42.9792C63.1552 42.705 62.9252 42.0792 62.6841 40.5814C62.9686 41.735 63.2495 42.9314 63.5089 44.0919ZM60.9235 34.0446C61.002 34.2988 60.9385 34.1641 60.9715 34.2743C60.9718 34.2752 60.9721 34.2762 60.9724 34.2772C61.4803 35.9191 62.5238 39.8052 62.554 40.2617C62.2718 39.0342 60.728 33.6059 60.6531 33.2821C60.7456 33.541 60.8338 33.7892 60.9235 34.0446ZM56.8816 22.7592C56.5206 21.7705 57.4361 23.9364 57.6383 24.5325C57.6767 24.644 57.2495 23.7675 56.8816 22.7592ZM7.75582 38.0619C7.18778 40.3205 8.02001 37.3758 7.80296 38.4134C7.91361 37.9834 8.02555 37.5563 8.13876 37.132C8.01059 37.4401 7.88294 37.7501 7.75582 38.0619ZM4.5205 142.143C4.61287 142.677 4.61202 142.415 4.62149 142.461C4.68713 142.81 4.71275 143.145 4.74298 143.278C5.30998 145.712 5.02417 144.074 5.02789 144.049C5.06426 143.988 5.24814 144.619 5.12263 143.718C4.99795 143.18 4.87512 142.639 4.75417 142.094C4.72827 141.817 4.70272 141.54 4.67774 141.262C4.42439 140.203 4.66751 141.605 4.62682 141.788C4.60956 141.856 4.38145 140.836 4.5205 142.143ZM6.60246 42.0328C6.57523 42.4137 6.43875 43.3352 6.71507 42.4648C6.71531 42.4638 6.71555 42.4628 6.71579 42.4618C6.76665 42.3007 6.93532 41.6399 7.00212 41.442C7.28066 39.9848 7.05324 40.5051 6.60246 42.0328ZM2.76176 132.364C2.65751 131.483 2.55765 130.597 2.46223 129.704C2.51238 129.713 2.56253 129.722 2.6127 129.731C2.66101 130.208 2.71058 130.684 2.76141 131.158C2.80585 131.321 2.85047 131.483 2.89526 131.645C2.86996 131.052 2.84647 130.458 2.82482 129.861C2.71315 129.152 2.60465 128.44 2.50133 127.743C2.51497 128.07 2.52883 128.394 2.5439 128.723C2.30531 127.006 2.46802 127.368 2.34827 125.929C2.24854 125.442 2.15029 124.954 2.05355 124.463C2.02247 123.745 1.99571 123.039 1.97073 122.323C1.83506 121.13 1.79316 121.026 1.81824 121.837C1.70416 121.248 1.73476 120.585 1.64848 119.865C1.64141 119.805 1.5971 119.923 1.59186 119.87C1.24627 116.184 1.42151 116.354 1.38076 115.762C1.35295 115.334 1.1506 113.687 1.1178 113.66C1.0755 113.627 1.10744 117.115 0.783059 111.673C0.812104 114.497 1.17717 117.69 1.20194 115.602C1.23874 116.511 1.60007 120.398 1.62612 120.665C1.65122 121.032 1.57244 120.91 1.61284 121.368C1.63824 121.639 1.8518 122.339 1.93933 124.475C1.99368 124.747 2.04849 125.019 2.10376 125.29C2.11098 125.548 2.11853 125.807 2.12643 126.065C1.99283 125.547 1.86101 125.027 1.73099 124.504C2.03399 126.603 2.08638 128.31 2.37888 129.58C2.50484 130.683 2.56309 131.214 2.43407 130.753C2.47767 131.082 2.5219 131.41 2.56675 131.737C2.63145 131.946 2.69645 132.155 2.76176 132.364ZM5.21301 48.6526C4.93351 49.715 4.98918 50.134 5.02942 49.9659C5.25692 49.0236 5.35911 48.1017 5.21301 48.6526ZM4.24574 140.169C4.07578 138.981 3.90984 137.753 3.76099 136.565C3.70944 136.574 3.65789 136.582 3.60634 136.591C3.80646 137.771 4.02397 138.99 4.24574 140.169ZM7.75728 37.7113C7.81627 37.6115 7.8753 37.5119 7.93436 37.4125C8.18045 36.1082 8.70464 34.8953 8.86613 34.2497C8.90071 34.111 8.76617 34.3715 8.67681 34.6306C8.60993 34.8061 7.80567 37.4715 7.75728 37.7113ZM42.4393 2.49522C41.981 2.23984 41.5133 2.00549 41.0356 1.79465C41.0744 1.7813 41.1134 1.76812 41.1524 1.75509C41.3876 1.86399 41.6172 1.97696 41.8479 2.09715C42.0467 2.22524 42.2496 2.36141 42.4393 2.49522ZM36.8121 0.493663C36.2519 0.415974 35.686 0.374838 35.1173 0.371548C34.729 0.369289 34.3419 0.384615 33.9564 0.417259C34.4574 0.370286 34.835 0.36093 35.1173 0.358175C36.8723 0.411028 34.9185 0.258643 36.8233 0.409298C36.8196 0.437419 36.8159 0.465541 36.8121 0.493663ZM27.6213 2.52045C27.709 2.44654 27.7942 2.37528 27.8859 2.30149C28.72 1.82076 29.5443 1.42725 30.4546 1.09495C29.8639 1.24383 29.2861 1.42729 28.7233 1.6385C28.4113 1.79399 28.1016 1.96045 27.7943 2.1376C27.7318 2.26671 27.6774 2.39244 27.6213 2.52045ZM10.4825 165.281C10.6584 165.784 11.4043 167.501 11.4098 167.419C11.1563 166.661 10.9269 165.941 10.6974 165.198C10.6438 165.214 10.5902 165.23 10.5366 165.246C10.5252 165.134 10.5139 165.021 10.5027 164.908C10.3331 164.499 10.1648 164.086 9.99805 163.669C9.96868 163.436 9.94434 163.215 9.91938 162.992C9.79594 162.802 9.67282 162.61 9.55002 162.417C10.1301 164.441 10.2259 164.373 10.3688 164.785C10.4447 164.998 10.4608 165.143 10.4717 165.225C10.4753 165.243 10.4789 165.262 10.4825 165.281ZM3.76978 139.407C4.18942 141.872 4.61463 143.308 4.86086 145.097C4.83739 143.928 3.2259 136.497 3.08123 133.829C3.00185 133.56 2.92296 133.289 2.84458 133.018C3.08778 134.465 3.1631 135.469 3.26148 136.167C3.3401 136.721 3.37203 136.656 3.37813 136.699C3.37844 136.7 3.37877 136.702 3.37908 136.704C3.57174 137.999 3.60508 138.427 3.76978 139.407ZM8.12149 35.8723C7.88776 36.5018 7.57326 37.6501 7.63832 37.6823C7.83436 37.0476 8.03302 36.4196 8.23427 35.7983C8.17971 35.9221 8.16125 35.7646 8.12149 35.8723ZM26.616 2.95957C26.1123 3.26534 25.1139 4.07464 25.5872 3.77344C25.6621 3.7162 26.7088 2.91127 26.1338 3.44788C27.194 2.69265 26.8916 2.7939 26.616 2.95957ZM0.477019 96.4934C0.476441 96.3143 0.476038 96.1351 0.475809 95.9558C0.475467 95.6882 0.475514 95.4209 0.475948 95.1538C0.443445 95.0498 0.411026 94.9458 0.37869 94.8418C0.3996 95.2127 0.421318 95.5841 0.443847 95.9558C0.454716 96.1351 0.465773 96.3143 0.477019 96.4934ZM9.7895 30.3717C10.111 29.843 10.3006 28.881 10.7964 27.8403C10.9389 27.4497 11.0826 27.0626 11.2275 26.679C11.2279 26.678 11.2283 26.677 11.2286 26.6761C11.1981 26.6529 11.1676 26.6298 11.1371 26.6066C10.666 27.8525 10.2138 29.1197 9.7895 30.3717ZM1.76278 124.167C1.7567 123.894 1.751 123.621 1.74568 123.348C1.67152 122.868 1.59873 122.386 1.52733 121.903C1.53386 122.167 1.54075 122.432 1.548 122.695C1.61817 123.188 1.68977 123.678 1.76278 124.167ZM12.313 23.5742C11.7505 24.9056 11.6566 25.4579 12.3517 23.7411C12.647 23.0252 12.9077 22.1977 12.313 23.5742ZM25.3892 189.025C24.9785 188.693 24.5743 188.343 24.1763 187.975C24.0132 187.881 23.8492 187.784 23.6964 187.694C24.2359 188.158 24.8163 188.616 25.3892 189.025ZM33.3991 0.265016C33.3391 0.294907 33.2791 0.325268 33.2201 0.35596C32.747 0.419083 32.2764 0.507951 31.8091 0.621816C31.9209 0.570822 32.0334 0.521284 32.1467 0.473228C32.562 0.384049 32.9775 0.314768 33.3991 0.265016ZM22.7322 186.645C22.4362 186.336 22.1511 186.025 21.8831 185.721C21.6841 185.529 21.486 185.333 21.2888 185.132C21.5315 185.439 21.7768 185.739 22.0249 186.032C22.2446 186.226 22.4942 186.446 22.7322 186.645ZM18.6873 11.3821C18.3227 11.8566 17.226 13.7592 18.3139 12.0942C19.0493 11.0037 18.7395 11.3165 18.6873 11.3821ZM20.4558 8.89452C19.1083 10.611 20.2386 9.41114 21.7902 7.34572C20.1158 9.35793 20.5509 8.80071 20.4558 8.89452ZM37.2152 0.164332C37.2727 0.175351 37.3174 0.213066 37.7749 0.307003C39.4398 0.625643 41.4381 1.55558 42.4311 2.17058C45.151 3.34022 50.5839 9.68907 50.8846 10.6225C50.9826 10.8003 50.6667 10.4547 50.7108 10.5242C50.8528 10.7329 51.6209 11.8311 51.4455 11.6522C50.7227 10.5507 49.9289 9.44213 49.0886 8.39572C49.3187 8.63004 49.5479 8.87042 49.7763 9.11674C47.6694 6.48642 48.3397 7.39154 47.6481 6.69764C47.2751 6.25056 46.9104 5.83387 46.5052 5.40235C45.5963 4.56047 44.587 3.74558 43.5352 3.05235C43.7813 3.19706 44.0256 3.34795 44.2695 3.50596C42.7405 2.35166 43.1382 2.68904 42.2127 2.18398C42.2214 2.16436 42.23 2.14474 42.2387 2.12512C40.5706 1.25914 40.2085 1.13342 39.8227 0.969372C39.0403 0.730965 38.0557 0.415518 35.1173 0.126959C34.9671 0.116275 34.8118 0.107022 34.651 0.0996556C33.2661 0.297904 33.2667 0.0831249 32.4802 0.348464C30.6469 0.6951 32.9376 -0.0445722 35.1173 0.0021323C35.7096 0.00694609 36.28 0.0559106 36.7364 0.115755C36.7376 0.115897 36.7387 0.11604 36.7398 0.116182C36.8998 0.139163 36.6491 0.0751997 37.2152 0.164332ZM25.9473 3.39592C26.4657 2.95066 25.6273 3.49324 24.8894 4.11555C24.1282 4.75384 23.5466 5.3704 24.239 4.84729C24.4292 4.6837 24.6462 4.50151 24.8531 4.33448C25.2139 4.0053 25.5794 3.69166 25.9499 3.39406C25.949 3.39467 25.9482 3.3953 25.9473 3.39592ZM5.23464 46.6478C4.31784 51.2839 4.94305 48.6623 5.19904 47.0854C5.25086 46.7717 5.26764 46.5981 5.23464 46.6478ZM4.29402 142.985C4.32754 143.049 4.36109 143.114 4.39468 143.178C4.0592 141.594 3.61233 138.572 3.48528 138.628C3.74007 140.091 4.00428 141.517 4.29402 142.985ZM2.19761 130.544C2.23298 130.887 2.40188 132.27 2.42989 132.096C2.38311 131.494 2.33828 130.889 2.29542 130.282C2.23666 130.004 2.17838 129.726 2.12058 129.447C2.16255 129.842 2.18755 130.452 2.19761 130.544Z" fill="var(--stroke-0, #0061FE)"/>
</svg>
