<svg preserveAspectRatio="none" width="100%" height="100%" overflow="visible" style="display: block;" viewBox="0 0 47.0131 131.18" fill="none" xmlns="http://www.w3.org/2000/svg">
<path id="Ellipse 41" d="M46.6701 58.4929C47.0216 60.8821 47.0595 62.9589 46.9752 64.9527C46.8606 67.6067 46.5358 70.0898 46.3306 73.0338C45.5853 84.3721 43.8327 99.3444 40.0449 110.603C38.6731 114.712 37.0262 118.801 34.6151 122.677C32.2075 126.321 28.8587 130.991 22.621 131.18C22.1717 131.176 21.7251 131.141 21.2849 131.074C20.6781 130.98 20.3449 130.824 20.0815 130.751C17.4856 130.137 14.4969 127.565 13.2442 125.925C10.2955 122.519 7.45884 115.894 6.37297 112.346C5.88454 110.845 5.43649 109.304 5.39397 108.671C5.23667 108.105 5.04264 107.857 4.99524 107.712C4.9949 107.71 4.99456 107.709 4.99422 107.707C4.84573 107.257 4.61163 106.044 4.54256 105.789C4.53211 105.75 4.50735 106.01 4.37479 105.38C4.36311 105.324 4.43277 105.362 4.3024 104.833C4.26546 104.698 3.75232 102.931 3.63971 102.431C3.22332 100.725 2.51757 96.6706 2.20414 94.6257C2.15435 94.3148 2.09302 94.1405 2.04123 93.8099C2.01443 93.6391 2.01107 93.3763 2.00291 93.3235C1.96481 93.0877 1.65807 92.1168 2.02966 92.4255C1.85941 91.3887 1.79919 91.7089 1.72693 91.6961C1.55899 90.5625 1.63788 89.9746 1.44239 89.708C0.752313 84.1123 0.35037 78.4713 0.187811 72.8487C0.163217 72.848 0.138624 72.8473 0.114031 72.8466C0.160496 71.1741 -0.0119407 70.6222 0.112622 69.6689C0.0723548 69.0867 0.0346925 68.4943 1.71661e-05 67.9153C-0.000357389 66.9329 0.00543308 65.9452 0.0176501 64.9527C0.226863 50.9431 1.50691 36.9253 5.23444 23.4486C5.40823 22.838 5.49057 22.6965 5.78698 21.7106C6.12414 20.5917 6.57228 19.0402 7.08759 17.6156C7.53984 16.3476 8.30117 14.52 8.91814 13.1655C9.05975 12.8512 9.13928 12.6177 9.15542 12.5828C9.25066 12.3789 9.2925 12.3857 9.3855 12.1903C9.49818 11.9538 9.59882 11.6745 9.73917 11.3936C10.2477 10.3664 10.8339 9.29817 10.9117 9.16595C11.2593 8.56432 11.372 8.46233 11.4006 8.4132C11.8084 7.74936 11.6303 7.97907 11.734 7.81461C12.2807 6.97492 12.7445 6.41887 13.5301 5.27795C13.5313 5.32824 13.5325 5.37852 13.5339 5.42881C14.2264 4.59268 13.7121 5.09925 13.8392 4.91703C13.8629 4.83038 15.4591 3.12283 15.6296 3.0206C16.1144 2.58708 16.1579 2.61962 16.1997 2.58212C16.2833 2.49347 17.5433 1.45143 18.3662 1.08944C19.29 0.669386 18.265 1.2805 18.4975 1.18173C18.5242 1.15582 19.4977 0.700134 19.65 0.688942C19.8068 0.652533 18.9451 1.00237 18.9659 1.01733C18.9742 0.989857 20.4296 0.522233 20.1662 0.666112C19.9356 0.718622 18.0556 1.53379 17.735 1.82811C17.6792 1.86776 17.8143 1.83896 17.7644 1.8732C17.4332 1.88029 14.1802 4.98266 14.1705 5.18368C14.2978 4.99289 14.4268 4.80587 14.5574 4.62267C14.3591 4.84496 14.1628 5.07498 13.9684 5.3126C14.2311 4.95786 14.4818 4.63604 14.7708 4.29208C14.1746 4.62988 13.134 6.29317 13.1851 6.41092C13.2011 6.45868 13.9749 5.59901 13.3927 6.50132C13.4978 6.3747 13.6032 6.25022 13.7089 6.12789C13.8876 5.85884 14.0956 5.56257 14.2967 5.28907C14.1433 5.45785 13.9906 5.63121 13.8387 5.8091C13.8809 5.7331 13.9232 5.65757 13.9659 5.58253C14.3558 5.05585 14.737 4.57926 15.1831 4.08093C15.4216 3.84729 15.4009 3.92432 15.5658 3.76965C17.7625 1.91492 16.2567 3.03931 17.81 1.9314C18.0467 1.80277 18.3083 1.6704 18.5592 1.55775C18.4337 1.53842 19.2048 1.13281 20.2086 0.785773C20.0964 0.848485 19.9859 0.913632 19.877 0.981098C20.5826 0.70508 21.7474 0.501315 22.621 0.535197C23.504 0.556872 24.0717 0.693982 23.6623 0.547624C24.0139 0.609292 24.3591 0.694731 24.6948 0.800961C24.9904 0.858786 25.2752 0.93012 25.5616 1.01761C25.946 1.17207 26.3082 1.34772 26.6619 1.54517C26.6575 1.55717 26.653 1.56916 26.6486 1.58115C26.3701 1.4278 26.0739 1.28264 25.7811 1.15788C25.9868 1.28781 26.1877 1.42579 26.3842 1.5713C26.5972 1.67476 26.798 1.781 27.0028 1.89812C26.1705 1.37122 27.3353 1.96879 27.6053 2.11443C28.3018 2.57542 28.6464 2.97615 28.8453 3.1531C28.9504 3.22426 30.0906 4.20081 29.588 3.87533C30.1411 4.41316 30.651 4.9816 31.1241 5.56249C31.3014 5.80481 31.4691 6.04428 31.6329 6.28666C31.2144 5.80494 32.2348 7.34339 31.4228 6.25501C30.8024 5.45162 30.682 5.23987 30.3621 4.86238C30.0748 4.5326 29.8941 4.3873 29.558 4.04343C27.6298 2.10083 25.3895 0.677647 22.621 0.63649C22.1867 0.632873 21.7459 0.666775 21.3057 0.73966C20.6724 0.843371 20.1161 1.04345 19.723 1.19364C19.2741 1.37254 19.8159 1.09194 19.2505 1.34846C18.6754 1.62899 18.5859 1.74251 18.4373 1.82411C18.3484 1.87455 18.0327 2.01969 17.7912 2.18161C16.7184 2.86379 15.5057 4.14161 15.3948 4.27089C15.1817 4.396 13.0989 6.99066 13.031 7.17469C12.9807 7.24565 12.9594 7.01962 12.6829 7.71005C12.561 7.90329 12.4399 8.09993 12.3196 8.29994C12.3159 8.25331 12.3122 8.2067 12.3085 8.16011C11.6813 9.39711 11.8865 8.93032 11.2464 10.1018C9.75207 12.8376 8.02222 17.1291 7.02976 20.3477C6.80546 21.0623 6.75004 21.3593 6.49818 22.2164C6.26356 22.9935 5.58798 25.0818 5.85772 24.6573C5.26532 26.3943 5.41517 26.7636 5.06619 27.6133C5.06038 27.7261 5.05473 27.8391 5.04922 27.9524C4.7368 28.9097 4.74187 29.2381 4.52513 30.2983C4.43249 30.7598 4.45084 30.2073 4.35979 31.1629C4.31526 31.3404 4.27099 31.5185 4.22698 31.6972C4.21291 31.6509 4.19887 31.6045 4.18486 31.5582C3.99469 32.5981 3.97479 32.6564 4.08126 32.5564C3.9692 33.0504 3.85913 33.5488 3.75109 34.0515C3.76762 34.1193 3.78423 34.1872 3.80089 34.2551C3.78136 34.0006 6.24761 22.6981 6.87231 21.1778C7.46232 19.3873 8.68285 15.7802 9.32676 14.3622C9.56849 13.8088 9.73245 13.5705 10.112 12.7576C10.4802 11.9667 10.9578 10.9021 11.174 10.4954C11.7083 8.98648 16.3713 2.86123 13.3122 7.08345C13.4212 6.97413 13.5302 6.86682 13.6392 6.76153C14.7912 5.06889 14.3762 5.67932 15.5367 4.40228C16.0059 3.86968 17.3129 2.70285 17.3311 2.86792C16.2735 3.69702 15.2385 4.7474 14.5293 5.63242C14.4409 5.72958 13.6695 6.82806 13.2598 7.42906C12.907 7.94254 13.0339 7.49533 12.417 8.75648C11.7871 9.55008 11.6094 10.1459 11.4907 10.3931C11.2974 10.8048 11.2157 10.819 10.9982 11.2294C10.762 11.6778 10.646 12.0235 10.6175 12.0832C10.2984 12.6697 8.89625 16.0299 8.84037 16.1671C8.88065 16.0294 8.92121 15.8924 8.96203 15.756C8.60932 16.6061 8.74542 16.4558 8.66613 16.6865C8.60149 16.8574 8.5372 17.0295 8.47326 17.2028C8.48493 17.1291 8.49668 17.0556 8.50852 16.9823C8.12993 18.0293 8.45735 17.2527 7.9447 18.7179C7.61802 19.6648 7.25933 20.62 7.23466 20.7128C7.22733 20.7402 7.35668 20.4544 7.24083 20.8407C7.04675 21.4824 6.71722 22.6013 6.63439 22.7053C6.55122 23.0204 6.60814 23.0081 6.59729 23.0501C6.53633 23.2351 5.71425 26.3958 5.58996 26.9809C5.21781 28.5481 4.81787 30.3118 4.48371 32.0516C4.45 32.2271 4.43862 32.1087 4.40514 32.2849C4.34967 32.5649 4.12695 34.0435 4.09247 34.2688C3.9998 34.8234 3.73606 36.2477 3.71502 36.4838C3.71192 36.5165 3.83645 36.0467 3.75933 36.6072C3.67465 37.2311 3.66652 36.8868 3.66038 36.9204C3.43729 38.1763 3.36663 38.9658 3.25195 39.8367C3.21436 40.1225 3.09686 40.621 3.05871 41.016C3.05431 41.0613 3.11052 40.9777 3.10679 41.0223C3.05118 41.6171 2.89821 42.166 2.86055 42.4248C2.76893 43.0584 2.87296 42.72 2.86922 42.7531C2.81886 43.1813 2.73091 43.7303 2.66176 44.3716C2.35684 47.2354 2.1538 49.5504 1.94537 52.6024C1.91981 52.9822 1.84669 53.4325 1.8431 53.491C1.83256 53.6718 1.88846 53.6227 1.85695 54.1461C1.79065 55.2574 1.74409 56.2659 1.69844 57.3617C1.68933 57.582 1.6355 57.6743 1.62793 57.8427C1.59986 58.4151 1.6767 60.3197 1.51245 60.3518C1.63098 61.4762 1.49269 62.2121 1.48296 63.1096C1.47742 63.656 1.47506 64.2837 1.47658 64.9527C1.47909 66.8867 1.52444 69.1267 1.55321 70.7035C1.56092 71.1493 1.5231 71.356 1.52839 71.607C1.53334 72.0606 1.66062 74.6017 1.6638 74.7328C1.66367 74.996 1.45553 74.8524 1.69907 76.1903C1.75518 76.9776 1.66962 76.8885 1.67454 77.0516C1.71521 78.3154 1.99008 79.5531 1.80554 79.3307C1.95643 80.8001 2.13465 81.755 2.02954 82.3724C2.10601 82.3575 2.21324 83.0488 2.26466 83.8803C2.05444 83.0413 1.97419 83.1635 1.82463 81.0736C1.82235 81.0407 1.88298 81.0988 1.8807 81.0659C1.86005 80.7659 1.7844 80.1585 1.75078 79.6524C1.71733 79.147 1.77537 79.4247 1.76021 79.2224C1.74642 79.037 1.69394 79.0471 1.67482 78.7781C1.61301 77.901 1.55337 77.1388 1.52459 76.6441C1.50647 76.3327 1.53373 75.9807 1.52119 75.7379C1.46938 74.7896 1.3507 72.8274 1.32169 71.622C1.31546 71.3713 1.36893 71.4761 1.35824 70.9348C1.3571 70.8716 1.29773 70.643 1.27592 70.1681C1.25422 69.6929 1.27348 69.3224 1.2628 69.0158C1.25409 68.7593 1.20878 68.8678 1.1985 68.3407C1.19319 68.0942 1.18384 66.4289 1.20072 64.9527C1.21224 63.8075 1.23557 62.799 1.24045 62.6819C1.25669 62.2966 1.32383 62.1148 1.32031 61.8802C1.31941 61.8387 1.25908 61.7687 1.25756 61.6245C1.2159 59.2428 1.53164 53.999 1.74816 51.2993C2.17049 45.6483 2.74879 40.437 3.72492 34.8068C3.73312 34.7054 3.74115 34.6056 3.7498 34.503C3.64823 35.067 3.54983 35.6332 3.45388 36.2058C3.42745 36.2052 3.40102 36.2046 3.37459 36.204C3.24169 36.9789 3.32102 36.8875 3.36127 36.8709C3.29864 37.1579 3.23748 37.4409 3.17748 37.7212C3.22871 37.9707 2.87848 39.8934 2.75041 40.8658C2.66363 41.5033 2.6012 42.2745 2.55634 42.6157C2.46133 43.3391 2.40843 43.3035 2.40027 43.3616C2.38718 43.4558 2.32066 44.4551 2.24067 45.1806C2.12285 46.259 2.0203 46.3499 1.95719 47.8222C1.7339 49.6995 1.59569 51.7827 1.48196 53.7984C1.41917 53.4037 1.39083 55.2404 1.35292 56.0473C1.21313 58.7982 1.11308 61.8728 1.08478 64.9527C1.06046 67.4826 1.08337 69.9799 1.14221 72.266C1.15912 72.9197 1.12384 73.4131 1.14016 73.7748C1.14902 73.9709 1.21673 74.0535 1.21996 74.3255C1.22057 74.3743 1.16113 74.4057 1.17551 74.9181C1.20376 76.1947 1.50247 79.3336 1.45083 80.1375C1.79052 84.4608 2.28064 88.7586 2.96063 93.0572C2.95143 93.17 2.94231 93.2827 2.93326 93.3954C3.18564 94.1957 3.65459 97.4139 3.98328 98.9802C4.53163 101.727 5.40329 105.19 6.09356 107.57C6.23679 108.071 6.32745 108.523 6.47409 109.007C6.53763 109.217 6.6666 109.461 6.73368 109.675C7.48465 112.117 8.62432 115.395 9.72956 117.756C12.3043 122.764 15.0739 129.121 22.5547 129.884C22.5768 129.884 22.5989 129.884 22.621 129.884C28.9546 129.568 32.1312 124.205 34.5379 119.983C36.9144 115.502 38.5143 110.781 39.8267 105.994C42.3969 96.4348 43.7089 86.6345 44.3764 76.8658C44.3938 76.6039 44.4691 76.6214 44.4825 76.418C44.5665 75.2092 44.6359 72.53 44.6826 71.1645C44.7251 70.091 44.885 68.3613 44.7707 67.9897C44.5165 71.8365 44.3395 75.8954 43.9665 79.8841C43.9401 80.1667 43.8654 80.1959 43.8612 80.2306C43.7822 80.8731 43.9171 80.4652 43.8385 81.4103C43.817 81.735 43.3046 84.5785 43.5605 84.2669C43.4139 84.9648 42.7711 89.8006 42.6422 90.7487C42.6093 91.0352 42.704 90.8426 42.699 90.8997C42.6772 91.1475 42.5709 91.2451 42.5358 91.4633C42.4453 92.0412 42.2793 93.5368 42.2295 93.8203C42.124 94.4668 41.7071 96.3942 41.5565 97.2464C41.4207 98.027 41.5428 97.8875 41.413 98.5742C41.3094 99.1098 41.3545 98.5169 41.0824 99.6965C40.9543 100.268 40.5388 102.349 40.4169 102.833C40.3006 103.314 40.106 103.875 39.9351 104.554C39.6967 105.525 39.1295 107.667 38.8353 108.666C38.818 108.726 38.8408 108.891 38.7942 109.037C38.6975 109.338 38.6429 109.222 38.5633 109.445C38.5161 109.65 37.1642 113.605 36.883 114.228C36.7073 114.675 36.6222 115.018 36.5201 115.265C36.4389 115.46 36.3647 115.454 36.2813 115.651C36.2536 115.717 36.1012 116.238 35.8599 116.774C35.6482 117.274 34.7056 119.084 34.5869 119.288C34.5162 119.423 34.6382 119.299 34.4278 119.696C34.234 120.058 34.037 120.281 33.921 120.486C33.6483 120.968 33.3906 121.514 33.0693 122.026C32.168 123.432 32.0993 123.327 32.0502 123.406C31.8793 123.633 31.8707 123.765 31.817 123.84C31.6063 124.144 30.9853 124.944 30.7608 125.199C30.4845 125.521 30.2877 125.638 29.9636 125.974C29.7266 126.219 29.2509 126.79 28.6219 127.302C27.2219 128.49 25.0389 129.598 23.0443 129.651C22.8608 129.66 22.7254 129.655 22.621 129.646C22.3915 129.626 22.3125 129.592 22.1904 129.585C21.2564 129.516 20.7449 129.427 20.4848 129.361C18.5536 128.931 16.0722 126.828 15.0621 125.612C14.5914 125.158 12.817 122.928 12.06 121.565C11.9665 121.407 12.0939 121.532 11.9832 121.359C11.73 120.963 11.6735 121.048 11.5568 120.838C11.501 120.736 11.4166 120.48 11.2574 120.175C10.4489 118.619 9.9237 117.535 9.60167 116.804C6.5703 109.78 4.83484 102.197 3.63976 95.263C3.50983 94.4993 3.30045 93.5392 3.17191 92.3555C3.19254 92.3158 3.21318 92.276 3.23382 92.2363C3.20217 92.1995 3.17054 92.1627 3.13893 92.1258C2.93148 90.8127 2.82507 90.2832 2.68408 88.9378C2.67187 88.8208 2.74431 88.4492 2.57111 88.246C2.51317 86.8816 2.49465 87.6306 2.36954 86.6319C2.24757 85.641 2.17759 84.6539 2.09165 83.6796C2.08975 83.1384 2.43144 85.3727 2.45037 85.5151C2.47504 85.7494 2.42949 86.0002 2.45061 86.2252C2.51218 86.8864 2.64816 87.5364 2.60152 87.6934C2.77506 88.5514 2.60989 87.4771 2.68481 87.5775C2.72878 88.16 2.77529 88.7388 2.82429 89.3138C3.06362 89.5718 3.24666 92.7996 3.37965 92.5446C3.38585 92.8022 3.39326 93.0639 3.40078 93.3224C3.78162 94.4048 3.7404 95.0517 3.94693 96.5515C3.9538 96.4404 3.96075 96.3292 3.96778 96.2179C3.98295 96.2484 4.2636 97.5339 4.06666 97.0926C4.46098 98.3772 4.20964 98.3888 4.62758 99.5379C4.7976 100.238 4.59962 99.8254 4.87594 101.094C5.04307 101.853 5.30392 102.742 5.51256 103.582C5.56027 103.775 5.52082 103.874 5.56304 104.045C5.60535 104.215 5.68491 104.284 5.73816 104.489C5.84865 104.914 5.94669 105.46 6.02293 105.73C6.09036 105.97 6.2338 106.3 6.40037 106.867C6.98697 108.825 6.75715 108.271 6.82064 108.588C6.89564 108.934 7.06612 109.149 7.26241 109.812C7.28211 109.878 7.1671 109.727 7.23743 109.941C7.29374 110.11 7.38849 110.184 7.59288 110.765C7.65561 111.01 8.9346 114.525 9.19066 115.076C9.51306 115.888 10.2533 117.714 10.6741 118.546C10.8318 118.867 11.0532 119.177 11.2238 119.504C11.8087 120.636 12.7917 122.334 13.763 123.647C14.5755 124.837 16.3031 126.799 17.0521 127.172C18.7363 128.43 19.2778 128.614 19.4132 128.707C19.829 128.885 20.0307 128.894 20.5805 129.048C21.2256 129.221 21.9114 129.32 22.621 129.319C30.3156 128.803 33.9191 120.196 36.1173 115.301C41.5029 101.723 43.2645 87.1078 43.9828 72.6838C43.9486 72.6436 43.9144 72.6034 43.8802 72.5632C43.7889 74.2674 43.6169 76.2822 43.4865 77.9542C43.3199 80.2147 43.1568 83.5378 42.7325 85.17C42.786 84.4999 42.9867 83.4176 42.8621 83.4285C42.7354 84.6165 42.595 85.8168 42.4442 86.9945C42.5041 86.9654 42.5641 86.9361 42.6241 86.9068C42.4882 88.1712 42.3128 89.4066 42.1384 90.6708C42.1082 90.8878 42.1804 90.7414 42.1531 90.9301C42.1224 91.141 42.0926 90.9907 42.0865 91.0301C42.0076 91.5622 42.0339 91.7286 42.0235 91.7932C41.9961 91.9583 41.9675 91.8231 41.8802 92.2964C41.717 93.1795 41.7367 93.8454 41.5579 93.5995C41.5106 93.8869 41.4627 94.1732 41.414 94.4581C41.4595 94.5417 41.5049 94.6253 41.5502 94.7089C41.0111 96.4257 41.2572 97.3164 40.7443 98.2174C40.7289 98.5503 40.7123 98.8816 40.6947 99.2114C40.6002 99.3798 40.5056 99.5475 40.4108 99.7143C40.4522 99.7593 40.4936 99.8045 40.5349 99.8496C40.1341 101.556 39.7592 103.396 39.3254 105.019C39.0245 106.138 38.9228 106.429 38.6431 107.415C37.9921 109.634 38.5612 107.41 37.8992 109.215C37.9857 109.138 38.0722 109.06 38.1587 108.982C38.0854 109.293 38.011 109.6 37.9355 109.905C37.8236 110.094 37.7057 110.3 37.5897 110.496C37.5146 111.518 37.111 112.039 37.0676 112.163C37.0312 112.262 37.047 112.685 36.5158 113.721C36.8792 113.348 36.2001 114.539 36.1505 114.65C36.1093 114.758 35.6505 115.987 35.4181 116.496C35.2387 116.901 34.8314 117.684 34.5433 118.272C34.2926 118.784 34.3783 118.76 34.3606 118.798C34.0507 119.416 34.2012 119.008 33.9698 119.445C33.7347 119.884 33.5873 120.266 33.5308 120.356C33.5016 120.402 33.536 120.212 33.4078 120.427C33.076 120.989 32.4743 122.082 32.0429 122.703C31.8841 122.936 31.6397 123.192 31.4595 123.435C31.185 123.805 31.1048 124.021 30.9288 124.24C30.8623 124.32 30.4167 124.714 29.9092 125.291C29.8141 125.4 29.6833 125.88 29.0563 126.03C29.0554 126.094 29.0543 126.158 29.0528 126.221C27.1757 128.047 26.2783 127.957 25.3137 128.708C23.4329 129.24 24.6888 128.729 24.478 128.777C24.3438 128.806 23.7384 128.957 23.6664 128.959C23.5441 128.972 23.5599 128.929 23.4271 128.945C23.101 128.981 22.8361 128.991 22.621 128.994C21.2325 128.949 21.951 129.045 21.2731 128.994C20.3334 128.882 19.5828 128.508 19.4248 128.395C19.281 128.255 19.6418 128.525 21.2104 128.918C21.2146 128.896 21.2189 128.874 21.2231 128.852C20.4108 128.785 18.6263 127.909 19.2721 128.088C19.5208 128.175 20.7187 128.661 21.6172 128.749C22.514 128.838 23.0065 128.833 21.7134 128.67C21.1461 128.554 20.7877 128.59 19.9095 128.088C19.2952 127.817 19.1273 127.975 18.3747 127.426C18.4663 127.567 18.561 127.706 18.659 127.843C17.502 127.308 16.4018 126.167 15.7403 125.519C15.5 125.304 14.4884 124.634 14.9199 124.625C14.5248 124.248 13.098 122.135 12.86 121.754C12.8042 121.667 12.5327 121.619 11.7979 120.187C11.7618 120.076 11.726 119.966 11.6904 119.854C12.4657 121.14 11.2564 118.782 11.7443 119.336C11.7902 119.591 12.3256 120.646 12.3884 120.818C12.4972 121.128 11.9304 120.337 12.5845 121.391C13.2195 121.913 11.9795 120.077 12.3852 120.237C11.4881 118.876 11.5569 118.696 11.3906 118.366C10.7198 116.964 10.3027 116.08 9.78264 114.731C9.59066 114.425 10.5482 116.89 10.7221 117.17C10.053 116.156 10.8929 118.042 11.4081 118.78C11.3902 118.872 11.3725 118.963 11.355 119.054C10.8562 118.016 10.4071 117.014 9.90831 115.97C9.89935 115.895 9.89047 115.82 9.88167 115.745C10.0068 115.959 10.1408 116.188 10.2734 116.409C9.93859 115.506 10.0141 116.114 9.66825 114.9C9.5946 114.888 9.52094 114.876 9.44727 114.864C9.00899 113.723 8.61514 112.598 8.24672 111.462C7.9155 110.917 7.26437 108.693 7.54873 109.05C7.2868 108.156 7.54047 109.284 7.24824 108.456C7.11979 108.092 6.90835 107.38 6.90151 107.195C7.06773 107.224 7.3984 108.289 7.60023 108.581C7.53194 108.361 6.09086 103.449 6.39671 103.836C6.31781 103.43 6.27332 103.636 6.07439 102.914C5.52008 100.926 5.04355 97.7138 4.53784 96.1183C4.77076 98.069 5.02012 98.6301 5.33393 100.092C5.49976 101.055 6.95673 106.721 6.48534 105.494C6.56156 105.701 6.63822 105.906 6.71533 106.111C6.72684 106.335 6.73878 106.559 6.75115 106.782C6.58003 106.197 6.40579 105.577 6.24884 105C6.2585 104.847 6.26833 104.694 6.27834 104.54C6.2286 104.483 6.17891 104.426 6.12927 104.369C6.05913 104.12 5.9896 103.869 5.92068 103.617C5.97786 103.679 6.03509 103.74 6.09237 103.801C6.00279 103.411 5.91268 103.01 5.82986 102.629C5.80141 102.745 5.77303 102.861 5.74474 102.977C5.30501 101.165 5.4837 101.769 5.3539 100.723C5.19926 99.9578 5.37117 101.262 5.00593 99.668C4.59516 97.8011 4.98984 98.9805 4.4981 96.5701C4.46549 96.5398 4.43289 96.5095 4.40032 96.4791C4.32868 95.9402 4.25658 95.3801 4.19292 94.8508C4.17256 94.9268 4.15223 95.0027 4.13193 95.0786C3.95417 93.986 3.64938 92.431 3.72386 92.059C3.83352 93.1876 4.05808 93.1531 4.05089 92.8489C3.97856 92.2559 2.77337 83.2853 2.6864 81.5481C2.48896 79.3211 2.44133 77.6264 2.22626 75.5948C2.19722 76.9813 2.63195 81.8348 2.67517 82.7615C2.67795 82.8526 2.47755 82.8471 2.75547 83.4075C2.90023 85.301 3.21584 87.5512 3.52952 89.8848C3.46177 89.8207 3.39392 89.7551 3.32651 89.692C3.25559 88.2497 2.82997 86.9278 3.07539 87.0913C3.04059 86.7982 3.00803 86.5174 2.97547 86.2304C2.93712 86.2348 2.89877 86.2392 2.86043 86.2435C2.81165 85.8119 2.76434 85.3782 2.71851 84.9424C2.75671 84.9384 2.79492 84.9343 2.83312 84.9302C2.79506 84.5697 2.75793 84.2069 2.72198 83.8444C2.68033 83.8111 2.6387 83.7777 2.59709 83.7443C2.56006 82.6727 2.05759 78.9974 2.41137 80.5964C2.37089 80.0931 2.33234 79.5875 2.29576 79.0795C2.26844 79.0832 2.24111 79.0868 2.21379 79.0905C2.19443 78.8723 2.17544 78.6537 2.15682 78.4346C2.18653 78.5051 2.21629 78.5755 2.24611 78.6459C2.1314 77.6374 2.20555 76.6973 2.08372 76.042C2.0892 76.4767 2.09602 76.9101 2.10417 77.342C2.0863 76.5157 1.93307 74.9822 1.92736 74.8428C1.90663 74.4218 1.95131 74.2046 1.93433 73.7524C1.91922 73.3447 1.88002 73.4024 1.8783 73.3263C1.83671 71.1183 2.09453 71.9427 1.79604 70.9286C1.82923 70.8184 1.86247 70.7081 1.89576 70.5979C1.86154 70.4533 1.82752 70.3085 1.79371 70.1636C1.78047 69.5129 1.77037 68.8591 1.76348 68.2037C1.72176 68.4225 1.68032 68.6423 1.63911 68.8614C1.60213 67.8755 1.68927 67.4302 1.68996 67.3334C1.69248 67.0663 1.63528 66.9444 1.63452 66.8617C1.62864 65.9124 1.63333 65.323 1.64159 64.9527C1.67068 63.7724 1.73118 64.8151 1.90117 63.3002C1.82644 62.5912 1.73708 63.3068 1.65286 63.4072C1.70181 62.4624 1.6827 62.178 1.70696 61.1762C1.71355 60.9159 1.76445 60.6376 1.76899 60.474C1.77281 60.3321 1.73683 59.8881 1.74658 59.5491C1.76248 58.9843 1.81488 58.2348 1.84507 57.4547C1.86802 56.8068 1.92503 54.84 2.01104 53.4598C2.04695 52.8741 2.07726 53.0127 2.08679 52.8617C2.09076 52.798 2.07398 52.344 2.09995 51.9657C2.30976 48.8933 2.63306 45.7512 3.00675 42.6903C3.27149 40.5197 3.54711 38.3383 3.90947 36.1744C3.98664 35.7159 3.97727 35.9639 4.0119 35.7642C4.02396 35.6962 3.98271 35.6024 4.12665 34.9046C4.17886 34.653 4.16542 34.9503 4.21101 34.7022C4.23325 34.5834 4.19474 34.5172 4.31511 33.797C4.53586 32.4885 4.73675 31.8267 4.75908 31.7011C4.79965 31.4803 4.74828 31.5367 4.80597 31.2458C5.08756 29.8329 5.34273 28.6535 5.63545 27.4076C5.75023 26.8243 6.80901 22.8036 6.89652 22.6025C7.05228 22.1222 6.99317 22.6007 7.1762 21.9716C7.21011 21.7882 7.24442 21.6055 7.27913 21.4238C7.18004 21.6976 7.07934 21.9819 6.98401 22.2527C7.23514 21.4851 7.47237 20.6042 7.65286 20.0524C7.68323 19.9554 8.0385 18.9873 8.2022 18.5088C8.1449 18.7185 8.08814 18.9297 8.03195 19.1423C8.06842 19.0727 8.10492 19.0032 8.14146 18.934C8.44837 17.9704 8.82868 16.9215 9.20688 15.9614C9.34477 15.6125 9.32747 15.7362 9.47246 15.3764C10.3314 13.3201 10.0035 13.7616 11.1222 11.9233C10.7684 12.5569 9.74041 14.9976 9.60182 15.3617C9.4908 15.6173 8.93747 16.5069 9.26082 16.2265C8.5098 18.2253 9.04257 16.4521 8.39157 18.3428C8.42798 18.3134 8.46438 18.2842 8.50077 18.255C8.28725 18.9125 8.13513 19.4114 7.95916 19.8084C8.02573 19.973 7.24186 22.2321 6.91314 23.4766C6.41324 25.3064 5.9395 27.3557 5.54111 29.1918C5.40397 29.8227 5.28326 30.1581 5.26618 30.2386C5.24219 30.3532 5.21705 30.6849 5.16999 30.9158C4.9841 31.7893 4.42173 34.3853 4.43585 35.0656C5.32798 29.9218 6.48981 24.811 8.09765 19.8588C7.81335 20.4401 9.5569 15.4766 9.71533 15.2322C9.81161 15.0019 9.76845 15.2111 9.79856 15.1433C10.0218 14.6389 10.1514 14.1951 10.2191 14.0385C10.2722 13.9161 10.4058 13.6714 10.6002 13.2389C10.6359 13.1596 10.6207 13.1262 10.6593 13.0415C10.9127 12.4866 11.1773 11.9341 11.4582 11.3773C11.4755 11.3437 11.5815 11.2226 11.6524 11.0853C11.7233 10.9474 11.7586 10.7943 11.7766 10.7599C12.0036 10.324 12.4486 9.57702 12.6814 9.18707C12.7634 9.04842 12.6787 9.13435 12.7752 8.97302C13.0738 8.48222 13.0226 8.66826 13.3825 8.07677C13.5055 7.87909 13.4533 7.87624 13.7116 7.50359C13.8976 7.23838 13.9408 7.31247 13.972 7.27198C14.0164 7.20581 14.59 6.31372 14.8714 6.05152C14.4835 6.74974 15.414 5.38754 15.3265 5.42524C15.6092 5.11709 15.9327 4.78526 16.2395 4.4971C16.3336 4.38291 16.4205 4.27842 16.524 4.16103C17.8434 3.0339 18.7298 2.34444 20.3541 1.77209C20.423 1.71174 21.8497 1.43393 21.7888 1.49304C20.9339 1.62672 20.1308 1.91782 19.5958 2.0981C18.8426 2.60444 18.757 2.49616 17.581 3.38785C17.2012 3.69629 17.204 3.74585 17.1599 3.782C15.6836 4.99785 13.8849 7.51444 13.1582 8.55961C12.9877 8.87778 13.689 7.7901 13.4355 8.22383C13.1591 8.40879 10.2347 14.3161 11.0718 12.3875C10.9823 12.5831 10.8934 12.781 10.8051 12.981C10.81 13.2189 10.3424 14.2248 10.2956 14.0672C10.2756 14.1688 10.2558 14.2708 10.2362 14.3732C10.1747 14.5658 10.0913 14.7898 9.96821 15.1065C9.39148 16.2738 7.00423 23.6362 6.98813 24.0536C7.01142 24.0697 7.0347 24.0857 7.058 24.1018C7.98452 20.8236 8.9356 17.6286 10.45 14.2536C10.3865 14.3414 10.323 14.4297 10.2596 14.5187C10.8673 13.1634 11.5303 11.8255 12.2516 10.5513C11.5434 11.9302 10.5414 14.2288 9.91485 15.7458C9.7998 16.02 9.84856 15.8049 9.81971 15.867C9.74285 16.035 9.73149 16.2184 9.51554 16.8079C9.29386 17.3996 8.73224 18.8826 8.69083 19.0197C8.60442 19.28 8.42355 20.0451 8.28501 20.4837C8.09789 21.0746 8.18227 20.6657 8.14411 20.7842C7.98612 21.276 7.8707 21.7318 7.75074 22.1278C7.57333 22.7058 7.16536 23.8861 7.16172 24.3345C7.28011 23.9129 7.40019 23.4962 7.52193 23.0842C6.92164 25.3715 6.35358 27.0853 5.9619 29.3856C5.98309 29.9324 6.37566 28.0481 6.0866 29.6486C6.14588 29.3634 6.20811 29.07 6.27001 28.7832C6.25703 28.7096 6.24413 28.636 6.23131 28.5625C6.3624 28.0734 6.49552 27.5897 6.6306 27.1116C6.57303 27.2434 6.51556 27.3758 6.45821 27.5087C6.84767 25.7555 7.29234 24.015 7.59212 23.4447C7.57074 23.4006 7.5494 23.3565 7.52809 23.3124C7.99972 21.7315 8.64229 19.3212 8.66993 19.8161C8.68562 19.7376 8.70139 19.6594 8.71724 19.5813C9.06915 18.6384 8.86466 19.024 8.97749 18.666C9.00052 18.5725 9.70266 16.7366 9.45576 17.5725C10.1511 15.8021 9.79527 16.3168 9.98104 15.8122C10.4935 14.6971 11.283 12.6646 11.0219 13.5535C11.1002 13.3895 11.1788 13.2271 11.2578 13.0663C11.4092 12.5 11.7728 11.9997 12.093 11.4506C12.1926 11.2592 12.2928 11.0705 12.3935 10.8844C12.433 10.7392 12.4751 10.5911 12.5166 10.446C13.6433 8.74978 12.9836 9.08629 13.7704 8.48128C13.711 8.61409 13.6521 8.74823 13.5937 8.88365C13.4201 9.18477 13.2507 9.49079 13.0935 9.78558C13.7919 8.58657 14.5546 7.43569 15.4162 6.36955C16.586 5.10665 17.1925 4.28056 18.7832 3.29007C18.9248 3.1879 19.0746 3.08635 19.2214 2.99276C19.1039 3.15497 18.5178 3.46198 19.6204 2.89211C19.7397 2.88603 19.0003 3.28929 18.6693 3.47693C18.587 3.51916 19.2125 3.05152 18.4829 3.54003C17.9991 3.90723 18.8862 3.2562 17.4654 4.3999C17.5253 4.36469 17.5851 4.3303 17.6448 4.29669C17.4955 4.42467 17.3465 4.55843 17.1979 4.69792C17.0418 4.8021 16.8975 4.89971 16.7511 5.00326C16.4712 5.35888 16.3103 5.59915 15.6435 6.39302C15.8095 6.15927 15.5134 6.41163 15.185 6.84569C15.2032 6.85963 15.2215 6.87356 15.2397 6.8875C14.5132 7.90026 14.695 7.53281 14.1575 8.4376C14.0851 8.51574 14.0127 8.5949 13.9403 8.67507C13.6697 9.20839 12.6874 11.0984 12.7744 10.709C12.5814 11.2942 11.9768 12.4031 11.6964 12.7982C11.7026 12.8406 11.7088 12.883 11.7151 12.9255C11.615 13.1522 11.5156 13.382 11.417 13.6148C11.3465 13.7377 11.2761 13.8616 11.2058 13.9866C11.1472 14.1566 11.0847 14.3383 11.0314 14.5008C10.9681 14.5888 10.9049 14.6773 10.8417 14.7665C10.7586 15.0398 10.6765 15.3163 10.5956 15.5959C10.512 15.7532 10.4287 15.912 10.3455 16.0722C10.3779 16.1135 9.78372 17.7248 9.58934 18.1972C9.55551 18.3379 9.52279 18.477 9.48992 18.6178C9.44422 18.6762 9.39853 18.7348 9.35285 18.7936C9.33644 18.9016 9.32021 19.0099 9.30414 19.1185C9.20644 19.348 9.10921 19.5798 9.01248 19.8138C8.80826 20.8343 8.70998 20.815 8.63977 21.0405C8.51224 21.4459 8.16672 22.8967 8.10292 23.1208C8.03327 23.3541 7.95976 23.4562 7.90315 23.646C6.99111 26.7937 7.46464 25.5171 7.3167 26.1589C7.24153 26.5057 7.142 26.7414 7.07273 27.051C6.95051 27.5564 6.42017 30.2279 6.3935 30.3665C6.34027 30.5855 6.25383 30.0244 6.15574 30.7534C6.2535 30.7955 5.84099 32.3291 6.13031 31.6312C5.9898 32.2779 5.86053 32.8925 5.73128 33.5308C5.87042 33.4797 5.64455 34.2587 5.50683 35.1178C5.30466 36.3223 4.98463 39.0925 4.8708 38.9698C4.85979 39.267 4.84962 39.5651 4.84029 39.8643C4.52736 41.8585 4.3436 43.8327 4.14879 45.8378C3.5682 51.7596 3.24711 58.2302 3.22447 64.1651C3.22319 64.4513 3.1747 64.4101 3.17402 64.6164C3.17376 64.7149 3.17393 64.8278 3.17453 64.9527C3.17703 66.2075 3.24386 68.6385 3.27854 70.0186C3.28955 70.5021 3.24931 70.7379 3.25219 70.8908C3.26225 71.4099 3.32207 71.283 3.3291 71.5247C3.33801 71.908 3.36622 73.9125 3.39919 74.5945C3.41432 74.9384 3.4885 75.3412 3.49642 75.7418C3.49717 75.7763 3.44023 75.7157 3.44103 75.7449C3.47839 76.4736 3.49804 76.0329 3.51071 76.2791C3.60185 78.0227 3.74333 79.9036 3.90926 81.8074C3.95009 82.2806 3.98225 83.0033 4.01987 83.4047C4.0344 83.5583 4.04698 83.2781 4.09874 83.8096C4.11689 83.9938 4.06968 84.0622 4.08835 84.27C4.1699 85.1641 4.37799 85.4404 4.32753 86.2134C4.50733 87.6878 4.90152 90.2318 5.11298 91.5637C5.16164 91.8774 5.15298 92.0341 5.20092 92.3317C5.23562 92.5475 5.34723 92.918 5.40332 93.251C5.45932 93.5841 5.49951 94.1167 5.61301 94.7476C5.73217 95.4146 5.91948 96.2545 5.94779 96.4022C5.98241 96.5842 5.93747 96.6804 5.97322 96.8615C6.07689 97.3991 6.44028 98.88 6.59998 99.5738C6.76835 100.317 6.84625 100.793 6.90567 101.05C6.96162 101.29 7.07884 101.556 7.10497 101.665C7.14569 101.834 7.09425 101.888 7.14588 102.101C7.23028 102.448 7.35604 102.8 7.49111 103.332C10.023 112.379 12.9846 123.161 20.7772 126.931C21.4315 127.141 21.878 127.2 22.621 127.204C22.8538 127.202 23.114 127.189 23.4194 127.148C23.9351 127.067 23.7332 127.179 24.1342 127.064C24.3118 127.007 24.255 126.966 24.4721 126.891C25.4639 126.556 26.5303 125.869 26.9187 125.55C27.0722 125.427 27.1909 125.249 27.4874 124.98C29.6909 122.988 31.6577 119.74 33.0634 116.65C33.8325 114.997 34.7918 112.444 35.4412 110.455C37.2635 104.979 38.599 98.8163 39.4275 93.5957C40.6886 85.6728 41.2506 77.6819 41.4973 69.6702C41.2472 73.4158 41.0098 78.5139 40.6062 82.6636C39.4094 94.5724 37.4162 107.563 32.0165 118.396C30.1849 121.992 26.785 126.844 22.9092 126.979C22.8399 126.982 22.7406 126.995 22.621 127.005C22.4496 127.019 22.2375 127.026 22.0216 127C21.9398 127.009 21.0001 126.733 20.6983 126.597C20.9412 126.867 19.7575 126.248 19.398 125.992C18.9446 125.733 17.9357 125.114 17.0377 124.098C16.2166 123.151 16.5196 123.369 16.4698 123.315C16.2083 122.969 16.036 122.906 15.8136 122.637C14.767 121.73 11.366 115.102 10.7567 113.103C10.565 112.607 10.6153 112.569 10.5725 112.456C10.4604 112.159 10.2403 111.732 10.0705 111.254C9.76422 110.397 9.46898 109.326 9.31992 108.857C8.94183 107.696 8.22118 105.453 7.82836 103.918C7.71529 103.482 7.77997 103.493 7.72923 103.295C7.50003 102.42 6.89822 100.151 6.67424 99.0716C6.29267 97.285 5.98032 95.4401 5.65515 93.6388C5.66075 93.5192 5.66644 93.3995 5.67222 93.2797C5.61518 93.1014 5.55846 92.9225 5.50205 92.743C5.01869 89.6628 4.55014 86.5134 4.23482 83.4112C4.1966 83.0601 4.07412 81.2886 4.04991 80.9889C4.02776 80.7401 3.94667 80.5075 3.92503 80.1447C3.89519 79.6363 4.04843 80.1059 3.94853 79.2776C3.92201 79.0544 3.88998 79.2754 3.83985 78.826C3.81731 78.6729 3.60173 75.7956 3.60126 75.6365C3.59151 75.3767 3.6817 75.1393 3.6801 75.072C3.67208 74.7228 3.59376 74.7402 3.57398 74.5076C3.51536 73.8267 3.52718 72.926 3.52125 72.814C3.44193 71.4541 3.30167 68.9363 3.3175 67.5139C3.31923 67.3181 3.37713 67.3408 3.37842 67.3065C3.38666 67.0845 3.31927 66.9472 3.31491 66.7357C3.30484 66.2325 3.30534 65.6015 3.31195 64.9527C3.32009 64.1339 3.33835 63.2955 3.34899 62.6582C3.35106 62.5267 3.32238 62.2487 3.32781 62.0146C3.36077 60.683 3.40629 61.1141 3.40892 61.039C3.41687 60.8591 3.36737 60.5414 3.37361 60.0641C3.38584 58.8424 3.47008 56.4716 3.53731 55.165C3.5869 54.1726 3.64861 54.193 3.65269 54.1278C3.66199 53.9895 3.63298 53.6015 3.66458 52.9548C3.72668 51.7162 3.76826 51.8491 3.79911 51.3369C3.80212 51.2938 3.7505 51.3651 3.78495 50.7949C3.84731 49.7021 4.09583 47.2241 4.20979 46.0631C4.25311 45.6078 4.22048 45.497 4.26698 45.0335C4.33861 44.2979 4.57104 42.6628 4.58869 42.5263C4.59303 42.4897 4.55372 42.4014 4.57958 42.1862C4.60804 41.9497 4.66162 41.721 4.68325 41.5457C4.80229 40.5564 4.96053 38.8082 5.06566 39.3149C5.06768 38.9882 5.07075 38.6626 5.07486 38.3383C5.38757 36.2525 5.71184 34.2124 6.09411 32.1752C6.18222 31.7068 6.29008 31.326 6.36714 30.9368C6.44026 30.5492 6.7543 28.8284 6.82152 28.5398C6.92144 28.0353 7.62077 25.1379 7.72349 24.803C7.91561 24.096 8.16581 23.4443 8.23173 23.1617C8.28469 22.9353 8.18983 23.1308 8.30075 22.703C8.49562 21.9458 8.92905 20.7003 8.99862 20.4842C9.02952 20.3886 8.93965 20.5625 9.23379 19.652C9.39277 19.1647 9.51045 18.9197 9.56934 18.7466C9.59028 18.6888 9.5023 18.7695 9.85059 17.8086C10.0927 17.1487 10.2337 16.8921 10.259 16.8238C10.2987 16.7195 10.3459 16.4732 10.5109 16.0545C10.886 15.0852 11.6692 13.3851 12.0924 12.5259C12.1759 12.3556 12.1018 12.3847 12.4392 11.7179C12.6816 11.2463 12.6748 11.3493 12.7662 11.1759C12.9137 10.8994 13.1014 10.4409 13.4438 9.84806C13.6581 9.47443 14.6101 7.86398 15.7202 6.51439C16.814 5.13604 18.0971 4.11745 18.2328 4.03331C18.411 3.90497 18.6124 3.76185 18.7095 3.71977C18.647 3.78657 18.5849 3.85453 18.5233 3.92368C17.7208 4.45076 18.0884 4.27724 17.8961 4.43821C17.614 4.66201 16.631 5.63027 16.4202 5.91991C16.3465 6.01559 16.5494 5.83815 16.1561 6.33537C15.7362 6.87834 15.4766 7.10926 15.4022 7.38253C14.727 8.11027 14.2961 9.01999 14.9733 8.05684C15.1682 7.79262 16.1497 6.35612 17.4333 5.1405C18.6987 3.88472 20.2728 3.12302 20.8116 2.97959C21.2642 2.82695 21.9222 2.66604 22.621 2.65808C23.2773 2.64421 23.9504 2.76889 24.4759 2.94763C25.1277 3.105 26.6 4.02824 26.4985 4.05105C27.0111 4.42706 26.4949 3.99242 26.607 4.06484C26.8612 4.17279 28.3447 5.54505 28.5902 5.86493C29.9076 7.25332 31.3354 9.346 32.1913 11.0724C32.137 10.9997 32.0827 10.9275 32.0284 10.856C31.8071 10.4714 30.7973 8.75261 30.6036 8.60604C32.2171 11.033 33.4972 13.7252 34.6029 16.5018C34.648 16.4127 35.9258 19.9066 35.9381 20.0874C35.8943 20.0327 35.8504 19.9781 35.8065 19.9238C35.21 17.9122 35.1495 18.1365 34.7077 16.7983C34.5015 16.2719 34.5247 16.4435 34.4121 16.1839C33.2627 13.6375 34.4872 16.0998 33.6 14.1568C33.8078 14.7648 33.0747 13.1805 32.7106 12.4885C32.6448 12.3242 31.5565 10.2701 31.4013 10.0483C30.6351 8.71466 29.0771 6.60819 28.0463 5.57928C27.2321 4.77459 26.7192 4.4204 25.8861 3.91206C25.2448 3.55107 25.4427 3.63574 25.1356 3.48303C24.4865 3.19296 24.2443 3.23962 23.8539 3.00103C23.4413 2.92545 23.0302 2.89752 22.621 2.91727C22.5766 2.91941 22.5323 2.92211 22.488 2.92537C22.4875 2.90349 22.4869 2.88161 22.4864 2.85974C22.1992 2.8695 21.9113 2.90288 21.6291 2.95822C21.5499 2.99606 21.4718 3.03573 21.3945 3.07716C20.4968 3.29956 20.8557 3.15655 20.6673 3.14872C20.474 3.2161 20.2797 3.29413 20.0843 3.38315C19.9604 3.49631 19.8413 3.61307 19.7233 3.73502C18.8998 4.1946 18.1412 4.80483 17.4218 5.52264C17.361 5.55182 17.3 5.58177 17.2388 5.61251C17.2535 5.62987 17.2681 5.64722 17.2828 5.66457C16.0983 6.90002 15.0797 8.36876 14.1747 9.92789C13.9523 10.3398 15.486 7.92114 15.6403 7.77923C16.2897 6.75027 18.437 4.57696 18.5088 4.71711C18.9945 4.16678 20.7538 3.22719 21.3366 3.22798C20.4967 3.44189 19.6589 3.87454 18.8913 4.43813C18.9321 4.44123 18.9726 4.44466 19.0129 4.44842C17.9953 5.09276 17.8516 5.24173 17.0502 6.25521C17.0225 6.23165 16.9948 6.2081 16.9671 6.18455C16.449 6.92506 15.3178 8.14414 15.4236 8.28376C15.1202 8.70502 14.8549 9.09625 14.5769 9.52939C14.0524 10.5205 14.9106 8.99048 12.9172 12.8386C12.7838 13.1135 12.7729 13.0369 12.5906 13.4411C12.5442 13.5497 12.2678 14.2761 11.7354 15.5764C11.6514 15.7826 11.6114 15.7845 11.5213 15.9999C11.3064 16.5082 11.0111 17.5174 11.067 17.0268C10.3075 19.0094 10.6986 18.2382 10.5213 18.8607C10.4062 19.2813 10.3674 19.1751 10.2628 19.5416C10.1396 19.9929 10.292 19.7038 9.71185 21.4862C9.76821 21.282 9.82503 21.0791 9.88227 20.8776C9.83252 20.9722 9.78282 21.0673 9.73318 21.1629C9.46651 22.2069 9.4316 22.0953 9.394 22.6224C9.13116 23.3651 8.94924 24.0064 8.68366 25.072C8.19851 27.0864 8.55737 26.1013 7.86649 28.3812C7.80485 28.7644 7.74468 29.1507 7.68601 29.54C7.50528 30.1627 7.55059 29.6385 7.34805 30.5647C7.61379 29.8613 7.17464 31.8168 7.22107 32.183C7.18887 32.2134 7.15666 32.2438 7.12445 32.2743C7.08403 32.489 7.04674 32.6904 7.00845 32.8997C7.02889 32.9043 7.04932 32.9089 7.06976 32.9135C7.00381 33.1874 6.93846 33.4628 6.87369 33.7397C6.8571 33.9538 6.84096 34.1687 6.82527 34.3843C6.72246 34.7242 6.61972 35.0706 6.52052 35.4033C6.48224 35.6186 6.44435 35.8347 6.40684 36.0515C6.44893 35.988 6.49103 35.9245 6.53313 35.8612C6.47818 36.138 6.42383 36.4162 6.37009 36.6956C6.4723 36.3779 6.49869 36.5897 6.366 37.4697C6.25897 38.1971 6.26628 37.3616 6.09361 38.9147C6.0831 39.0239 6.12838 39.2237 5.95234 40.7024C5.75136 42.4556 5.80028 41.5993 5.76012 41.9116C5.75243 41.9732 5.72857 42.5173 5.678 43.0274C5.649 43.3182 5.58751 43.5885 5.5836 43.6259C5.56631 43.8016 5.60638 43.858 5.5826 44.1021C5.52184 44.7215 5.41745 45.5576 5.36353 46.1748C5.33883 46.4549 5.34363 46.7136 5.33313 46.8376C5.31672 47.0288 5.25401 47.2678 5.23788 47.462C5.17758 48.1764 5.23472 49.2955 5.01699 49.6054C5.14597 50.3044 4.83773 51.7418 4.96614 51.6449C4.7883 53.4886 4.7773 58.4338 4.58235 58.2878C4.73727 59.3434 4.61103 59.2421 4.60525 59.6818C4.6 60.173 4.63918 59.9194 4.63182 60.3102C4.61531 61.2248 4.59389 62.0983 4.59277 63.0032C4.56351 62.8605 4.53445 62.7178 4.50559 62.5752C4.49479 63.5273 4.56258 63.1995 4.5797 64.1744C4.58622 64.5192 4.59012 64.7704 4.59102 64.9527C4.59556 65.7191 4.54309 65.2656 4.48273 65.4803C4.55428 65.4109 4.5777 67.5218 4.57567 67.7333C4.57311 67.8622 4.46042 67.2991 4.52528 68.593C4.55339 68.5214 4.58151 68.4499 4.60964 68.3783C4.58232 68.9726 4.68954 70.5681 4.6916 70.8367C4.69181 70.9593 4.4731 71.6333 4.69574 72.2391C4.66872 72.314 4.64172 72.3889 4.61473 72.4638C4.68337 73.1405 4.75576 73.8134 4.83184 74.4822C4.78288 74.593 4.734 74.7048 4.68512 74.8162C4.69795 75.0321 4.71114 75.2476 4.72469 75.4628C4.76493 75.3173 4.80526 75.1718 4.84567 75.0262C4.903 76.3606 5.10329 77.9526 4.95858 78.2455C5.01193 78.5279 5.066 78.8094 5.12076 79.09C5.08023 79.2783 5.03986 79.4664 4.99965 79.6545C5.1277 80.9539 5.17014 80.9826 5.3173 81.872C5.26981 81.8409 5.22235 81.8099 5.17491 81.7788C5.3011 82.4379 5.48302 83.619 5.60237 84.5791C5.65774 85.0322 5.69006 85.8106 5.70892 85.9153C5.72657 86.0194 6.10343 87.0482 5.91017 87.1902C6.21007 88.74 6.21671 89.4149 6.31384 90.0547C6.37725 90.4647 6.45656 90.6438 6.53405 91.1021C6.64478 91.7555 6.72995 92.4196 6.79876 92.803C6.83801 93.0207 6.89485 93.0532 6.92228 93.2026C7.0532 93.9074 6.92925 93.5037 7.06499 94.2428C7.07789 94.311 7.2357 94.8373 7.34567 95.4575C7.40604 95.8032 7.51066 96.6958 7.52674 96.7719C7.59846 97.1184 7.67356 96.7988 7.76288 98.0228C7.78188 97.9831 7.8009 97.9435 7.81991 97.9038C8.19664 99.3517 8.13524 99.5907 8.19156 99.8835C8.19926 99.921 8.3264 100.269 8.36967 100.482C8.44256 100.842 8.41471 100.999 8.43067 101.079C8.48776 101.364 8.73615 102.263 8.83659 102.902C8.97976 102.743 9.59694 104.811 9.53956 105.349C9.68571 105.713 9.83323 106.073 9.98206 106.427C9.99843 106.603 10.014 106.775 10.032 106.953C10.0964 107.047 10.161 107.14 10.2257 107.233C10.3204 107.798 10.418 108.355 10.5185 108.903C10.6024 108.913 10.6864 108.923 10.7703 108.933C10.8108 109.082 10.8543 109.239 10.8967 109.392C10.8785 109.528 10.8606 109.664 10.8427 109.8C10.9179 109.983 10.9934 110.164 11.0693 110.344C11.1271 110.375 11.185 110.406 11.2429 110.437C11.6424 111.382 11.0574 111.07 12.123 112.775C12.2018 113.067 12.2915 113.382 12.3772 113.679C12.673 113.943 12.8222 114.556 13.062 115.04C13.2286 115.374 13.2826 115.33 13.4955 115.779C13.7091 116.226 13.6426 116.234 13.6587 116.27C13.832 116.635 14.0274 116.893 14.1519 117.16C14.1708 117.2 14.1517 117.337 14.3217 117.667C14.4883 117.989 14.6794 118.168 14.9404 118.656C15.0752 118.905 15.0586 119.008 15.1801 119.222C15.7817 120.286 16.727 121.039 16.9328 121.944C17.0951 122.085 18.1268 123.009 18.5164 123.37C19.1358 123.968 18.8417 123.798 19.084 124.026C19.117 124.051 19.332 124.217 19.8722 124.585C19.9676 124.648 19.9702 124.595 19.9842 124.603C20.6258 125.052 21.8007 125.508 22.4345 125.493C22.4577 125.494 22.5215 125.476 22.621 125.461C22.7699 125.438 22.9862 125.425 23.3102 125.467C24.0037 125.269 25.6963 124.663 26.5991 123.446C26.7349 123.308 26.9331 123.169 26.9938 123.102C27.5107 122.497 27.2221 122.696 28.4958 121.343C28.3502 121.418 28.5466 121.044 28.9027 120.514C29.4114 119.74 29.1706 120.376 29.5628 119.721C29.5297 119.7 29.4967 119.68 29.4636 119.659C30.4492 118.189 30.4622 117.792 31.2474 116.139C31.5165 115.563 31.9889 114.682 32.0486 114.536C32.0721 114.483 32.2559 113.782 32.2804 113.716C32.4226 113.352 32.5447 113.159 32.6684 112.837C33.0623 111.816 33.3871 110.468 33.5197 110.785C33.573 110.48 33.6252 110.173 33.6762 109.863C34.2794 108.809 34.1997 107.88 34.4996 107.709C34.5125 107.492 34.5248 107.274 34.5365 107.054C35.9532 102.205 36.9829 97.1824 37.7601 92.0987C37.7146 91.8867 38.0469 89.6817 38.0712 89.5615C38.1951 89.0427 38.3012 89.6176 38.3938 88.5505C38.3315 88.4227 38.2691 88.2948 38.2064 88.1669C38.3401 86.8205 38.34 87.4756 38.4535 86.9491C38.4691 86.7244 38.4012 86.7895 38.4302 86.4858C38.5913 84.8687 38.8899 81.505 39.0003 79.7159C39.0239 79.356 39.0774 79.4145 39.0851 79.3025C39.1053 78.9945 39.0723 78.3801 39.1084 77.7563C39.337 74.0374 39.5013 68.7956 39.515 64.9527C39.5158 64.8401 39.5164 64.7288 39.5171 64.6189C39.5186 64.3562 39.5894 64.3235 39.5908 64.1462C39.5924 63.9003 39.5261 63.352 39.5272 63.0938C39.5282 62.8503 39.5795 62.694 39.5803 62.4334C39.5854 61.241 39.4422 59.6427 39.549 58.3639C39.5591 58.2568 39.7892 56.9101 39.806 56.8787C39.9105 56.6961 40.1499 57.879 40.2172 55.9172C40.4494 57.6576 40.6868 57.104 40.6872 54.8216C40.7855 55.9607 40.8731 57.1015 40.9503 58.2433C40.9807 58.2439 41.0111 58.2445 41.0416 58.2451C41.1506 57.199 41.1565 56.1627 41.0798 54.5793C41.111 54.6271 41.1421 54.6751 41.1732 54.7229C41.3953 56.1143 41.4943 57.8031 41.721 58.8656C41.8091 57.2942 41.8798 55.7201 41.9322 54.1437C41.9591 54.2208 41.9859 54.298 42.0126 54.3751C42.115 55.124 42.227 56.767 42.304 57.3908C42.602 59.7745 42.3719 55.2919 42.5241 56.0229C42.637 58.5491 42.6999 61.0776 42.715 63.6064C42.8606 63.6966 42.808 53.9563 43.0386 54.0381C43.1015 54.8333 43.1592 55.6287 43.2118 56.4248C43.2675 56.0666 43.3223 55.708 43.3762 55.3491C43.4033 55.4459 43.4304 55.5428 43.4573 55.6398C43.5743 56.9832 43.6765 58.3287 43.7644 59.6753C43.6011 55.578 43.5039 53.6785 44.012 52.6595C44.033 52.7698 44.0538 52.8802 44.0746 52.9908C43.7851 53.9018 44.0933 58.0884 44.1941 60.3206C44.2888 59.863 44.1561 57.8993 44.2002 57.4818C44.2137 57.3633 44.2984 57.7715 44.3253 57.4972C44.4017 56.7808 44.3813 53.733 44.5162 54.1684C44.6204 54.4477 44.904 59.3466 44.8967 60.3043C44.9874 58.0583 44.9439 55.7451 44.9873 53.4843C45.2875 54.8922 45.6274 56.1416 45.7065 58.7444C45.857 59.5356 45.8372 54.0146 45.8773 53.8816C45.9936 54.8326 46.1022 55.7849 46.2035 56.7383C46.158 55.9301 46.1075 55.1225 46.0517 54.3151C46.0749 54.3114 46.0981 54.3078 46.1213 54.3042C46.3244 56.3929 46.5809 58.3059 46.5988 60.708C46.7203 60.628 46.6868 59.1906 46.6701 58.4929ZM28.5534 6.30132C28.5506 6.36344 28.018 5.76878 27.7031 5.47468C27.744 5.52547 27.7849 5.57681 27.8256 5.6287C27.1792 4.92627 25.8118 3.96706 25.7061 4.04363C25.1659 3.75127 25.4434 3.82041 25.2699 3.7184C25.1991 3.67397 24.4721 3.37964 23.8983 3.19773C23.7592 3.16501 23.6192 3.13768 23.4788 3.11603C23.4467 3.14173 23.415 3.16774 23.3838 3.19405C23.1975 3.13091 23.007 3.07789 22.8117 3.03575C24.8703 3.06091 26.9165 4.46832 28.5509 6.29858C28.5517 6.29949 28.5525 6.3004 28.5534 6.30132ZM11.9988 14.6832C11.6172 15.5222 11.0601 16.902 11.2546 16.6531C11.4668 16.0819 11.6853 15.5198 11.9062 14.9771C11.9368 14.8789 11.9653 14.7864 11.9988 14.6832ZM10.3661 108.837C10.4888 109.628 10.8309 110.292 11.2266 111.437C11.2523 111.426 11.278 111.415 11.3037 111.404C11.0639 110.955 10.6697 109.71 10.3661 108.837ZM38.1383 27.6237C38.1754 27.7984 38.2125 27.9749 38.2488 28.1497C38.0025 27.4591 38.0248 27.319 37.8179 26.5344C37.8054 26.4873 37.7921 26.5077 37.7877 26.4911C37.7363 26.2954 37.7106 26.1098 37.6644 25.9345C37.5746 25.5954 37.4827 25.332 37.3197 24.7349C37.1925 24.2716 37.2245 24.2594 37.1783 24.098C37.1412 23.9629 36.6554 22.6236 36.4235 21.7505C36.0242 20.0647 38.0853 27.0867 38.1383 27.6237ZM39.1887 32.665C39.1546 32.4959 39.1203 32.3274 39.0857 32.1593C39.2375 32.6525 39.0274 31.6447 38.863 30.8867C38.9191 30.904 39.2282 32.4839 39.3798 33.2028C39.3164 33.0228 39.2527 32.8435 39.1887 32.665ZM32.757 12.0856C33.0589 12.6733 32.9464 12.6091 32.9158 12.5918C32.822 12.4014 32.7277 12.2134 32.6329 12.0279C32.6743 12.047 32.7156 12.0662 32.757 12.0856ZM34.8093 16.6435C34.6951 16.4679 34.134 15.1374 33.8477 14.509C33.8356 14.4822 33.9349 14.6418 33.7377 14.2038C33.6856 14.0754 32.9913 12.8148 33.2213 13.0571C33.7971 14.2364 34.316 15.4185 34.8086 16.6417C34.8088 16.6423 34.8091 16.6429 34.8093 16.6435ZM35.3031 18.0212C35.197 17.7734 35.0867 17.5193 34.9756 17.2678C34.9452 17.1279 34.9146 16.9887 34.8838 16.8501C35.0007 17.1362 35.1173 17.428 35.2316 17.72C35.2555 17.8201 35.2794 17.9205 35.3031 18.0212ZM39.3235 89.3467C39.2655 89.4026 39.2072 89.4603 39.1491 89.5169C39.0875 89.7608 39.1398 90.9814 39.2334 90.6109C39.265 90.1917 39.2952 89.7693 39.3235 89.3467ZM40.0044 84.3316C40.0547 84.0848 40.1047 83.8357 40.154 83.5887C40.0946 83.2967 40.0344 83.0042 39.9733 82.7113C39.8072 83.9316 39.6008 85.2644 39.8763 85.074C39.8469 85.3579 39.8169 85.6408 39.7863 85.9228C39.7075 85.6729 39.6705 85.703 39.5232 86.4302C39.6502 86.6078 39.4895 87.3768 39.4135 88.2541C39.5 87.6206 39.5842 86.9748 39.6635 86.3377C39.6891 86.3407 39.7146 86.3437 39.7402 86.3467C39.5687 87.7722 39.9358 86.0207 39.9278 85.0836C39.9695 85.0141 40.0113 84.9446 40.053 84.8749C40.0371 84.694 40.0209 84.5129 40.0044 84.3316ZM4.37713 80.9762C4.37442 81.1568 4.37193 81.3371 4.36965 81.5172C4.68168 82.1894 4.31214 80.7901 4.42484 79.7889C4.30419 80.1303 4.18616 78.6091 4.17112 78.5205C4.13519 78.6999 4.09942 78.8792 4.0638 79.0584C4.16476 79.7022 4.26846 80.3325 4.37713 80.9762ZM4.73384 86.025C4.78066 85.3916 5.1621 88.4223 5.28388 89.4162C5.31186 89.6634 5.30677 90.1146 5.34173 90.2905C5.38317 90.3946 5.42473 90.4985 5.4664 90.6022C5.39482 90.7458 5.79797 92.6833 5.9828 93.4545C5.96275 93.5326 5.94273 93.6106 5.92273 93.6886C5.9838 93.9674 6.04556 94.2449 6.10799 94.521C6.06937 94.4916 6.03077 94.4622 5.99219 94.4326C6.0686 94.6379 6.14459 94.8373 6.22271 95.0455C6.42057 95.8787 6.14792 95.3929 6.32088 96.0113C6.51442 96.6957 6.40343 95.5363 6.47661 95.5441C6.34956 94.9692 6.08674 93.7159 5.98845 93.1339C5.93339 92.8047 6.1117 93.1526 5.74372 91.7554C5.7273 91.4406 5.71161 91.1246 5.69662 90.8074C5.55796 90.2441 5.42031 89.6613 5.28942 89.1014C5.31934 88.989 5.34931 88.8765 5.37934 88.764C5.37663 88.7042 5.09761 87.386 5.07445 87.4598C5.08856 86.9007 4.96554 85.8037 4.8385 84.6295C4.80175 84.5191 4.76512 84.4084 4.72862 84.2976C4.90743 85.4284 4.74347 84.662 4.73545 85.0052C4.73084 85.2034 4.74793 85.8037 4.73384 86.025ZM38.2178 97.1668C38.4181 95.2818 38.3311 96.4524 38.6773 94.4258C38.5792 94.5534 38.4811 94.6804 38.383 94.8069C38.3511 95.8436 37.9583 97.4443 38.2174 97.1687C38.2175 97.168 38.2176 97.1674 38.2178 97.1668ZM40.3275 77.1465C40.311 78.2319 40.4687 77.7028 40.4161 79.0865C40.4161 79.0871 40.416 79.0878 40.416 79.0885C40.4737 78.3771 40.5281 77.6509 40.577 76.9461C40.4938 77.0131 40.4106 77.0799 40.3275 77.1465ZM18.1001 124.422C17.4427 123.765 17.5476 123.938 17.0342 123.226C16.112 122.341 16.825 123.151 16.7406 123.224C16.9506 123.416 17.1877 123.628 17.4116 123.811C17.8262 124.382 17.323 123.95 17.3147 123.954C17.3151 123.955 17.3155 123.955 17.3159 123.956C17.2914 123.979 17.27 123.97 17.4458 124.175C17.6607 124.262 17.8788 124.344 18.1001 124.422ZM15.3325 121.395C15.5935 121.636 15.7491 121.704 15.2876 120.942C15.2873 120.942 15.287 120.941 15.2866 120.941C15.1088 120.978 14.7574 120.192 14.5401 119.847C14.4695 119.766 14.4045 119.692 14.3367 119.613C14.6504 120.221 14.9827 120.818 15.3325 121.395ZM8.97074 107.378C9.13764 107.327 9.3816 108.078 9.21528 106.969C9.1519 106.767 9.08894 106.564 9.02638 106.36C8.95053 106.236 8.87486 106.111 8.79938 105.986C8.37999 103.269 7.62352 102.631 9.07599 107.009C9.07629 107.01 9.07659 107.01 9.07689 107.011C9.04062 107.131 9.00533 107.254 8.97074 107.378ZM10.5032 111.927C10.6027 111.927 10.7023 111.928 10.8018 111.928C10.8033 112.574 11.268 113.199 11.5758 114.349C11.643 114.436 11.7102 114.521 11.7775 114.606C11.8447 115.05 13.7129 118.883 13.4394 117.98C13.313 117.607 12.8413 116.85 12.8114 116.779C12.7093 116.552 12.642 116.223 12.4575 115.832C12.3522 115.611 12.0396 115.148 11.8454 114.693C11.3914 113.65 10.8609 111.586 10.1576 110.252C10.1485 110.139 10.1395 110.027 10.1306 109.914C9.75118 108.834 9.7916 109.238 9.57296 108.207C8.91271 107.655 10.9311 112.188 10.2678 111.324C10.268 111.325 10.2682 111.325 10.2685 111.326C10.3434 111.52 10.4245 111.728 10.5032 111.927ZM29.0007 122.453C29.1214 122.454 29.7182 121.387 29.7236 121.739C29.9004 121.359 30.0641 120.977 30.216 120.598C30.1979 120.59 30.1797 120.582 30.1615 120.574C29.9625 120.919 29.7529 121.265 29.533 121.607C29.5068 121.591 29.4806 121.574 29.4544 121.557C29.245 122.131 27.6145 123.974 27.5746 123.803C27.5209 123.925 27.4664 124.046 27.4111 124.164C26.516 124.861 25.8538 125.545 24.8245 125.91C24.7638 125.98 24.7022 126.049 24.6395 126.117C24.5776 126.11 24.5166 126.102 24.4565 126.093C24.1045 126.228 23.738 126.329 23.3834 126.385C22.8062 126.522 23.0815 126.571 23.5639 126.537C24.047 126.505 24.7185 126.275 24.8594 126.194C24.8946 126.175 24.865 126.106 25.083 125.983C25.5088 125.864 27.7185 124.195 28.2438 123.384C28.2887 123.413 28.3336 123.442 28.3786 123.471C28.5894 123.147 28.7963 122.809 29.0007 122.453ZM7.57704 101.448C7.60656 101.367 7.63612 101.286 7.66571 101.205C7.33298 99.9932 7.21415 99.2294 7.12846 99.5704C7.1286 99.571 7.12874 99.5716 7.12888 99.5723C7.26972 100.183 7.42369 100.83 7.57704 101.448ZM13.5533 10.2822C13.4845 10.273 13.1651 10.7867 12.8643 11.4761C12.8975 11.4529 12.9307 11.4298 12.9639 11.4068C13.0932 11.042 13.4109 10.6187 14.0032 9.58662C13.9753 9.56985 13.9475 9.55308 13.9196 9.5363C13.7871 9.79547 13.6743 10.0287 13.5533 10.2822ZM7.80727 102.488C7.8432 102.874 8.27465 103.869 8.10836 103.185C7.98111 102.66 7.78831 102.284 7.80727 102.488ZM40.644 72.8698C40.6212 73.1512 40.5978 73.432 40.5739 73.7121C40.621 73.8608 40.6678 74.0093 40.7144 74.1579C40.7145 74.1572 40.7145 74.1566 40.7145 74.1559C40.6925 73.7283 40.669 73.2996 40.644 72.8698ZM20.5597 126.044C19.8775 125.765 19.2048 125.348 18.5576 124.829C18.5331 124.846 18.5086 124.863 18.4841 124.88C19.1982 125.321 19.3974 125.553 19.5553 125.663C19.5546 125.662 19.5539 125.662 19.5532 125.661C20.0556 125.994 20.5437 126.235 21.0297 126.424C20.8688 126.305 20.7125 126.178 20.5597 126.044ZM22.9129 126.643C22.8503 126.549 22.7852 126.497 22.621 126.482C22.4389 126.461 22.1397 126.501 21.5654 126.462C21.6023 126.496 21.6398 126.529 21.6779 126.562C22.2432 126.647 22.5714 126.578 22.4697 126.688C22.5202 126.685 22.5706 126.682 22.621 126.677C22.719 126.669 22.8163 126.657 22.9129 126.643ZM13.5478 118.39C13.572 118.582 14.296 119.725 14.2874 119.637C14.2816 119.624 13.4911 118.039 13.5478 118.39ZM20.2449 3.0616C19.9751 3.16871 19.7257 3.28471 19.4685 3.42085C19.7941 3.21989 20.132 3.04222 20.4805 2.89411C20.4012 2.94819 20.3227 3.00403 20.2449 3.0616ZM23.2183 2.39974C23.4121 2.44761 22.7709 2.4334 23.9274 2.66488C23.4952 2.56918 23.0591 2.52238 22.621 2.52645C22.2061 2.53011 21.7914 2.58015 21.3876 2.67256C21.7733 2.56745 22.1724 2.50104 22.5752 2.47808C22.5045 2.44818 22.4328 2.41953 22.3601 2.39221C22.4468 2.38657 22.5338 2.38286 22.621 2.38112C22.8204 2.37712 23.0194 2.38334 23.2183 2.39974ZM24.1272 2.63976C23.9071 2.54759 24.4069 2.62346 24.9754 2.84256C25.5426 3.05166 26.1562 3.42251 26.2591 3.49563C26.3048 3.52596 26.4847 3.71484 26.5558 3.78031C26.234 3.56023 25.8919 3.35512 25.5506 3.18266C25.6602 3.25971 25.7599 3.33496 25.8636 3.41556C25.4703 3.20049 25.0606 3.01718 24.643 2.87766C24.8253 2.92108 25.0127 2.9751 25.1921 3.03383C24.8459 2.87283 24.4916 2.74012 24.1272 2.63976ZM15.497 7.08404C15.7138 6.80063 15.9318 6.53001 16.1508 6.2724C16.0831 6.30353 16.0152 6.33541 15.947 6.36804C15.8165 6.52686 15.6863 6.69029 15.5566 6.85827C15.5365 6.93322 15.5166 7.00848 15.497 7.08404ZM20.6467 2.78348C20.2748 3.05905 18.9757 3.32936 20.3943 2.81766C20.5381 2.77411 20.6828 2.75577 20.6467 2.78348ZM27.0581 4.07244C27.9466 4.66066 27.6108 4.66255 26.8835 4.01395C26.8468 3.98223 26.9916 4.03072 27.0581 4.07244ZM32.1006 10.3489C32.1441 10.4309 32.1624 10.5917 32.6234 11.3147C32.6821 11.4432 32.7431 11.5776 32.7989 11.7035C32.637 11.3989 31.2213 8.99203 31.464 9.29012C31.6951 9.66488 31.8792 9.95377 32.1006 10.3489ZM30.8876 7.89265C30.6535 7.55445 30.393 7.19661 30.1427 6.87275C30.2073 6.99481 30.2715 7.11827 30.3353 7.24312C30.2066 7.07904 30.0837 6.92702 29.9474 6.7622C29.7565 6.45365 29.5756 6.17041 29.3672 5.86911C29.9667 6.55133 30.5284 7.29116 31.0449 8.04692C30.9925 7.99497 30.9401 7.94355 30.8876 7.89265ZM22.2639 2.05643C22.3789 2.05395 22.4976 2.05299 22.621 2.05463C23.3093 2.06507 24.1472 2.14865 25.1364 2.5571C25.137 2.55741 25.1375 2.55771 25.1381 2.55802C25.1975 2.58307 25.2839 2.65295 25.466 2.73903C25.5457 2.77168 26.3543 3.15712 27.0421 3.67342C27.7299 4.17272 28.3072 4.7502 28.1908 4.67378C27.1663 3.79329 26.7666 3.48917 26.4432 3.4139C26.4045 3.35859 26.3635 3.30255 26.3212 3.24645C25.2462 2.56313 24.8522 2.55955 24.1883 2.40033C24.1959 2.38208 24.2035 2.36385 24.2111 2.34562C23.7671 2.228 23.3092 2.15754 22.8519 2.14017C22.916 2.15533 22.9796 2.17149 23.0428 2.18862C22.9025 2.17939 22.7619 2.17504 22.621 2.17562C22.6004 2.17571 22.5799 2.17589 22.5594 2.17619C22.1665 2.12229 21.6571 2.17049 22.2639 2.05643ZM31.8971 9.53256C32.2535 9.77369 33.9617 13.2254 34.6326 14.8665C34.1963 14.0338 33.6622 12.7263 33.2011 11.818C32.3072 10.0898 32.8811 11.3076 32.7093 11.0251C32.6279 10.8887 32.1693 9.87493 31.8971 9.53256ZM19.6024 2.83394C20.4271 2.44388 20.909 2.25977 21.6751 2.18068C21.6134 2.20165 21.5525 2.2235 21.4918 2.24632C21.3652 2.26119 20.7647 2.3867 20.2843 2.56979C19.7896 2.75082 19.4069 2.9514 19.6024 2.83394ZM35.5536 17.2815C34.9278 15.508 35.1451 16.4171 34.8661 15.4741C35.1167 16.0718 35.3533 16.6626 35.5863 17.2695C35.5754 17.2735 35.5645 17.2775 35.5536 17.2815ZM7.4876 104.787C7.68337 105.548 7.88699 106.431 8.10263 106.853C7.96737 106.337 7.83473 105.813 7.70476 105.281C7.63027 105.111 7.55943 104.951 7.4876 104.787ZM2.86092 82.5279C2.85777 82.712 2.98423 83.4223 2.99198 83.497C3.00574 83.6366 2.97348 83.6013 2.96622 83.604C3.06369 84.5241 3.06625 83.6644 3.15564 84.3474C3.16961 84.4661 3.29853 86.0729 3.37996 86.7132C3.50388 87.721 3.62779 88.7174 3.67873 89.0868C3.76209 89.7005 3.99554 90.886 4.15489 91.9042C4.22061 92.3259 4.1887 92.4793 4.25852 92.9119C4.67385 95.6491 5.82475 101.01 6.40722 103.393C6.54536 103.992 6.61671 104.57 6.7033 104.876C6.79358 105.113 6.88348 105.344 6.97788 105.588C6.94507 106.415 7.22812 106.61 7.48126 107.4C7.64306 107.903 7.64873 108.175 7.66889 108.242C7.80892 108.701 7.91215 108.914 8.02887 109.265C8.15785 109.655 8.31513 110.245 8.3691 110.387C8.40357 110.469 8.39821 110.178 8.92419 111.697C9.47867 113.274 10.0586 114.79 10.7398 116.331C10.7852 115.681 10.4111 115.342 10.139 114.708C10.0664 114.538 10.1553 114.628 10.0927 114.48C9.91154 114.052 9.55984 113.274 9.44006 112.917C9.31024 112.533 9.4624 112.626 9.24654 112.152C9.2356 112.128 9.22077 112.222 9.17195 112.11C8.69738 111.001 8.63565 110.583 8.17568 109.131C7.81337 108.163 6.19901 102.201 6.22078 101.988C6.08815 100.876 7.67987 107.2 7.9381 107.903C8.01128 108.162 7.88227 107.906 7.94377 108.144C7.97093 108.248 8.32784 109.098 8.61978 109.96C8.9688 111.019 9.65629 113.121 10.0532 114.088C12.5895 119.984 15.8747 127.495 22.621 128.07C24.7988 128.085 26.8178 126.906 28.4251 125.351C28.5604 125.219 28.6871 125.017 29.109 124.558C36.488 115.515 38.9453 102.942 40.7978 91.3559C41.1697 88.7743 41.4087 86.2437 41.7191 83.6305C41.6986 83.3052 41.6772 82.9791 41.6548 82.6522C41.6228 83.4737 41.3486 84.9835 41.3313 85.1189C41.3254 85.1682 41.3506 85.4878 41.2914 85.9886C41.2085 86.69 41.1201 86.9975 41.1133 87.0562C41.0916 87.2374 41.1591 87.1251 41.1381 87.2981C40.98 88.589 40.867 89.5605 40.6992 90.7467C40.5096 92.0695 40.3074 92.7208 40.2576 93.7046C40.1983 93.8066 40.1389 93.9084 40.0795 94.0099C40.1601 94.7368 39.3501 99.0347 38.9462 100.725C38.8226 101.27 38.7727 101.157 38.7319 101.339C38.7047 101.453 38.8126 101.439 38.4638 102.828C38.2813 103.545 38.1675 103.712 38.0807 104.067C38.0334 104.259 38.1072 104.245 38.0367 104.519C37.6242 106.115 37.2398 107.4 36.7488 108.944C36.6116 109.373 36.5564 109.359 36.527 109.454C36.4187 109.803 36.3029 110.475 35.9964 111.359C35.4966 112.856 34.3524 115.714 33.7511 116.858C33.6675 117.023 33.5438 117.132 33.4873 117.254C33.4004 117.441 33.4236 117.549 33.4083 117.582C33.1005 118.215 33.2298 117.808 33.0357 118.232C32.9283 118.462 32.89 118.713 32.6166 119.241C32.2539 119.932 32.2466 119.747 32.0978 120.03C32.0824 120.059 32.133 120.101 31.9792 120.369C31.3773 121.428 30.4379 122.844 29.7083 123.719C29.5005 123.971 29.3339 124.106 29.0208 124.451C28.7142 124.789 27.6991 125.883 26.5026 126.649C25.3234 127.446 24.0159 127.752 23.8225 127.766C23.7823 127.769 24.1803 127.608 23.5173 127.727C23.3281 127.794 23.1349 127.851 22.9373 127.899C22.8311 127.886 22.7257 127.87 22.621 127.851C22.3937 127.81 22.172 127.757 21.9554 127.692C21.9514 127.796 21.4618 127.807 20.9836 127.684C20.5002 127.567 20.0705 127.333 20.1191 127.24C19.9226 127.149 19.7297 127.049 19.5464 126.945C19.0832 126.862 18.8339 126.677 18.0636 126.214C17.9777 126.094 17.8881 125.967 17.8138 125.85C17.7686 125.851 17.7233 125.852 17.6777 125.853C17.4173 125.44 16.7292 124.996 16.6686 124.931C16.408 124.674 16.2455 124.435 16.125 124.304C15.6848 123.839 14.7636 122.751 14.3514 122.086C14.3317 122.055 14.4076 122.048 14.2885 121.857C14.0854 121.526 13.9825 121.552 13.7977 121.044C13.7163 120.969 13.635 120.892 13.5536 120.815C13.5062 120.709 13.4591 120.602 13.4121 120.495C13.0721 119.942 12.7291 119.344 12.412 118.757C12.7912 119.228 12.524 118.605 12.1463 118.05C12.0183 117.862 12.0468 118.072 12.0038 118.009C11.9194 117.924 10.6909 115.155 10.6797 114.959C10.6051 114.837 10.5306 114.713 10.4563 114.588C10.4681 114.505 10.48 114.421 10.4919 114.338C10.4482 114.27 10.4045 114.201 10.3608 114.133C10.1284 113.381 9.25909 111.503 9.1617 111.159C9.10439 110.969 9.32972 111.086 9.00766 110.186C8.95054 110.17 8.89342 110.154 8.83631 110.137C8.76083 109.932 8.68267 109.716 8.61158 109.518C8.49179 109.134 8.39601 108.541 8.44581 108.506C8.37484 108.394 8.30401 108.281 8.23333 108.168C8.23233 107.792 7.69078 106.077 7.42961 105.362C7.40404 105.139 7.38357 104.931 7.3613 104.715C7.24858 104.449 7.13663 104.18 7.02545 103.908C6.8482 103.258 7.08853 103.932 7.05881 103.791C6.99167 103.492 6.51766 102.019 6.68181 102.087C6.63397 101.884 6.58651 101.679 6.53944 101.474C6.47561 101.378 6.4119 101.281 6.34831 101.184C6.40387 100.797 6.21459 100.198 6.00254 98.9379C5.94938 98.8389 5.89634 98.7396 5.84341 98.6401C5.80798 98.2432 5.77115 97.8302 5.741 97.4429C5.674 97.3738 5.60707 97.3045 5.54023 97.235C5.50025 97.0683 5.46052 96.9011 5.42104 96.7334C5.47072 96.3689 5.23162 95.7702 5.22201 95.4422C5.20825 94.9636 5.35293 95.3134 5.52761 96.1661C5.59305 96.0813 5.10562 93.5572 5.00947 92.961C4.99958 93.0027 4.98971 93.0444 4.97984 93.0861C5.09143 93.6891 5.20611 94.2863 5.32381 94.8775C5.20103 95.4124 4.97338 93.789 4.82613 93.0338C4.81298 92.9679 4.66727 92.5772 4.56001 91.8298C4.51733 91.5393 4.4636 90.3765 4.43946 90.1541C4.2451 88.3736 4.25871 89.704 4.1744 87.9548C4.11184 88.3324 4.07103 87.3156 3.92873 86.2852C3.90284 86.1128 3.64706 84.6249 3.63546 84.5211C3.55447 83.8876 3.72205 84.5676 3.6025 83.653C3.56622 83.5467 3.53006 83.4401 3.49401 83.3334C3.47296 83.1218 3.45225 82.9098 3.43189 82.6974C3.53318 81.3871 3.34467 81.0919 3.28442 80.6352C3.26052 80.4514 3.33814 80.6844 3.28635 80.2066C3.26709 80.0265 3.20232 79.8304 3.16131 79.3426C3.03576 77.8091 3.20597 77.2821 2.90984 75.8883C2.92802 75.6703 2.94648 75.452 2.96523 75.2334C2.92046 75.089 2.8759 74.9442 2.83156 74.7993C2.88135 73.6804 2.79355 74.0892 2.77562 73.687C2.72619 72.6261 2.67456 70.4396 2.75786 70.2507C2.53264 69.3403 2.73472 68.2229 2.72115 67.8674C2.69364 67.6536 2.66654 67.4394 2.63983 67.2248C2.66043 66.972 2.68145 66.7189 2.70287 66.4655C2.51096 66.5907 2.69071 65.275 2.6941 65.148C2.69447 65.1251 2.69324 65.056 2.69099 64.9527C2.67732 64.3962 2.64421 62.8607 2.65411 62.2315C2.66259 61.4889 2.7401 60.1713 2.74345 60.0595C2.74599 59.9236 2.72533 58.6628 2.76238 57.6543C2.7743 56.7778 3.12602 51.6242 3.03812 51.9451C2.99322 52.2863 2.94415 52.7569 2.90912 53.1723C2.76164 54.4656 2.46558 62.0544 2.48637 63.9883C2.48306 64.3081 2.48072 64.6297 2.47934 64.9527C2.46303 68.5531 2.57154 72.2697 2.75948 75.8528C2.77158 76.0827 2.72209 76.1206 2.73258 76.3176C2.74844 76.6171 2.84794 77.3694 2.8668 77.6613C2.93544 78.7703 3.03192 80.1063 3.08008 80.6886C3.18881 82.0124 3.24331 82.9136 3.33824 83.9014C3.36758 84.2179 3.60062 85.7864 3.70284 86.8551C3.71146 87.0537 3.72037 87.2518 3.72955 87.4495C3.64045 86.8857 3.42921 85.4565 3.35281 84.7742C3.23745 83.7599 3.23139 83.2386 3.1947 82.8674C3.16316 82.5628 2.96928 80.957 2.91272 80.2414C2.89436 80.0174 2.94549 79.9671 2.93022 79.775C2.84646 78.7326 2.75052 77.345 2.64443 76.4465C2.68173 76.8193 2.5845 74.4912 2.58208 74.3729C2.57198 74.1659 2.5108 73.9437 2.49197 73.5194C2.45704 72.7022 2.56482 72.803 2.42285 71.7798C2.44424 71.5233 2.46617 71.2704 2.48852 71.018C2.34457 71.0132 2.45256 67.7975 2.28463 66.8984C2.25588 66.8693 2.28604 71.0401 2.30547 71.3739C2.35181 73.4456 2.54277 76.4808 2.66305 78.4777C2.69557 79.086 2.75752 80.9628 2.77387 81.112C2.79596 81.3429 2.82803 81.1299 2.83831 81.2296C3.05513 83.2625 2.86626 82.2542 2.86092 82.5279ZM24.2444 2.18708C23.715 2.04535 23.1687 1.96963 22.621 1.96753C22.5963 1.96742 22.5717 1.96746 22.5471 1.96765C22.5716 1.95434 22.5962 1.94118 22.621 1.92818C22.6381 1.91921 22.6552 1.91031 22.6724 1.90149C22.9374 1.91148 23.2008 1.93822 23.4608 1.98096C23.6629 1.99439 23.8685 2.01831 24.0692 2.0509C24.1285 2.0955 24.1869 2.14091 24.2444 2.18708ZM25.6173 2.59834C26.0871 2.81829 26.0736 2.87628 26.1775 2.93526C26.4822 3.11914 26.7423 3.26706 27.0257 3.47041C26.6423 3.31672 25.9688 2.85008 25.6173 2.59834ZM16.214 5.21058C16.3035 5.12439 16.9112 4.63792 17.5183 3.97952C18.0494 3.57949 18.5954 3.23032 19.192 2.93281C18.1886 3.41047 17.0496 4.51215 16.6734 4.90854C16.5276 5.05531 16.4729 5.05851 16.3564 5.18066C15.6718 5.90018 15.1837 6.69379 15.013 6.70923C15.6165 5.97163 16.0964 5.32625 16.214 5.21058ZM21.0059 2.10258C21.1582 2.08903 21.309 2.08092 21.4585 2.07813C20.9326 2.17829 20.4212 2.34296 19.922 2.56421C20.0473 2.48051 20.1741 2.40079 20.3026 2.32514C20.5319 2.23946 20.7658 2.16488 21.0059 2.10258ZM4.08298 40.9225C4.12912 40.572 4.1761 40.2241 4.22567 39.8664C4.20078 39.8815 4.14469 40.2933 4.11054 40.435C4.11063 40.4343 4.11071 40.4337 4.1108 40.433C4.07188 40.5947 4.05234 40.5204 4.00014 40.8177C4.02773 40.8526 4.05534 40.8876 4.08298 40.9225ZM41.8492 82.238C41.9287 81.6364 42.3133 76.1503 42.1351 76.6124C42.0567 76.8406 41.9946 78.7253 41.9501 79.2792C41.8977 80.0217 41.5858 82.0242 41.8492 82.238ZM42.49 72.5078C42.3644 72.4104 42.1897 75.8394 42.1857 76.1794C42.2089 76.1093 42.2575 76.0018 42.2724 75.9072C42.3476 75.4418 42.429 73.2503 42.49 72.5078ZM2.38394 60.7766C2.43448 60.499 2.48544 60.222 2.53684 59.9458C2.47685 60.0173 2.41685 60.0889 2.35684 60.1607C2.36553 60.3658 2.37456 60.5711 2.38394 60.7766ZM3.78691 87.6684C4.36018 92.2659 5.11685 96.8053 6.1426 101.332C6.02513 100.943 5.90623 100.536 5.79467 100.153C4.95908 96.2629 4.29362 92.0613 3.76491 88.2476C3.77201 88.0549 3.77934 87.8618 3.78691 87.6684ZM15.2193 6.04573C14.4727 6.97273 13.9477 7.79175 13.2295 8.8565C13.8286 7.78966 14.2405 7.32402 14.8945 6.34445C14.8949 6.34393 14.8953 6.34339 14.8957 6.34286C15.0036 6.24152 15.1115 6.14247 15.2193 6.04573ZM5.63849 30.4225C5.67686 30.0625 5.71515 29.7111 5.75756 29.3491C5.6647 29.7737 5.5762 30.1891 5.48789 30.6144C5.53809 30.5503 5.58829 30.4863 5.63849 30.4225ZM16.3942 125.37C17.2658 126.241 19.8588 128.143 20.9383 128.121C20.9995 128.123 20.4555 127.943 21.3891 128.038C20.6949 127.928 20.2224 127.754 20.1407 127.821C19.953 127.717 19.7667 127.605 19.5864 127.486C19.2674 127.359 18.9476 127.209 18.6278 127.035C18.7076 126.979 18.6769 126.979 18.201 126.725C18.0119 126.566 17.8219 126.396 17.6397 126.222C17.5372 126.187 17.4342 126.15 17.3307 126.111C17.2006 125.934 17.073 125.753 16.9478 125.567C16.2981 125.026 16.6028 125.452 16.3942 125.37ZM13.7045 121.983C13.6797 122.281 17.4856 126.546 15.8803 124.485C15.4417 124.004 14.996 123.456 14.6073 122.936C14.7085 123.563 13.8259 121.895 13.7735 121.775C13.4057 121.168 12.8692 120.395 12.6214 119.943C12.4039 119.55 12.3127 119.274 12.1666 119C11.6576 118.064 10.9363 116.504 10.7398 116.331C11.0822 117.105 11.4471 117.878 11.8506 118.658C12.276 119.463 12.5483 120.249 13.6189 121.653C13.836 122.017 13.6806 121.938 13.7045 121.983ZM6.00425 28.2835C6.07083 28.341 6.55645 26.2127 6.53554 26.1852C6.51792 26.1755 6.34614 26.8765 6.31526 26.9767C6.31511 26.9773 6.31495 26.978 6.31479 26.9786C6.30199 27.0185 6.32123 26.8042 6.23526 27.1246C6.15681 27.5077 6.0798 27.8941 6.00425 28.2835ZM41.1684 90.7851C41.3244 90.4885 42.1011 83.7796 42.0518 83.5603C42.0467 83.5057 42.0051 83.577 41.9874 83.5539C41.9444 85.1482 41.5591 87.3611 41.3537 88.8473C41.2973 89.2593 41.3676 89.1431 41.3656 89.1666C41.3655 89.1676 41.3654 89.1686 41.3652 89.1696C41.3359 89.3976 41.0564 90.4519 41.1684 90.7851ZM23.0514 128.266C22.9077 128.265 22.7642 128.26 22.621 128.251C22.4835 128.242 22.347 128.228 22.2113 128.21C22.1384 128.243 22.0643 128.275 21.9891 128.306C21.9898 128.306 21.9904 128.306 21.9911 128.306C22.2013 128.315 22.4113 128.314 22.621 128.303C22.7653 128.295 22.9088 128.283 23.0514 128.266ZM30.961 122.89C30.8982 122.931 30.8354 122.971 30.7727 123.011C30.3552 123.576 29.8848 124.157 29.4041 124.682C29.4425 124.617 29.4807 124.551 29.5187 124.485C28.7488 125.285 28.4937 125.633 28.0438 126.013C28.0443 126.013 28.0448 126.013 28.0453 126.012C27.9973 126.051 27.9045 126.059 27.7293 126.2C27.3276 126.563 26.0441 127.345 25.8964 127.451C25.6416 127.811 28.195 126.093 28.5512 125.608C28.7457 125.428 28.9891 125.252 29.1012 125.136C29.221 125.013 29.3392 124.794 29.6218 124.475C29.6979 124.405 30.6468 123.37 30.961 122.89ZM36.461 111.382C36.3289 111.571 36.2344 112.022 36.1636 112.188C36.1473 112.226 36.2065 111.904 36.0591 112.267C36.0556 112.383 36.0519 112.499 36.048 112.615C36.1907 112.202 36.3303 111.785 36.461 111.382ZM6.84628 24.7005C6.82109 24.7557 6.53138 25.8911 6.52385 25.9501C6.42041 26.649 7.01594 24.2939 6.84628 24.7005ZM22.6601 1.44875C22.3764 1.41263 23.9122 1.31784 25.4195 1.99685C26.9282 2.62061 28.2538 3.862 28.4707 4.06171C28.4234 4.0684 27.2755 3.05616 27.8487 3.6217C27.3205 3.05672 25.4674 2.02086 24.9778 1.90483C24.6986 1.799 24.6373 1.73399 24.5937 1.71853C24.4281 1.6165 22.8541 1.43383 22.6601 1.44875ZM31.7949 8.20029C31.4672 7.67133 31.134 7.16806 30.7764 6.66982C31.2126 7.24585 31.6232 7.84207 32.0112 8.44937C31.9392 8.36534 31.8675 8.28291 31.7949 8.20029ZM32.2209 8.8358C32.2727 8.79533 33.2622 10.6027 33.5126 11.0989C33.1508 10.5854 32.7394 9.64874 32.2209 8.8358ZM9.0263 17.1771C8.65547 18.073 8.69622 18.5328 9.01717 17.3935C9.02677 17.3589 9.04219 17.14 9.0263 17.1771ZM16.3212 125.864C16.4213 126.017 17.9873 127.403 18.1396 127.394C18.5379 127.488 17.3625 126.762 17.0742 126.415C16.5932 125.863 17.4064 126.547 16.1003 125.357C16.1714 125.387 16.2424 125.417 16.3132 125.446C15.6071 124.709 15.6922 125.075 15.5443 124.957C15.4913 124.915 15.0866 124.423 15.0034 124.338C13.9309 123.309 16.1703 125.818 16.3212 125.864ZM3.62283 40.2232C3.30974 42.091 3.50484 41.2932 3.26278 43.2424C3.29726 43.3122 3.62503 40.4624 3.62283 40.2232ZM7.7785 109.44C8.39985 111.32 8.86601 112.879 9.65055 114.55C9.70432 114.397 7.61985 108.943 7.7785 109.44ZM43.5774 68.1866C43.0746 75.8647 42.5583 84.6954 41.274 92.7775C41.1334 93.6649 41.0394 93.7335 40.9954 94.053C40.9661 94.2616 41.0354 94.2361 40.989 94.5114C39.2083 104.458 36.9996 114.145 31.6583 122.418C31.338 122.974 29.3695 125.222 28.9968 125.757C28.7547 126.219 30.2044 124.564 30.3964 124.275C30.5693 124.065 30.6294 124.097 30.7441 123.952C30.8656 123.798 30.7291 123.898 30.8686 123.716C31.4295 122.983 32.0287 122.124 32.469 121.398C36.7169 114.164 38.7994 106.287 40.477 98.2295C40.6715 97.2501 40.6866 97.4675 40.6972 97.4171C40.6972 97.4164 40.6972 97.4158 40.6972 97.4151C41.7236 92.1679 42.3864 86.0983 42.893 80.4623C43.2599 76.4965 43.4979 72.514 43.618 68.5352C43.6046 68.419 43.591 68.3019 43.5774 68.1866ZM13.7493 122.48C13.8948 123.01 14.0482 122.986 15.1397 124.446C15.2585 124.535 15.3751 124.62 15.4959 124.706C14.8765 124.017 14.2907 123.261 13.7475 122.477C13.7481 122.478 13.7487 122.479 13.7493 122.48ZM23.3211 128.644C23.482 128.766 24.6375 128.669 25.8299 128.096C27.0256 127.55 28.1691 126.589 28.8535 125.97C29.0215 125.676 27.0489 127.44 26.4264 127.672C26.1621 127.834 24.5751 128.462 23.301 128.618C23.3077 128.627 23.3144 128.636 23.3211 128.644ZM16.5102 3.98819C16.2875 4.20318 16.0999 4.39622 15.8974 4.61394C16.4049 4.10983 16.9763 3.60832 17.5628 3.18161C16.6354 3.87832 15.7891 4.72271 15.0405 5.60337C15.1537 5.41465 15.2634 5.23517 15.3847 5.04815C15.7564 4.66544 16.1152 4.32737 16.5102 3.98819ZM14.0479 6.86023C15.2509 5.23761 14.0492 6.95778 13.7318 7.3758C13.5358 7.61831 13.9267 7.02609 14.0479 6.86023ZM11.2807 11.3791C11.6307 10.5145 12.6022 8.82219 12.3651 9.48035C11.8058 10.3516 11.5384 10.9378 10.8544 12.2821C10.9237 12.0817 11.003 11.864 11.0785 11.6582C11.0789 11.6573 11.0794 11.6564 11.0798 11.6554C11.1467 11.5626 11.2137 11.4704 11.2807 11.3791ZM14.5475 6.07392C15.4125 5.03961 13.0785 8.14622 13.7648 7.13376C13.7969 7.07238 14.495 6.12494 14.5475 6.07392ZM43.4824 76.6934C43.4176 76.5303 43.3552 77.5453 43.3262 77.8838C43.2041 79.367 43.0847 81.2412 42.9268 82.7736C42.962 82.6611 42.9971 82.5485 43.0321 82.4357C43.2138 80.5119 43.3625 78.6051 43.4824 76.6934ZM42.4037 87.5428C42.2726 88.599 42.136 89.6193 41.9833 90.6792C41.9693 90.7769 41.9638 91.2427 42.0285 90.905C42.1677 89.7726 42.2897 88.6726 42.4037 87.5428ZM10.2256 116.804C10.5261 117.568 9.41446 115.473 9.64028 115.505C9.82512 115.929 10.0238 116.371 10.2256 116.804ZM7.4961 109.756C7.66276 110.225 7.84429 110.724 8.02226 111.195C8.00258 111.203 7.98291 111.21 7.96323 111.218C7.8049 110.738 7.64305 110.232 7.4961 109.756ZM43.7469 72.556C43.6342 73.0938 43.5911 74.3595 43.5449 75.1645C43.6543 74.6092 43.678 73.3145 43.7469 72.556ZM17.0953 126.907C17.0834 126.866 17.74 127.383 18.3213 127.742C18.9175 128.116 19.4053 128.362 18.8609 128.142C18.2214 127.784 17.6525 127.377 17.0953 126.907ZM23.5802 129.087C23.1911 129.143 22.8425 129.151 22.621 129.136C22.4152 129.121 22.3204 129.09 22.3959 129.054C22.4708 129.057 22.5458 129.059 22.621 129.059C22.944 129.063 23.266 129.045 23.5862 129.006C23.5843 129.033 23.5822 129.06 23.5802 129.087ZM9.68427 14.6262C9.23465 15.716 8.83139 16.7816 8.43809 17.9004C8.43856 17.8554 8.43854 17.8118 8.43987 17.7646C8.82252 16.6827 9.21214 15.6572 9.64606 14.606C9.65879 14.6127 9.67154 14.6194 9.68427 14.6262ZM44.0135 71.9051C44.0261 71.1001 44.0332 70.3123 44.0357 69.5099C43.9974 70.3121 43.9548 71.0994 43.9068 71.9034C43.9425 71.9046 43.9782 71.9059 44.0139 71.9071C44.0138 71.9065 44.0137 71.9058 44.0135 71.9051ZM19.0701 1.78848C15.836 3.6787 19.8328 0.968579 20.9771 1.06314C20.9782 1.06283 20.9792 1.06252 20.9802 1.06221C21.0678 1.05101 20.8952 1.12896 21.041 1.11277C20.6607 1.17715 20.2803 1.27251 19.9178 1.38942C19.599 1.5317 19.2756 1.70098 18.9874 1.87425C18.883 1.9182 18.7787 1.96434 18.6745 2.01266C18.8055 1.93436 18.9374 1.8596 19.0701 1.78848ZM31.6784 7.01069C33.441 9.74956 31.6296 6.95707 30.6418 5.65944C30.6706 5.65377 31.5114 6.74882 31.6784 7.01069ZM25.1822 1.36617C24.6739 1.19165 24.1408 1.06502 23.6011 0.999595C23.5339 0.979266 23.4663 0.959855 23.3982 0.941381C23.8153 0.975951 24.231 1.04685 24.6363 1.14977C24.8232 1.21598 25.0043 1.28811 25.1822 1.36617ZM11.5738 9.79791C11.1624 10.5369 10.7571 11.516 12.029 9.165C12.0162 9.15915 12.0033 9.1533 11.9905 9.14745C11.9396 9.23872 11.7974 9.51468 11.7882 9.52937C11.7612 9.57052 11.7482 9.49563 11.5738 9.79791ZM34.9223 12.1163C34.9645 12.1994 35.1036 12.1815 35.3813 13.1274C35.5056 13.3897 35.6266 13.6504 35.7477 13.9173C35.7517 13.9978 35.7557 14.0784 35.7595 14.1591C35.3408 13.1101 35.2341 13.0318 35.2004 12.9546C35.0411 12.6125 35.1819 12.8549 35.0822 12.6337C34.8342 12.0704 34.1816 10.7938 34.5418 11.3374C34.6705 11.5301 34.8825 12.0402 34.9223 12.1163ZM33.9996 10.0963C34.0544 10.2221 33.8144 9.85087 33.8536 9.94721C33.8911 10.0248 34.4832 11.268 34.2575 10.9649C34.1603 10.766 34.0572 10.5592 33.956 10.3602C33.9361 10.2848 33.916 10.2096 33.8959 10.1346C33.7802 9.9507 33.666 9.77309 33.5441 9.58568C33.4031 9.23988 33.0647 8.53754 33.5528 9.32597C33.3808 9.02605 33.2144 8.74497 33.0303 8.44416C32.9207 8.30118 32.8107 8.16046 32.7003 8.02205C32.7758 8.08356 32.8512 8.14586 32.9266 8.20896C33.3104 8.83812 33.663 9.4627 33.9996 10.0963ZM37.9383 19.8127C37.9113 19.7778 37.8842 19.743 37.8571 19.7083C38.2632 20.8711 38.8004 22.721 38.4074 21.7001C37.9287 20.0947 37.4065 18.5052 36.8275 16.9351C36.8 16.8252 36.7724 16.7158 36.7446 16.6067C37.1322 17.8051 37.1759 17.3624 37.4817 18.4224C37.5303 18.5989 37.3022 18.1147 37.7021 19.1915C37.704 19.1477 37.7058 19.1038 37.7076 19.06C37.7852 19.3089 37.8621 19.5599 37.9383 19.8127ZM40.5553 30.0862C40.1436 28.0248 40.6731 30.2765 40.7046 30.6726C40.7045 30.672 40.7044 30.6713 40.7042 30.6707C40.7999 31.7453 40.4005 29.4766 40.3671 29.3466C40.3267 29.1636 40.1533 28.7514 40.054 27.7438C40.227 28.5142 40.3977 29.3119 40.5553 30.0862ZM38.9842 23.3745C39.0334 23.5446 38.9861 23.456 39.0064 23.5298C39.0066 23.5304 39.0068 23.531 39.0069 23.5317C39.3194 24.6292 39.9645 27.2249 39.9561 27.5342C39.7814 26.715 38.8311 23.0878 38.8044 22.8687C38.8648 23.0369 38.9246 23.205 38.9842 23.3745ZM36.4829 15.805C36.2808 15.1399 36.844 16.5911 36.9615 16.998C36.9835 17.0739 36.6908 16.489 36.4829 15.805ZM4.98498 26.7109C4.66361 28.1915 5.1724 26.2669 5.06788 26.9498C5.13025 26.6727 5.19841 26.3765 5.26525 26.0911C5.17156 26.2964 5.07758 26.5054 4.98498 26.7109ZM2.93303 95.9664C2.98546 96.3235 3.00362 96.1465 3.00964 96.1772C3.04897 96.4106 3.0493 96.6364 3.06926 96.7246C3.44425 98.3476 3.28647 97.2509 3.29235 97.2335C3.33291 97.1902 3.46632 97.6089 3.41112 97.0042C3.32878 96.6459 3.24759 96.2853 3.16757 95.9224C3.16222 95.7371 3.15627 95.5465 3.15228 95.3652C2.97673 94.6631 3.11738 95.5933 3.06378 95.7213C3.04182 95.7683 2.88966 95.0879 2.93303 95.9664ZM4.23906 29.3553C4.24869 29.6083 4.2005 30.2156 4.39059 29.6501C4.39073 29.6495 4.39088 29.6488 4.39102 29.6482C4.426 29.5434 4.5284 29.1127 4.57642 28.9763C4.71389 27.9873 4.53941 28.3416 4.23906 29.3553ZM1.81176 89.453C1.75639 88.8657 1.70366 88.2745 1.6536 87.6794C1.70304 87.6835 1.75248 87.6877 1.80193 87.6919C1.82594 88.0103 1.8507 88.3277 1.87622 88.644C1.91182 88.7514 1.94753 88.8587 1.98337 88.9658C1.98999 88.5692 1.99764 88.1712 2.00633 87.7719C1.93115 87.3008 1.85795 86.8278 1.78794 86.3644C1.78611 86.5829 1.7844 86.7994 1.7834 87.0187C1.62828 85.8775 1.77295 86.1142 1.71827 85.1557C1.64041 84.8333 1.56352 84.5095 1.48759 84.1843C1.48641 83.7039 1.48805 83.2345 1.49056 82.7569C1.40051 81.9644 1.36193 81.896 1.35693 82.4369C1.26529 82.0464 1.31981 81.6036 1.25852 81.1253C1.25352 81.0858 1.20528 81.165 1.20188 81.13C0.979598 78.6782 1.1415 78.7904 1.11933 78.3964C1.10427 78.1127 0.944735 77.0166 0.912258 77.0004C0.869669 76.9793 0.818853 79.3001 0.6243 75.684C0.593071 77.5615 0.86011 79.6862 0.945274 78.2937C0.960097 78.8973 1.1946 81.4825 1.20822 81.6595C1.22012 81.9036 1.146 81.8243 1.16956 82.1288C1.18441 82.3092 1.37411 82.77 1.37326 84.1959C1.41608 84.3762 1.45919 84.556 1.5026 84.7354C1.49865 84.9083 1.49491 85.0809 1.49135 85.2532C1.38122 84.911 1.27226 84.567 1.16449 84.2212C1.37886 85.6159 1.34943 86.7567 1.57693 87.5987C1.64687 88.334 1.67604 88.6882 1.572 88.3837C1.59826 88.6029 1.6249 88.8215 1.65192 89.0395C1.705 89.1777 1.75828 89.3155 1.81176 89.453ZM3.43252 33.7779C3.2376 34.4915 3.32481 34.767 3.35166 34.6581C3.50457 34.0378 3.5343 33.4078 3.43252 33.7779ZM2.80134 94.6466C2.71511 93.8524 2.63071 93.0288 2.55771 92.2385C2.50606 92.2464 2.4544 92.2543 2.40275 92.2621C2.5271 93.0454 2.66317 93.8611 2.80134 94.6466ZM4.9508 26.4699C4.99848 26.4042 5.04617 26.3387 5.09387 26.2733C5.20359 25.38 5.58034 24.5863 5.66327 24.1595C5.68188 24.0645 5.57865 24.2404 5.52176 24.407C5.48352 24.5055 4.97656 26.3071 4.9508 26.4699ZM27.3413 1.81421C27.0219 1.63012 26.711 1.47084 26.3731 1.31937C26.4041 1.30266 26.4352 1.28609 26.4664 1.26967C26.6337 1.34947 26.7888 1.42839 26.9471 1.51401C27.0802 1.6108 27.2115 1.7109 27.3413 1.81421ZM23.4214 0.419363C23.1561 0.389931 22.8891 0.373958 22.621 0.371747C22.2154 0.368387 21.8114 0.396559 21.411 0.455306C22.0876 0.350492 22.4429 0.356484 22.621 0.348127C23.1113 0.348965 22.2809 0.279743 23.4301 0.334703C23.4272 0.362923 23.4243 0.391143 23.4214 0.419363ZM17.1536 2.24408C17.2067 2.18297 17.2603 2.12247 17.3144 2.06253C17.8256 1.7027 18.4108 1.35497 18.9928 1.08547C18.5959 1.20185 18.1996 1.34558 17.8031 1.51682C17.5964 1.64409 17.4041 1.77074 17.2075 1.90816C17.1881 2.02016 17.1701 2.13215 17.1536 2.24408ZM6.48667 111.492C6.596 111.838 7.07976 112.975 7.0968 112.923C6.95505 112.405 6.83211 111.925 6.70404 111.416C6.6504 111.432 6.59675 111.447 6.54311 111.463C6.54638 111.384 6.54973 111.305 6.55313 111.227C6.44135 110.952 6.32895 110.67 6.22046 110.395C6.22289 110.241 6.22556 110.087 6.22844 109.932C6.13199 109.808 6.03574 109.683 5.9397 109.557C6.2575 110.928 6.35152 110.87 6.4395 111.15C6.48599 111.295 6.48312 111.396 6.48339 111.453C6.48448 111.466 6.48557 111.479 6.48667 111.492ZM2.38201 94.1531C2.63085 95.8013 2.94237 96.7494 3.04637 97.9537C3.12832 97.1549 2.05383 92.2124 2.04681 90.4252C1.98349 90.2471 1.9203 90.067 1.85784 89.8892C2.01816 90.8513 2.03211 91.5251 2.0869 91.9911C2.13075 92.3611 2.16624 92.316 2.1697 92.3443C2.16989 92.3456 2.17008 92.3469 2.17028 92.3482C2.2795 93.2088 2.2845 93.4992 2.38201 94.1531ZM5.11732 25.2171C4.95578 25.6401 4.76465 26.4171 4.83136 26.443C4.95925 26.015 5.08872 25.5915 5.21974 25.1724C5.1795 25.2551 5.14481 25.1447 5.11732 25.2171ZM16.457 2.56326C16.1497 2.778 15.4896 3.41689 15.8165 3.18811C15.8733 3.14088 16.5246 2.529 16.1924 2.94421C16.8493 2.38506 16.6321 2.44069 16.457 2.56326ZM0.481236 65.5949C0.480141 65.3811 0.479389 65.167 0.47898 64.9527C0.478823 64.8701 0.478716 64.7875 0.478661 64.7049C0.445943 64.6358 0.413285 64.5666 0.380688 64.4974C0.394114 64.6491 0.407734 64.8009 0.421551 64.9527C0.441056 65.1671 0.460952 65.3812 0.481236 65.5949ZM6.10867 21.5334C6.35547 21.1887 6.43036 20.4999 6.76384 19.8384C6.84674 19.5876 6.93863 19.3132 7.02738 19.0533C7.0276 19.0526 7.02781 19.052 7.02803 19.0513C6.99559 19.0327 6.96316 19.014 6.93073 18.9953C6.63576 19.8604 6.37513 20.6661 6.10867 21.5334ZM1.21007 83.994C1.21523 83.812 1.22061 83.6298 1.2262 83.4473C1.17141 83.1287 1.11749 82.8089 1.06445 82.488C1.06103 82.6645 1.05782 82.8408 1.05481 83.0169C1.10567 83.3438 1.15743 83.6695 1.21007 83.994ZM7.63763 16.9476C7.28419 17.8614 7.27637 18.23 7.6982 17.0704C7.88016 16.5788 8.01103 16.003 7.63763 16.9476ZM15.9493 127.931C15.676 127.682 15.4087 127.421 15.1469 127.147C15.0268 127.083 14.9196 127.029 14.8059 126.966C15.1558 127.289 15.5605 127.634 15.9493 127.931ZM21.0027 0.312003C20.9632 0.342229 20.924 0.372755 20.8853 0.403568C20.5561 0.469115 20.2172 0.559449 19.9071 0.660416C19.9789 0.612796 20.0516 0.566137 20.1251 0.520495C20.415 0.435456 20.7079 0.365677 21.0027 0.312003ZM14.1936 126.188C13.9968 125.958 13.8283 125.75 13.6521 125.526C13.5177 125.391 13.3839 125.253 13.2508 125.112C13.403 125.335 13.5573 125.553 13.7138 125.766C13.8689 125.906 14.0254 126.043 14.1936 126.188ZM11.5213 8.61997C11.3052 8.91746 10.6426 10.2856 11.3299 9.11015C11.7716 8.37801 11.5539 8.57598 11.5213 8.61997ZM12.5925 6.88224C11.7682 8.04692 12.5296 7.28351 13.4316 5.78663C12.42 7.19982 12.6475 6.82236 12.5925 6.88224ZM23.7139 0.0670666C23.7554 0.0742096 23.7858 0.109799 24.1148 0.171648C25.3124 0.378379 26.7157 1.07175 27.3845 1.51619C29.274 2.40402 32.7461 6.85727 32.8964 7.5006C32.9503 7.62472 32.732 7.39682 32.7585 7.44476C32.8414 7.58434 33.3385 8.34297 33.2122 8.2247C32.7548 7.46151 32.2609 6.70534 31.7222 5.97121C31.879 6.12949 32.0353 6.29213 32.191 6.45903C30.8446 4.62984 31.2664 5.25358 30.8048 4.78323C30.5713 4.4626 30.346 4.16665 30.0881 3.85377C29.4886 3.26177 28.8168 2.68307 28.1041 2.18791C28.2767 2.29017 28.4418 2.39241 28.6097 2.50228C27.5922 1.65941 27.8562 1.91052 27.2136 1.55312C27.2233 1.53408 27.233 1.51503 27.2428 1.49598C26.0887 0.876638 25.8366 0.772113 25.5663 0.653418C25.057 0.490245 24.3959 0.347651 22.621 0.160725C22.3935 0.142554 22.1473 0.128299 21.8791 0.122236C20.9073 0.355176 20.8907 0.133823 20.3508 0.399149C18.9511 0.745432 20.9611 -0.0667033 22.621 0.0044415C22.894 0.00786233 23.15 0.0251557 23.3697 0.0473773C23.3705 0.0474558 23.3713 0.0475343 23.3721 0.047613C23.4871 0.0610398 23.3074 0.013042 23.7139 0.0670666ZM16.0288 2.8849C16.3498 2.53222 15.7829 2.96241 15.3246 3.42049C14.8703 3.87003 14.4839 4.36211 14.9612 3.97239C15.0893 3.84553 15.218 3.72173 15.3475 3.60103C15.5564 3.36648 15.7938 3.11671 16.0304 2.88345C16.0299 2.88393 16.0293 2.88442 16.0288 2.8849ZM3.29518 32.4128C2.75437 35.5308 3.16774 33.7727 3.29533 32.7096C3.32132 32.4981 3.32371 32.3804 3.29518 32.4128ZM2.64742 96.5481C2.67577 96.5901 2.70416 96.6322 2.73256 96.6741C2.52139 95.6135 2.28317 93.598 2.15205 93.6394C2.30847 94.6177 2.46941 95.5648 2.64742 96.5481ZM1.34769 88.2518C1.36571 88.4804 1.45957 89.4033 1.49659 89.2852C1.48272 88.8826 1.46999 88.4783 1.45842 88.0725C1.41418 87.8883 1.37024 87.7036 1.32662 87.5185C1.34883 87.7818 1.3425 88.1902 1.34769 88.2518Z" fill="var(--stroke-0, #0061FE)"/>
</svg>
