<svg preserveAspectRatio="none" width="100%" height="100%" overflow="visible" style="display: block;" viewBox="0 0 14.0653 13.0715" fill="none" xmlns="http://www.w3.org/2000/svg">
<g id="Bullet">
<path id="Vector" d="M12.9394 8.05513C13.2132 7.71629 13.5038 7.6133 13.811 7.74614C14.0951 7.87091 14.0912 7.98479 13.7994 8.08778C12.0543 8.70574 10.3786 9.36979 8.55077 9.92173C6.82365 10.4418 5.11742 11.0275 3.43208 11.6789C3.37008 11.7037 3.33052 11.7485 3.3134 11.8133C3.22396 12.136 3.2429 12.4334 3.37023 12.7057C3.38578 12.7388 3.39271 12.7754 3.39035 12.8121C3.388 12.8488 3.37643 12.8842 3.35679 12.9149C3.33714 12.9456 3.31009 12.9705 3.27827 12.9873C3.24645 13.0041 3.21094 13.0121 3.17522 13.0105C2.80677 12.9925 2.42538 12.9858 2.03103 12.9902C1.64827 12.996 1.35122 12.885 0.988334 12.7936C0.926563 12.7787 0.882961 12.7413 0.857524 12.6816C0.718878 12.359 0.658271 12.0236 0.675695 11.6753C0.701952 11.1311 0.712107 10.8153 0.706156 10.7279C0.555419 8.66091 0.619468 6.55343 0.476541 4.4726C0.457488 4.19436 0.371879 3.94887 0.219728 3.7361C0.0394445 3.48477 0.00549917 3.33557 0.123016 3.06208C0.347636 2.53357 0.554897 1.99768 0.744807 1.45441C0.767086 1.38831 0.806683 1.33555 0.863605 1.29614C1.09518 1.13454 1.33711 0.964386 1.5894 0.785683C1.73561 0.680551 1.77572 0.536415 1.70974 0.353271C1.67422 0.253739 1.70362 0.182382 1.79793 0.139206C2.12869 -0.0138913 2.44062 -0.0280273 2.73373 0.0967943C4.02055 0.648378 5.11798 1.19426 6.02601 1.73444C7.81766 2.80142 9.63089 3.92547 11.4657 5.1066C11.8201 5.33507 11.9926 5.58437 12.2654 5.89185C12.494 6.14941 12.8103 6.27436 13.0875 6.48055C13.1388 6.51925 13.1954 6.53943 13.2572 6.54111C13.3423 6.54291 13.4136 6.56913 13.4713 6.61979C13.5213 6.6651 13.5352 6.72015 13.5129 6.78492C13.4016 7.10348 13.2319 7.378 13.0038 7.60849C12.961 7.65196 12.9337 7.70412 12.9217 7.76498L12.8739 8.02298C12.854 8.12352 12.8758 8.13424 12.9394 8.05513ZM6.1443 4.7568C6.14028 4.75481 6.13584 4.75387 6.13139 4.75406C6.12693 4.75426 6.12259 4.75558 6.11875 4.75792C6.11491 4.76026 6.11169 4.76354 6.10938 4.76747C6.10707 4.77139 6.10575 4.77584 6.10552 4.78042L6.10329 4.83206C6.10045 4.87972 6.11569 4.91954 6.14901 4.95152L7.48682 6.2901C7.51892 6.32234 7.55941 6.34446 7.60352 6.35386C7.64764 6.36325 7.69355 6.35954 7.73587 6.34315C7.86244 6.29354 7.90941 6.18851 7.87681 6.02807C7.83548 5.81593 7.67931 5.63095 7.40829 5.47315C7.02169 5.24582 6.60036 5.00704 6.1443 4.7568ZM6.00189 6.98943C5.98179 7.02435 6.03155 7.09983 6.14022 7.19927C6.24889 7.29871 6.40756 7.41396 6.58135 7.51967C6.66741 7.57201 6.7546 7.62045 6.83792 7.66219C6.92124 7.70394 6.99906 7.73818 7.06695 7.76297C7.13485 7.78776 7.19148 7.80261 7.23361 7.80666C7.27574 7.81072 7.30256 7.80391 7.31251 7.78662C7.33261 7.7517 7.28285 7.67622 7.17418 7.57678C7.06551 7.47734 6.90682 7.36209 6.73303 7.25638C6.64698 7.20403 6.5598 7.1556 6.47648 7.11385C6.39316 7.07211 6.31533 7.03786 6.24744 7.01308C6.17954 6.98829 6.12291 6.97344 6.08078 6.96938C6.03865 6.96533 6.01185 6.97214 6.00189 6.98943Z" fill="var(--fill-0, #0061FE)"/>
</g>
</svg>
