<svg preserveAspectRatio="xMidYMid meet" width="100%" height="100%" overflow="visible" style="display: block;" viewBox="0 0 3015.58 3177.72" fill="none" xmlns="http://www.w3.org/2000/svg">
<g id="Group 43896">
<path id="l" d="M97.3613 1184.83C91.1521 1206.28 81.9548 1227.03 71.581 1248.37C77.5705 1226.55 86.7837 1205.34 97.3613 1184.83ZM97.3613 1184.83C97.4656 1184.47 97.5737 1184.1 97.6763 1183.74C97.6763 1183.74 97.672 1184.1 97.5991 1184.25C97.615 1184.26 97.631 1184.26 97.6469 1184.27C97.5514 1184.46 97.4567 1184.64 97.3613 1184.83ZM97.7462 1183.95C97.8722 1183.81 97.9995 1183.65 98.1244 1183.51C97.9963 1183.77 97.8684 1184.04 97.7407 1184.31C97.7425 1184.19 97.7443 1184.07 97.7462 1183.95ZM399.38 2404.24C394.949 2408.14 392.643 2413.38 391.628 2419.41C389.154 2428.77 394.73 2440.68 396.479 2450.39C400.711 2473.43 407.283 2495.36 414.913 2516.97C422.732 2539.15 434.909 2560.32 449.731 2578.59C452.396 2581.79 454.921 2583.81 447.937 2584C447.887 2583.98 447.836 2583.97 447.786 2583.96C447.779 2583.97 447.774 2583.99 447.767 2584C447.698 2584.01 447.628 2584.01 447.558 2584.01C447.602 2583.99 447.647 2583.96 447.691 2583.93C447.618 2583.92 447.544 2583.9 447.47 2583.88C447.516 2583.85 447.562 2583.82 447.608 2583.8C431.014 2588.11 434.295 2571.82 429.339 2565.63C417.962 2551.42 415.907 2531.32 405.035 2517.35C393.242 2501.69 397.128 2481.35 378.783 2462.9C388.293 2529.34 415.275 2589.58 459.27 2634.34C463.598 2631.17 456.472 2629.41 460.263 2624.85C495.037 2678.4 544.818 2733.34 612.364 2742.01C593.962 2727.85 568.175 2728.06 552.264 2709.19C562.627 2712.61 573.886 2713.68 583.1 2718.17C611.294 2732.03 641.708 2738.72 671.392 2748.07C681.972 2751.36 692.145 2743.04 702.463 2746.8C705.624 2747.94 710.892 2746.37 712.31 2748.55C718.377 2757.64 725.927 2760.59 733.939 2761.02C749.769 2761.57 766.402 2758.54 782.365 2759.59C792.26 2760.25 802.127 2760.59 811.977 2760.71C851.163 2761.21 890.058 2758.31 929.21 2758.81C975.565 2759.34 1022 2758.6 1068.33 2759.43L873.66 2902.33C877.293 2891.61 880.933 2880.59 884.587 2869.53C893.73 2842.08 904.925 2812.32 909.127 2784.02C913.945 2751.37 920.057 2718.55 924.491 2685.5C930.612 2640.47 925.744 2593.43 942.209 2548.48C932.25 2514.1 939.883 2478.01 938.202 2442.42C934.439 2359.05 931.228 2274.56 918.493 2189.88C902.951 2086.4 879.616 1982.77 850.309 1880.36C830.811 1812.46 806.45 1745.69 779.996 1679.58C778.922 1677.01 778.643 1674.03 777.846 1670.74C783.89 1672.69 783.298 1683.18 788.317 1685.93C786.806 1677.22 783.897 1665.72 778.857 1662.98C770.558 1658.5 768.106 1648.82 764.772 1640.89C749.929 1605 733.937 1569.41 717.462 1533.94C711.531 1521.16 705.309 1508.45 698.86 1495.78C677.281 1453.39 653.489 1411.98 629.371 1370.75C602.344 1324.6 574.495 1278.73 544.206 1234.38C511.725 1186.84 476.791 1140.65 439.957 1095.91C485.893 1154.45 528.621 1214.9 568.213 1277.12C567.498 1277.52 566.743 1277.95 565.957 1278.24C517.913 1207.53 469.996 1133.79 411.581 1071.17C411.099 1071.65 410.617 1072.13 410.135 1072.6C433.477 1102.19 456.147 1132.34 477.713 1163.04C484.32 1172.42 492.297 1181.28 496.875 1191.57C490.62 1190.07 486.192 1179.18 480.632 1173.71C480.775 1176.51 487.128 1181.19 486.143 1184.1C485.413 1183.55 484.514 1183.14 483.915 1182.3C463.634 1155.65 443.38 1128.73 424.252 1100.93C419.795 1094.48 415.701 1090.34 411.049 1086.41C397.377 1074.88 379.848 1052.5 373.244 1038.45C369.88 1031.3 373.869 1031.43 378.669 1034.14C386.096 1038.21 387.834 1036.28 383.699 1027.61C381.241 1022.46 381.907 1021.38 386.162 1023.56C397.824 1029.53 397.692 1028.6 380.979 1008.92C400.957 1026.87 397.854 1018.1 398.445 1010.05C399.478 998.594 391.323 977.342 418.19 991.284C421.635 993.098 427.692 991.639 427.493 985.112C427.292 977.998 427.736 968.915 440.369 972.759C442.238 973.346 446.245 975.812 448.518 977.937C470.998 999.4 472.394 991.373 473.017 985.91C474.625 971.74 487.928 969.685 503.941 968.716C512.494 968.181 517.549 963.748 526.276 962.957C535.93 961.995 555.371 977.985 569.626 989.318C597.76 1011.61 623.568 1036.71 647.832 1063.01C658.695 1074.74 671.228 1086.93 683.424 1097.79C704.751 1116.64 718.35 1138.38 737.83 1158.31C745.169 1165.81 751.473 1171.43 758.562 1175.97C760.387 1189.41 777.459 1200.2 786.706 1212.34C796.035 1224.59 806.026 1237.86 818.997 1246.72C828.266 1253.03 826.083 1259.86 832.194 1267.5C858.308 1300.04 882.46 1334.37 907.028 1368.14C913.45 1376.97 919.896 1385.73 926.421 1394.4C943.019 1416.46 957.685 1439.25 970.388 1461.86C1014.05 1539.6 1062.65 1616.3 1099.86 1698.49C1116.07 1734.26 1129.07 1774.05 1152 1808.89C1161.08 1822.65 1165.6 1840.27 1170.75 1856.74C1179.24 1883.71 1187.25 1910.24 1199.95 1936.71C1212.14 1962.1 1214.2 1991.04 1224.7 2018.01C1238.54 2053.47 1246.79 2090.5 1254.95 2127.66C1258.83 2145.21 1262.03 2162.99 1274.56 2175.92C1282.86 2184.4 1269.72 2184.71 1273.22 2195.2C1279.92 2215.28 1284.88 2236.52 1289.52 2257.45C1299.12 2300.46 1302.52 2344.07 1302.44 2387.67C1302.4 2409.14 1305.33 2431.75 1309.04 2453.4C1311.59 2468.2 1305.49 2483.84 1314.2 2497.23C1308.64 2504.43 1302.32 2516.53 1307.92 2525.01C1316.93 2538.56 1313.8 2552.21 1314.69 2566.8C1316.46 2595.38 1320.52 2624.37 1313.03 2652.88C1311.32 2659.43 1318.5 2660.45 1317.71 2668.58C1316.34 2683.73 1315.65 2700.67 1315.7 2714.45C1315.97 2749.67 1300.27 2784.02 1308.41 2820.39C1311.26 2832.67 1303.91 2846.71 1301.94 2860.59C1297.13 2894.32 1293.96 2930.4 1278.62 2961.82C1269.05 2981.17 1263.12 3002.33 1257.99 3023.05L1211.52 3164.23L1068.33 3162.27C1054.89 3163.25 1041.53 3164.88 1028.4 3165.81C1010.95 3167.02 989.342 3163.18 973.504 3173.5C964.644 3163.07 943.708 3172.84 934.043 3161.13C928.003 3153.81 914.31 3158.93 907.733 3161.92C884.109 3172.82 867.464 3172.3 841.693 3171.09C831.969 3170.63 822.035 3169.28 811.977 3168.51C795.379 3167.24 778.445 3167.54 761.563 3176.02C755.286 3179.18 744.965 3177.36 733.939 3175.24C723.376 3173.78 712.479 3171.93 702.646 3171.29C687.008 3170.36 667.395 3169.06 654.665 3160.41C650.516 3157.55 645.675 3156.59 640.908 3159.14C618.017 3171.04 594.678 3157.65 574.485 3148.88C556.256 3140.96 542.928 3129.21 523.078 3138.06C516.69 3140.85 501.805 3135.13 493.149 3130.06C469.872 3116.38 470.557 3116.2 445.379 3111.77C441.486 3111.03 436.906 3108.92 433.17 3106.82C392.77 3084.74 348.865 3067.56 314.611 3033.63C290.19 3009.76 256.841 2980.21 230.156 2964.39C198.195 2945.58 181.449 2916.92 159.057 2892.37C132.425 2863.22 109.106 2828.99 91.8651 2793.41C53.9447 2715.79 18.3111 2634.81 11.4744 2548.75C10.8228 2540.38 10.9149 2529.38 4.26949 2524.87C0.198706 2522.16 -0.54072 2511.55 0.318426 2508.15C7.86408 2478.53 4.21494 2449.23 2.83582 2419.41C2.27199 2410.46 1.77305 2401.56 2.18442 2392.83C6.21912 2309.34 6.93931 2225.72 11.1488 2142.23C13.5221 2094.04 13.235 2046.13 16.689 1998.07C20.4342 1945.86 21.2454 1893.91 24.2906 1841.97C26.4291 1805.46 29.4986 1768.14 27.9061 1731.63C27.2812 1718.21 22.1717 1700.09 34.2748 1689.08C34.454 1688.95 30.8348 1651.23 30.8702 1650.42C30.7706 1646.67 30.4101 1642.91 30.9049 1639.28C37.3655 1584.52 36.4459 1530.7 39.6762 1476.6C40.7147 1458.78 41.9085 1440.94 43.1955 1423.1C47.4408 1348.12 64.9822 1274.66 92.6952 1206.66C103.845 1179.34 120.007 1154.05 134.591 1125.81C119.351 1143.55 111.248 1168.35 98.1244 1183.51C118.105 1141.76 142.614 1101.5 171.852 1068.46C198.187 1038.1 228.233 1002.8 258.856 987.37C263.351 985.033 267.263 979.99 270.725 976.5C273.988 973.226 277.008 970.669 279.621 968.779C285.216 964.975 288.76 964.589 288.653 967.184C288.461 975.153 296.348 968.996 307.844 959.232C311.841 955.827 317.255 950.796 320.19 951.073C322.587 951.192 318.951 954.96 315.531 958.373C309.331 964.512 299.277 973.441 305.922 972.875C310.641 972.469 319.364 969.229 328.925 958.478C329.389 957.991 331.109 957.247 332.692 956.365C332.279 960.698 324.584 966.673 318.284 972.521C330.675 968.208 340.162 965.737 335.994 977.324C335.058 979.803 337.506 979.404 331.924 984.451C320.35 994.896 321.524 995.881 329.492 994.169C339.618 991.957 354.357 985.621 346.573 1001.38C345.996 1002.51 346.65 1003.35 347.795 1002.98C358.951 999.52 362.527 1001.77 358.591 1013.77C355.971 1021.6 372.817 1010.72 383.561 1002.87C407.566 985.315 426.531 979.583 432.932 985.983C432.933 985.983 432.933 985.983 432.933 985.984C435.082 988.133 435.856 991.659 435.007 996.605C432.924 1008.19 425.981 1026.87 446.072 1015.83C428.583 1038.24 411.212 1060.65 393.91 1083.07C324.196 1176.29 295.803 1288.72 302.723 1392.68C303.372 1402.9 304.34 1413.03 305.621 1423.1C320.302 1567.74 328.702 1712.86 342.19 1857.54C344.26 1834.32 338.852 1810.82 340.723 1787.87C340.884 1785.99 342.085 1784.65 344.361 1779.42C346.799 1815.3 349.154 1851.18 351.426 1887.07C351.639 1890.42 351.956 1894.31 348.958 1891.63C340.231 1883.98 345.937 1897.13 346.728 1897.81C354.843 1904.79 354.329 1916.33 353.094 1927.07C351.534 1941.16 355.267 1954.18 356.469 1967.74C362.014 2029.61 366.81 2091.63 371.406 2153.64C373.189 2177.8 372.372 2202.37 377.354 2227.2C380.25 2241.69 388.818 2230.15 390.214 2242.36C391.787 2256.32 378.797 2247.6 380.09 2261.96C381.415 2276.86 379.686 2291.9 382.312 2308.14C385.032 2304.65 387.108 2301.96 391.241 2296.59C382.681 2336.06 391.234 2368.94 399.38 2404.24ZM434.528 3090.59C404.476 3070.17 370.905 3057.81 341.327 3037.4C368.132 3061.77 402.087 3075.87 434.528 3090.59ZM231.084 2946.47C251.487 2977.79 283.558 2999.3 314.535 3019.98C285.9 2996.56 254.644 2975.25 231.084 2946.47ZM533.009 3126.12C591.894 3143.28 653.017 3152.81 713.983 3154.59C713.835 3153.34 713.693 3152.1 713.548 3150.85C653.067 3149.04 592.436 3139.57 534.022 3122.55C533.685 3123.74 533.347 3124.93 533.009 3126.12ZM809.075 3150.44C786.795 3150.43 764.515 3152.13 742.235 3152.73C764.649 3154.23 787.197 3156.94 809.075 3150.44ZM218.076 1246.99C246.718 1189.5 267.972 1139.31 297.124 1093.11C258.149 1134.23 233.103 1187.17 218.076 1246.99ZM698.473 1439.6C705.478 1457.45 710.678 1471.22 722.206 1481.46C723.713 1482.8 725.327 1484.08 727.067 1485.31C726.172 1483.55 725.297 1481.81 724.432 1480.1C717.107 1465.57 710.53 1452.67 698.473 1439.6ZM821.25 1690.41C826.981 1725.48 839.974 1751.87 855.946 1776.66C847.588 1747.64 836.103 1720.27 821.25 1690.41ZM720.365 1525.27C722.114 1529.14 723.845 1533.15 726.066 1533.63C727.899 1534.04 729.132 1531.84 730.314 1530.25C731.009 1529.11 730.381 1526.2 728.58 1525.03C716.334 1517.27 715.199 1501.74 708.953 1489.59C708.141 1488 707.246 1486.47 706.234 1485.03C707.574 1486.16 708.701 1487.55 709.724 1489.12C713.542 1494.95 715.878 1503.15 722.644 1509.13C719.301 1501.53 715.404 1494.65 711.291 1488.16C698.512 1468.07 683.964 1451.83 675.676 1429.45C675.671 1429.41 675.666 1429.36 675.661 1429.31C675.207 1441.3 683.037 1448.28 687.401 1456.95C693.254 1468.66 699.069 1480.38 704.774 1492.15C710.114 1503.16 715.334 1514.19 720.365 1525.27ZM622.634 1339.63C633.361 1361.35 644.39 1378.29 655.737 1395.05C644.518 1378.25 640.081 1357.02 622.634 1339.63ZM963.465 2588.91C962.808 2589.26 961.632 2594.45 964.299 2596.1C967.145 2597.88 969.541 2596.13 971.354 2592.88C977.686 2581.42 976.134 2567.99 980.26 2550.08C980.23 2550.08 980.199 2550.08 980.169 2550.08C975.982 2554.03 974.318 2554.76 973.825 2556.23C970.088 2567.01 976.97 2583.05 963.465 2588.91ZM773.157 1633.05C765.249 1613.51 759.626 1592.22 746.463 1575.36C755.566 1594.39 764.56 1613.8 773.157 1633.05ZM784.41 1661.89C790.962 1680.17 796.2 1698.72 807.523 1714.4C800.516 1696.41 796.954 1676.59 784.41 1661.89ZM922.98 2097.64C927.036 2108.31 918.809 2120.03 922.523 2124.36C935.086 2139.11 930.595 2157.98 934.105 2174.36C936.45 2148.47 936.938 2122.22 922.98 2097.64ZM827.892 1771.34C833.885 1785.91 825.839 1798.39 834.365 1814.57C844.227 1801.28 833.666 1785.79 827.892 1771.34ZM934.246 2228.37C934.437 2229.08 934.711 2229.79 934.884 2230.38C941.415 2250.26 942.066 2270.81 942.717 2291.47C942.94 2300.19 947.407 2304.5 951.687 2304.5C956.753 2304.5 954.553 2296.55 954.267 2291.94C952.85 2262.29 944.863 2233.56 942.712 2203.69C942.039 2194.33 937.23 2184.89 934.231 2175.71C927.074 2176.67 932.465 2183.72 932.047 2188.29C930.888 2199.76 937.665 2205.85 940.386 2214.45C944.086 2226.13 941.945 2229.29 934.246 2228.37ZM946.933 2526C940.09 2528.76 945.239 2530.11 947.513 2529.95C950.149 2529.8 950.127 2536.77 954.003 2532.99C953.863 2530.34 953.449 2527.46 953.662 2524.55C953.78 2522.01 953.173 2518.63 955.808 2517.36C955.808 2517.4 955.808 2517.44 955.807 2517.48C964.2 2545.63 947.141 2574.5 954.187 2602.68C960.902 2544.77 964.672 2485.44 958.004 2426.29C957.537 2422.01 955.201 2418.01 956.833 2413.53C965.654 2388.73 956.966 2362.7 956.802 2337.4C956.748 2329.41 952.998 2326.22 946.688 2321.75C952.07 2350.12 954.923 2375.86 949.589 2401.44C948.757 2405.45 949.366 2410.13 949.585 2414.4C951.648 2447.82 953.624 2480.91 951.298 2513.95C950.912 2518.92 952.403 2523.86 946.933 2526ZM455.113 1028.29C450.096 1036.2 431.314 1061.61 406.192 1095.35C337.121 1178.22 319.787 1343.8 321.758 1353.46C319.001 1283.42 338.884 1209.79 372.795 1141.49C381.215 1124.51 390.71 1107.52 402.164 1091.32C417.051 1071.24 432.9 1051.47 450.512 1032.42C451.862 1030.93 453.3 1029.89 455.113 1028.29ZM940.26 2656.13C936.768 2696.29 931.374 2735.78 924.304 2774.37C922.411 2784.47 919.348 2794.52 924.859 2803.26C924.863 2803.23 924.872 2803.2 924.876 2803.16C930.057 2800.08 929.981 2793.92 931.02 2788.67C939.881 2745.89 946.328 2701.92 951.113 2657.38C951.668 2651.6 953.948 2644.55 948.206 2643.36C941.369 2641.99 940.838 2649.21 940.26 2656.13ZM648.038 1414.7C625.792 1378.33 603.859 1341.32 583.041 1303.39C607.795 1338.5 629.017 1376.01 648.038 1414.7ZM809.075 2780.62C791.223 2775.94 773.235 2782.27 755.25 2779.44C773.37 2789.06 791.223 2783.4 809.075 2780.62ZM1026.25 2775.78C1036.32 2782.82 1047.47 2784.53 1061.16 2781.8C1063.52 2781.34 1065.91 2780.96 1068.33 2780.67L893.919 2908.7C895.617 2898 899.698 2887.36 905.406 2877.39C906.819 2874.89 911.125 2873.24 907.065 2870.18C903 2867.13 900.911 2870.4 899.651 2874.77C896.467 2885.83 893.112 2896.73 889.633 2907.35L1068.33 2776.17C1054.3 2776.03 1040.28 2775.9 1026.25 2775.78ZM902.1 2860.06C914.132 2843.58 921.973 2824.87 924.746 2804.07C905.726 2818.18 912.402 2842.62 902.1 2860.06ZM925.218 2803.82C925.226 2803.78 925.234 2803.74 925.242 2803.71C925.219 2803.72 925.196 2803.74 925.173 2803.75C925.188 2803.77 925.203 2803.8 925.218 2803.82ZM709.96 1540.85C710.798 1540.36 711.635 1539.87 712.472 1539.38C742.141 1594.01 762.714 1652.88 785.141 1710.36C762.333 1653.15 737.258 1596.6 709.96 1540.85ZM911.459 2184.95C890.538 2088.11 873.422 1989.14 843.068 1892.84C843.092 1892.84 843.116 1892.83 843.14 1892.82C844.672 1892.38 846.24 1891.79 847.736 1891.23C875.854 1988.45 897.191 2086.75 911.459 2184.95ZM792.78 1739.98C793.534 1739.77 794.308 1739.42 795.081 1739.06C812.889 1785.48 829.131 1832.11 843.947 1879.29C843.132 1879.47 842.207 1879.55 841.359 1879.88C826.632 1832.82 810.484 1786.29 792.78 1739.98ZM362.407 2225.59C360.465 2195.66 364.097 2165.85 353.525 2135.79C354.988 2165.72 356.397 2195.66 357.752 2225.59C359.304 2225.59 360.855 2225.59 362.407 2225.59ZM558.083 1290C555.186 1284.62 553.047 1290.04 551.229 1284.57C542.201 1257.49 521.656 1238.07 506.492 1215.36C498.248 1203.05 496.235 1197.73 497.014 1191.83C515.486 1217.78 535.037 1243.36 549.433 1271.64C552.242 1277.25 555.854 1278.83 558.62 1283.49C562.922 1290.79 561.292 1291.23 558.083 1290ZM497.017 1191.52C497.029 1191.51 497.041 1191.49 497.052 1191.48C497.046 1191.53 497.046 1191.57 497.04 1191.61C497.026 1191.61 497.011 1191.6 496.997 1191.6C497.004 1191.57 497.01 1191.54 497.017 1191.52ZM497.04 1191.61C497.058 1191.62 497.075 1191.62 497.092 1191.62C497.071 1191.64 497.05 1191.66 497.029 1191.68C497.032 1191.65 497.037 1191.63 497.04 1191.61ZM496.875 1191.57C496.915 1191.58 496.957 1191.59 496.997 1191.6C496.982 1191.65 496.968 1191.69 496.953 1191.74C496.927 1191.68 496.901 1191.63 496.875 1191.57ZM497.029 1191.68C497.023 1191.72 497.02 1191.78 497.014 1191.83C496.994 1191.8 496.973 1191.77 496.953 1191.74C496.979 1191.72 497.004 1191.7 497.029 1191.68ZM626.187 2742.54C623.799 2741.5 619.503 2740.17 618.106 2744.3C616.713 2748.45 620.748 2748.6 623.791 2749.46C639.924 2754.25 656.255 2758.34 672.85 2761.09C659.124 2748.59 641.696 2749.22 626.187 2742.54ZM611.491 1384.89C594.193 1355.23 574.571 1327.19 558.77 1296.17C557.857 1294.35 558.321 1292.23 558.22 1290.25C566.963 1297.91 574.311 1308.08 581.3 1320.45C592.068 1339.55 603.166 1358.47 613.667 1377.75C615.76 1381.57 618.649 1386.24 616.38 1388.14C615.199 1389.12 613.14 1387.77 611.491 1384.89ZM328.224 1619.82C335.245 1636.06 339.508 1679.82 336.176 1707.2C330.506 1675.53 332.888 1647.34 328.224 1619.82ZM380.618 2457.98C385.943 2447.46 386.246 2439.48 380.142 2428.96C372.35 2438.86 375.817 2447.8 380.618 2457.98ZM376.375 2275.52C376.418 2271.09 375.952 2266.66 372.911 2266.26C369.194 2265.72 366.875 2272.03 368.385 2275.66C376.141 2293.91 368.846 2314.45 376.025 2338.47C376.023 2338.43 376.021 2338.38 376.019 2338.34C376.209 2313.51 376.261 2294.45 376.375 2275.52ZM732.712 1632.94C722.482 1604.94 708.739 1579.18 697.278 1551.93C691.188 1537.48 683.219 1523.58 676.861 1509.27C671.866 1498.02 667.885 1486.56 666.439 1474.37C670.598 1485.49 675.24 1496.41 680.146 1507.25C698.935 1548.92 721.873 1588.97 732.712 1632.94ZM919.159 2313.84C920.249 2313.68 921.339 2313.52 922.428 2313.36C927.228 2361.16 930.268 2408.75 931.44 2456.1C930.306 2456.17 929.173 2456.24 928.04 2456.31C926.905 2409.06 923.909 2361.56 919.159 2313.84ZM557.814 1289.9C557.729 1289.83 557.643 1289.74 557.558 1289.67C557.558 1289.67 557.826 1289.86 558.002 1289.97C558.029 1289.98 558.055 1289.99 558.083 1290C558.088 1290 558.093 1290.01 558.098 1290.02C558.14 1290.04 558.161 1290.05 558.147 1290.02C558.17 1290.06 558.193 1290.1 558.216 1290.13C558.219 1290.17 558.218 1290.21 558.22 1290.25C558.147 1290.19 558.073 1290.12 558 1290.06C557.862 1289.98 557.724 1289.89 557.586 1289.81C557.663 1289.84 557.738 1289.87 557.814 1289.9ZM659.774 1476.51C653.624 1459.38 640.277 1445.44 637.56 1426.96C647.359 1442.7 658.506 1457.94 659.774 1476.51ZM760.488 2748.15C764.38 2747.95 768.81 2748.61 768.14 2752.63C767.604 2756.46 763.574 2756.66 759.413 2756.28C750.882 2755.47 742.436 2754.66 733.939 2753.85C732.563 2753.64 731.189 2753.42 729.818 2753.2C729.845 2753.2 729.872 2753.2 729.899 2753.2C730.079 2752.05 730.176 2751 730.271 2749.86C731.49 2749.76 732.713 2749.65 733.939 2749.53C742.74 2749.01 751.614 2748.48 760.488 2748.15ZM919.405 2636.56C916.169 2611.12 924.329 2586.61 924.735 2561.36C928.891 2586.73 922.227 2611.8 919.405 2636.56ZM772.981 1733.59C770.726 1734.79 767.557 1732.55 766.908 1729.27C763.08 1709 754.287 1690.99 746.312 1672.23C745.391 1670.16 745.943 1667.2 745.666 1661.97C760.951 1681.11 764.755 1704.52 774.56 1723.98C776.685 1728.11 775.555 1732.25 772.981 1733.59ZM805.936 1844.26C796.997 1813.44 787.608 1782.55 776.662 1752.09C774.439 1745.86 773.737 1741.79 776.342 1740.3C780.763 1737.82 781.414 1745.93 782.674 1749.74C792.462 1778.64 801.206 1807.54 809.489 1836.77C809.476 1836.73 809.463 1836.69 809.45 1836.65C808.32 1839.13 807.114 1841.64 805.936 1844.26ZM511.391 2642.23C522.459 2651.2 530.849 2662.43 542.46 2675.04C532.939 2672.95 526.586 2671.25 519.975 2669.34C517.928 2676.82 526.713 2676.52 526.858 2684.04C512.5 2672.55 498.633 2662.62 488.252 2648.67C476.191 2632.38 463.18 2616.52 449.638 2601.16C449.554 2601.15 449.47 2601.13 449.386 2601.12C443.467 2594.24 445.094 2589.9 447.767 2584C447.824 2584 447.881 2584 447.937 2584C458.152 2586.7 467.934 2588.41 463.357 2602.22C461.992 2606.68 467.097 2605.93 469.003 2607.61C479.749 2617.11 493.76 2622.21 497.831 2637.76C499.133 2642.59 507.886 2639.39 511.391 2642.23ZM836.176 1929.46C819.707 1901.13 812.531 1870.23 809.515 1837.04C821.418 1866.72 828.823 1898.14 836.176 1929.46ZM809.489 1836.77C809.497 1836.86 809.507 1836.95 809.515 1837.04C809.483 1836.96 809.452 1836.88 809.42 1836.8C809.443 1836.79 809.466 1836.78 809.489 1836.77ZM887.803 2185.33C883.057 2180.65 876.557 2180.12 877.647 2170.3C881.102 2138.42 866.991 2110.66 861.509 2080.9C861.163 2078.85 860.894 2076.77 860.465 2074.35C866.006 2075.09 862.506 2083.67 868.053 2086.46C866.204 2070.67 864.417 2055.49 858.867 2041.25C858.121 2039.43 855.372 2037.82 855.438 2037.04C856.314 2028.33 848.544 2014.62 854.486 2011.6C860.336 2008.47 862.028 2023.76 863.164 2029.71C863.174 2029.75 863.183 2029.79 863.193 2029.83C873.441 2081.08 884.051 2131.9 887.803 2185.33ZM322.321 1375.42C323.365 1391.81 327.487 1407.53 330.748 1423.1C332.48 1434.29 333.71 1445.62 333.785 1457.28C333.8 1461.44 335.684 1468.28 332.734 1469.09C330.023 1469.89 328.848 1463.99 328.429 1459.16C328.409 1459.16 328.389 1459.16 328.369 1459.16C327.326 1447.14 326.272 1435.12 325.209 1423.1C323.36 1407.38 322.386 1391.45 322.321 1375.42ZM350.073 1625.19C347.447 1647.47 359.19 1668.01 357.419 1690.02C357.446 1690.07 357.472 1690.11 357.499 1690.16C356.724 1699.15 357.493 1709.49 352.802 1717.67C346.313 1685.73 348.095 1656.87 344.707 1628.28C344.286 1624.65 345.314 1620.23 347.781 1620.63C348.516 1620.76 350.192 1624.25 350.073 1625.19ZM357.41 1761.83C358.904 1777.8 375.086 1792.98 360.155 1808.68C353.717 1793.11 358.257 1777.54 357.41 1761.83ZM360.607 1823.98C368.188 1847.47 364.514 1866.4 366.723 1884.65C361.985 1866.8 359.395 1848.68 360.607 1823.98ZM447.891 2583.72C447.871 2583.76 447.855 2583.81 447.835 2583.85C447.954 2583.78 448.073 2583.71 448.192 2583.65C448.092 2583.67 447.99 2583.69 447.891 2583.72ZM342.419 1539.96C342.978 1557.54 348.606 1576.07 344.825 1598.35C337.203 1575.8 341.71 1557.14 338.379 1539.15C338.262 1538.48 339.326 1536.2 339.725 1536.47C340.652 1537 342.262 1538.89 342.344 1539.82C342.369 1539.87 342.394 1539.92 342.419 1539.96ZM626.037 2705.97C635.434 2707.5 636.636 2718.39 646.192 2715.82C646.225 2715.79 646.259 2715.77 646.292 2715.75C645.627 2717.73 644.884 2719.7 644.216 2721.69C642.023 2721.48 639.796 2721.63 637.672 2721.1C607.348 2713.7 577.78 2701.74 549.874 2685.68C546.539 2683.75 543.831 2681.45 546.038 2677.51C549.379 2671.49 552.701 2674.55 555.946 2676.52C570.631 2685.43 586.71 2691.37 601.127 2699.8C608.936 2704.4 618.218 2704.65 626.037 2705.97ZM888.545 2232.39C884.474 2216.98 879.672 2204.55 879.219 2190.66C890.124 2193.67 895.995 2213.91 888.545 2232.39ZM896.95 2355.61C890.841 2346.41 894.077 2336.42 895.216 2327.56C895.22 2327.6 895.223 2327.64 895.227 2327.68C897.537 2310.08 897.381 2292.78 891.752 2275.98C904.956 2299.74 902.893 2327.99 905.828 2354.52C906.251 2358.94 905.698 2363.58 901.421 2364.09C896.616 2364.53 898.435 2357.84 896.95 2355.61ZM903.701 2531.91C899.51 2524.62 889.632 2525.2 895.308 2516.9C903.195 2505.31 900.163 2494.1 897.711 2483.91C894.168 2469.43 903.677 2457.82 900.795 2443.25C897.205 2424.67 904.77 2404.14 897.989 2385C896.522 2380.96 897.08 2375.72 901.478 2375.59C905.878 2375.46 905.868 2380.79 906.121 2385.11C907.169 2407.35 909.354 2429.85 907.346 2451.68C907.317 2451.72 907.288 2451.77 907.259 2451.81C904.956 2477.5 908.194 2502.87 903.701 2531.91ZM756.06 2713.63C760.621 2710.75 762.366 2713.61 763.172 2714.57C770.823 2723.06 782.097 2723.71 792.566 2719.68C802.365 2715.94 802.233 2722.45 803.172 2724.36C805.722 2729.43 797.4 2729.15 794.715 2729.15C774.56 2729.72 754.181 2731.09 733.939 2731.55C725.258 2731.89 716.744 2731.4 708.501 2729.45C696.112 2726.48 683.907 2730.78 672.267 2726.82C672.248 2726.79 672.229 2726.75 672.21 2726.72C663.198 2723.66 650.579 2726.59 648.093 2713.08C651.852 2706.24 654.349 2725.68 656.755 2708.82C657.24 2705.61 661.52 2706.44 664.087 2706.9C680.406 2709.61 695.869 2712.9 712.141 2719.54C718.779 2722.22 726.505 2723.86 733.939 2721.73C741.737 2720.46 749.275 2717.95 756.06 2713.63ZM894.083 2640.6C884.819 2624.05 893.118 2608.04 896.472 2595.81C901.163 2578.4 893.853 2564.99 895.811 2549.22C896.215 2545.59 893.119 2540.03 897.602 2539.08C901.902 2538.1 903.842 2543.54 903.652 2549.08C903.681 2549.12 903.71 2549.16 903.74 2549.2C902.588 2579.09 905.572 2609.33 894.083 2640.6ZM925.722 2719.24C927.735 2720.3 930.688 2711.05 934.043 2718.81C935.116 2721.4 933.638 2724.16 928.136 2724.89C891.492 2729.84 854.578 2730.11 817.532 2727.42C816.325 2727.32 815.385 2725.03 812.434 2721.39C843.708 2720.92 871.627 2715.44 901.291 2717.39C909.344 2717.91 917.668 2715.08 925.722 2719.24ZM984.245 2713.27C998.202 2710.63 999.412 2721.42 1009.08 2723.04C988.941 2732.18 971.623 2732.44 957.53 2713.72C968.536 2718.86 976.46 2714.73 984.245 2713.27ZM848.797 2813.41C848.983 2808.43 845.621 2798.21 858.989 2802.13C862.238 2803.14 862.817 2800.21 861.676 2797.57C861.037 2796.13 859.632 2795.08 858.573 2793.77C871.12 2780.42 867.559 2761.8 872.325 2745.78C873.111 2742.99 873.963 2738.61 877.981 2740.09C880.388 2741 880.677 2743.2 880.114 2746.39C872.12 2793.72 861.625 2839.52 848.244 2882.82C848.183 2882.8 848.122 2882.79 848.061 2882.77C847.615 2884.17 845.988 2885.21 843.908 2887.61C840.335 2878.37 839.793 2867.96 844.429 2862.31C854.623 2849.95 850.297 2833.68 857.509 2820.81C859.095 2818 863.179 2812.34 856.267 2810.41C851.76 2809.13 849.774 2811.34 848.797 2813.41ZM847.976 2815.72C848.143 2815.16 848.375 2814.3 848.797 2813.41C848.758 2814.5 848.56 2815.34 847.976 2815.72Z" fill="var(--stroke-0, #14387A)"/>
<path id="t" d="M893.486 635.262C903.099 654.976 909.312 676.462 914.023 699.082C905.56 678.766 899.227 657.194 893.486 635.262ZM893.486 635.262C893.325 634.932 893.163 634.596 893 634.267C893 634.267 893.236 634.53 893.282 634.688C893.298 634.682 893.314 634.676 893.33 634.67C893.381 634.867 893.434 635.065 893.486 635.262ZM893.189 634.37C893.189 634.184 893.18 633.986 893.178 633.799C893.259 634.077 893.341 634.355 893.423 634.633C893.345 634.545 893.267 634.458 893.189 634.37ZM1970.67 1457.71C1973.42 1478.03 2004.09 1487.13 2024.28 1498.61C2058.29 1517.91 2092.35 1535.8 2126.82 1553.98C2161.99 1572.53 2199.73 1588.92 2237.18 1602.38C2243.81 1604.7 2249.03 1605.89 2241.23 1608.99C2241.15 1608.99 2241.08 1609 2241.01 1609.01C2241.02 1609.03 2241.03 1609.05 2241.04 1609.07C2240.96 1609.1 2240.89 1609.13 2240.81 1609.16C2240.83 1609.12 2240.85 1609.07 2240.88 1609.02C2240.77 1609.03 2240.67 1609.04 2240.56 1609.05C2240.58 1609 2240.61 1608.96 2240.63 1608.91C2226.74 1620.6 2212.73 1602.02 2200.12 1597.73C2172.11 1588.25 2145.72 1568.18 2118.48 1560.27C2089.07 1551.58 2065.51 1528.11 2028.75 1523.88C2120.66 1579.94 2211.24 1626.45 2306.01 1658.4C2308.33 1653.56 2298.05 1654.19 2298.27 1648.02C2393.79 1692.83 2491.07 1738.46 2594.47 1742.12C2561.14 1728.95 2522.93 1731.99 2489.42 1714.92C2506.38 1716.88 2523.72 1716.58 2539.94 1720.26C2589.19 1731.54 2638.86 1736.74 2686.57 1745.39C2703.11 1748.39 2718.09 1739.91 2734.19 1743.56C2739.2 1744.67 2747.15 1743.05 2749.42 1745.22C2763.25 1758.25 2780.6 1758.53 2797.3 1757.04L2598.47 1959.85C2597.81 1947.68 2596.76 1935.37 2597.45 1923.38C2598.11 1911.99 2598.45 1900.62 2598.57 1889.28C2599.06 1844.15 2596.17 1799.35 2596.67 1754.26C2597.35 1684.54 2595.89 1614.67 2598.56 1545.11C2600.13 1504.76 2604.56 1462.45 2603.85 1423.85C2603.84 1423.57 2603.83 1423.28 2603.82 1423C2602.72 1394.47 2600.82 1366.05 2595.11 1338.23C2587.24 1299.91 2565.63 1267.6 2558.75 1226.77C2538.72 1210.98 2527.22 1189.31 2511.17 1169.95C2505.84 1163.92 2500.45 1157.97 2494.91 1152.22C2420.95 1075.33 2352.11 993.973 2280.28 914.957C2192.23 818.059 2104.63 720.482 2018.59 621.788C1961.52 556.427 1903.31 491.995 1846.1 426.778C1843.82 424.245 1842.18 421.078 1839.87 417.697C1846.9 418.323 1851.1 429.862 1857.48 431.573C1851.9 422.503 1843.76 410.761 1837.4 409.023C1826.92 406.168 1820.19 396.286 1813.25 388.359C1806.46 380.527 1799.66 372.699 1792.87 364.871C1774.46 342.786 1753.82 322.486 1731.28 304.085C1685.75 266.907 1630.28 241.168 1571.56 225.754C1520.87 212.43 1466.97 206.928 1413.12 212.063C1355.41 217.534 1297.97 234.792 1245.31 262.829C1313.68 228.374 1388.85 212.021 1462.09 213.791C1462.02 214.606 1461.96 215.472 1461.76 216.285C1377.64 216.579 1287.37 236.119 1215.3 287.202C1215.71 287.745 1216.12 288.287 1216.52 288.83C1249.63 269.263 1284.86 253.981 1320.84 243.718C1331.84 240.557 1342.94 236.283 1354.13 236.036C1350.4 241.192 1338.8 241.235 1331.81 244.576C1334.46 245.402 1341 241.155 1343.34 243.149C1342.57 243.622 1341.88 244.308 1340.9 244.56C1309.26 253.753 1278.07 265.666 1247.07 279.279C1239.86 282.476 1235.08 285.83 1230.44 289.846C1216.8 301.471 1192.8 316.807 1178.27 323.051C1170.85 326.182 1171.18 322.178 1174.25 317.397C1178.91 310.05 1177.14 308.128 1167.97 312.063C1162.52 314.434 1161.45 313.759 1164 309.436C1171.11 297.765 1170.08 297.393 1148.55 314.69C1168.54 294.067 1159.45 297.296 1151.08 296.54C1139.37 295.245 1115.74 304.749 1133.39 275.815C1135.7 272.16 1134.97 265.699 1127.94 265.985C1120.34 266.281 1110.45 266.185 1116.39 252.386C1117.3 250.341 1120.57 245.968 1123.29 243.464C1150.63 219.208 1142.69 217.896 1136.68 217.004C1121.43 215.039 1121.74 200.626 1124.9 182.943C1126.56 173.532 1122.92 167.866 1124.58 158.215C1126.31 147.411 1151.26 126.553 1170.19 112.558C1207.28 84.6002 1249.62 62.8042 1293.84 47.141C1313.58 40.0837 1335.15 32.4468 1355.45 25.4966C1390.83 13.3102 1424.76 11.7726 1461.11 6.62287C1474.82 4.69699 1485.8 2.90412 1496.32 -4.09599e-06C1512 6.61139 1537.19 0.335697 1557.59 1.97355C1578.08 3.53732 1600.02 6.23023 1620.46 4.47C1635.06 3.22866 1639.69 10.0502 1652.57 12.3655C1722.12 24.9552 1789.56 51.4346 1852.86 84.0613C1886.33 101.268 1916.87 122.246 1943.76 145.368C1956.12 155.978 1967.99 166.693 1979.79 177.951C2041.11 235.873 2106.75 289.971 2167.96 348.017C2198.72 377.162 2229.09 410.852 2266.81 434.781C2281.67 444.182 2294.46 459.165 2307.2 472.437C2328.23 494.26 2349.03 515.651 2374.25 534.368C2398.47 552.338 2415.79 577.873 2439.94 597.228C2471.64 622.586 2499.88 651.412 2528.82 679.748C2542.42 693.035 2556.02 706.986 2574.23 711.076C2586.24 713.71 2575.53 721.367 2584.87 728.423C2602.81 741.957 2620.06 757.066 2637.12 771.918C2672.23 802.4 2703.32 835.8 2733.03 870.796C2744.43 884.248 2758.14 897.17 2772.15 908.965C2777.06 913.282 2781.92 917.57 2786.7 921.818C2802.36 935.711 2811.54 956.586 2829.78 966.118C2831.45 977.393 2836.19 994.493 2847.56 1001.02C2865.93 1011.56 2873.72 1029.15 2885.05 1046.05C2907.4 1079.34 2929.7 1113.32 2939.03 1152.83C2941.14 1161.84 2948.19 1160.02 2951.85 1170.78C2958.76 1190.84 2966.34 1213.09 2972.48 1231.05C2988.56 1277.59 2985.29 1328.11 3002.01 1374.34C3007.16 1388.46 3004.39 1406.63 3003.99 1423.85C3003.94 1425.37 3003.94 1426.89 3004 1428.39C3005.35 1462.56 3009.99 1497.65 3003.08 1531.04C2995.44 1567.52 3001.47 1604.47 3003.67 1640.02C3004.88 1660.12 3001.04 1685.01 3011.35 1703.25C3000.92 1713.45 3010.69 1737.57 2998.99 1748.7C2991.66 1755.65 2996.79 1771.42 2999.78 1779C3010.67 1806.2 3010.15 1825.37 3008.94 1855.05C3008.49 1866.25 3007.14 1877.69 3006.37 1889.28C3005.1 1908.39 3005.4 1927.9 3013.88 1947.34C3015.33 1950.66 3015.73 1954.95 3015.53 1959.85L3014.94 2170.45L2805.58 2174.01C2789.78 2173.83 2768.46 2169 2750.94 2168.15C2735.44 2167.47 2715.84 2166.8 2702.94 2158.76C2698.76 2156.1 2693.95 2155.38 2689.39 2158.19C2667.38 2171.29 2644.23 2159.76 2623.7 2153.06C2605.17 2147 2591.12 2136.97 2573.02 2148.44C2567.14 2152.04 2552.37 2148.6 2543.45 2145.03C2519.38 2135.45 2519.69 2135.11 2495.4 2135.74C2491.61 2135.8 2486.96 2134.69 2483.07 2133.43C2440.93 2120.39 2397.01 2115.64 2356.4 2094.71C2327.66 2079.97 2287.92 2064.84 2258.68 2061.57C2224.12 2057.78 2198.67 2040.18 2169.17 2029.96C2134.36 2017.95 2099.56 2002.18 2067.65 1983.84C1997.66 1943.76 1924.3 1910.57 1860.77 1862.21C1854.62 1857.49 1847 1850.69 1839.57 1853.08C1835.08 1854.57 1827.13 1848.82 1825.22 1846.14C1802.18 1813.36 1763.3 1799.26 1733.06 1776.26C1649.86 1713.07 1569.22 1647.5 1495.27 1574.63C1452.73 1532.78 1409.85 1491.32 1371.39 1446.03C1338.72 1407.57 1306.19 1369.71 1275.19 1330.29C1266.42 1319.14 1257.86 1307.97 1249.4 1296.59C1222.54 1260.4 1196.88 1222.23 1169.06 1186.91C1158.81 1174 1141.61 1158.69 1143.79 1140.66C1143.75 1140.48 1114.54 1104.31 1114.09 1103.39C1111.43 1099.61 1108.56 1095.97 1106.51 1091.99C1074.64 1032.29 1039.6 976.337 1010.26 916.594C968.6 831.917 934.172 743.479 904.278 654.358C895.08 626.873 889.66 597.727 879.457 567.842C881.654 590.836 892.895 614.038 893.178 633.799C880.334 590.253 868.322 545.608 861.594 502.098C859.367 487.801 856.365 472.813 853.705 457.945L838.588 378.979L882.42 343.48C902.536 327.762 922.799 312.54 942.236 303.841C946.744 301.791 950.693 296.989 954.127 293.646C965.369 282.809 973.164 279.892 972.718 283.819C971.908 292.407 980.86 285.185 993.968 273.808C998.527 269.841 1004.73 264.018 1007.87 264.094C1010.44 264.04 1006.24 268.37 1002.3 272.301C995.168 279.375 983.674 289.744 990.866 288.632C995.974 287.837 1005.6 283.69 1016.7 271.398C1017.24 270.839 1019.15 269.908 1020.92 268.839C1020.15 273.532 1011.41 280.543 1004.19 287.313C1017.85 281.733 1028.24 278.356 1022.88 291.137C1021.69 293.875 1024.35 293.26 1017.96 299.113C1004.72 311.228 1005.91 312.2 1014.61 309.753C1025.67 306.605 1042.01 298.671 1032.44 316.21C1031.73 317.471 1032.37 318.332 1033.63 317.843C1045.9 313.275 1049.57 315.421 1044.43 328.639C1041.02 337.251 1059.96 324.278 1072.12 315.008C1099.28 294.306 1120.11 286.701 1126.52 293.1C1126.52 293.101 1126.52 293.101 1126.52 293.101C1128.66 295.25 1129.23 298.985 1127.94 304.371C1124.82 316.992 1115.94 337.62 1138.39 324.219C1097.25 375.211 1056.62 426.21 1016.09 477.149L1034.64 403.2C1079.92 506.944 1133.83 605.537 1192.98 700.792C1284.33 847.428 1386.33 986.976 1506.1 1108.2C1491.72 1087.67 1471.66 1071.31 1457.97 1050.58C1456.85 1048.88 1456.91 1047 1455.28 1041.15C1478.21 1067.38 1501.67 1093.07 1525.65 1118.2C1528.32 1121 1530.99 1123.78 1533.66 1126.55C1536.17 1129.16 1539.14 1132.12 1534.98 1131.89C1522.99 1131.32 1536.56 1138.36 1537.63 1138.38C1548.68 1138.75 1556.39 1148.37 1563.1 1157.75C1572.01 1170.1 1584.2 1177.96 1594.91 1187.75C1643.99 1232.56 1694.48 1275.55 1746.53 1316.12C1766.74 1331.88 1786.02 1349.67 1809.32 1362.62C1822.93 1370.16 1819.03 1355.8 1829.85 1362.91C1842.23 1371 1826.9 1375.28 1839.5 1383.81C1852.54 1392.59 1863.99 1403.81 1879.18 1412.16C1877.92 1407.76 1876.94 1404.39 1875.01 1397.66C1902.53 1429.82 1935.7 1443.4 1970.67 1457.71ZM2481.29 2117.31C2448.82 2103.79 2414.55 2100.47 2381.92 2089.97C2413.07 2105.04 2447.68 2109.85 2481.29 2117.31ZM2252.99 2045C2282.56 2064.73 2318.04 2072.47 2352.46 2081.88C2319.39 2069.14 2284.4 2061.13 2252.99 2045ZM2581.14 2135.27C2640.16 2144.45 2700.48 2150.16 2762.08 2151.29C2761.92 2150.04 2761.76 2148.8 2761.59 2147.55C2700.36 2146.41 2640.38 2140.72 2581.68 2131.6C2581.5 2132.82 2581.32 2134.05 2581.14 2135.27ZM2988.29 1892.62C2988.29 1915.03 2989.58 1937.44 2990.31 1959.85L2989.79 2145.65L2805.08 2148.8C2801.26 2148.98 2797.44 2149.13 2793.6 2149.25C2797.44 2149.4 2801.27 2149.55 2805.1 2149.68L2990.66 2146.52L2991.19 1959.85C2992.62 1937.27 2993.98 1914.65 2988.29 1892.62ZM1025.49 602.837C1006.85 535.591 982.246 480.451 961.138 425.44L960.795 423.651L961.788 422.848C964.118 420.145 966.444 417.449 968.769 414.759C966.012 417.026 963.277 419.313 960.56 421.62L958.904 422.96L959.475 425.942C972.306 485.684 995.928 542.629 1025.49 602.837ZM1668.24 233.684C1686.61 245.709 1699.04 255.348 1717.47 257.002C1701.66 246.724 1687.9 237.931 1668.24 233.684ZM1892.79 427.75C1914.68 463.79 1940.64 488.33 1968.9 509.698C1946.01 481.437 1921.44 455.725 1892.79 427.75ZM1730.2 295.144C1733.4 297.74 1736.58 300.512 1738.74 299.948C1740.53 299.497 1740.73 297.004 1741.12 295.074C1741.26 293.745 1739.47 291.445 1737.36 291.209C1721.42 289.7 1713.24 273.422 1699.44 267.359C1707.51 268.603 1714.15 277.398 1725.08 279.95C1698.35 259.169 1669.85 255.763 1643.88 239.054C1643.85 239.018 1643.81 238.983 1643.78 238.948C1650.54 248.674 1660.73 249.632 1669.05 254.232C1690.7 266.278 1711.28 279.806 1730.2 295.144ZM1544.59 209.261C1567.96 215.874 1587.45 220.31 1606.96 225.294C1587.68 220.232 1569.42 208.013 1544.59 209.261ZM2595.24 1246.15C2594.82 1246.74 2596.02 1251.33 2599.08 1251.38C2602.35 1251.44 2603.72 1248.93 2603.89 1245.47C2604.45 1233.4 2596.83 1223.24 2591.46 1207.28C2591.44 1207.29 2591.41 1207.31 2591.39 1207.33C2589.82 1212.64 2588.75 1214.07 2589.05 1215.47C2591.09 1225.6 2604.54 1235.04 2595.24 1246.15ZM1818.41 377.885C1812.48 370.962 1806.85 363.743 1801.13 356.612C1793.06 345.995 1784.16 336.018 1772.68 329.168C1782.23 338.256 1791.34 347.72 1800.09 357.645C1806.2 364.394 1812.3 371.141 1818.41 377.885ZM1842.57 406.48C1857.4 424.66 1871.38 443.474 1890.18 457.248C1874.62 439.8 1861.88 419.303 1842.57 406.48ZM2220.38 818.976C2231.1 827.929 2231.66 843.765 2237.97 846.426C2259.33 855.507 2268.14 876.524 2282.9 891.372C2266.63 864.047 2249.32 837.511 2220.38 818.976ZM1938.43 512.621C1951.74 526.417 1950.24 542.348 1967.14 556.928C1969.86 539.566 1951.5 526.442 1938.43 512.621ZM2321.91 945.469C2322.6 946.087 2323.36 946.647 2323.95 947.152C2344.02 963.366 2360.16 983.525 2376.4 1003.35C2383.26 1011.79 2390.32 1013.47 2393.86 1011.03C2398.06 1008.14 2390.13 1001.64 2386.39 997.295C2362.69 969.184 2334.68 945.16 2311.24 916.341C2303.92 907.327 2293.16 900.481 2283.96 892.67C2278.35 897.237 2288.14 901.689 2290.98 906.437C2298.12 918.531 2308.42 921.14 2317 928.299C2328.69 938.03 2329.22 942.314 2321.91 945.469ZM2551.87 1208.1C2547.64 1214 2552.5 1211.98 2554.29 1210.58C2556.38 1208.94 2559.79 1213.98 2561.12 1209.06C2559.7 1207.22 2557.92 1205.38 2556.63 1203.18C2555.45 1201.29 2553.24 1199.26 2554.71 1196.8C2554.73 1196.83 2554.75 1196.86 2554.78 1196.88C2576.31 1212.39 2575.28 1243.04 2592.91 1261.26C2578.35 1222.2 2556.92 1184.54 2527 1154.12C2517.03 1144.02 2506.91 1134.07 2496.6 1124.29C2492.68 1120.56 2487.55 1118.25 2485.14 1113.01C2471.43 1083.87 2443.77 1064.52 2423.66 1040.04C2417.35 1032.35 2411.86 1031.51 2403.17 1030.79C2429.66 1055.24 2452.58 1078.24 2469.43 1105.98C2472.08 1110.32 2476.48 1114.46 2480.2 1118.39C2493.7 1132.41 2507.33 1146.29 2520.8 1160.32C2531.49 1171.65 2541.24 1183.85 2549.34 1197.07C2551.57 1200.77 2555.26 1203.42 2551.87 1208.1ZM1147.17 336.933C1137.51 351.19 1086.31 416.883 1029.25 490.308L1052.45 397.811C1102.48 511.337 1176.49 630.81 1181.12 642.738C1131.25 566.251 1088.71 482.627 1048.88 398.892L1026.61 487.667C1030.7 482.204 1034.77 476.736 1038.83 471.263C1070.74 427.972 1102.77 383.483 1141.91 341.731C1143.47 340.018 1145.1 338.796 1147.17 336.933ZM2600.47 1309.32C2610.96 1342.68 2616.38 1377.47 2616.94 1412.23C2616.98 1416.13 2616.77 1420.07 2617.07 1423.85C2617.45 1431.34 2618.81 1438.37 2622.83 1444.14C2622.83 1444.1 2622.83 1444.05 2622.83 1444C2627.24 1438.7 2626.15 1430.86 2626.19 1423.85C2626.19 1423.76 2626.19 1423.67 2626.2 1423.58C2627.31 1384.13 2622 1344.45 2610.96 1306.26C2609.47 1301.31 2609 1294.67 2603.3 1296C2596.53 1297.63 2598.64 1303.53 2600.47 1309.32ZM1613.75 245.112C1574.79 232.189 1534.01 222.887 1491.77 216.859C1534.14 218.028 1575.8 228.325 1613.75 245.112ZM2618.48 1892.62C2613.79 1913.18 2620.13 1933.9 2617.3 1954.61C2626.92 1933.74 2621.26 1913.18 2618.48 1892.62ZM2613.64 1642.5C2620.68 1630.9 2622.38 1618.07 2619.66 1602.3C2616.67 1584.83 2617.32 1565.97 2620.72 1548.04C2621.42 1544.18 2625.15 1540.47 2620.44 1537.84C2615.73 1535.21 2614.54 1540.31 2614.47 1546.65C2614.15 1578.6 2613.87 1610.55 2613.64 1642.5ZM2613.08 1526.09C2620.64 1500.19 2624.14 1473.24 2622.87 1445.23C2606.88 1468.81 2618.7 1499.73 2613.08 1526.09ZM2623.29 1444.78C2623.29 1444.73 2623.29 1444.68 2623.29 1444.62C2623.27 1444.65 2623.25 1444.68 2623.23 1444.71C2623.25 1444.73 2623.27 1444.76 2623.29 1444.78ZM1727.46 313.512C1728 312.705 1728.54 311.898 1729.08 311.09C1751.7 327.387 1771.61 347.159 1788.95 368.784C1814.4 398.891 1839.5 429.355 1865.7 458.904C1839.42 429.564 1813.19 400.175 1787 370.737C1769.1 349.863 1749.2 330.678 1727.46 313.512ZM2270.57 913.514C2182.42 825.453 2102.87 729.449 2018.66 637.672C2018.68 637.654 2018.7 637.636 2018.72 637.618C2019.95 636.603 2021.13 635.42 2022.26 634.29C2104.76 727.781 2187.44 820.873 2270.57 913.514ZM1887.73 488.991C1888.38 488.555 1888.99 487.953 1889.59 487.351C1930.21 532.645 1970.95 577.823 2011.81 622.884C2011.12 623.358 2010.27 623.769 2009.62 624.411C1968.87 579.39 1928.24 534.25 1887.73 488.991ZM1798.44 1373C1772.72 1354.04 1751.3 1330.5 1720.38 1316.56C1745.09 1337.17 1770.1 1357.15 1795.45 1376.57C1796.45 1375.38 1797.44 1374.19 1798.44 1373ZM1467.02 229.39C1461.15 228.774 1464.37 233.573 1459 232.052C1432.27 224.639 1405.58 233.003 1379.39 236.951C1365.06 239.172 1359.55 239.03 1354.41 236.007C1385.13 229.018 1416.68 223.564 1447.53 226.535C1453.6 227.171 1456.78 225.018 1462.06 225.301C1470.31 225.815 1469.74 227.448 1467.02 229.39ZM1354.13 235.884C1354.12 235.869 1354.12 235.854 1354.11 235.84C1354.15 235.861 1354.19 235.879 1354.23 235.9C1354.22 235.912 1354.21 235.924 1354.2 235.936C1354.18 235.919 1354.15 235.901 1354.13 235.884ZM1354.23 235.9C1354.24 235.885 1354.24 235.87 1354.25 235.855C1354.26 235.882 1354.27 235.908 1354.28 235.935C1354.26 235.923 1354.24 235.911 1354.23 235.9ZM1354.13 236.036C1354.15 236.003 1354.18 235.969 1354.2 235.936C1354.24 235.967 1354.27 235.998 1354.31 236.03C1354.25 236.032 1354.19 236.034 1354.13 236.036ZM1354.28 235.935C1354.32 235.96 1354.37 235.982 1354.41 236.007C1354.38 236.014 1354.35 236.022 1354.31 236.03C1354.3 235.998 1354.29 235.966 1354.28 235.935ZM2615.63 1741.71C2611.67 1740.8 2604.63 1739.73 2603.98 1744.04C2603.34 1748.37 2609.44 1748.24 2614.27 1748.91C2640.02 1752.72 2665.69 1756.16 2691.06 1758.45C2668.2 1746.25 2641.24 1747.53 2615.63 1741.71ZM1568.85 248.387C1537.59 239.942 1505.33 237.07 1472.31 232.328C1470.37 232.036 1468.93 230.451 1467.3 229.422C1478.14 226.521 1490.4 226.498 1503.96 228.597C1524.87 231.861 1545.54 235.957 1565.57 241.851C1569.55 243.006 1574.62 244.27 1574.3 247.213C1574.13 248.738 1571.85 249.228 1568.85 248.387ZM1342.6 909.875C1358.02 920.896 1387.83 957.568 1402.38 983.478C1377.88 958.885 1362.76 932.299 1342.6 909.875ZM2023.68 1517.85C2013.63 1503.87 2003.07 1495.97 1985.45 1491.18C1993.96 1506.56 2007.16 1511.72 2023.68 1517.85ZM1848.35 1395.63C1844.72 1392.7 1840.78 1390.14 1838.55 1392.25C1835.78 1394.79 1839.55 1400.78 1843.5 1401.98C1863.47 1407.92 1876.21 1427.03 1900.92 1436.44C1900.88 1436.42 1900.84 1436.39 1900.8 1436.36C1879.87 1420.56 1863.98 1408.16 1848.35 1395.63ZM1776.77 386.793C1775.91 385.71 1775.05 384.632 1774.18 383.557C1758.78 362.92 1739.59 346.162 1720.64 328.864C1701.62 311.611 1677.86 300.666 1661.4 280.374C1703.18 311.133 1748.66 339.189 1774.44 383.293C1775.23 384.456 1776 385.622 1776.77 386.793ZM2374.19 1038.79C2374.97 1038.01 2375.75 1037.23 2376.53 1036.45C2418.07 1080.98 2459.73 1125.37 2501.52 1169.65C2500.72 1170.45 2499.92 1171.25 2499.11 1172.06C2457.35 1127.76 2415.71 1083.34 2374.19 1038.79ZM1466.8 229.557C1466.69 229.586 1466.58 229.61 1466.48 229.639C1466.48 229.639 1466.77 229.525 1466.96 229.441C1466.98 229.424 1467 229.406 1467.02 229.39C1467.03 229.391 1467.04 229.392 1467.05 229.393C1467.09 229.37 1467.1 229.354 1467.08 229.353C1467.12 229.354 1467.16 229.355 1467.2 229.357C1467.24 229.378 1467.27 229.4 1467.3 229.422C1467.21 229.446 1467.12 229.47 1467.03 229.495C1466.89 229.561 1466.75 229.628 1466.6 229.695C1466.67 229.649 1466.73 229.603 1466.8 229.557ZM1657.22 285.941C1643.75 275.787 1626.16 273.265 1613.41 261.18C1629.77 266.598 1646.92 271.819 1657.22 285.941ZM2586.01 1948.58C2585.81 1944.1 2586.47 1938.99 2590.48 1939.76C2594.31 1940.38 2594.51 1945.02 2594.14 1949.82C2593.86 1953.17 2593.58 1956.52 2593.3 1959.85L2797.2 1751.87C2790.16 1751.26 2783.07 1750.57 2775.85 1749.79C2775.89 1749.79 2775.93 1749.79 2775.97 1749.79C2776.23 1748.64 2776.36 1747.59 2776.49 1746.44C2783.4 1746.05 2790.27 1745.53 2797.07 1745.01L2586.44 1959.85C2586.28 1956.1 2586.13 1952.34 2586.01 1948.58ZM2574.48 1302.22C2562.7 1284.64 2560.47 1263.33 2549.75 1245.21C2564.41 1260.99 2568.49 1282.67 2574.48 1302.22ZM1864.6 487.422C1862.9 489.334 1858.59 487.737 1856.33 484.315C1842.64 463.245 1825.07 445.622 1808.34 426.931C1806.46 424.882 1805.67 421.51 1803.04 415.841C1827.24 433.176 1842.24 457.967 1861.51 476.513C1865.66 480.453 1866.54 485.26 1864.6 487.422ZM1955.11 598.04C1929.37 567.597 1903.75 536.808 1877.51 506.643C1872.13 500.438 1869.4 496.169 1871.3 493.836C1874.54 489.937 1879.21 498.606 1882.39 502.416C1906.6 531.111 1930.48 559.926 1954.52 588.793C1954.48 588.754 1954.45 588.716 1954.41 588.677C1954.65 591.72 1954.83 594.823 1955.11 598.04ZM2381.1 1651.55C2404.52 1658.63 2426.2 1669.09 2452.47 1680.51C2436.8 1679.87 2426.7 1679.42 2415.86 1678.76C2418.78 1687.14 2430.88 1685 2436.5 1692.92C2408.05 1683.63 2381.44 1676.5 2355.56 1664.52C2325.6 1650.59 2293.55 1637.75 2261.76 1626.73C2261.65 1626.75 2261.54 1626.77 2261.43 1626.79C2247.38 1621.82 2244.59 1616.57 2241.04 1609.07C2241.1 1609.04 2241.16 1609.01 2241.23 1608.99C2255.79 1607.58 2269.94 1605.92 2279.09 1622.6C2282.13 1627.92 2287.55 1625.26 2291.67 1626.42C2314.58 1632.87 2338.54 1634.4 2358.46 1650.17C2364.53 1654.99 2373.62 1649.31 2381.1 1651.55ZM2033.28 679.243C2000.71 655.119 1975.79 624.01 1954.69 589.077C1982.65 617.366 2007.71 648.557 2033.28 679.243ZM1954.52 588.793C1954.57 588.888 1954.63 588.983 1954.69 589.077C1954.61 589.001 1954.54 588.922 1954.46 588.846C1954.48 588.828 1954.5 588.811 1954.52 588.793ZM2250.01 925.769C2242.41 923.311 2236.25 925.976 2230.11 915.277C2210.38 880.795 2178.38 858.567 2153.14 829.597C2151.43 827.587 2149.78 825.519 2147.76 823.165C2153.36 821.504 2155.92 832.067 2162.9 832.513C2150.47 816.742 2138.97 801.788 2124.41 789.023C2122.52 787.413 2118.91 786.873 2118.46 786.013C2113.59 776.452 2097.54 765.172 2101.21 759.53C2104.72 753.835 2116 769.237 2120.92 775.028C2120.95 775.066 2120.99 775.105 2121.02 775.143C2163.62 824.805 2208.03 872.873 2250.01 925.769ZM1197.47 669.024C1216.69 698.937 1240.25 724.32 1257.66 756.011C1259.81 759.973 1264.99 765.526 1262.82 767.706C1260.86 769.767 1256.78 764.761 1253.91 760.347C1253.9 760.356 1253.88 760.366 1253.86 760.375C1234.39 730.415 1215.58 699.958 1197.47 669.024ZM1364.07 902.786C1375 924.288 1397.04 935.879 1409.08 956.152C1409.13 956.176 1409.18 956.201 1409.23 956.225C1414.1 964.54 1421.13 973.078 1422.47 982.95C1397.16 958.939 1381.07 932.296 1361.39 908.496C1358.9 905.469 1357.17 900.925 1359.47 899.941C1360.17 899.662 1363.61 901.879 1364.07 902.786ZM1454.24 1018.24C1465.76 1031.03 1488.39 1033.83 1487.03 1056.18C1471.66 1047.14 1465.02 1031.12 1454.24 1018.24ZM1497.58 1068.68C1515.92 1081.23 1525.95 1095.9 1537.35 1108.31C1539.37 1110.51 1541.44 1112.63 1543.6 1114.65C1541.14 1112.88 1538.7 1111.07 1536.3 1109.19C1523.14 1098.93 1510.76 1086.69 1497.58 1068.68ZM2240.86 1608.71C2240.89 1608.76 2240.92 1608.82 2240.95 1608.87C2241.01 1608.75 2241.06 1608.62 2241.12 1608.5C2241.04 1608.57 2240.95 1608.64 2240.86 1608.71ZM1309.11 829.21C1319.27 845.172 1334.42 859.2 1344.04 881.408C1324.6 865.01 1317.94 845.423 1305.2 830.528C1304.73 829.967 1304.39 827.311 1304.88 827.356C1305.97 827.385 1308.39 828.301 1308.97 829.124C1309.02 829.153 1309.07 829.181 1309.11 829.21ZM2601.72 1704.26C2618.02 1705.41 2623.62 1716.46 2638.4 1713.5C2638.44 1713.47 2638.49 1713.44 2638.54 1713.42C2638.09 1715.47 2637.52 1717.5 2637.07 1719.55C2633.45 1719.42 2629.86 1719.67 2626.33 1719.23C2575.14 1713.02 2523.11 1703.18 2470.93 1690.59C2464.71 1689.08 2459.14 1687.11 2459.56 1682.54C2460.15 1675.59 2467.39 1678.33 2473.66 1679.94C2502.09 1687.25 2531.14 1691.84 2558.46 1699.46C2573.42 1703.65 2588.3 1703.28 2601.72 1704.26ZM2285.48 973.593C2270.29 959.927 2256.94 949.669 2246.34 935.56C2258.23 933.295 2277.91 950.774 2285.48 973.593ZM2389.57 1093.15C2377 1087.57 2371.56 1075.74 2365.35 1066.2C2365.39 1066.24 2365.42 1066.28 2365.46 1066.32C2353.05 1047.24 2339.5 1030.19 2321.59 1016.18C2351.17 1032.94 2371.85 1062.33 2395.89 1086.82C2399.85 1090.95 2403.24 1095.88 2400.19 1098.93C2396.67 1102.23 2392.6 1094.49 2389.57 1093.15ZM2519.27 1236.96C2512.58 1234.65 2504.88 1240.86 2505.78 1232.36C2506.94 1220.48 2499.12 1215.26 2492.35 1210.76C2487.48 1207.54 2485.45 1202.73 2483.31 1197.81C2478.76 1190.51 2474.28 1183.14 2466.84 1177C2447.85 1161.23 2436.2 1136.37 2414.82 1121.67C2410.27 1118.58 2406.37 1113.08 2409.8 1110.31C2413.23 1107.53 2417.62 1112.76 2421.41 1116.84C2440.83 1138.08 2461.67 1158.56 2479.25 1180.98C2479.27 1181.04 2479.28 1181.1 2479.3 1181.16C2482.32 1185.01 2485.45 1188.77 2488.64 1192.47C2499.21 1206.05 2511.43 1218.76 2519.27 1236.96ZM2551.49 1953.68C2548.61 1948.42 2551.47 1946.41 2552.42 1945.49C2560.92 1936.68 2561.57 1923.69 2557.54 1911.63C2553.8 1900.35 2560.31 1900.5 2562.22 1899.42C2567.29 1896.48 2567.01 1906.07 2567.01 1909.16C2567.42 1925.97 2568.25 1942.93 2568.86 1959.85L2796.72 1727.42C2778.84 1728.62 2760.28 1728.74 2742.18 1726.13C2722.18 1723.22 2703.11 1727.68 2683.75 1723.95C2683.71 1723.91 2683.67 1723.88 2683.64 1723.84C2668.23 1720.91 2649.08 1724.33 2640.64 1710.64C2644.78 1703.55 2654.71 1723.27 2653.7 1706.05C2653.53 1702.77 2660.99 1703.52 2665.41 1703.94C2693.75 1706.4 2720.42 1709.6 2747.24 1716.18C2762.8 1720.02 2781.8 1721.63 2796.43 1713.03L2554.46 1959.85C2553.58 1957.74 2552.59 1955.68 2551.49 1953.68ZM2552.62 1315.2C2538.76 1307.24 2540.74 1293.02 2539.1 1283.04C2536.75 1269.03 2524.95 1263.59 2520.16 1252.53C2518.99 1249.97 2514.08 1248.16 2517.37 1245.03C2520.51 1241.99 2524.5 1244.45 2526.68 1248.17C2526.72 1248.18 2526.76 1248.19 2526.8 1248.2C2538.41 1268.25 2552.91 1288.4 2552.62 1315.2ZM2557.09 1758.28C2558.15 1755.96 2548.91 1752.56 2556.67 1748.7C2559.25 1747.46 2562.01 1749.16 2562.75 1755.5C2567.69 1797.7 2567.97 1840.21 2565.28 1882.88C2565.18 1884.27 2562.88 1885.35 2559.25 1888.75C2558.77 1852.73 2553.3 1820.58 2555.25 1786.42C2555.76 1777.14 2552.94 1767.55 2557.09 1758.28ZM2551.13 1690.88C2548.49 1674.8 2559.28 1673.41 2560.89 1662.28C2570.03 1685.47 2570.3 1705.42 2551.57 1721.65C2556.71 1708.97 2552.58 1699.84 2551.13 1690.88ZM2550.41 1479.43C2549.5 1472.33 2544.13 1458.9 2558.02 1460.55C2561.41 1461.01 2561.38 1456.84 2559.74 1453.44C2558.83 1451.58 2557.25 1450.5 2555.96 1448.95C2559.5 1440.84 2560.85 1432.41 2561.26 1423.85C2561.97 1415.47 2559.45 1407.02 2560.25 1398.68C2560.42 1396.41 2560.3 1392.95 2564.53 1393.22C2567.08 1393.4 2567.84 1395.02 2567.98 1397.59C2568.51 1406.34 2568.69 1415.1 2568.52 1423.85C2567.95 1475.14 2567.56 1526.39 2567.26 1577.72C2567.2 1577.72 2567.14 1577.72 2567.07 1577.72C2567.05 1579.89 2565.79 1582.05 2564.51 1586.38C2558.37 1574.79 2554.95 1560.1 2557.92 1550.36C2564.46 1528.72 2556.33 1507.85 2560.52 1487.13C2561.44 1482.65 2564.23 1473.53 2557.07 1472.91C2552.39 1472.48 2550.92 1476.2 2550.41 1479.43ZM2550.11 1482.96C2550.15 1482.12 2550.19 1480.82 2550.41 1479.43C2550.6 1480.99 2550.59 1482.24 2550.11 1482.96Z" fill="var(--stroke-0, #14387A)"/>
<path id="r" d="M1025.1 1625.3C1000.49 1631.75 974.728 1634.62 948.031 1635.92C973.043 1630.53 998.933 1627.55 1025.1 1625.3ZM1025.1 1625.3C1025.51 1625.2 1025.93 1625.09 1026.34 1624.98C1026.34 1624.98 1025.99 1625.17 1025.8 1625.19C1025.8 1625.21 1025.8 1625.23 1025.81 1625.24C1025.57 1625.26 1025.33 1625.28 1025.1 1625.3ZM1026.18 1625.15C1026.39 1625.18 1026.62 1625.2 1026.83 1625.23C1026.5 1625.27 1026.16 1625.3 1025.83 1625.34C1025.94 1625.28 1026.06 1625.21 1026.18 1625.15ZM465.339 2618.69C459.768 2636.76 483.291 2650.03 497.533 2661.91C521.475 2682.22 547.724 2698.74 575.306 2712.58C603.596 2726.8 635.182 2735.33 666.361 2737.8C671.877 2738.19 676.053 2737.77 670.513 2742.97C670.459 2742.99 670.405 2743.02 670.35 2743.05C670.36 2743.06 670.372 2743.08 670.382 2743.09C670.326 2743.14 670.275 2743.2 670.217 2743.25C670.227 2743.2 670.237 2743.15 670.247 2743.1C670.167 2743.14 670.086 2743.18 670.006 2743.22C670.016 2743.17 670.026 2743.11 670.036 2743.06C660.897 2758.16 646.638 2743.92 636.27 2742.61C612.345 2739.7 590.272 2724.53 567.759 2719.35C542.856 2713.34 526.226 2691.97 495.013 2685.44C563.518 2744.95 648.878 2774.78 732.966 2767.86C733.219 2762.51 725.365 2766.98 723.695 2761.14C727.076 2761.39 730.476 2761.61 733.899 2761.79C866.737 2766.21 998.335 2778.7 1130.93 2763.72C1082.68 2756.94 1034.06 2768.6 984.904 2761.07C1007.41 2758.44 1029.92 2753.84 1052.43 2753.68C1120.67 2753.32 1189.26 2749.88 1257.32 2753.58C1281.09 2754.88 1300.9 2745.23 1324.67 2747.99C1331.87 2748.81 1343.22 2746.86 1346.64 2748.95C1379.41 2768.61 1420.64 2757.43 1458.99 2759.3C1472.26 2759.96 1485.5 2760.3 1498.71 2760.42C1551.27 2760.92 1603.45 2758.02 1655.97 2758.52C1737.17 2759.21 1818.55 2757.75 1899.58 2760.42C1947.11 2762.01 1996.99 2766.52 2042.37 2765.68C2094.58 2764.65 2146.61 2766.35 2198.11 2767.65C2217.72 2768.17 2237.49 2768 2257.28 2767.85C2290.43 2767.44 2321.65 2762.96 2355.73 2765.74C2385.57 2747.08 2420.57 2741.23 2450.99 2722.78C2521.16 2680.56 2582.92 2617.06 2614.61 2536.96C2629.33 2499.91 2638.26 2460.27 2640.91 2419.12C2645.01 2330.07 2649.54 2241.04 2654.68 2152.12L2706.77 2264.21C2703.21 2260.79 2699.61 2257.36 2695.97 2253.94C2629.96 2192.02 2554.65 2137.03 2475.22 2087.22C2472.09 2085.3 2469.37 2082.61 2465.89 2079.87C2473.23 2078.67 2481.26 2088.96 2488.29 2089.1C2479.7 2081.49 2467.46 2072.01 2460.39 2071.97C2448.73 2071.88 2438.62 2064.13 2428.68 2058.33C2384.45 2032.21 2338.76 2008.02 2292.13 1985.11C2218.64 1949.03 2141.07 1919.82 2062.71 1893.33C1995.04 1870.5 1926.13 1849.97 1856.17 1833.74C1781.11 1816.33 1704.46 1803.28 1627.27 1794.28C1726.13 1807.56 1823.41 1827.17 1918.59 1853.06C1918.26 1853.82 1917.93 1854.63 1917.44 1855.34C1806.35 1827.8 1691.63 1801.81 1576.8 1794.87C1576.77 1795.55 1576.75 1796.22 1576.72 1796.9C1626.86 1803.06 1676.79 1810.79 1726.03 1820.38C1741.17 1823.31 1757.08 1825.02 1770.95 1830.07C1763.56 1832.91 1749.21 1827.32 1738.77 1826.7C1741.5 1828.76 1751.98 1828.29 1753.72 1831.17C1752.5 1831.21 1751.25 1831.47 1749.89 1831.21C1705.6 1823.67 1661.05 1816.51 1616.71 1808.49C1606.4 1806.65 1598.59 1806.31 1590.4 1806.51C1566.48 1807.11 1528.62 1802.59 1509.2 1796.92C1499.29 1794.02 1503.31 1791.38 1510.48 1790.06C1521.49 1787.94 1521.38 1785.34 1509.33 1781.86C1502.16 1779.79 1501.81 1778.55 1507.97 1777.22C1524.84 1773.59 1523.9 1772.94 1489.33 1770.15C1525.49 1769.44 1514.26 1765.24 1507.41 1758.96C1497.81 1749.92 1470.14 1740.1 1509.24 1731.76C1514.26 1730.72 1518.81 1725.51 1512.57 1720.89C1505.8 1715.85 1497.84 1708.93 1513.65 1703.07C1516.02 1702.22 1522.19 1701.27 1526.35 1701.27C1568.01 1701.67 1561.96 1694.92 1557.51 1690.45C1545.96 1678.95 1556.97 1668.39 1571.6 1656.86C1579.4 1650.69 1580.2 1644 1587.89 1637.54C1596.38 1630.31 1629.98 1629.15 1654.26 1628.25C1702.03 1626.36 1750.33 1628.73 1797.94 1633.63C1819.4 1635.81 1842.52 1637.37 1864.44 1638.28C1902.36 1639.75 1935.44 1648.68 1972.61 1652.92C1986.55 1654.5 1997.73 1655.24 2008.77 1654.67C2022.91 1664.55 2049.13 1663.12 2069.18 1667.7C2089.27 1672.28 2111.12 1677.51 2131.59 1677.37C2146.15 1677.24 2150.43 1684.34 2163.21 1687.28C2232.17 1703.03 2300.23 1724.61 2367.93 1745.23C2403.78 1756.15 2437.74 1769.03 2470.02 1783.47C2580.38 1832.86 2693.1 1884 2796.22 1954.14C2831.29 1978.02 2866.04 2006.24 2902.72 2031.95L2962.13 2088.01L2958.56 2152.12C2959.7 2163.41 2961.25 2174.66 2963.41 2185.81C2967.27 2205.8 2965.72 2228.67 2965.34 2250.1C2964.78 2285.39 2964.36 2320.14 2968.96 2356.33C2971.59 2377.06 2970.61 2398 2970.08 2419.12C2969.72 2437.86 2968.87 2456.4 2968.76 2475.44C2968.45 2537.19 2955.13 2598.89 2934.81 2657.76C2925.3 2685.55 2913.32 2712.73 2911.46 2739.14C2910.16 2756.61 2900.14 2747.77 2893.12 2764.3C2879.39 2796.13 2861.38 2827.07 2841.52 2856.17C2800.71 2916.11 2747.8 2966.07 2688.27 3005.24C2659.32 3024.33 2628.24 3045.54 2598.22 3064.31C2577.58 3077.27 2551.69 3081.86 2534.48 3097.84C2521.69 3096.88 2501.35 3097.52 2489.93 3107.11C2471.4 3122.64 2449.25 3125.73 2426.44 3132.15C2381.43 3144.84 2335.42 3156.08 2288.57 3152.12C2277.93 3151.18 2277.18 3158.46 2263.97 3158.34C2261.76 3158.32 2259.53 3158.3 2257.28 3158.28C2240.44 3158.07 2222.41 3158.69 2207.65 3159.86C2166.06 3163.27 2123.39 3151.83 2082.87 3165.51C2069.19 3170.2 2051.72 3165.27 2035.52 3165.85C1995.73 3167.2 1954.86 3171.84 1915.96 3164.94C1873.47 3157.3 1830.44 3163.33 1789.03 3165.52C1765.62 3166.73 1736.63 3162.89 1715.38 3173.21C1703.5 3162.78 1675.41 3172.55 1662.45 3160.84C1654.35 3153.52 1635.98 3158.64 1627.16 3161.63C1595.47 3172.52 1573.14 3172.01 1538.57 3170.8C1525.53 3170.34 1512.2 3168.99 1498.71 3168.22C1476.44 3166.95 1453.73 3167.25 1431.08 3175.73C1416.86 3181.07 1387.15 3172.2 1363.56 3171.65C1348.25 3171.31 1329.35 3171.52 1316.02 3164.3C1311.7 3161.9 1306.84 3161.49 1302.52 3164.62C1281.81 3179.23 1258.05 3169.93 1236.8 3165.7C1217.9 3161.87 1201.87 3153.87 1185.67 3167.93C1180.44 3172.36 1165.14 3171.29 1155.6 3169.31C1129.85 3164.06 1130.21 3163.69 1105.9 3169.06C1102.12 3169.88 1097.26 3169.74 1093.12 3169.32C1048.28 3165.29 1003.27 3171.47 956.999 3162.78C924.05 3156.62 879.393 3154.55 849.505 3161.28C814.034 3169.22 782.704 3161.89 749.935 3163.54C744.614 3163.81 739.266 3164.04 733.899 3164.22C687.997 3165.4 640.594 3160.33 596.202 3149.32C483.603 3121.86 372.164 3077.51 286.234 3000.66C277.868 2993.18 267.819 2982.66 258.413 2982.48C252.7 2982.44 242.403 2972.6 239.995 2968.72C210.67 2921.72 165.258 2885.41 134.777 2839.34C52.1775 2715.63 6.41032 2566.04 10.9786 2419.12C11.0212 2417.96 11.0641 2416.8 11.1075 2415.64C13.4808 2351 13.1936 2286.73 16.6476 2222.27C18.1046 2195.14 19.1072 2168.07 19.9757 2141.03L25.0017 2051.53L81.9487 2009.83C119.866 1980.43 158.548 1952.82 198.479 1927.64C244.304 1898.75 292.474 1872.49 338.201 1844.85C354.92 1834.65 375.923 1817.48 395.751 1820.79C395.993 1820.67 443.146 1792.71 444.383 1792.34C449.271 1789.84 453.972 1787.16 458.929 1785.33C533.327 1756.82 604.815 1726.46 679.167 1703.59C784.748 1671.07 892.937 1648.96 1000.9 1633.05C1034.17 1628.17 1068.45 1627.44 1104.64 1622.26C1078.19 1620.64 1049.19 1628.07 1026.83 1625.23C1079.11 1619.34 1132.4 1614.84 1183.21 1615.61C1229.52 1616.1 1283.09 1612.9 1321.54 1622.31C1327.28 1623.65 1334.79 1622.57 1340.56 1622.28C1359.46 1621.43 1368.83 1624.48 1365.21 1627.12C1357.45 1633.04 1371.36 1633.46 1392.29 1633.85C1399.55 1633.98 1409.82 1633.9 1412.5 1636.1C1414.79 1637.81 1407.53 1638.12 1400.84 1638.36C1388.8 1638.73 1370.09 1638.82 1377.37 1642.78C1382.57 1645.61 1394.36 1648.92 1414.15 1647.46C1415.08 1647.42 1417.51 1648.03 1419.93 1648.46C1415.37 1651.36 1402.01 1650.56 1390.18 1650.73C1406.67 1655.78 1418.39 1660.41 1403.31 1666.16C1400.05 1667.37 1402.85 1668.7 1392.57 1668.73C1371.2 1668.82 1371.45 1670.4 1381.03 1674.37C1393.27 1679.42 1413.59 1684.63 1391.29 1691.12C1389.67 1691.58 1389.53 1692.65 1391 1693.13C1405.2 1698.02 1406.54 1702.09 1391.63 1708.39C1381.9 1712.48 1408.31 1715.56 1426.04 1717.17C1465.6 1720.71 1488.94 1730.29 1488.93 1739.3C1488.93 1739.3 1488.93 1739.31 1488.93 1739.31C1488.93 1742.35 1486.34 1745.38 1480.91 1748.3C1468.07 1755.05 1444.45 1763.65 1473.4 1769.76C1265.34 1790.77 1066.64 1842.37 877.631 1914.87C690.509 1987.02 510.875 2078.26 363.043 2200.43C387.06 2185.98 407.974 2165.64 432.77 2152.39C434.8 2151.32 436.823 2151.47 443.46 2150.06C407.452 2175.04 372.754 2201.29 339.715 2228.79C336.608 2231.37 333.083 2234.43 333.848 2230.1C335.968 2217.59 326.724 2231.68 326.595 2232.79C324.884 2244.29 313.751 2252.28 303.059 2259.32C299.549 2261.65 296.332 2264.19 293.313 2266.87L352.755 2141.03C353.204 2154.74 355.531 2167.95 356.428 2181.57C361.709 2260.64 366.313 2339.88 370.709 2419.12C370.928 2421.8 371.175 2424.46 371.45 2427.1C373.685 2448.74 375.305 2470.84 384.576 2491.26C390.075 2503.06 396.263 2491.42 399.982 2501.18C404.417 2512.18 389.923 2508.38 394.591 2520.02C399.531 2532 402.297 2544.96 410.227 2556.88C411.553 2553.04 412.576 2550.12 414.759 2544.39C419.147 2578.7 441.587 2600.37 465.339 2618.69ZM1087.89 3153.92C1052.24 3147.53 1016.77 3152.57 981.122 3151.21C1016.59 3157.37 1052.42 3153.69 1087.89 3153.92ZM837.979 3147.58C874.35 3156.13 911.984 3152.36 949.255 3151.59C912.344 3148.8 874.89 3152.13 837.979 3147.58ZM1191.79 3153.7C1252.58 3154.11 1313.38 3154.4 1374.18 3154.57C1374 3153.32 1373.82 3152.08 1373.64 3150.84C1313.02 3150.67 1252.41 3150.39 1191.79 3149.99C1191.79 3151.22 1191.79 3152.46 1191.79 3153.7ZM1494.81 3150.15C1464.93 3150.14 1435.04 3151.84 1405.15 3152.44C1435.22 3153.94 1465.47 3156.65 1494.81 3150.15ZM1029.48 1761.63C1115.08 1753.01 1187.22 1736.56 1258.81 1725.05C1183.55 1726.1 1109.3 1740.37 1029.48 1761.63ZM2190.68 1912.22C2216.17 1925.27 2234.87 1935.35 2258.5 1936.34C2235.71 1926.25 2216.46 1917.26 2190.68 1912.22ZM2523.1 2076.98C2557.17 2108.13 2590.29 2127.94 2624.62 2145.45C2594.22 2120.12 2561.53 2098.55 2523.1 2076.98ZM2287.27 1975.71C2292.34 1978.23 2297.5 1980.91 2300.03 1980.13C2302.13 1979.5 2301.37 1976.84 2301.11 1974.77C2300.76 1973.36 2297.62 1971.08 2294.88 1971.01C2273.92 1970.62 2257.92 1953.83 2238.46 1947.69C2249.17 1948.86 2260.5 1957.96 2275.26 1960C2234.55 1939.73 2196.81 1935.78 2159.85 1916.42C2159.8 1916.38 2159.75 1916.34 2159.7 1916.3C2170.01 1926.91 2183.79 1928.54 2195.61 1933.62C2226.61 1946.99 2257.24 1960.8 2287.27 1975.71ZM2027.97 1871.32C2058.02 1882.99 2083.91 1890.78 2109.9 1898.44C2084 1890.67 2060.52 1875.38 2027.97 1871.32ZM2320.57 2795.77C2320.08 2795.2 2314.57 2795.02 2313.35 2797.92C2312.02 2801.04 2314.21 2803.11 2317.93 2804.28C2330.94 2808.34 2344.94 2803.89 2364.33 2802.84C2364.32 2802.81 2364.31 2802.78 2364.3 2802.75C2359.14 2799.83 2357.98 2798.4 2356.35 2798.32C2344.6 2797.62 2329.09 2807.96 2320.57 2795.77ZM2429.98 2046.61C2405.96 2032.28 2382.73 2015.59 2355.52 2007.05C2380.75 2019.74 2405.54 2032.91 2429.98 2046.61ZM2464.74 2068.1C2486.1 2082.15 2506.31 2097.41 2529.6 2107.06C2508.53 2093.04 2488.79 2075.7 2464.74 2068.1ZM2657.56 2452.4C2657.83 2464.52 2645.74 2473.02 2647.51 2478.56C2653.35 2498.09 2640.93 2514.12 2635.93 2530.84C2650.73 2508.3 2662.52 2482 2657.56 2452.4ZM2594 2153.31C2610.93 2164.99 2613.07 2181.37 2633.1 2193.67C2632.56 2175.76 2610.65 2164.93 2594 2153.31ZM2606.84 2578.34C2606.57 2579.05 2606.38 2579.8 2606.16 2580.4C2599.76 2600.72 2586.64 2618.03 2572.83 2633.77C2566.93 2640.42 2566.95 2646.68 2569.97 2649.74C2573.54 2653.36 2577.81 2645.83 2580.87 2642.09C2601.07 2618.32 2613.22 2589.46 2627.96 2561.77C2632.62 2553.01 2633.43 2542.09 2635.37 2532.14C2628.66 2529.5 2629.85 2538.6 2627.12 2542.43C2620.22 2551.98 2622.62 2560.89 2619.96 2569.93C2616.28 2582.22 2612.51 2583.62 2606.84 2578.34ZM2378.54 2763.71C2373.78 2758.08 2374.12 2763.37 2374.95 2765.49C2375.93 2767.96 2369.18 2770.06 2373.99 2772.61C2376.53 2771.66 2379.19 2770.36 2382.05 2769.63C2384.53 2768.93 2387.56 2767.23 2389.66 2769.28C2389.62 2769.3 2389.58 2769.31 2389.54 2769.32C2364.66 2786.98 2331.79 2777.7 2304.96 2789.07C2364.57 2786.5 2425.59 2768.91 2474.87 2732C2478.43 2729.36 2480.71 2725.24 2485.44 2724.21C2512.06 2717.94 2529.07 2694.5 2548.58 2677.02C2554.78 2671.47 2554.69 2666.4 2553.74 2658.64C2536.37 2682.38 2516.59 2701.42 2491.97 2711.37C2488.12 2712.93 2484.43 2716.04 2480.86 2718.52C2453.38 2738.12 2423.52 2754.78 2391.4 2763.87C2386.56 2765.21 2382.3 2768.23 2378.54 2763.71ZM1470.35 1784.98C1420.63 1779.7 966.319 1894.61 945.988 1910.99C1051.65 1869.17 1165.3 1839.11 1278.26 1813.09C1336.87 1799.54 1397.57 1787.34 1462.3 1784.73C1464.92 1784.59 1467.2 1784.86 1470.35 1784.98ZM2244.92 2780.93C2183.71 2780.31 2122.48 2779.54 2061.27 2778.98C2045.4 2778.79 2029.01 2777.6 2017.18 2784.68C2017.23 2784.68 2017.29 2784.68 2017.34 2784.68C2023.64 2789.17 2033 2787.96 2041.28 2788.05C2108.98 2789.18 2176.68 2790.26 2244.2 2791.85C2248.54 2791.92 2253.35 2792.39 2257.28 2792.17C2260.11 2791.94 2262.25 2790.93 2262.65 2787.98C2263.17 2783.89 2260.78 2782.23 2257.28 2781.51C2253.69 2781 2249.28 2780.97 2244.92 2780.93ZM2120.22 1919.65C2066.25 1901.45 2011.62 1883.59 1956.9 1865.3C2012.82 1878.9 2067.24 1897.61 2120.22 1919.65ZM1494.81 2780.33C1470.87 2775.65 1446.74 2781.98 1422.61 2779.15C1446.92 2788.77 1470.87 2783.11 1494.81 2780.33ZM1786.14 2775.49C1799.65 2782.53 1814.6 2784.24 1832.96 2781.51C1853.31 2778.52 1875.27 2779.17 1896.16 2782.57C1900.66 2783.27 1904.98 2787 1908.04 2782.29C1911.1 2777.58 1905.16 2776.39 1897.78 2776.33C1860.57 2776 1823.36 2775.73 1786.14 2775.49ZM1921.72 2774.93C1951.89 2782.49 1983.29 2786 2015.9 2784.73C1988.44 2768.74 1952.43 2780.55 1921.72 2774.93ZM2016.43 2785.14C2016.49 2785.14 2016.55 2785.14 2016.61 2785.14C2016.58 2785.12 2016.55 2785.1 2016.52 2785.09C2016.49 2785.1 2016.46 2785.12 2016.43 2785.14ZM2291.06 1995.42C2291.43 1994.52 2291.79 1993.63 2292.16 1992.73C2367.84 2025.66 2437.51 2069.83 2505.24 2114.23C2437.36 2070.27 2365.45 2030.64 2291.06 1995.42ZM2610.96 2529.19C2621.91 2493.75 2629.17 2457.15 2631.53 2419.12C2635.38 2330.11 2640.94 2241.18 2644.34 2152.12L2700.1 2272.12C2699.33 2271.41 2698.56 2270.7 2697.79 2269.99C2697.8 2269.97 2697.82 2269.95 2697.84 2269.93C2698.98 2268.82 2700.06 2267.54 2701.08 2266.31C2701.81 2267 2702.53 2267.69 2703.26 2268.38L2649.23 2152.12C2644.46 2241.17 2639.84 2330.16 2635.43 2419.12C2632.73 2457.55 2624.39 2494.55 2610.96 2529.19ZM2536.22 2139.25C2536.76 2138.67 2537.21 2137.95 2537.65 2137.22C2591.35 2173.9 2642.11 2213.27 2689.2 2255.6C2688.56 2256.13 2687.74 2256.62 2687.17 2257.32C2640.28 2215.14 2589.71 2175.85 2536.22 2139.25ZM369.641 2492.82C363.062 2468.86 363.403 2444.34 356.25 2419.12C355.456 2415.08 354.54 2411.04 353.483 2407C353.631 2411.04 353.777 2415.08 353.923 2419.12C355.228 2444.58 358.979 2469.55 365.078 2493.74C366.599 2493.43 368.12 2493.13 369.641 2492.82ZM1920.68 1869.68C1912.95 1867.12 1915.87 1872.81 1909.07 1869.51C1875.59 1853.25 1837.85 1850.66 1802.26 1842.5C1782.95 1838.1 1776.04 1835.27 1771.32 1830.18C1813.28 1838.53 1855.56 1846.4 1895.49 1860.22C1903.33 1862.98 1908.23 1862.03 1915.2 1864.09C1926.07 1867.35 1924.89 1868.71 1920.68 1869.68ZM1771.04 1829.94C1771.04 1829.92 1771.04 1829.91 1771.05 1829.89C1771.08 1829.93 1771.12 1829.96 1771.15 1830C1771.13 1830 1771.12 1830.01 1771.1 1830.02C1771.08 1829.99 1771.06 1829.96 1771.04 1829.94ZM1771.15 1830C1771.17 1829.99 1771.19 1829.98 1771.21 1829.97C1771.21 1830 1771.2 1830.03 1771.2 1830.05C1771.18 1830.03 1771.17 1830.02 1771.15 1830ZM1770.95 1830.07C1771 1830.05 1771.05 1830.04 1771.1 1830.02C1771.13 1830.06 1771.16 1830.11 1771.19 1830.15C1771.11 1830.13 1771.03 1830.1 1770.95 1830.07ZM1771.2 1830.05C1771.24 1830.1 1771.28 1830.14 1771.32 1830.18C1771.28 1830.17 1771.23 1830.16 1771.19 1830.15C1771.19 1830.12 1771.2 1830.09 1771.2 1830.05ZM1159.2 2759.6C1153.62 2759.36 1143.89 2759.53 1144.07 2763.9C1144.25 2768.26 1152.35 2767.06 1159.02 2766.92C1194.49 2766.36 1229.96 2766.31 1265.43 2766.12C1231.94 2756.19 1195.03 2761.02 1159.2 2759.6ZM2058.44 1915.75C2014.97 1901.01 1970.63 1889.7 1927.01 1874.26C1924.46 1873.34 1922.95 1871.34 1921.05 1869.8C1936.48 1870.63 1952.8 1874.4 1970.86 1880.31C1998.58 1889.43 2026.45 1898.48 2054.05 1908.47C2059.52 1910.44 2066.49 1912.67 2066.04 1915.61C2065.8 1917.13 2062.62 1917.2 2058.44 1915.75ZM609.487 2043.05C593.857 2057.84 547.3 2085.39 516.157 2098.7C547.886 2075.11 580.337 2061.71 609.487 2043.05ZM491.985 2679.45C486.602 2665.65 479.847 2657.49 466.063 2650.49C468.481 2665.57 478.983 2672.38 491.985 2679.45ZM394.608 2532.44C393.414 2528.74 391.819 2525.15 388.81 2525.71C385.104 2526.32 384.588 2532.46 387.067 2535.08C399.529 2547.89 399.601 2567.72 415.835 2583.5C415.815 2583.46 415.795 2583.43 415.775 2583.39C405.933 2563.86 399.802 2548.2 394.608 2532.44ZM2391.69 2067.56C2358.48 2046.88 2323.22 2030.59 2288.72 2012.33C2255.65 1994.93 2218.96 1983.05 2191.17 1960.68C2258.01 1996.39 2331.93 2023.13 2391.69 2067.56ZM2540.39 2633.29C2541.27 2633.95 2542.15 2634.62 2543.02 2635.29C2513.09 2671.3 2476.37 2701.27 2435.93 2723.06C2435.36 2722.08 2434.78 2721.1 2434.2 2720.12C2474.27 2698.59 2510.69 2668.94 2540.39 2633.29ZM1920.33 1869.77C1920.18 1869.76 1920.02 1869.74 1919.87 1869.74C1919.87 1869.74 1920.3 1869.73 1920.57 1869.71C1920.61 1869.7 1920.64 1869.69 1920.68 1869.68C1920.69 1869.68 1920.7 1869.69 1920.72 1869.69C1920.78 1869.68 1920.8 1869.67 1920.76 1869.66C1920.82 1869.68 1920.87 1869.69 1920.93 1869.71C1920.97 1869.74 1921.01 1869.77 1921.05 1869.8C1920.92 1869.8 1920.79 1869.79 1920.66 1869.78C1920.45 1869.8 1920.24 1869.82 1920.03 1869.83C1920.13 1869.81 1920.23 1869.79 1920.33 1869.77ZM2186.74 1966.31C2165.72 1954.86 2140.52 1950.45 2121.28 1936.2C2144.79 1944.01 2169.08 1950.84 2186.74 1966.31ZM1429.64 2747.86C1434.86 2747.66 1440.8 2748.32 1439.9 2752.34C1439.18 2756.17 1433.78 2756.37 1428.2 2755.99C1413.79 2754.97 1399.57 2753.95 1385.17 2752.93C1385.23 2752.93 1385.28 2752.93 1385.34 2752.93C1385.7 2751.79 1385.89 2750.73 1386.07 2749.59C1400.47 2748.97 1415.06 2748.27 1429.64 2747.86ZM2267.12 2758.72C2291.23 2753.33 2315.39 2757.55 2339.18 2752.05C2316.42 2762.03 2291.13 2759.45 2267.12 2758.72ZM2512.49 2142.75C2511.33 2145.02 2506.56 2144.42 2503.29 2141.55C2483.58 2123.92 2460.44 2111.03 2437.36 2097.37C2434.8 2095.9 2432.89 2092.83 2428.3 2088.05C2458.49 2098.13 2481.6 2118.8 2506.24 2132.63C2511.58 2135.59 2513.83 2140.17 2512.49 2142.75ZM2628.33 2236.73C2597.48 2209.66 2564.95 2183.32 2530.65 2158.95C2523.64 2153.95 2519.74 2150.34 2521.01 2147.61C2523.2 2143.03 2530.24 2150.6 2534.45 2153.72C2566.46 2177.16 2597 2201.86 2626.19 2227.54C2626.15 2227.5 2626.1 2227.47 2626.06 2227.43C2626.83 2230.46 2627.53 2233.54 2628.33 2236.73ZM821.238 2734.04C854.007 2732.6 886.058 2735.4 924.408 2738.48C904.243 2742.54 890.918 2745.28 877.054 2748.12C884.256 2755.11 898.659 2749.28 909.102 2755.12C869.13 2754.96 832.937 2757.12 795.666 2755.16C775.327 2754.08 754.634 2753.62 733.899 2753.75C719.076 2753.9 704.47 2753.88 689.865 2753.66C689.783 2753.71 689.7 2753.77 689.618 2753.82C677.559 2753.51 674.304 2749.2 670.382 2743.09C670.428 2743.05 670.469 2743.01 670.513 2742.97C681.733 2737.49 691.558 2731.5 702.348 2744.13C705.901 2748.11 709.35 2743.75 712.719 2743.39C719.888 2742.61 726.853 2740.97 733.899 2739.54C753.036 2737.21 772.316 2736.02 792.428 2740.72C802.331 2743.04 810.795 2734.51 821.238 2734.04ZM2625.42 2194.82C2623.59 2180.54 2622.73 2166.31 2622.7 2152.12L2686.15 2288.66C2664.84 2270.77 2645.23 2250.05 2626.41 2227.8C2649.2 2244.74 2670.41 2264.1 2690.09 2283.98L2628.82 2152.12C2627.71 2166.35 2626.52 2180.58 2625.42 2194.82ZM2626.19 2227.54C2626.26 2227.62 2626.34 2227.71 2626.41 2227.8C2626.32 2227.73 2626.23 2227.66 2626.14 2227.6C2626.16 2227.58 2626.17 2227.56 2626.19 2227.54ZM2590.07 2518.16C2588.05 2512.07 2582.55 2508.76 2587.78 2501.22C2604.45 2476.66 2601.44 2447.17 2603.75 2419.12C2603.78 2418.53 2603.82 2417.95 2603.85 2417.36C2604.07 2414.3 2604.36 2411.24 2604.6 2407.64C2607.7 2409.6 2606.86 2414.33 2606.73 2419.12C2606.65 2421.16 2606.85 2423.21 2608.65 2424.82C2608.98 2422.91 2609.29 2421.02 2609.58 2419.12C2611.61 2399.1 2613.34 2379.97 2612.23 2360.29C2612.03 2357.41 2609.86 2353.99 2610.15 2352.91C2613.47 2341.02 2610.1 2318.52 2616.68 2316.9C2623.19 2315.1 2620.27 2337.06 2619.66 2345.89C2619.65 2345.95 2619.65 2346.01 2619.65 2346.07C2618.06 2370.38 2616.7 2394.71 2615.34 2419.12C2612.46 2453.65 2604.73 2487.25 2590.07 2518.16ZM912.337 1923.69C873.863 1938.86 839.611 1959.26 800.035 1972.97C795.1 1974.66 787.599 1979.25 785.683 1976.79C783.836 1974.57 790.449 1971.02 796.08 1968.66C796.074 1968.64 796.067 1968.62 796.061 1968.6C834.177 1952.58 872.992 1937.6 912.337 1923.69ZM612.65 2065.68C586.625 2074.97 569.291 2096.67 544.715 2107.55C544.678 2107.6 544.642 2107.65 544.606 2107.7C534.49 2112.13 523.901 2118.71 512.818 2119.46C543.846 2094.97 576.583 2080.46 606.923 2062.44C610.797 2060.15 616.211 2058.77 616.797 2061.22C616.954 2061.95 613.749 2065.29 612.65 2065.68ZM468.514 2150.15C452.548 2161.41 445.872 2184.59 421.895 2182.32C434.251 2166.66 452.617 2160.61 468.514 2150.15ZM406.805 2192.76C387.538 2214.69 367.183 2224.7 351.168 2239.33C365.249 2222.99 381.409 2208.22 406.805 2192.76ZM670.189 2742.8C670.218 2742.85 670.25 2742.89 670.279 2742.94C670.305 2742.8 670.331 2742.67 670.357 2742.53C670.305 2742.62 670.242 2742.71 670.189 2742.8ZM706.304 2016.78C686.29 2025.4 667.295 2039.4 640.591 2047.15C663.046 2028.81 686.311 2024.01 705.74 2012.66C706.475 2012.24 709.504 2012.18 709.341 2012.67C709.06 2013.78 707.483 2016.14 706.432 2016.65C706.389 2016.69 706.346 2016.74 706.304 2016.78ZM1131.11 2725.18C1153.8 2723.33 1164.42 2733.31 1184.22 2728.1C1184.29 2728.07 1184.35 2728.04 1184.41 2728C1184.23 2730.1 1183.86 2732.2 1183.68 2734.29C1178.64 2734.71 1173.78 2735.51 1168.74 2735.65C1096.54 2737.8 1024.34 2740.06 952.139 2742.77C943.496 2743.08 935.571 2742.82 934.311 2738.33C932.331 2731.51 942.773 2732 951.595 2731.78C991.387 2730.72 1031.36 2727.82 1070.79 2729.25C1092.04 2730.05 1112.39 2726.7 1131.11 2725.18ZM2567.05 2555.51C2572 2541.55 2573.96 2529.67 2580.04 2518.42C2588.31 2525.91 2583.35 2545.65 2567.05 2555.51ZM2496.06 2643.12C2498.59 2633.2 2507.45 2629.83 2514.25 2625.12C2514.22 2625.15 2514.2 2625.18 2514.17 2625.2C2527.7 2615.9 2538.84 2604.22 2544.7 2588.92C2540.47 2613.93 2519.65 2631.63 2502.58 2649.24C2499.66 2652.18 2495.89 2654.44 2492.84 2651.41C2489.48 2647.94 2495.44 2645.55 2496.06 2643.12ZM2359.75 2724.36C2364.79 2718.33 2360.98 2709.2 2369.8 2712.14C2382.15 2716.15 2390.67 2709.49 2397.98 2703.65C2408.25 2695.3 2421.8 2699.3 2432.19 2690.43C2445.03 2679.45 2465.18 2675.81 2475.42 2660.16C2477.52 2656.86 2481.65 2654.5 2484.44 2657.89C2487.24 2661.29 2483.27 2664.23 2480.18 2666.74C2464.08 2679.53 2447.35 2692.29 2428.52 2699.79C2428.47 2699.78 2428.43 2699.77 2428.38 2699.76C2406.51 2708.46 2386.29 2720.59 2359.75 2724.36ZM1423.7 2713.34C1429.82 2710.46 1432.16 2713.32 1433.24 2714.28C1443.5 2722.77 1458.63 2723.42 1472.67 2719.39C1485.81 2715.65 1485.64 2722.16 1486.9 2724.07C1490.32 2729.14 1479.15 2728.86 1475.55 2728.86C1428.74 2729.85 1381.02 2733.22 1334.93 2730.18C1305.22 2728.21 1278.39 2734.18 1250.12 2732.55C1250.06 2732.52 1250 2732.49 1249.94 2732.46C1227.62 2731.18 1201.33 2737.18 1186.75 2724.94C1191.07 2717.29 1209.07 2735.42 1204.21 2718.51C1203.31 2715.28 1214.12 2715 1220.6 2714.85C1261.47 2713.67 1301.44 2714.56 1341.77 2720.01C1367.88 2723.53 1399.39 2724.87 1423.7 2713.34ZM2261.35 2733.8C2275.68 2723.37 2290.56 2729.66 2302.1 2731.04C2318.35 2732.92 2328.78 2723.01 2342.59 2721.23C2345.81 2720.76 2349.62 2716.41 2351.75 2720.45C2353.84 2724.31 2349.68 2727.6 2344.82 2728.75C2344.8 2728.79 2344.77 2728.83 2344.74 2728.86C2318.58 2734.96 2291.03 2742.95 2261.35 2733.8ZM1651.29 2718.95C1653.99 2720.01 1657.95 2710.76 1662.45 2718.52C1663.89 2721.11 1661.91 2723.87 1654.52 2724.6C1605.37 2729.55 1555.85 2729.82 1506.16 2727.13C1504.54 2727.03 1503.28 2724.74 1499.32 2721.1C1541.27 2720.63 1578.72 2715.15 1618.51 2717.1C1629.32 2717.62 1640.48 2714.79 1651.29 2718.95ZM1729.79 2712.98C1748.51 2710.34 1750.14 2721.13 1763.1 2722.75C1736.09 2731.89 1712.86 2732.15 1693.95 2713.43C1708.72 2718.57 1719.35 2714.44 1729.79 2712.98ZM1976.08 2712.26C1984.35 2711.36 1999.99 2705.98 1998.07 2719.87C1997.53 2723.26 2002.39 2723.24 2006.35 2721.6C2008.51 2720.69 2009.77 2719.1 2011.57 2717.81C2037.5 2727.51 2066.13 2720.8 2093.32 2723.14C2098 2723.5 2105.2 2723.72 2103.76 2727.91C2102.86 2730.42 2099.44 2731.02 2094.22 2730.94C2016.62 2730.05 1939.19 2729.51 1861.59 2729.12C1861.59 2729.05 1861.59 2728.99 1861.59 2728.93C1859.07 2728.9 1856.55 2727.64 1851.51 2726.36C1865.01 2720.22 1882.11 2716.8 1893.46 2719.78C1918.66 2726.31 1942.97 2718.18 1967.1 2722.38C1972.32 2723.3 1982.95 2726.08 1983.67 2718.92C1984.17 2714.25 1979.84 2712.77 1976.08 2712.26ZM1971.96 2711.96C1972.94 2712 1974.45 2712.04 1976.08 2712.26C1974.26 2712.46 1972.8 2712.45 1971.96 2711.96Z" fill="var(--stroke-0, #14387A)"/>
</g>
</svg>
