<svg preserveAspectRatio="none" width="100%" height="100%" overflow="visible" style="display: block;" viewBox="0 0 51.4615 51.3265" fill="none" xmlns="http://www.w3.org/2000/svg">
<path id="Vector 9" d="M25.6056 17.0603C26.0887 16.8845 26.664 16.5391 26.9605 16.7384C27.0488 16.7975 26.8463 16.8475 26.7464 16.9035C26.4421 17.1473 26.7694 17.1386 26.981 17.1442C27.227 17.1516 27.5228 16.9745 27.7748 16.8475C28.0743 16.7029 28.1347 16.596 28.023 16.5046C27.9151 16.4229 28.0808 16.2397 28.1804 16.0887C28.3561 16.0238 28.5227 15.9626 28.6984 15.8945C28.9568 15.9028 29.1869 15.8004 29.4086 15.6429C29.4165 15.6437 29.4244 15.6446 29.4324 15.6454C29.9758 15.5113 30.4796 15.485 31.0809 15.2447C31.2605 15.2441 31.3719 15.3078 31.1936 15.4068C30.4158 15.8418 30.851 16.0919 30.2272 16.4914C30.2198 16.4962 30.2115 16.5008 30.204 16.5054C30.3169 16.4506 30.429 16.3876 30.5419 16.3162C30.7725 16.1712 31.038 16.1129 31.3021 16.05C31.1823 15.8139 31.2314 15.5455 31.9853 15.1271C31.9882 15.1255 31.9911 15.1239 31.9941 15.1222C32.2236 14.9962 32.1671 14.8948 31.9365 14.8859C32.0655 14.7283 32.3183 14.6754 32.51 14.6729C33.0473 14.6525 33.5837 14.461 34.1269 14.2114C34.1341 14.2123 34.141 14.2134 34.148 14.2143C34.1442 14.2124 34.1412 14.21 34.1371 14.2082C34.8093 13.7507 35.4833 13.5844 36.2613 13.6958C35.4246 14.0297 34.6452 14.4068 33.7214 14.6732C33.7174 14.6748 33.7138 14.6767 33.7098 14.6784C33.7069 14.6799 33.7041 14.6814 33.7012 14.6829C33.7011 14.6826 33.701 14.6823 33.7009 14.682C33.6976 14.6833 33.6945 14.6848 33.6911 14.6862C33.0247 14.6813 32.6526 14.9384 32.3805 15.2242C32.2891 15.3195 32.2015 15.4144 32.1163 15.5091C31.9718 15.6721 31.8346 15.8346 31.6968 15.998C31.7285 16.0023 31.7569 16.009 31.777 16.0205C31.8084 16.0462 31.8198 16.0789 31.8099 16.1153C31.7346 16.2256 31.5554 16.3428 31.3724 16.4585C31.3433 16.4742 31.3131 16.4891 31.2836 16.5037C31.3811 16.8183 31.2677 16.8695 30.2015 17.1918C30.6353 16.961 30.438 16.8933 30.3821 16.7897C29.9705 16.8762 29.791 17.0203 29.7228 17.1813C29.6679 17.3043 29.7337 17.3945 29.669 17.5212C29.5403 17.6544 29.3874 17.7884 29.1981 17.9228C29.4199 17.8189 29.6464 17.7228 29.8565 17.6111C30.4993 17.1999 31.2648 16.8642 32.1081 16.5815C32.0695 16.5563 32.0417 16.5276 32.1212 16.4651C32.2189 16.4366 32.3169 16.4098 32.4157 16.3822C32.5234 16.3519 32.6317 16.3208 32.7409 16.2855C33.0805 16.1775 33.3684 16.0562 33.1178 15.9794C32.73 15.8582 33.1673 15.6658 33.6753 15.4629C33.7056 15.453 33.7358 15.4431 33.7661 15.4332C34.5809 15.1312 34.9089 15.1415 34.7372 15.4513C34.8088 15.4649 34.8993 15.4691 35.0306 15.4279C35.4414 15.2991 35.7977 15.2239 35.7346 15.4202C35.6881 15.5548 35.4687 15.6426 35.2025 15.7178C35.3979 15.6667 35.5985 15.5969 35.8272 15.5004C35.899 15.4701 35.9723 15.4402 36.0468 15.4116C35.9757 15.4015 35.9307 15.3784 35.9422 15.3282C35.9622 15.2137 36.2089 15.1285 36.4552 15.0524C36.5771 15.0165 36.677 14.962 36.7513 14.9081C36.7581 14.9049 36.7649 14.9016 36.7716 14.8984C36.5578 14.7944 35.7169 14.8867 36.6818 14.4313C37.0904 14.2418 36.4995 14.3465 36.4141 14.2963C36.2131 14.2325 36.0436 14.1564 36.1199 13.9932C36.2232 13.8113 36.5883 13.7949 36.8414 13.7162C37.2435 13.6344 37.5963 13.502 37.8847 13.3432C38.3598 13.0738 38.7286 13.0046 38.9666 13.1636C39.2458 13.1371 39.8165 13.0525 39.5393 13.2156C38.9977 13.5382 39.6289 13.5462 39.6317 13.7164C39.5286 13.792 39.3608 13.8514 39.1882 13.9104C39.2044 13.9054 39.2207 13.8998 39.2382 13.8948C39.9412 13.7321 40.6576 13.5457 41.4377 13.5C41.8568 13.4751 42.175 13.4918 42.2476 13.6032C42.2133 13.4593 42.3195 13.2998 42.5663 13.13C42.7522 13.0402 43.178 12.9746 43.2318 12.8751C43.2336 12.7416 43.9131 12.6967 44.3786 12.6469C44.3767 12.6503 44.3064 12.6449 44.2837 12.6479C42.2802 12.771 41.3723 12.9338 40.2438 13.0982C39.5477 13.2175 39.6276 13.018 39.9452 12.8018C40.3605 12.4752 40.8096 12.1838 42.0803 12.2018C42.294 12.2065 42.8688 12.0468 43.3878 11.988C43.3945 11.9889 43.4013 11.9897 43.408 11.9906C43.7853 11.9716 44.1759 11.9571 44.76 11.9937C45.3715 12.0739 46.0005 11.9844 47.7206 12.7657C48.0095 12.9098 48.3158 13.0873 48.6298 13.31C50.1396 14.1724 51.5558 16.9807 51.4566 18.4997C51.488 20.0454 51.1615 20.7727 50.9984 21.2539C50.6126 22.2109 50.376 22.4847 50.2107 22.7174C49.8788 23.1342 49.7851 23.0817 49.7792 22.8185C49.7764 22.461 49.0811 23.11 49.2263 22.5534C49.2883 22.3124 49.6372 21.9004 50.0567 20.672C50.2617 20.0596 50.4181 19.0764 50.3054 18.2253C50.1923 17.401 50.018 17.0284 50.1433 17.6449C50.2623 18.5286 50.1531 18.9356 50.085 19.2281C50.0059 19.5244 49.918 19.7178 49.8161 19.9405C49.6103 20.4013 49.2781 21.0473 48.805 21.671C48.5521 22.0009 48.3967 22.1091 48.3638 22.047C48.2461 22.2556 48.1364 22.4119 48.0191 22.546C48.4851 22.1851 49.1485 21.7799 49.8266 20.3124C50.0478 19.8365 50.171 19.0451 50.2151 19.0302C50.2731 18.9533 50.281 20.0831 49.8856 21.0732C49.3828 22.2851 49.0527 22.6499 48.7672 23.0684C48.4815 23.4554 48.2358 23.7386 47.9974 23.9868C47.5212 24.4787 47.0712 24.8223 46.5937 25.0719C46.4042 25.1699 46.3569 25.3217 46.268 25.4414C45.9095 25.9318 45.9269 26.1969 45.8793 26.497C45.7655 26.7598 45.5882 27.0209 45.2828 27.3114C45.0426 27.5436 44.9419 27.7572 44.8058 27.9728C44.7674 28.0071 44.7291 28.0413 44.6912 28.0755C44.2944 28.4327 43.9252 28.7933 43.7124 29.2326C43.5795 29.5093 43.1993 29.7428 43.0038 30.032C42.9717 30.0648 42.9396 30.0977 42.9074 30.1306C42.9121 30.1307 42.9168 30.1307 42.9214 30.1308C42.8527 30.1467 42.6199 30.3313 42.722 30.1968C43.2479 29.4854 42.8774 29.6855 42.4126 29.964C42.7522 29.5214 43.1205 29.25 43.4309 28.9269C43.79 28.5465 44.1883 28.1652 44.4352 27.815C44.6044 27.5756 44.7066 27.3471 44.68 27.139C44.6692 27.0868 44.749 26.9854 44.8553 26.9258C45.0573 26.8122 45.274 26.6803 45.3667 26.4568C45.4772 26.1827 45.2087 26.292 45.0253 26.3197C44.8299 26.2293 44.4282 26.318 44.7775 25.7421C44.7971 25.7133 44.8184 25.6864 44.8401 25.6609C44.8266 25.6025 44.8394 25.5374 44.869 25.4692C44.4663 25.931 44.0133 26.3395 43.5001 26.7095C43.4677 26.7319 43.4372 26.7523 43.4086 26.7706C43.3977 26.7775 43.3871 26.7841 43.3768 26.7904C43.3764 26.7936 43.376 26.7968 43.3757 26.8C43.3889 26.7919 43.402 26.7843 43.4149 26.777C43.5487 26.7006 43.6645 26.6634 43.7776 26.6318C43.8578 26.7271 44.2772 26.3873 44.2455 26.6206C44.2478 26.6184 44.25 26.6162 44.2523 26.6139C44.1118 26.7749 43.8692 26.9391 43.7376 27.1053C43.6652 27.197 43.6266 27.2901 43.6597 27.3829C43.6815 27.4341 43.5088 27.6292 43.364 27.7053C43.157 27.8135 42.8127 28.1892 42.7351 28.0711C42.5322 27.7453 42.1279 28.2158 41.6929 28.7353C41.6391 28.8497 41.5608 28.9397 41.4366 29.0129C41.435 29.0124 41.434 29.0108 41.4325 29.0103C41.276 29.187 41.1032 29.4461 40.9647 29.4038C40.7951 29.3467 40.6213 29.5803 40.441 29.7729C40.7363 29.9008 41.2546 29.2565 41.6754 28.9412C41.997 28.8101 42.0739 28.9144 41.853 29.2942C41.8529 29.3 41.8557 29.3034 41.8566 29.3085C41.858 29.3011 41.8581 29.2947 41.8598 29.2873C42.419 29.1698 41.8106 29.9171 41.7129 30.2822C41.6725 30.4231 41.4871 30.6596 41.369 30.8516C41.3835 30.8678 41.398 30.8841 41.4125 30.9004C41.4566 30.9483 41.512 30.9824 41.6637 30.9C41.6614 30.9023 41.6592 30.9047 41.6569 30.907C41.8808 30.8744 41.851 30.9694 41.4733 31.4806C41.1055 31.8073 40.7272 32.4658 40.4939 32.5091C40.0087 32.5986 39.9351 32.99 39.7062 33.2729C39.7064 33.273 39.7066 33.2732 39.7067 33.2734C39.3123 33.7137 38.9121 34.1395 38.4773 34.5496C38.3474 34.5098 38.3809 34.3261 38.6355 34.0871C39.0187 33.7289 39.2468 33.3341 39.5913 32.9888C39.5946 32.9841 39.5974 32.9794 39.6008 32.9745C39.6031 32.9721 39.6054 32.9698 39.6077 32.9674C39.7517 32.7526 39.8949 32.5384 40.0354 32.3222C40.0704 32.2621 40.1053 32.2023 40.1405 32.1421C40.1745 32.0837 40.1992 32.037 40.1884 32.0332C39.8532 31.9777 40.2682 31.5206 40.589 31.1175C40.6037 31.0958 40.6183 31.074 40.633 31.0523C40.8655 30.7247 41.2621 30.3747 41.3549 30.0599C41.3256 30.0718 41.2964 30.0838 41.2671 30.0957C40.8317 30.262 40.4618 30.2448 39.817 30.962C39.7985 31.1259 39.9988 30.9826 40.1014 30.9558C40.2855 30.909 40.2361 31.0302 40.1367 31.2134C40.0298 31.4044 39.9145 31.5744 39.7094 31.658C39.3563 31.7958 39.0531 32.0667 38.7993 32.5005C38.7624 32.5639 38.6947 32.669 38.6544 32.7009C37.8083 33.3014 37.6948 33.7217 37.713 34.1109C37.7111 34.1143 37.7094 34.1176 37.7075 34.121C37.7995 34.416 37.2902 35.0948 37.2574 35.4684C36.8479 35.8085 36.4612 36.0699 36.0337 36.5601C35.6073 37.0533 35.8983 36.5145 35.7802 36.5451C35.8383 35.9601 36.112 35.5535 37.0934 34.6327C36.3318 34.9817 36.1636 34.5557 36.786 33.656C37.2113 33.1675 37.6328 32.8494 38.0996 32.6189C38.1176 32.4722 38.1418 32.33 38.2155 32.1573C38.2035 32.1679 38.1913 32.1788 38.179 32.1898C38.2037 32.1423 38.2321 32.0972 38.2638 32.0533C38.2652 32.0506 38.2657 32.0483 38.2671 32.0455C38.3873 31.8506 38.6065 31.6374 38.709 31.4409C38.7235 31.4227 38.7365 31.4047 38.7501 31.3868C38.437 31.7592 38.1993 32.129 37.9311 32.4996C37.7597 32.7027 37.5731 32.9063 37.3709 33.0809C37.0854 33.3318 36.9587 33.3232 36.8599 33.2562C36.8073 33.2217 36.7381 33.2258 36.6496 33.2908C36.6366 33.3021 36.6224 33.3137 36.6082 33.3273C36.6065 33.328 36.6048 33.3288 36.6032 33.3295C36.5494 33.3788 36.4886 33.4481 36.421 33.545C36.1353 34.0475 35.876 34.5492 35.3826 35.0856C35.7007 34.9474 35.831 35.0666 35.9848 35.1511C36.1592 35.2498 35.9387 35.6288 35.4834 36.0144C35.2531 36.2123 35.0145 36.3882 34.8091 36.6271C34.6365 36.8276 34.3596 37.0844 34.2307 37.2616C34.1169 37.4186 34.1206 37.5137 34.4188 37.4527C34.4247 37.4515 34.4307 37.4502 34.4369 37.4489C34.5262 37.4295 34.559 37.4923 34.5459 37.5817C34.5343 37.6628 34.4851 37.7654 34.4068 37.8473C34.0447 38.229 33.891 38.5932 33.5183 38.9656C33.6637 38.9013 33.7581 38.9084 33.7694 39.0319C33.7678 39.0351 33.7662 39.0382 33.7646 39.0414C33.7791 39.0562 33.7787 39.0856 33.7859 39.1076C33.2171 39.7727 32.6372 40.1374 32.0646 40.4506C32.0658 40.4495 32.0671 40.4482 32.0682 40.4471C31.7014 40.7822 31.3775 41.142 31.1288 41.4807C30.5658 42.2569 29.8755 42.8362 29.1393 43.4005C29.9355 42.7249 30.3873 42.0295 30.8724 41.3344C31.0389 41.0995 30.4828 41.4437 30.8345 41.0476C30.8351 41.0462 30.8363 41.0444 30.8369 41.043C30.6951 41.0288 30.8286 40.804 30.855 40.6558C30.8761 40.524 30.9674 40.3911 31.1378 40.2488C31.3404 40.0798 31.3194 40.2023 31.3288 40.2704C31.3485 40.3913 31.4752 40.3499 31.6917 40.1576C32.1483 39.7547 32.7091 39.1516 32.8122 38.9002C32.9951 38.4834 32.9418 38.1282 32.7298 38.0164C32.6448 37.9739 32.5548 37.9412 32.5505 37.8194C32.5525 37.8161 32.5554 37.8125 32.5575 37.8093C32.5528 37.8113 32.5481 37.8131 32.5434 37.815C32.1696 38.1066 31.8082 38.4684 31.3843 38.6963C31.7593 38.2467 32.1144 37.8987 32.4942 37.5111C32.6285 37.3743 32.719 37.2366 32.6695 37.1834C32.6174 37.133 32.4929 37.2505 32.3857 37.3558C32.1183 37.6184 31.8009 37.77 31.6054 38.1263C31.459 38.3812 31.1425 38.6136 30.9099 38.7735C30.4694 39.0741 30.1745 39.4104 29.8966 39.8072C29.8925 39.814 29.8881 39.8208 29.884 39.8275C29.8916 39.8192 29.8995 39.8105 29.9072 39.8021C29.9056 39.8906 29.7419 40.1322 29.902 40.063C30.1706 39.9363 30.3865 39.6239 30.5696 39.4352C30.9816 39.1148 30.173 40.0891 30.8335 39.4871C30.8366 39.4845 30.84 39.4822 30.8431 39.4797C30.8417 39.4788 30.8405 39.4778 30.839 39.477C31.0416 39.2064 31.2538 38.9695 31.4978 38.9C31.7445 38.8327 31.4471 39.1532 31.4015 39.2898C31.3741 39.3746 31.3402 39.4708 31.2794 39.5737C31.119 39.8612 30.889 40.1872 30.5794 40.3734C30.3021 40.5422 30.5375 40.18 30.4938 40.0929C30.4912 40.0943 30.4882 40.0962 30.4856 40.0977C30.1365 40.2995 29.8217 40.544 29.489 40.9046C29.6445 40.9713 29.8102 41.0303 29.6514 41.3325C29.6493 41.3524 29.6288 41.3834 29.6014 41.4189C29.5621 41.4815 29.512 41.5523 29.4487 41.6325C29.451 41.631 29.4535 41.6289 29.4559 41.6274C29.4536 41.6296 29.4512 41.6319 29.4489 41.6341C29.5216 41.993 29.1257 42.6863 29.2404 43.0182C28.9945 43.2904 28.7585 43.5529 28.5124 43.8247C28.2717 44.2211 28.081 44.2178 27.9028 44.2505C27.8198 44.3258 27.745 44.3931 27.6646 44.4659C27.1646 44.7179 26.7614 45.0633 26.3864 45.597C25.9834 46.177 25.4366 46.6828 24.8721 47.1714C24.6305 47.4295 24.4213 47.6818 24.2433 47.9178C24.1576 48.035 24.0835 48.1433 24.0237 48.2211C23.9752 48.2828 23.9059 48.374 24.0562 48.1367C24.1435 47.9698 24.4567 47.786 24.8643 46.4303L20.0117 39.4576C20.05 39.4637 20.1083 39.4714 20.1696 39.477C20.1926 39.5336 20.1619 39.5531 20.0902 39.5305C20.0569 39.528 20.0276 39.5279 20.0044 39.5307L24.7932 46.4118C24.4427 47.5801 24.1525 47.8005 24.0523 47.9553C23.9355 48.092 23.8913 48.1083 23.8582 48.1086C23.4051 48.1076 24.0749 47.4069 24.7971 46.6522C24.1937 47.1197 23.9103 47.1668 24.0075 46.8924C24.1878 46.3783 24.7904 46.1439 25.2291 45.7265C25.195 45.9321 24.844 46.1789 24.777 46.4021C25.5747 45.9213 26.2352 45.1482 26.8987 44.4697C27.1443 44.2185 27.3796 43.9671 27.5926 43.9151C28.0403 43.7906 28.4304 43.2878 28.638 42.9854C28.9074 42.5894 28.6841 42.5557 28.2864 42.7677C28.2533 42.7864 28.2304 42.7787 28.1988 42.7821C28.1899 42.7902 28.181 42.798 28.1721 42.806C27.9741 42.9111 27.9634 42.8639 28.0945 42.655C28.353 42.2263 28.5778 41.8056 28.8994 41.2421C28.3162 41.8281 27.9402 41.7834 27.4213 42.3871C27.6517 41.9234 28.1904 41.4538 28.3586 41.0587C28.3578 41.0578 28.3569 41.0569 28.356 41.056C28.352 41.0569 28.3474 41.0581 28.3434 41.0589C28.1609 41.1255 27.935 41.3305 27.8506 41.4653C27.4223 42.1266 26.7268 42.655 26.1912 43.2391C26.1801 43.2511 26.1697 43.2632 26.1587 43.2751C26.1704 43.2642 26.1816 43.2525 26.1935 43.2415C25.9741 43.5253 25.7406 43.8224 25.5379 44.0945C25.3636 44.32 25.3264 44.4664 25.4103 44.525C25.505 44.6017 25.755 44.366 25.8805 44.2354C26.5289 43.5676 26.8842 43.7483 27.4929 43.2467C27.2615 43.48 27.0507 43.6882 26.8348 43.9062C26.8228 44.0524 27.2855 43.5677 27.1219 43.8746C27.0301 44.045 26.9361 44.2559 26.7124 44.4476C26.3332 44.7746 26.6444 44.3782 26.5814 44.3716C26.3936 44.3559 26.0138 44.6785 25.8452 44.668C25.3809 44.6157 25.1456 44.9859 24.7863 45.5526C24.4506 46.087 24.399 45.7288 24.1596 45.8924C24.1694 45.8825 24.1792 45.8725 24.1891 45.8625C24.1751 45.8729 24.1613 45.883 24.1477 45.894C23.8263 46.2383 23.4923 46.5603 23.1891 46.8381C23.0371 46.9775 22.8884 47.1114 22.7985 47.1865C22.7571 47.2193 22.7257 47.2467 22.7667 47.181C22.7933 47.0893 22.9869 47.0224 23.2871 46.0191L19.8494 41.0794C20.01 41.1234 20.2273 41.1659 20.4622 41.2011C20.7246 41.2401 20.9699 41.2296 21.2155 41.1564C21.2157 41.1563 21.216 41.1561 21.2163 41.156C21.2128 41.1541 21.2089 41.1521 21.2071 41.1495C20.87 40.8423 21.7371 40.9174 21.9361 40.7682C22.3028 40.8511 22.1654 40.9991 22.0378 41.1154C21.7622 41.3714 22.0889 41.4034 22.5894 41.3682C23.0355 41.3372 23.4927 41.2889 23.9455 41.2331C23.9477 41.2337 23.9491 41.2348 23.9513 41.2354C23.9521 41.2342 23.9546 41.2331 23.9554 41.2319C23.9969 41.2236 24.0385 41.2153 24.0806 41.2094C24.0788 41.2083 24.0765 41.2075 24.0747 41.2064C24.0173 41.1299 23.8659 41.118 23.6543 41.1356C23.3489 41.1609 23.0288 41.1749 23.0503 41.0198C23.0628 40.8657 23.3649 40.8009 23.7121 40.756C23.8173 40.7435 23.9236 40.7304 24.031 40.7168C24.0418 40.717 24.0532 40.7165 24.064 40.7167C24.2555 40.6669 24.5006 40.6247 24.6326 40.5554C25.1224 40.2956 25.56 40.2607 26.0186 40.369C26.0201 40.3684 26.0224 40.368 26.0239 40.3674C26.024 40.3684 26.0242 40.3694 26.0244 40.3704C26.0269 40.371 26.0296 40.3716 26.0321 40.3722C26.9185 40.1846 26.702 39.9968 26.5946 39.8139C26.2592 39.7525 26.4048 39.6197 26.6529 39.4794C26.8129 39.3893 27.0719 39.3237 27.133 39.2124C27.1298 39.2119 27.1267 39.2114 27.1235 39.2109C27.6503 39.0411 28.1733 38.8591 28.6983 38.67C29.4525 38.5009 30.1965 38.3421 30.9239 38.207C31.2705 38.1008 31.6097 38.0011 31.9404 37.9091L31.6288 38.0217C32.6919 37.6508 33.7646 37.3292 34.8176 37.136C35.777 36.9283 36.7554 36.6913 37.7332 36.4425C37.7556 36.4427 37.7675 36.4444 37.7899 36.4446C38.2915 36.5524 38.4451 36.5997 38.0636 36.8797C38.371 36.7352 38.6824 36.5925 38.9792 36.4185C39.0185 36.4014 39.0519 36.3873 39.0894 36.3712C38.7709 36.571 38.4508 36.7756 37.9589 37.0811C38.6785 36.7958 38.7423 36.8732 38.5829 37.0741C38.6064 37.0689 38.6307 37.0634 38.6557 37.0575C38.7254 37.0439 38.7893 37.0334 38.8491 37.0241C39.3218 36.8055 39.6937 36.7848 40.0661 36.7388C40.4529 36.6932 40.2894 36.9502 39.7579 37.2616C40.067 37.2219 40.4943 37.0152 40.8529 37.0233C40.5496 37.1424 40.3336 37.2313 40.1239 37.3092C39.7398 37.4468 39.4578 37.6475 39.3687 37.826C39.2553 38.0442 39.6179 37.9112 39.9014 37.8224C40.0694 37.817 39.6451 38.1194 40.0513 38.0254C40.1944 37.994 39.7277 38.2128 39.572 38.3283C39.5425 38.3389 39.5127 38.3504 39.483 38.3621C39.5103 38.3533 39.5377 38.3445 39.5648 38.3358C39.2841 38.4965 38.982 38.6364 38.7641 38.8295C38.7598 38.8311 38.7555 38.8326 38.7511 38.8342C38.7524 38.8343 38.7541 38.834 38.7554 38.834C38.8788 38.7924 39.003 38.7503 39.1265 38.7085C39.1278 38.707 39.1293 38.7053 39.1307 38.7037C39.7243 38.3595 40.2829 38.1196 40.7338 38.1305C41.1482 38.1371 41.6344 37.7549 42.1235 37.5508C42.0778 37.6837 41.7185 37.9138 41.9614 37.9198C41.9165 37.9432 41.8623 37.9717 41.819 37.9982C41.8224 37.9977 41.8259 37.9972 41.8293 37.9966C40.7314 38.1943 39.9636 39.0208 38.9867 39.4852C38.7048 39.6213 38.9881 39.5775 39.161 39.5163C39.3793 39.6762 39.1928 39.8666 38.5594 40.0712C38.5024 40.3626 38.6893 40.5982 37.7214 41.0702C37.6911 41.0898 37.6604 41.1096 37.6298 41.1292C37.2385 41.4013 37.8409 41.3189 37.5711 41.5486C37.5679 41.5541 37.5638 41.5601 37.5597 41.5662C37.5644 41.5623 37.5692 41.5585 37.574 41.5546C37.7339 41.4881 37.904 41.3928 38.038 41.3882C37.8115 41.5733 37.8703 41.6949 37.5851 41.9033C37.0668 42.276 37.2365 42.32 37.7888 42.1475C37.7904 42.1464 37.7923 42.1454 37.7939 42.1443C37.7957 42.1436 37.7977 42.1426 37.7995 42.1419C37.8005 42.1412 37.802 42.1406 37.8029 42.1399C37.803 42.1401 37.8031 42.1403 37.8032 42.1405C38.2846 41.9622 38.7568 41.7236 39.2407 41.4866C38.9743 41.7298 38.6319 41.9169 38.2589 42.1126C38.0392 42.225 37.7219 42.3486 37.7758 42.4837C37.7818 42.4808 37.7879 42.4778 37.7939 42.4749C37.8861 42.665 38.2688 42.3399 38.5138 42.2567C38.7687 42.2614 38.7843 42.2923 38.6074 42.4456C38.4304 42.599 38.1653 42.7179 37.9291 42.8479C38.0481 42.8094 38.1576 42.7482 38.2808 42.6955C38.6044 42.5563 39.0254 42.3383 39.0799 42.4927C39.1355 42.6506 38.7139 42.8226 38.4218 42.9578C38.0744 43.1202 38.0842 43.2609 37.8676 43.4115C37.8191 43.4307 37.7701 43.4507 37.7216 43.4699C37.6598 43.4995 37.5981 43.5289 37.5365 43.5582C37.7621 43.5501 37.7465 43.6755 37.6636 43.8352C37.6584 43.8401 37.6532 43.8451 37.648 43.8501C37.364 44.0117 37.0794 44.1755 36.7452 44.3624C36.9553 44.4386 37.5336 44.1501 37.7265 44.2876C37.9186 44.422 37.8258 44.4944 37.3953 44.7559C36.9987 44.994 36.5139 45.1395 36.1456 45.3871C36.1217 45.404 36.0978 45.4209 36.0739 45.4378C36.145 45.4295 36.2165 45.4209 36.2874 45.4124C36.6078 45.4413 36.2105 45.6133 35.9904 45.7112C35.7015 45.8393 35.372 45.9352 35.2655 46.1153C35.2913 46.1261 35.2983 46.1413 35.3058 46.1597C35.2803 46.173 35.2551 46.1863 35.2298 46.1995C35.2559 46.1908 35.2824 46.1817 35.309 46.1731C35.2855 46.4058 35.2609 46.6426 35.2229 46.8802C35.2187 46.9075 35.206 46.9326 35.1865 46.9558C35.1314 46.9731 34.9715 47.0402 34.9154 47.0538C34.8421 47.1314 34.6863 47.1813 34.5233 47.2287C34.9539 47.2229 34.4698 47.4799 34.2158 47.6643C33.6939 48.0004 33.3969 48.3108 33.1072 48.6211C32.7371 48.8093 32.4753 49.0157 31.9793 49.1736C31.9761 49.1744 31.9729 49.1753 31.9697 49.1761C32.1433 49.3798 32.0246 49.5853 31.0432 49.7815C30.8128 49.8247 30.5707 49.9276 30.3247 50.0032C30.3253 50.0058 30.3282 50.008 30.3285 50.0107C30.0756 50.1299 29.8235 50.2437 29.5679 50.3596C29.3046 50.4312 29.0393 50.4977 28.7861 50.5636C27.2021 50.9386 25.6 51.1147 23.9291 51.2326C23.6494 51.3153 23.3798 51.3525 23.118 51.286C23.1137 51.2864 23.1094 51.2867 23.1051 51.287C22.5349 51.265 21.9231 51.3275 21.297 51.3211C21.2961 51.3193 21.2962 51.3175 21.2956 51.3158C21.2914 51.3165 21.287 51.3173 21.2828 51.3181C20.5233 51.3648 19.8499 51.2042 18.8445 51.1225C14.8892 50.423 12.2173 47.2716 13.5204 43.4722C14.2284 41.2689 14.7028 41.1303 14.9291 40.7107C15.2567 40.27 15.4952 40.2529 15.704 40.1376C15.9125 40.0333 16.1304 39.897 16.3388 39.7578C16.41 39.7082 16.4857 39.6545 16.5517 39.6106C16.6897 39.4698 16.8157 39.3418 16.953 39.2032C17.0755 39.0783 17.2128 38.9361 17.322 38.809C17.7554 38.3107 17.4542 38.4976 17.1921 38.6556C17.1866 38.661 17.181 38.6663 17.1755 38.6716C17.0959 38.7484 17.0128 38.8289 16.9263 38.9077C16.9264 38.9063 16.9273 38.9043 16.9274 38.9029C16.718 39.1514 16.495 39.2439 16.2629 39.4093C16.76 38.9261 17.0864 38.3202 17.699 38.047C17.6899 38.0566 17.6804 38.0661 17.6713 38.0756C17.6787 38.0693 17.6863 38.0633 17.6936 38.0569C18.8162 36.9771 19.9563 35.9276 21.1186 34.9446C21.1213 34.9404 21.1242 34.9361 21.1269 34.9318C21.1778 34.8825 21.2195 34.837 21.2688 34.7843C21.4739 34.73 21.6597 34.6943 21.8588 34.6457C21.8723 34.6357 21.8859 34.6256 21.8995 34.6156C22.1061 34.4505 22.3465 34.0991 22.5143 34.2205C22.5822 34.2654 22.8847 33.9617 23.057 33.76C23.1757 33.6221 23.2937 33.4794 23.4149 33.3346C23.2711 33.3062 23.0552 33.5428 22.8531 33.6785C22.5373 33.8993 22.1319 34.3704 21.9627 34.1971C22.5899 33.5875 23.2497 32.9442 23.8717 32.336C24.0687 32.2305 24.2564 32.0423 24.4368 31.8754C24.4406 31.8747 24.4445 31.874 24.4484 31.8734C24.5042 31.8134 24.5604 31.753 24.617 31.6922C25.3018 30.9697 26.03 30.3597 26.7623 29.6767C26.9371 29.5143 27.1112 29.3472 27.2815 29.1747C27.8129 28.6601 28.2937 28.0598 28.8996 27.6282C29.0641 27.486 29.2239 27.3494 29.3891 27.2091C29.4092 27.1908 29.429 27.1719 29.4491 27.1537C29.5818 27.047 29.7196 26.9303 29.8525 26.823C30.11 26.7809 30.4764 26.551 30.7322 26.505C30.779 26.5138 30.8277 26.5099 30.8769 26.4976C30.6057 26.5452 30.6965 26.3058 30.925 25.9662C30.5674 26.3474 30.3118 26.5268 30.1574 26.5074C30.4304 26.215 30.7066 25.9236 30.9808 25.6285C31.2181 25.2423 31.5604 24.9261 31.9162 24.6206C32.1358 24.3821 32.2689 24.3534 32.4181 24.3279C32.7024 24.2764 32.8699 24.0424 32.9624 23.762C33.1342 23.4738 33.3746 23.2044 33.6623 22.9965C34.1086 22.6692 34.5095 22.2513 34.9179 21.8345C34.9209 21.8268 34.9218 21.8201 34.9253 21.8119C34.9252 21.817 34.9251 21.8221 34.925 21.8272C35.5103 21.2055 36.1139 20.5911 36.7421 19.9874C37.6322 19.1313 38.5358 18.3371 39.3595 17.6357C39.36 17.9345 39.244 18.3152 39.2188 18.6325C39.6342 18.3555 40.096 18.1494 40.2265 17.6399C40.2274 17.6391 40.2285 17.6385 40.2293 17.6377C39.7659 17.8332 39.7613 17.5381 39.7022 17.3028C39.9739 17.0617 40.2283 16.8298 40.4122 16.6561C40.4872 16.9339 40.8767 16.8905 40.9 17.2249C40.8932 17.2291 40.8863 17.2351 40.8794 17.2398C40.8221 17.3627 40.7536 17.4986 40.6849 17.6281C40.5826 17.9588 40.7569 17.895 41.062 17.6145C41.1756 17.5095 41.2583 17.3719 41.344 17.3096C41.6906 17.0401 41.4957 17.2745 41.3217 17.0155C41.2754 16.9793 41.2376 16.9442 41.1687 16.9584C41.1037 16.964 40.9798 17.0843 40.9027 17.1117C40.7864 17.3437 40.3854 17.7506 40.5025 19.2888C40.5736 20.0321 40.9911 20.9958 41.5234 21.5768C42.0334 22.1529 42.4987 22.4131 42.8305 22.5728C43.6422 22.9142 43.749 22.8053 43.8807 22.7935C43.8072 22.8207 43.7208 22.844 43.6152 22.8597C43.3308 22.8043 43.05 22.7259 43.2048 22.861C43.2173 22.8667 43.2297 22.8723 43.2418 22.8777C43.7582 23.1052 43.755 23.1243 43.7411 23.1795C43.7202 23.2002 43.6725 23.2167 43.5417 23.2077C43.3957 23.1879 43.1958 23.1841 42.6474 22.9401C42.4926 22.8674 42.3158 22.7731 42.1181 22.6433C41.2128 22.15 40.2853 20.5799 40.1854 19.9882C40.0952 19.6767 40.0757 19.5813 40.0868 19.7202C40.1092 19.855 40.1466 20.311 40.5328 21.0839C41.1844 22.2694 42.0556 22.8156 42.5766 23.0821C43.3324 23.4419 43.5997 23.4353 43.7968 23.4702C43.9711 23.4885 44.0385 23.4786 44.0662 23.4702C44.1155 23.4508 44.0199 23.43 43.8993 23.4411C43.8992 23.4399 43.8991 23.4388 43.899 23.4377C43.8622 23.4438 43.8247 23.4503 43.7831 23.4577C43.2189 23.5478 42.4062 23.6388 41.6011 23.7835C41.4785 23.8061 41.3506 23.8306 41.2239 23.8555C41.1325 23.8716 41.0397 23.8883 40.9453 23.9058C40.9456 23.9068 40.9459 23.9079 40.9462 23.909C40.846 23.8627 40.6979 23.8785 40.534 23.9069C40.3919 23.9463 40.2396 23.979 40.0833 24.0124C39.6188 24.1491 39.2724 24.1096 38.8174 24.1515C38.7946 24.2737 39.1735 24.2441 38.9711 24.3982C38.9714 24.3993 38.9718 24.4004 38.9721 24.4015C37.973 24.8297 37.0512 25.0047 36.1546 25.0421C35.7379 25.0255 35.7236 24.8579 36.2301 24.6558C37.0057 24.3439 37.0925 24.105 37.1407 23.8456C37.1491 23.8093 37.1575 23.7714 37.1829 23.7308C36.1988 23.9569 36.1901 23.9788 36.3011 24.2556C36.3046 24.2548 36.308 24.2544 36.3115 24.2536C36.4622 24.2402 36.6614 24.2585 36.5214 24.3299C36.1416 24.5206 35.951 24.7992 35.3885 24.9036C35.3724 24.9066 35.3565 24.9096 35.3406 24.9127C34.993 24.9797 34.6781 25.0789 34.3804 25.2538C34.379 25.2532 34.3772 25.2528 34.3758 25.2523C34.374 25.2539 34.3732 25.2554 34.3713 25.257C34.3624 25.2636 34.3541 25.2701 34.3455 25.2765C34.3618 25.2735 34.3787 25.2696 34.3953 25.2669C34.8368 25.2468 35.4425 25.148 35.0542 25.5496C34.6875 25.7392 34.3022 25.8827 33.8892 25.9569C33.7647 25.9921 33.64 26.0308 33.5147 26.0713C33.6371 26.0339 33.7591 25.9965 33.8802 25.9601C32.4082 26.5456 30.8807 27.0135 29.365 27.5773C29.3662 27.5766 29.3671 27.5757 29.3683 27.575C28.4895 27.7727 27.6563 28.1321 26.8042 28.5064C26.5437 28.6191 26.2224 28.7267 25.9357 28.7728C25.8955 28.7781 25.8554 28.7835 25.8153 28.7888C25.6982 28.8337 25.5811 28.8785 25.4641 28.9233C25.1091 29.0623 24.7539 29.2013 24.3981 29.3401C23.3299 29.7511 22.2545 30.1362 21.1477 30.433C20.8644 30.4679 20.5796 30.51 20.275 30.5773C19.7849 30.6832 19.6288 30.6189 19.8021 30.3884C19.7952 30.39 19.7882 30.3916 19.7813 30.3932C19.5511 30.4979 19.3216 30.6028 19.0928 30.7079C19.4575 30.7074 19.8261 30.7029 19.4067 31.051C19.4036 31.0533 19.4004 31.0556 19.3973 31.0579C18.8031 31.2527 18.2048 31.4448 17.6003 31.6333C15.7483 32.2104 13.8757 32.7419 11.9794 33.2146C11.9748 33.2143 11.9708 33.2137 11.9662 33.2134C11.9678 33.2157 11.9686 33.2185 11.9704 33.2209C11.0356 33.453 10.0935 33.7559 9.13051 33.8882C9.13367 33.8863 9.13684 33.8843 9.14 33.8824C8.09804 34.0667 7.0595 34.2947 5.87948 34.4695C5.5178 34.5139 5.29617 34.5759 4.45587 34.594C4.19637 34.5756 3.99912 34.648 3.04151 34.3964C2.81726 34.3277 2.42921 34.1997 1.96 33.9032C1.50207 33.6208 0.726617 32.9647 0.314134 31.9376C-0.112018 30.8718 -0.0237923 29.9866 0.111361 29.3866C0.237648 28.8575 0.401814 28.5318 0.529307 28.2938C0.643735 28.0853 0.753525 27.923 0.84937 27.7924C0.929566 27.6836 1.00375 27.5925 1.07288 27.5121C1.20776 27.3565 1.29817 27.2666 1.38891 27.1783C1.5526 27.0212 1.6733 26.9208 1.78444 26.8307C2.56372 26.2285 2.97703 26.0249 3.49601 25.7458C3.49824 25.742 3.50033 25.7382 3.50253 25.7344C3.7336 25.5391 3.96905 25.3631 4.2118 25.1954C4.60863 24.9213 5.01603 24.6766 5.42074 24.4331C5.46495 24.4026 5.51534 24.3729 5.56795 24.3442C5.61287 24.3171 5.65846 24.2896 5.70181 24.2634C5.70306 24.2652 5.70431 24.2671 5.70556 24.269C5.7039 24.2705 5.70222 24.272 5.7005 24.2736C5.70847 24.2693 5.7167 24.265 5.72453 24.2608C7.53448 23.0608 9.35574 21.968 11.0692 20.723C13.048 19.2828 15.0093 17.8694 16.9086 16.3892C17.8049 15.6904 18.6966 14.9701 19.5768 14.2286C21.7048 12.4352 23.7881 10.5186 25.9158 8.70602C26.0585 8.58535 26.1987 8.46679 26.3421 8.34474C26.4394 8.25183 26.533 8.16226 26.6309 8.0684C27.7773 6.9785 28.9496 5.94781 30.1004 4.89774C30.4079 4.617 30.7176 4.33176 31.0158 4.05142C31.2464 3.83496 31.4844 3.61158 31.6793 3.42677C31.724 3.38489 31.7721 3.33826 31.7967 3.31687C31.8092 3.30602 31.8173 3.2992 31.8027 3.32069C31.7968 3.32983 31.7782 3.35442 31.7458 3.40114C31.724 3.43226 31.6956 3.47355 31.6564 3.53686C31.6409 3.56187 31.5992 3.63046 31.5601 3.70469C31.5396 3.74344 31.5171 3.78783 31.4926 3.84057C31.4682 3.89471 31.4437 3.94362 31.3904 4.08993C31.3433 4.22367 31.2898 4.3943 31.2517 4.64245C31.2332 4.76667 31.2191 4.91098 31.2189 5.08096C31.219 5.37117 31.2605 5.75719 31.4325 6.18679C31.5995 6.61432 31.9209 7.06703 32.3061 7.3767C32.7114 7.69822 32.9832 7.80491 33.2798 7.90631C33.8473 8.0828 34.2403 8.05122 34.4586 8.03424C34.7763 8.00148 34.9436 7.9475 35.0704 7.90861C35.1714 7.87565 35.2241 7.85422 35.2763 7.83284C35.459 7.75438 35.4755 7.73754 35.5052 7.72176C35.5488 7.69524 35.5273 7.70395 35.5043 7.71508C35.4518 7.74072 35.36 7.79116 35.2462 7.85079C33.604 8.67612 32.2376 9.04886 30.9083 9.50722C28.1958 10.4255 25.5353 10.9513 22.9343 11.3002C22.94 11.3007 22.9458 11.3013 22.9515 11.3018C21.912 11.5001 20.9969 11.5495 20.1782 11.5018C20.2134 11.4951 20.2485 11.4892 20.2831 11.4832C20.2507 11.4853 20.2187 11.487 20.1862 11.4891C20.1833 11.4923 20.1803 11.4954 20.1773 11.4985C18.705 11.659 17.3631 11.6502 15.8188 11.8591C15.7424 11.8695 15.6664 11.8803 15.5907 11.8915C15.5775 11.8931 15.565 11.894 15.5523 11.8954C15.5623 11.8958 15.5714 11.8969 15.5819 11.8971C15.0306 12.0212 14.633 12.0717 14.5675 11.8384C14.5265 11.6666 13.9116 11.7556 13.6585 11.6688C13.6614 11.6669 13.6643 11.6651 13.6672 11.6632C13.2314 11.411 12.7963 11.1597 12.3546 10.9117C11.8989 10.8154 11.4546 10.721 10.9919 10.6324C10.9758 10.6419 10.9599 10.6514 10.9435 10.6612C9.95041 10.8572 9.97331 10.5276 9.53978 10.4333C9.44406 10.4207 9.27634 10.4432 9.29752 10.3923C9.32094 10.3394 9.44748 10.2523 9.51799 10.1935C9.67835 10.0682 9.87953 9.95045 10.1751 9.83525C11.4798 9.49626 12.4656 9.05175 13.4533 8.59549C13.4698 8.589 13.4864 8.58255 13.503 8.57608C13.9211 8.35563 14.3996 8.17063 14.9046 8.00187C15.1281 7.92623 15.3593 7.85273 15.5908 7.7803C18.9059 6.74747 22.0629 5.54599 24.9954 4.16592C25.1621 4.08731 25.3396 4.01414 25.5072 3.94048C25.5078 3.94016 25.5083 3.93984 25.5088 3.93953C26.2932 3.53437 27.1079 3.15281 27.883 2.74774C28.0233 2.6762 28.1601 2.60635 28.2983 2.53575C28.3036 2.53253 28.3089 2.52933 28.3142 2.52611C28.4741 2.45139 28.6344 2.37301 28.7932 2.29928C28.8058 2.2937 28.8185 2.28814 28.831 2.28262C29.5508 1.7872 30.4196 1.42594 30.9195 1.12353C31.0383 1.05288 31.15 0.982879 31.2638 0.90851C31.2619 0.906689 31.2883 0.888203 31.352 0.846944C31.3847 0.82593 31.4268 0.799067 31.4963 0.757177C31.5764 0.710837 31.6375 0.667414 31.9209 0.52604C31.998 0.4889 32.077 0.44986 32.2526 0.377866C32.3365 0.343882 32.435 0.306058 32.5598 0.264226C32.7196 0.211586 32.9522 0.138642 33.2979 0.0768666C33.3853 0.0614681 33.4813 0.0468388 33.5881 0.0342579C33.6427 0.0278835 33.6941 0.0225253 33.7603 0.0169616C33.8568 0.00894403 33.9614 0.00294018 34.0759 0.000511169C34.5301 -0.00432491 35.1644 0.0190825 36.0158 0.340489C36.7601 0.580149 38.159 1.54768 38.7381 2.82182C39.3549 4.02901 39.2738 5.27365 39.253 5.48049C39.178 6.30962 38.9983 6.7346 38.8736 7.05246C38.7897 7.25264 38.7217 7.38686 38.6581 7.50644C38.5964 7.62201 38.5363 7.72312 38.4947 7.79067C38.4606 7.84605 38.4293 7.8947 38.4002 7.93872C38.3439 8.0242 38.287 8.1044 38.2541 8.14976C38.1894 8.23932 38.1278 8.31873 38.0892 8.36779C37.9237 8.57601 37.8597 8.64794 37.7791 8.74273C37.5016 9.06448 37.3219 9.26259 37.1217 9.4851C36.7337 9.91455 36.3669 10.3136 35.9913 10.7192C34.4426 12.3908 32.8447 14.0355 31.1588 15.6215C30.114 16.6021 29.1117 17.7053 28.0329 18.7231C27.5931 19.1406 27.1678 19.5735 26.6503 19.8761C26.317 20.0687 26.1009 20.4097 25.8656 20.683C25.8497 20.6929 25.8335 20.7041 25.8177 20.7141C25.1489 21.1742 24.681 21.8665 23.9933 22.3138C23.995 22.314 23.9975 22.3134 23.9988 22.3139C23.6397 22.7189 23.2249 23.0982 22.7929 23.4659C21.9941 24.1458 21.1392 24.7832 20.4429 25.5039C20.2494 25.7044 19.971 25.9038 19.7058 26.0476C19.6952 26.0526 19.6842 26.0588 19.6737 26.0639C18.9434 26.5415 18.4766 27.1534 17.7793 27.6367C17.7691 27.6425 17.7589 27.6489 17.7487 27.6547C17.7652 27.6456 17.7816 27.6367 17.7982 27.6273C16.2331 28.7717 14.7673 29.9956 13.155 31.0351C12.7575 31.2898 12.4501 31.3729 12.097 31.578C12.0942 31.5799 12.0914 31.5818 12.0886 31.5837C12.1468 31.5331 12.2054 31.4816 12.2654 31.4296C12.194 31.4774 12.1308 31.5266 12.0866 31.5806C11.755 31.8543 11.6647 32.1821 11.1042 32.4028C11.0235 32.4857 10.9267 32.5671 10.8124 32.6309C10.7867 32.6417 10.7598 32.6541 10.7335 32.6664C10.4837 32.968 10.1131 33.2214 9.73846 33.4635C9.67705 33.5033 9.61667 33.542 9.55779 33.5798C9.22861 33.7942 8.8804 33.9823 8.59261 34.1656C8.4496 34.2566 8.3209 34.3476 8.2473 34.4184C8.21098 34.4532 8.1899 34.4825 8.2095 34.4845C8.23425 34.4792 8.2772 34.4814 8.52297 34.2667C8.6004 34.1955 8.67654 34.1219 8.80079 33.9764C8.91493 33.8408 9.05336 33.6682 9.23862 33.3684C9.39246 33.1174 9.66899 32.6204 9.85857 31.944C10.0738 31.1602 10.2502 29.9962 9.78709 28.5424C9.31839 27.1241 8.46366 26.2422 7.80029 25.7333C7.18706 25.2742 6.7812 25.1058 6.42576 24.9635C5.83009 24.7445 5.52287 24.7162 5.31496 24.6922C4.8536 24.6092 4.66026 24.6101 4.50105 24.6013C4.05265 24.6265 4.11716 24.6742 4.13393 24.6902C4.17307 24.7086 4.262 24.7109 4.3572 24.6882C4.47337 24.6602 4.59278 24.5931 4.67767 24.4644C4.72134 24.4025 4.88832 24.3221 5.08531 24.3388C5.13681 24.3051 5.21092 24.284 5.28803 24.279C5.28556 24.2806 5.28309 24.2822 5.28063 24.2839C6.0402 24.1242 6.73441 23.7542 7.59903 23.6499C7.64691 23.6447 7.69291 23.6442 7.73917 23.645C8.12084 23.5959 8.50938 23.3853 8.89924 23.3639C9.0152 23.3834 9.20497 23.3394 9.32518 23.358C9.85841 23.0772 10.4857 22.8614 11.1106 22.6312C11.1827 22.6173 11.2552 22.601 11.3276 22.584C11.4342 22.5021 11.6609 22.4814 11.7624 22.3964C11.8659 22.3421 11.9582 22.2909 12.0601 22.2366C12.063 22.2357 12.0659 22.2348 12.0689 22.2338C12.7287 22.0371 13.3691 21.7495 14.1488 21.5882C14.1975 21.5782 14.247 21.5686 14.2973 21.5595C14.2541 21.5887 14.2108 21.6163 14.1674 21.6424C13.8757 21.8169 13.5756 21.931 13.2771 22.0367C13.5852 22.0679 13.9226 21.9692 14.2203 21.7962C14.3078 21.7449 14.3923 21.6869 14.4718 21.6235C14.7503 21.3992 15.3014 21.2518 15.4567 21.0197C16.0465 20.7686 16.6636 20.6319 17.2676 20.416C17.5578 20.2349 17.8391 20.1372 18.0711 20.1908C18.3399 20.3156 17.8832 20.5642 17.6328 20.775C17.3506 21.0086 16.9822 21.2666 17.8117 21.0592C18.0353 21.002 18.2035 21.0313 18.2156 21.1191C18.2492 21.3261 18.4163 21.5074 18.1787 21.7705C18.4468 21.6194 18.7141 21.465 19.0183 21.3367C18.3868 21.3873 18.3488 21.3123 18.6381 20.9132C18.7367 20.7802 18.877 20.6424 19.0059 20.5015C19.5985 20.2013 19.2585 20.1046 19.3445 19.9134C19.343 19.9133 19.3409 19.9136 19.3394 19.9135C19.3415 19.9127 19.3436 19.9119 19.3458 19.9111C19.3457 19.9109 19.3456 19.9107 19.3455 19.9105C18.9574 19.9324 18.3624 20.1221 18.2115 19.9428C18.7596 19.7375 19.2973 19.4677 19.8725 19.3158C20.0297 19.3078 20.2084 19.2694 20.4071 19.1974C21.4146 18.8316 21.4203 18.8328 21.0068 19.3425C21.0115 19.342 21.0164 19.3415 21.021 19.341C21.0294 19.3489 21.035 19.358 21.0432 19.3659C22.0793 19.0237 23.3586 18.8914 23.7773 19.0937C23.8577 19.1333 23.8958 19.2037 24.1214 19.1396C24.4563 18.7894 24.6406 18.4709 24.9479 18.1281C24.9611 18.0517 25.0871 17.942 25.1473 17.8519C25.1074 17.8147 25.0798 17.7736 25.1155 17.7122C25.0998 17.7076 25.0814 17.7035 25.0588 17.7008C25.0553 17.6986 25.0528 17.6959 25.0496 17.6935C24.978 17.7263 24.9135 17.7452 24.8528 17.7522C24.5831 17.9443 24.4308 18.1659 23.9151 18.2854C23.9124 18.2876 23.9097 18.2899 23.9071 18.2921C23.5988 18.3989 23.2809 18.5096 22.9726 18.6128C22.7225 18.6976 22.3872 18.9256 22.2455 18.8098C22.1335 18.7157 21.933 18.6181 22.4175 18.3547C23.1867 17.9347 24.0839 17.6936 24.907 17.3299C25.1372 17.2422 25.3676 17.1546 25.5984 17.067C25.6008 17.0648 25.6031 17.0626 25.6056 17.0603ZM24.243 50.872C24.0559 50.8982 23.8757 50.9193 23.6872 50.9378C23.877 50.9209 24.0572 50.9008 24.243 50.872ZM18.8469 37.5771C18.8594 37.5334 18.8695 37.4882 18.8753 37.4429C18.8934 37.3285 18.9854 37.197 19.1126 37.0728C18.9472 37.2103 18.7976 37.3116 18.6803 37.2851C18.6769 37.2876 18.6736 37.2908 18.6702 37.2934C18.8216 37.316 18.8771 37.422 18.8469 37.5771ZM20.9361 36.5224C20.8907 36.4172 20.591 36.6249 20.5538 36.5119C20.5303 36.4252 20.5232 36.3329 20.6488 36.194C20.5058 36.2728 20.3656 36.3453 20.2309 36.41C19.8389 36.5879 19.674 36.6243 19.7749 36.4225C19.6382 36.583 19.5029 36.7333 19.3334 36.8815C19.3157 36.897 19.2981 36.9124 19.2808 36.9276C19.4042 36.8316 19.5215 36.7636 19.6396 36.7116C19.9386 36.5818 20.1921 36.5245 20.3372 36.6055C20.4624 36.677 20.6442 36.6699 20.9361 36.5224ZM26.5856 30.289C26.5449 30.314 26.5023 30.3424 26.4563 30.3782C26.2816 30.5161 26.1218 30.6197 26.1012 30.5284C26.096 30.5127 26.0974 30.4941 26.1016 30.475C26.0526 30.535 26.0049 30.5947 25.9623 30.6554C25.9253 30.6915 25.8894 30.7283 25.8528 30.7644C25.7802 30.8753 25.6932 30.9918 25.6361 31.0942C25.6444 31.0901 25.6534 31.085 25.662 31.0811C25.9753 30.8258 26.2756 30.5361 26.5856 30.289ZM24.5681 32.2687C24.5308 32.2813 24.4963 32.29 24.4638 32.2955C24.4826 32.3107 24.4993 32.3276 24.5146 32.3461C24.5313 32.3207 24.5487 32.2951 24.5681 32.2687ZM29.1741 30.3298C29.1859 30.3001 29.199 30.2686 29.2162 30.2339C29.3365 30.0642 29.503 29.8912 29.6375 29.7182C29.6244 29.7176 29.6105 29.7176 29.5965 29.7174C29.5412 29.7045 29.5019 29.6654 29.4261 29.688C29.1209 29.7896 29.0035 29.7714 29.4148 29.2859C29.6132 29.0501 29.7464 28.7907 29.9062 28.5432C29.9962 28.7693 30.4671 28.525 30.698 28.5751C30.9623 28.321 31.0306 28.1598 30.873 28.0911C30.7731 28.05 30.6988 27.9774 30.6805 27.8621C30.6454 27.8835 30.6213 27.8886 30.6 27.8956C30.5382 27.9348 30.4669 27.9892 30.4118 28.0162C30.2658 28.2045 30.1065 28.3522 29.9273 28.4525C29.5196 28.5132 29.2846 28.3529 28.8872 28.3922C28.7585 28.4063 28.6819 28.4533 28.6253 28.5157C28.6623 28.5074 28.6929 28.5188 28.7184 28.5439C28.6163 28.9282 28.7756 29.0864 28.868 29.3029C28.8947 29.3153 28.9214 29.3278 28.9549 29.3333C29.0977 29.3218 29.1061 29.4413 29.0533 29.5978C28.9426 29.9058 29.0482 30.0104 29.2099 30.0735C29.1907 30.1739 29.123 30.2979 29.0561 30.4213C29.095 30.3857 29.1337 30.3556 29.1741 30.3298ZM35.2966 22.7596C35.7822 21.9407 35.4073 21.9248 34.9886 21.9492C35.0675 22.2114 35.1787 22.4465 35.1329 22.8195C35.197 22.7677 35.2501 22.7507 35.2966 22.7596ZM38.0581 19.6118C38.0698 19.5951 38.0818 19.579 38.0957 19.5624C38.0652 19.5825 38.0333 19.6051 38.0014 19.6318C37.4608 20.092 37.3188 20.015 37.2855 19.7815C37.1594 19.9564 36.9542 20.1869 37.012 20.2621C37.014 20.2646 37.0163 20.267 37.019 20.2692C37.0317 20.2796 37.0519 20.2855 37.0812 20.286C37.3076 20.2865 37.6094 20.0059 37.9125 19.7177C37.9619 19.6795 38.0098 19.6456 38.0581 19.6118ZM31.3604 26.1603C31.2391 26.2754 31.1171 26.376 30.9942 26.4513C31.1121 26.3901 31.2343 26.2864 31.3604 26.1603ZM43.6958 23.163C43.6347 23.1661 43.5503 23.1667 43.6472 23.2197C43.6921 23.2456 43.7643 23.2561 43.818 23.2739C43.7802 23.2363 43.7339 23.2003 43.6958 23.163ZM31.584 25.922C31.5786 25.9241 31.5733 25.9261 31.5684 25.9275C31.5584 25.9422 31.5482 25.9572 31.5383 25.9724C31.5536 25.9557 31.5687 25.9389 31.584 25.922ZM33.8448 24.3418C33.6126 24.5429 33.4533 24.6034 33.3856 24.524C33.313 24.4415 33.3949 24.276 33.5963 24.0635C33.322 24.1066 33.0557 24.4947 32.7893 24.8251C32.7868 24.8271 32.7841 24.8295 32.7817 24.8315C33.0204 24.9253 33.3045 24.9312 34.0053 24.2049C33.9517 24.2503 33.8981 24.2956 33.8448 24.3418ZM24.6827 33.8555C24.9149 33.6529 24.8879 33.5341 24.815 33.4892C24.6923 33.4076 24.7584 33.2202 24.9192 32.9701C24.7004 33.1329 24.4973 33.2692 24.3328 33.328C24.3595 33.4904 24.4 33.6411 24.3944 33.8278C24.3856 33.9572 24.401 34.1016 24.6827 33.8555ZM29.4729 27.5136C29.4328 27.5333 29.3929 27.5536 29.3534 27.5745C29.359 27.5743 29.3645 27.5741 29.37 27.5739C29.4037 27.5532 29.4382 27.5331 29.4729 27.5136ZM31.2398 26.7171C31.2587 26.7356 31.2613 26.758 31.2379 26.7874C31.2693 26.7757 31.3007 26.764 31.332 26.7523C31.3446 26.7483 31.3575 26.7439 31.3701 26.7399C31.3205 26.7344 31.2768 26.7269 31.2398 26.7171ZM25.4548 28.9268C25.4579 28.9256 25.461 28.9244 25.4641 28.9233C25.4611 28.924 25.4582 28.9245 25.4552 28.9252C25.4549 28.9257 25.4551 28.9263 25.4548 28.9268ZM31.537 25.6585C31.3163 25.7502 31.0941 25.8352 30.8673 25.92C30.5474 26.0649 30.2316 26.2182 29.9065 26.362C29.8456 26.4276 29.7038 26.4999 29.5361 26.5747C29.7116 26.5362 29.9047 26.4684 30.1412 26.3375C30.4688 26.155 30.9441 25.9661 31.2887 26.0042C31.6228 26.0463 31.4451 26.2524 31.1898 26.4545C31.0131 26.5923 31.0338 26.6405 31.1411 26.6731C31.0585 26.6062 31.1213 26.4868 31.413 26.2828C31.7256 26.0671 31.7647 25.9091 31.6099 25.8077C31.5471 25.7669 31.5136 25.72 31.537 25.6585ZM44.0814 22.596C44.0753 22.6575 44.0309 22.72 43.9277 22.7721C43.9323 22.7692 43.9376 22.7664 43.9415 22.7633C44.0231 22.7053 44.0764 22.6496 44.0814 22.596ZM38.9305 19.7786C39.0813 19.5914 39.1963 19.4087 39.252 19.2449C39.3412 18.9864 39.0833 19.1097 38.8677 19.1864C39.1745 19.2442 39.2224 19.3489 38.9305 19.7786ZM34.8047 23.7159C34.61 23.7573 34.4113 23.8816 34.2124 24.0354C34.3913 23.9269 34.5464 23.9202 34.8047 23.7159ZM36.9138 21.4768C36.9517 21.4046 36.9995 21.3272 37.0415 21.2545C36.9823 21.3349 36.9458 21.4064 36.9138 21.4768ZM36.8668 21.5802C36.8631 21.5882 36.8599 21.5961 36.8561 21.6042C36.8571 21.6037 36.858 21.6033 36.859 21.6028C36.8612 21.5954 36.864 21.5878 36.8668 21.5802ZM41.876 22.515C41.9882 22.6157 42.0231 22.7521 42.3372 22.7076C42.6565 22.6618 42.6814 22.5555 42.7333 22.4418C42.4269 22.5486 42.1492 22.5444 41.876 22.515ZM34.5436 24.5312C34.4529 24.6984 34.2696 24.8738 33.862 25.0682C34.3343 25.058 34.795 24.8509 35.2513 24.6522C35.3602 24.605 35.4686 24.5582 35.5767 24.5147C35.5805 24.4554 35.5018 24.4384 35.4155 24.4257C35.3422 24.4493 35.2679 24.4731 35.198 24.4968C35.1757 24.5044 35.1539 24.512 35.1327 24.5196C34.8772 24.562 34.6436 24.5881 34.5436 24.5312ZM23.8501 28.4952C23.549 28.5654 23.1711 28.6016 23.2528 28.8183C23.2722 28.8693 23.2228 28.9428 23.1121 29.0249C23.1126 29.025 23.1129 29.0253 23.1134 29.0255C23.1213 29.0202 23.1306 29.0151 23.1385 29.0098C23.6915 28.7076 24.0055 28.8432 24.4807 28.6878C24.5026 28.6854 24.5258 28.6817 24.5495 28.6779C24.5503 28.6771 24.5509 28.6763 24.5518 28.6756C24.5624 28.6672 24.5741 28.6589 24.585 28.6509C24.5262 28.5253 24.4071 28.4295 24.2217 28.3665C24.097 28.4075 23.9733 28.4493 23.8501 28.4952ZM22.6998 36.1739C22.5086 36.2468 22.3645 36.3844 22.2223 36.625C22.3689 36.4575 22.526 36.3022 22.6998 36.1739ZM39.2706 23.0574C39.3378 23.0635 39.4043 23.0704 39.4689 23.0787C39.905 23.1343 40.2522 23.0904 40.573 22.928C40.349 22.9926 40.1079 23.0218 39.8605 23.0333C39.6619 23.0424 39.4669 23.0464 39.2706 23.0574ZM35.3111 46.1725C35.3104 46.1727 35.3097 46.1729 35.309 46.1731C35.3091 46.1719 35.3097 46.1706 35.3098 46.1694C35.3102 46.1705 35.3107 46.1715 35.3111 46.1725ZM25.4964 27.9863C25.5158 27.9747 25.5356 27.9633 25.5555 27.9518C25.5356 27.9534 25.5145 27.9562 25.4942 27.9583C25.4967 27.967 25.4974 27.9763 25.4964 27.9863ZM39.7145 19.7236C39.7411 19.6921 39.7637 19.6614 39.7846 19.6309C39.7644 19.6299 39.7387 19.6337 39.7055 19.6441C39.669 19.6792 39.6665 19.6912 39.6906 19.7015C39.7193 19.7315 39.6216 19.8062 39.7097 19.7215C39.7113 19.7222 39.7129 19.7229 39.7145 19.7236ZM37.7951 21.8672C37.8271 21.8209 37.8616 21.7787 37.9009 21.7399C37.8567 21.7347 37.8125 21.7273 37.7429 21.7524C37.7544 21.7964 37.7802 21.8281 37.7951 21.8672ZM41.9728 17.9825C41.9199 17.9595 41.8724 17.9401 41.8038 17.969C41.8393 17.9859 41.8406 18.0445 41.8285 18.1201C41.8743 18.0665 41.9247 18.0164 41.9728 17.9825ZM31.1723 45.8733C31.4351 45.8291 31.6404 45.8198 31.7904 45.8463C31.7658 45.8057 31.6963 45.7842 31.5027 45.814C31.4002 45.8307 31.285 45.8499 31.1723 45.8733ZM33.4295 27.7064C33.4271 27.7087 33.4248 27.7111 33.4224 27.7133C33.4198 27.7234 33.4178 27.7331 33.4151 27.7433C33.4198 27.7311 33.4245 27.7189 33.4295 27.7064ZM25.2092 36.0636C25.2471 35.9716 25.3456 35.8666 25.4617 35.7543C25.3235 35.8721 25.2069 35.9808 25.2092 36.0636ZM33.398 27.8118C33.3864 27.8566 33.3747 27.9013 33.3683 27.9421C33.377 27.9336 33.3856 27.9249 33.3943 27.9164C33.395 27.8848 33.3962 27.85 33.398 27.8118ZM40.3626 23.8203C40.3513 23.8335 40.3409 23.8462 40.329 23.8581C40.3298 23.868 40.3353 23.8721 40.3662 23.8479C40.3635 23.8397 40.3633 23.8296 40.3626 23.8203ZM13.9483 23.8686C13.9475 23.8691 13.9466 23.8695 13.9457 23.87C13.9405 23.8764 13.9346 23.8829 13.9292 23.8893C13.9354 23.8823 13.942 23.8754 13.9483 23.8686ZM17.6154 21.2442C17.615 21.2442 17.6146 21.2442 17.6142 21.2443C17.613 21.2458 17.6114 21.2475 17.6103 21.2491C17.6259 21.2447 17.6447 21.2373 17.6663 21.2263C17.6493 21.2322 17.6323 21.2382 17.6154 21.2442ZM17.9461 21.1541C17.9054 21.1255 17.8142 21.1665 17.7265 21.2035C17.8283 21.1651 17.9135 21.142 17.9282 21.1939C17.9344 21.181 17.9412 21.1674 17.9461 21.1541ZM31.982 34.5144C31.9894 34.4113 32.0255 34.3003 32.1621 34.1552C32.0496 34.1997 31.9407 34.2383 31.8782 34.2091C31.8634 34.1859 31.8493 34.162 31.8312 34.1434C31.7469 34.1993 31.659 34.2565 31.5782 34.3135C31.5524 34.3893 31.5203 34.4698 31.5631 34.4869C31.6352 34.5601 31.8911 34.4489 31.9281 34.5596C31.9295 34.5581 31.9308 34.5566 31.9321 34.5551C31.9488 34.5419 31.9655 34.5278 31.982 34.5144ZM23.0853 23.4146C23.1836 23.3829 23.2858 23.3443 23.3926 23.3036C23.2902 23.3403 23.1875 23.3777 23.0853 23.4146ZM29.9276 36.6195C29.8919 36.6333 29.8552 36.6488 29.8195 36.6634C29.8168 36.6825 29.8084 36.7077 29.7984 36.7366C29.8414 36.6982 29.8846 36.6593 29.9276 36.6195ZM29.0958 39.3407C29.3358 39.2415 29.5245 39.0806 29.6334 38.8839C29.5985 38.9071 29.5668 38.9158 29.5418 38.9016C29.4819 38.8683 29.5471 38.7512 29.6943 38.5977C30.2783 37.998 30.2226 37.8662 29.769 38.0324C29.5762 38.2309 29.5906 38.2422 29.6995 38.3414C29.7477 38.3909 29.619 38.5216 29.5354 38.6226C29.3647 38.8402 29.2235 39.0533 29.1267 39.2454C29.1162 39.2773 29.1052 39.3094 29.0958 39.3407ZM24.9263 43.3275C25.0213 43.1299 25.335 42.8468 25.4984 42.6095C25.0872 42.8923 24.8131 43.342 24.42 43.6002C24.4249 43.6278 24.4382 43.6471 24.4602 43.6586C24.472 43.6456 24.4833 43.632 24.4958 43.6187C24.6543 43.4661 24.8064 43.3621 24.9263 43.3275ZM33.111 35.8802C33.4793 35.588 33.8172 35.2784 34.0816 34.9173C33.9844 34.9941 33.8884 35.0655 33.8043 35.0928C33.5748 35.1415 33.3215 35.2972 33.007 35.6278C32.9478 35.6896 32.8824 35.7621 32.8175 35.8264C32.707 35.9357 32.599 36.0208 32.5236 35.9941C32.4129 36.293 32.1253 36.669 32.0123 36.9611C32.3477 36.6705 32.6918 36.3788 33.0022 36.014C33.0392 35.9703 33.0756 35.9257 33.111 35.8802ZM36.2301 32.7412C36.4292 32.4966 36.5341 32.2743 36.6513 32.0484C36.4457 32.3033 36.3171 32.5292 36.2301 32.7412ZM38.0236 30.9762C37.9317 31.0008 37.8318 31.0465 37.7258 31.1067C37.7345 31.1042 37.7436 31.1011 37.752 31.0989C37.8465 31.0756 37.9356 31.0336 38.0236 30.9762ZM40.813 28.7163C40.5258 28.7924 40.1843 28.9485 39.9426 28.9573C39.9329 28.9699 39.924 28.983 39.9144 28.9957C40.1518 28.9949 40.5058 28.82 40.813 28.7163ZM42.1696 26.7167C42.25 26.6474 42.3234 26.5675 42.3907 26.484C42.3164 26.5594 42.2418 26.6391 42.1696 26.7167ZM47.3903 22.1585C46.8449 22.5083 46.7824 22.4085 47.1358 21.8107C46.907 22.0712 46.7044 22.2837 46.5126 22.4943C46.7906 22.3894 46.7404 22.6469 46.7016 22.8873C46.9152 22.6645 47.1432 22.4401 47.3903 22.1585ZM22.0505 41.6782C22.1365 41.7177 22.2581 41.7372 22.3949 41.7477C22.2752 41.7281 22.1606 41.705 22.0505 41.6782ZM39.1094 36.3627C39.1026 36.3657 39.0959 36.3684 39.0894 36.3712C39.0955 36.3674 39.1018 36.3635 39.1078 36.3597C39.1084 36.3607 39.1089 36.3617 39.1094 36.3627ZM37.0893 15.9128C36.9962 16.0177 36.8473 16.1156 36.5232 16.1978C36.523 16.2038 36.5235 16.2096 36.521 16.2161C36.4687 16.2806 36.4009 16.3384 36.3242 16.3893C36.3381 16.4065 36.3509 16.4241 36.3564 16.4428C36.6267 16.3352 36.8973 16.2368 37.1861 16.1577C37.1823 16.0747 37.2775 15.9673 37.3403 15.8688C37.297 15.8782 37.2553 15.8868 37.2148 15.8939C37.1734 15.8995 37.131 15.9065 37.0893 15.9128ZM25.9565 19.6281C25.4052 19.8246 25.5609 19.9482 25.4444 20.1C25.9087 19.8459 26.3746 19.5945 26.9037 19.4067C26.6039 19.4559 26.3044 19.5052 25.9565 19.6281ZM28.2095 40.4371C28.1125 40.4487 28.0268 40.4777 27.9489 40.5197C28.0327 40.4868 28.1189 40.4585 28.2095 40.4371ZM45.2837 24.5472C45.2905 24.5167 45.3021 24.4845 45.3192 24.4496C45.1742 24.5405 45.0244 24.6113 44.8146 24.7856C44.9964 24.6939 45.1566 24.6012 45.2837 24.5472ZM39.8563 30.1845C39.8791 30.113 39.9216 30.0399 39.9834 29.964C39.7649 30.1351 39.5565 30.3289 39.3661 30.5736C39.5292 30.4212 39.6937 30.2742 39.8563 30.1845ZM28.724 39.2829C28.5171 39.3497 28.3417 39.4509 28.1417 39.5291C28.0568 39.5415 27.9724 39.5561 27.8873 39.5717C27.6428 39.7071 27.5884 39.7975 27.7262 39.8456C27.7232 39.8462 27.7203 39.8468 27.7173 39.8475C27.72 39.85 27.7234 39.8524 27.7263 39.8549C27.7264 39.8542 27.7276 39.8533 27.7276 39.8525C27.8773 39.9348 28.6279 39.7117 28.3257 40.0211C28.8329 39.9518 29.3985 39.9063 29.4194 39.5727C29.4225 39.5719 29.4259 39.5711 29.4291 39.5703C29.4269 39.5615 29.4247 39.5528 29.4225 39.5441C29.3799 39.5533 29.3373 39.563 29.2947 39.5716C29.2119 39.5849 29.1273 39.5912 29.0594 39.5863C28.8181 39.5232 28.5231 39.4703 28.724 39.2829ZM45.2681 24.9709C45.3114 24.928 45.3556 24.8847 45.4004 24.8417C45.3852 24.8447 45.3712 24.8461 45.3582 24.8457C45.3287 24.8876 45.2987 24.9294 45.2681 24.9709ZM38.1653 32.2016C38.1699 32.1975 38.1745 32.1938 38.179 32.1898C38.1779 32.192 38.1758 32.1946 38.1747 32.1967C38.1716 32.1984 38.1685 32.2 38.1653 32.2016ZM29.4827 40.9112C29.482 40.9119 29.4813 40.9126 29.4806 40.9133C29.4808 40.9138 29.4815 40.914 29.4817 40.9145C29.4822 40.9133 29.4823 40.9124 29.4827 40.9112ZM45.6801 24.9652C46.1009 24.6425 46.438 24.2638 46.7575 23.8439C46.6751 23.9131 46.5884 23.9753 46.501 24.0216C46.2985 24.1277 46.0975 24.2909 45.9022 24.4822C45.9772 24.5568 45.8288 24.7623 45.6801 24.9652ZM33.8623 36.8057C33.9378 36.7178 33.9682 36.6467 33.9978 36.5774C33.9226 36.647 33.8483 36.7164 33.7773 36.7879C33.8075 36.7907 33.8352 36.7974 33.8623 36.8057ZM38.9276 14.8123C38.7876 14.8747 38.6277 14.9315 38.4716 14.9848C38.6278 14.9488 38.7914 14.9059 38.9479 14.8667C38.9378 14.8496 38.9305 14.8316 38.9276 14.8123ZM41.0354 14.345C41.0892 14.3341 41.1429 14.3223 41.1965 14.3094C41.1455 14.321 41.0918 14.3326 41.0354 14.345ZM41.9605 14.0933C41.8694 14.1323 41.7515 14.1695 41.6127 14.2075C41.7382 14.1788 41.8698 14.1545 41.9984 14.1431C41.9702 14.1284 41.9589 14.1118 41.9605 14.0933ZM23.3336 47.7224C23.3542 47.7511 23.3811 47.7715 23.4863 47.6696C23.5764 47.539 23.8346 47.4252 24.1956 46.256L19.9429 40.1452C20.0029 40.1439 20.0873 40.163 20.2034 40.2062C20.3116 40.2494 20.3895 40.2134 20.2736 40.3202C20.1067 40.4792 20.4376 40.4144 20.5919 40.4105C20.8038 40.4056 21.0459 40.3893 21.0488 40.5171C21.0508 40.6529 20.669 40.7103 20.5595 40.6696C20.2881 40.5776 20.0594 40.5275 19.9062 40.5122L23.8387 46.1629C23.4618 47.3659 23.2264 47.4107 23.1772 47.5131C23.1116 47.5808 23.1238 47.5428 23.1441 47.4978C23.193 47.3968 23.2955 47.2258 23.3987 47.0449C23.416 47.013 23.507 46.957 23.5758 46.8991C23.5783 46.8967 23.5808 46.8942 23.5833 46.8917C23.448 47.2179 23.2818 47.5754 23.3336 47.7224ZM8.42643 25.1804C8.45365 25.1819 8.47819 25.1851 8.49929 25.1896C8.50171 25.189 8.50413 25.1884 8.50655 25.1878C8.47974 25.1853 8.45304 25.1829 8.42643 25.1804ZM22.38 39.6154C22.8583 39.5722 23.3175 39.5613 23.7874 39.5796C24.0334 39.5872 24.1357 39.6254 24.0867 39.7296C24.0885 39.7432 24.0903 39.7569 24.0921 39.7705C24.0366 39.8897 23.7307 39.9428 23.5623 40.0284C23.2683 40.1595 22.9072 40.1554 22.5715 40.2036C22.7428 40.2709 22.7799 40.3899 23.0376 40.4439C22.5938 40.5164 22.2541 40.5642 21.9165 40.6067C21.6846 40.6283 21.4816 40.6171 21.3273 40.5434C21.5357 40.4023 21.6642 40.2327 22.1154 40.1825C22.0892 40.1647 22.0761 40.1436 22.0837 40.117C22.0836 40.1159 22.0835 40.1148 22.0835 40.1136C22.0045 40.0084 21.7611 40.0211 21.5598 39.9962C21.2058 39.9466 21.4095 39.8932 21.5928 39.839C21.9583 39.8472 22.1556 39.7239 22.38 39.6154ZM23.9968 19.6148C23.8556 19.6695 23.7242 19.734 23.5987 19.8045C23.7301 19.7394 23.8622 19.6748 23.9968 19.6148ZM42.2632 13.6491C42.2732 13.7326 42.2688 13.8037 42.2406 13.8664C42.3343 13.804 42.3957 13.746 42.3 13.7044C42.2845 13.6863 42.2728 13.6677 42.2632 13.6491ZM21.2527 19.8095C21.2294 19.8348 21.1983 19.8637 21.1571 19.8962C20.8333 20.1493 20.9414 20.234 21.1211 20.3099C21.3211 20.354 21.5612 20.3806 21.5337 20.5179C21.6536 20.4796 21.7719 20.446 21.8901 20.4154C21.7 20.3386 21.7917 20.1268 21.6039 20.0478C21.7004 19.8406 21.51 19.8057 21.2527 19.8095ZM12.8435 23.5595C12.6576 23.6391 12.4728 23.7198 12.2751 23.7608C12.3483 23.7561 12.4154 23.7544 12.4705 23.7602C12.4896 23.754 12.5095 23.7481 12.53 23.7427C12.7689 23.7109 12.9965 23.6334 13.2315 23.5358C13.115 23.5304 12.9813 23.5426 12.8435 23.5595ZM7.91044 27.6283C7.83544 27.5304 7.78495 27.471 7.72148 27.3984C7.64591 27.3084 7.57059 27.2257 7.4931 27.1462C7.60904 27.2614 7.74681 27.4139 7.87463 27.5796C7.88665 27.5957 7.89856 27.6119 7.91044 27.6283ZM29.4444 41.6295C29.4433 41.6321 29.4428 41.6343 29.4419 41.6367C29.4422 41.6366 29.4426 41.6364 29.4429 41.6363C29.4435 41.634 29.4439 41.6318 29.4444 41.6295ZM5.16328 25.2986C5.09561 25.3163 5.02665 25.3341 4.9642 25.3528C5.03337 25.3369 5.10283 25.3196 5.16328 25.2986ZM38.9716 13.9869C38.8574 14.0288 38.7517 14.0728 38.6791 14.1229C38.7645 14.0766 38.8627 14.0304 38.9716 13.9869ZM20.1931 25.0338C20.3221 24.9226 20.4618 24.8078 20.576 24.6976C20.5264 24.7414 20.473 24.7864 20.4157 24.8336C20.3284 24.9039 20.2547 24.9711 20.1931 25.0338ZM17.3188 27.2118C17.3186 27.2078 17.3204 27.2025 17.3205 27.1984C17.3133 27.2051 17.305 27.2117 17.2981 27.2184C17.2881 27.2233 17.2781 27.2284 17.2682 27.2334C17.2627 27.2438 17.2568 27.2546 17.252 27.2651C17.2744 27.2474 17.2968 27.2298 17.3188 27.2118ZM16.2901 28.03C16.2891 28.0308 16.2877 28.0316 16.2868 28.0324C16.2858 28.0336 16.2852 28.0347 16.2843 28.0359C16.286 28.0339 16.2883 28.0319 16.2901 28.03ZM39.3866 32.8527C39.2565 32.9532 39.0965 33.1394 39.0554 33.0574C39.0248 32.9994 39.1273 32.8431 39.2395 32.7113C39.4056 32.5186 39.4673 32.5493 39.5238 32.5754C39.6124 32.6055 39.5191 32.719 39.3866 32.8527ZM29.2923 16.7305C29.0501 16.7012 28.8264 16.7645 28.4828 16.9983C28.7908 16.8771 29.0458 16.7506 29.2437 16.7483C29.3107 16.7473 29.3771 16.7428 29.4433 16.7351C29.39 16.7367 29.3384 16.7358 29.2923 16.7305ZM23.9809 22.3137C23.9818 22.3136 23.982 22.3143 23.9828 22.3143C23.986 22.3116 23.9891 22.3089 23.9922 22.3062C23.9885 22.3086 23.9847 22.3112 23.9809 22.3137ZM23.9855 22.3142C23.9861 22.3142 23.9872 22.3136 23.9877 22.3136C23.9887 22.3127 23.9898 22.3119 23.9909 22.311C23.9891 22.312 23.9873 22.3131 23.9855 22.3142ZM12.9852 22.5483C13.0984 22.5489 13.1881 22.5662 13.263 22.5948C13.2502 22.5518 13.1864 22.5292 13.0414 22.5408C13.0223 22.5425 13.003 22.5458 12.9852 22.5483ZM46.4326 26.752C46.2359 26.8151 46.2598 26.7212 46.4283 26.5501C46.4824 26.4981 46.5349 26.4477 46.5899 26.3947C46.9825 26.0044 47.0684 25.719 47.2121 25.4054C47.3684 24.9895 47.7239 24.6348 48.285 24.2998C48.2777 24.3058 48.2704 24.3117 48.2632 24.3177C48.5594 24.2188 49.0363 23.6733 49.54 23.1524C49.4347 23.5645 48.8762 24.1721 48.6925 24.4912C47.8031 25.4176 47.0788 26.0357 46.4326 26.752ZM6.90709 24.265C6.90715 24.2654 6.90736 24.2658 6.9074 24.2663C6.93055 24.2592 6.95429 24.253 6.97663 24.2452C6.95296 24.2509 6.93026 24.2583 6.90709 24.265ZM36.6005 36.4001C36.1184 36.8792 35.669 37.4135 35.1416 37.8617C35.6215 37.1687 36.2254 36.5265 36.8996 35.9181C36.8633 35.9552 36.8392 35.9897 36.8052 36.0293C36.6956 36.1704 36.752 36.2414 36.6005 36.4001ZM44.3894 28.6518C44.3861 28.6534 44.3828 28.6549 44.3794 28.6565C44.2612 28.6329 44.3828 28.5216 44.5253 28.395C44.6103 28.3193 44.7006 28.244 44.7825 28.1684C44.9386 28.024 45.0669 27.8773 45.0812 27.7186C45.0633 27.4801 45.2862 27.3703 45.4445 27.3664C45.5391 27.3664 45.5693 27.4671 45.5054 27.6252C45.2797 27.8295 45.06 28.0292 44.8427 28.2297C44.6917 28.3687 44.5393 28.5107 44.3894 28.6518Z" fill="var(--stroke-0, #C4EBD3)"/>
</svg>
