<svg preserveAspectRatio="none" width="100%" height="100%" overflow="visible" style="display: block;" viewBox="0 0 70.4473 65.589" fill="none" xmlns="http://www.w3.org/2000/svg">
<g id="Group 43974">
<path id="Vector" d="M51.8301 43.5615C52.3834 42.8512 52.9286 42.5286 53.4656 42.5935C53.8277 42.4766 54.1471 42.2471 54.4237 41.9049C55.1968 41.6191 55.8966 41.1189 56.5231 40.4043C56.6574 40.2527 56.7245 40.0708 56.7245 39.8586C56.7245 39.4905 56.8832 39.0617 57.2005 38.5724L62.1499 35.7595C62.337 35.6512 62.3736 35.5018 62.2597 35.3113C62.1621 35.151 62.0238 35.0579 61.8447 35.0319C61.6047 34.993 61.5905 34.9107 61.802 34.7851C62.9412 34.1138 64.0254 33.8085 65.0548 33.8691C65.2826 33.8821 65.4799 33.9666 65.6468 34.1225L70.2971 38.4554C70.3821 38.5346 70.4353 38.6455 70.4455 38.7653C70.4558 38.8851 70.4223 39.0044 70.352 39.0986C69.7051 39.9431 68.9606 40.2094 67.856 40.2549C66.436 40.3112 65.1239 40.7833 63.9197 41.6711C62.2272 42.914 60.5713 44.1786 58.952 45.4649C58.4394 45.8763 58.1078 46.3678 57.9573 46.9395C57.7823 47.6064 57.9186 47.6887 58.3662 47.1863C59.2978 46.134 60.3191 45.4432 61.4298 45.1141C61.6291 45.0578 61.8163 45.0859 61.9912 45.1985C63.8627 46.3808 65.6427 47.8208 67.3311 49.5185C67.3826 49.5702 67.4241 49.632 67.4531 49.7006C67.4822 49.7691 67.4984 49.8429 67.5006 49.9178C67.5029 49.9926 67.4913 50.067 67.4664 50.1368C67.4415 50.2065 67.4038 50.2701 67.3555 50.324C66.434 51.3634 65.0548 51.8441 63.8769 52.4093C63.6654 52.5089 63.4986 52.6648 63.3765 52.877C63.0103 53.505 62.4977 53.9424 61.8386 54.1893C61.7166 54.2326 61.6352 54.1893 61.5945 54.0593C61.5742 54.0074 61.5721 53.9489 61.5884 53.8839C61.6006 53.832 61.625 53.7908 61.6616 53.7605L62.9676 52.7991C63.2768 52.5739 63.2483 52.5067 62.8822 52.5977C61.6087 52.9138 60.5835 53.5461 59.8064 54.4946C59.6721 54.6548 59.5074 54.7544 59.3121 54.7934C58.6489 54.9147 58.1525 55.2503 57.823 55.8003C57.6847 56.0298 57.7416 56.1359 57.9939 56.1186C58.4333 56.0926 58.8625 56.0493 59.2816 55.9887C59.6518 55.9367 59.9102 56.1836 60.0566 56.7293C60.0607 56.7856 59.9569 56.8874 59.7454 57.0346C59.2612 57.0693 58.8015 57.1883 58.3662 57.3919C58.1587 57.4872 58.0936 57.6474 58.1709 57.8726C58.2278 58.0415 58.3601 58.2126 58.5676 58.3858C58.8808 58.3858 59.0456 58.4876 59.0619 58.6911C58.2685 59.3234 57.3918 59.8301 56.4316 60.2112C55.8823 60.4321 55.5894 60.5815 55.5528 60.6595C55.0646 61.7205 55.3127 61.9782 56.2973 61.4325C57.7315 60.64 59.3365 59.4642 61.0819 59.3602C61.3057 59.3472 61.383 59.4533 61.3138 59.6785L61.0575 60.4841C60.7849 60.6227 60.8032 61.0492 61.1124 61.7638C59.8186 61.0666 58.7994 61.1705 58.0549 62.0756C57.8881 62.1103 57.7945 62.2164 57.7742 62.394C57.7457 62.6105 57.8108 62.6473 57.9695 62.5044C58.0224 62.4524 58.0875 62.4308 58.1648 62.4394C58.2705 62.4481 58.2949 62.4979 58.238 62.5889C57.469 63.8448 56.34 64.7521 54.851 65.3108C53.1483 65.9539 52.5258 65.4082 50.9085 64.4273C49.6921 63.6824 48.6139 62.8227 47.6741 61.8483C47.5649 61.734 47.4338 61.6459 47.2896 61.5898C47.1454 61.5338 46.9914 61.5112 46.838 61.5235L43.9819 61.7768C43.7704 61.7985 43.5812 61.7422 43.4144 61.6079C42.7064 61.0449 41.968 60.5707 41.1991 60.1853C40.5033 59.8345 39.8178 59.4036 39.1424 58.8925C38.463 58.3815 37.7083 57.9679 36.8783 57.6517C36.6871 57.5824 36.4958 57.5803 36.3046 57.6452C35.2488 58.009 33.6865 58.2429 33.0946 57.0151C33.0333 56.8884 32.9454 56.7785 32.8376 56.6941C32.7298 56.6097 32.6051 56.5529 32.4733 56.5284C32.3414 56.5039 32.206 56.5122 32.0777 56.5527C31.9494 56.5932 31.8316 56.6647 31.7337 56.7617C29.732 58.7582 27.7262 60.5122 25.7163 62.0237C24.6728 62.8097 21.4871 64.4143 20.2421 63.3359C19.7173 62.8812 19.4325 62.6408 19.3878 62.6148C18.0574 61.8006 16.7168 60.9778 15.366 60.1463C15.2539 60.0767 15.1604 59.9775 15.0942 59.8581C15.028 59.7388 14.9913 59.6032 14.9877 59.4642C14.9714 58.6803 15.1768 57.9267 15.604 57.2035C17.5854 53.8471 20.3723 50.0057 23.9648 45.6792C24.331 45.2418 24.7602 45.0837 25.2525 45.205C25.3429 45.227 25.4367 45.2254 25.526 45.2005C25.6153 45.1757 25.6974 45.1281 25.7652 45.0621C26.0011 44.8282 26.172 44.5684 26.2778 44.2825C26.3795 44.0097 26.3124 43.9512 26.0764 44.1071C25.6614 44.38 25.1752 44.5597 24.6178 44.6463C24.3827 44.6801 24.1624 44.7838 23.9831 44.9452C19.9126 48.661 16.5438 52.5003 11.9607 56.1706C10.2763 57.5218 8.91539 56.4499 7.27375 55.7548C6.13863 55.2741 4.973 54.3452 3.68532 53.9424C3.60677 53.9183 3.53457 53.8752 3.47416 53.8165C3.41374 53.7577 3.36673 53.6849 3.33671 53.6034C3.30669 53.522 3.29443 53.4341 3.30091 53.3465C3.30739 53.2589 3.33245 53.1739 3.37411 53.0979C4.99744 50.1616 6.90758 47.6086 9.10458 45.4389C9.56839 44.9755 9.92642 44.4536 10.1787 43.8733C10.4391 43.2583 10.7198 42.6065 11.0209 41.9179C11.0981 41.7414 11.2366 41.6035 11.4073 41.5333C11.5779 41.463 11.7675 41.4658 11.9363 41.5411C12.1763 41.6537 12.4041 41.6342 12.6198 41.4827C13.1141 41.1319 13.169 40.4433 13.5718 40.1899C14.1536 39.8218 14.7049 39.406 15.2257 38.9427C15.3803 38.8041 15.5593 38.7283 15.7627 38.7153C16.1614 38.685 16.5133 38.5464 16.8185 38.2995C16.9812 38.1653 17.0891 37.9942 17.142 37.7863C17.3861 36.7729 17.9434 36.0367 18.8141 35.5776C19.0013 35.478 19.0257 35.3459 18.8873 35.1814C18.7531 35.0168 18.627 34.9302 18.509 34.9215C18.4265 34.9145 18.3476 34.8832 18.2809 34.8312C18.2142 34.7791 18.1625 34.7084 18.1314 34.6268C18.1004 34.5452 18.0913 34.456 18.1052 34.3693C18.119 34.2825 18.1553 34.2015 18.2099 34.1355C18.747 33.4988 19.3267 33.0398 19.9492 32.7583C20.1445 32.6717 20.2889 32.5266 20.3825 32.323C20.7202 31.6258 21.1942 31.0303 21.8044 30.5366C21.8102 30.5316 21.815 30.5254 21.8184 30.5183C21.8219 30.5113 21.8239 30.5036 21.8245 30.4957C21.8251 30.4878 21.8242 30.4799 21.8218 30.4724C21.8194 30.4649 21.8155 30.458 21.8105 30.4521L21.7129 30.3157C21.6478 30.2291 21.5746 30.2183 21.4932 30.2832C17.4735 33.4967 14.4445 35.844 12.4062 37.3251C11.6698 37.8621 10.8418 38.1869 9.92237 38.2995C9.18596 38.3905 8.36818 38.1934 7.46904 37.7084C5.9881 36.9158 4.44616 36.0518 2.84317 35.1164C2.59499 35.2983 2.42205 35.2138 2.32441 34.863C2.27966 34.7158 2.27966 34.5426 2.32441 34.3433C2.45867 33.724 2.57055 33.2065 2.66006 32.7907L5.91284 28.6527C6.14475 28.3538 6.10405 28.107 5.79078 27.9121L2.84924 26.0932L0.176224 23.5726C0.0216202 23.4297 -0.0312392 23.2522 0.017583 23.04C0.302379 21.7624 0.869923 20.5822 1.72024 19.4995C1.85982 19.3235 1.93733 19.101 1.93956 18.8699C1.94179 18.6389 1.8686 18.4137 1.73246 18.2327L1.03673 17.3038C0.882013 17.0978 0.809407 16.8354 0.834514 16.573C0.85962 16.3106 0.980416 16.0692 1.17098 15.9006C1.80973 15.3376 2.19626 14.8829 2.33052 14.5364C5.9637 10.63 9.87152 7.25201 14.054 4.40234C14.8758 3.84366 15.6732 3.22002 16.4462 2.53143C18.5212 0.692999 20.9623 -1.63265 23.2325 1.64793C23.9242 2.63968 24.7033 3.534 25.5699 4.33087C25.7329 4.47981 25.8473 4.67966 25.8967 4.90153C25.946 5.12339 25.9277 5.35578 25.8445 5.56514C25.4783 6.51359 24.7968 7.30613 23.8001 7.94276C21.1759 9.62311 18.6941 11.271 16.3547 12.8864C16.196 12.999 16.019 13.0553 15.8237 13.0553C15.4698 13.0596 15.2074 13.1939 15.0365 13.458C14.9022 13.6703 14.951 13.7417 15.1829 13.6724C16.8002 13.1852 18.2771 13.0553 19.699 12.1848C23.1288 10.0843 26.5626 7.99041 30.0005 5.90296C32.8627 4.16197 35.9141 2.65485 38.8678 1.10225C39.0509 1.00697 39.2238 1.02214 39.3865 1.14773C41.2702 2.58556 42.9465 4.30706 44.4152 6.31222C44.4526 6.36308 44.4781 6.42261 44.4898 6.48599C44.5014 6.54936 44.4988 6.61477 44.4821 6.67686C44.4654 6.73895 44.4352 6.79596 44.3939 6.84323C44.3526 6.8905 44.3013 6.92668 44.2443 6.94884C43.8538 7.10908 43.5588 7.3841 43.3594 7.77387C43.2496 7.98175 43.3025 8.04887 43.5181 7.97525C44.7814 7.52701 45.8799 7.13723 47.1249 6.46162C49.3544 5.25333 51.6755 4.36985 54.0881 3.81118C54.1824 3.79071 54.2794 3.7911 54.3729 3.81235C54.4664 3.8336 54.5544 3.87524 54.6313 3.93461C56.4214 5.34645 58.0284 6.86438 59.4524 8.48844C59.6843 8.75695 59.6843 9.02547 59.4524 9.29398C57.1151 12.0094 54.8876 14.0297 51.7996 16.2514C48.7889 18.4081 45.7639 20.7056 42.7248 23.1439C42.3505 23.4427 42.0575 24.0252 41.846 24.8914C41.7931 25.1079 41.6649 25.2487 41.4615 25.3136C40.9733 25.4652 40.5562 25.6688 40.2104 25.9243C34.4494 30.1858 30.3829 33.449 28.011 35.714C26.1598 37.4767 24.4103 39.1852 22.7626 40.8396C22.7097 40.8915 22.7056 40.9478 22.7504 41.0084L22.7565 41.0149C22.8012 41.0756 22.8562 41.0842 22.9213 41.0409C25.1549 39.4104 27.419 37.2666 29.3169 35.7855C32.2951 33.4664 35.2244 31.1082 38.3369 29.0619C41.6852 26.8619 45.0601 24.7138 48.4614 22.6177C50.0481 21.6433 51.3907 20.396 52.9103 19.2592C53.5124 18.8044 54.1491 18.2327 54.8204 17.5441C55.6504 16.6931 56.4011 15.9591 57.463 15.4069C58.4882 14.8786 59.4341 14.2549 60.3007 13.536C61.3463 12.6698 62.4326 12.7066 63.5596 13.6464C64.711 14.6079 65.8603 15.7858 67.0077 17.1804C67.0645 17.2481 67.1078 17.3274 67.1349 17.4137C67.1621 17.4999 67.1726 17.5912 67.1657 17.6822C67.1589 17.7731 67.1349 17.8619 67.0952 17.9431C67.0554 18.0243 67.0007 18.0963 66.9344 18.1548C65.3355 19.5406 63.6572 20.9373 61.8996 22.3449C61.0941 22.988 59.9223 23.4102 59.0741 24.2937C58.9276 24.4496 58.9276 24.6055 59.0741 24.7614C59.5582 25.2855 60.2051 25.8333 61.0147 26.405C62.0075 27.0979 63.1304 28.1676 64.3835 29.6141C64.5218 29.7743 64.5096 29.9194 64.3469 30.0493C59.4341 34.064 52.715 38.5464 47.0272 43.9512C46.2399 44.7048 45.3795 44.8022 44.5251 45.5168C44.4827 45.5518 44.4477 45.5954 44.4225 45.6446C44.3973 45.6939 44.3823 45.7477 44.3786 45.8026L44.342 46.1275C44.3176 46.3916 44.4132 46.4588 44.6288 46.3288L46.2461 45.3739C46.3195 45.3313 46.4019 45.309 46.4856 45.309C46.5692 45.3091 46.6516 45.3314 46.725 45.3741C46.7985 45.4167 46.8607 45.4783 46.9061 45.5532C46.9514 45.628 46.9783 45.7138 46.9845 45.8026C47.0089 46.1708 46.8685 46.4566 46.5634 46.6602C46.0263 47.0174 45.233 46.7316 44.5129 47.1344C44.3338 47.2383 44.2098 47.3921 44.1406 47.5956C43.6585 48.9858 42.4745 49.2781 41.7239 49.9342C40.9143 50.6358 40.068 51.2833 39.1852 51.8766C39.1648 51.8853 39.1607 51.9004 39.1729 51.9221L39.2523 52.065C39.3052 52.1603 39.3784 52.1841 39.472 52.1364C41.5591 51.1144 43.3839 49.7177 44.9462 47.9464C45.1984 47.6606 45.6907 47.5285 46.423 47.5501C46.6224 47.5545 46.8116 47.5068 46.9906 47.4072C48.797 46.4155 50.4102 45.1335 51.8301 43.5615ZM30.9403 6.24726C30.6596 6.35986 30.4053 6.54824 30.1775 6.81242C29.9862 7.02463 30.0208 7.08094 30.2812 6.98133C30.5823 6.86007 30.8467 6.689 31.0745 6.46812C31.4082 6.14331 31.3634 6.06969 30.9403 6.24726ZM29.0802 7.50096C29.055 7.43189 28.9529 7.39781 28.7964 7.40624C28.6399 7.41467 28.4418 7.46491 28.2456 7.5459C28.0494 7.6269 27.8713 7.73203 27.7504 7.83814C27.6295 7.94425 27.5757 8.04265 27.6009 8.11172C27.626 8.1808 27.7281 8.21488 27.8846 8.20645C28.0411 8.19802 28.2393 8.14777 28.4354 8.06678C28.6316 7.98578 28.8097 7.88065 28.9306 7.77454C29.0516 7.66843 29.1053 7.57003 29.0802 7.50096ZM42.8656 9.58409C42.8328 9.50346 42.6226 9.50849 42.2811 9.59807C41.9397 9.68765 41.495 9.85443 41.045 10.0618C40.8221 10.1644 40.6046 10.274 40.4049 10.3841C40.2052 10.4942 40.0272 10.6028 39.8811 10.7036C39.7349 10.8045 39.6236 10.8956 39.5533 10.9718C39.483 11.0479 39.4552 11.1077 39.4715 11.1476C39.5043 11.2282 39.7145 11.2232 40.0559 11.1336C40.3974 11.044 40.842 10.8773 41.2921 10.6699C41.515 10.5673 41.7325 10.4577 41.9322 10.3476C42.1319 10.2375 42.3099 10.1289 42.456 10.0281C42.6021 9.92722 42.7135 9.83612 42.7838 9.75994C42.8541 9.68377 42.8818 9.62402 42.8656 9.58409ZM42.6698 11.4897C40.8878 11.4377 39.4557 12.2627 38.3735 13.9648C38.2677 14.1337 38.1253 14.2527 37.9463 14.322C36.4653 14.9154 35.0882 15.7728 33.8147 16.8945C33.7842 16.9222 33.7651 16.9617 33.7617 17.0042C33.7583 17.0468 33.7707 17.0891 33.7964 17.1219L33.9795 17.3493C34.1341 17.5442 34.2826 17.5398 34.425 17.3363C35.1899 16.2319 36.3514 15.4156 37.9097 14.8872C38.8983 14.5494 39.887 13.8478 40.7902 13.2502C41.7483 12.6135 43.0665 12.3732 43.9697 11.6391C44.6247 11.1021 44.5413 10.9007 43.7195 11.035C43.5283 11.0653 43.3635 11.1454 43.2252 11.2753C43.072 11.4175 42.874 11.4939 42.6698 11.4897ZM21.6702 11.9054C21.6051 11.9141 21.5481 11.9358 21.4993 11.9704C21.3691 12.0527 21.3589 12.148 21.4688 12.2562C21.5298 12.3169 21.597 12.3623 21.6702 12.3927C21.8085 12.4533 21.9367 12.4381 22.0547 12.3472C22.2784 12.1783 22.4778 11.9617 22.6527 11.6976C22.8114 11.4594 22.7605 11.3879 22.5002 11.4832C22.252 11.5785 22.0221 11.7019 21.8105 11.8535C21.7699 11.8838 21.7231 11.9011 21.6702 11.9054ZM19.1865 13.7875C19.1692 13.7639 19.141 13.7499 19.1033 13.7461C19.0656 13.7424 19.0192 13.7491 18.9667 13.7658C18.9143 13.7825 18.8569 13.8089 18.7977 13.8434C18.7385 13.878 18.6788 13.92 18.6219 13.9672C18.5649 14.0144 18.512 14.0657 18.466 14.1183C18.42 14.1709 18.3819 14.2237 18.3538 14.2737C18.3257 14.3238 18.3083 14.37 18.3024 14.4098C18.2966 14.4496 18.3024 14.4823 18.3196 14.5058C18.3369 14.5294 18.3651 14.5434 18.4028 14.5471C18.4405 14.5508 18.4869 14.5442 18.5394 14.5275C18.5918 14.5108 18.6493 14.4844 18.7084 14.4498C18.7676 14.4153 18.8274 14.3732 18.8843 14.3261C18.9412 14.2789 18.9942 14.2276 19.0402 14.175C19.0862 14.1224 19.1243 14.0695 19.1524 14.0195C19.1804 13.9695 19.1979 13.9233 19.2037 13.8835C19.2096 13.8436 19.2037 13.811 19.1865 13.7875ZM14.9205 16.6542C15.4576 16.2211 16.0333 15.853 16.6476 15.5498C16.8673 15.4459 16.965 15.2532 16.9406 14.9717C16.9202 14.7205 16.8307 14.688 16.672 14.8742C16.1146 15.5152 15.4352 16.0457 14.6337 16.4658C14.6317 16.4677 14.6302 16.4699 14.6291 16.4722C14.6281 16.4744 14.6276 16.4767 14.6276 16.4788L14.713 16.6152C14.77 16.7061 14.8392 16.7191 14.9205 16.6542ZM17.7524 17.1314C17.7408 17.113 17.7259 17.0971 17.7086 17.0848C17.6912 17.0725 17.6718 17.064 17.6514 17.0597C17.6309 17.0554 17.6099 17.0554 17.5895 17.0597C17.569 17.0641 17.5496 17.0727 17.5323 17.085L10.0369 22.4263C10.0019 22.4512 9.97766 22.4898 9.96948 22.5338C9.96131 22.5777 9.96989 22.6233 9.99329 22.6605L10.0747 22.7901C10.0863 22.8085 10.1012 22.8243 10.1186 22.8366C10.1359 22.849 10.1554 22.8575 10.1758 22.8618C10.1962 22.8661 10.2173 22.8661 10.2377 22.8618C10.2581 22.8574 10.2776 22.8488 10.2949 22.8365L17.7903 17.4952C17.8252 17.4703 17.8495 17.4316 17.8576 17.3877C17.8658 17.3438 17.8573 17.2982 17.8339 17.261L17.7524 17.1314ZM32.6512 17.4546C32.6169 17.4024 32.5382 17.3863 32.4323 17.41C32.3264 17.4336 32.2021 17.4951 32.0866 17.5809C32.0294 17.6233 31.9761 17.6705 31.9298 17.7196C31.8834 17.7688 31.8449 17.819 31.8165 17.8673C31.7881 17.9156 31.7702 17.9612 31.764 18.0013C31.7578 18.0415 31.7633 18.0755 31.7803 18.1014C31.8146 18.1537 31.8934 18.1697 31.9992 18.1461C32.1051 18.1224 32.2295 18.0609 32.345 17.9752C32.4022 17.9327 32.4554 17.8856 32.5018 17.8364C32.5481 17.7873 32.5866 17.7371 32.6151 17.6888C32.6435 17.6404 32.6613 17.5948 32.6675 17.5547C32.6737 17.5145 32.6682 17.4805 32.6512 17.4546ZM24.4287 23.3648C24.034 23.4947 23.7675 23.7654 23.6292 24.1768C23.5031 24.5362 23.5803 24.5947 23.8611 24.3522L25.1732 23.2218C25.3969 23.027 25.3705 22.9707 25.0938 23.0529C24.8741 23.1244 24.6423 23.2933 24.4287 23.3648ZM22.1089 25.1007C22.0892 25.0716 22.0643 25.047 22.0356 25.0281C22.007 25.0093 21.9752 24.9967 21.9419 24.9909C21.9087 24.9852 21.8747 24.9865 21.8419 24.9948C21.8092 25.003 21.7783 25.0181 21.751 25.039L18.1872 27.775C18.1321 27.8174 18.095 27.8813 18.0841 27.9527C18.0733 28.0241 18.0895 28.0972 18.1293 28.1559L18.1435 28.177C18.1632 28.2061 18.1881 28.2307 18.2168 28.2495C18.2454 28.2684 18.2772 28.281 18.3105 28.2867C18.3437 28.2925 18.3776 28.2912 18.4104 28.2829C18.4432 28.2747 18.4741 28.2596 18.5014 28.2387L22.0652 25.5027C22.1203 25.4603 22.1574 25.3964 22.1682 25.325C22.1791 25.2536 22.1629 25.1805 22.1231 25.1218L22.1089 25.1007ZM38.1782 30.8744L38.3796 30.7379C38.6725 30.5431 38.6501 30.4824 38.3125 30.556C37.5883 30.7206 36.9861 31.0996 36.506 31.6929C36.3718 31.8575 36.2131 31.9809 36.03 32.0632C33.8615 33.003 31.8984 34.2935 30.1408 35.9349C29.2315 36.7794 28.9142 37.9747 27.8279 38.5594C27.8057 38.5707 27.7861 38.587 27.7704 38.6072C27.7547 38.6274 27.7433 38.6509 27.7369 38.6762C27.7305 38.7015 27.7294 38.7279 27.7335 38.7537C27.7376 38.7795 27.7469 38.8041 27.7608 38.8257L27.8645 38.9881C27.9133 39.0574 27.9682 39.0661 28.0293 39.0141C31.044 36.4806 33.6499 34.4213 35.8469 32.8362C36.9739 32.0264 37.7225 31.3962 38.0927 30.9458C38.117 30.9199 38.1458 30.8959 38.1782 30.8744ZM27.5899 42.6325C27.5614 42.7018 27.535 42.7711 27.5106 42.8404C27.4292 43.0916 27.5044 43.1674 27.7364 43.0678C27.9479 42.9768 28.1249 42.8057 28.2673 42.5545C28.3013 42.4926 28.3189 42.4219 28.3181 42.3501C28.3174 42.2783 28.2982 42.2083 28.2629 42.1478C28.2275 42.0873 28.1773 42.0387 28.1177 42.0073C28.0582 41.9759 27.9917 41.9629 27.9255 41.9699C27.7547 41.9872 27.659 42.1366 27.6387 42.4181C27.6346 42.4961 27.6184 42.5675 27.5899 42.6325ZM25.7041 57.3984C26.4202 56.2377 27.2644 55.2005 28.2368 54.2867C28.2734 54.252 28.3019 54.2109 28.3222 54.1633C28.3588 54.055 28.2917 53.9446 28.1208 53.8319C28.0625 53.7927 27.9925 53.7783 27.9246 53.7916C27.8568 53.8048 27.7961 53.8448 27.7546 53.9034L25.3929 57.1385C25.3522 57.1948 25.3583 57.2468 25.4112 57.2944L25.5699 57.4179C25.5804 57.4261 25.5923 57.4321 25.6048 57.4355C25.6173 57.439 25.6302 57.4398 25.6427 57.438C25.6552 57.4362 25.6671 57.4318 25.6776 57.425C25.6882 57.4182 25.6972 57.4091 25.7041 57.3984Z" fill="var(--fill-0, #D7E4FE)"/>
<path id="Vector 69" d="M14.5753 29.1474L26.7214 20.6451M8.50224 21.8597L19.4337 14.5721M20.6483 42.5081C21.62 41.5364 48.9892 20.6451 58.3012 13.3575M38.8675 54.6542C41.7825 52.7108 55.4671 40.8886 61.945 35.2204L63.1596 34.0058M30.3652 17.0013L46.1551 8.49902M29.1506 41.2935L14.5753 55.8688M24.2922 59.5126L29.1506 53.4396M55.872 61.9418L64.3743 55.8688M23.0775 27.9328L7.28763 43.7227" stroke="var(--stroke-0, #D7E4FE)" stroke-width="6.07305"/>
</g>
</svg>
