<svg width="356" height="280" viewBox="0 0 356 280" fill="none" xmlns="http://www.w3.org/2000/svg">
<g clip-path="url(#clip0_188_2259)">
<rect width="355.333" height="280" fill="#A8A8E8"/>
<g clip-path="url(#clip1_188_2259)">
<rect y="-14.9321" width="355.333" height="309.865" rx="17.187" fill="#FBD772"/>
<path d="M324.594 391.517C327.056 387.442 330.095 383.677 333.408 379.855C330.971 384.017 327.904 387.877 324.594 391.517ZM324.594 391.517C324.553 391.585 324.511 391.654 324.47 391.723C324.47 391.723 324.49 391.649 324.514 391.622C324.511 391.62 324.508 391.617 324.505 391.615C324.535 391.583 324.565 391.549 324.594 391.517ZM324.467 391.676C324.433 391.699 324.398 391.724 324.364 391.746C324.406 391.699 324.447 391.651 324.488 391.603C324.481 391.627 324.474 391.652 324.467 391.676ZM329.684 123.781C330.812 123.222 331.576 122.27 332.117 121.085C333.143 119.294 332.652 116.535 332.827 114.44C333.227 109.462 333.084 104.585 332.705 99.7134C332.319 94.7157 330.98 89.6842 328.936 85.1056C328.564 84.2997 328.155 83.7438 329.604 84.0911C329.613 84.0965 329.623 84.1017 329.633 84.1071C329.635 84.1044 329.637 84.1016 329.639 84.0989C329.653 84.1025 329.668 84.1051 329.683 84.1089C329.672 84.1118 329.661 84.1146 329.651 84.1174C329.665 84.1254 329.679 84.1335 329.693 84.1415C329.682 84.1444 329.671 84.1473 329.661 84.1502C333.315 84.1779 331.741 87.3518 332.42 88.8979C333.978 92.4526 333.292 96.7049 334.76 100.181C336.324 104.055 334.402 108.03 337.161 112.839C338.869 98.6356 336.637 84.7444 330.048 73.1007C328.982 73.5136 330.352 74.2689 329.32 75C325.115 62.055 317.896 47.996 304.467 42.4841C307.475 46.4163 312.796 47.7942 315.031 52.5575C313.085 51.2833 310.826 50.4416 309.177 49.0077C304.137 44.5994 298.244 41.5422 292.648 37.98C290.651 36.7199 288.098 37.8706 286.181 36.5268C285.593 36.1176 284.421 36.1504 284.25 35.6241C283.502 33.4176 282.11 32.3932 280.483 31.8625C277.255 30.8769 273.664 30.5821 270.436 29.4858C268.435 28.804 266.422 28.1899 264.401 27.6209C256.36 25.3572 248.191 23.8076 240.158 21.5443C230.643 18.8794 221.043 16.4696 211.55 13.7431L259.516 -4.94009C258.176 -2.93303 256.818 -0.863873 255.455 1.21287C252.058 6.36105 248.111 11.8702 245.685 17.4651C242.892 23.9215 239.822 30.342 237.086 36.9023C233.342 45.8354 231.748 55.7902 225.878 64.1362C226.032 71.7647 222.47 78.7743 220.852 86.1959C217.027 103.569 213.027 121.143 210.977 139.279C208.468 161.443 207.555 184.068 207.939 206.77C208.208 221.826 209.54 236.917 211.339 251.988C211.418 252.578 211.312 253.206 211.294 253.928C210.157 253.192 210.858 251.065 209.976 250.223C209.807 252.098 209.771 254.628 210.658 255.47C212.119 256.851 212.09 258.979 212.339 260.796C213.415 269.002 214.745 277.213 216.18 285.425C216.696 288.385 217.276 291.347 217.905 294.312C220.009 304.229 222.623 314.067 225.314 323.887C228.333 334.878 231.536 345.859 235.326 356.662C239.39 368.242 244.035 379.679 249.15 390.925C242.922 376.338 237.46 361.533 232.741 346.537C232.91 346.495 233.089 346.448 233.267 346.432C239.258 363.641 245.055 381.468 253.628 397.583C253.754 397.512 253.879 397.44 254.005 397.368C250.831 389.99 247.827 382.531 245.08 375.019C244.238 372.723 243.084 370.459 242.709 368.088C243.914 368.743 244.225 371.229 245.068 372.661C245.193 372.077 244.143 370.763 244.507 370.218C244.626 370.372 244.789 370.506 244.866 370.712C247.571 377.318 250.257 383.978 252.661 390.758C253.223 392.331 253.837 393.41 254.578 394.476C256.757 397.603 259.132 403.179 259.716 406.435C260.014 408.093 259.2 407.846 258.361 407.024C257.057 405.775 256.592 406.078 256.966 408.09C257.187 409.288 256.991 409.472 256.235 408.789C254.163 406.916 254.139 407.115 256.495 412.088C253.371 407.291 253.526 409.269 252.961 410.893C252.116 413.195 252.622 418.02 247.86 413.667C247.251 413.104 245.923 413.07 245.604 414.425C245.253 415.901 244.66 417.746 242.271 416.258C241.919 416.034 241.23 415.305 240.879 414.742C237.434 409.083 236.704 410.658 236.275 411.749C235.162 414.578 232.309 414.267 228.959 413.583C227.168 413.221 225.883 413.855 224.042 413.537C222.002 413.202 218.881 408.837 216.571 405.717C212.009 399.574 208.079 392.983 204.535 386.23C202.945 383.216 201.037 380.013 199.125 377.105C195.774 372.048 194.173 366.821 191.262 361.642C190.164 359.695 189.177 358.188 187.968 356.862C188.334 353.994 185.414 350.83 184.179 347.822C182.934 344.785 181.609 341.502 179.427 338.962C177.867 337.15 178.693 335.865 177.857 333.955C174.276 325.815 171.197 317.416 168.002 309.108C167.166 306.935 166.323 304.773 165.457 302.627C163.257 297.17 161.494 291.669 160.126 286.312C155.426 267.898 149.649 249.424 146.523 230.448C145.16 222.188 144.677 213.279 141.879 204.84C140.769 201.506 140.81 197.63 140.657 193.953C140.397 187.933 140.212 182.028 139.058 175.877C137.95 169.977 139.122 163.904 138.447 157.773C137.554 149.708 137.899 141.628 138.269 133.527C138.438 129.699 138.76 125.863 136.893 122.509C135.653 120.306 138.375 120.967 138.233 118.614C137.961 114.108 138.112 109.462 138.311 104.898C138.708 95.5125 140.414 86.3458 142.836 77.3721C144.027 72.9538 144.672 68.1374 145.103 63.4739C145.395 60.2874 147.513 57.4037 146.458 54.1651C148.001 52.9894 149.969 50.8467 149.283 48.7929C148.177 45.5058 149.575 42.8678 150.197 39.815C151.409 33.8313 152.173 27.64 155.288 22.1829C156 20.9277 154.579 20.3216 155.19 18.6919C156.306 15.6485 157.383 12.1982 158.134 9.35826C160.022 2.09217 165.15 -4.11503 165.479 -12.0532C165.571 -14.737 167.859 -17.224 169.03 -19.9722C171.881 -26.6517 174.525 -33.9046 179.417 -39.5294C182.454 -42.9848 184.843 -47.0166 187.042 -50.9991L204.4 -77.5043L233.775 -69.2019C236.596 -68.661 239.434 -68.2601 242.188 -67.7273C245.848 -67.014 250.086 -65.031 253.916 -66.2818C255.165 -63.6451 260.015 -64.5014 261.359 -61.559C262.198 -59.7175 265.3 -60.017 266.819 -60.2695C272.284 -61.2092 275.683 -60.1839 280.923 -58.5132C282.899 -57.8827 284.87 -57.057 286.899 -56.3435C290.246 -55.166 293.749 -54.2943 297.693 -55.1088C299.159 -55.4124 301.184 -54.4696 303.336 -53.4242C305.431 -52.5403 307.574 -51.5578 309.564 -50.8844C312.732 -49.8287 316.699 -48.4792 318.842 -45.9962C319.539 -45.1787 320.483 -44.7128 321.605 -44.9766C326.975 -46.1635 331.042 -42.119 334.715 -39.1991C338.032 -36.5629 340.127 -33.408 344.703 -34.1346C346.172 -34.3556 348.921 -32.3574 350.423 -30.836C354.461 -26.7351 354.311 -26.7362 359.25 -24.4335C360.011 -24.0673 360.837 -23.3801 361.491 -22.7422C368.591 -15.9673 376.682 -10.006 381.863 -1.13145C385.575 5.13068 390.81 13.0557 395.432 17.7849C400.975 23.4207 402.841 30.2473 406.097 36.5362C409.972 44.0078 412.885 52.3414 414.472 60.6194C417.997 78.6933 420.866 97.3323 417.525 115.43C417.198 117.187 416.572 119.448 417.692 120.742C418.38 121.525 417.947 123.75 417.582 124.404C414.395 130.085 413.529 136.32 412.169 142.534C411.791 144.409 411.403 146.269 410.836 148.044C405.399 165.011 400.637 182.189 395.165 199.147C392.018 208.938 389.433 218.82 386.071 228.523C382.419 239.067 379.386 249.718 375.893 260.245C373.439 267.644 370.748 275.158 369.062 282.763C368.45 285.561 368.502 289.574 365.403 291.172C365.359 291.19 364.023 299.156 363.971 299.32C363.785 300.099 363.651 300.894 363.35 301.612C358.998 312.531 356.218 323.664 352.569 334.623C351.371 338.236 350.141 341.843 348.892 345.446C343.881 360.65 336.217 374.806 326.76 387.279C322.957 392.289 318.234 396.604 313.673 401.614C317.79 398.801 320.826 394.143 324.364 391.746C317.947 399.24 310.68 406.177 302.838 411.366C295.74 416.165 287.606 421.776 280.45 423.263C279.395 423.496 278.312 424.319 277.406 424.846C276.553 425.341 275.79 425.701 275.147 425.946C273.787 426.419 273.037 426.303 273.202 425.775C273.681 424.145 271.717 424.978 268.812 426.354C267.801 426.834 266.409 427.572 265.819 427.353C265.332 427.196 266.289 426.621 267.181 426.107C268.797 425.185 271.359 423.901 269.96 423.651C268.966 423.474 266.991 423.66 264.43 425.346C264.307 425.421 263.912 425.479 263.537 425.573C263.861 424.704 265.775 423.898 267.395 423.042C264.606 423.246 262.516 423.232 264.014 421.076C264.343 420.617 263.817 420.564 265.245 419.833C268.204 418.321 268.017 418.053 266.282 417.966C264.074 417.863 260.69 418.355 263.162 415.54C263.343 415.339 263.255 415.129 262.999 415.143C260.511 415.239 259.899 414.579 261.372 412.324C262.342 410.858 258.274 412.167 255.629 413.193C249.718 415.482 245.497 415.616 244.532 413.946C244.532 413.945 244.532 413.945 244.532 413.945C244.208 413.384 244.243 412.616 244.691 411.644C245.758 409.374 248.219 405.91 243.473 407.074C248.309 403.426 253.122 399.77 257.921 396.109C277.418 380.761 289.467 359.178 293.778 337.39C294.208 335.252 294.568 333.111 294.859 330.968C299.816 300.377 306.093 270.033 311.298 239.501C309.59 244.168 309.408 249.303 307.756 253.926C307.619 254.303 307.298 254.514 306.541 255.466C308.018 247.943 309.513 240.425 311.025 232.912C311.166 232.209 311.316 231.39 311.785 232.108C313.16 234.164 312.711 231.141 312.585 230.959C311.299 229.074 312.042 226.726 312.888 224.584C313.987 221.768 313.937 218.881 314.437 216.024C316.709 202.977 319.143 189.944 321.618 176.922C322.584 171.849 324.107 166.837 324.452 161.449C324.655 158.305 322.254 160.208 322.64 157.617C323.087 154.656 325.28 157.169 325.806 154.141C326.355 151 327.541 147.999 327.896 144.51C327.144 145.079 326.568 145.517 325.421 146.395C329.36 138.742 329.414 131.499 329.684 123.781ZM360.315 -19.4738C365.377 -13.6126 371.607 -9.21563 376.571 -3.38103C372.396 -9.87643 366.183 -14.6545 360.315 -19.4738ZM394.252 21.424C391.779 13.8487 386.363 7.65115 381.125 1.68498C385.73 8.08516 390.989 14.1975 394.252 21.424ZM341.999 -32.2231C330.822 -39.0064 318.762 -44.3402 306.308 -48.0706C306.27 -47.8057 306.23 -47.5411 306.191 -47.2763C318.544 -43.5669 330.505 -38.272 341.593 -31.5443C341.728 -31.7706 341.864 -31.9968 341.999 -32.2231ZM286.499 -52.4618C291.086 -51.2322 295.767 -50.3515 300.388 -49.2476C295.856 -50.7922 291.362 -52.5939 286.499 -52.4618ZM303.169 372.057C294.1 382.314 286.955 391.476 278.404 399.381C288.697 393.064 296.775 383.545 303.169 372.057ZM214.884 305.899C214.427 301.837 214.116 298.716 212.309 295.971C212.072 295.611 211.81 295.258 211.519 294.909C211.606 295.322 211.691 295.728 211.774 296.13C212.481 299.524 213.124 302.541 214.884 305.899ZM203.443 247.483C204.197 239.946 202.978 233.796 201.058 227.81C201.177 234.247 202.032 240.516 203.443 247.483ZM215.103 287.051C214.957 286.158 214.822 285.236 214.391 285.015C214.036 284.83 213.661 285.215 213.33 285.475C213.123 285.674 213.093 286.306 213.399 286.647C215.493 288.92 214.868 292.183 215.485 295.029C215.565 295.4 215.664 295.764 215.793 296.116C215.58 295.81 215.425 295.462 215.301 295.084C214.835 293.672 214.808 291.854 213.744 290.247C214.013 291.998 214.436 293.631 214.925 295.195C216.448 300.036 218.547 304.18 219.019 309.244C219.017 309.254 219.015 309.265 219.014 309.275C219.769 306.831 218.542 304.962 218.122 302.936C217.563 300.202 217.012 297.47 216.487 294.732C215.995 292.169 215.528 289.61 215.103 287.051ZM224.984 330.665C223.974 325.601 222.637 321.505 221.226 317.427C222.609 321.506 222.351 326.122 224.984 330.665ZM223.732 54.6405C223.887 54.6036 224.415 53.6005 223.957 53.1133C223.469 52.5896 222.88 52.8174 222.327 53.3873C220.391 55.398 219.97 58.248 218.132 61.7079C218.138 61.7096 218.145 61.7112 218.151 61.7129C219.231 61.1302 219.614 61.0726 219.796 60.7968C221.16 58.7843 220.628 55.1014 223.732 54.6405ZM210.18 261.947C210.73 266.407 210.714 271.099 212.493 275.298C211.669 270.877 210.888 266.385 210.18 261.947ZM209.454 255.387C209.114 251.263 209.059 247.154 207.593 243.301C208.043 247.391 207.683 251.668 209.454 255.387ZM204.964 158.023C204.718 155.602 207.058 153.644 206.532 152.548C204.759 148.818 206.725 145.18 206.907 141.613C204.995 146.815 203.446 152.193 204.964 158.023ZM206.54 230.453C206.11 227.124 208.455 224.996 207.593 221.195C204.829 223.388 206.149 227.159 206.54 230.453ZM209.857 130.486C209.857 130.328 209.84 130.168 209.837 130.036C209.588 125.583 210.588 121.316 211.594 117.027C212.029 115.218 211.347 114.085 210.466 113.849C209.423 113.568 209.438 115.326 209.242 116.292C207.898 122.476 207.957 128.832 206.752 135.1C206.374 137.065 206.844 139.274 206.955 141.328C208.482 141.525 207.761 139.776 208.098 138.86C208.97 136.562 207.911 134.933 207.825 133.013C207.708 130.403 208.323 129.871 209.857 130.486ZM223.665 68.5048C225.227 68.3135 224.241 67.7526 223.764 67.6584C223.213 67.5455 223.602 66.1117 222.596 66.675C222.478 67.2278 222.404 67.8454 222.2 68.4317C222.036 68.9482 221.974 69.6774 221.361 69.7948C221.363 69.7864 221.366 69.7781 221.368 69.7697C221.193 63.5109 226.299 58.5065 226.402 52.3161C221.825 63.8683 217.775 75.8771 215.885 88.4238C215.745 89.3308 216.005 90.2838 215.422 91.115C212.237 95.7351 212.59 101.573 211.228 106.792C210.798 108.441 211.395 109.303 212.447 110.571C212.904 104.434 213.737 98.9779 216.247 94.0034C216.639 93.2255 216.772 92.2271 216.963 91.3354C218.382 84.3406 219.8 77.4189 222.102 70.7458C222.456 69.7419 222.421 68.6444 223.665 68.5048ZM242.298 404.011C243.768 402.66 249.037 398.463 256.069 392.903C274.863 379.652 287.568 346.514 287.695 344.416C284.399 358.988 276.243 373.053 265.493 385.244C262.822 388.276 259.929 391.251 256.677 393.954C252.504 397.267 248.15 400.464 243.474 403.413C243.113 403.647 242.76 403.781 242.298 404.011ZM232.219 42.0792C235.153 34.0044 238.443 26.1706 242.027 18.6143C242.975 16.6386 244.16 14.7392 243.507 12.635C243.505 12.6415 243.501 12.6481 243.498 12.6546C242.261 13.0046 241.937 14.2761 241.433 15.3004C237.249 23.6192 233.496 32.3162 230.053 41.2223C229.62 42.3818 228.762 43.708 229.878 44.2699C231.21 44.929 231.718 43.4717 232.219 42.0792ZM223.895 313.808C226.469 322.523 228.943 331.352 231.137 340.311C227.977 331.716 225.677 322.822 223.895 313.808ZM266.097 23.6818C269.514 25.6314 273.567 25.3195 277.114 26.8947C273.914 23.9139 269.925 24.0948 266.097 23.6818ZM221.113 12.6965C219.429 10.6924 217.228 9.72643 214.259 9.53171C213.747 9.49738 213.234 9.44327 212.721 9.37046L255.695 -7.3682C254.756 -5.2597 253.328 -3.29239 251.602 -1.55369C251.173 -1.11702 250.196 -1.01592 250.863 -0.161863C251.532 0.690755 252.142 0.132 252.643 -0.697801C253.908 -2.79846 255.201 -4.85993 256.504 -6.8543L212.474 10.2959C215.353 11.0985 218.233 11.8987 221.113 12.6965ZM251.327 2.19561C247.94 4.92535 245.294 8.34508 243.575 12.4753C248.269 10.6202 248.244 5.2179 251.327 2.19561ZM243.464 12.501C243.46 12.5083 243.457 12.5156 243.453 12.5229C243.458 12.5208 243.464 12.5189 243.47 12.5168C243.468 12.5116 243.466 12.5062 243.464 12.501ZM218.105 284.417C217.906 284.472 217.706 284.527 217.507 284.582C214.412 271.696 213.424 258.441 211.978 245.368C213.518 258.404 215.561 271.432 218.105 284.417ZM212.153 140.683C211.118 161.776 209.182 183.096 210.119 204.599C210.114 204.6 210.108 204.6 210.103 204.601C209.763 204.607 209.408 204.641 209.069 204.674C208.643 183.106 209.673 161.688 212.153 140.683ZM212.04 238.847C211.873 238.848 211.694 238.879 211.515 238.91C210.409 228.37 209.638 217.873 209.19 207.34C209.368 207.349 209.563 207.383 209.755 207.363C210.191 217.865 210.95 228.335 212.04 238.847ZM327.44 162.605C326.189 168.875 323.797 174.811 324.315 181.585C325.665 175.341 327.026 169.1 328.399 162.862C328.079 162.776 327.76 162.691 327.44 162.605ZM235.537 344.446C235.837 345.711 236.576 344.714 236.648 345.942C237.013 352.015 240.172 357.146 242.041 362.66C243.06 365.648 243.181 366.855 242.694 368.028C240.323 361.664 237.708 355.32 236.305 348.703C236.036 347.393 235.379 346.868 235.067 345.757C234.584 344.015 234.944 344.014 235.537 344.446ZM242.677 368.091C242.674 368.093 242.671 368.094 242.668 368.096C242.671 368.088 242.674 368.078 242.677 368.07C242.68 368.072 242.683 368.073 242.686 368.075C242.683 368.08 242.68 368.086 242.677 368.091ZM242.677 368.07C242.674 368.069 242.67 368.067 242.667 368.066C242.672 368.063 242.678 368.06 242.683 368.058C242.681 368.062 242.679 368.066 242.677 368.07ZM242.709 368.088C242.701 368.084 242.693 368.079 242.686 368.075C242.691 368.066 242.697 368.057 242.702 368.048C242.704 368.062 242.707 368.075 242.709 368.088ZM242.683 368.058C242.687 368.048 242.69 368.037 242.694 368.028C242.697 368.034 242.7 368.042 242.702 368.048C242.696 368.052 242.689 368.055 242.683 368.058ZM301.65 41.6128C302.085 41.9586 302.896 42.4696 303.411 41.6957C303.927 40.9198 303.105 40.6646 302.525 40.3208C299.468 38.4444 296.331 36.7001 293.066 35.2196C295.203 38.5492 298.826 39.3824 301.65 41.6128ZM229.775 321.961C231.701 329.021 234.194 335.878 235.736 343.135C235.823 343.562 235.611 343.973 235.523 344.385C234.145 342.326 233.193 339.826 232.436 336.895C231.273 332.369 230.032 327.859 228.933 323.311C228.713 322.409 228.376 321.287 228.948 321.022C229.245 320.885 229.595 321.277 229.775 321.961ZM301.058 289.216C300.509 285.485 302.045 276.24 304.242 270.786C303.662 277.621 301.616 283.294 301.058 289.216ZM336.512 113.751C334.835 115.623 334.332 117.25 335.009 119.753C337.159 118.145 336.939 116.112 336.512 113.751ZM327.319 151.554C327.066 152.463 326.917 153.401 327.521 153.652C328.257 153.967 329.083 152.796 328.972 151.967C328.382 147.78 331.017 143.954 330.864 138.611C330.862 138.621 330.86 138.63 330.858 138.64C329.449 143.742 328.387 147.663 327.319 151.554ZM218.502 264.2C219.063 270.529 220.472 276.592 221.328 282.835C221.785 286.148 222.659 289.449 223.178 292.748C223.586 295.338 223.773 297.916 223.399 300.505C223.156 297.988 222.803 295.483 222.391 292.982C220.821 283.364 218.308 273.852 218.502 264.2ZM217.679 113.72C217.446 113.693 217.213 113.665 216.98 113.637C218.628 103.531 220.628 93.5644 222.999 83.7512C223.236 83.7993 223.474 83.8474 223.711 83.8955C221.337 93.6869 219.334 103.633 217.679 113.72ZM235.587 344.48C235.6 344.5 235.613 344.522 235.627 344.542C235.627 344.542 235.582 344.488 235.552 344.456C235.547 344.452 235.542 344.449 235.537 344.446C235.536 344.444 235.536 344.441 235.535 344.439C235.528 344.432 235.523 344.431 235.525 344.436C235.522 344.428 235.519 344.419 235.517 344.41C235.518 344.401 235.521 344.394 235.523 344.385C235.534 344.402 235.546 344.42 235.557 344.437C235.581 344.462 235.605 344.487 235.629 344.512C235.614 344.501 235.6 344.491 235.587 344.48ZM224.889 300.433C225.21 304.3 227.189 307.905 226.729 311.861C225.58 308.08 224.125 304.327 224.889 300.433ZM274.309 33.0484C273.496 32.8749 272.621 32.4944 272.98 31.7041C273.302 30.9457 274.143 31.1267 274.979 31.4331C276.69 32.0717 278.384 32.7045 280.088 33.3391C280.36 33.4581 280.631 33.5786 280.901 33.7006C280.896 33.699 280.89 33.6975 280.885 33.696C280.784 33.922 280.706 34.1333 280.624 34.364C280.367 34.3172 280.109 34.2722 279.849 34.2285C278.009 33.8496 276.154 33.4693 274.309 33.0484ZM235.433 47.2605C234.696 52.6766 231.663 57.2726 230.187 62.4493C230.731 56.9952 233.486 52.2018 235.433 47.2605ZM215.763 241.255C216.294 241.133 216.823 241.768 216.775 242.481C216.445 246.865 217.262 251.058 217.869 255.361C217.945 255.838 217.668 256.416 217.436 257.509C215.345 252.725 215.853 247.694 214.908 243.148C214.699 242.179 215.159 241.39 215.763 241.255ZM215.084 216.652C215.224 223.49 215.453 230.368 216.026 237.243C216.14 238.648 216.06 239.526 215.441 239.689C214.395 239.955 214.708 238.249 214.659 237.395C214.238 230.905 214.032 224.472 213.939 217.997C213.94 218.006 213.94 218.015 213.941 218.023C214.31 217.575 214.697 217.126 215.084 216.652ZM319.752 68.6012C317.968 66.1427 316.86 63.368 315.165 60.1303C317.01 61.0863 318.225 61.786 319.48 62.5444C320.314 61.1181 318.489 60.6942 318.874 59.1372C321.196 62.2964 323.504 65.1049 324.871 68.5511C326.456 72.5706 328.26 76.5537 330.2 80.4635C330.217 80.4707 330.234 80.4779 330.25 80.4851C331.089 82.2296 330.515 83.0333 329.639 84.0989C329.627 84.0959 329.615 84.0939 329.604 84.0911C327.65 82.9713 325.73 82.0784 327.434 79.4879C327.961 78.6449 326.869 78.517 326.569 78.0663C324.88 75.5187 322.278 73.6941 322.297 70.2679C322.295 69.2023 320.317 69.378 319.752 68.6012ZM213.558 197.441C215.386 204.181 215.159 210.94 213.949 217.94C213.136 211.171 213.344 204.295 213.558 197.441ZM213.939 217.997C213.942 217.978 213.945 217.958 213.949 217.94C213.951 217.958 213.953 217.976 213.955 217.995C213.95 217.995 213.944 217.996 213.939 217.997ZM217.045 141.909C217.764 143.136 219.073 143.602 218.307 145.564C215.837 151.937 217.211 158.431 216.698 164.861C216.655 165.304 216.596 165.747 216.551 166.269C215.451 165.809 216.645 164.236 215.657 163.357C215.166 166.709 214.697 169.933 215.054 173.171C215.107 173.587 215.584 174.07 215.527 174.228C214.867 175.972 215.71 179.223 214.32 179.519C212.943 179.839 213.438 176.597 213.532 175.31C213.533 175.301 213.533 175.292 213.533 175.284C214.251 164.166 214.87 153.117 217.045 141.909ZM288.79 339.864C289.48 336.43 289.498 332.966 289.686 329.582C289.946 327.183 290.318 324.781 290.946 322.377C291.173 321.519 291.162 320.006 291.814 320.003C292.416 319.987 292.333 321.267 292.152 322.285C292.156 322.286 292.161 322.288 292.165 322.289C291.716 324.821 291.27 327.354 290.826 329.888C290.34 333.226 289.662 336.558 288.79 339.864ZM296.856 286.905C298.626 282.462 297.341 277.586 298.92 273.151C298.917 273.14 298.914 273.13 298.911 273.119C299.567 271.31 299.979 269.14 301.397 267.713C300.97 274.648 299.011 280.492 298.131 286.566C298.018 287.335 297.562 288.189 297.076 287.971C296.932 287.902 296.78 287.092 296.856 286.905ZM302.884 258.367C303.457 254.995 300.963 250.979 304.903 248.569C305.37 252.13 303.576 255.086 302.884 258.367ZM305.654 245.394C305.389 240.14 307.19 236.445 307.742 232.565C307.733 236.502 307.266 240.376 305.654 245.394ZM329.598 84.1503C329.604 84.1425 329.61 84.1343 329.617 84.1265C329.588 84.1341 329.56 84.1417 329.532 84.1493C329.554 84.1489 329.576 84.1505 329.598 84.1503ZM293.73 304.876C294.585 301.225 294.448 297.1 296.456 292.721C296.781 297.785 294.823 301.379 294.517 305.266C294.504 305.411 294.159 305.821 294.092 305.744C293.931 305.582 293.703 305.106 293.738 304.908C293.735 304.897 293.733 304.887 293.73 304.876ZM299.664 49.1502C297.813 48.3174 298.166 46.0095 296.057 46.0113C296.049 46.0144 296.041 46.0175 296.032 46.0206C296.279 45.648 296.54 45.2839 296.788 44.9118C297.228 45.0756 297.695 45.1667 298.103 45.3931C303.938 48.59 309.366 52.6854 314.226 57.5299C314.806 58.1116 315.237 58.7346 314.564 59.4256C313.545 60.4789 313.029 59.6668 312.47 59.082C309.938 56.4379 306.955 54.326 304.452 51.7948C303.098 50.4186 301.201 49.8532 299.664 49.1502ZM219.489 132.178C219.477 135.576 219.78 138.4 219.106 141.286C217.027 140.064 216.935 135.572 219.489 132.178ZM224.556 106.344C225.307 108.576 224.089 110.453 223.366 112.216C223.367 112.208 223.369 112.199 223.37 112.191C221.923 115.687 221.001 119.258 221.233 123.026C219.825 117.407 221.809 111.703 222.668 106.079C222.825 105.146 223.195 104.22 224.103 104.353C225.117 104.526 224.374 105.804 224.556 106.344ZM232.893 69.6719C233.353 71.406 235.419 71.8313 233.793 73.2268C231.529 75.1785 231.536 77.652 231.478 79.8857C231.409 83.0627 228.81 84.9285 228.6 88.0875C228.314 92.1111 225.623 95.9221 225.964 100.236C226.043 101.149 225.639 102.197 224.726 101.982C223.813 101.765 224.11 100.667 224.295 99.7656C225.307 95.127 226.098 90.3756 227.716 85.9904C227.724 85.9834 227.733 85.9765 227.741 85.9695C229.632 80.807 230.365 75.4049 232.893 69.6719ZM273.316 40.4001C272.218 40.7416 272.017 40.0565 271.903 39.8152C270.797 37.6443 268.511 36.8882 266.134 37.14C263.91 37.3695 264.296 36.0368 264.208 35.5911C263.963 34.4068 265.66 34.9239 266.213 35.0715C270.394 36.0661 274.665 36.9091 278.858 37.9298C280.664 38.3388 282.39 38.9095 283.98 39.7661C286.367 41.0625 289.117 40.8503 291.295 42.3068C291.297 42.3152 291.299 42.3237 291.301 42.3321C292.988 43.4581 295.748 43.5512 295.515 46.4697C294.363 47.6718 294.922 43.5307 293.496 46.8696C293.219 47.5035 292.384 47.0957 291.881 46.8596C288.67 45.4022 285.668 43.871 282.684 41.6068C281.465 40.6886 279.964 39.925 278.315 39.9529C276.641 39.7843 274.951 39.8857 273.316 40.4001ZM240.87 47.8245C241.864 51.7424 239.272 54.581 237.907 56.9144C235.98 60.2406 236.746 63.4046 235.473 66.5437C235.189 67.2693 235.52 68.5845 234.544 68.5338C233.605 68.4969 233.505 67.2706 233.85 66.1402C233.846 66.1305 233.843 66.1208 233.839 66.1111C235.725 60.0205 236.779 53.6295 240.87 47.8245ZM238.693 29.8858C238.337 29.5567 237.218 31.2971 236.956 29.5145C236.877 28.9229 237.334 28.436 238.508 28.5887C246.325 29.5913 253.941 31.5714 261.42 34.1691C261.663 34.2559 261.73 34.7805 262.137 35.6916C255.672 34.0644 249.621 33.6519 243.621 31.6136C241.991 31.0633 240.122 31.1858 238.693 29.8858ZM226.314 27.8857C223.295 27.6584 223.641 25.3706 221.74 24.5044C226.39 23.7332 229.97 24.6348 231.839 29.2676C229.857 27.6015 227.997 28.0155 226.314 27.8857ZM259.728 14.743C259.415 15.7575 259.543 18.048 257.007 16.5034C256.394 16.1152 256.113 16.6858 256.202 17.293C256.254 17.6257 256.486 17.9195 256.632 18.2465C253.311 20.3043 253.018 24.3334 251.152 27.3696C250.836 27.9009 250.42 28.7548 249.674 28.2285C249.229 27.908 249.29 27.4397 249.582 26.8146C253.84 17.5093 258.527 8.65957 263.671 0.481011C263.683 0.48812 263.694 0.495258 263.706 0.502392C263.875 0.239104 264.268 0.113591 264.828 -0.266297C265.054 1.834 264.591 4.00752 263.325 4.91555C260.544 6.8975 260.538 10.4855 258.342 12.7376C257.861 13.2296 256.708 14.1691 258.024 14.9484C258.882 15.4599 259.413 15.1139 259.728 14.743ZM260.024 14.3125C259.959 14.4173 259.864 14.5829 259.728 14.743C259.796 14.5204 259.883 14.3585 260.024 14.3125Z" fill="#FDEEC2"/>
<path d="M130.357 460.75C129.465 456.161 129.371 451.394 129.649 446.477C130.271 451.127 130.385 455.918 130.357 460.75ZM130.357 460.75C130.371 460.827 130.386 460.905 130.402 460.982C130.402 460.982 130.368 460.915 130.367 460.88C130.363 460.88 130.36 460.881 130.356 460.881C130.356 460.838 130.356 460.794 130.357 460.75ZM130.368 460.95C130.358 460.989 130.349 461.03 130.339 461.069C130.338 461.007 130.336 460.945 130.335 460.883C130.346 460.906 130.357 460.928 130.368 460.95ZM-46.0572 231.985C-45.5023 227.65 -51.3153 224.083 -54.8397 220.605C-60.7764 214.755 -66.8041 209.194 -72.8982 203.548C-79.1158 197.79 -85.9814 192.334 -92.9494 187.496C-94.1873 186.651 -95.1964 186.119 -93.4188 185.912C-93.4036 185.914 -93.3886 185.916 -93.3734 185.919C-93.3742 185.914 -93.3754 185.91 -93.3762 185.905C-93.3586 185.904 -93.3416 185.9 -93.3234 185.898C-93.3306 185.907 -93.3377 185.915 -93.3448 185.924C-93.3225 185.927 -93.3002 185.931 -93.2779 185.935C-93.2852 185.943 -93.2925 185.952 -93.2997 185.961C-89.7943 184.319 -87.9358 188.919 -85.5751 190.497C-80.3324 193.995 -76.0057 199.581 -70.8335 202.714C-65.2567 206.125 -61.7012 212.257 -54.367 215.157C-70.1979 198.544 -86.2812 183.97 -104.031 172.164C-104.777 173.033 -102.625 173.469 -103.01 174.729C-120.206 160.233 -137.718 145.469 -158.805 139.013C-152.67 143.563 -144.635 145.044 -138.676 150.409C-142.061 149.068 -145.648 148.174 -148.784 146.521C-158.301 141.482 -168.242 137.672 -177.588 133.257C-180.829 131.727 -184.38 132.648 -187.493 131.008C-188.465 130.503 -190.19 130.397 -190.539 129.825C-192.667 126.379 -196.223 125.364 -199.744 124.751L-147.615 93.9611C-148.151 96.5044 -148.614 99.0983 -149.417 101.529C-150.181 103.839 -150.878 106.16 -151.529 108.489C-154.121 117.754 -155.996 127.137 -158.587 136.393C-162.574 150.71 -166.128 165.177 -170.515 179.353C-173.064 187.571 -176.31 196.037 -178.293 204.022C-178.307 204.082 -178.321 204.143 -178.335 204.203C-179.682 210.137 -180.858 216.095 -181.217 222.137C-181.71 230.461 -179.043 238.307 -179.879 247.093C-176.626 251.448 -175.454 256.542 -173.218 261.414C-172.453 262.95 -171.671 264.473 -170.846 265.966C-159.859 285.876 -150.175 306.425 -139.745 326.657C-126.96 351.466 -114.308 376.389 -102.038 401.457C-93.8942 418.063 -85.4624 434.541 -77.2813 451.125C-76.9525 451.772 -76.7885 452.515 -76.5008 453.338C-77.9129 452.822 -78.1409 450.214 -79.3599 449.51C-78.712 451.685 -77.6826 454.552 -76.4708 455.26C-74.4704 456.426 -73.6281 458.833 -72.6365 460.848C-71.671 462.834 -70.7042 464.82 -69.7374 466.806C-67.1658 472.369 -64.0365 477.688 -60.4091 482.721C-53.0869 492.887 -43.0842 501.247 -31.8442 507.66C-22.1435 513.2 -11.3482 517.306 0.0217828 519.22C12.207 521.277 24.9849 520.892 37.3744 518.025C21.3953 521.347 5.01773 520.567 -9.96447 516.162C-9.90553 515.998 -9.84512 515.823 -9.76035 515.667C7.5771 520.247 27.2417 521.204 44.8969 514.662C44.8431 514.528 44.7892 514.394 44.7354 514.26C36.839 516.462 28.7432 517.665 20.7686 517.793C18.3299 517.837 15.8081 518.105 13.4915 517.538C14.5437 516.682 16.9327 517.313 18.5564 517.011C18.0577 516.695 16.4756 517.208 16.1039 516.669C16.2884 516.614 16.4686 516.511 16.685 516.513C23.707 516.366 30.7851 515.633 37.9193 514.541C39.58 514.28 40.7495 513.854 41.9274 513.283C45.3763 511.642 51.1639 509.808 54.5009 509.324C56.1996 509.089 55.9112 509.895 55.0152 510.71C53.6499 511.965 53.9085 512.459 56.0147 512.155C57.2666 511.967 57.4503 512.165 56.6859 512.914C54.5784 514.925 54.7697 515.059 60.1573 512.685C54.9052 515.829 56.9538 515.665 58.6361 516.283C60.9748 517.195 66.3648 516.542 61.1344 521.526C60.457 522.151 60.252 523.522 61.7134 523.85C63.2964 524.209 65.3259 524.774 63.343 527.288C63.0426 527.659 62.1278 528.379 61.4294 528.744C54.4626 532.23 56.0238 532.938 57.2125 533.453C60.2437 534.699 59.3849 537.65 57.7596 541.116C56.8982 542.963 57.3343 544.33 56.4613 546.226C55.5093 548.355 49.2208 551.273 44.5508 553.11C35.3713 556.82 25.4514 558.972 15.4835 559.757C11.0294 560.121 6.16697 560.504 1.60436 560.815C-6.35422 561.372 -13.4247 559.817 -21.1929 558.872C-24.1222 558.512 -26.481 558.276 -28.808 558.293C-31.6721 556.067 -37.2048 555.969 -41.3149 554.506C-45.4463 553.054 -49.8145 551.29 -54.1204 550.524C-57.196 549.974 -57.7722 548.315 -60.2971 547.127C-73.9227 540.698 -86.3468 531.526 -97.5806 521.316C-103.523 515.927 -108.654 509.923 -112.914 503.679C-114.875 500.812 -116.728 497.95 -118.536 494.98C-127.966 479.672 -138.498 464.912 -147.897 449.585C-152.622 441.887 -157.016 433.275 -163.462 426.267C-166.004 423.511 -167.81 419.721 -169.702 416.285C-172.827 410.632 -175.93 405.08 -180.091 399.835C-184.086 394.798 -186.243 388.586 -190.148 383.268C-195.276 376.298 -199.5 368.805 -203.896 361.374C-205.963 357.888 -207.992 354.266 -211.516 352.419C-213.844 351.214 -211.216 350.228 -212.75 348.26C-215.698 344.483 -218.415 340.421 -221.109 336.422C-226.655 328.209 -231.215 319.617 -235.402 310.772C-237.007 307.372 -239.116 303.954 -241.353 300.752C-242.125 299.593 -242.888 298.444 -243.637 297.307C-246.093 293.583 -246.832 288.778 -250.063 285.809C-249.783 283.396 -249.818 279.613 -251.798 277.643C-254.999 274.458 -255.632 270.408 -257.034 266.303C-259.798 258.216 -262.515 249.988 -262.257 241.338C-262.194 239.367 -263.747 239.352 -263.906 236.935C-264.222 232.424 -264.556 227.426 -264.829 223.388C-265.574 212.92 -262.112 202.697 -263.005 192.256C-263.287 189.064 -261.713 185.472 -260.679 181.947C-260.586 181.638 -260.503 181.327 -260.433 181.016C-258.826 173.907 -257.846 166.426 -254.581 159.932C-250.996 152.842 -250.199 144.902 -248.689 137.461C-247.829 133.256 -245.665 128.343 -246.784 124.018C-244.073 122.493 -244.754 116.989 -241.731 115.343C-239.839 114.315 -240.024 110.786 -240.221 109.061C-240.963 102.858 -239.798 98.9397 -237.912 92.8953C-237.2 90.6147 -236.291 88.3334 -235.494 85.991C-234.177 82.1254 -233.164 78.093 -233.837 73.6219C-233.952 72.8589 -233.798 71.9516 -233.487 70.9518L-221.745 27.6232L-178.443 38.4399C-175.2 39.3496 -171.079 41.5195 -167.518 42.6609C-164.365 43.6563 -160.366 44.8751 -158.154 47.2418C-157.44 48.0208 -156.488 48.4351 -155.395 48.107C-150.141 46.6242 -146.011 50.2765 -142.152 52.7886C-138.672 55.0584 -136.333 57.8979 -131.972 56.5361C-130.564 56.118 -127.712 57.6422 -126.073 58.8681C-121.644 62.1692 -121.728 62.2214 -116.692 63.4331C-115.908 63.6294 -115.013 64.1143 -114.281 64.5871C-106.324 69.5985 -97.5432 72.9989 -90.3353 79.5495C-85.2307 84.1692 -77.8832 89.476 -72.0441 91.7619C-65.1374 94.4507 -60.8675 99.4778 -55.3569 103.21C-48.8542 107.603 -42.5578 112.77 -36.999 118.307C-24.7993 130.419 -11.5272 141.3 -1.11443 154.762C-0.108249 156.073 1.08603 157.893 2.74736 157.811C3.75329 157.753 5.07455 159.376 5.32001 160.032C8.2544 168.053 15.482 173.101 20.4403 179.504C34.0837 197.105 47.0689 215.055 58.2757 234.137C64.7265 245.102 71.2675 256.005 76.6873 267.45C81.2922 277.173 85.902 286.764 90.111 296.591C91.3015 299.37 92.448 302.141 93.5598 304.949C97.0941 313.884 100.273 323.157 104.051 331.965C105.449 335.189 108.146 339.291 106.704 342.881C106.7 342.921 110.72 351.98 110.762 352.195C111.101 353.12 111.49 354.027 111.693 354.96C114.963 369.009 119.089 382.463 121.835 396.383C125.74 416.116 127.95 436.224 129.188 456.223C129.565 462.39 129.074 468.69 129.525 475.406C130.342 470.55 129.307 465.153 130.339 461.069C130.581 470.743 130.591 480.598 129.576 489.928C129.246 492.996 129.037 496.249 128.765 499.458L127.52 516.551L116.537 521.442C111.53 523.568 106.519 525.583 102.039 526.301C100.997 526.475 99.9194 527.246 99.0278 527.744C96.1153 529.356 94.3495 529.526 94.6578 528.742C95.2986 527.019 93.0568 528.012 89.7303 529.631C88.5729 530.196 86.9738 531.053 86.3321 530.864C85.8 530.734 86.9031 530.074 87.931 529.481C89.7905 528.419 92.7291 526.918 91.1869 526.75C90.0913 526.632 87.8797 526.955 84.9159 528.873C84.7747 528.958 84.3306 529.045 83.9072 529.167C84.3253 528.244 86.5099 527.282 88.3703 526.286C85.2503 526.682 82.9238 526.804 84.7333 524.468C85.1303 523.97 84.5479 523.95 86.1861 523.097C89.5813 521.333 89.3903 521.068 87.4637 521.091C85.0123 521.129 81.2109 521.862 84.1487 518.778C84.3638 518.558 84.2796 518.345 83.9932 518.376C81.2159 518.64 80.5772 517.995 82.3659 515.558C83.5435 513.973 78.9264 515.598 75.9124 516.836C69.1788 519.601 64.4686 520.017 63.5037 518.346C63.5037 518.346 63.5036 518.346 63.5036 518.346C63.1797 517.785 63.2694 516.985 63.8318 515.947C65.1703 513.52 68.1381 509.763 62.776 511.284C74.0575 503.055 85.2351 494.797 96.3902 486.546L88.491 500.748C84.8911 476.888 79.231 453.612 72.3072 430.735C61.5874 395.503 48.2858 361.144 30.3139 329.577C32.1417 334.598 35.3691 339.073 37.0452 344.095C37.1803 344.507 37.0651 344.891 37.0775 346.185C33.8049 339.521 30.391 332.938 26.8402 326.44C26.4455 325.718 26.0493 324.997 25.6519 324.278C25.2792 323.603 24.8309 322.83 25.6737 323.107C28.1113 323.885 25.7058 321.687 25.4858 321.624C23.2319 320.938 22.1738 318.533 21.3106 316.231C20.157 313.195 18.0815 310.906 16.4167 308.299C8.78307 296.365 0.758961 284.727 -7.71893 273.503C-11.0113 269.142 -13.9995 264.417 -18.0835 260.465C-20.4699 258.162 -20.4585 261.333 -22.2942 259.272C-24.3959 256.924 -21.0029 256.889 -23.1282 254.438C-25.3268 251.91 -27.0665 248.967 -29.7338 246.411C-29.7168 247.386 -29.7014 248.134 -29.6755 249.625C-33.5673 241.486 -39.6472 236.861 -46.0572 231.985ZM-114.804 68.006C-108.864 72.5797 -101.991 75.1557 -95.8517 79.1173C-101.434 74.294 -108.294 71.3951 -114.804 68.006ZM-71.7861 95.4878C-76.7868 89.7952 -83.6649 86.2438 -90.2321 82.4083C-84.1258 86.8544 -77.3637 90.4344 -71.7861 95.4878ZM-134.37 58.7993C-146.016 53.6531 -158.121 49.1486 -170.742 45.5185C-170.777 45.784 -170.813 46.0493 -170.848 46.3147C-158.304 49.9279 -146.268 54.4076 -134.685 59.5246C-134.58 59.2828 -134.475 59.0411 -134.37 58.7993ZM-231.588 86.2999C-230.351 81.685 -229.38 76.9987 -228.294 72.3432L-217.935 34.116L-179.731 43.6592C-178.936 43.8323 -178.14 44.012 -177.345 44.1992C-178.126 43.9574 -178.906 43.7154 -179.686 43.4775L-218.068 33.89L-228.475 72.2948C-230.016 76.8675 -231.543 81.4502 -231.588 86.2999ZM101.387 460.144C101.517 475.02 103.541 487.732 104.852 500.224L104.824 500.611L104.575 500.722C103.947 501.149 103.321 501.575 102.695 502C103.386 501.686 104.074 501.367 104.76 501.042L105.174 500.858L105.221 500.212C105.876 487.202 104.154 474.173 101.387 460.144ZM-51.3141 500.694C-54.432 497.205 -56.4608 494.534 -60.1642 493.177C-57.4744 496.165 -55.1268 498.735 -51.3141 500.694ZM-86.8414 448.349C-89.3607 439.721 -93.352 433.236 -97.9911 427.277C-94.8362 434.359 -91.1961 441.008 -86.8414 448.349ZM-60.6802 484.621C-61.1952 483.911 -61.6973 483.164 -62.1735 483.161C-62.5676 483.155 -62.7454 483.657 -62.932 484.033C-63.0341 484.299 -62.7942 484.871 -62.3717 485.036C-59.1728 486.227 -58.3863 490.029 -55.8808 492.039C-57.4738 491.337 -58.3538 489.161 -60.4643 488.032C-56.1066 493.786 -50.428 496.059 -46.0015 500.932C-45.9967 500.941 -45.9918 500.95 -45.987 500.959C-46.8429 498.584 -48.8877 497.824 -50.3467 496.418C-54.1397 492.744 -57.6311 488.823 -60.6802 484.621ZM-27.2009 512.544C-31.648 509.893 -35.4175 507.904 -39.1599 505.802C-35.4695 507.907 -32.3838 511.431 -27.2009 512.544ZM-186.323 241.09C-186.204 240.99 -186.199 239.979 -186.825 239.801C-187.495 239.609 -187.916 240.049 -188.141 240.751C-188.922 243.207 -187.914 245.719 -187.69 249.301C-187.683 249.299 -187.677 249.297 -187.671 249.295C-187.056 248.287 -186.757 248.051 -186.742 247.747C-186.601 245.55 -188.851 242.864 -186.323 241.09ZM-74.2771 462.719C-73.44 464.471 -72.679 466.267 -71.8935 468.051C-70.8186 470.682 -69.537 473.228 -67.549 475.273C-69.0162 472.874 -70.3691 470.422 -71.6239 467.895C-72.5077 466.17 -73.3922 464.444 -74.2771 462.719ZM-77.6742 455.499C-79.7251 450.937 -81.5656 446.292 -84.6764 442.419C-82.4346 446.87 -80.9436 451.793 -77.6742 455.499ZM-132.707 349.724C-134.421 347.289 -133.662 343.997 -134.813 343.102C-138.711 340.053 -139.365 335.24 -141.584 331.369C-139.742 337.893 -137.643 344.311 -132.707 349.724ZM-91.5558 428.356C-93.5358 424.781 -92.3481 421.584 -95.0237 417.649C-96.5405 421.074 -93.4843 424.79 -91.5558 428.356ZM-146.633 318.078C-146.741 317.913 -146.866 317.756 -146.959 317.619C-150.198 313.173 -152.408 308.133 -154.659 303.155C-155.606 301.038 -156.967 300.302 -157.831 300.61C-158.854 300.973 -157.58 302.749 -157.049 303.85C-153.72 310.946 -149.278 317.437 -146.044 324.664C-145.033 326.924 -143.195 328.927 -141.732 331.043C-140.324 330.412 -142.095 328.955 -142.418 327.821C-143.222 324.937 -145.198 323.832 -146.569 321.884C-148.44 319.236 -148.311 318.325 -146.633 318.078ZM-179.491 251.315C-178.296 250.334 -179.408 250.483 -179.855 250.673C-180.374 250.894 -180.8 249.669 -181.345 250.608C-181.153 251.066 -180.888 251.543 -180.743 252.067C-180.604 252.521 -180.263 253.061 -180.701 253.486C-180.704 253.479 -180.706 253.472 -180.709 253.465C-184.289 249.085 -182.385 242.83 -185.01 238.108C-184.167 246.951 -181.833 255.886 -177.351 263.8C-175.855 266.43 -174.319 269.039 -172.734 271.622C-172.134 272.607 -171.204 273.364 -170.998 274.577C-169.782 281.333 -165.156 286.842 -162.365 292.993C-161.491 294.924 -160.407 295.401 -158.658 296.027C-162.763 289.532 -166.212 283.533 -168.152 276.891C-168.458 275.85 -169.135 274.757 -169.685 273.742C-171.691 270.11 -173.733 266.498 -175.733 262.866C-177.308 259.942 -178.641 256.894 -179.579 253.727C-179.834 252.841 -180.449 252.092 -179.491 251.315ZM61.6692 508.182C64.4439 505.779 78.6085 495.079 94.4069 483.111L84.5263 500.875C80.4893 474.739 71.8418 446.054 71.5456 443.343C77.595 461.844 81.7398 481.41 85.3219 500.849L94.8049 483.8C93.662 484.698 92.5228 485.599 91.3876 486.501C82.4283 493.654 73.3794 501.047 63.0178 507.484C62.6009 507.75 62.1987 507.912 61.6692 508.182ZM-183.916 227.795C-184.234 220.346 -183.432 212.885 -181.629 205.697C-181.422 204.89 -181.162 204.089 -181.014 203.293C-180.681 201.731 -180.573 200.211 -181.082 198.803C-181.084 198.812 -181.087 198.822 -181.089 198.831C-182.289 199.68 -182.498 201.35 -182.893 202.79C-182.898 202.81 -182.904 202.83 -182.909 202.849C-185.314 210.911 -186.41 219.374 -186.244 227.844C-186.21 228.948 -186.479 230.341 -185.232 230.381C-183.749 230.418 -183.857 229.086 -183.916 227.795ZM-39.4632 501.347C-32.156 506.157 -24.271 510.322 -15.9073 513.893C-24.5662 511.315 -32.5762 506.897 -39.4632 501.347ZM-155.444 106.703C-153.345 102.728 -153.506 98.1131 -151.781 94.0044C-154.913 97.7703 -154.882 102.316 -155.444 106.703ZM-168.247 158.469C-170.335 160.468 -171.394 163.016 -171.704 166.413C-172.051 170.175 -173.226 174.022 -174.915 177.526C-175.272 178.283 -176.245 178.841 -175.421 179.642C-174.596 180.443 -174.07 179.459 -173.707 178.158C-171.877 171.597 -170.057 165.034 -168.247 158.469ZM-174.553 182.467C-177.539 187.383 -179.747 192.739 -181.031 198.575C-176.438 194.603 -177.165 187.585 -174.553 182.467ZM-181.141 198.646C-181.144 198.656 -181.147 198.667 -181.15 198.678C-181.145 198.673 -181.139 198.669 -181.134 198.664C-181.136 198.658 -181.139 198.652 -181.141 198.646ZM-59.1036 480.99C-59.259 481.127 -59.4144 481.263 -59.5699 481.4C-63.3296 476.796 -66.3371 471.626 -68.7159 466.216C-72.2944 458.614 -75.7811 450.958 -79.5446 443.429C-75.7524 450.919 -71.9729 458.417 -68.2062 465.922C-65.6723 471.208 -62.6328 476.256 -59.1036 480.99ZM-137.825 327.49C-124.534 350.484 -113.452 374.64 -101.176 398.182C-101.181 398.185 -101.186 398.188 -101.19 398.191C-101.5 398.331 -101.809 398.51 -102.104 398.68C-113.932 374.879 -125.82 351.151 -137.825 327.49ZM-82.42 436.019C-82.5791 436.072 -82.7364 436.163 -82.8937 436.254C-88.7591 424.687 -94.6552 413.137 -100.582 401.605C-100.413 401.546 -100.215 401.508 -100.047 401.411C-94.1405 412.929 -88.2647 424.465 -82.42 436.019ZM-15.2693 258.928C-11.0196 264.25 -7.90829 270.279 -2.31174 274.855C-6.26161 269.249 -10.308 263.754 -14.4578 258.357C-14.7283 258.547 -14.9988 258.738 -15.2693 258.928ZM-10.1202 512.678C-8.94513 513.129 -9.34289 511.964 -8.32262 512.573C-3.2274 515.574 2.72911 515.324 8.34082 515.956C11.4122 516.289 12.5406 516.623 13.4307 517.528C6.72095 517.273 -0.0756577 516.655 -6.26464 514.342C-7.4801 513.876 -8.25279 514.144 -9.32506 513.794C-10.9948 513.233 -10.7873 512.928 -10.1202 512.678ZM13.4823 517.569C13.4825 517.573 13.4827 517.576 13.4829 517.579C13.4769 517.573 13.4692 517.567 13.4632 517.561C13.4656 517.559 13.4682 517.557 13.4705 517.555C13.4745 517.56 13.4784 517.565 13.4823 517.569ZM13.4632 517.561C13.4603 517.563 13.4577 517.566 13.4549 517.568C13.4545 517.562 13.4542 517.557 13.4539 517.551C13.4571 517.554 13.4599 517.557 13.4632 517.561ZM13.4915 517.538C13.4847 517.544 13.4771 517.549 13.4705 517.555C13.4646 517.546 13.4586 517.538 13.4526 517.529C13.4656 517.532 13.4786 517.535 13.4915 517.538ZM13.4539 517.551C13.4466 517.543 13.438 517.536 13.4307 517.528C13.4379 517.529 13.4454 517.529 13.4526 517.529C13.453 517.536 13.4535 517.544 13.4539 517.551ZM-163.185 137.928C-162.42 138.334 -161.03 138.944 -160.658 138.091C-160.287 137.237 -161.551 136.926 -162.508 136.522C-167.599 134.316 -172.696 132.192 -177.792 130.321C-173.759 134.094 -168.138 135.318 -163.185 137.928ZM-30.0385 503.149C-24.0685 506.613 -17.5842 508.984 -11.046 511.782C-10.6634 511.949 -10.4555 512.354 -10.1762 512.656C-12.5684 512.655 -15.0927 511.984 -17.7694 510.804C-21.8951 508.978 -25.9241 506.995 -29.7237 504.676C-30.4803 504.219 -31.4534 503.679 -31.226 503.09C-31.1071 502.785 -30.6106 502.81 -30.0385 503.149ZM53.035 379.431C50.4696 376.312 46.355 367.116 44.7874 360.979C48.4751 367.394 50.1221 373.702 53.035 379.431ZM-53.6544 216.679C-52.3561 220.111 -50.6174 222.32 -47.2548 224.278C-48.1579 220.642 -50.5912 218.851 -53.6544 216.679ZM-24.2976 251.515C-23.7121 252.319 -23.0422 253.063 -22.4659 252.753C-21.7549 252.382 -22.2018 250.94 -22.9477 250.475C-26.7325 248.149 -28.3024 243.513 -32.8703 240.211C-32.8636 240.219 -32.857 240.227 -32.8503 240.234C-29.4117 244.644 -26.8239 248.072 -24.2976 251.515ZM-65.213 463.182C-65.0959 463.452 -64.9779 463.721 -64.859 463.989C-62.8263 469.089 -59.7992 473.598 -56.8527 478.206C-53.8882 482.807 -49.5985 486.372 -47.3305 491.458C-54.2344 482.819 -62.052 474.533 -64.9278 464.029C-65.0244 463.747 -65.1194 463.465 -65.213 463.182ZM-152.249 295.98C-152.453 296.097 -152.656 296.214 -152.859 296.332C-158.955 284.873 -165.085 273.433 -171.247 262.012C-171.037 261.891 -170.827 261.77 -170.618 261.649C-164.461 273.073 -158.339 284.517 -152.249 295.98ZM-10.065 512.656C-10.042 512.656 -10.0171 512.657 -9.99405 512.657C-9.99402 512.657 -10.0618 512.664 -10.1037 512.672C-10.1094 512.674 -10.1145 512.676 -10.1202 512.678C-10.1222 512.678 -10.1242 512.677 -10.1262 512.676C-10.1356 512.679 -10.1393 512.681 -10.134 512.683C-10.1425 512.68 -10.151 512.678 -10.1594 512.675C-10.1654 512.669 -10.1704 512.663 -10.1762 512.656C-10.1561 512.656 -10.1359 512.657 -10.1158 512.656C-10.083 512.651 -10.0501 512.645 -10.0173 512.639C-10.0336 512.644 -10.0491 512.651 -10.065 512.656ZM-46.1613 490.542C-43.9492 493.376 -40.4658 494.865 -38.5072 498.057C-41.5777 496.039 -44.8209 494.018 -46.1613 490.542ZM-145.671 96.9729C-145.877 97.9068 -146.295 98.9208 -147.079 98.5403C-147.833 98.2019 -147.618 97.2354 -147.277 96.2693C-147.034 95.5931 -146.792 94.9192 -146.551 94.2463L-200.008 125.821C-198.591 126.334 -197.171 126.868 -195.729 127.427C-195.737 127.425 -195.745 127.423 -195.753 127.421C-195.869 127.642 -195.954 127.852 -196.044 128.081C-197.487 127.78 -198.931 127.509 -200.358 127.241L-145.138 94.6248C-145.312 95.408 -145.489 96.1912 -145.671 96.9729ZM-178.957 230.689C-177.501 234.959 -178.216 239.469 -177.009 243.792C-179.156 239.735 -178.8 235.045 -178.957 230.689ZM-77.7444 437.618C-77.2902 437.318 -76.4908 437.884 -76.2141 438.714C-74.5578 443.807 -71.9116 448.405 -69.4992 453.176C-69.2239 453.702 -69.2487 454.44 -69.0188 455.752C-73.0457 450.848 -74.7657 444.916 -77.7112 440.034C-78.348 438.994 -78.2636 437.956 -77.7444 437.618ZM-90.2778 409.848C-86.6572 417.537 -83.0803 425.29 -79.3421 432.948C-78.577 434.523 -78.2512 435.552 -78.7701 435.928C-79.653 436.551 -80.1358 434.509 -80.5815 433.549C-83.9831 426.305 -87.3087 419.055 -90.6654 411.785C-90.6605 411.795 -90.6555 411.805 -90.6505 411.815C-90.5311 411.175 -90.3977 410.526 -90.2778 409.848ZM-119.869 169.431C-124.301 166.681 -128.188 163.332 -132.967 159.531C-129.775 160.527 -127.721 161.178 -125.526 161.911C-125.665 160.025 -128.274 159.799 -128.994 157.857C-123.649 161.339 -118.563 164.275 -113.897 168.169C-108.495 172.69 -102.605 177.103 -96.6684 181.125C-96.6445 181.127 -96.6207 181.129 -96.5967 181.131C-93.9783 182.929 -93.6927 184.165 -93.3762 185.905C-93.3908 185.907 -93.4045 185.91 -93.4188 185.912C-96.4953 185.397 -99.5002 184.959 -100.464 181.02C-100.796 179.756 -102.059 180.005 -102.843 179.539C-107.205 176.948 -112.052 175.31 -115.285 170.965C-116.269 169.637 -118.455 170.306 -119.869 169.431ZM-101.892 388.817C-96.518 395.58 -93.1028 403.361 -90.6855 411.717C-94.882 404.35 -98.3213 396.545 -101.892 388.817ZM-90.6654 411.785C-90.6719 411.763 -90.6789 411.74 -90.6855 411.717C-90.6742 411.737 -90.663 411.757 -90.6517 411.777C-90.6563 411.78 -90.6609 411.783 -90.6654 411.785ZM-132.916 326.101C-131.487 327.026 -130.07 326.818 -129.398 329.359C-127.237 337.547 -121.875 343.889 -118.275 351.247C-118.035 351.755 -117.81 352.272 -117.524 352.868C-118.768 352.901 -118.711 350.585 -120.125 350.108C-118.436 354.041 -116.893 357.754 -114.599 361.186C-114.299 361.621 -113.585 361.932 -113.539 362.134C-113.065 364.371 -110.384 367.579 -111.451 368.538C-112.487 369.517 -113.959 365.724 -114.652 364.26C-114.657 364.25 -114.662 364.24 -114.668 364.23C-120.698 351.655 -127.19 339.308 -132.916 326.101ZM69.629 437.028C67.3235 429.809 63.8723 423.283 62.0363 415.798C61.8117 414.863 61.0514 413.434 61.6179 413.104C62.1356 412.788 62.7003 414.044 63.0463 415.111C63.0505 415.11 63.0547 415.109 63.0588 415.108C65.4145 422.351 67.607 429.66 69.629 437.028ZM48.225 379.707C47.1597 374.676 43.2612 371.074 41.9014 366.236C41.8925 366.228 41.8837 366.22 41.8749 366.212C41.3293 364.231 40.3545 362.086 40.6232 359.979C44.5096 366.319 46.3514 372.692 49.0905 378.678C49.4365 379.439 49.5423 380.47 49.0136 380.546C48.8553 380.565 48.2681 379.918 48.225 379.707ZM36.0291 350.961C34.3609 347.692 29.8574 345.866 31.3695 341.34C34.0347 344.049 34.5193 347.714 36.0291 350.961ZM29.8868 338.183C26.8035 334.589 25.5476 331.016 23.8869 327.834C23.5908 327.268 23.2818 326.716 22.9471 326.18C23.3582 326.681 23.7597 327.188 24.1522 327.709C26.2946 330.547 28.1682 333.749 29.8868 338.183ZM-93.3597 185.989C-93.362 185.976 -93.3653 185.963 -93.3676 185.951C-93.3865 185.973 -93.4055 185.995 -93.4244 186.018C-93.4035 186.007 -93.3805 185.999 -93.3597 185.989ZM55.4802 397.887C54.2697 394.041 51.924 390.316 51.1685 385.213C54.2661 389.662 54.5582 394.062 56.3594 397.832C56.4252 397.974 56.3485 398.539 56.2498 398.503C56.0262 398.436 55.5793 398.115 55.5041 397.913C55.4961 397.904 55.4882 397.896 55.4802 397.887ZM-162.388 146.407C-165.68 145.271 -166.222 142.687 -169.429 142.482C-169.44 142.485 -169.451 142.488 -169.462 142.49C-169.258 142.093 -169.027 141.706 -168.822 141.308C-168.083 141.535 -167.332 141.683 -166.629 141.968C-156.431 146.071 -146.261 150.966 -136.212 156.436C-135.015 157.091 -133.976 157.805 -134.314 158.722C-134.821 160.121 -136.16 159.158 -137.362 158.479C-142.813 155.407 -148.54 152.859 -153.744 149.782C-156.593 148.094 -159.678 147.349 -162.388 146.407ZM-137.581 314.297C-135.207 317.949 -133.023 320.798 -131.62 324.287C-134.192 324.098 -137.281 319.413 -137.581 314.297ZM-152.416 283.939C-150.137 285.781 -149.669 288.517 -148.917 290.823C-148.922 290.813 -148.927 290.803 -148.932 290.793C-147.43 295.405 -145.58 299.664 -142.665 303.536C-147.832 298.453 -150.468 291.262 -154.067 284.893C-154.654 283.824 -155.079 282.622 -154.284 282.163C-153.377 281.677 -152.966 283.496 -152.416 283.939ZM-171.188 247.171C-169.938 248.018 -168.01 247.163 -168.664 248.863C-169.559 251.246 -168.236 252.751 -167.091 254.051C-166.266 254.981 -166.114 256.083 -165.944 257.214C-165.41 258.969 -164.893 260.734 -163.7 262.411C-160.661 266.706 -159.633 272.467 -156.042 276.672C-155.275 277.56 -154.776 278.908 -155.635 279.29C-156.494 279.672 -157.108 278.353 -157.665 277.304C-160.491 271.859 -163.653 266.493 -166.036 260.906C-166.035 260.893 -166.035 260.88 -166.035 260.867C-166.447 259.907 -166.883 258.96 -167.337 258.019C-168.764 254.641 -170.579 251.352 -171.188 247.171ZM-138.282 97.8272C-137.979 99.0677 -138.679 99.3238 -138.927 99.4622C-141.161 100.808 -142.012 103.445 -141.848 106.15C-141.7 108.68 -143.032 108.289 -143.485 108.407C-144.691 108.732 -144.104 106.774 -143.934 106.137C-143.091 102.651 -142.327 99.1145 -141.517 95.5951L-201.256 130.881C-197.509 131.62 -193.682 132.619 -190.1 134.156C-186.143 135.858 -181.971 135.992 -178.191 137.828C-178.185 137.838 -178.179 137.847 -178.173 137.857C-175.164 139.311 -171.031 139.662 -170.049 142.946C-171.293 144.177 -172.249 139.569 -172.991 143.171C-173.138 143.856 -174.631 143.29 -175.519 142.96C-181.217 140.891 -186.532 138.759 -191.692 135.925C-194.682 134.276 -198.505 132.897 -201.991 133.858L-138.554 96.3889C-138.49 96.8726 -138.4 97.3525 -138.282 97.8272ZM-173.739 229.222C-171.324 231.627 -172.517 234.445 -172.729 236.59C-173.017 239.605 -170.889 241.376 -170.511 243.918C-170.412 244.509 -169.501 245.151 -170.352 245.614C-171.165 246.068 -171.852 245.342 -172.094 244.455C-172.102 244.451 -172.11 244.447 -172.118 244.443C-173.403 239.675 -175.276 234.725 -173.739 229.222ZM-150.216 137.75C-150.562 138.169 -148.847 139.379 -150.657 139.746C-151.258 139.858 -151.732 139.355 -151.534 138.01C-150.224 129.048 -147.935 120.279 -145.028 111.643C-144.931 111.362 -144.398 111.266 -143.462 110.767C-145.351 118.209 -145.997 125.132 -148.284 132.058C-148.902 133.939 -148.849 136.069 -150.216 137.75ZM-152.706 151.956C-153.05 155.411 -155.348 155.103 -156.295 157.305C-156.898 152.027 -155.851 147.906 -151.101 145.597C-152.859 147.923 -152.511 150.03 -152.706 151.956ZM-164.224 195.533C-164.43 197.045 -164.064 200.106 -166.833 199C-167.505 198.718 -167.73 199.578 -167.58 200.369C-167.495 200.801 -167.229 201.112 -167.048 201.501C-168.223 202.976 -168.966 204.634 -169.522 206.372C-170.132 208.06 -170.08 209.939 -170.704 211.614C-170.866 212.072 -171.031 212.791 -171.888 212.502C-172.401 212.323 -172.47 211.947 -172.356 211.412C-171.983 209.58 -171.537 207.765 -171.019 205.971C-168.072 195.444 -165.165 184.916 -162.272 174.365C-162.259 174.368 -162.246 174.372 -162.233 174.375C-162.108 173.931 -161.729 173.554 -161.226 172.734C-160.602 175.46 -160.709 178.672 -161.858 180.513C-164.397 184.609 -163.875 189.354 -165.882 193.388C-166.318 194.26 -167.395 195.985 -165.955 196.507C-165.016 196.854 -164.507 196.169 -164.224 195.533ZM-163.967 194.822C-164.022 194.992 -164.102 195.258 -164.224 195.533C-164.178 195.201 -164.107 194.944 -163.967 194.822Z" fill="#FDEEC2"/>
<path d="M157.881 249.643C163.304 249.673 168.766 250.504 174.335 251.708C168.888 251.439 163.393 250.624 157.881 249.643ZM157.881 249.643C157.79 249.642 157.698 249.641 157.607 249.641C157.607 249.641 157.691 249.621 157.731 249.627C157.731 249.624 157.732 249.62 157.732 249.616C157.782 249.625 157.832 249.634 157.881 249.643ZM157.65 249.615C157.608 249.597 157.563 249.58 157.52 249.563C157.591 249.574 157.663 249.584 157.734 249.595C157.706 249.602 157.678 249.608 157.65 249.615ZM327.941 75.9888C330.085 72.5747 325.974 68.5448 323.696 65.3137C319.887 59.8117 315.394 54.9607 310.478 50.5905C305.438 46.1027 299.405 42.6029 293.122 40.3731C292.008 39.9895 291.125 39.8449 292.552 39.0815C292.565 39.079 292.577 39.076 292.59 39.0735C292.589 39.0698 292.587 39.0661 292.586 39.0623C292.6 39.055 292.614 39.0465 292.628 39.0391C292.624 39.049 292.619 39.0588 292.614 39.0687C292.633 39.065 292.652 39.0613 292.67 39.0576C292.665 39.0677 292.66 39.0778 292.655 39.0879C295.37 36.4834 297.521 40.2014 299.583 41.0443C304.349 42.9624 308.056 47.304 312.406 49.6127C317.202 52.2241 319.447 57.5413 325.513 60.6082C314.692 44.5748 298.762 33.7236 281.066 30.51C280.719 31.5976 282.583 31.1104 282.605 32.4043C281.922 32.1662 281.234 31.934 280.539 31.7082C253.432 23.4692 227.026 13.6375 198.899 9.40602C208.46 13.4656 219.113 13.7473 228.819 18.0084C224.04 17.3078 219.151 17.0147 214.508 15.8045C200.438 12.1143 186.124 9.03743 172.315 4.52115C167.493 2.94345 162.882 3.8374 158.141 1.95813C156.703 1.39028 154.259 1.16646 153.67 0.54749C148.007 -5.30774 138.901 -5.28021 131.109 -7.78214C128.412 -8.65036 125.706 -9.45032 122.992 -10.2048C112.196 -13.2066 101.294 -15.4889 90.508 -18.4897C73.826 -23.11 56.9888 -27.2997 40.4534 -32.3192C30.754 -35.2691 20.7328 -38.9506 11.3441 -41.2806C0.536436 -43.9487 -10.0833 -47.169 -20.6141 -50.2776C-24.6233 -51.4682 -28.7034 -52.523 -32.787 -53.5854C-39.6352 -55.3285 -46.3104 -56.1296 -53.1747 -58.5808C-60.3479 -56.3862 -67.877 -57.113 -75.1572 -54.9911C-91.9343 -50.1696 -108.155 -40.5022 -119.099 -25.7596C-124.172 -18.9427 -128.198 -11.2736 -131.015 -2.94733C-136.771 15.1612 -142.615 33.2444 -148.581 51.2695L-153.121 25.3148C-152.577 26.217 -152.024 27.1204 -151.464 28.0249C-141.289 44.416 -128.816 59.8942 -115.21 74.5321C-114.671 75.0993 -114.26 75.8049 -113.695 76.5595C-115.273 76.4029 -116.359 73.8395 -117.797 73.4239C-116.45 75.4646 -114.452 78.0922 -113 78.4902C-110.602 79.1527 -108.95 81.3046 -107.222 83.0484C-99.5562 90.8658 -91.4834 98.3682 -83.1475 105.657C-70.0049 117.141 -55.6464 127.434 -40.9735 137.212C-28.2993 145.645 -15.2442 153.675 -1.73421 160.878C12.7595 168.603 27.8212 175.518 43.2178 181.63C23.5954 173.441 4.64782 164.036 -13.5209 153.455C-13.4121 153.316 -13.299 153.168 -13.1583 153.048C8.19557 164.848 30.3817 176.528 53.6422 184.293C53.6849 184.155 53.7277 184.017 53.7704 183.879C43.7862 179.845 33.9322 175.498 24.3231 170.807C21.368 169.369 18.1856 168.139 15.6086 166.333C17.2868 166.157 19.9338 168.099 22.0497 168.803C21.6011 168.227 19.4168 167.747 19.2181 167.057C19.4713 167.116 19.7426 167.131 20.0075 167.26C28.7117 171.256 37.4884 175.189 46.1771 179.286C48.1966 180.234 49.7872 180.735 51.4844 181.145C56.4414 182.342 63.9888 185.362 67.6745 187.601C69.5537 188.743 68.5819 189.066 67.0319 188.943C64.6479 188.771 64.5265 189.313 66.8162 190.694C68.1779 191.515 68.1816 191.789 66.8396 191.725C63.167 191.54 63.3231 191.727 70.2881 194.207C62.8043 192.359 64.884 193.844 65.948 195.514C67.4261 197.906 72.5822 201.453 64.0704 201.014C62.9799 200.951 61.7554 201.773 62.7852 203.068C63.9012 204.48 65.1596 206.343 61.5791 206.678C61.0454 206.723 59.7221 206.577 58.865 206.347C50.3092 203.968 51.1831 205.691 51.8534 206.856C53.597 209.862 50.7477 211.428 47.0977 212.995C45.1531 213.836 44.6195 215.169 42.6788 216.075C40.5328 217.095 33.5508 215.479 28.5015 214.326C18.5604 212.079 8.74722 208.926 -0.786214 205.291C-5.08363 203.659 -9.75822 202.062 -14.2205 200.664C-21.9487 198.27 -28.2654 194.606 -35.6848 191.682C-38.4682 190.588 -40.73 189.819 -43.034 189.328C-45.4015 186.513 -50.8776 185.361 -54.7537 183.311C-58.637 181.26 -62.8476 178.977 -67.071 177.877C-70.0763 177.101 -70.565 175.402 -73.0342 174.093C-86.3627 167.044 -99.1871 158.846 -111.988 150.867C-118.767 146.64 -125.049 142.113 -130.899 137.36C-150.896 121.101 -171.283 104.354 -188.647 84.2223C-194.548 77.3707 -200.146 69.6446 -206.282 62.3265L-215.42 47.5073L-211.149 34.5044C-210.76 32.1168 -210.459 29.714 -210.287 27.298C-209.98 22.9698 -208.398 18.3463 -207.139 13.9552C-205.076 6.72044 -203.073 -0.411315 -202.024 -8.1164C-201.42 -12.5313 -200.064 -16.7874 -198.79 -21.1078C-197.683 -24.9455 -196.484 -28.7162 -195.412 -32.6302C-191.94 -45.3285 -185.793 -57.2966 -178.362 -68.2966C-174.871 -73.4933 -170.904 -78.4299 -169.064 -83.7639C-167.833 -87.2897 -166.259 -84.9162 -163.901 -87.933C-159.317 -93.7286 -153.902 -99.1058 -148.207 -104.002C-136.498 -114.093 -122.846 -121.46 -108.43 -126.241C-101.415 -128.575 -93.846 -131.226 -86.629 -133.434C-81.6636 -134.964 -76.08 -134.48 -71.6557 -136.823C-69.0752 -135.919 -64.8515 -134.927 -61.9716 -136.272C-57.2993 -138.449 -52.5684 -137.862 -47.5168 -137.926C-37.5499 -138.055 -27.4565 -137.831 -18.0297 -134.431C-15.8904 -133.652 -15.3342 -135.108 -12.621 -134.355C-12.1673 -134.229 -11.7089 -134.102 -11.2471 -133.974C-7.79207 -133.001 -4.04384 -132.133 -0.941172 -131.561C7.81067 -129.968 15.9661 -125.258 25.0618 -125.839C28.1383 -126.05 31.4629 -124.072 34.8313 -123.298C43.0988 -121.381 51.7703 -120.081 59.397 -116.513C67.7245 -112.596 76.9178 -111.463 85.5653 -109.63C90.4516 -108.588 96.2087 -106.198 101.153 -107.15C103.024 -104.347 109.345 -104.808 111.369 -101.684C112.633 -99.7288 116.698 -99.7703 118.679 -99.899C125.805 -100.394 130.374 -99.0548 137.425 -96.8987C140.085 -96.085 142.755 -95.0722 145.49 -94.1692C150.004 -92.6791 154.698 -91.4884 159.829 -91.9849C163.052 -92.2985 168.68 -88.8341 173.506 -87.4184C176.639 -86.505 180.543 -85.5055 182.888 -83.2839C183.645 -82.5502 184.624 -82.1989 185.686 -82.605C190.755 -84.4699 195.136 -81.2438 199.277 -79.2015C202.958 -77.3687 205.816 -74.8376 209.928 -76.838C211.248 -77.4628 214.34 -76.3978 216.196 -75.4637C221.208 -72.9619 221.113 -72.9062 226.414 -72.6711C227.238 -72.6308 228.231 -72.333 229.061 -72.0182C238.07 -68.7156 247.678 -67.5048 256.726 -63.1628C263.171 -60.0775 272.251 -57.1865 278.776 -56.9232C286.518 -56.6015 292.564 -53.3637 299.402 -51.8953C300.513 -51.6581 301.626 -51.41 302.741 -51.1514C312.258 -48.8623 321.738 -45.2019 330.271 -40.4857C351.94 -28.6197 372.438 -13.34 385.891 7.22416C387.201 9.22433 388.69 11.9451 390.616 12.5024C391.791 12.8247 393.368 15.419 393.649 16.3505C397.095 27.645 404.442 37.6267 408.176 48.7941C418.358 78.8228 419.528 112.148 410.482 142.146C410.409 142.383 410.336 142.62 410.263 142.856C406.209 156.034 402.722 169.284 398.454 182.366C396.658 187.87 394.958 193.388 393.288 198.907L387.315 217.056L373.29 222.501C363.86 226.464 354.372 230.013 344.76 232.995C333.731 236.417 322.364 239.167 311.424 242.334C307.419 243.512 302.147 245.889 298.247 244.113C298.191 244.125 286.94 247.279 286.665 247.287C285.52 247.533 284.405 247.825 283.283 247.928C266.392 249.693 249.997 252.002 233.427 252.608C209.894 253.479 186.398 252.064 163.29 249.384C156.171 248.553 149.073 246.811 141.336 245.881C146.693 247.675 153.074 247.745 157.52 249.563C146.432 247.89 135.21 245.877 124.793 242.915C115.284 240.26 104.077 237.964 96.6794 233.905C95.5723 233.311 93.9654 233.121 92.7614 232.861C88.8238 231.993 87.0617 230.848 87.9537 230.506C89.8779 229.715 87.0373 228.86 82.7495 227.625C81.2605 227.199 79.1434 226.648 78.7125 226.048C78.3353 225.57 79.8475 225.906 81.2376 226.226C83.7373 226.813 87.5942 227.827 86.3133 226.609C85.3989 225.741 83.1552 224.408 78.9986 223.617C78.8049 223.575 78.3389 223.314 77.8636 223.092C78.9623 222.747 81.6699 223.649 84.1141 224.267C80.9986 222.317 78.8397 220.717 82.2624 220.366C83.0013 220.296 82.4981 219.867 84.6155 220.429C89.0199 221.588 89.056 221.249 87.3028 219.903C85.0601 218.189 81.1654 215.996 86.115 215.888C86.4733 215.883 86.5607 215.671 86.2842 215.49C83.6315 213.701 83.5789 212.789 86.9965 212.314C89.2269 212.009 83.9579 209.917 80.3967 208.608C72.4461 205.697 68.1704 202.436 68.6681 200.581C68.6681 200.581 68.6682 200.581 68.6682 200.581C68.8359 199.955 69.538 199.473 70.8163 199.172C73.8333 198.49 79.1704 198.023 73.5468 195.168C117.544 202.32 161.303 202.657 204.219 198.158C246.728 193.626 288.748 184.749 325.926 167.75C320.184 169.4 314.756 172.434 308.919 173.794C308.442 173.903 308.034 173.762 306.589 173.686C315.381 170.529 323.974 167.038 332.294 163.199C333.076 162.839 333.971 162.402 333.574 163.252C332.448 165.711 335.128 163.32 335.216 163.097C336.203 160.825 338.936 159.795 341.526 158.935C342.377 158.649 343.18 158.302 343.95 157.917L324.769 180.548C325.433 177.7 325.683 174.852 326.249 171.999C329.524 155.427 332.948 138.858 336.414 122.3C336.517 121.737 336.613 121.176 336.702 120.616C337.436 116.038 338.321 111.397 337.539 106.682C337.058 103.95 335.142 106.003 334.914 103.789C334.608 101.281 337.382 102.863 337.064 100.207C336.708 97.4688 336.853 94.6479 335.878 91.7563C335.393 92.4729 335.021 93.019 334.256 94.0777C335.245 86.7721 331.82 81.0717 327.941 75.9888ZM229.287 -68.5592C236.275 -65.278 243.856 -64.3575 251.121 -62.1116C244.158 -65.3361 236.577 -66.5562 229.287 -68.5592ZM280.394 -53.4668C273.377 -57.2348 265.42 -58.5349 257.703 -60.4312C265.149 -57.8199 273.045 -56.4402 280.394 -53.4668ZM207.883 -74.2458C195.388 -77.685 182.886 -81.099 170.377 -84.4876C170.346 -84.2218 170.313 -83.9562 170.282 -83.6905C182.754 -80.3123 195.219 -76.9095 207.678 -73.4821C207.747 -73.7367 207.815 -73.9912 207.883 -74.2458ZM145.295 -90.2329C151.448 -88.5836 157.695 -87.2833 163.882 -85.7596C157.774 -87.7265 151.696 -89.9529 145.295 -90.2329ZM164.5 221.333C146.399 218.385 130.638 217.791 115.263 216.211C130.817 220.148 146.892 221.306 164.5 221.333ZM-66.2803 126.261C-70.8078 122.169 -74.1021 119.062 -78.913 117.553C-74.7771 120.888 -71.3099 123.802 -66.2803 126.261ZM-125.633 73.9979C-130.93 65.7049 -136.657 59.7993 -142.76 54.3002C-137.897 61.1916 -132.357 67.4361 -125.633 73.9979ZM-82.6643 107.861C-83.569 107.062 -84.4846 106.225 -85.0478 106.246C-85.5143 106.261 -85.5057 106.849 -85.5656 107.291C-85.5724 107.601 -85.0507 108.243 -84.4898 108.409C-80.1961 109.645 -77.8276 113.985 -74.1604 116.322C-76.3015 115.491 -78.132 112.992 -81.0582 111.758C-73.7946 118.177 -66.2416 121.073 -59.6999 127.099C-59.6922 127.11 -59.6845 127.121 -59.6767 127.131C-61.2141 124.378 -63.9606 123.283 -66.1142 121.585C-71.7594 117.12 -77.3041 112.586 -82.6643 107.861ZM-35.0358 143.661C-40.5792 139.6 -45.4787 136.568 -50.4066 133.556C-45.5034 136.585 -41.513 141.027 -35.0358 143.661ZM-44.2776 -62.8242C-44.209 -62.6801 -43.0843 -62.3385 -42.6728 -62.8703C-42.2263 -63.4386 -42.5639 -63.9846 -43.2637 -64.4309C-45.7195 -65.9854 -48.8479 -65.8415 -52.8973 -66.6946C-52.8973 -66.6881 -52.8972 -66.6816 -52.8971 -66.6751C-51.9942 -65.7882 -51.836 -65.4302 -51.5037 -65.324C-49.1242 -64.5315 -45.3597 -65.8044 -44.2776 -62.8242ZM-108.138 85.3898C-103.981 89.6656 -100.12 94.3836 -94.9885 97.6433C-99.4828 93.6378 -103.861 89.559 -108.138 85.3898ZM-114.107 79.0459C-117.731 74.9745 -121.05 70.7182 -125.313 67.4466C-121.748 71.4957 -118.641 76.1549 -114.107 79.0459ZM-132.607 -10.7181C-131.993 -13.2285 -129.036 -14.3106 -129.094 -15.5492C-129.218 -19.8932 -125.778 -22.5075 -123.825 -25.6746C-128.115 -21.8505 -131.994 -17.0869 -132.607 -10.7181ZM-136.02 54.3718C-138.861 51.0323 -138.4 47.541 -141.844 43.9045C-142.722 47.6204 -138.809 51.0603 -136.02 54.3718ZM-115.215 -33.8497C-115.121 -33.9821 -115.039 -34.1259 -114.962 -34.2378C-112.524 -38.0687 -108.868 -40.9075 -105.154 -43.3872C-103.572 -44.4313 -103.233 -45.7205 -103.685 -46.5168C-104.22 -47.4587 -105.515 -46.1442 -106.351 -45.5446C-111.823 -41.7638 -115.916 -36.4921 -120.478 -31.603C-121.92 -30.0579 -122.69 -27.8545 -123.639 -25.912C-122.403 -24.9971 -122.145 -26.937 -121.372 -27.5762C-119.425 -29.1602 -119.426 -31.1268 -118.381 -32.8435C-116.946 -35.1697 -116.092 -35.2498 -115.215 -33.8497ZM-57.9818 -59.4213C-57.3125 -57.9992 -57.0908 -59.1079 -57.145 -59.5907C-57.21 -60.1522 -55.7038 -60.2132 -56.5552 -61.0033C-57.1291 -60.9484 -57.7491 -60.8278 -58.3777 -60.8343C-58.9268 -60.8264 -59.6449 -60.6446 -59.9635 -61.1828C-59.9547 -61.1834 -59.9459 -61.1841 -59.9371 -61.1847C-53.8407 -63.4467 -47.5842 -59.7222 -41.4331 -60.5847C-53.8474 -63.3438 -67.3823 -63.0892 -79.565 -58.2077C-80.4441 -57.8602 -81.1398 -57.1386 -82.1708 -57.1867C-87.998 -57.3649 -92.7954 -53.4761 -97.7751 -50.9549C-99.3575 -50.1532 -99.6207 -49.104 -99.8525 -47.4535C-94.9662 -51.3843 -89.8422 -54.2137 -84.2236 -54.9035C-83.3455 -55.0119 -82.4137 -55.4487 -81.5425 -55.7629C-74.8031 -58.2809 -67.736 -60.0647 -60.6201 -60.1652C-59.5509 -60.1738 -58.5063 -60.559 -57.9818 -59.4213ZM75.0138 192.202C84.9601 196.032 184.841 197.436 189.931 195.186C165.869 197.966 140.808 197.886 116.115 197.011C103.3 196.568 90.1305 195.731 76.6584 192.698C76.1112 192.581 75.6559 192.401 75.0138 192.202ZM-29.5207 -55.5966C-16.9504 -52.091 -4.38755 -48.5538 8.18629 -45.0613C11.4432 -44.1462 14.7515 -42.9977 17.5786 -43.8038C17.5679 -43.8061 17.5564 -43.8098 17.5457 -43.8121C16.4962 -45.0849 14.5019 -45.3506 12.802 -45.8266C-1.07482 -49.7945 -14.9547 -53.7525 -28.7694 -57.804C-29.6589 -58.057 -30.6246 -58.421 -31.4455 -58.5919C-32.0406 -58.7007 -32.5374 -58.6112 -32.7818 -58.0246C-33.1138 -57.2113 -32.7148 -56.7393 -32.0337 -56.3963C-31.3216 -56.094 -30.415 -55.8434 -29.5207 -55.5966ZM-51.3626 128.62C-41.2547 135.344 -30.9909 142.036 -20.7336 148.82C-31.4961 142.936 -41.6707 136.081 -51.3626 128.62ZM124.892 -14.0893C129.564 -11.8035 134.882 -11.7764 139.693 -9.86254C135.219 -13.1847 129.976 -13.34 124.892 -14.0893ZM64.6412 -29.1654C62.249 -31.3592 59.2651 -32.5351 55.3335 -32.9877C50.9792 -33.4938 46.4924 -34.8398 42.3796 -36.6918C41.4915 -37.0846 40.8083 -38.0912 39.9182 -37.2903C39.0282 -36.4894 40.1851 -35.9169 41.7012 -35.4964C49.3454 -33.3768 56.992 -31.2665 64.6412 -29.1654ZM36.6946 -36.5296C30.9 -39.7509 24.6294 -42.2044 17.8435 -43.7423C22.6156 -38.9352 30.6826 -39.3809 36.6946 -36.5296ZM17.7575 -43.8569C17.745 -43.8604 17.7327 -43.8638 17.7203 -43.8673C17.7258 -43.8616 17.731 -43.8559 17.7365 -43.8502C17.7434 -43.8524 17.7505 -43.8547 17.7575 -43.8569ZM-82.3571 103.593C-82.4819 103.758 -82.6067 103.923 -82.7315 104.088C-96.4978 93.1321 -108.406 80.1934 -119.902 67.3146C-108.351 80.1094 -95.73 92.2382 -82.3571 103.593ZM-118.776 -23.958C-122.984 -17.2654 -126.499 -10.1289 -129.083 -2.42971C-134.787 15.6844 -140.839 33.6888 -146.451 51.8401L-151.312 24.0552C-151.193 24.2435 -151.073 24.4317 -150.953 24.62C-150.958 24.6231 -150.962 24.6262 -150.966 24.6293C-151.263 24.796 -151.556 25.0004 -151.835 25.1957C-151.946 25.0141 -152.057 24.8325 -152.168 24.651L-147.458 51.5702C-141.562 33.497 -135.703 15.4289 -129.887 -2.64525C-127.209 -10.4082 -123.452 -17.5663 -118.776 -23.958ZM-124.9 60.4542C-125.043 60.5423 -125.175 60.6674 -125.307 60.7926C-134.34 50.2782 -142.62 39.37 -149.98 28.0578C-149.818 27.983 -149.623 27.9278 -149.466 27.8146C-142.139 39.0874 -133.894 49.967 -124.9 60.4542ZM340.7 107.184C340.733 112.481 339.31 117.511 339.391 123.098C339.332 123.973 339.298 124.855 339.292 125.747C339.485 124.906 339.678 124.066 339.871 123.226C341.007 117.911 341.612 112.564 341.691 107.247C341.36 107.226 341.03 107.205 340.7 107.184ZM-13.0335 149.918C-11.5836 150.872 -11.8721 149.539 -10.6538 150.594C-4.65791 155.787 2.96966 158.403 9.84819 162.047C13.5818 164.018 14.8481 164.982 15.5386 166.29C7.35964 162.256 -0.910146 158.303 -8.36958 153.255C-9.83152 152.253 -10.893 152.18 -12.215 151.371C-14.2734 150.099 -13.9555 149.884 -13.0335 149.918ZM15.5834 166.356C15.5822 166.359 15.5809 166.362 15.5797 166.365C15.5751 166.356 15.5684 166.347 15.5639 166.338C15.5676 166.337 15.5718 166.337 15.5755 166.336C15.5782 166.343 15.5808 166.35 15.5834 166.356ZM15.5639 166.338C15.5592 166.338 15.5549 166.339 15.5503 166.34C15.5525 166.334 15.5547 166.329 15.557 166.323C15.5595 166.328 15.5614 166.333 15.5639 166.338ZM15.6086 166.333C15.5979 166.335 15.5861 166.335 15.5755 166.336C15.572 166.325 15.5686 166.314 15.5651 166.303C15.5796 166.313 15.5941 166.323 15.6086 166.333ZM15.557 166.323C15.5514 166.312 15.5442 166.301 15.5386 166.29C15.5472 166.295 15.5564 166.299 15.5651 166.303C15.5624 166.31 15.5597 166.317 15.557 166.323ZM192.851 8.69654C193.987 9.05398 195.998 9.55427 196.202 8.64552C196.406 7.73638 194.672 7.53677 193.292 7.19948C185.958 5.35792 178.651 3.40957 171.338 1.49152C177.685 5.3836 185.552 6.426 192.851 8.69654ZM-38.8565 132.831C-30.7195 138.264 -22.2152 143.04 -14.0845 148.626C-13.6103 148.955 -13.4112 149.451 -13.1027 149.872C-16.2346 148.85 -19.3871 147.174 -22.7806 144.959C-27.9835 141.554 -33.2228 138.152 -38.3538 134.572C-39.3724 133.864 -40.6851 133.02 -40.4302 132.441C-40.2966 132.142 -39.6375 132.303 -38.8565 132.831ZM266.501 186.559C270.535 184.376 281.641 181.271 288.788 180.25C280.953 183.356 273.533 184.325 266.501 186.559ZM325.806 62.0089C326.153 65.1459 327.094 67.2001 329.546 69.4016C329.88 66.163 328.093 64.1818 325.806 62.0089ZM337.745 97.6506C337.787 98.4783 337.917 99.305 338.568 99.3562C339.365 99.4345 339.81 98.1975 339.444 97.5222C337.585 94.1965 338.664 90.1102 336.192 85.9663C336.194 85.9744 336.196 85.9826 336.198 85.9907C337.147 90.5564 337.545 94.1183 337.745 97.6506ZM-99.0974 83.1877C-93.3996 89.2778 -87.0391 94.5775 -80.9417 100.24C-75.0937 105.647 -68.195 110.118 -63.7065 116.258C-75.4984 105.216 -89.2424 95.633 -99.0974 83.1877ZM-98.5019 -41.4981C-98.6459 -41.6835 -98.7898 -41.8689 -98.9338 -42.0543C-90.784 -47.818 -81.57 -51.9633 -72.0422 -54.2178C-71.9774 -53.9846 -71.9126 -53.7514 -71.8478 -53.5182C-81.2862 -51.2955 -90.4193 -47.1994 -98.5019 -41.4981ZM-12.9571 149.919C-12.9269 149.929 -12.8946 149.941 -12.8643 149.95C-12.8643 149.95 -12.9544 149.928 -13.0106 149.918C-13.0186 149.917 -13.0257 149.918 -13.0335 149.918C-13.036 149.916 -13.0385 149.914 -13.041 149.913C-13.0538 149.911 -13.059 149.912 -13.0525 149.916C-13.0631 149.91 -13.0737 149.904 -13.0844 149.898C-13.0909 149.889 -13.0963 149.88 -13.1027 149.872C-13.0764 149.88 -13.05 149.889 -13.0236 149.897C-12.9795 149.906 -12.9354 149.914 -12.8913 149.922C-12.9138 149.92 -12.9352 149.92 -12.9571 149.919ZM-62.4834 115.342C-58.7876 118.86 -53.8418 121.158 -50.6675 125.153C-55.0781 122.249 -59.7017 119.502 -62.4834 115.342ZM136.52 -3.80748C135.434 -4.05427 134.247 -4.51826 134.653 -5.2959C135.013 -6.04424 136.137 -5.78731 137.265 -5.40255C140.174 -4.39632 143.047 -3.40169 145.956 -2.39874C145.944 -2.40189 145.932 -2.40505 145.92 -2.40823C145.783 -2.19175 145.687 -1.98511 145.587 -1.75881C142.587 -2.4271 139.545 -3.08682 136.52 -3.80748ZM-35.3166 -52.2476C-40.5786 -52.4683 -45.3186 -54.6694 -50.5222 -54.8488C-45.2849 -55.648 -40.219 -53.7219 -35.3166 -52.2476ZM-119.821 61.0425C-119.456 60.6386 -118.507 61.0265 -117.994 61.7964C-114.907 66.5139 -110.854 70.4436 -106.856 74.5307C-106.41 74.9748 -106.186 75.7117 -105.505 76.9488C-111.164 73.2074 -114.783 67.6765 -119.091 63.47C-120.029 62.5653 -120.24 61.499 -119.821 61.0425ZM-138.488 35.3016C-133.628 42.5761 -128.384 49.7941 -122.666 56.7054C-121.499 58.1206 -120.895 59.0785 -121.306 59.5714C-122.011 60.3929 -123.043 58.4463 -123.737 57.5722C-129.034 50.9787 -133.96 44.209 -138.553 37.3122C-138.547 37.3215 -138.54 37.3308 -138.533 37.3402C-138.524 36.6755 -138.498 36.0013 -138.488 35.3016ZM261.026 32.6037C254.199 31.0927 247.755 28.747 240.028 25.9974C244.404 26.2739 247.299 26.4452 250.31 26.6256C249.213 24.7878 245.926 25.1948 244.098 23.4152C252.319 25.655 259.89 27.207 267.456 29.6666C271.584 31.0108 275.819 32.2474 280.096 33.3641C283.156 34.1511 286.162 34.9613 289.157 35.8118C289.177 35.8053 289.197 35.7987 289.217 35.7922C291.683 36.5224 292.115 37.5891 292.586 39.0623C292.574 39.0685 292.563 39.0755 292.552 39.0815C289.94 39.589 287.586 40.2806 286.061 37.0861C285.549 36.0694 284.599 36.7773 283.885 36.6664C282.366 36.4301 280.841 36.384 279.312 36.2892C275.243 35.7142 271.208 34.8952 267.326 32.8185C265.415 31.7931 263.202 33.0821 261.026 32.6037ZM-140.199 44.091C-140.61 47.1323 -141.219 50.1095 -141.996 53.0339L-147.527 21.4196C-144.127 26.2786 -141.232 31.625 -138.585 37.2459C-142.341 32.5 -145.642 27.3443 -148.597 22.1645L-143.255 52.6965C-142.241 49.8266 -141.212 46.9609 -140.199 44.091ZM-138.553 37.3122C-138.564 37.2902 -138.575 37.2679 -138.585 37.2459C-138.57 37.2645 -138.556 37.2836 -138.541 37.3022C-138.545 37.3055 -138.549 37.3088 -138.553 37.3122ZM-115.082 -20.5339C-115.003 -19.1687 -114.053 -18.1849 -115.545 -16.9207C-120.333 -12.7833 -121.34 -6.54392 -123.364 -0.897347C-123.403 -0.778518 -123.442 -0.659636 -123.481 -0.540864C-123.694 0.0774221 -123.924 0.691376 -124.171 1.41945C-124.702 0.844323 -124.268 -0.0832918 -123.977 -1.06172C-123.847 -1.47762 -123.775 -1.90946 -124.058 -2.34001C-124.23 -1.96635 -124.399 -1.5929 -124.564 -1.2188C-126.087 2.79164 -127.497 6.63558 -128.355 10.7488C-128.473 11.3527 -128.214 12.177 -128.333 12.3835C-129.672 14.6471 -130.22 19.4665 -131.666 19.4374C-133.105 19.4491 -131.292 15.0869 -130.678 13.3042C-130.674 13.2919 -130.671 13.2797 -130.667 13.2674C-128.997 8.34922 -127.375 3.41429 -125.75 -1.53676C-123.253 -8.48687 -119.806 -14.9778 -115.082 -20.5339ZM197.56 194.427C206.319 193.427 214.497 191.115 223.402 190.476C224.511 190.401 226.308 189.869 226.568 190.48C226.825 191.041 225.268 191.407 223.978 191.582C223.978 191.586 223.979 191.59 223.979 191.594C215.247 192.79 206.429 193.733 197.56 194.427ZM267.098 181.725C272.969 181.248 277.735 177.737 283.396 176.851C283.406 176.843 283.417 176.835 283.427 176.827C285.754 176.473 288.297 175.703 290.621 176.158C282.881 179.489 275.34 180.67 268.099 182.708C267.175 182.966 265.984 182.951 265.998 182.415C266.007 182.254 266.851 181.744 267.098 181.725ZM301.436 172.284C305.344 170.847 307.998 166.441 312.809 168.232C309.401 170.775 305.286 171.008 301.436 172.284ZM316.492 166.916C321.67 163.462 326.413 162.525 330.517 160.396C326.717 162.983 322.575 165.132 316.492 166.916ZM292.61 39.1328C292.606 39.122 292.602 39.1113 292.599 39.1004C292.586 39.1268 292.573 39.1531 292.56 39.1794C292.576 39.1632 292.594 39.1486 292.61 39.1328ZM245.118 186.626C249.714 185.956 254.398 184.12 260.323 183.998C254.688 186.535 249.633 186.24 245.006 187.506C244.832 187.552 244.205 187.398 244.266 187.305C244.385 187.092 244.84 186.693 245.084 186.646C245.095 186.639 245.107 186.633 245.118 186.626ZM196.735 17.3327C191.962 16.4611 190.325 13.8202 185.96 13.8005C185.946 13.8038 185.932 13.8072 185.917 13.8105C186.07 13.3892 186.261 12.9775 186.413 12.5561C187.474 12.7471 188.52 12.8504 189.566 13.0999C204.55 16.6402 219.54 20.1599 234.555 23.5841C236.352 23.9971 237.969 24.488 237.981 25.4818C238.012 26.9963 235.89 26.3177 234.061 25.8773C225.809 23.9002 217.419 22.2919 209.379 19.822C205.049 18.4863 200.674 18.0526 196.735 17.3327ZM-108.282 -26.9554C-110.072 -24.3542 -111.131 -22.0161 -113.003 -20.0355C-114.292 -22.0334 -112.181 -25.8241 -108.282 -26.9554ZM-88.8316 -41.0758C-89.9013 -39.1735 -91.9103 -38.9679 -93.5699 -38.374C-93.5633 -38.3783 -93.5567 -38.3826 -93.5502 -38.3868C-96.8483 -37.2178 -99.7865 -35.4275 -101.838 -32.6004C-99.5857 -37.5173 -94.3236 -40.0121 -89.8367 -42.6962C-89.0738 -43.1401 -88.1734 -43.3975 -87.7111 -42.6045C-87.2121 -41.7069 -88.571 -41.5418 -88.8316 -41.0758ZM-56.2846 -50.2825C-57.6545 -49.3188 -57.3744 -47.2287 -59.0283 -48.3209C-61.3492 -49.8279 -63.4713 -48.9284 -65.2981 -48.1273C-67.8745 -46.9755 -70.4436 -48.5465 -73.0719 -47.294C-76.3199 -45.7421 -80.6717 -46.103 -83.6415 -43.4454C-84.2571 -42.8834 -85.2365 -42.6251 -85.6255 -43.4774C-86.0133 -44.3317 -85.0353 -44.7169 -84.2595 -45.0629C-80.2381 -46.809 -76.0889 -48.5138 -71.7999 -49.0177C-71.7905 -49.0134 -71.7811 -49.0091 -71.7718 -49.0049C-66.7886 -49.5894 -61.9578 -50.9718 -56.2846 -50.2825ZM135.838 3.62766C134.42 3.8832 134.095 3.16521 133.926 2.9088C132.281 0.593772 129.203 -0.374689 126.09 -0.320132C123.177 -0.275168 123.572 -1.60539 123.418 -2.06876C122.994 -3.30115 125.277 -2.62725 126.018 -2.42907C135.712 -0.0494999 145.722 1.88873 155.044 5.05879C161.053 7.10308 166.906 7.35362 172.637 9.24807C172.648 9.25789 172.658 9.26773 172.669 9.27755C177.195 10.7728 182.939 10.9867 185.267 14.312C183.955 15.6493 181.247 10.9237 181.316 14.6726C181.323 15.3872 179.083 14.8493 177.74 14.5219C169.26 12.5109 161.079 10.1226 153.076 6.77366C147.894 4.60989 141.479 2.59486 135.838 3.62766ZM-35.5035 -46.798C-39.0292 -45.4415 -41.7467 -47.5568 -44.0467 -48.4778C-47.2883 -49.7625 -49.9825 -48.2968 -52.9247 -48.6924C-53.6131 -48.774 -54.6364 -48.088 -54.8526 -49.0363C-55.0707 -49.9462 -54.0327 -50.3953 -52.9683 -50.3635C-52.9609 -50.3699 -52.9534 -50.3761 -52.9459 -50.3824C-47.2236 -50.1947 -41.1104 -50.3187 -35.5035 -46.798ZM89.288 -10.0825C88.7903 -10.4495 87.4647 -8.76479 86.966 -10.6105C86.8124 -11.2223 87.373 -11.6814 88.9331 -11.425C99.327 -9.7322 109.538 -7.05681 119.621 -3.76126C119.949 -3.65168 120.082 -3.10944 120.697 -2.14276C112.032 -4.35908 104.019 -5.29736 95.9339 -7.89454C93.738 -8.59646 91.2831 -8.63082 89.288 -10.0825ZM72.795 -13.1849C68.7946 -13.6752 69.0557 -15.9857 66.4759 -17.034C72.541 -17.4259 77.3386 -16.1981 80.1983 -11.2998C77.4421 -13.1733 75.0255 -12.9085 72.795 -13.1849ZM22.046 -26.6244C20.2931 -26.895 16.7764 -26.6515 17.9378 -29.4055C18.2358 -30.0731 17.234 -30.336 16.328 -30.2171C15.833 -30.1486 15.4855 -29.8923 15.0437 -29.7255C10.2405 -33.1538 3.97463 -33.3517 -1.49411 -35.3337C-2.43822 -35.666 -3.90812 -36.1079 -3.38047 -36.8909C-3.05649 -37.3586 -2.31918 -37.2933 -1.24914 -36.9878C14.6799 -32.5231 30.5915 -28.1402 46.5483 -23.7792C46.5448 -23.766 46.5413 -23.7529 46.5378 -23.7398C47.0554 -23.5956 47.5053 -23.1974 48.4724 -22.655C45.3533 -22.1359 41.6432 -22.3762 39.4717 -23.614C34.6421 -26.3501 29.1883 -26.0169 24.4522 -28.2123C23.4278 -28.6897 21.394 -29.8491 20.8503 -28.4146C20.4888 -27.4798 21.2997 -26.937 22.046 -26.6244ZM22.8766 -26.3355C22.6779 -26.398 22.3678 -26.4897 22.046 -26.6244C22.4305 -26.565 22.73 -26.4823 22.8766 -26.3355Z" fill="#FDEEC2"/>
</g>
</g>
<defs>
<clipPath id="clip0_188_2259">
<rect width="355.333" height="280" fill="white"/>
</clipPath>
<clipPath id="clip1_188_2259">
<rect y="-14.9321" width="355.333" height="309.865" rx="17.187" fill="white"/>
</clipPath>
</defs>
</svg>
