<svg viewBox="0 0 24 24" fill="currentColor" xmlns="http://www.w3.org/2000/svg" focusable="false">
  <title>LinkedIn Icon</title>
  <path fill-rule="evenodd" clip-rule="evenodd" d="M16.912 1.5H7.07236C3.64379 1.5 1.49219 3.92375 1.49219 7.3625V16.6375C1.49219 20.0763 3.63504 22.5 7.07236 22.5H16.912C20.3493 22.5 22.4922 20.0763 22.4922 16.6375V7.3625C22.4922 3.92375 20.3493 1.5 16.912 1.5ZM6.32892 8.15875C6.32892 7.7475 6.66128 7.415 7.07236 7.415C7.48344 7.415 7.8158 7.7475 7.8158 8.15875C7.8158 8.57 7.48344 8.9025 7.07236 8.9025C6.66128 8.9025 6.32892 8.57 6.32892 8.15875ZM11.638 11.86C11.638 10.5913 12.6613 9.5675 13.9295 9.5675C15.1977 9.5675 16.2211 10.5913 16.2211 11.86V15.8412C16.2211 16.2262 16.5359 16.5413 16.9208 16.5413C17.3056 16.5413 17.6205 16.2262 17.6205 15.8412V11.86C17.6205 9.82125 15.9674 8.1675 13.9295 8.1675C11.8916 8.1675 10.2385 9.82125 10.2385 11.86V15.8412C10.2385 16.2262 10.5534 16.5413 10.9383 16.5413C11.3231 16.5413 11.638 16.2262 11.638 15.8412V11.86ZM7.76332 11.44C7.76332 11.055 7.44846 10.74 7.06362 10.74C6.67878 10.74 6.36391 11.055 6.36391 11.44V15.8325C6.36391 16.2175 6.67878 16.5325 7.06362 16.5325C7.44846 16.5325 7.76332 16.2175 7.76332 15.8325V11.44Z" class="icon-base"></path>
</svg>
