<svg viewBox="0 0 24 24" fill="currentColor" xmlns="http://www.w3.org/2000/svg" focusable="false">
  <title>Arrow Left Icon</title>
  <path fill-rule="evenodd" clip-rule="evenodd" d="M11.21 18.6901C11.01 18.8801 10.76 18.9801 10.5 18.9801V19.0001C10.25 19.0001 10 18.9101 9.8 18.7101L3.79 12.7101C3.61 12.5201 3.5 12.2701 3.5 12.0001C3.5 11.7301 3.6 11.4801 3.79 11.2901L9.8 5.29006C10.19 4.90006 10.82 4.90006 11.21 5.29006C11.6 5.68006 11.6 6.31006 11.21 6.70006L6.91 11.0001H19.5C20.05 11.0001 20.5 11.4501 20.5 12.0001C20.5 12.5501 20.05 13.0001 19.5 13.0001H6.92L11.21 17.2801C11.6 17.6701 11.6 18.3001 11.21 18.6901Z" class="icon-base"></path>
</svg>
