<svg viewBox="0 0 24 24" fill="currentColor" xmlns="http://www.w3.org/2000/svg" focusable="false">
  <title>Arrow Up Icon</title>
  <path fill-rule="evenodd" clip-rule="evenodd" d="M5.31 11.21C5.12 11.01 5.02 10.76 5.02 10.5H5C5 10.25 5.09 10 5.29 9.8L11.29 3.79C11.48 3.61 11.73 3.5 12 3.5C12.27 3.5 12.52 3.6 12.71 3.79L18.71 9.8C19.1 10.19 19.1 10.82 18.71 11.21C18.32 11.6 17.69 11.6 17.3 11.21L13 6.91V19.5C13 20.05 12.55 20.5 12 20.5C11.45 20.5 11 20.05 11 19.5V6.92L6.72 11.21C6.33 11.6 5.7 11.6 5.31 11.21Z" class="icon-base"></path>
</svg>
