<svg viewBox="0 0 24 24" fill="currentColor" xmlns="http://www.w3.org/2000/svg" focusable="false">
  <title>Arrow Down Icon</title>
  <path fill-rule="evenodd" clip-rule="evenodd" d="M5.31 12.79C5.12 12.99 5.02 13.24 5.02 13.5H5C5 13.75 5.09 14 5.29 14.2L11.29 20.21C11.48 20.39 11.73 20.5 12 20.5C12.27 20.5 12.52 20.4 12.71 20.21L18.71 14.2C19.1 13.81 19.1 13.18 18.71 12.79C18.32 12.4 17.69 12.4 17.3 12.79L13 17.09V4.5C13 3.95 12.55 3.5 12 3.5C11.45 3.5 11 3.95 11 4.5V17.08L6.72 12.79C6.33 12.4 5.7 12.4 5.31 12.79Z" class="icon-base"></path>
</svg>
