<svg viewBox="0 0 24 24" fill="currentColor" xmlns="http://www.w3.org/2000/svg" focusable="false">
  <title>Arrow Right Icon</title>
  <path fill-rule="evenodd" clip-rule="evenodd" d="M12.29 18.6901C12.49 18.8801 12.74 18.9801 13 18.9801V19.0001C13.25 19.0001 13.5 18.9101 13.7 18.7101L19.71 12.7101C19.89 12.5201 20 12.2701 20 12.0001C20 11.7301 19.9 11.4801 19.71 11.2901L13.7 5.29006C13.31 4.90006 12.68 4.90006 12.29 5.29006C11.9 5.68006 11.9 6.31006 12.29 6.70006L16.59 11.0001H4C3.45 11.0001 3 11.4501 3 12.0001C3 12.5501 3.45 13.0001 4 13.0001H16.58L12.29 17.2801C11.9 17.6701 11.9 18.3001 12.29 18.6901Z" class="icon-base"></path>
</svg>
