<svg viewBox="0 0 24 24" fill="currentColor" xmlns="http://www.w3.org/2000/svg" focusable="false">
  <title>Car Guide Icon</title>
  <path fill-rule="evenodd" clip-rule="evenodd" d="M4.62917 19.8343C4.74338 19.8772 4.86329 19.9 4.98682 19.9H7.01638C7.01993 19.9 7.02348 19.9 7.02702 19.9001H21.1134C21.8756 19.9001 22.5001 19.0302 22.5001 17.9636V16.3688C22.4999 16.3619 22.4999 16.3549 22.4999 16.348V5.53662C22.4999 4.68303 22.0999 3.95544 21.5495 3.69885C21.5196 3.6849 21.4893 3.67235 21.4585 3.66124C21.3481 3.62139 21.2324 3.60018 21.1134 3.60018H19.0838C19.0802 3.60018 19.0767 3.60016 19.0731 3.6001H4.98682C4.22458 3.6001 3.6001 4.46998 3.6001 5.53662V7.13144C3.60025 7.13834 3.60033 7.14526 3.60033 7.1522V17.9636C3.60033 18.8572 4.03869 19.6128 4.62917 19.8343Z" fill="transparent" class="icon-offset"></path>
  <path fill-rule="evenodd" clip-rule="evenodd" d="M4.06415 17.1364H5.88626C6.24903 17.1364 6.54584 16.8396 6.54584 16.4768C6.54584 16.114 6.24903 15.8172 5.88626 15.8172H4.06415C3.37982 15.8172 2.81918 15.1246 2.81918 14.2754V4.3815C2.81918 3.53227 3.37982 2.8397 4.06415 2.8397H18.5421C19.2264 2.8397 19.7871 3.53227 19.7871 4.3815V12.9892C19.7871 13.352 20.0839 13.6488 20.4467 13.6488C20.8094 13.6488 21.1062 13.352 21.1062 12.9892V4.3815C21.1062 2.79847 19.9602 1.52051 18.5421 1.52051H4.06415C2.65428 1.52051 1.5 2.80672 1.5 4.3815V14.2754C1.5 15.8584 2.64603 17.1364 4.06415 17.1364ZM17.6441 6.36894H4.88933C4.52656 6.36894 4.22975 6.07212 4.22975 5.70935C4.22975 5.34657 4.52656 5.04975 4.88933 5.04975H17.6441C18.0069 5.04975 18.3037 5.34657 18.3037 5.70935C18.3037 6.07212 18.0069 6.36894 17.6441 6.36894ZM10.669 15.6612H13.4309V13.6161H11.5757C11.4932 13.6161 11.4025 13.6491 11.3283 13.6986C11.2623 13.748 11.2046 13.8222 11.1799 13.9129L10.669 15.6612ZM14.7501 15.6612H17.7901L16.7369 13.7068C16.7369 13.7068 16.6957 13.6573 16.671 13.6409C16.6462 13.6244 16.605 13.6161 16.572 13.6161H14.7501V15.6612ZM19.2821 15.6612L17.8912 13.0802C17.7593 12.8411 17.5697 12.6432 17.3306 12.5031C17.0997 12.3711 16.8359 12.2969 16.5638 12.2969H11.5674C11.2046 12.2969 10.8419 12.4124 10.5533 12.6267C10.2565 12.8329 10.0339 13.1379 9.91019 13.5172L9.276 15.6846C8.82241 15.7517 8.40623 15.9614 8.07155 16.2961C7.66756 16.6918 7.4367 17.2525 7.4367 17.8131V18.9839C7.4367 19.5528 7.66756 20.1052 8.07155 20.5092C8.41656 20.8542 8.85396 21.0664 9.32093 21.1265C9.58586 21.9125 10.3295 22.4793 11.2044 22.4793C12.0727 22.4793 12.8118 21.921 13.0819 21.1441H16.9209C17.1909 21.921 17.93 22.4793 18.7983 22.4793C19.6801 22.4793 20.4286 21.9036 20.688 21.1078C21.1298 21.0351 21.5514 20.823 21.8734 20.501C22.2692 20.097 22.5 19.5446 22.5 18.9839V17.8131C22.5 17.2442 22.2774 16.7001 21.8734 16.2961C21.4777 15.8921 20.917 15.6612 20.3564 15.6612H19.2821ZM20.6492 19.7687C20.7574 19.7264 20.8578 19.6615 20.9418 19.5775C21.0902 19.4209 21.1809 19.2065 21.1809 18.9921V17.8214C21.1809 17.5988 21.0984 17.3926 20.9418 17.236C20.7851 17.0793 20.5707 16.9886 20.3564 16.9886H9.59685C9.38248 16.9886 9.16812 17.0793 9.01147 17.236C8.85481 17.3926 8.76412 17.607 8.76412 17.8214V18.9921C8.76412 19.2065 8.85481 19.4209 9.01147 19.5775C9.10652 19.6726 9.22282 19.7434 9.34747 19.7843C9.633 19.0368 10.3572 18.5053 11.2044 18.5053C12.0669 18.5053 12.8019 19.0562 13.0764 19.8249H16.9264C17.2008 19.0562 17.9358 18.5053 18.7983 18.5053C19.6396 18.5053 20.3596 19.0294 20.6492 19.7687ZM11.872 20.4845L11.8721 20.4707C11.8647 20.1138 11.5627 19.8162 11.2044 19.8162C10.8334 19.8162 10.5366 20.1213 10.5366 20.4841C10.5366 20.8469 10.8416 21.1519 11.2044 21.1519C11.5626 21.1519 11.8645 20.8545 11.8721 20.4979L11.872 20.4845ZM15.1538 18.5547H14.4036C14.0408 18.5547 13.744 18.2579 13.744 17.8951C13.744 17.5324 14.0408 17.2355 14.4036 17.2355H15.1538C15.5166 17.2355 15.8134 17.5324 15.8134 17.8951C15.8134 18.2579 15.5166 18.5547 15.1538 18.5547ZM18.1305 20.4841C18.1305 20.1213 18.4273 19.8162 18.7983 19.8162C19.1611 19.8162 19.4661 20.1213 19.4661 20.4841C19.4661 20.8469 19.1611 21.1519 18.7983 21.1519C18.4355 21.1519 18.1305 20.8469 18.1305 20.4841ZM4.88933 10.0132H17.6441C18.0069 10.0132 18.3037 9.71643 18.3037 9.35365C18.3037 8.99087 18.0069 8.69406 17.6441 8.69406H4.88933C4.52656 8.69406 4.22975 8.99087 4.22975 9.35365C4.22975 9.71643 4.52656 10.0132 4.88933 10.0132ZM7.88181 13.6491H4.83947C4.47669 13.6491 4.17988 13.3523 4.17988 12.9895C4.17988 12.6267 4.47669 12.3299 4.83947 12.3299H7.88181C8.24459 12.3299 8.5414 12.6267 8.5414 12.9895C8.5414 13.3523 8.24459 13.6491 7.88181 13.6491Z" class="icon-base"></path>
</svg>
