<svg viewBox="0 0 24 24" fill="currentColor" xmlns="http://www.w3.org/2000/svg" focusable="false">
  <title>Auto Purchase Icon</title>
  <path d="M8.33926 9H15.8875C16.5693 9 17.1926 9.38202 17.4975 9.9868L19.45 13.8594H21.3C22.7912 13.8594 24 15.0583 24 16.5372V18.3223C24 19.8011 22.7912 21 21.3 21H5.7C4.20883 21 3 19.8011 3 18.3223V16.5372C3 15.1155 4.1172 13.9525 5.52842 13.8648L6.61517 10.2722C6.84358 9.5171 7.54436 9 8.33926 9Z" fill="transparent" class="icon-offset"></path>
  <path fill-rule="evenodd" clip-rule="evenodd" d="M19.2493 8.74589C19.2493 9.08559 19.5273 9.36353 19.867 9.36353C20.2067 9.36353 20.4846 9.08559 20.4846 8.74589V8.59565C21.2726 8.54325 21.9053 7.87818 21.9053 7.07802C21.9053 6.24419 21.2259 5.55706 20.3844 5.55706H19.3498C19.1954 5.55706 19.0642 5.42581 19.0642 5.2714C19.0642 5.11699 19.1877 4.98574 19.3498 4.98574H19.8503C19.8558 4.98589 19.8614 4.98596 19.867 4.98596C19.8725 4.98596 19.8781 4.98589 19.8836 4.98574H21.0329C21.3726 4.98574 21.6506 4.7078 21.6506 4.36809C21.6506 4.02838 21.3726 3.75044 21.0329 3.75044H20.4846V3.60398C20.4846 3.26427 20.2067 2.98633 19.867 2.98633C19.5273 2.98633 19.2493 3.26427 19.2493 3.60398V3.75373C18.4548 3.80583 17.8289 4.47104 17.8289 5.2714C17.8289 6.10522 18.5083 6.79235 19.3498 6.79235H20.3844C20.5388 6.79235 20.67 6.9236 20.67 7.07802C20.67 7.23243 20.5465 7.36368 20.3844 7.36368H18.7013C18.3616 7.36368 18.0836 7.64162 18.0836 7.98132C18.0836 8.32103 18.3616 8.59897 18.7013 8.59897H19.2493V8.74589ZM5.35468 11.8881H10.116V8.26667H7.09715C6.90414 8.26667 6.71112 8.32844 6.54899 8.44425C6.38686 8.56006 6.27105 8.72219 6.217 8.90748L5.35468 11.8881ZM11.3513 11.8881H16.611L14.8177 8.5755C14.7637 8.47513 14.6942 8.39792 14.5938 8.34388C14.5089 8.28983 14.4008 8.26667 14.285 8.26667H11.3513V11.8881ZM18.0094 11.8881L15.8986 7.99645C15.7442 7.70307 15.5049 7.45601 15.2192 7.28616C14.9413 7.11631 14.617 7.03138 14.2773 7.03138H7.08943C6.63391 7.03138 6.18612 7.18579 5.80781 7.45601C5.4295 7.73395 5.15928 8.11226 5.02031 8.55234L4.04786 11.8964C3.39489 11.9469 2.7838 12.2256 2.31066 12.6988C1.78566 13.2161 1.5 13.9109 1.5 14.6521V16.3352C1.5 17.0686 1.78566 17.7635 2.31066 18.2885C2.79292 18.7779 3.42953 19.0594 4.11412 19.0952C4.38706 20.1942 5.38398 21.0136 6.56487 21.0136C7.7442 21.0136 8.74006 20.1963 9.01453 19.0996H15.0473C15.3218 20.1963 16.3176 21.0136 17.497 21.0136C18.6794 21.0136 19.6773 20.1921 19.9488 19.0911C20.603 19.0413 21.2154 18.7624 21.6893 18.2885C22.2143 17.7712 22.5 17.0763 22.5 16.3352V14.6521C22.5 13.9186 22.2143 13.2238 21.6893 12.6988C21.1721 12.1738 20.4772 11.8881 19.736 11.8881H18.0094ZM19.9394 17.8504C20.2718 17.806 20.5791 17.6538 20.8169 17.4161C21.1026 17.1304 21.2647 16.7444 21.2647 16.3352V14.6521C21.2647 14.2429 21.1026 13.8569 20.8169 13.5712C20.5312 13.2855 20.1452 13.1234 19.736 13.1234H4.26397C3.85478 13.1234 3.46875 13.2855 3.18309 13.5712C2.89743 13.8569 2.73529 14.2429 2.73529 14.6521V16.3352C2.73529 16.7444 2.89743 17.1304 3.18309 17.4161C3.43514 17.6681 3.76534 17.824 4.12064 17.8572C4.4026 16.7712 5.39318 15.9644 6.56487 15.9644C7.7391 15.9644 8.73144 16.7747 9.01093 17.8643H15.0509C15.3304 16.7747 16.3228 15.9644 17.497 15.9644C18.6662 15.9644 19.6551 16.7678 19.9394 17.8504ZM12.2545 15.3704H11.1659C10.8262 15.3704 10.5482 15.0925 10.5482 14.7528C10.5482 14.4131 10.8262 14.1351 11.1659 14.1351H12.2545C12.5942 14.1351 12.8721 14.4131 12.8721 14.7528C12.8721 15.0925 12.5942 15.3704 12.2545 15.3704ZM6.56487 17.192C5.85457 17.192 5.27553 17.771 5.27553 18.4813C5.27553 19.1916 5.85457 19.7706 6.56487 19.7706C7.27516 19.7706 7.85421 19.1916 7.85421 18.4813C7.85421 17.771 7.27516 17.192 6.56487 17.192ZM16.2076 18.4813C16.2076 17.771 16.7867 17.192 17.497 17.192C18.2073 17.192 18.7863 17.771 18.7863 18.4813C18.7863 19.1916 18.2073 19.7706 17.497 19.7706C16.7867 19.7706 16.2076 19.1916 16.2076 18.4813Z" class="icon-base"></path>
</svg>
