<svg viewBox="0 0 24 24" fill="currentColor" xmlns="http://www.w3.org/2000/svg" focusable="false">
  <title>New Car Icon</title>
  <path d="M8.33926 8.8999H15.8875C16.5693 8.8999 17.1926 9.28193 17.4975 9.8867L19.45 13.7593H21.3C22.7912 13.7593 24 14.9582 24 16.4371V18.2222C24 19.7011 22.7912 20.8999 21.3 20.8999H5.7C4.20883 20.8999 3 19.7011 3 18.2222V16.4371C3 15.0154 4.1172 13.8524 5.52842 13.7647L6.61517 10.1721C6.84358 9.417 7.54436 8.8999 8.33926 8.8999Z" fill="transparent" class="icon-offset"></path>
  <path fill-rule="evenodd" clip-rule="evenodd" d="M18.8172 8.57667C18.9022 8.83917 19.1415 9.01675 19.4117 9.01675V9.02447C19.6897 9.02447 19.929 8.84689 20.0062 8.58439C20.2842 7.6579 21.0022 6.93215 21.9286 6.6542C22.1911 6.57699 22.3687 6.33765 22.3687 6.06742C22.3687 5.78947 22.1989 5.55013 21.9364 5.47292C21.0022 5.18725 20.2842 4.4615 20.0062 3.54273C19.9213 3.28023 19.6897 3.07949 19.4117 3.10265C19.1415 3.10265 18.9022 3.27251 18.825 3.53501C18.5393 4.4615 17.8213 5.18725 16.8948 5.4652C16.6323 5.54241 16.4547 5.78175 16.4547 6.05198C16.447 6.32993 16.6246 6.56927 16.8871 6.64648C17.8136 6.93215 18.5393 7.65018 18.8172 8.57667ZM19.4117 7.01707C19.1415 6.64648 18.8172 6.32221 18.4467 6.0597C18.825 5.78947 19.1492 5.4652 19.4117 5.09461C19.6742 5.4652 19.9985 5.78947 20.3691 6.05198C19.9985 6.32221 19.6742 6.64648 19.4117 7.01707ZM10.116 11.7731H5.35468L6.217 8.79243C6.27105 8.60713 6.38686 8.44499 6.54899 8.32918C6.71112 8.21337 6.90414 8.15161 7.09715 8.15161H10.116V11.7731ZM16.611 11.7731H11.3513V8.15161H14.285C14.4008 8.15161 14.5089 8.17477 14.5938 8.22881C14.6942 8.28286 14.7637 8.36007 14.8177 8.46044L16.611 11.7731ZM15.8986 7.88138L18.0094 11.7731H19.736C20.4772 11.7731 21.1721 12.0588 21.6893 12.5838C22.2143 13.1088 22.5 13.8037 22.5 14.5372V16.2203C22.5 16.9615 22.2143 17.6563 21.6893 18.1736C21.2154 18.6476 20.603 18.9265 19.9488 18.9763C19.6773 20.0773 18.6794 20.8989 17.497 20.8989C16.3174 20.8989 15.3213 20.0811 15.0471 18.984H9.01472C8.74051 20.0811 7.74447 20.8989 6.56487 20.8989C5.38398 20.8989 4.38706 20.0794 4.11413 18.9804C3.42953 18.9445 2.79292 18.6631 2.31066 18.1736C1.78566 17.6486 1.5 16.9538 1.5 16.2203V14.5372C1.5 13.796 1.78566 13.1011 2.31066 12.5838C2.7838 12.1107 3.39489 11.8319 4.04787 11.7814L5.02031 8.43727C5.15928 7.99719 5.4295 7.61887 5.80781 7.34093C6.18612 7.0707 6.63392 6.91628 7.08943 6.91628H14.2773C14.617 6.91628 14.9413 7.00121 15.2192 7.17107C15.5049 7.34093 15.7442 7.58799 15.8986 7.88138ZM20.8169 17.3012C20.5791 17.539 20.2718 17.6912 19.9394 17.7355C19.6551 16.6529 18.6662 15.8495 17.497 15.8495C16.323 15.8495 15.3309 16.6594 15.0511 17.7487H9.01074C8.73099 16.6594 7.73884 15.8495 6.56487 15.8495C5.39318 15.8495 4.4026 16.6563 4.12063 17.7423C3.76534 17.7091 3.43514 17.5533 3.18309 17.3012C2.89743 17.0155 2.73529 16.6295 2.73529 16.2203V14.5372C2.73529 14.128 2.89743 13.7419 3.18309 13.4563C3.46875 13.1706 3.85478 13.0084 4.26397 13.0084H19.736C20.1452 13.0084 20.5312 13.1706 20.8169 13.4563C21.1026 13.7419 21.2647 14.128 21.2647 14.5372V16.2203C21.2647 16.6295 21.1026 17.0155 20.8169 17.3012ZM11.1659 15.2548H12.2545C12.5942 15.2548 12.8721 14.9768 12.8721 14.6371C12.8721 14.2974 12.5942 14.0194 12.2545 14.0194H11.1659C10.8262 14.0194 10.5482 14.2974 10.5482 14.6371C10.5482 14.9768 10.8262 15.2548 11.1659 15.2548ZM5.27553 18.3665C5.27553 17.6561 5.85457 17.0771 6.56487 17.0771C7.27516 17.0771 7.85421 17.6561 7.85421 18.3665C7.85421 19.0768 7.27516 19.6558 6.56487 19.6558C5.85457 19.6558 5.27553 19.0768 5.27553 18.3665ZM17.497 17.0771C16.7867 17.0771 16.2076 17.6561 16.2076 18.3665C16.2076 19.0768 16.7867 19.6558 17.497 19.6558C18.2073 19.6558 18.7863 19.0768 18.7863 18.3665C18.7863 17.6561 18.2073 17.0771 17.497 17.0771Z" class="icon-base"></path>
</svg>
