<svg viewBox="0 0 24 24" fill="currentColor" xmlns="http://www.w3.org/2000/svg" focusable="false">
  <title>Auto Car Icon</title>
  <path d="M8.33926 7H15.8875C16.5693 7 17.1926 7.38202 17.4975 7.9868L19.45 11.8594H21.3C22.7912 11.8594 24 13.0583 24 14.5372V16.3223C24 17.8011 22.7912 19 21.3 19H5.7C4.20883 19 3 17.8011 3 16.3223V14.5372C3 13.1155 4.1172 11.9525 5.52842 11.8648L6.61517 8.27218C6.84358 7.5171 7.54436 7 8.33926 7Z" fill="transparent" class="icon-offset"></path>
  <path fill-rule="evenodd" clip-rule="evenodd" d="M5.3527 9.86968H10.1157V6.241H7.09727C6.90425 6.241 6.71124 6.30277 6.5491 6.41858C6.38697 6.53438 6.27116 6.69652 6.21712 6.88181L5.3527 9.86968ZM11.351 9.86968H16.6151L14.8179 6.54982C14.7638 6.44946 14.6943 6.37225 14.594 6.31821C14.509 6.26416 14.4009 6.241 14.2851 6.241H11.351V9.86968ZM18.0134 9.86968L15.8987 5.97078C15.7443 5.6774 15.5127 5.43034 15.2193 5.26049C14.9414 5.09835 14.6171 5.01343 14.2774 5.01343H7.08954C6.63403 5.01343 6.18624 5.16012 5.80793 5.43034C5.42962 5.70828 5.1594 6.08659 5.02043 6.52666L4.04583 9.87815C3.39362 9.92903 2.78331 10.2077 2.31066 10.6803C1.78566 11.1976 1.5 11.8925 1.5 12.6336V14.3167C1.5 15.0502 1.78566 15.745 2.31066 16.27C2.79337 16.76 3.43071 17.0415 4.11603 17.0769C4.39167 18.172 5.38671 18.9877 6.56487 18.9877C7.74157 18.9877 8.73561 18.174 9.01268 17.0809H15.0487C15.3258 18.174 16.3199 18.9877 17.4966 18.9877C18.6762 18.9877 19.6722 18.17 19.9464 17.0728C20.6015 17.0236 21.2148 16.7446 21.6893 16.27C22.2143 15.7528 22.5 15.0579 22.5 14.3167V12.6336C22.5 11.9002 22.2066 11.2053 21.6893 10.6803C21.1721 10.1553 20.4772 9.86968 19.736 9.86968H18.0134ZM19.9409 15.8317C20.2727 15.7871 20.5795 15.6351 20.8169 15.3976C21.1026 15.112 21.2647 14.7259 21.2647 14.3167V12.6336C21.2647 12.2245 21.1026 11.8384 20.8169 11.5528C20.5312 11.2671 20.1452 11.105 19.736 11.105H4.26397C3.85478 11.105 3.46875 11.2671 3.18309 11.5528C2.89743 11.8384 2.73529 12.2245 2.73529 12.6336V14.3167C2.73529 14.7259 2.89743 15.112 3.18309 15.3976C3.43469 15.6492 3.76416 15.805 4.11874 15.8386C4.39814 14.7488 5.39054 13.9384 6.56487 13.9384C7.74174 13.9384 8.7359 14.7523 9.0128 15.8457H15.0486C15.3255 14.7523 16.3197 13.9384 17.4966 13.9384C18.6684 13.9384 19.6591 14.7455 19.9409 15.8317ZM16.2075 16.4882C16.2078 16.4799 16.208 16.4716 16.208 16.4633C16.208 16.4549 16.2078 16.4466 16.2075 16.4382C16.2208 15.7393 16.7946 15.1737 17.4966 15.1737C18.2069 15.1737 18.7859 15.7528 18.7859 16.4631C18.7859 17.1734 18.2069 17.7524 17.4966 17.7524C16.7947 17.7524 16.2209 17.187 16.2075 16.4882ZM12.2546 13.3519H11.166C10.8263 13.3519 10.5484 13.074 10.5484 12.7343C10.5484 12.3946 10.8263 12.1167 11.166 12.1167H12.2546C12.5943 12.1167 12.8723 12.3946 12.8723 12.7343C12.8723 13.074 12.5943 13.3519 12.2546 13.3519ZM6.56487 15.1737C5.85457 15.1737 5.27553 15.7528 5.27553 16.4631C5.27553 17.1734 5.85457 17.7524 6.56487 17.7524C7.27516 17.7524 7.8542 17.1734 7.8542 16.4631C7.8542 15.7528 7.27516 15.1737 6.56487 15.1737Z" class="icon-base"></path>
</svg>
