<svg viewBox="0 0 24 24" fill="currentColor" xmlns="http://www.w3.org/2000/svg" focusable="false">
  <title>Stars Icon</title>
  <path d="M15.9275 23.9879C15.4059 23.9879 14.9393 23.6951 14.7197 23.2193L12.8529 19.2391C12.8072 19.1385 12.7157 19.0561 12.615 19.0012L8.64365 17.1347C8.16782 16.9059 7.875 16.4484 7.875 15.9269C7.875 15.4053 8.16782 14.9478 8.64365 14.7191L12.6242 12.8525C12.7248 12.8068 12.8072 12.7153 12.8621 12.6146L14.7288 8.64359C14.9484 8.1678 15.4151 7.875 15.9367 7.875C16.4583 7.875 16.9249 8.1678 17.1446 8.64359L19.0113 12.6238C19.057 12.7244 19.1394 12.8068 19.2492 12.8617L23.2206 14.7282C23.6964 14.957 23.9892 15.4145 23.9892 15.936C23.9892 16.4576 23.6964 16.9242 23.2206 17.1438L19.2401 19.0104C19.1394 19.0561 19.057 19.1385 19.0021 19.2483L17.1354 23.2193C16.9066 23.6951 16.4491 23.9879 15.9275 23.9879Z" fill="transparent" class="icon-offset"></path>
  <path fill-rule="evenodd" clip-rule="evenodd" d="M5.19684 9.77148C5.28835 10.0826 5.57202 10.293 5.89229 10.293H5.90144C6.22171 10.293 6.50538 10.0826 6.59689 9.77148C7.06357 8.2526 8.25315 7.06312 9.77215 6.59647C10.0833 6.49582 10.2937 6.21218 10.2937 5.89193C10.2937 5.57169 10.0833 5.28804 9.77215 5.19654C8.25315 4.73905 7.06357 3.54957 6.59689 2.02154C6.49623 1.71045 6.21256 1.5 5.89229 1.5C5.57202 1.5 5.28835 1.71045 5.19684 2.02154C4.73016 3.54042 3.54974 4.7299 2.02158 5.19654C1.71046 5.29719 1.5 5.58084 1.5 5.90108C1.5 6.22133 1.71046 6.50497 2.02158 6.59647C3.54058 7.06312 4.73016 8.24345 5.19684 9.77148ZM5.89229 7.82255C5.39816 7.04482 4.74846 6.39518 3.97066 5.90108C4.74846 5.40699 5.39816 4.7482 5.89229 3.97961C6.38642 4.75735 7.04527 5.40699 7.81392 5.90108C7.03612 6.39518 6.38642 7.04482 5.89229 7.82255ZM13.2297 21.7316C13.4493 22.2074 13.916 22.5002 14.4376 22.5002C14.9592 22.5002 15.4167 22.2074 15.6454 21.7316L17.5122 17.7606C17.5671 17.6508 17.6494 17.5684 17.7501 17.5227L21.7306 15.6561C22.2064 15.4365 22.4993 14.9699 22.4993 14.4483C22.4993 13.9268 22.2064 13.4693 21.7306 13.2405L17.7592 11.374C17.6494 11.3191 17.5671 11.2367 17.5213 11.1361L15.6546 7.15588C15.435 6.68009 14.9683 6.38729 14.4467 6.38729C13.9251 6.38729 13.4585 6.68009 13.2388 7.15588L11.3721 11.1269C11.3172 11.2276 11.2349 11.3191 11.1342 11.3648L7.15369 13.2314C6.67785 13.4601 6.38503 13.9176 6.38503 14.4392C6.38503 14.9607 6.67785 15.4182 7.15369 15.6469L11.125 17.5135C11.2257 17.5684 11.3172 17.6508 11.363 17.7514L13.2297 21.7316ZM11.7473 16.1959L8.02299 14.4483L8.01384 14.43L11.7473 12.6824C12.1499 12.4902 12.4885 12.1609 12.6807 11.7491L14.4284 8.02511L16.1762 11.7583C16.3683 12.1609 16.6978 12.4994 17.1095 12.6915L20.843 14.4392L17.1095 16.1959C16.6978 16.3881 16.3683 16.7175 16.1762 17.1292L14.4284 20.8624L12.6807 17.1292C12.4885 16.7266 12.1591 16.3881 11.7473 16.1959Z" class="icon-base"></path>
</svg>
