<svg viewBox="0 0 24 24" fill="currentColor" xmlns="http://www.w3.org/2000/svg" focusable="false">
  <title>Bank With Star Icon</title>
  <path fill-rule="evenodd" clip-rule="evenodd" d="M21.6145 11.8113H22.4448V11.8032C23.2187 11.8032 23.854 11.1781 23.854 10.3988V9.80622C23.854 9.32727 23.6178 8.88079 23.2105 8.62102L14.6655 3.12529C14.2012 2.82494 13.5984 2.82494 13.1341 3.12529L4.58911 8.62914C4.18997 8.88891 3.94559 9.33539 3.94559 9.81434V10.4069C3.94559 11.1781 4.57282 11.8113 5.35482 11.8113H6.18532V18.7198H5.48531C4.92324 18.7198 4.45078 19.1013 4.3286 19.6452L3.92945 21.4717C3.84799 21.8207 3.9376 22.186 4.16568 22.462C4.39376 22.7381 4.72774 22.9004 5.08616 22.9004H22.7136C23.0721 22.9004 23.406 22.7381 23.6341 22.462C23.8622 22.186 23.9518 21.8207 23.8704 21.4717L23.4712 19.6452C23.349 19.1013 22.8766 18.7198 22.3145 18.7198H21.6145V11.8113Z" fill="transparent" class="icon-offset"></path>
  <path fill-rule="evenodd" clip-rule="evenodd" d="M21.0097 10.7925H20.1354V12.2575C20.1354 12.6322 19.8269 12.9388 19.4498 12.9388C19.0728 12.9388 18.7643 12.6322 18.7643 12.2575V10.7925H15.1822V13.8416C15.1822 14.2164 14.8737 14.523 14.4966 14.523C14.1195 14.523 13.811 14.2164 13.811 13.8416V10.7925H10.2289V18.0402H12.0203C12.3974 18.0402 12.7059 18.3468 12.7059 18.7215C12.7059 19.0962 12.3974 19.4028 12.0203 19.4028H9.56065L9.54335 19.4031L9.52605 19.4028H4.60741L4.59011 19.4031L4.57281 19.4028H3.27072L2.90222 21.0636H12.5945C12.9715 21.0636 13.28 21.3702 13.28 21.745C13.28 22.1197 12.9715 22.4263 12.5945 22.4263H2.74797C2.37091 22.4263 2.01955 22.256 1.7796 21.9664C1.53965 21.6768 1.44539 21.2936 1.53108 20.9273L1.951 19.0111C2.07954 18.4404 2.57658 18.0402 3.16788 18.0402H3.90454V10.7925H3.03063C2.20795 10.7925 1.54809 10.1282 1.54809 9.31911V8.69739C1.54809 8.1949 1.80517 7.72648 2.22509 7.45394L11.2146 1.67958C11.7031 1.36446 12.3372 1.36446 12.8257 1.67958L21.8152 7.44542C22.2437 7.71796 22.4922 8.18638 22.4922 8.68887V9.31059C22.4922 10.1282 21.8238 10.784 21.0097 10.784V10.7925ZM21.0183 9.42983H19.5573C19.5222 9.42429 19.4864 9.42142 19.4498 9.42142C19.4133 9.42142 19.3774 9.42429 19.3424 9.42983H14.604C14.569 9.42429 14.5331 9.42142 14.4966 9.42142C14.4601 9.42142 14.4242 9.42429 14.3892 9.42983H3.03063C2.97064 9.42983 2.91923 9.37873 2.91923 9.31911V8.69739C2.91923 8.6548 2.97064 8.59519 2.97064 8.59519H2.97921L11.9687 2.82934C12.003 2.80379 12.0887 2.82934 12.0887 2.82934L21.0783 8.59519C21.1125 8.62074 21.1297 8.69739 21.1297 8.69739V9.31911C21.1297 9.37873 21.0783 9.42983 21.0183 9.42983ZM5.27568 10.7925H8.85778V18.0402H5.27568V10.7925ZM12.0202 7.46245C11.6431 7.46245 11.3346 7.15585 11.3346 6.78111C11.3346 6.40638 11.6431 6.09126 12.0202 6.09126C12.3972 6.09126 12.7057 6.38934 12.7057 6.76408C12.7057 7.15585 12.3972 7.45394 12.0202 7.45394V7.46245ZM19.6302 22.2983C19.7759 22.3749 19.9473 22.4175 20.1101 22.4175V22.4431C20.137 22.4431 20.1639 22.4407 20.1895 22.4385C20.2129 22.4365 20.2353 22.4346 20.2558 22.4346C20.5214 22.4005 20.77 22.2557 20.9328 22.0343C21.087 21.8213 21.147 21.5658 21.1127 21.2763L20.77 19.3515L22.1839 17.9973C22.561 17.6396 22.6039 17.0605 22.2953 16.6687C22.1325 16.4558 21.884 16.311 21.6269 16.2769L19.673 15.9959L18.7989 14.2414C18.7732 14.1988 18.7475 14.1563 18.7218 14.1222C18.6104 13.9689 18.4733 13.8497 18.3276 13.7815C18.0791 13.6708 17.7963 13.6453 17.5478 13.7389C17.2993 13.8241 17.0936 14.003 16.9736 14.2414L16.0995 15.9874L14.1371 16.2684C13.9314 16.294 13.7429 16.3877 13.5543 16.558C13.1687 16.9498 13.1773 17.5885 13.5715 17.9803L14.994 19.3345L14.6598 21.2507C14.617 21.4722 14.6598 21.7021 14.7712 21.9065C15.0369 22.3749 15.6282 22.5538 16.1252 22.3068L17.8906 21.3955L19.6302 22.2983ZM16.0824 18.4828L15.0626 17.5033V17.4948L16.4937 17.2904C16.8108 17.2393 17.085 17.0349 17.2478 16.7368L17.882 15.4593L18.5161 16.7368C18.6704 17.052 18.9618 17.2649 19.2874 17.2989L20.7014 17.5033L19.6816 18.4828C19.4245 18.7212 19.3131 19.0619 19.3817 19.3856L19.6302 20.7653L18.3619 20.1095C18.0705 19.9562 17.7106 19.9562 17.4192 20.1095L16.1338 20.7823L16.3823 19.377C16.4337 19.0364 16.3223 18.7042 16.0824 18.4828Z" class="icon-base"></path>
</svg>
