<svg viewBox="0 0 24 24" fill="currentColor" xmlns="http://www.w3.org/2000/svg" focusable="false">
  <title>Bank With Check Mark Icon</title>
  <path fill-rule="evenodd" clip-rule="evenodd" d="M21.6145 11.8113H22.4448V11.8032C23.2187 11.8032 23.854 11.1781 23.854 10.3988V9.80622C23.854 9.32727 23.6178 8.88079 23.2105 8.62102L14.6655 3.12529C14.2012 2.82494 13.5984 2.82494 13.1341 3.12529L4.58911 8.62914C4.18997 8.88891 3.94559 9.33539 3.94559 9.81434V10.4069C3.94559 11.1781 4.57282 11.8113 5.35482 11.8113H6.18532V18.7198H5.48531C4.92324 18.7198 4.45078 19.1013 4.3286 19.6452L3.92945 21.4717C3.84799 21.8207 3.9376 22.186 4.16568 22.462C4.39376 22.7381 4.72774 22.9004 5.08616 22.9004H22.7136C23.0721 22.9004 23.406 22.7381 23.6341 22.462C23.8622 22.186 23.9518 21.8207 23.8704 21.4717L23.4712 19.6452C23.349 19.1013 22.8766 18.7198 22.3145 18.7198H21.6145V11.8113Z" fill="transparent" class="icon-offset"></path>
  <path fill-rule="evenodd" clip-rule="evenodd" d="M20.7243 10.857H19.8628V14.4798C19.8628 14.8548 19.5588 15.1617 19.1873 15.1617C18.8157 15.1617 18.5117 14.8548 18.5117 14.4798V10.857H14.982V15.6134C14.982 15.9885 14.678 16.2953 14.3065 16.2953C13.9349 16.2953 13.631 15.9885 13.631 15.6134V10.857H10.1012V18.1108H11.8664C12.238 18.1108 12.5419 18.4177 12.5419 18.7927C12.5419 19.1678 12.238 19.4746 11.8664 19.4746H9.43464L9.42571 19.4747L9.41678 19.4746H4.55385L4.54493 19.4747L4.536 19.4746H3.24482L2.88171 21.1367H12.9895C13.361 21.1367 13.665 21.4436 13.665 21.8186C13.665 22.1937 13.361 22.5005 12.9895 22.5005H2.72972C2.35817 22.5005 2.01195 22.33 1.77551 22.0402C1.53907 21.7504 1.44619 21.3669 1.53063 21.0003L1.9444 19.0825C2.07106 18.5114 2.56083 18.1108 3.14348 18.1108H3.86938V10.857H3.00829C2.19764 10.857 1.54743 10.1921 1.54743 9.38238V8.76015C1.54743 8.25725 1.80076 7.78845 2.21452 7.5157L11.0726 1.73665C11.5539 1.42128 12.1788 1.42128 12.6601 1.73665L21.5181 7.50717C21.9403 7.77993 22.1852 8.24873 22.1852 8.75163V9.37385C22.1852 10.1921 21.5265 10.8484 20.7243 10.8484V10.857ZM20.7328 9.49319H14.4113C14.3771 9.48776 14.3421 9.48494 14.3065 9.48494C14.2709 9.48494 14.2359 9.48776 14.2017 9.49319H3.00829C2.94918 9.49319 2.89851 9.44204 2.89851 9.38238V8.76015C2.89851 8.71753 2.94918 8.65787 2.94918 8.65787H2.95762L11.8156 2.88735C11.8494 2.86178 11.9339 2.88735 11.9339 2.88735L20.7919 8.65787C20.8257 8.68344 20.8426 8.76015 20.8426 8.76015V9.38238C20.8426 9.44204 20.7919 9.49319 20.7328 9.49319ZM5.22047 10.857H8.75017V18.1108H5.22047V10.857ZM11.8662 7.52444C11.4947 7.52444 11.1907 7.21759 11.1907 6.84255C11.1907 6.46751 11.4947 6.15213 11.8662 6.15213C12.2378 6.15213 12.5418 6.45046 12.5418 6.8255C12.5418 7.21759 12.2378 7.51592 11.8662 7.51592V7.52444ZM16.6803 22.0741C16.683 22.0741 16.6858 22.0741 16.6885 22.0741H16.6716C16.6745 22.0741 16.6774 22.0741 16.6803 22.0741ZM16.2072 21.8781C16.3319 22.004 16.5057 22.072 16.6803 22.0741C16.8626 22.072 17.0282 22.004 17.1529 21.8781L22.3039 16.6787C22.5657 16.4144 22.5657 15.9797 22.3039 15.7155C22.0422 15.4513 21.6115 15.4513 21.3497 15.7155L16.6801 20.4291L14.6619 18.3834C14.4001 18.1192 13.9695 18.1192 13.7077 18.3834C13.4459 18.6476 13.4459 19.0823 13.7077 19.3466L16.2072 21.8781Z" class="icon-base"></path>
</svg>
