<svg viewBox="0 0 24 24" fill="currentColor" xmlns="http://www.w3.org/2000/svg" focusable="false">
  <title>Bank Icon</title>
  <path fill-rule="evenodd" clip-rule="evenodd" d="M21.6145 11.8113H22.4448V11.8032C23.2187 11.8032 23.854 11.1781 23.854 10.3988V9.80622C23.854 9.32727 23.6178 8.88079 23.2105 8.62102L14.6655 3.12529C14.2012 2.82494 13.5984 2.82494 13.1341 3.12529L4.58911 8.62914C4.18997 8.88891 3.94559 9.33539 3.94559 9.81434V10.4069C3.94559 11.1781 4.57282 11.8113 5.35482 11.8113H6.18532V18.7198H5.48531C4.92324 18.7198 4.45078 19.1013 4.3286 19.6452L3.92945 21.4717C3.84799 21.8207 3.9376 22.186 4.16568 22.462C4.39376 22.7381 4.72774 22.9004 5.08616 22.9004H22.7136C23.0721 22.9004 23.406 22.7381 23.6341 22.462C23.8622 22.186 23.9518 21.8207 23.8704 21.4717L23.4712 19.6452C23.349 19.1013 22.8766 18.7198 22.3145 18.7198H21.6145V11.8113Z" fill="transparent" class="icon-offset"></path>
  <path fill-rule="evenodd" clip-rule="evenodd" d="M20.1058 10.8529H20.9789V10.8444C21.7919 10.8444 22.4594 10.1884 22.4594 9.37042V8.74844C22.4594 8.24575 22.2112 7.77714 21.7833 7.50449L12.8065 1.73631C12.3188 1.42107 11.6855 1.42107 11.1977 1.73631L2.22093 7.51301C1.80162 7.78566 1.54489 8.25427 1.54489 8.75696V9.37894C1.54489 10.1884 2.20382 10.8529 3.02534 10.8529H3.89795V18.1031H3.16196C2.57149 18.1031 2.07516 18.5036 1.94679 19.0744L1.52748 20.9915C1.45046 21.3579 1.53603 21.7413 1.77564 22.031C2.01525 22.3206 2.36611 22.4911 2.74264 22.4911H21.2696L21.2525 22.4996C21.6376 22.4996 21.9884 22.3292 22.228 22.031C22.4676 21.7413 22.5532 21.3579 22.4676 20.9915L22.0483 19.0744C21.92 18.5121 21.4151 18.1031 20.8332 18.1031H20.1058V10.8529ZM19.439 9.4897C19.4331 9.48955 19.4272 9.48947 19.4212 9.48947C19.4153 9.48947 19.4094 9.48955 19.4035 9.4897H14.4927C14.4868 9.48955 14.4809 9.48947 14.475 9.48947C14.4691 9.48947 14.4632 9.48955 14.4573 9.4897H9.54652C9.54062 9.48955 9.53471 9.48947 9.52877 9.48947C9.52284 9.48947 9.51693 9.48955 9.51103 9.4897H4.60029C4.59439 9.48955 4.58848 9.48947 4.58255 9.48947C4.57662 9.48947 4.5707 9.48955 4.5648 9.4897H3.02534C2.96543 9.4897 2.91409 9.43858 2.91409 9.37894V8.75696C2.91409 8.71436 2.96543 8.65472 2.96543 8.65472H2.97399L11.9508 2.88654C11.985 2.86098 12.0706 2.88654 12.0706 2.88654L21.0474 8.65472C21.0816 8.68028 21.0987 8.75696 21.0987 8.75696V9.37894C21.0987 9.43858 21.0474 9.4897 20.9875 9.4897H19.439ZM5.26715 10.8529V18.1031H8.84417V10.8529H5.26715ZM10.2134 10.8529V18.1031H13.7904V10.8529H10.2134ZM15.1596 10.8529H18.7366V18.1031H15.1596V10.8529ZM14.4565 19.4664C14.4626 19.4665 14.4688 19.4666 14.475 19.4666C14.4812 19.4666 14.4874 19.4665 14.4935 19.4664H19.4027C19.4089 19.4665 19.415 19.4666 19.4212 19.4666C19.4274 19.4666 19.4336 19.4665 19.4398 19.4664H20.739L21.107 21.1278H2.89667L3.26465 19.4664H4.56402C4.57018 19.4665 4.57635 19.4666 4.58255 19.4666C4.58874 19.4666 4.59492 19.4665 4.60107 19.4664H9.51025C9.5164 19.4665 9.52258 19.4666 9.52877 19.4666C9.53497 19.4666 9.54114 19.4665 9.5473 19.4664H14.4565ZM11.317 6.84009C11.317 7.21498 11.6251 7.52171 12.0016 7.52171V7.51319C12.3781 7.51319 12.6862 7.21498 12.6862 6.82305C12.6862 6.44816 12.3781 6.14996 12.0016 6.14996C11.6251 6.14996 11.317 6.4652 11.317 6.84009Z" class="icon-base"></path>
</svg>
