<svg viewBox="0 0 24 24" fill="currentColor" xmlns="http://www.w3.org/2000/svg" focusable="false">
  <title>Bank With Search Icon</title>
  <path fill-rule="evenodd" clip-rule="evenodd" d="M21.6145 11.8113H22.4448V11.8032C23.2187 11.8032 23.854 11.1781 23.854 10.3988V9.80622C23.854 9.32727 23.6178 8.88079 23.2105 8.62102L14.6655 3.12529C14.2012 2.82494 13.5984 2.82494 13.1341 3.12529L4.58911 8.62914C4.18997 8.88891 3.94559 9.33539 3.94559 9.81434V10.4069C3.94559 11.1781 4.57282 11.8113 5.35482 11.8113H6.18532V18.7198H5.48531C4.92324 18.7198 4.45078 19.1013 4.3286 19.6452L3.92945 21.4717C3.84799 21.8207 3.9376 22.186 4.16568 22.462C4.39376 22.7381 4.72774 22.9004 5.08616 22.9004H22.7136C23.0721 22.9004 23.406 22.7381 23.6341 22.462C23.8622 22.186 23.9518 21.8207 23.8704 21.4717L23.4712 19.6452C23.349 19.1013 22.8766 18.7198 22.3145 18.7198H21.6145V11.8113Z" fill="transparent" class="icon-offset"></path>
  <path fill-rule="evenodd" clip-rule="evenodd" d="M20.1424 10.8415H21.0167V10.833C21.8312 10.833 22.4998 10.1777 22.4998 9.3608V8.73959C22.4998 8.23751 22.2512 7.76947 21.8226 7.49716L12.8298 1.73602C12.3412 1.42116 11.7068 1.42116 11.2181 1.73602L2.22535 7.50567C1.80528 7.77798 1.5481 8.24602 1.5481 8.7481V9.36931C1.5481 10.1777 2.2082 10.8415 3.03118 10.8415H3.90564V18.0832H3.16849C2.57697 18.0832 2.07975 18.4831 1.95116 19.0533L1.5311 20.968C1.44537 21.3339 1.53967 21.7169 1.77971 22.0062C2.01974 22.2955 2.37122 22.4657 2.74842 22.4657H13.1643C13.5415 22.4657 13.8501 22.1594 13.8501 21.7849C13.8501 21.4105 13.5415 21.1041 13.1643 21.1041H2.90273L3.27136 19.4447H4.56736C4.57536 19.445 4.58339 19.4452 4.59146 19.4452C4.59952 19.4452 4.60755 19.445 4.61555 19.4447H9.52239C9.53039 19.445 9.53842 19.4452 9.54649 19.4452C9.55455 19.4452 9.56258 19.445 9.57058 19.4447H12.0241C12.4013 19.4447 12.7099 19.1384 12.7099 18.7639C12.7099 18.3895 12.4013 18.0832 12.0241 18.0832H10.2323V10.8415H13.8157V12.7565C13.8157 13.1309 14.1243 13.4372 14.5015 13.4372C14.8787 13.4372 15.1873 13.1309 15.1873 12.7565V10.8415H18.7707V12.1863C18.7707 12.5607 19.0793 12.8671 19.4565 12.8671C19.8337 12.8671 20.1424 12.5607 20.1424 12.1863V10.8415ZM19.5632 9.47994H21.0253C21.0853 9.47994 21.1368 9.42888 21.1368 9.36931V8.7481C21.1368 8.7481 21.1196 8.67151 21.0853 8.64598L12.0925 2.88485C12.0925 2.88485 12.0068 2.85932 11.9725 2.88485L2.97975 8.64598H2.97117C2.97117 8.64598 2.91974 8.70555 2.91974 8.7481V9.36931C2.91974 9.42888 2.97117 9.47994 3.03118 9.47994H19.3499C19.3847 9.4745 19.4203 9.47167 19.4565 9.47167C19.4928 9.47167 19.5284 9.4745 19.5632 9.47994ZM8.86067 10.8415H5.27727V18.0832H8.86067V10.8415ZM11.3383 6.83327C11.3383 7.2077 11.6469 7.51406 12.0241 7.51406V7.50555C12.4013 7.50555 12.7099 7.2077 12.7099 6.81625C12.7099 6.44182 12.4013 6.14398 12.0241 6.14398C11.6469 6.14398 11.3383 6.45884 11.3383 6.83327ZM17.6222 21.6743C16.5506 21.6743 15.539 21.2573 14.7761 20.4999C14.0131 19.7426 13.593 18.7469 13.593 17.6747C13.593 16.6025 14.0131 15.6068 14.7761 14.8494C15.539 14.0921 16.542 13.6751 17.6222 13.6751C18.7024 13.6751 19.7054 14.0921 20.4683 14.8494C21.8736 16.2444 22.0201 18.4246 20.9078 19.9833L22.2773 21.3427C22.543 21.6065 22.543 22.0405 22.2773 22.3043C22.1415 22.4391 21.9721 22.4989 21.794 22.5001C21.6152 22.4993 21.4449 22.4312 21.3086 22.3043L19.9384 20.9442C19.2634 21.4187 18.4612 21.6743 17.6222 21.6743ZM21.794 22.5001C21.7922 22.5001 21.7904 22.5001 21.7886 22.5001H21.7972C21.7962 22.5001 21.7951 22.5001 21.794 22.5001ZM17.6222 15.0452C16.9107 15.0452 16.2506 15.3175 15.7448 15.8196C15.239 16.3216 14.9647 16.9769 14.9647 17.6832C14.9647 18.3895 15.239 19.0448 15.7448 19.5468C16.7478 20.5425 18.4966 20.5425 19.4996 19.5468C20.5369 18.5172 20.5369 16.8492 19.4996 15.8196C19.0024 15.326 18.3337 15.0452 17.6222 15.0452Z" class="icon-base"></path>
</svg>
