<svg viewBox="0 0 24 24" fill="currentColor" xmlns="http://www.w3.org/2000/svg" focusable="false">
  <title>Bitcoin Icon</title>
  <path d="M13 23C7.48824 23 3 18.5118 3 13C3 7.48824 7.48824 3 13 3C18.5118 3 23 7.48824 23 13C23 18.5118 18.5118 23 13 23Z" fill="transparent" class="icon-offset"></path>
  <path d="M13.3774 16.62H8.98588C8.64618 16.62 8.36824 16.3421 8.36824 16.0024C8.36824 15.6626 8.64618 15.3847 8.98588 15.3847H13.3774C14.2544 15.3847 14.9647 14.6744 14.9647 13.7974C14.9647 12.9203 14.2544 12.21 13.3774 12.21H9.67765C9.33794 12.21 9.06 11.9321 9.06 11.5924C9.06 11.2526 9.33794 10.9747 9.67765 10.9747H13.3774C14.9338 10.9747 16.2 12.2409 16.2 13.7974C16.2 15.3538 14.9338 16.62 13.3774 16.62Z" class="icon-base"></path>
  <path d="M13.1612 12.2038C12.8215 12.2038 12.5497 11.9321 12.5435 11.5924C12.5435 11.2526 12.8153 10.9685 13.155 10.9685C13.7974 10.9624 14.3162 10.4312 14.3162 9.78883C14.3162 9.14647 13.785 8.60912 13.1365 8.60912H8.98588C8.64618 8.60912 8.36824 8.33118 8.36824 7.99147C8.36824 7.65177 8.64618 7.37382 8.98588 7.37382H13.1365C14.4706 7.37382 15.5515 8.45471 15.5515 9.78883C15.5515 11.1229 14.4829 12.1853 13.1674 12.2038H13.1612Z" class="icon-base"></path>
  <path d="M9.66529 16.62C9.32559 16.62 9.04765 16.3421 9.04765 16.0024V7.99765C9.04765 7.65794 9.32559 7.38 9.66529 7.38C10.005 7.38 10.2829 7.65794 10.2829 7.99765V16.0024C10.2829 16.3421 10.005 16.62 9.66529 16.62Z" class="icon-base"></path>
  <path d="M10.7338 8.61529C10.3941 8.61529 10.1162 8.33735 10.1162 7.99765V6.83647C10.1162 6.49677 10.3941 6.21882 10.7338 6.21882C11.0735 6.21882 11.3515 6.49677 11.3515 6.83647V7.99765C11.3515 8.33735 11.0735 8.61529 10.7338 8.61529Z" class="icon-base"></path>
  <path d="M13.1674 8.61529C12.8276 8.61529 12.5497 8.33735 12.5497 7.99765V6.83647C12.5497 6.49677 12.8276 6.21882 13.1674 6.21882C13.5071 6.21882 13.785 6.49677 13.785 6.83647V7.99765C13.785 8.33735 13.5071 8.61529 13.1674 8.61529Z" class="icon-base"></path>
  <path d="M10.7338 17.775C10.3941 17.775 10.1162 17.4971 10.1162 17.1574V16.0024C10.1162 15.6626 10.3941 15.3847 10.7338 15.3847C11.0735 15.3847 11.3515 15.6626 11.3515 16.0024V17.1574C11.3515 17.4971 11.0735 17.775 10.7338 17.775Z" class="icon-base"></path>
  <path d="M13.1674 17.775C12.8276 17.775 12.5497 17.4971 12.5497 17.1574V16.0024C12.5497 15.6626 12.8276 15.3847 13.1674 15.3847C13.5071 15.3847 13.785 15.6626 13.785 16.0024V17.1574C13.785 17.4971 13.5071 17.775 13.1674 17.775Z" class="icon-base"></path>
  <path d="M12 22.5C6.21265 22.5 1.5 17.7874 1.5 12C1.5 6.21265 6.21265 1.5 12 1.5C17.7874 1.5 22.5 6.21265 22.5 12C22.5 17.7874 17.7874 22.5 12 22.5ZM12 2.73529C6.89206 2.73529 2.73529 6.89206 2.73529 12C2.73529 17.1079 6.89206 21.2647 12 21.2647C17.1079 21.2647 21.2647 17.1079 21.2647 12C21.2647 6.89206 17.1079 2.73529 12 2.73529Z" class="icon-base"></path>
</svg>
