<svg viewBox="0 0 24 24" fill="currentColor" xmlns="http://www.w3.org/2000/svg" focusable="false">
  <title>Bookmark Icon</title>
  <path d="M10.0533 4C6 4 6 6.07173 6 6.7553C6 6.7553 6.00146 19.8853 6.00146 20.7931C6.00146 21.7008 6.78264 21.2049 6.78264 21.2049L12 18C12.2803 17.8528 12.7197 17.8528 13 18L19.5015 21.8673C19.5015 21.8673 20.5015 22.3636 21 21.4367L20.9985 6.93408C20.9985 5.67211 20.578 4 16.9452 4H10.03H10.0533Z" fill="transparent" class="icon-offset"></path>
  <path d="M5.19996 22.4786C4.71806 22.4786 4.26829 22.2965 3.92561 21.9538C3.58293 21.6112 3.40088 21.1614 3.40088 20.6795V6.00841C3.40088 3.13845 5.38201 1.5 8.83025 1.5H15.1699C18.6181 1.5 20.5992 3.21341 20.5992 6.20117V20.6902C20.5992 21.0008 20.5243 21.3113 20.3744 21.579C19.8818 22.4465 18.7787 22.7463 17.922 22.2644L12.0322 18.9447L6.08879 22.2751C5.82107 22.425 5.51052 22.5 5.21067 22.5L5.19996 22.4786ZM8.83025 3.2027C5.11429 3.2027 5.11429 5.31234 5.11429 6.00841V20.6795L5.19996 20.7652L11.6038 17.1884C11.8608 17.0385 12.1821 17.0385 12.4391 17.1884L18.7466 20.7545C18.7466 20.7545 18.843 20.7545 18.8644 20.7223V6.19046C18.8644 4.90541 18.4789 3.2027 15.1485 3.2027H8.80883H8.83025Z" class="icon-base"></path>
</svg>
