<svg viewBox="0 0 24 24" fill="currentColor" xmlns="http://www.w3.org/2000/svg" focusable="false">
  <title>Book Icon</title>
  <path d="M5.55452 21.1405C8.54398 21.3021 11.1833 22.4871 12.8711 23.4657C13.5174 23.8427 14.2895 23.8427 14.9359 23.4657C16.6416 22.4871 19.3078 21.2842 22.3422 21.1405C23.2489 21.0957 23.9581 20.3685 23.9581 19.4708V6.38176C23.9581 5.91494 23.7606 5.45709 23.4284 5.14288C23.0963 4.83765 22.6833 4.68504 22.2255 4.70299C19.5323 4.87356 17.1622 5.95085 15.6541 6.83063C14.5768 7.45007 13.2391 7.45007 12.1529 6.83063C10.6357 5.95085 8.26568 4.87356 5.57247 4.70299C5.13258 4.67606 4.70167 4.82868 4.36951 5.13391C4.02837 5.44811 3.83984 5.90596 3.83984 6.37278V19.4528C3.83984 20.3505 4.54906 21.0777 5.45577 21.1226C5.49168 21.1226 5.51861 21.1226 5.55452 21.1316V21.1405Z" fill="transparent" class="icon-offset"></path>
  <path fill-rule="evenodd" clip-rule="evenodd" d="M11.9918 22.0029C11.4426 22.0029 10.8852 21.8635 10.3934 21.5767C8.95902 20.7488 6.72951 19.7406 4.22131 19.6258H4.22129C4.18851 19.6258 4.15573 19.6258 4.12295 19.6176C2.63934 19.5029 1.5 18.2734 1.5 16.7898V4.84716C1.5 4.06027 1.82787 3.29798 2.40164 2.75699C2.96721 2.2242 3.70492 1.96191 4.47541 2.00289C7.18033 2.16683 9.54918 3.2488 11.0574 4.11765C11.6475 4.45371 12.3525 4.45371 12.9426 4.11765C14.4426 3.2488 16.8033 2.17502 19.5164 2.00289C20.2869 1.95371 21.0328 2.2242 21.5984 2.75699C22.1721 3.29798 22.5 4.05207 22.5 4.84716V16.7898C22.5 18.3062 21.3033 19.5521 19.7787 19.6258C17.2705 19.7406 15.041 20.7488 13.6066 21.5767C13.1148 21.8635 12.5574 22.0029 12.0082 22.0029H11.9918ZM4.36885 18.3226C7.09836 18.4701 9.5082 19.5521 11.0492 20.4455C11.1423 20.4999 11.2384 20.5456 11.3363 20.5828V5.61349C11.0098 5.54566 10.6913 5.42682 10.3934 5.25699C9.0082 4.45371 6.84426 3.47011 4.38525 3.31437C3.98361 3.28978 3.59016 3.42912 3.28689 3.70781C2.97541 3.9947 2.80328 4.41273 2.80328 4.83896V16.7816C2.80328 17.6013 3.45082 18.2652 4.27869 18.3062C4.31148 18.3062 4.33607 18.3062 4.36885 18.3144V18.3226ZM12.9344 20.4455C12.8414 20.4998 12.7456 20.5455 12.6478 20.5826V5.61445C12.975 5.54678 13.2934 5.42763 13.5902 5.25699C13.8882 5.08313 14.2231 4.90083 14.5899 4.7203V9.10856C14.5899 9.35446 14.721 9.57577 14.9341 9.69053C15.0325 9.73971 15.1391 9.7643 15.2456 9.7643V9.7561C15.3686 9.7561 15.4997 9.72331 15.6063 9.64954L16.5243 9.04298C16.6718 8.94462 16.8686 8.94462 17.0079 9.04298L17.9259 9.65774C18.1309 9.78889 18.385 9.80528 18.5981 9.69053C18.8112 9.57577 18.9423 9.34626 18.9423 9.10856V3.37474C19.1557 3.34856 19.3718 3.3282 19.5902 3.31437C20.0082 3.29798 20.3852 3.43732 20.6885 3.71601C20.9918 4.00289 21.1721 4.42093 21.1721 4.84716V16.798C21.1721 17.6176 20.5246 18.2816 19.6967 18.3226C16.9262 18.4537 14.4918 19.5521 12.9344 20.4455ZM17.6309 3.61155C17.0195 3.75666 16.4398 3.94201 15.9014 4.14763V7.88725C16.4423 7.58397 17.0981 7.58397 17.6309 7.88725V3.61155ZM15.6882 15.1828C15.4259 15.1828 15.18 15.0271 15.0816 14.773C14.9505 14.4369 15.1144 14.0517 15.4505 13.9205L17.8357 12.9779C18.1718 12.8468 18.557 13.0107 18.6882 13.3468C18.8193 13.6828 18.6554 14.0681 18.3193 14.1992L15.9341 15.1418C15.8521 15.1746 15.7701 15.191 15.6964 15.191L15.6882 15.1828ZM7.84338 15.1333C7.91715 15.1661 7.99911 15.1825 8.08108 15.1825L8.08928 15.1743C8.34338 15.1743 8.59747 15.0185 8.69584 14.7645C8.82698 14.4284 8.66305 14.0431 8.32698 13.912L5.94174 12.9694C5.60567 12.8382 5.22043 13.0022 5.08928 13.3382C4.95813 13.6743 5.12206 14.0595 5.45813 14.1907L7.84338 15.1333ZM7.84338 10.2153C7.91715 10.2481 7.99911 10.2645 8.08108 10.2645H8.08928C8.34338 10.2645 8.59747 10.1005 8.69584 9.84642C8.82698 9.51035 8.66305 9.12511 8.32698 8.99396L5.94174 8.05134C5.60567 7.92019 5.22043 8.08412 5.08928 8.42019C4.95813 8.75625 5.12206 9.1415 5.45813 9.27265L7.84338 10.2153Z" class="icon-base"></path>
</svg>
