<svg viewBox="0 0 24 24" fill="currentColor" xmlns="http://www.w3.org/2000/svg" focusable="false">
  <title>Briefcase Icon</title>
  <path d="M5.76786 8C4.79464 8 4 8.74954 4 9.67276V21.3272C4 22.2505 4.79464 23 5.76786 23H22.2321C23.2054 23 24 22.2505 24 21.3272V9.67276C24 8.74954 23.2054 8 22.2321 8H5.76786Z" fill="transparent" class="icon-offset"></path>
  <path fill-rule="evenodd" clip-rule="evenodd" d="M16.0809 6.91563L16.0967 6.91581L16.1125 6.91563H19.5572C20.451 6.91563 21.1809 7.58806 21.1809 8.41629V12.3598C15.0841 14.4755 8.90877 14.4745 2.81206 12.3568V8.41629C2.81206 7.58806 3.54189 6.91563 4.43573 6.91563H7.88056L7.89633 6.91581L7.9121 6.91563H16.0809ZM2.81206 13.7484V18.8718C2.81206 19.7 3.54189 20.3724 4.43573 20.3724H19.5572C20.451 20.3724 21.1809 19.7 21.1809 18.8718V13.7512C18.1346 14.7598 15.0697 15.264 12.0048 15.264H11.9966C8.92888 15.264 5.86112 14.7588 2.81206 13.7484ZM22.4929 12.9206V18.8636C22.4929 20.4134 21.1727 21.6763 19.5572 21.6763H4.43573C2.82026 21.6763 1.5 20.4134 1.5 18.8636V8.40809C1.5 6.85822 2.82026 5.59537 4.43573 5.59537H7.2403V5.53815C7.2403 3.76687 8.74917 2.32361 10.6025 2.32361H13.3906C15.2439 2.32361 16.7527 3.76687 16.7527 5.53815V5.59537H19.5572C21.1727 5.59537 22.4929 6.85822 22.4929 8.40809V12.7295C22.5024 12.794 22.5021 12.8583 22.4929 12.9206ZM8.55236 5.59537H15.4407V5.53815C15.4407 4.48851 14.5222 3.63567 13.3906 3.63567H10.6025C9.4708 3.63567 8.55236 4.48851 8.55236 5.53815V5.59537ZM14.4566 11.0161H9.53642C9.1756 11.0161 8.88039 10.7208 8.88039 10.36C8.88039 9.99921 9.1756 9.704 9.53642 9.704H14.4566C14.8175 9.704 15.1127 9.99921 15.1127 10.36C15.1127 10.7208 14.8175 11.0161 14.4566 11.0161Z" class="icon-base"></path>
</svg>
