<svg viewBox="0 0 24 24" fill="currentColor" xmlns="http://www.w3.org/2000/svg" focusable="false">
  <title>Calculator Icon</title>
  <path d="M4.2002 5.70007C4.2002 4.87164 4.87177 4.20007 5.7002 4.20007H22.4552C23.2836 4.20007 23.9552 4.87165 23.9552 5.70007V22.4551C23.9552 23.2835 23.2836 23.9551 22.4552 23.9551H5.70019C4.87177 23.9551 4.2002 23.2835 4.2002 22.4551V5.70007Z" fill="transparent" class="icon-offset"></path>
  <path fill-rule="evenodd" clip-rule="evenodd" d="M4.45619 22.4915H19.5353L19.5438 22.5C21.1795 22.5 22.5 21.171 22.5 19.5438V4.45619C22.5 2.82049 21.171 1.5 19.5438 1.5H4.45619C2.82049 1.5 1.5 2.82901 1.5 4.45619V19.5353C1.5 21.171 2.82901 22.4915 4.45619 22.4915ZM2.86308 4.45619C2.86308 3.5787 3.5787 2.86308 4.45619 2.86308H11.3141V11.2372H2.86308V4.45619ZM2.86308 12.6008V19.5438C2.86308 20.4213 3.5787 21.1369 4.45619 21.1369H11.3141V12.6008H2.86308ZM12.6777 2.86308H19.5438C20.4213 2.86308 21.1369 3.5787 21.1369 4.45619V11.2372H12.6777V2.86308ZM12.6777 12.6008V21.1369H19.5438C20.4213 21.1369 21.1369 20.4213 21.1369 19.5438V12.6008H12.6777ZM6.38116 8.971C6.38116 9.34585 6.68785 9.65254 7.0627 9.65254C7.43755 9.65254 7.74424 9.34585 7.74424 8.971V7.68459H9.03065C9.4055 7.68459 9.71219 7.3779 9.71219 7.00305C9.71219 6.6282 9.4055 6.32151 9.03065 6.32151H7.74424V5.0351C7.74424 4.66025 7.43755 4.35356 7.0627 4.35356C6.68785 4.35356 6.38116 4.66025 6.38116 5.0351V6.32151H5.09475C4.7199 6.32151 4.41321 6.6282 4.41321 7.00305C4.41321 7.3779 4.7199 7.68459 5.09475 7.68459H6.38116V8.971ZM14.9176 7.68517H18.8535C19.2284 7.68517 19.5351 7.37836 19.5351 7.00338C19.5351 6.62839 19.2284 6.32158 18.8535 6.32158H14.9176C14.5428 6.32158 14.2361 6.62839 14.2361 7.00338C14.2361 7.37836 14.5428 7.68517 14.9176 7.68517ZM8.55358 18.8534L8.54956 18.8534C8.72682 18.8524 8.89549 18.7927 9.03066 18.6575C9.29476 18.3934 9.29476 17.9589 9.03066 17.6948L8.1191 16.7832L9.03066 15.8717C9.29476 15.6076 9.29476 15.1731 9.03066 14.909C8.76656 14.6449 8.33208 14.6449 8.06798 14.909L7.15642 15.8206L6.24486 14.909C5.98076 14.6449 5.54628 14.6449 5.28218 14.909C5.01808 15.1731 5.01808 15.6076 5.28218 15.8717L6.19374 16.7832L5.28218 17.6948C5.01808 17.9589 5.01808 18.3934 5.28218 18.6575C5.54628 18.9216 5.98076 18.9216 6.24486 18.6575L7.15642 17.7459L8.06798 18.6575C8.20322 18.7843 8.38039 18.8524 8.54956 18.8534L8.54506 18.8534H8.55358ZM18.9561 16.0683H15.0202C14.6453 16.0683 14.3386 15.7615 14.3386 15.3865C14.3386 15.0115 14.6453 14.7047 15.0202 14.7047H18.9561C19.3309 14.7047 19.6376 15.0115 19.6376 15.3865C19.6376 15.7615 19.3309 16.0683 18.9561 16.0683ZM15.0202 18.8541H18.9561C19.3309 18.8541 19.6376 18.5473 19.6376 18.1723C19.6376 17.7974 19.3309 17.4905 18.9561 17.4905H15.0202C14.6453 17.4905 14.3386 17.7974 14.3386 18.1723C14.3386 18.5473 14.6453 18.8541 15.0202 18.8541Z" class="icon-base"></path>
</svg>
