<svg viewBox="0 0 24 24" fill="currentColor" xmlns="http://www.w3.org/2000/svg" focusable="false">
  <title>Calendar Clock Icon</title>
  <path fill-rule="evenodd" clip-rule="evenodd" d="M14.4621 6H6.76791C6.02765 6 5.40652 6.89341 5.40652 7.94848V20.6859C5.40652 21.741 6.02765 22.6344 6.76791 22.6344H12.6218L12.6278 22.6344H20.3219C21.0622 22.6344 21.6833 21.741 21.6833 20.6859V7.9485C21.6833 6.89343 21.0622 6.00003 20.3219 6.00003H14.468L14.4621 6Z" fill="transparent" class="icon-offset"></path>
  <path fill-rule="evenodd" clip-rule="evenodd" d="M14.4946 5.72094C14.4946 6.05768 14.7702 6.3332 15.1069 6.3332C15.4436 6.3332 15.7192 6.05768 15.7192 5.72094V4.879H17.6405C18.3064 4.879 18.865 5.68258 18.865 6.63157V8.73634H4.22451V6.63157C4.22451 5.68258 4.78319 4.879 5.44902 4.879H7.36977V5.72094C7.36977 6.05768 7.64529 6.3332 7.98203 6.3332C8.31877 6.3332 8.59428 6.05768 8.59428 5.72094V4.879H14.4946V5.72094ZM5.44902 3.65449H7.36977V2.82038C7.36977 2.48364 7.64529 2.20813 7.98203 2.20813C8.31877 2.20813 8.59428 2.48364 8.59428 2.82038V3.65449H14.4946V2.82038C14.4946 2.48364 14.7702 2.20813 15.1069 2.20813C15.4436 2.20813 15.7192 2.48364 15.7192 2.82038V3.65449H17.6405C18.9875 3.65449 20.0896 4.98614 20.0896 6.63157V11.6368C20.0896 11.9735 19.814 12.249 19.4773 12.249C19.1406 12.249 18.865 11.9735 18.865 11.6368V9.96085H4.22451V18.0884C4.22451 19.0374 4.78319 19.841 5.44902 19.841H10.7144C11.0511 19.841 11.3267 20.1165 11.3267 20.4532C11.3267 20.79 11.0511 21.0655 10.7144 21.0655H5.44902C4.10206 21.0655 3 19.7338 3 18.0884V6.63157C3 4.99379 4.10206 3.65449 5.44902 3.65449ZM8.50275 13.1667C8.50275 13.5877 8.15836 13.9321 7.73743 13.9321C7.31651 13.9321 6.97212 13.5877 6.97212 13.1667C6.97212 12.7458 7.31651 12.4014 7.73743 12.4014C8.15836 12.4014 8.50275 12.7458 8.50275 13.1667ZM7.73743 17.3382C8.15836 17.3382 8.50275 16.9938 8.50275 16.5729C8.50275 16.152 8.15836 15.8076 7.73743 15.8076C7.31651 15.8076 6.97212 16.152 6.97212 16.5729C6.97212 16.9938 7.31651 17.3382 7.73743 17.3382ZM12.4438 13.1667C12.4438 13.5877 12.0994 13.9321 11.6785 13.9321C11.2576 13.9321 10.9132 13.5877 10.9132 13.1667C10.9132 12.7458 11.2576 12.4014 11.6785 12.4014C12.0994 12.4014 12.4438 12.7458 12.4438 13.1667ZM16.4463 21.7921C13.9361 21.7921 11.8927 19.7487 11.8927 17.2384C11.8927 14.7282 13.9361 12.6848 16.4463 12.6848C18.9566 12.6848 21 14.7282 21 17.2384C21 19.7487 18.9566 21.7921 16.4463 21.7921ZM16.4463 13.9093C14.6096 13.9093 13.1172 15.4017 13.1172 17.2384C13.1172 19.0752 14.6096 20.5676 16.4463 20.5676C18.2831 20.5676 19.7755 19.0752 19.7755 17.2384C19.7755 15.4017 18.2831 13.9093 16.4463 13.9093ZM17.3571 18.8C17.4566 18.8536 17.5637 18.8842 17.6709 18.8842V18.8919C17.8775 18.8919 18.0842 18.7847 18.199 18.5934C18.3673 18.3026 18.2755 17.9276 17.9847 17.7515L17.0357 17.1852V15.9301C17.0357 15.5933 16.7602 15.3178 16.4234 15.3178C16.0867 15.3178 15.8112 15.5933 15.8112 15.9301V17.5296C15.8112 17.7439 15.926 17.9505 16.1096 18.0577L17.3571 18.8Z" class="icon-base"></path>
</svg>
