<svg viewBox="0 0 24 24" fill="currentColor" xmlns="http://www.w3.org/2000/svg" focusable="false">
  <title>Calendar Money Icon</title>
  <path fill-rule="evenodd" clip-rule="evenodd" d="M14.4621 6H6.76791C6.02765 6 5.40652 6.89341 5.40652 7.94848V20.6859C5.40652 21.741 6.02765 22.6344 6.76791 22.6344H12.6218L12.6278 22.6344H20.3219C21.0622 22.6344 21.6833 21.741 21.6833 20.6859V7.9485C21.6833 6.89343 21.0622 6.00003 20.3219 6.00003H14.468L14.4621 6Z" fill="transparent" class="icon-offset"></path>
  <path fill-rule="evenodd" clip-rule="evenodd" d="M14.8111 5.7327C14.8111 6.07871 15.0942 6.36181 15.4403 6.36181C15.7863 6.36181 16.0694 6.07871 16.0694 5.7327V4.86716H18.0435C18.7276 4.86716 19.3017 5.69287 19.3017 6.66799V8.83154H4.25821V6.66799C4.25821 5.69287 4.83227 4.86716 5.51642 4.86716H7.49031V5.7327C7.49031 6.07871 7.77341 6.36181 8.11942 6.36181C8.46542 6.36181 8.74852 6.07871 8.74852 5.7327V4.86716H14.8111V5.7327ZM5.51642 3.60894H7.49031V2.75228C7.49031 2.40627 7.77341 2.12317 8.11942 2.12317C8.46542 2.12317 8.74852 2.40627 8.74852 2.75228V3.60894H14.8111V2.75228C14.8111 2.40627 15.0942 2.12317 15.4403 2.12317C15.7863 2.12317 16.0694 2.40627 16.0694 2.75228V3.60894H18.0435C19.4275 3.60894 20.5599 4.97725 20.5599 6.66799V11.811C20.5599 12.157 20.2768 12.4401 19.9308 12.4401C19.5848 12.4401 19.3017 12.157 19.3017 11.811V10.0898H4.25821V18.4403C4.25821 19.4154 4.83227 20.2411 5.51642 20.2411H13.97C14.316 20.2411 14.5991 20.5242 14.5991 20.8702C14.5991 21.2162 14.316 21.4993 13.97 21.4993H5.51642C4.13239 21.4993 3 20.131 3 18.4403V6.66799C3 4.98512 4.13239 3.60894 5.51642 3.60894ZM8.65421 13.3836C8.65421 13.8162 8.30034 14.17 7.86783 14.17C7.43532 14.17 7.08144 13.8162 7.08144 13.3836C7.08144 12.9511 7.43532 12.5973 7.86783 12.5973C8.30034 12.5973 8.65421 12.9511 8.65421 13.3836ZM7.86783 17.6698C8.30034 17.6698 8.65421 17.3159 8.65421 16.8834C8.65421 16.4508 8.30034 16.097 7.86783 16.097C7.43532 16.097 7.08144 16.4508 7.08144 16.8834C7.08144 17.3159 7.43532 17.6698 7.86783 17.6698ZM12.7037 13.3836C12.7037 13.8162 12.3499 14.17 11.9174 14.17C11.4848 14.17 11.131 13.8162 11.131 13.3836C11.131 12.9511 11.4848 12.5973 11.9174 12.5973C12.3499 12.5973 12.7037 12.9511 12.7037 13.3836ZM17.7133 20.7834H16.6828C16.3368 20.7834 16.0537 20.5003 16.0537 20.1543C16.0537 19.8083 16.3368 19.5252 16.6828 19.5252H19.0813C19.443 19.5252 19.7418 19.2264 19.7418 18.8646C19.7418 18.5029 19.443 18.2041 19.0813 18.2041H17.6107C16.5491 18.2041 15.692 17.3469 15.692 16.2853C15.692 15.2237 16.5491 14.3665 17.6107 14.3665H17.7133V13.9106C17.7133 13.5645 17.9964 13.2814 18.3424 13.2814C18.6884 13.2814 18.9715 13.5645 18.9715 13.9106V14.3665H20.0092C20.3552 14.3665 20.6383 14.6496 20.6383 14.9956C20.6383 15.3416 20.3552 15.6247 20.0092 15.6247H18.4426C18.4099 15.63 18.3764 15.6327 18.3424 15.6327C18.3083 15.6327 18.2748 15.63 18.2422 15.6247H17.6107C17.249 15.6247 16.9502 15.9235 16.9502 16.2853C16.9502 16.647 17.249 16.9459 17.6107 16.9459H19.0813C20.1429 16.9459 21 17.803 21 18.8646C21 19.9263 20.1429 20.7834 19.0813 20.7834H18.9715V21.2476C18.9715 21.5936 18.6884 21.8767 18.3424 21.8767C17.9964 21.8767 17.7133 21.5936 17.7133 21.2476V20.7834Z" class="icon-base"></path>
</svg>
