<svg viewBox="0 0 24 24" fill="currentColor" xmlns="http://www.w3.org/2000/svg" focusable="false">
  <title>Calendar Icon</title>
  <path fill-rule="evenodd" clip-rule="evenodd" d="M14.9452 6H6.84612C6.06691 6 5.41309 6.9399 5.41309 8.04987V21.4501C5.41309 22.5601 6.06691 23.5 6.84612 23.5H13.0082L13.0144 23.5H21.1135C21.8927 23.5 22.5466 22.5601 22.5466 21.4501V8.0499C22.5466 6.93992 21.8927 6.00003 21.1135 6.00003H14.9515L14.9452 6Z" fill="transparent" class="icon-offset"></path>
  <path fill-rule="evenodd" clip-rule="evenodd" d="M15.7524 6.41345C15.3978 6.41345 15.1076 6.12325 15.1076 5.76856V4.88192H8.89239V5.76856C8.89239 6.12325 8.6022 6.41345 8.24752 6.41345C7.89284 6.41345 7.60264 6.12325 7.60264 5.76856V4.88192H5.57143C4.87013 4.88192 4.28168 5.72834 4.28168 6.72792V8.94404H19.7022V6.72792C19.7022 5.72834 19.1137 4.88192 18.4124 4.88192H16.3973V5.76856C16.3973 6.12325 16.1071 6.41345 15.7524 6.41345ZM7.60264 3.59213H5.57949C4.16077 3.59213 3 5.00283 3 6.72792V18.7955C3 20.5286 4.16077 21.9313 5.57949 21.9313H18.4205C19.8473 21.9313 21 20.5206 21 18.7955V6.72792C21 4.99477 19.8392 3.59213 18.4205 3.59213H16.3973V2.71338C16.3973 2.35868 16.1071 2.06848 15.7524 2.06848C15.3978 2.06848 15.1076 2.35868 15.1076 2.71338V3.59213H8.89239V2.71338C8.89239 2.35868 8.6022 2.06848 8.24752 2.06848C7.89284 2.06848 7.60264 2.35868 7.60264 2.71338V3.59213ZM4.28168 10.2338H19.7022V18.7955C19.7022 19.7951 19.1137 20.6415 18.4124 20.6415H5.57143C4.87013 20.6415 4.28168 19.7951 4.28168 18.7955V10.2338ZM7.9652 14.3613C8.40855 14.3613 8.77129 13.9986 8.77129 13.5552C8.77129 13.1118 8.40855 12.7491 7.9652 12.7491C7.52185 12.7491 7.15911 13.1118 7.15911 13.5552C7.15911 13.9986 7.52185 14.3613 7.9652 14.3613ZM8.77129 17.1424C8.77129 17.5858 8.40855 17.9485 7.9652 17.9485C7.52185 17.9485 7.15911 17.5858 7.15911 17.1424C7.15911 16.699 7.52185 16.3363 7.9652 16.3363C8.40855 16.3363 8.77129 16.699 8.77129 17.1424ZM12.1168 14.3613C12.5601 14.3613 12.9229 13.9986 12.9229 13.5552C12.9229 13.1118 12.5601 12.7491 12.1168 12.7491C11.6734 12.7491 11.3107 13.1118 11.3107 13.5552C11.3107 13.9986 11.6734 14.3613 12.1168 14.3613ZM12.9229 17.1424C12.9229 17.5858 12.5601 17.9485 12.1168 17.9485C11.6734 17.9485 11.3107 17.5858 11.3107 17.1424C11.3107 16.699 11.6734 16.3363 12.1168 16.3363C12.5601 16.3363 12.9229 16.699 12.9229 17.1424ZM16.252 14.345C16.6954 14.345 17.0581 13.9822 17.0581 13.5389C17.0581 13.0955 16.6954 12.7328 16.252 12.7328C15.8087 12.7328 15.4459 13.0955 15.4459 13.5389C15.4459 13.9822 15.8087 14.345 16.252 14.345ZM17.0581 17.1179C17.0581 17.5613 16.6954 17.924 16.252 17.924C15.8087 17.924 15.4459 17.5613 15.4459 17.1179C15.4459 16.6745 15.8087 16.3118 16.252 16.3118C16.6954 16.3118 17.0581 16.6745 17.0581 17.1179Z" class="icon-base"></path>
</svg>
