<svg viewBox="0 0 24 24" fill="currentColor" xmlns="http://www.w3.org/2000/svg" focusable="false">
  <title>Calendar With X Icon</title>
  <path fill-rule="evenodd" clip-rule="evenodd" d="M14.4621 6H6.76791C6.02765 6 5.40652 6.89341 5.40652 7.94848V20.6859C5.40652 21.741 6.02765 22.6344 6.76791 22.6344H12.6218L12.6278 22.6344H20.3219C21.0622 22.6344 21.6833 21.741 21.6833 20.6859V7.9485C21.6833 6.89343 21.0622 6.00003 20.3219 6.00003H14.468L14.4621 6Z" fill="transparent" class="icon-offset"></path>
  <path fill-rule="evenodd" clip-rule="evenodd" d="M15.1361 6.50974C14.7985 6.50974 14.5224 6.23356 14.5224 5.896V5.05197H8.60817V5.896C8.60817 6.23356 8.33198 6.50974 7.99442 6.50974C7.65686 6.50974 7.38068 6.23356 7.38068 5.896V5.05197H5.45498C4.78753 5.05197 4.22749 5.85751 4.22749 6.80881V8.91932H18.9037V6.80881C18.9037 5.85751 18.3436 5.05197 17.6762 5.05197H15.7498V5.896C15.7498 6.23356 15.4737 6.50974 15.1361 6.50974ZM7.38068 3.82448H5.45498C4.10474 3.82448 3 5.16704 3 6.80881V18.2935C3 19.943 4.10474 21.2779 5.45498 21.2779H11.5694C11.907 21.2779 12.1832 21.0017 12.1832 20.6641C12.1832 20.3266 11.907 20.0504 11.5694 20.0504H5.45498C4.78753 20.0504 4.22749 19.2448 4.22749 18.2935V10.1468H18.9037V11.8262C18.9037 12.1637 19.1799 12.4399 19.5174 12.4399C19.855 12.4399 20.1312 12.1637 20.1312 11.8262V6.80881C20.1312 5.15937 19.0264 3.82448 17.6762 3.82448H15.7498V2.98838C15.7498 2.65082 15.4737 2.37463 15.1361 2.37463C14.7985 2.37463 14.5224 2.65082 14.5224 2.98838V3.82448H8.60817V2.98838C8.60817 2.65082 8.33198 2.37463 7.99442 2.37463C7.65686 2.37463 7.38068 2.65082 7.38068 2.98838V3.82448ZM7.74813 14.1276C8.17008 14.1276 8.51531 13.7824 8.51531 13.3604C8.51531 12.9385 8.17008 12.5932 7.74813 12.5932C7.32618 12.5932 6.98095 12.9385 6.98095 13.3604C6.98095 13.7824 7.32618 14.1276 7.74813 14.1276ZM8.51531 16.7748C8.51531 17.1967 8.17008 17.542 7.74813 17.542C7.32618 17.542 6.98095 17.1967 6.98095 16.7748C6.98095 16.3528 7.32618 16.0076 7.74813 16.0076C8.17008 16.0076 8.51531 16.3528 8.51531 16.7748ZM11.6994 14.1276C12.1214 14.1276 12.4666 13.7824 12.4666 13.3604C12.4666 12.9385 12.1214 12.5932 11.6994 12.5932C11.2775 12.5932 10.9322 12.9385 10.9322 13.3604C10.9322 13.7824 11.2775 14.1276 11.6994 14.1276ZM20.3882 21.6237C20.3894 21.6237 20.3907 21.6237 20.3919 21.6237H20.3842C20.3856 21.6237 20.3869 21.6237 20.3882 21.6237ZM19.9546 21.4473C20.0764 21.5615 20.2284 21.6228 20.3882 21.6237C20.5479 21.6228 20.6998 21.569 20.8215 21.4473C21.0594 21.2094 21.0594 20.8182 20.8215 20.5803L18.2131 17.9719L20.8215 15.3635C21.0594 15.1257 21.0594 14.7344 20.8215 14.4966C20.5837 14.2588 20.1924 14.2588 19.9546 14.4966L17.3462 17.105L14.7378 14.4966C14.5 14.2588 14.1087 14.2588 13.8709 14.4966C13.633 14.7344 13.633 15.1257 13.8709 15.3635L16.4793 17.9719L13.8709 20.5803C13.633 20.8182 13.633 21.2094 13.8709 21.4473C14.1087 21.6851 14.5 21.6851 14.7378 21.4473L17.3462 18.8388L19.9546 21.4473Z" class="icon-base"></path>
</svg>
