<svg viewBox="0 0 24 24" fill="currentColor" xmlns="http://www.w3.org/2000/svg" focusable="false">
  <title>Calendar Day Icon</title>
  <path fill-rule="evenodd" clip-rule="evenodd" d="M14.4621 6H6.76791C6.02765 6 5.40652 6.89341 5.40652 7.94848V20.6859C5.40652 21.741 6.02765 22.6344 6.76791 22.6344H12.6218L12.6278 22.6344H20.3219C21.0622 22.6344 21.6833 21.741 21.6833 20.6859V7.9485C21.6833 6.89343 21.0622 6.00003 20.3219 6.00003H14.468L14.4621 6Z" fill="transparent" class="icon-offset"></path>
  <path fill-rule="evenodd" clip-rule="evenodd" d="M14.5282 5.94809C14.5282 6.28581 14.8045 6.56213 15.1422 6.56213C15.4799 6.56213 15.7562 6.28581 15.7562 5.94809V5.10365H17.6832C18.351 5.10365 18.9113 5.90958 18.9113 6.86134V8.97242H4.22808V6.86134C4.22808 5.90958 4.78839 5.10365 5.45615 5.10365H7.38274V5.94809C7.38274 6.28581 7.65906 6.56213 7.99678 6.56213C8.3345 6.56213 8.61082 6.28581 8.61082 5.94809V5.10365H14.5282V5.94809ZM5.45615 3.87558H7.38274V3.03909C7.38274 2.70137 7.65906 2.42505 7.99678 2.42505C8.3345 2.42505 8.61082 2.70137 8.61082 3.03909V3.87558H14.5282V3.03909C14.5282 2.70137 14.8045 2.42505 15.1422 2.42505C15.4799 2.42505 15.7562 2.70137 15.7562 3.03909V3.87558H17.6832C19.0341 3.87558 20.1393 5.21111 20.1393 6.86134V11.8811C20.1393 12.2188 19.863 12.4951 19.5253 12.4951C19.1876 12.4951 18.9113 12.2188 18.9113 11.8811V10.2005H4.22808V18.3515C4.22808 19.3033 4.78839 20.1092 5.45615 20.1092H11.5735C11.9112 20.1092 12.1875 20.3855 12.1875 20.7232C12.1875 21.061 11.9112 21.3373 11.5735 21.3373H5.45615C4.10527 21.3373 3 20.0018 3 18.3515V6.86134C3 5.21878 4.10527 3.87558 5.45615 3.87558ZM8.51867 13.416C8.51867 13.8382 8.17327 14.1836 7.75112 14.1836C7.32897 14.1836 6.98357 13.8382 6.98357 13.416C6.98357 12.9939 7.32897 12.6485 7.75112 12.6485C8.17327 12.6485 8.51867 12.9939 8.51867 13.416ZM7.75102 17.5991C8.17317 17.5991 8.51857 17.2537 8.51857 16.8315C8.51857 16.4094 8.17317 16.064 7.75102 16.064C7.32887 16.064 6.98347 16.4094 6.98347 16.8315C6.98347 17.2537 7.32887 17.5991 7.75102 17.5991ZM12.4714 13.416C12.4714 13.8382 12.1261 14.1836 11.7039 14.1836C11.2817 14.1836 10.9364 13.8382 10.9364 13.416C10.9364 12.9939 11.2817 12.6485 11.7039 12.6485C12.1261 12.6485 12.4714 12.9939 12.4714 13.416ZM14.7281 21.5674C14.352 21.5674 13.9912 21.4292 13.7149 21.1683C13.3695 20.8459 13.2007 20.3931 13.2544 19.9249L13.3388 19.1189C13.3925 18.6047 13.6075 18.1211 13.9529 17.7297L16.5031 14.9439C16.5209 14.9197 16.5408 14.8966 16.5626 14.8747C16.5716 14.8658 16.5807 14.8572 16.59 14.849L17.3608 14.0071C17.9978 13.3239 19.0647 13.2856 19.7478 13.915L20.4617 14.5827C20.7917 14.8821 20.9836 15.2965 20.9989 15.7494C21.0143 16.2022 20.8608 16.6321 20.5461 16.9698L17.1842 20.631C16.8235 21.0455 16.3092 21.3218 15.7489 21.4216C15.7259 21.4216 15.6952 21.4216 15.6722 21.4292L14.966 21.5521C14.8816 21.5674 14.7972 21.5751 14.7127 21.5751L14.7281 21.5674ZM17.0232 16.2027L14.8739 18.5509C14.7051 18.7428 14.5899 18.9884 14.5669 19.2417L14.4825 20.0477C14.4671 20.1628 14.5285 20.2319 14.5669 20.2703C14.5976 20.301 14.6744 20.3547 14.7895 20.3317L15.5724 20.2012H15.6338C15.8948 20.1398 16.125 20.0093 16.2939 19.8174L18.3713 17.5507L17.0232 16.2027ZM19.2008 16.6456L17.8522 15.297L18.2742 14.836C18.3586 14.7439 18.4737 14.6902 18.5965 14.6902H18.6119V14.6979C18.727 14.6979 18.8345 14.7439 18.9189 14.8207L19.6404 15.4884C19.7325 15.5729 19.7862 15.6803 19.7862 15.8031C19.7939 15.9259 19.7478 16.0487 19.6634 16.1408L19.2008 16.6456Z" class="icon-base"></path>
</svg>
