<svg viewBox="0 0 24 24" fill="currentColor" xmlns="http://www.w3.org/2000/svg" focusable="false">
  <title>Add Credit Card Icon</title>
  <path d="M5.77504 6.52954C4.79734 6.52954 4 7.32688 4 8.30458V19.6952C4 20.6729 4.79734 21.4702 5.77504 21.4702H22.225C23.2027 21.4702 24 20.6729 24 19.6952V8.30458C24 7.32688 23.2027 6.52954 22.225 6.52954H5.77504Z" fill="transparent" class="icon-offset"></path>
  <path fill-rule="evenodd" clip-rule="evenodd" d="M11.5859 19.6832H4.34537C2.77919 19.6832 1.5 18.5352 1.5 17.1248V8.91704V6.72732C1.5 5.31693 2.77099 4.16895 4.34537 4.16895H19.6546C21.2208 4.16895 22.5 5.31693 22.5 6.72732V11.7949C22.5 12.1557 22.2048 12.4509 21.844 12.4509C21.4832 12.4509 21.188 12.1557 21.188 11.7949V9.57303H2.81199V17.1248C2.81199 17.8136 3.50078 18.3712 4.34537 18.3712H11.5859C11.9467 18.3712 12.2419 18.6664 12.2419 19.0272C12.2419 19.388 11.9467 19.6832 11.5859 19.6832ZM2.81199 8.26104H21.188V6.72732C21.188 6.03853 20.4992 5.48093 19.6546 5.48093H4.34537C3.50078 5.48093 2.81199 6.03853 2.81199 6.72732V8.26104ZM17.4536 19.2861C17.4536 19.5861 17.6989 19.8314 17.9989 19.8314C18.2988 19.8314 18.5441 19.5861 18.5441 19.2861V17.1051H20.7248C21.0247 17.1051 21.2701 16.8597 21.2701 16.5598C21.2701 16.2599 21.0247 16.0145 20.7248 16.0145H18.5441V13.8332C18.5441 13.5333 18.2988 13.2879 17.9989 13.2879C17.6989 13.2879 17.4536 13.5333 17.4536 13.8332V16.0145H15.2719C14.972 16.0145 14.7266 16.2599 14.7266 16.5598C14.7266 16.8597 14.972 17.1051 15.2719 17.1051H17.4536V19.2861Z" class="icon-base"></path>
</svg>
