<svg viewBox="0 0 24 24" fill="currentColor" xmlns="http://www.w3.org/2000/svg" focusable="false">
  <title>Credit Card Icon</title>
  <path d="M4.2998 10.2C4.2998 8.70883 5.50864 7.5 6.9998 7.5H21.0998C22.591 7.5 23.7998 8.70883 23.7998 10.2V18.81C23.7998 20.3012 22.591 21.51 21.0998 21.51H6.9998C5.50864 21.51 4.2998 20.3012 4.2998 18.81V10.2Z" fill="transparent" class="icon-offset"></path>
  <path fill-rule="evenodd" clip-rule="evenodd" d="M19.6464 20.0143H4.34537C2.77919 20.0143 1.5 18.8663 1.5 17.4559V10.1582V7.05838C1.5 5.64799 2.77099 4.5 4.34537 4.5H19.6546C21.2208 4.5 22.5 5.64799 22.5 7.05838V17.4559C22.5 18.8663 21.229 20.0143 19.6546 20.0143H19.6464ZM2.81199 7.05018V9.5022H21.188V7.05018C21.188 6.36138 20.4992 5.80379 19.6546 5.80379H4.34537C3.50078 5.80379 2.81199 6.36138 2.81199 7.05018ZM21.188 10.8142H2.81199V17.4477C2.81199 18.1365 3.50078 18.6941 4.34537 18.6941H19.6546C20.4992 18.6941 21.188 18.1365 21.188 17.4477V10.8142ZM6.72337 15.8325H9.97054C10.3313 15.8325 10.6265 15.5373 10.6265 15.1765C10.6265 14.8157 10.3313 14.5205 9.97054 14.5205H6.72337C6.36257 14.5205 6.06737 14.8157 6.06737 15.1765C6.06737 15.5373 6.36257 15.8325 6.72337 15.8325Z" class="icon-base"></path>
</svg>
