<svg viewBox="0 0 24 24" fill="currentColor" xmlns="http://www.w3.org/2000/svg" focusable="false">
  <title>Credit Card Check Icon</title>
  <path d="M6.13944 6.5296C5.1813 6.5296 4.3999 7.32694 4.3999 8.30464V19.6952C4.3999 20.6729 5.1813 21.4703 6.13944 21.4703H22.2604C23.2185 21.4703 23.9999 20.6729 23.9999 19.6952V8.30464C23.9999 7.32694 23.2185 6.5296 22.2604 6.5296H6.13944Z" fill="transparent" class="icon-offset"></path>
  <path fill-rule="evenodd" clip-rule="evenodd" d="M11.5859 19.3757H4.34537C2.77919 19.3757 1.5 18.2278 1.5 16.8174V8.60933V6.41987C1.5 5.00949 2.77099 3.8615 4.34537 3.8615H19.6546C21.2208 3.8615 22.5 5.00949 22.5 6.41987V11.4874C22.5 11.8482 22.2048 12.1434 21.844 12.1434C21.4832 12.1434 21.188 11.8482 21.188 11.4874V9.26533H2.81199V16.8174C2.81199 17.5062 3.50078 18.0638 4.34537 18.0638H11.5859C11.9467 18.0638 12.2419 18.359 12.2419 18.7198C12.2419 19.0806 11.9467 19.3757 11.5859 19.3757ZM2.81199 7.95334H21.188V6.41987C21.188 5.73108 20.4992 5.17348 19.6546 5.17348H4.34537C3.50078 5.17348 2.81199 5.73108 2.81199 6.41987V7.95334ZM16.6776 20.1384L16.6695 20.1384C16.8466 20.1364 17.0075 20.0709 17.1285 19.9498L22.1305 14.9479C22.3847 14.6937 22.3847 14.2755 22.1305 14.0213C21.8763 13.7671 21.4581 13.7671 21.2039 14.0213L16.6694 18.5559L14.7096 16.5879C14.4554 16.3337 14.0372 16.3337 13.783 16.5879C13.5288 16.8421 13.5288 17.2603 13.783 17.5145L16.2102 19.9498C16.3312 20.0709 16.5 20.1364 16.6695 20.1384L16.6612 20.1384H16.6776Z" class="icon-base"></path>
</svg>
