<svg viewBox="0 0 24 24" fill="currentColor" xmlns="http://www.w3.org/2000/svg" focusable="false">
  <title>Credit Card With Dollar Sign Icon</title>
  <path d="M4.2998 10.2C4.2998 8.70883 5.50864 7.5 6.9998 7.5H21.0998C22.591 7.5 23.7998 8.70883 23.7998 10.2V18.81C23.7998 20.3012 22.591 21.51 21.0998 21.51H6.9998C5.50864 21.51 4.2998 20.3012 4.2998 18.81V10.2Z" fill="transparent" class="icon-offset"></path>
  <path fill-rule="evenodd" clip-rule="evenodd" d="M11.5859 20.0143H4.34537C2.77919 20.0143 1.5 18.8663 1.5 17.4559V10.106V7.05838C1.5 5.64799 2.77099 4.5 4.34537 4.5H19.6546C21.2208 4.5 22.5 5.64799 22.5 7.05838V11.3059C22.5 11.6667 22.2048 11.9619 21.844 11.9619C21.4832 11.9619 21.188 11.6667 21.188 11.3059V10.762H2.81199V17.4559C2.81199 18.1447 3.50078 18.7023 4.34537 18.7023H11.5859C11.9467 18.7023 12.2419 18.9975 12.2419 19.3583C12.2419 19.7191 11.9467 20.0143 11.5859 20.0143ZM2.81199 9.45H21.188V7.05838C21.188 6.36958 20.4992 5.81199 19.6546 5.81199H4.34537C3.50078 5.81199 2.81199 6.36958 2.81199 7.05838V9.45ZM16.7267 20.9984C16.7267 21.3592 17.0219 21.6544 17.3827 21.6544C17.7435 21.6544 18.0387 21.3592 18.0387 20.9984V20.5225H18.154C19.261 20.5225 20.1548 19.6287 20.1548 18.5217C20.1548 17.4147 19.261 16.5209 18.154 16.5209H16.6207C16.2435 16.5209 15.9319 16.2093 15.9319 15.8321C15.9319 15.4549 16.2435 15.1433 16.6207 15.1433H17.3632L17.3827 15.1436L17.4022 15.1433H19.1216C19.4824 15.1433 19.7776 14.8481 19.7776 14.4873C19.7776 14.1265 19.4824 13.8313 19.1216 13.8313H18.0387V13.3478C18.0387 12.987 17.7435 12.6918 17.3827 12.6918C17.0219 12.6918 16.7267 12.987 16.7267 13.3478V13.8313H16.6207C15.5137 13.8313 14.6199 14.7251 14.6199 15.8321C14.6199 16.9391 15.5137 17.8329 16.6207 17.8329H18.154C18.5312 17.8329 18.8428 18.1445 18.8428 18.5217C18.8428 18.8989 18.5312 19.2105 18.154 19.2105H15.6531C15.2923 19.2105 14.9971 19.5057 14.9971 19.8665C14.9971 20.2273 15.2923 20.5225 15.6531 20.5225H16.7267V20.9984Z" class="icon-base"></path>
</svg>
