<svg viewBox="0 0 24 24" fill="currentColor" xmlns="http://www.w3.org/2000/svg" focusable="false">
  <title>Remove Credit Card Icon</title>
  <path d="M5.67494 5C4.69724 5 3.8999 5.80851 3.8999 6.7999V18.3501C3.8999 19.3415 4.69724 20.15 5.67494 20.15H22.1249C23.1026 20.15 23.8999 19.3415 23.8999 18.3501V6.7999C23.8999 5.80851 23.1026 5 22.1249 5H5.67494Z" fill="transparent" class="icon-offset"></path>
  <path fill-rule="evenodd" clip-rule="evenodd" d="M4.34537 18.0764H11.0365H11.0447C11.4055 18.0764 11.7007 17.8167 11.7007 17.4993C11.7007 17.1819 11.4055 16.9222 11.0447 16.9222H4.34537C3.50078 16.9222 2.81199 16.3162 2.81199 15.5732V9.65107H21.188V9.96792C21.188 10.2853 21.4832 10.545 21.844 10.545C22.2048 10.545 22.5 10.2853 22.5 9.96792V5.06965C22.5 3.68457 21.2208 2.56641 19.6546 2.56641H4.34537C2.77099 2.56641 1.5 3.69178 1.5 5.06965V8.99738V15.5732C1.5 16.9582 2.77919 18.0764 4.34537 18.0764ZM2.81199 8.34368V5.06965C2.81199 4.32661 3.50078 3.72064 4.34537 3.72064H19.6546C20.4992 3.72064 21.188 4.32661 21.188 5.06965V8.34368H2.81199ZM19.3133 17.2747H16.0448C15.6852 17.2747 15.3911 16.9806 15.3911 16.621C15.3911 16.2615 15.6852 15.9674 16.0448 15.9674H19.3133C19.6728 15.9674 19.967 16.2615 19.967 16.621C19.967 16.9806 19.6728 17.2747 19.3133 17.2747ZM12.9393 16.6536C12.9393 19.2929 15.0883 21.4338 17.7195 21.4338C20.3588 21.4338 22.4996 19.2929 22.4996 16.6536C22.4996 14.0143 20.3588 11.8734 17.7195 11.8734C15.0802 11.8734 12.9393 14.0143 12.9393 16.6536ZM14.2467 16.6618C14.2467 14.7497 15.8074 13.189 17.7195 13.189C19.6315 13.189 21.1922 14.7497 21.1922 16.6618C21.1922 18.5738 19.6315 20.1345 17.7195 20.1345C15.8074 20.1345 14.2467 18.5738 14.2467 16.6618Z" class="icon-base"></path>
</svg>
