<svg viewBox="0 0 24 24" fill="currentColor" xmlns="http://www.w3.org/2000/svg" focusable="false">
  <title>Credit Card Search Icon</title>
  <path d="M6.03934 6.5296C5.0812 6.5296 4.2998 7.32694 4.2998 8.30464V19.6952C4.2998 20.6729 5.0812 21.4703 6.03934 21.4703H22.1603C23.1184 21.4703 23.8998 20.6729 23.8998 19.6952V8.30464C23.8998 7.32694 23.1184 6.5296 22.1603 6.5296H6.03934Z" fill="transparent" class="icon-offset"></path>
  <path fill-rule="evenodd" clip-rule="evenodd" d="M4.34537 19.1708H11.5859C11.9467 19.1708 12.2419 18.8756 12.2419 18.5149C12.2419 18.1541 11.9467 17.8589 11.5859 17.8589H4.34537C3.50078 17.8589 2.81199 17.3013 2.81199 16.6125V9.06051H21.188V10.4625C21.188 10.8233 21.4832 11.1185 21.844 11.1185C22.2048 11.1185 22.5 10.8233 22.5 10.4625V6.21497C22.5 4.80458 21.2208 3.65659 19.6546 3.65659H4.34537C2.77099 3.65659 1.5 4.80458 1.5 6.21497V8.40451V16.6125C1.5 18.0229 2.77919 19.1708 4.34537 19.1708ZM2.81199 7.74852V6.21497C2.81199 5.52618 3.50078 4.96858 4.34537 4.96858H19.6546C20.4992 4.96858 21.188 5.52618 21.188 6.21497V7.74852H2.81199ZM17.6455 19.548C16.6205 19.548 15.6529 19.1462 14.9232 18.4164C13.4226 16.9158 13.4226 14.4723 14.9232 12.9717C16.4237 11.4711 18.8673 11.4711 20.3679 12.9717C21.0977 13.7015 21.4995 14.6691 21.4995 15.694C21.4995 16.5006 21.2507 17.2715 20.7891 17.9191L22.0983 19.2282C22.3525 19.4824 22.3525 19.9006 22.0983 20.1548C21.9684 20.2847 21.8064 20.3423 21.636 20.3434C21.465 20.3427 21.3021 20.2771 21.1717 20.1548L19.8616 18.8447C19.2179 19.3018 18.4543 19.548 17.6455 19.548ZM21.636 20.3434C21.6343 20.3434 21.6326 20.3434 21.6309 20.3434H21.6391C21.6381 20.3434 21.6371 20.3434 21.636 20.3434ZM17.6455 13.1603C16.9977 13.1603 16.3499 13.4063 15.8497 13.8983C14.8576 14.8904 14.8576 16.4976 15.8497 17.4898C16.8091 18.4492 18.4819 18.4492 19.4413 17.4898C19.9169 17.0142 20.1875 16.3746 20.1875 15.694C20.1875 15.0134 19.9251 14.3821 19.4413 13.8983C18.9493 13.4063 18.2933 13.1603 17.6455 13.1603Z" class="icon-base"></path>
</svg>
