<svg viewBox="0 0 24 24" fill="currentColor" xmlns="http://www.w3.org/2000/svg" focusable="false">
  <title>Credit Card Transfer Icon</title>
  <path fill-rule="evenodd" clip-rule="evenodd" d="M13.3999 5.9833C13.3999 4.94598 14.2159 4.10001 15.2164 4.10001H21.7926C22.7931 4.10001 23.609 4.94598 23.609 5.9833V10.7167C23.609 11.754 22.7931 12.6 21.7926 12.6H15.2164C14.2159 12.6 13.3999 11.754 13.3999 10.7167V5.9833ZM3.7002 16.5833C3.7002 15.546 4.51615 14.7 5.51666 14.7H12.0928C13.0934 14.7 13.9093 15.546 13.9093 16.5833V21.3167C13.9093 22.354 13.0934 23.2 12.0928 23.2H5.51666C4.51615 23.2 3.7002 22.354 3.7002 21.3167V16.5833Z" fill="transparent" class="icon-offset"></path>
  <path fill-rule="evenodd" clip-rule="evenodd" d="M2.16343 8.79507C1.80277 8.79507 1.50769 8.49998 1.50769 8.13932C1.50769 4.69668 4.31099 1.90158 7.74543 1.90158C7.95855 1.90158 8.16347 2.00814 8.28642 2.18027C8.40937 2.3524 8.43396 2.58191 8.36019 2.77864L7.69625 4.56553C7.5733 4.9098 7.19625 5.08193 6.85199 4.95078C6.51592 4.82783 6.33559 4.45078 6.46674 4.10651L6.76182 3.30323C4.50771 3.75405 2.81098 5.75406 2.81098 8.13113C2.81098 8.49178 2.51589 8.78687 2.15524 8.78687L2.16343 8.79507ZM19.6476 11.4835H14.0984C12.5328 11.4835 11.2541 10.2048 11.2541 8.63921V4.78672C11.2541 3.22114 12.5246 1.94244 14.0984 1.94244H19.6476C21.2132 1.94244 22.4919 3.21294 22.4919 4.78672V5.4991L22.4921 5.51604L22.4919 5.53298V8.63921C22.4919 10.2048 21.2214 11.4835 19.6476 11.4835ZM21.1886 6.17178V8.63921C21.1886 9.48347 20.5001 10.172 19.6558 10.172H14.1066C13.2623 10.172 12.5738 9.48347 12.5738 8.63921V6.17178H21.1886ZM21.1886 4.8603H12.5738V4.78672C12.5738 3.94246 13.2623 3.25393 14.1066 3.25393H19.6558C20.5001 3.25393 21.1886 3.94246 21.1886 4.78672V4.8603ZM4.34428 22.0985H9.89349C11.4591 22.0985 12.7378 20.8198 12.7378 19.2543V16.1561L12.738 16.1391L12.7378 16.1222V15.4018C12.7378 13.828 11.4591 12.5575 9.89349 12.5575H4.34428C2.7705 12.5575 1.5 13.8362 1.5 15.4018V19.2543C1.5 20.828 2.7787 22.0985 4.34428 22.0985ZM11.4345 15.4834V15.41C11.4345 14.5657 10.746 13.8772 9.90169 13.8772H4.35248C3.50821 13.8772 2.81968 14.5657 2.81968 15.41V15.4834H11.4345ZM11.4345 16.7949H2.81968V19.2625C2.81968 20.1067 3.50821 20.7952 4.35248 20.7952H9.90169C10.746 20.7952 11.4345 20.1067 11.4345 19.2625V16.7949ZM15.7131 21.8115C15.836 21.9837 16.0409 22.0902 16.2541 22.0902L16.2623 22.0984C19.6967 22.0984 22.5 19.3033 22.5 15.8607C22.5 15.5 22.2049 15.2049 21.8443 15.2049C21.4836 15.2049 21.1885 15.5 21.1885 15.8607C21.1885 18.2377 19.4918 20.2377 17.2377 20.6886L17.5328 19.8853C17.6639 19.541 17.4918 19.164 17.1475 19.041C16.8032 18.9099 16.4262 19.082 16.3032 19.4263L15.6393 21.2132C15.5655 21.4099 15.5901 21.6394 15.7131 21.8115Z" class="icon-base"></path>
</svg>
