<svg viewBox="0 0 24 24" fill="currentColor" xmlns="http://www.w3.org/2000/svg" focusable="false">
  <title>CD Icon</title>
  <path d="M6 6.37462V20.6499C6 21.7544 6.89543 22.6499 8 22.6499H19.45C20.5546 22.6499 21.45 21.7544 21.45 20.6499V10.4652C21.45 9.95525 21.255 9.46429 20.9052 9.09319L17.14 5.09797C16.768 4.7032 16.2511 4.476 15.7087 4.46932L8.02461 4.37477C6.9105 4.36106 6 5.26043 6 6.37462Z" fill="transparent" class="icon-offset"></path>
  <path fill-rule="evenodd" clip-rule="evenodd" d="M10.1778 21.6612H7.31048C6.08493 21.6302 4.92066 21.1193 4.06277 20.2059C3.20489 19.2925 2.74531 18.1004 2.76062 16.8464V6.02473C2.8219 3.47025 4.90534 1.41119 7.41772 1.41119H13.2084C14.0051 1.41119 14.771 1.73631 15.3225 2.32461L19.1983 6.39629C19.7192 6.95362 20.0103 7.68126 20.0103 8.43986V9.78677C20.0103 10.2512 19.6426 10.6228 19.183 10.6228C18.7884 10.6228 18.4616 10.3489 18.3771 9.97753L16.1403 9.99119C14.2803 9.99119 12.7653 8.31571 12.7653 6.25867V3.09869H7.43304C5.8245 3.09869 4.4764 4.41463 4.44576 6.05569V16.8774C4.43044 17.7134 4.72151 18.472 5.273 19.0603C5.8245 19.6486 6.57515 19.9737 7.37176 19.9892H10.6119C11.0736 19.9892 11.4467 20.3635 11.4467 20.8252C11.4467 21.2869 11.0724 21.6612 10.6107 21.6612H10.1778ZM18.0034 7.55741C18.1723 7.72806 18.2832 7.94888 18.3302 8.18299H16.1253C15.1653 8.18299 14.3853 7.32037 14.3853 6.25867V3.75647L18.0034 7.55741ZM7.99518 14.8364H10.7552C11.2052 14.8364 11.5652 14.4764 11.5652 14.0264C11.5652 13.5764 11.2052 13.2164 10.7552 13.2164H7.99518C7.54518 13.2164 7.18518 13.5764 7.18518 14.0264C7.18518 14.4764 7.54518 14.8364 7.99518 14.8364ZM7.99518 10.7114H9.48018C9.93018 10.7114 10.2902 10.3514 10.2902 9.90137C10.2902 9.45137 9.93018 9.09137 9.48018 9.09137H7.99518C7.54518 9.09137 7.18518 9.45137 7.18518 9.90137C7.18518 10.3514 7.54518 10.7114 7.99518 10.7114ZM18.4202 20.5963H18.7202C19.6652 20.5963 20.4302 19.8313 20.4602 18.8863V18.4213L20.7452 18.1363C21.0602 17.8063 21.2402 17.3863 21.2402 16.9213C21.2402 16.4713 21.0602 16.0363 20.7452 15.7213L20.4302 15.3763V14.9713C20.4302 14.0263 19.6652 13.2613 18.7202 13.2613L18.2552 13.2313L18.0002 12.9763L17.9702 12.9463C17.2952 12.2713 16.2002 12.2713 15.5402 12.9463L15.2102 13.2463H14.8052C13.8602 13.2463 13.0952 14.0113 13.0952 14.9563L13.0652 15.4213L12.7802 15.7063C12.4652 16.0363 12.2852 16.4713 12.2852 16.9213C12.3002 17.3713 12.4802 17.8063 12.7952 18.1213L13.0952 18.4663V18.8713C13.0952 19.8163 13.8602 20.5963 14.8052 20.6113H15.0902V22.2913C15.0902 22.5163 15.3602 22.6663 15.5702 22.5463L16.6052 21.9613C16.7102 21.9013 16.8302 21.9013 16.9202 21.9613L17.9552 22.5463C18.1652 22.6663 18.4202 22.5163 18.4202 22.2913V20.5963ZM13.9352 16.8613L14.2202 17.2513C14.5502 17.5813 14.7152 18.0163 14.7152 18.4663V18.8713L15.1952 18.9463C15.6452 18.9463 16.0802 19.1263 16.3952 19.4413L16.6802 19.7263L17.0852 19.4413C17.4152 19.1263 17.8352 18.9463 18.3002 18.9463H18.7052L18.7802 18.4663C18.7802 18.0163 18.9602 17.5813 19.2752 17.2663L19.5602 16.9813L19.2752 16.5763C18.9602 16.2613 18.7802 15.8263 18.7802 15.3613V14.9563L18.3002 14.8813C17.8502 14.8813 17.4152 14.7013 17.0852 14.3863L16.8002 14.1013L16.3952 14.3863C16.0652 14.7163 15.6452 14.8813 15.1802 14.8813H14.7752L14.7002 14.9563V15.3613C14.7002 15.8113 14.5202 16.2463 14.2052 16.5613L13.9202 16.8463L13.9352 16.8613Z" class="icon-base"></path>
</svg>
