<svg viewBox="0 0 24 24" fill="currentColor" xmlns="http://www.w3.org/2000/svg" focusable="false">
  <title>CD Rates Icon</title>
  <path fill-rule="evenodd" clip-rule="evenodd" d="M5.37243 20.5342C5.49149 20.5771 5.61647 20.5999 5.74522 20.5999H7.86069C7.8644 20.5999 7.86809 20.5999 7.87179 20.6H22.5544C23.3489 20.6 23.9998 19.7301 23.9998 18.6635V17.0687C23.9996 17.0618 23.9996 17.0548 23.9996 17.0479V6.23651C23.9996 5.38292 23.5827 4.65533 23.009 4.39874C22.9778 4.38479 22.9462 4.37224 22.9141 4.36113C22.799 4.32128 22.6784 4.30008 22.5544 4.30008H20.4389C20.4352 4.30008 20.4315 4.30005 20.4278 4.29999H5.74522C4.95072 4.29999 4.2998 5.16987 4.2998 6.23651V7.83133C4.29996 7.83823 4.30004 7.84515 4.30004 7.85209V18.6635C4.30004 19.5571 4.75697 20.3127 5.37243 20.5342Z" fill="transparent" class="icon-offset"></path>
  <path fill-rule="evenodd" clip-rule="evenodd" d="M4.24643 18.261H12C12.3886 18.261 12.7065 17.9424 12.7065 17.553C12.7065 17.1637 12.3886 16.8451 12 16.8451H4.24643C3.51346 16.8451 2.91295 16.1017 2.91295 15.1902V4.57079C2.91295 3.65928 3.51346 2.91592 4.24643 2.91592H19.7536C20.4865 2.91592 21.087 3.65928 21.087 4.57079V9.8805C21.087 10.2699 21.405 10.5885 21.7935 10.5885C22.1821 10.5885 22.5 10.2699 22.5 9.8805V4.57079C22.5 2.87168 21.2725 1.5 19.7536 1.5H4.24643C2.73633 1.5 1.5 2.88053 1.5 4.57079V15.1902C1.5 16.8893 2.7275 18.261 4.24643 18.261ZM17.5814 19.4468C17.1487 19.4468 16.7248 19.2875 16.3981 18.9601L16.2214 18.7782V20.6505L17.343 20.0841C17.5461 19.9779 17.7933 19.9868 17.9964 20.0841L18.9767 20.6063V18.73L18.7648 18.9424C18.438 19.2698 17.9965 19.438 17.5726 19.438L17.5814 19.4468ZM13.7576 16.8716C13.7576 17.5758 14.1937 18.1833 14.8085 18.4364L14.8085 18.4381V21.7921C14.8085 22.0399 14.9321 22.2611 15.144 22.3939C15.356 22.5178 15.6121 22.5266 15.8329 22.4204L17.652 21.5089L19.3476 22.4204C19.4536 22.4735 19.5684 22.5001 19.6832 22.5001V22.4912C19.8068 22.4912 19.9304 22.4647 20.0452 22.3939C20.2572 22.2611 20.3896 22.031 20.3896 21.7832V18.4293L20.3895 18.4175C20.981 18.1541 21.3964 17.5588 21.3964 16.8716V16.4203C21.3964 16.3495 21.4229 16.2787 21.4759 16.2256L21.7849 15.9159C22.1029 15.5973 22.2795 15.1725 22.2795 14.7212C22.2795 14.2699 22.1029 13.8451 21.7849 13.5265L21.4759 13.2168C21.4317 13.1725 21.4052 13.1017 21.4052 13.0309V12.5796C21.4052 11.6504 20.6457 10.8893 19.7185 10.8893H19.2681C19.1975 10.8893 19.1268 10.8628 19.0827 10.8185L18.7648 10.4911C18.1201 9.85394 17.0162 9.85394 16.3804 10.4911L16.0713 10.8008C16.0272 10.8539 15.9565 10.8805 15.8859 10.8805H15.4355C14.5436 10.8805 13.8106 11.5884 13.7576 12.4734V12.5884V13.0309C13.7576 13.1017 13.7311 13.1725 13.6781 13.2256L13.422 13.4911C13.4044 13.4999 13.3867 13.5176 13.369 13.5353C13.0511 13.8451 12.8745 14.2699 12.8745 14.7212C12.8745 15.1725 13.0511 15.5973 13.369 15.9159L13.6781 16.2256C13.7311 16.2787 13.7576 16.3495 13.7576 16.4203V16.8716ZM14.3404 14.5619C14.2963 14.615 14.2875 14.6769 14.2875 14.7212C14.2875 14.7654 14.2963 14.8451 14.3669 14.9159L14.676 15.2256C14.9939 15.5442 15.1617 15.969 15.1617 16.4203V16.8716C15.1617 17.0221 15.2854 17.146 15.4355 17.146H15.8859C16.3362 17.146 16.7601 17.3229 17.0692 17.6327L17.3871 17.9601C17.4843 18.0575 17.6521 18.0575 17.7669 17.9513L18.0759 17.6415C18.3939 17.3229 18.8089 17.1548 19.2681 17.1548H19.7185C19.8686 17.1548 19.9923 17.0309 19.9923 16.8805V16.4291C19.9923 15.9778 20.1689 15.553 20.478 15.2433L20.787 14.9247C20.8577 14.8539 20.8754 14.7743 20.8754 14.73C20.8754 14.6858 20.8665 14.6061 20.7959 14.5353L20.4868 14.2256C20.1689 13.907 20.0011 13.4911 20.0011 13.0398V12.5884C20.0011 12.438 19.8775 12.3141 19.7273 12.3141H19.277C18.8266 12.3141 18.4027 12.1371 18.0848 11.8185L17.7669 11.5C17.6344 11.3672 17.5196 11.3672 17.3871 11.5L17.078 11.8097C16.7601 12.1283 16.3362 12.2964 15.8859 12.2964H15.4355C15.2854 12.2964 15.1617 12.4203 15.1617 12.5707V12.6592V13.0221C15.1617 13.4734 14.9851 13.8982 14.676 14.2079L14.3669 14.5265L14.3316 14.5619H14.3404ZM5.49123 11.9694C5.30578 11.9694 5.12033 11.8986 4.97903 11.7482C4.7141 11.465 4.72293 11.0137 5.00552 10.7482L7.94623 7.95173C8.20233 7.7128 8.59089 7.6951 8.86465 7.90749L10.4277 9.11987L13.6938 6.09288H12.1941C11.8056 6.09288 11.4877 5.7743 11.4877 5.38492C11.4877 4.99554 11.8056 4.67696 12.1941 4.67696H15.4881C15.6875 4.67696 15.8682 4.76082 15.997 4.89508C16.001 4.89916 16.005 4.9033 16.0089 4.90749C16.1494 5.05773 16.2105 5.25529 16.1946 5.44732V8.68579C16.1946 9.07517 15.8767 9.39376 15.4881 9.39376C15.0995 9.39376 14.7816 9.07517 14.7816 8.68579V7.01168L10.9488 10.5623C10.6927 10.8013 10.3129 10.8101 10.0392 10.6066L8.48492 9.40306L5.98576 11.7836C5.85329 11.9163 5.67668 11.9783 5.50006 11.9783L5.49123 11.9694Z" class="icon-base"></path>
</svg>
