<svg viewBox="0 0 24 24" fill="currentColor" xmlns="http://www.w3.org/2000/svg" focusable="false">
  <title>CD Icon</title>
  <path fill-rule="evenodd" clip-rule="evenodd" d="M5.37243 20.5342C5.49149 20.5771 5.61647 20.5999 5.74522 20.5999H7.86069C7.8644 20.5999 7.86809 20.5999 7.87179 20.6H22.5544C23.3489 20.6 23.9998 19.7301 23.9998 18.6635V17.0687C23.9996 17.0618 23.9996 17.0548 23.9996 17.0479V6.23651C23.9996 5.38292 23.5827 4.65533 23.009 4.39874C22.9778 4.38479 22.9462 4.37224 22.9141 4.36113C22.799 4.32128 22.6784 4.30008 22.5544 4.30008H20.4389C20.4352 4.30008 20.4315 4.30005 20.4278 4.29999H5.74522C4.95072 4.29999 4.2998 5.16987 4.2998 6.23651V7.83133C4.29996 7.83823 4.30004 7.84515 4.30004 7.85209V18.6635C4.30004 19.5571 4.75697 20.3127 5.37243 20.5342Z" fill="transparent" class="icon-offset"></path>
  <path fill-rule="evenodd" clip-rule="evenodd" d="M4.24643 18.261H12C12.3886 18.261 12.7065 17.9424 12.7065 17.553C12.7065 17.1637 12.3886 16.8451 12 16.8451H4.24643C3.51346 16.8451 2.91295 16.1017 2.91295 15.1902V4.57079C2.91295 3.65928 3.51346 2.91592 4.24643 2.91592H19.7536C20.4865 2.91592 21.087 3.65928 21.087 4.57079V9.8805C21.087 10.2699 21.405 10.5885 21.7935 10.5885C22.1821 10.5885 22.5 10.2699 22.5 9.8805V4.57079C22.5 2.87168 21.2725 1.5 19.7536 1.5H4.24643C2.73633 1.5 1.5 2.88053 1.5 4.57079V15.1902C1.5 16.8893 2.7275 18.261 4.24643 18.261ZM18.7911 6.70391H5.12957C4.74101 6.70391 4.4231 6.38532 4.4231 5.99594C4.4231 5.60656 4.74101 5.28798 5.12957 5.28798H18.7911C19.1796 5.28798 19.4975 5.60656 19.4975 5.99594C19.4975 6.38532 19.1796 6.70391 18.7911 6.70391ZM16.3981 18.9601C16.7248 19.2875 17.1487 19.4468 17.5814 19.4468L17.5726 19.438C17.9965 19.438 18.438 19.2698 18.7648 18.9424L18.9767 18.73V20.6063L17.9964 20.0841C17.7933 19.9868 17.5461 19.9779 17.343 20.0841L16.2214 20.6505V18.7782L16.3981 18.9601ZM14.8085 18.4364C14.1937 18.1833 13.7576 17.5758 13.7576 16.8716V16.4203C13.7576 16.3495 13.7311 16.2787 13.6781 16.2256L13.369 15.9159C13.0511 15.5973 12.8745 15.1725 12.8745 14.7212C12.8745 14.2699 13.0511 13.8451 13.369 13.5353C13.3867 13.5176 13.4044 13.4999 13.422 13.4911L13.6781 13.2256C13.7311 13.1725 13.7576 13.1017 13.7576 13.0309V12.5884V12.4734C13.8106 11.5884 14.5436 10.8805 15.4355 10.8805H15.8859C15.9565 10.8805 16.0272 10.8539 16.0713 10.8008L16.3804 10.4911C17.0162 9.85394 18.1201 9.85394 18.7648 10.4911L19.0827 10.8185C19.1268 10.8628 19.1975 10.8893 19.2681 10.8893H19.7185C20.6457 10.8893 21.4052 11.6504 21.4052 12.5796V13.0309C21.4052 13.1017 21.4317 13.1725 21.4759 13.2168L21.7849 13.5265C22.1029 13.8451 22.2795 14.2699 22.2795 14.7212C22.2795 15.1725 22.1029 15.5973 21.7849 15.9159L21.4759 16.2256C21.4229 16.2787 21.3964 16.3495 21.3964 16.4203V16.8716C21.3964 17.5588 20.981 18.1541 20.3895 18.4175L20.3896 18.4293V21.7832C20.3896 22.031 20.2572 22.2611 20.0452 22.3939C19.9304 22.4647 19.8068 22.4912 19.6832 22.4912V22.5001C19.5684 22.5001 19.4536 22.4735 19.3476 22.4204L17.652 21.5089L15.8329 22.4204C15.6121 22.5266 15.356 22.5178 15.144 22.3939C14.9321 22.2611 14.8085 22.0399 14.8085 21.7921V18.4381L14.8085 18.4364ZM14.2875 14.7212C14.2875 14.6769 14.2963 14.615 14.3404 14.5619H14.3316L14.3669 14.5265L14.676 14.2079C14.9851 13.8982 15.1617 13.4734 15.1617 13.0221V12.6592V12.5707C15.1617 12.4203 15.2854 12.2964 15.4355 12.2964H15.8859C16.3362 12.2964 16.7601 12.1283 17.078 11.8097L17.3871 11.5C17.5196 11.3672 17.6344 11.3672 17.7669 11.5L18.0848 11.8185C18.4027 12.1371 18.8266 12.3141 19.277 12.3141H19.7273C19.8775 12.3141 20.0011 12.438 20.0011 12.5884V13.0398C20.0011 13.4911 20.1689 13.907 20.4868 14.2256L20.7959 14.5353C20.8665 14.6061 20.8754 14.6858 20.8754 14.73C20.8754 14.7743 20.8577 14.8539 20.787 14.9247L20.478 15.2433C20.1689 15.553 19.9923 15.9778 19.9923 16.4291V16.8805C19.9923 17.0309 19.8686 17.1548 19.7185 17.1548H19.2681C18.8089 17.1548 18.3939 17.3229 18.0759 17.6415L17.7669 17.9513C17.6521 18.0575 17.4843 18.0575 17.3871 17.9601L17.0692 17.6327C16.7601 17.3229 16.3362 17.146 15.8859 17.146H15.4355C15.2854 17.146 15.1617 17.0221 15.1617 16.8716V16.4203C15.1617 15.969 14.9939 15.5442 14.676 15.2256L14.3669 14.9159C14.2963 14.8451 14.2875 14.7654 14.2875 14.7212ZM5.13836 10.6152H12C12.3886 10.6152 12.7065 10.2966 12.7065 9.90723C12.7065 9.51785 12.3886 9.19927 12 9.19927H5.13836C4.7498 9.19927 4.43188 9.51785 4.43188 9.90723C4.43188 10.2966 4.7498 10.6152 5.13836 10.6152ZM8.33546 14.5265H5.07684C4.68828 14.5265 4.37036 14.2079 4.37036 13.8185C4.37036 13.4291 4.68828 13.1106 5.07684 13.1106H8.33546C8.72402 13.1106 9.04193 13.4291 9.04193 13.8185C9.04193 14.2079 8.72402 14.5265 8.33546 14.5265Z" class="icon-base"></path>
</svg>
