<svg viewBox="0 0 24 24" fill="currentColor" xmlns="http://www.w3.org/2000/svg" focusable="false">
  <title>Check Circle Icon</title>
  <path fill-rule="evenodd" clip-rule="evenodd" d="M0 12C0 18.6188 5.38125 24 12 24C18.6188 24 24 18.6188 24 12C24 5.38125 18.6188 0 12 0C5.38125 0 0 5.38125 0 12ZM1.5 12C1.5 6.20625 6.20625 1.5 12 1.5C17.7938 1.5 22.5 6.20625 22.5 12C22.5 17.7938 17.7938 22.5 12 22.5C6.20625 22.5 1.5 17.7938 1.5 12ZM10.5478 15.6375C10.5508 15.6375 10.5537 15.6375 10.5567 15.6375H10.5379C10.5412 15.6375 10.5445 15.6375 10.5478 15.6375ZM10.0223 15.4219C10.1699 15.5603 10.363 15.6351 10.5478 15.6375C10.7411 15.6353 10.9248 15.5694 11.0723 15.4219L16.8473 9.64689C17.1379 9.35627 17.1379 8.87814 16.8473 8.58752C16.5567 8.29689 16.0785 8.29689 15.7879 8.58752L10.5473 13.8281L8.19417 11.475C7.90355 11.1844 7.42542 11.1844 7.1348 11.475C6.84417 11.7656 6.84417 12.2438 7.1348 12.5344L10.0223 15.4219Z" class="icon-base"></path>
</svg>
