<svg viewBox="0 0 24 24" fill="currentColor" xmlns="http://www.w3.org/2000/svg" focusable="false">
  <title>Clock Icon</title>
  <path d="M13.3999 23.9C7.6085 23.9 2.8999 19.1914 2.8999 13.4C2.8999 7.60862 7.6085 2.90002 13.3999 2.90002C19.1913 2.90002 23.8999 7.60862 23.8999 13.4C23.8999 19.1914 19.1913 23.9 13.3999 23.9Z" fill="transparent" class="icon-offset"></path>
  <path fill-rule="evenodd" clip-rule="evenodd" d="M12 22.5C6.20859 22.5 1.5 17.7914 1.5 12C1.5 6.20859 6.20859 1.5 12 1.5C17.7914 1.5 22.5 6.20859 22.5 12C22.5 17.7914 17.7914 22.5 12 22.5ZM11.3438 2.83564C6.79659 3.15741 3.15741 6.79659 2.83564 11.3438H3.92812C4.28906 11.3438 4.58438 11.6391 4.58438 12C4.58438 12.3609 4.28906 12.6562 3.92812 12.6562H2.83564C3.15741 17.2034 6.79659 20.8426 11.3438 21.1644V20.0719C11.3438 19.7109 11.6391 19.4156 12 19.4156C12.3609 19.4156 12.6562 19.7109 12.6562 20.0719V21.1644C17.2034 20.8426 20.8426 17.2034 21.1644 12.6562H20.0719C19.7109 12.6562 19.4156 12.3609 19.4156 12C19.4156 11.6391 19.7109 11.3438 20.0719 11.3438H21.1644C20.8426 6.79659 17.2034 3.15741 12.6562 2.83564V3.92812C12.6562 4.28906 12.3609 4.58438 12 4.58438C11.6391 4.58438 11.3438 4.28906 11.3438 3.92812V2.83564ZM14.7723 15.3784C14.8789 15.4359 14.9938 15.4687 15.1086 15.4687V15.4769C15.3301 15.4769 15.5516 15.362 15.6746 15.157C15.8551 14.8452 15.7567 14.4433 15.445 14.2546L12.295 12.3679V8.25813C12.295 7.89719 11.9996 7.60188 11.6387 7.60188C11.2778 7.60188 10.9825 7.89719 10.9825 8.25813V12.737C10.9825 12.9667 11.1055 13.1882 11.3024 13.303L14.7723 15.3784Z" class="icon-base"></path>
</svg>
