<svg viewBox="0 0 24 24" fill="currentColor" xmlns="http://www.w3.org/2000/svg" focusable="false">
  <title>Close X Icon</title>
  <path d="M18.8806 3.2806C19.3882 2.77292 20.2114 2.77292 20.719 3.2806C21.2267 3.78828 21.2267 4.6114 20.719 5.11908L13.8384 11.9998L20.7196 18.881C21.2273 19.3887 21.2273 20.2118 20.7196 20.7194C20.2119 21.2271 19.3888 21.2271 18.8811 20.7194L11.9999 13.8382L5.11865 20.7194C4.61097 21.2271 3.78786 21.2271 3.28017 20.7194C2.77249 20.2118 2.77249 19.3887 3.28017 18.881L10.1614 11.9998L3.28072 5.11908C2.77304 4.6114 2.77304 3.78828 3.28072 3.2806C3.7884 2.77292 4.61152 2.77292 5.1192 3.2806L11.9999 10.1613L18.8806 3.2806Z" class="icon-base"></path>
</svg>
