<svg viewBox="0 0 24 24" fill="currentColor" xmlns="http://www.w3.org/2000/svg" focusable="false">
  <title>Compact Building Icon</title>
  <path fill-rule="evenodd" clip-rule="evenodd" d="M11.7734 2.5C13.1116 2.5 14.2001 3.83097 14.2002 5.46777V9.4873H19.7656C21.2586 9.4873 22.4727 10.822 22.4727 12.4629V21.2715C22.4725 21.668 22.1772 21.9922 21.8164 21.9922C21.4959 21.9923 15.325 22.1429 13.8643 21.9072C13.7723 21.9614 13.6668 21.9922 13.5557 21.9922C13.4246 21.9921 13.3029 21.9486 13.2002 21.875C11.6271 22.0846 6.0657 21.9453 5.78809 21.9453C5.46471 21.9451 5.2002 21.6212 5.2002 21.2256V5.46777C5.20034 3.83097 6.28881 2.5 7.62695 2.5H11.7734Z" fill="transparent" class="icon-offset"></path>
  <path fill-rule="evenodd" clip-rule="evenodd" d="M10.2285 2C11.7215 2 12.9355 3.36914 12.9355 5.05273V9.16895H18.4971C19.9899 9.16911 21.2041 10.5382 21.2041 12.2217V20.5195H21.8438C22.2047 20.5195 22.5 20.8527 22.5 21.2598C22.4998 21.6666 22.2046 21.999 21.8438 21.999H12.2959C12.2904 21.9992 12.2848 22 12.2793 22C12.2737 22 12.2682 21.9992 12.2627 21.999H3.56836C3.56284 21.9992 3.55731 22 3.55176 22C3.54636 22 3.54052 21.9992 3.53516 21.999H2.15625C1.79564 21.9987 1.50018 21.6664 1.5 21.2598C1.5 20.8529 1.79552 20.5198 2.15625 20.5195H2.89551V5.05273C2.89551 3.36933 4.10883 2.0003 5.60156 2H10.2285ZM12.9434 20.5195H19.8916V12.2217C19.8916 11.3523 19.268 10.6496 18.4971 10.6494H12.9434V20.5195ZM5.60156 3.48047C4.8307 3.48076 4.20801 4.18337 4.20801 5.05273V20.5195H11.623V5.05273C11.623 4.18319 10.9996 3.48047 10.2285 3.48047H5.60156ZM17.0703 17.0225C17.4311 17.0226 17.7266 17.3558 17.7266 17.7627C17.7266 18.1696 17.4311 18.5028 17.0703 18.5029H16.127C15.766 18.5029 15.4707 18.1697 15.4707 17.7627C15.4707 17.3557 15.766 17.0225 16.127 17.0225H17.0703ZM8.3916 15.6631C8.75232 15.6634 9.04785 15.9965 9.04785 16.4033C9.04765 16.81 8.75219 17.1423 8.3916 17.1426H7.44824C7.08743 17.1426 6.7922 16.8102 6.79199 16.4033C6.79199 15.9963 7.08731 15.6631 7.44824 15.6631H8.3916ZM17.0703 12.9248C17.4311 12.925 17.7266 13.2581 17.7266 13.665C17.7264 14.0718 17.431 14.4041 17.0703 14.4043H16.127C15.7661 14.4043 15.4709 14.0719 15.4707 13.665C15.4707 13.258 15.766 12.9248 16.127 12.9248H17.0703ZM8.3916 11.5645C8.75225 11.5647 9.04773 11.898 9.04785 12.3047C9.04785 12.7115 8.75232 13.0446 8.3916 13.0449H7.44824C7.08731 13.0449 6.79199 12.7117 6.79199 12.3047C6.79211 11.8978 7.08738 11.5645 7.44824 11.5645H8.3916ZM8.3916 7.4668C8.75232 7.46709 9.04785 7.80019 9.04785 8.20703C9.04782 8.61384 8.7523 8.94697 8.3916 8.94727H7.44824C7.08733 8.94727 6.79203 8.61402 6.79199 8.20703C6.79199 7.80001 7.08731 7.4668 7.44824 7.4668H8.3916Z" class="icon-base"></path>
</svg>
