<svg viewBox="0 0 24 24" fill="currentColor" xmlns="http://www.w3.org/2000/svg" focusable="false">
  <title>Compare Icon</title>
  <path d="M8.95829 7C8.44351 7 8 7.62566 8 8.37012V18.0876C8 18.8321 8.43559 19.4578 8.95829 19.4578H19.5074C20.0222 19.4578 20.4657 18.8321 20.4657 18.0876V8.37012C20.4657 7.62566 20.0301 7 19.5074 7H8.95829Z" fill="transparent" class="icon-offset"></path>
  <path fill-rule="evenodd" clip-rule="evenodd" d="M11.3661 1.96518V4.50033H6.72545C5.49789 4.50033 4.5 5.68829 4.5 7.1376V16.8551C4.5 18.3124 5.49789 19.4924 6.72545 19.4924H11.3661V22.034C11.3661 22.3825 11.6512 22.6676 11.9997 22.6676C12.3482 22.6676 12.6333 22.3825 12.6333 22.034V19.4924H17.2746C18.5021 19.4924 19.5 18.3044 19.5 16.8551V7.1376C19.5 5.68037 18.5021 4.50033 17.2746 4.50033H12.6333V1.96518C12.6333 1.61671 12.3482 1.3316 11.9997 1.3316C11.6512 1.3316 11.3661 1.61671 11.3661 1.96518ZM6.72545 5.76749C6.21067 5.76749 5.76716 6.39315 5.76716 7.1376V16.8551C5.76716 17.5996 6.20275 18.2252 6.72545 18.2252H17.2746C17.7893 18.2252 18.2328 17.5996 18.2328 16.8551V7.1376C18.2328 6.39315 17.7973 5.76749 17.2746 5.76749H6.72545ZM11.9997 11.4056C11.6512 11.4056 11.3661 11.1205 11.3661 10.7721V7.60417C11.3661 7.2557 11.6512 6.97059 11.9997 6.97059C12.3482 6.97059 12.6333 7.2557 12.6333 7.60417V10.7721C12.6333 11.1205 12.3482 11.4056 11.9997 11.4056ZM11.3661 16.3951C11.3661 16.7435 11.6512 17.0286 11.9997 17.0286C12.3482 17.0286 12.6333 16.7435 12.6333 16.3951V13.2272C12.6333 12.8787 12.3482 12.5936 11.9997 12.5936C11.6512 12.5936 11.3661 12.8787 11.3661 13.2272V16.3951Z" class="icon-base"></path>
</svg>
