<svg viewBox="0 0 24 24" fill="currentColor" xmlns="http://www.w3.org/2000/svg" focusable="false">
  <title>Congrats Icon</title>
  <path fill-rule="evenodd" clip-rule="evenodd" d="M15.239 15.4469C14.8748 14.7968 14.4095 14.136 13.853 13.5013C12.9742 12.4989 12.0014 11.7136 11.0721 11.2024C9.6344 10.2382 8.10409 9.68584 7.25235 10.4819C7.19102 10.5395 7.13628 10.6013 7.08791 10.667C7.02483 10.7299 6.97578 10.8087 6.94775 10.8992L6.94176 10.9181C6.89504 11.022 6.86004 11.1329 6.83607 11.25L3.59232 21.4398C3.45782 21.8716 3.56401 22.3317 3.87548 22.6574C4.10909 22.8981 4.42764 23.0326 4.76035 23.0326L4.75327 23.0396C4.85946 23.0396 4.95856 23.0255 5.06475 22.9972L15.5062 20.2505C15.5422 20.2405 15.5764 20.2274 15.6086 20.2116C15.7823 20.1487 15.9405 20.0541 16.0798 19.9252C16.901 19.1465 16.6036 17.5184 15.2516 15.4655C15.2475 15.4592 15.2433 15.453 15.239 15.4469Z" fill="transparent" class="icon-offset"></path>
  <path fill-rule="evenodd" clip-rule="evenodd" d="M9.53528 2.97651C9.58965 3.05504 11.0967 5.23175 9.62129 7.96054C8.14747 7.09657 6.67529 6.70271 5.80885 7.51252C5.73754 7.57945 5.67392 7.65131 5.61771 7.72779C5.54495 7.8006 5.48835 7.89163 5.45596 7.99627L5.4495 8.01657C5.39477 8.138 5.35384 8.26768 5.32594 8.40473L3.32538 14.6892C3.24074 14.8038 3.19737 14.943 3.1995 15.0846L1.56627 20.2152C1.41035 20.7157 1.53345 21.2491 1.89452 21.6266C2.16532 21.9056 2.53459 22.0615 2.92028 22.0615L2.91207 22.0697C3.03516 22.0697 3.15005 22.0533 3.27314 22.0205L15.3771 18.8365C15.419 18.8249 15.4588 18.8096 15.4962 18.7912C15.6973 18.7183 15.8805 18.6087 16.0419 18.4595C16.9938 17.5568 16.6491 15.6694 15.0818 13.2896C14.8848 12.986 14.4745 12.9039 14.1709 13.1009C13.8672 13.2978 13.7852 13.7081 13.9821 14.0118C15.2459 15.9402 15.4182 17.2367 15.1392 17.4993C14.7043 17.9097 12.3573 17.1055 9.6329 14.1841C7.30132 11.684 6.49633 9.57449 6.58526 8.76095L6.66545 8.50904C6.67699 8.49224 6.68962 8.47735 6.70332 8.46442C6.99874 8.19362 8.46763 8.45622 10.6997 10.3436C10.9787 10.5816 11.389 10.5488 11.627 10.2698C11.865 9.99076 11.8321 9.58045 11.5531 9.34248C11.285 9.11701 11.0064 8.89706 10.7218 8.68833C12.7134 5.17375 10.6944 2.32809 10.6007 2.20312C10.3873 1.9077 9.97702 1.84206 9.6816 2.05541C9.38618 2.26877 9.32054 2.67908 9.53389 2.9745L9.53528 2.97651ZM4.09326 16.5892L2.8136 20.6091C2.8136 20.6091 2.8136 20.6829 2.83822 20.7157C2.87511 20.7526 2.91864 20.7497 2.93301 20.7488L2.93669 20.7486L6.98113 19.6847C6.46885 19.2454 5.95153 18.7476 5.43111 18.1969C4.9517 17.6791 4.50029 17.1361 4.09326 16.5892ZM8.56466 19.2681L12.5724 18.2139C11.2829 17.5255 9.88528 16.3848 8.67278 15.0868C7.48442 13.8099 6.45827 12.3691 5.8545 11.0565L4.59376 15.0169C5.09829 15.7883 5.71871 16.5714 6.39123 17.3024C7.10669 18.064 7.85821 18.7463 8.56466 19.2681ZM13.8591 5.32957C13.8591 6.41278 14.7453 7.29904 15.8285 7.29904C16.9117 7.29904 17.798 6.41278 17.798 5.32957C17.798 4.24637 16.9117 3.36011 15.8285 3.36011C14.7453 3.36011 13.8591 4.24637 13.8591 5.32957ZM15.1721 5.32957C15.1721 4.9603 15.4593 4.67309 15.8285 4.67309C16.1978 4.67309 16.485 4.9603 16.485 5.32957C16.485 5.69885 16.1978 5.98606 15.8285 5.98606C15.4593 5.98606 15.1721 5.69885 15.1721 5.32957ZM18.7619 18.3444C18.4026 18.3422 18.0931 18.0477 18.0931 17.688C18.0931 17.3269 18.3721 17.0315 18.7332 17.0315H18.7578C19.1188 17.0315 19.4143 17.3269 19.4143 17.688C19.4143 18.0477 19.1211 18.3422 18.7619 18.3444ZM18.7619 18.3444L18.766 18.3445H18.7578L18.7619 18.3444ZM21.8474 6.98719C21.488 6.98497 21.1786 6.69042 21.1786 6.33072C21.1786 5.96965 21.4576 5.67423 21.8187 5.67423H21.8433C22.2043 5.67423 22.4998 5.96965 22.4998 6.33072C22.4998 6.69042 22.2066 6.98497 21.8474 6.98719ZM21.8474 6.98719L21.8515 6.98721H21.8433L21.8474 6.98719ZM21.6955 16.8343C21.4986 16.8343 21.3016 16.7441 21.1703 16.5717C19.7999 14.7746 18.0684 14.7171 18.052 14.7171C17.691 14.7171 17.4037 14.4053 17.412 14.0442C17.412 13.6832 17.6992 13.3795 18.0849 13.4042C18.1833 13.4042 20.4728 13.478 22.2207 15.7757C22.4423 16.0629 22.3849 16.4732 22.0976 16.6948C21.9828 16.7851 21.8432 16.8261 21.7037 16.8261L21.6955 16.8343ZM11.4019 13.4042L11.4059 13.4042H11.3977L11.4019 13.4042ZM11.8654 13.2072C11.7352 13.3375 11.5727 13.4031 11.4019 13.4042C11.2391 13.4031 11.0766 13.3375 10.9463 13.2154C10.6838 12.9611 10.6837 12.5508 10.9299 12.2882C11.0858 12.124 14.8689 8.32461 20.6788 9.97403C21.0234 10.0725 21.2286 10.4336 21.1301 10.7864C21.0317 11.1311 20.6706 11.3362 20.3177 11.2378C15.2792 9.80991 12.0049 13.0677 11.8654 13.2072Z" class="icon-base"></path>
</svg>
