<svg viewBox="0 0 24 24" fill="currentColor" xmlns="http://www.w3.org/2000/svg" focusable="false">
  <title>Credit Poor Icon</title>
  <path d="M22.0101 19.0908H18.1468C17.1585 19.0908 16.251 18.3541 15.8917 17.258L15.8198 17.0424C15.2807 15.6947 13.978 14.8052 12.5135 14.8052C10.9681 14.8052 9.61147 15.7845 9.1263 17.249C8.76692 18.3451 7.85948 19.0819 6.87118 19.0819H3.00783C2.41485 19.0819 1.86679 18.8393 1.48045 18.408C1.11209 17.9947 0.950365 17.4736 1.01326 16.9256C1.73202 11.1485 6.67352 6.79999 12.5045 6.79999C18.3355 6.79999 23.268 11.1575 23.9867 16.9256C24.0496 17.4736 23.8879 17.9947 23.5195 18.408C23.1332 18.8393 22.5852 19.0819 21.9922 19.0819L22.0101 19.0908Z" fill="transparent" class="icon-offset"></path>
  <path fill-rule="evenodd" clip-rule="evenodd" d="M17.8923 18.4126H21.9236L21.9049 18.4032C22.5236 18.4032 23.0955 18.1501 23.4987 17.7001C23.883 17.2688 24.0518 16.7251 23.9862 16.1532C23.2362 10.1343 18.0892 5.58737 12.0047 5.58737C5.9202 5.58737 0.763848 10.125 0.0138334 16.1532C-0.0517929 16.7251 0.11696 17.2688 0.501343 17.7001C0.904475 18.1501 1.47636 18.4032 2.09512 18.4032H6.12645C7.12202 18.4032 8.03895 17.6868 8.43864 16.6081L10.6436 17.3022C10.8012 17.9118 11.3578 18.366 12.0146 18.366C12.8021 18.366 13.4302 17.7285 13.4302 16.9503C13.4302 16.1722 12.7927 15.5347 12.0146 15.5347C11.6641 15.5347 11.3421 15.664 11.0941 15.8773L9.15954 15.2684C9.85099 14.4424 10.8842 13.9407 12.0141 13.9407C13.5422 13.9407 14.9016 14.8688 15.4641 16.2751L15.5391 16.5001C15.9141 17.6439 16.861 18.4126 17.8923 18.4126ZM7.65293 14.7941C7.71058 14.7059 7.77077 14.6197 7.83336 14.5356L4.03029 10.7325C2.6938 12.2675 1.78983 14.1966 1.52324 16.3407C1.50449 16.5095 1.57949 16.6407 1.63574 16.7063C1.74824 16.8376 1.91699 16.9032 2.1045 16.9032H6.13583C6.52902 16.9032 6.84757 16.5374 7.01152 16.1589L4.37354 15.3285C3.97978 15.2066 3.75478 14.7847 3.88603 14.391C4.00791 13.9972 4.42979 13.7722 4.82355 13.9034L7.65293 14.7941ZM17.8923 16.9126C17.5079 16.9126 17.1985 16.5657 17.0298 16.1907L17.0392 16.1813L16.9829 16.0219C16.7853 15.4292 16.4897 14.8899 16.1175 14.4198L19.9123 10.625C21.3009 12.1782 22.2412 14.1482 22.5143 16.3407C22.533 16.5095 22.458 16.6313 22.3924 16.7063C22.2799 16.8376 22.1111 16.9126 21.9236 16.9126H17.8923ZM18.8361 9.57988L15.0266 13.3893C14.3636 12.923 13.5915 12.6107 12.7646 12.493V7.11325C15.0559 7.2735 17.1643 8.17087 18.8361 9.57988ZM5.09263 9.67351C6.77985 8.21342 8.9275 7.28141 11.2646 7.11443V12.4952C10.392 12.6216 9.57992 12.9634 8.89387 13.4747L5.09263 9.67351Z" class="icon-base"></path>
</svg>
