<svg viewBox="0 0 24 24" fill="currentColor" xmlns="http://www.w3.org/2000/svg" focusable="false">
  <title>Credit Card Time Icon</title>
  <path d="M6.03934 6C5.0812 6 4.2998 6.79734 4.2998 7.77504V19.1656C4.2998 20.1433 5.0812 20.9407 6.03934 20.9407H22.1603C23.1184 20.9407 23.8998 20.1433 23.8998 19.1656V7.77504C23.8998 6.79734 23.1184 6 22.1603 6H6.03934Z" fill="transparent" class="icon-offset"></path>
  <path fill-rule="evenodd" clip-rule="evenodd" d="M4.33545 18.6523H10.325C10.6846 18.6523 10.9787 18.3572 10.9787 17.9965C10.9787 17.6358 10.6846 17.3407 10.325 17.3407H4.33545C3.49381 17.3407 2.80741 16.7833 2.80741 16.0947V8.52761H21.1194V9.9464C21.1194 10.3071 21.4135 10.6022 21.7731 10.6022C22.1326 10.6022 22.4268 10.3071 22.4268 9.9464V5.70001C22.4268 4.29001 21.1521 3.14233 19.5913 3.14233H4.33545C2.76656 3.14233 1.5 4.29001 1.5 5.70001V7.87392V16.0947C1.5 17.5047 2.77473 18.6523 4.33545 18.6523ZM21.1194 7.22022H2.80741V5.70001C2.80741 5.0114 3.49381 4.45396 4.33545 4.45396H19.5913C20.433 4.45396 21.1194 5.0114 21.1194 5.70001V7.22022ZM12.9395 16.0775C12.9395 18.7168 15.0886 20.8577 17.7197 20.8577C20.3591 20.8577 22.5 18.7168 22.5 16.0775C22.5 13.4382 20.3591 11.2974 17.7197 11.2974C15.0804 11.2974 12.9395 13.4382 12.9395 16.0775ZM14.2469 16.0857C14.2469 14.1736 15.8076 12.6129 17.7197 12.6129C19.6318 12.6129 21.1925 14.1736 21.1925 16.0857C21.1925 17.9977 19.6318 19.5584 17.7197 19.5584C15.8076 19.5584 14.2469 17.9977 14.2469 16.0857ZM18.6598 17.7199C18.766 17.7771 18.8804 17.8098 18.9948 17.8098L19.003 17.818C19.2236 17.818 19.4442 17.7036 19.5668 17.4993C19.7466 17.1888 19.6485 16.7884 19.338 16.6004L18.3493 16.0121V14.7047C18.3493 14.3452 18.0551 14.051 17.6956 14.051C17.336 14.051 17.0418 14.3452 17.0418 14.7047V16.3798C17.0418 16.6086 17.1644 16.8292 17.3605 16.9436L18.6598 17.7199Z" class="icon-base"></path>
</svg>
