<svg viewBox="0 0 24 24" fill="currentColor" xmlns="http://www.w3.org/2000/svg" focusable="false">
  <title>Credit None Icon</title>
  <path d="M22.0101 17.0908H18.1468C17.1585 17.0908 16.251 16.3541 15.8917 15.258L15.8198 15.0424C15.2807 13.6947 13.978 12.8052 12.5135 12.8052C10.9681 12.8052 9.61147 13.7845 9.1263 15.249C8.76692 16.3451 7.85948 17.0819 6.87118 17.0819H3.00783C2.41485 17.0819 1.86679 16.8393 1.48045 16.408C1.11209 15.9947 0.950365 15.4736 1.01326 14.9256C1.73202 9.14851 6.67352 4.79999 12.5045 4.79999C18.3355 4.79999 23.268 9.15749 23.9867 14.9256C24.0496 15.4736 23.8879 15.9947 23.5195 16.408C23.1332 16.8393 22.5852 17.0819 21.9922 17.0819L22.0101 17.0908Z" fill="transparent" class="icon-offset"></path>
  <path fill-rule="evenodd" clip-rule="evenodd" d="M17.8923 16.4016H21.9236L21.9049 16.3922C22.5236 16.3922 23.0955 16.1391 23.4987 15.6891C23.883 15.2578 24.0518 14.7141 23.9862 14.1422C23.2362 8.12332 18.0892 3.57635 12.0047 3.57635C5.9202 3.57635 0.763848 8.11394 0.0138334 14.1422C-0.0517929 14.7141 0.11696 15.2578 0.501343 15.6891C0.904475 16.1391 1.47636 16.3922 2.09512 16.3922H6.12645C7.15772 16.3922 8.10461 15.6235 8.47962 14.4797C8.98588 12.9515 10.4015 11.9296 12.0141 11.9296C13.5422 11.9296 14.9016 12.8484 15.4641 14.2547L15.5391 14.4891C15.9141 15.6328 16.861 16.4016 17.8923 16.4016ZM17.8923 14.9016C17.5079 14.9016 17.1985 14.5547 17.0298 14.1797L17.0392 14.1609L16.9829 14.0016C16.7852 13.4084 16.4893 12.8686 16.1166 12.3983L19.9119 8.60426C21.3007 10.1574 22.2412 12.1277 22.5143 14.3203C22.533 14.4984 22.458 14.6203 22.3924 14.6953C22.2799 14.8266 22.1111 14.9016 21.9236 14.9016H17.8923ZM18.8357 7.55915L15.0254 11.3681C14.3626 10.9023 13.591 10.5903 12.7646 10.4726V5.09286C15.0558 5.2531 17.164 6.15033 18.8357 7.55915ZM4.02645 8.71657C2.69207 10.2508 1.78957 12.1782 1.52324 14.3203C1.50449 14.4891 1.57949 14.6203 1.63574 14.6859C1.74824 14.8172 1.91699 14.8828 2.1045 14.8828H6.13583C6.57646 14.8828 6.92334 14.4234 7.06397 14.0016C7.24194 13.4581 7.50281 12.9604 7.82984 12.52L4.02645 8.71657ZM5.0882 7.65696L8.88913 11.4579C9.57618 10.9446 10.39 10.6015 11.2646 10.4748V5.09404C8.92546 5.26117 6.77608 6.19466 5.0882 7.65696ZM11.8269 20.4234C11.4144 20.4234 11.0769 20.0859 11.0769 19.6734C11.0769 19.2609 11.4144 18.9234 11.8269 18.9234C12.2394 18.9234 12.5769 19.2515 12.5769 19.6734C12.5769 20.0953 12.2394 20.4234 11.8269 20.4234ZM11.1051 17.7139C11.1051 18.1264 11.4426 18.4546 11.8551 18.4546C12.2676 18.4452 12.5958 18.1077 12.5958 17.6952C12.5958 17.6108 12.7458 17.5077 13.0458 17.3389L13.1395 17.2827C13.9177 16.8514 14.3489 16.1576 14.3489 15.3326C14.3489 14.0389 13.2989 12.9888 12.0051 12.9888C10.7114 12.9888 9.66135 14.0389 9.66135 15.3326C9.66135 15.7451 9.99885 16.0826 10.4114 16.0826C10.8239 16.0826 11.1614 15.7451 11.1614 15.3326C11.1614 14.8639 11.5364 14.4889 12.0051 14.4889C12.4739 14.4889 12.8489 14.8639 12.8489 15.3326C12.8489 15.5108 12.802 15.7639 12.4083 15.9795L12.3145 16.0358L12.3015 16.0433C11.8764 16.2888 11.0958 16.7396 11.1051 17.7139Z" class="icon-base"></path>
</svg>
