<svg viewBox="0 0 24 24" fill="currentColor" xmlns="http://www.w3.org/2000/svg" focusable="false">
  <title>Credit Card Apr Icon</title>
  <path d="M6.03934 5.5296C5.0812 5.5296 4.2998 6.32694 4.2998 7.30464V18.6952C4.2998 19.6729 5.0812 20.4703 6.03934 20.4703H22.1603C23.1184 20.4703 23.8998 19.6729 23.8998 18.6952V7.30464C23.8998 6.32694 23.1184 5.5296 22.1603 5.5296H6.03934Z" fill="transparent" class="icon-offset"></path>
  <path fill-rule="evenodd" clip-rule="evenodd" d="M12.1353 18.33H4.34537C2.77919 18.33 1.5 17.2119 1.5 15.8268V9.27334V5.32328C1.5 3.94541 2.77099 2.82004 4.34537 2.82004H19.6546C21.2208 2.82004 22.5 3.9382 22.5 5.32328V11.181C22.5 11.4984 22.2048 11.7581 21.844 11.7581C21.4832 11.7581 21.188 11.4984 21.188 11.181V9.92933H2.81199V15.8268C2.81199 16.5698 3.50078 17.1758 4.34537 17.1758H12.1353C12.4961 17.1758 12.7913 17.4355 12.7913 17.7529C12.7913 18.0703 12.4961 18.33 12.1353 18.33ZM2.81199 5.32328V8.61734H21.188V5.32328C21.188 4.58024 20.4992 3.97427 19.6546 3.97427H4.34537C3.50078 3.97427 2.81199 4.58024 2.81199 5.32328ZM15.4203 20.9007L15.4234 20.9007H15.4152L15.4203 20.9007ZM15.8826 20.7121C15.7527 20.842 15.5907 20.8996 15.4203 20.9007C15.2493 20.8999 15.0864 20.8344 14.956 20.7121C14.7018 20.4579 14.7018 20.0397 14.956 19.7855L19.9005 14.841C20.1547 14.5868 20.5729 14.5868 20.8271 14.841C21.0813 15.0952 21.0813 15.5134 20.8271 15.7676L15.8826 20.7121ZM15.4562 16.2186H15.3906C14.8822 16.2186 14.464 15.8004 14.464 15.292C14.464 14.7836 14.8822 14.3654 15.3906 14.3654H15.4562C15.9645 14.3654 16.3827 14.7836 16.3827 15.292C16.3827 15.8004 15.9645 16.2186 15.4562 16.2186ZM20.3599 21.1798H20.4173H20.4255C20.942 21.1798 21.3356 20.7616 21.3356 20.2368C21.3356 19.712 20.8846 19.2938 20.3599 19.2938C19.8351 19.2938 19.4169 19.712 19.4169 20.2368C19.4169 20.7616 19.8433 21.1798 20.3599 21.1798Z" class="icon-base"></path>
</svg>
