<svg viewBox="0 0 24 24" fill="currentColor" xmlns="http://www.w3.org/2000/svg" focusable="false">
  <title>Credit Good Icon</title>
  <path d="M22.0101 19.0908H18.1468C17.1585 19.0908 16.251 18.3541 15.8917 17.258L15.8198 17.0424C15.2807 15.6947 13.978 14.8052 12.5135 14.8052C10.9681 14.8052 9.61147 15.7845 9.1263 17.249C8.76692 18.3451 7.85948 19.0819 6.87118 19.0819H3.00783C2.41485 19.0819 1.86679 18.8393 1.48045 18.408C1.11209 17.9947 0.950365 17.4736 1.01326 16.9256C1.73202 11.1485 6.67352 6.79999 12.5045 6.79999C18.3355 6.79999 23.268 11.1575 23.9867 16.9256C24.0496 17.4736 23.8879 17.9947 23.5195 18.408C23.1332 18.8393 22.5852 19.0819 21.9922 19.0819L22.0101 19.0908Z" fill="transparent" class="icon-offset"></path>
  <path fill-rule="evenodd" clip-rule="evenodd" d="M17.8923 18.4126H21.9236L21.9049 18.4032C22.5236 18.4032 23.0955 18.1501 23.4987 17.7001C23.883 17.2688 24.0518 16.7251 23.9862 16.1532C23.2362 10.1343 18.0892 5.58737 12.0047 5.58737C5.9202 5.58737 0.763848 10.125 0.0138334 16.1532C-0.0517929 16.7251 0.11696 17.2688 0.501343 17.7001C0.904475 18.1501 1.47636 18.4032 2.09512 18.4032H6.12645C7.15772 18.4032 8.10461 17.6345 8.47962 16.4907C8.98588 14.9626 10.4015 13.9407 12.0141 13.9407C12.2091 13.9407 12.4014 13.9558 12.5897 13.9851L11.8503 15.5443C11.1487 15.6264 10.5989 16.2277 10.5989 16.9503C10.5989 17.7285 11.2365 18.366 12.0146 18.366C12.8021 18.366 13.4302 17.7285 13.4302 16.9503C13.4302 16.6724 13.3489 16.4124 13.2089 16.193L14.0038 14.5166C14.6505 14.9263 15.1678 15.5343 15.4641 16.2751L15.5391 16.5001C15.9141 17.6439 16.861 18.4126 17.8923 18.4126ZM14.6522 13.1492C14.7804 13.2239 14.9054 13.304 15.0266 13.3893L18.8361 9.57988C17.1643 8.17087 15.0559 7.2735 12.7646 7.11325V12.493C12.9297 12.5165 13.0926 12.5478 13.2529 12.5865L14.5267 9.90024C14.7048 9.52523 15.1548 9.36586 15.5298 9.54398C15.9048 9.72211 16.0642 10.1721 15.8861 10.5471L14.6522 13.1492ZM17.8923 16.9126C17.5079 16.9126 17.1985 16.5657 17.0298 16.1907L17.0392 16.1813L16.9829 16.0219C16.7853 15.4292 16.4897 14.8899 16.1175 14.4198L19.9123 10.625C21.3009 12.1782 22.2412 14.1482 22.5143 16.3407C22.533 16.5095 22.458 16.6313 22.3924 16.7063C22.2799 16.8376 22.1111 16.9126 21.9236 16.9126H17.8923ZM4.03029 10.7325C2.6938 12.2675 1.78983 14.1966 1.52324 16.3407C1.50449 16.5095 1.57949 16.6407 1.63574 16.7063C1.74824 16.8376 1.91699 16.9032 2.1045 16.9032H6.13583C6.57646 16.9032 6.92334 16.4438 7.06397 16.0219C7.24258 15.4766 7.50468 14.9772 7.83336 14.5356L4.03029 10.7325ZM5.09263 9.67351C6.77985 8.21342 8.9275 7.28141 11.2646 7.11443V12.4952C10.392 12.6216 9.57992 12.9634 8.89387 13.4747L5.09263 9.67351Z" class="icon-base"></path>
</svg>
