<svg viewBox="0 0 24 24" fill="currentColor" xmlns="http://www.w3.org/2000/svg" focusable="false">
  <title>Credit Excellent Icon</title>
  <path d="M22.0101 19.0909H18.1468C17.1585 19.0909 16.251 18.3541 15.8917 17.258L15.8198 17.0424C15.2807 15.6947 13.978 14.8052 12.5135 14.8052C10.9681 14.8052 9.61147 15.7845 9.1263 17.249C8.76692 18.3451 7.85948 19.0819 6.87118 19.0819H3.00783C2.41485 19.0819 1.86679 18.8393 1.48045 18.408C1.11209 17.9947 0.950365 17.4736 1.01326 16.9256C1.73202 11.1485 6.67352 6.8 12.5045 6.8C18.3355 6.8 23.268 11.1575 23.9867 16.9256C24.0496 17.4736 23.8879 17.9947 23.5195 18.408C23.1332 18.8393 22.5852 19.0819 21.9922 19.0819L22.0101 19.0909Z" fill="transparent" class="icon-offset"></path>
  <path fill-rule="evenodd" clip-rule="evenodd" d="M17.8923 18.4126H21.9236L21.9049 18.4032C22.5236 18.4032 23.0955 18.1501 23.4987 17.7001C23.883 17.2688 24.0518 16.7251 23.9862 16.1532C23.2362 10.1343 18.0892 5.58737 12.0047 5.58737C5.9202 5.58737 0.763848 10.125 0.0138334 16.1532C-0.0517929 16.7251 0.11696 17.2688 0.501343 17.7001C0.904475 18.1501 1.47636 18.4032 2.09512 18.4032H6.12645C7.15772 18.4032 8.10461 17.6345 8.47962 16.4907C8.98588 14.9626 10.4015 13.9407 12.0141 13.9407C13.1178 13.9407 14.1335 14.4249 14.8245 15.2237L12.9139 15.8598C12.6687 15.6567 12.3546 15.5343 12.0136 15.5343C11.2355 15.5343 10.5979 16.1718 10.5979 16.9499C10.5979 17.728 11.2355 18.3656 12.0136 18.3656C12.6854 18.3656 13.2411 17.9017 13.39 17.2824L15.5595 16.5601C15.9475 17.6707 16.8792 18.4126 17.8923 18.4126ZM17.0032 16.0795L17.0392 16.1813L17.0298 16.1907C17.1985 16.5657 17.5079 16.9126 17.8923 16.9126H21.9236C22.1111 16.9126 22.2799 16.8376 22.3924 16.7063C22.458 16.6313 22.533 16.5095 22.5143 16.3407C22.2412 14.1481 21.3008 12.1779 19.912 10.6247L16.1172 14.4195C16.1942 14.5167 16.2679 14.6168 16.3381 14.7198L19.2143 13.7623C19.6081 13.6311 20.0299 13.8467 20.1612 14.2404C20.2924 14.6342 20.0768 15.0561 19.6831 15.1873L17.0032 16.0795ZM18.8357 9.57958L15.0262 13.389C14.3631 12.9228 13.591 12.6106 12.764 12.4929V7.11321C15.0554 7.27334 17.1639 8.17062 18.8357 9.57958ZM4.03043 10.7324C2.69386 12.2673 1.78983 14.1965 1.52324 16.3407C1.50449 16.5095 1.57949 16.6407 1.63574 16.7063C1.74824 16.8376 1.91699 16.9032 2.1045 16.9032H6.13583C6.57646 16.9032 6.92334 16.4438 7.06397 16.0219C7.24261 15.4765 7.50475 14.9771 7.83349 14.5354L4.03043 10.7324ZM5.09278 9.67338L8.89403 13.4746C9.5799 12.9635 10.3917 12.6218 11.264 12.4953V7.11448C8.92721 7.28157 6.77983 8.21348 5.09278 9.67338Z" class="icon-base"></path>
</svg>
