<svg viewBox="0 0 24 24" fill="currentColor" xmlns="http://www.w3.org/2000/svg" focusable="false">
  <title>Credit Card Reviews Icon</title>
  <path d="M6.03934 6.5296C5.0812 6.5296 4.2998 7.32694 4.2998 8.30464V19.6952C4.2998 20.6729 5.0812 21.4703 6.03934 21.4703H22.1603C23.1184 21.4703 23.8998 20.6729 23.8998 19.6952V8.30464C23.8998 7.32694 23.1184 6.5296 22.1603 6.5296H6.03934Z" fill="transparent" class="icon-offset"></path>
  <path fill-rule="evenodd" clip-rule="evenodd" d="M11.5859 19.3062H4.34537C2.77919 19.3062 1.5 18.1582 1.5 16.7478V8.53973V6.35029C1.5 4.9399 2.77099 3.79192 4.34537 3.79192H19.6546C21.2208 3.79192 22.5 4.9399 22.5 6.35029V10.5979C22.5 10.9586 22.2048 11.2538 21.844 11.2538C21.4832 11.2538 21.188 10.9586 21.188 10.5979V9.19572H2.81199V16.7478C2.81199 17.4366 3.50078 17.9942 4.34537 17.9942H11.5859C11.9467 17.9942 12.2419 18.2894 12.2419 18.6502C12.2419 19.011 11.9467 19.3062 11.5859 19.3062ZM2.81199 7.88373H21.188V6.35029C21.188 5.6615 20.4992 5.1039 19.6546 5.1039H4.34537C3.50078 5.1039 2.81199 5.6615 2.81199 6.35029V7.88373ZM20.0974 20.1751C19.9416 20.1751 19.7776 20.1341 19.63 20.0603L17.9736 19.1911L16.2844 20.0685C15.8088 20.3063 15.2431 20.1341 14.9889 19.6831C14.8823 19.4863 14.8413 19.2649 14.8823 19.0517L15.2103 17.2067L13.8491 15.9029C13.4719 15.5257 13.4637 14.9107 13.8327 14.5335C14.0213 14.3613 14.2017 14.2793 14.3903 14.2547L16.268 13.9841L17.1044 12.3031C17.2192 12.0735 17.416 11.9013 17.6538 11.8193C17.8998 11.7291 18.1786 11.7537 18.4082 11.8685C18.5394 11.9259 18.6706 12.0407 18.7772 12.1883C18.81 12.2211 18.8346 12.2621 18.851 12.3113L19.6874 14.0005L21.557 14.2711C21.803 14.3039 22.0408 14.4433 22.1966 14.6483C22.4918 15.0337 22.4508 15.5831 22.0982 15.9275L20.7452 17.2313L21.0732 19.0845C21.1142 19.3715 21.0404 19.6339 20.8846 19.8389C20.7288 20.0439 20.5074 20.1669 20.2532 20.1997C20.2336 20.1997 20.2122 20.2015 20.1898 20.2035L20.1898 20.2035C20.1652 20.2056 20.1395 20.2079 20.1138 20.2079L20.0974 20.1751ZM15.2595 15.4355L16.2352 16.3785C16.4648 16.5917 16.5714 16.9115 16.5222 17.2313L16.2844 18.5843L17.5144 17.9365C17.7932 17.7889 18.1376 17.7889 18.4164 17.9365L19.63 18.5679L19.4004 17.2395C19.3348 16.9279 19.4414 16.5999 19.6874 16.3621L20.655 15.4273L19.302 15.2305C18.9986 15.1977 18.7034 14.9927 18.564 14.6893L17.9572 13.4675L17.3504 14.6975C17.1946 14.9927 16.9322 15.1813 16.6206 15.2305L15.2595 15.4273V15.4355Z" class="icon-base"></path>
</svg>
