<svg viewBox="0 0 24 24" fill="currentColor" xmlns="http://www.w3.org/2000/svg" focusable="false">
  <title>Dashboard Icon</title>
  <path fill-rule="evenodd" clip-rule="evenodd" d="M6.4125 7.9125H4.5C3.675 7.9125 3 7.2375 3 6.4125V4.5C3 3.675 3.675 3 4.5 3H6.4125C7.2375 3 7.9125 3.675 7.9125 4.5V6.4125C7.9125 7.2375 7.2375 7.9125 6.4125 7.9125ZM4.5 4.2C4.335 4.2 4.2 4.335 4.2 4.5V6.4125C4.2 6.5775 4.335 6.7125 4.5 6.7125H6.4125C6.5775 6.7125 6.7125 6.5775 6.7125 6.4125V4.5C6.7125 4.335 6.5775 4.2 6.4125 4.2H4.5ZM6.4125 14.4525H4.5C3.675 14.4525 3 13.7775 3 12.9525V11.0475C3 10.2225 3.675 9.54751 4.5 9.54751H6.4125C7.2375 9.54751 7.9125 10.2225 7.9125 11.0475V12.9525C7.9125 13.7775 7.2375 14.4525 6.4125 14.4525ZM4.5 10.7475C4.335 10.7475 4.2 10.8825 4.2 11.0475V12.9525C4.2 13.1175 4.335 13.2525 4.5 13.2525H6.4125C6.5775 13.2525 6.7125 13.1175 6.7125 12.9525V11.0475C6.7125 10.8825 6.5775 10.7475 6.4125 10.7475H4.5ZM4.5 21H6.4125C7.2375 21 7.9125 20.325 7.9125 19.5V17.595C7.9125 16.77 7.2375 16.095 6.4125 16.095H4.5C3.675 16.095 3 16.77 3 17.595V19.5C3 20.325 3.675 21 4.5 21ZM4.2 17.5875C4.2 17.4225 4.335 17.2875 4.5 17.2875H6.4125C6.5775 17.2875 6.7125 17.4225 6.7125 17.5875V19.4925C6.7125 19.6575 6.5775 19.7925 6.4125 19.7925H4.5C4.335 19.7925 4.2 19.6575 4.2 19.4925V17.5875ZM12.9527 7.9125H11.0402C10.2152 7.9125 9.54016 7.2375 9.54016 6.4125V4.5C9.54016 3.675 10.2152 3 11.0402 3H12.9527C13.7777 3 14.4527 3.675 14.4527 4.5V6.4125C14.4527 7.2375 13.7777 7.9125 12.9527 7.9125ZM11.0477 4.2C10.8827 4.2 10.7477 4.335 10.7477 4.5V6.4125C10.7477 6.5775 10.8827 6.7125 11.0477 6.7125H12.9602C13.1252 6.7125 13.2602 6.5775 13.2602 6.4125V4.5C13.2602 4.335 13.1252 4.2 12.9602 4.2H11.0477ZM11.0402 14.4525H12.9527C13.7777 14.4525 14.4527 13.7775 14.4527 12.9525V11.0475C14.4527 10.2225 13.7777 9.54751 12.9527 9.54751H11.0402C10.2152 9.54751 9.54016 10.2225 9.54016 11.0475V12.9525C9.54016 13.7775 10.2152 14.4525 11.0402 14.4525ZM10.7477 11.0475C10.7477 10.8825 10.8827 10.7475 11.0477 10.7475H12.9602C13.1252 10.7475 13.2602 10.8825 13.2602 11.0475V12.9525C13.2602 13.1175 13.1252 13.2525 12.9602 13.2525H11.0477C10.8827 13.2525 10.7477 13.1175 10.7477 12.9525V11.0475ZM12.9527 21H11.0402C10.2152 21 9.54016 20.325 9.54016 19.5V17.595C9.54016 16.77 10.2152 16.095 11.0402 16.095H12.9527C13.7777 16.095 14.4527 16.77 14.4527 17.595V19.5C14.4527 20.325 13.7777 21 12.9527 21ZM11.0477 17.2875C10.8827 17.2875 10.7477 17.4225 10.7477 17.5875V19.4925C10.7477 19.6575 10.8827 19.7925 11.0477 19.7925H12.9602C13.1252 19.7925 13.2602 19.6575 13.2602 19.4925V17.5875C13.2602 17.4225 13.1252 17.2875 12.9602 17.2875H11.0477ZM17.595 7.9125H19.5C20.325 7.9125 21 7.2375 21 6.4125V4.5C21 3.675 20.325 3 19.5 3H17.595C16.77 3 16.095 3.675 16.095 4.5V6.4125C16.095 7.2375 16.77 7.9125 17.595 7.9125ZM17.295 4.5C17.295 4.335 17.43 4.2 17.595 4.2H19.5C19.665 4.2 19.8 4.335 19.8 4.5V6.4125C19.8 6.5775 19.665 6.7125 19.5 6.7125H17.595C17.43 6.7125 17.295 6.5775 17.295 6.4125V4.5ZM19.5 14.4525H17.595C16.77 14.4525 16.095 13.7775 16.095 12.9525V11.0475C16.095 10.2225 16.77 9.54751 17.595 9.54751H19.5C20.325 9.54751 21 10.2225 21 11.0475V12.9525C21 13.7775 20.325 14.4525 19.5 14.4525ZM17.595 10.7475C17.43 10.7475 17.295 10.8825 17.295 11.0475V12.9525C17.295 13.1175 17.43 13.2525 17.595 13.2525H19.5C19.665 13.2525 19.8 13.1175 19.8 12.9525V11.0475C19.8 10.8825 19.665 10.7475 19.5 10.7475H17.595ZM17.595 21H19.5C20.325 21 21 20.325 21 19.5V17.595C21 16.77 20.325 16.095 19.5 16.095H17.595C16.77 16.095 16.095 16.77 16.095 17.595V19.5C16.095 20.325 16.77 21 17.595 21ZM17.295 17.5875C17.295 17.4225 17.43 17.2875 17.595 17.2875H19.5C19.665 17.2875 19.8 17.4225 19.8 17.5875V19.4925C19.8 19.6575 19.665 19.7925 19.5 19.7925H17.595C17.43 19.7925 17.295 19.6575 17.295 19.4925V17.5875Z" class="icon-base"></path>
</svg>
