<svg viewBox="0 0 24 24" fill="currentColor" xmlns="http://www.w3.org/2000/svg" focusable="false">
  <title>Debt Icon</title>
  <path d="M20.7614 24H7.26299C6.30693 24 5.40758 23.6012 4.7837 22.8974C4.16793 22.2015 3.89245 21.2787 4.03829 20.3717L5.8451 9.65869C6.08817 8.11822 7.44124 7 9.06169 7H18.9383C20.5588 7 21.9119 8.11822 22.1549 9.66651L23.9618 20.3638C24.1076 21.2787 23.8321 22.2015 23.2082 22.8974C22.5925 23.5934 21.6931 23.9922 20.7452 23.9922L20.7614 24Z" fill="transparent" class="icon-offset"></path>
  <path fill-rule="evenodd" clip-rule="evenodd" d="M14.1299 4.3892C14.2619 4.0983 14.3355 3.77601 14.3355 3.43756C14.3355 2.16146 13.2891 1.11505 12.013 1.11505C10.7369 1.11505 9.69051 2.16146 9.69051 3.43756C9.69051 3.77601 9.76351 4.0983 9.89477 4.3892H6.81478C5.1133 4.3892 3.69257 5.60576 3.43735 7.28171L1.54021 18.9368C1.38708 19.9237 1.67633 20.9275 2.32289 21.6847C2.97795 22.4504 3.92227 22.8842 4.92614 22.8842H19.0994L19.0824 22.8757C20.0778 22.8757 21.0221 22.4418 21.6687 21.6847C22.3237 20.9275 22.613 19.9237 22.4598 18.9283L20.5627 7.29022C20.3075 5.60576 18.8867 4.3892 17.1853 4.3892H14.1299ZM12.0607 4.3892C12.5664 4.36398 12.9744 3.94052 12.9744 3.42906C12.9744 2.9016 12.5405 2.46772 12.013 2.46772C11.4856 2.46772 11.0517 2.9016 11.0517 3.42906C11.0517 3.94052 11.4596 4.36398 11.9653 4.3892H12.0607ZM6.82329 5.75889C5.8024 5.75889 4.94316 6.49052 4.79002 7.5029L2.89288 19.158C2.7993 19.745 2.96945 20.349 3.36079 20.8084C3.75213 21.2678 4.32212 21.5316 4.92614 21.5316H19.0994C19.6949 21.5316 20.2649 21.2678 20.6563 20.8169C21.0476 20.3575 21.2263 19.7535 21.1327 19.158L19.2355 7.51992C19.0824 6.49903 18.2232 5.7674 17.2023 5.7674H6.83179L6.82329 5.75889ZM11.3319 16.7942C11.3319 17.1685 11.6382 17.4748 12.0125 17.4748C12.3868 17.4748 12.6931 17.1685 12.6931 16.7942L12.6931 16.462C13.731 16.462 14.5817 15.6198 14.5817 14.5734C14.5817 13.527 13.731 12.6847 12.6931 12.6847H11.3149C11.0257 12.6847 10.7874 12.4465 10.7874 12.1573C10.7874 11.868 11.0257 11.6298 11.3149 11.6298H11.9028C11.9385 11.6357 11.9752 11.6387 12.0125 11.6387C12.0498 11.6387 12.0865 11.6357 12.1222 11.6298H13.5523C13.9267 11.6298 14.2329 11.3235 14.2329 10.9492C14.2329 10.5749 13.9267 10.2686 13.5523 10.2686H12.6931V9.93724C12.6931 9.56292 12.3868 9.25665 12.0125 9.25665C11.6382 9.25665 11.3319 9.56292 11.3319 9.93724V10.2686H11.3149C10.2685 10.2686 9.42627 11.1194 9.42627 12.1573C9.42627 13.1952 10.277 14.0459 11.3149 14.0459H12.6931C12.9824 14.0459 13.2206 14.2841 13.2206 14.5734C13.2206 14.8626 12.9824 15.1008 12.6931 15.1008H10.4557C10.0813 15.1008 9.77507 15.4071 9.77507 15.7814C9.77507 16.1557 10.0813 16.462 10.4557 16.462H11.3319V16.7942Z" class="icon-base"></path>
</svg>
