<svg viewBox="0 0 24 24" fill="currentColor" xmlns="http://www.w3.org/2000/svg" focusable="false">
  <title>Document Icon</title>
  <path d="M18.3226 23.9906H10.1098C7.61501 23.9364 5.64705 21.8764 5.70129 19.3982V8.56378C5.75552 6.13205 7.76997 4.16498 10.1873 4.16498H16.0447C16.7885 4.16498 17.509 4.47475 18.0204 5.00137L21.9408 9.08265C22.4289 9.59378 22.7001 10.2675 22.7001 10.98V19.4136C22.7156 21.8764 20.7941 23.8976 18.3303 23.9983L18.3226 23.9906Z" fill="transparent" class="icon-offset"></path>
  <path fill-rule="evenodd" clip-rule="evenodd" d="M16.3649 22.4918H7.66902C5.02745 22.4344 2.94373 20.2532 3.00116 17.6292V6.15756C3.05858 3.58278 5.19153 1.5 7.75106 1.5H13.953C14.7405 1.5 15.5035 1.828 16.0449 2.38559L20.1959 6.70695C20.7128 7.24815 20.9999 7.96154 20.9999 8.71593V17.6456C21.0163 20.2532 18.9818 22.3934 16.3731 22.5L16.3649 22.4918ZM7.75106 2.81199C5.89704 2.81199 4.35476 4.31257 4.30553 6.16576V17.6374C4.26452 19.548 5.77398 21.1306 7.67722 21.1716H16.332C18.2107 21.0978 19.6873 19.5398 19.6791 17.6374V8.83925H17.2662C15.363 8.83925 13.8125 7.28126 13.8125 5.38708V2.81199H7.75926H7.75106ZM15.1251 3.32886V5.38708C15.1251 6.56787 16.0849 7.52726 17.2662 7.52726H19.1577L15.1251 3.32886ZM14.4199 16.3172H8.62816C8.2672 16.3172 7.97187 16.022 7.97187 15.6612C7.97187 15.3004 8.2672 15.0052 8.62816 15.0052H14.4199C14.7809 15.0052 15.0762 15.3004 15.0762 15.6612C15.0762 16.022 14.7809 16.3172 14.4199 16.3172ZM12.2213 12.291H8.61995C8.25899 12.291 7.96366 11.9958 7.96366 11.635C7.96366 11.2742 8.25899 10.979 8.61995 10.979H12.2213C12.5823 10.979 12.8776 11.2742 12.8776 11.635C12.8776 11.9958 12.5823 12.291 12.2213 12.291Z" class="icon-base"></path>
</svg>
