<svg viewBox="0 0 24 24" fill="currentColor" xmlns="http://www.w3.org/2000/svg" focusable="false">
  <title>Dollar Icon</title>
  <path d="M5.77504 6.5296C4.79734 6.5296 4 7.32694 4 8.30464V19.6952C4 20.6729 4.79734 21.4703 5.77504 21.4703H22.225C23.2027 21.4703 24 20.6729 24 19.6952V8.30464C24 7.32694 23.2027 6.5296 22.225 6.5296H5.77504Z" fill="transparent" class="icon-offset"></path>
  <path fill-rule="evenodd" clip-rule="evenodd" d="M4.50247 20.194H19.4975C21.1588 20.194 22.5 18.8442 22.5 17.1916V6.80838C22.5 5.14707 21.1502 3.80591 19.4975 3.80591H4.50247C2.84116 3.80591 1.5 5.15572 1.5 6.80838V17.1916C1.5 18.8529 2.84981 20.194 4.50247 20.194ZM2.88443 6.80838C2.88443 5.91716 3.61125 5.19033 4.50247 5.19033H19.4975C20.3888 5.19033 21.1156 5.91716 21.1156 6.80838V17.1916C21.1156 18.0828 20.3888 18.8096 19.4975 18.8096H4.50247C3.61125 18.8096 2.88443 18.0828 2.88443 17.1916V6.80838ZM12.0047 15.5736C11.624 15.5736 11.3125 15.2621 11.3125 14.8814V14.7257H10.6978C10.3171 14.7257 10.0056 14.4142 10.0056 14.0334C10.0056 13.6527 10.3171 13.3412 10.6978 13.3412H11.8954C11.9311 13.3355 11.9675 13.3326 12.0047 13.3326C12.0419 13.3326 12.0783 13.3355 12.114 13.3412H12.5841C12.7658 13.3412 12.9042 13.1941 12.9042 13.0211C12.9042 12.848 12.7571 12.7009 12.5841 12.7009H11.4246C10.4815 12.7009 9.72004 11.9308 9.72004 10.9964C9.72004 10.0995 10.4293 9.35412 11.3125 9.2955V9.11871C11.3125 8.73799 11.624 8.4265 12.0047 8.4265C12.3854 8.4265 12.6969 8.73799 12.6969 9.11871V9.29179H13.3109C13.6916 9.29179 14.0031 9.60328 14.0031 9.984C14.0031 10.3647 13.6916 10.6762 13.3109 10.6762H11.4246C11.2429 10.6762 11.1045 10.8233 11.1045 10.9964C11.1045 11.1694 11.2516 11.3165 11.4246 11.3165H12.5841C13.5272 11.3165 14.2886 12.0779 14.2886 13.0211C14.2886 13.9263 13.5872 14.6641 12.6969 14.722V14.8814C12.6969 15.2621 12.3854 15.5736 12.0047 15.5736Z" class="icon-base"></path>
</svg>
