<svg viewBox="0 0 24 24" fill="currentColor" xmlns="http://www.w3.org/2000/svg" focusable="false">
  <title>Dollar Reload Icon</title>
  <path d="M23.8502 12.6001C23.8502 18.2335 19.2835 22.8001 13.6502 22.8001C8.01689 22.8001 3.4502 18.2335 3.4502 12.6001C3.4502 6.96684 8.01689 2.40015 13.6502 2.40015C19.2835 2.40015 23.8502 6.96684 23.8502 12.6001Z" fill="transparent" class="icon-offset"></path>
  <path fill-rule="evenodd" clip-rule="evenodd" d="M2.31512 17.6979L3.66916 17.9687C0.793269 13.988 1.14314 8.33274 4.69297 4.75181C7.06229 2.36543 10.4543 1.29156 13.7782 1.88816C14.1446 1.95634 14.3918 2.30577 14.3321 2.68078C14.264 3.04726 13.906 3.29441 13.5395 3.23476C10.6589 2.71487 7.71853 3.65237 5.66456 5.7234C2.59161 8.81966 2.28834 13.7176 4.76761 17.1685L5.01682 15.9081C5.09352 15.5416 5.45147 15.303 5.81795 15.3712C6.18443 15.4479 6.42306 15.8058 6.35488 16.1723L5.77534 19.0786C5.70715 19.4025 5.42591 19.624 5.11057 19.624C5.06795 19.624 5.02534 19.624 4.9742 19.6155L2.05092 19.036C1.68444 18.9593 1.43728 18.6013 1.51399 18.2348C1.59069 17.8684 1.94864 17.6297 2.31512 17.6979ZM10.2324 22.1123C10.829 22.2231 11.4341 22.2743 12.0393 22.2743L12.0478 22.2657C14.758 22.2657 17.383 21.1919 19.3176 19.2402C22.868 15.6587 23.2175 10.0023 20.3402 6.02146L21.6872 6.2858C22.0537 6.35398 22.4117 6.11534 22.4884 5.74886C22.5566 5.38238 22.3179 5.02443 21.9515 4.94772L19.0282 4.36817C18.6532 4.29147 18.2952 4.53863 18.227 4.90511L17.6475 7.81137C17.5793 8.17785 17.8179 8.53581 18.1844 8.61251C18.2356 8.62956 18.2782 8.62956 18.3208 8.62956C18.6361 8.62956 18.9174 8.40796 18.9855 8.0841L19.2353 6.82118C21.7229 10.2727 21.4222 15.1776 18.3461 18.2771C16.2921 20.3481 13.3518 21.2771 10.4711 20.7657C10.1046 20.6975 9.74665 20.9447 9.67847 21.3197C9.61881 21.6947 9.85745 22.0441 10.2324 22.1123ZM11.3239 15.8918H9.94302C9.56802 15.8918 9.2612 15.585 9.2612 15.21C9.2612 14.835 9.56802 14.5281 9.94302 14.5281H11.8951C11.9311 14.5222 11.9681 14.5191 12.0057 14.5191C12.0434 14.5191 12.0803 14.5222 12.1164 14.5281H12.9174C13.4288 14.5281 13.8379 14.1191 13.8379 13.6077C13.8379 13.0963 13.4288 12.6872 12.9174 12.6872H11.0851C9.8237 12.6872 8.80097 11.6645 8.80097 10.4031C8.80097 9.14176 9.8237 8.11902 11.0851 8.11902H11.3239V7.45373C11.3239 7.07873 11.6307 6.77191 12.0057 6.77191C12.3807 6.77191 12.6875 7.07873 12.6875 7.45373V8.11902H14.0595C14.4345 8.11902 14.7413 8.42584 14.7413 8.80085C14.7413 9.17585 14.4345 9.48267 14.0595 9.48267H12.1099C12.0759 9.48794 12.0411 9.49068 12.0057 9.49068C11.9703 9.49068 11.9355 9.48794 11.9015 9.48267H11.0851C10.5737 9.48267 10.1646 9.89176 10.1646 10.4031C10.1646 10.9145 10.5737 11.3236 11.0851 11.3236H12.9174C14.1788 11.3236 15.2015 12.3463 15.2015 13.6077C15.2015 14.8691 14.1788 15.8918 12.9174 15.8918H12.6875V16.539C12.6875 16.914 12.3807 17.2208 12.0057 17.2208C11.6307 17.2208 11.3239 16.914 11.3239 16.539V15.8918Z" class="icon-base"></path>
</svg>
