<svg viewBox="0 0 24 24" fill="currentColor" xmlns="http://www.w3.org/2000/svg" focusable="false">
  <title>Dollar Coin Icon</title>
  <path d="M13.5 24C7.70859 24 3 19.2914 3 13.5C3 7.70859 7.70859 3 13.5 3C19.2914 3 24 7.70859 24 13.5C24 19.2914 19.2914 24 13.5 24Z" fill="transparent" class="icon-offset"></path>
  <path fill-rule="evenodd" clip-rule="evenodd" d="M1.5 12C1.5 17.7947 6.21447 22.5 12 22.5C17.7947 22.5 22.5 17.7947 22.5 12C22.5 6.20532 17.7947 1.5 12 1.5C6.20532 1.5 1.5 6.20532 1.5 12ZM2.96469 12C2.96469 7.02005 7.02005 2.96469 12 2.96469C16.9799 2.96469 21.0353 7.02005 21.0353 12C21.0353 16.9799 16.9799 21.0353 12 21.0353C7.02005 21.0353 2.96469 16.9799 2.96469 12ZM12.0006 17.6116C11.5978 17.6116 11.2682 17.282 11.2682 16.8792V16.1829H9.78513C9.38234 16.1829 9.05278 15.8534 9.05278 15.4506C9.05278 15.0478 9.38234 14.7182 9.78513 14.7182H11.8888C11.9253 14.7126 11.9626 14.7097 12.0006 14.7097C12.0385 14.7097 12.0759 14.7126 12.1123 14.7182H12.98C13.5292 14.7182 13.9686 14.2788 13.9686 13.7296C13.9686 13.1803 13.5292 12.7409 12.98 12.7409H11.0118C9.65697 12.7409 8.55845 11.6424 8.55845 10.2875C8.55845 8.9327 9.65697 7.83418 11.0118 7.83418H11.2682V7.12072C11.2682 6.71793 11.5978 6.38838 12.0006 6.38838C12.4033 6.38838 12.7329 6.71793 12.7329 7.12072V7.83418H14.2067C14.6095 7.83418 14.939 8.16373 14.939 8.56652C14.939 8.96931 14.6095 9.29887 14.2067 9.29887H12.1196C12.0808 9.30527 12.0411 9.30861 12.0006 9.30861C11.9601 9.30861 11.9203 9.30527 11.8815 9.29887H11.0118C10.4625 9.29887 10.0231 9.73828 10.0231 10.2875C10.0231 10.8368 10.4625 11.2762 11.0118 11.2762H12.98C14.3348 11.2762 15.4333 12.3747 15.4333 13.7296C15.4333 15.0844 14.3348 16.1829 12.98 16.1829H12.7329V16.8792C12.7329 17.282 12.4033 17.6116 12.0006 17.6116Z" class="icon-base"></path>
</svg>
