<svg viewBox="0 0 24 24" fill="currentColor" xmlns="http://www.w3.org/2000/svg" focusable="false">
  <title>Dollar Star Icon</title>
  <path d="M5.76786 5.5C4.79464 5.5 4 6.25454 4 7.18391V18.9161C4 19.8455 4.79464 20.6 5.76786 20.6H22.2321C23.2054 20.6 24 19.8455 24 18.9161V7.18391C24 6.25454 23.2054 5.5 22.2321 5.5H5.76786Z" fill="transparent" class="icon-offset"></path>
  <path fill-rule="evenodd" clip-rule="evenodd" d="M11.7758 19.0315H4.43714C2.82044 19.0315 1.5 17.7196 1.5 16.0944V5.93714C1.5 4.32044 2.81198 3 4.43714 3H19.1059C20.7226 3 22.0431 4.32044 22.0431 5.93714V11.0158C22.0431 11.3882 21.7383 11.6929 21.3659 11.6929C20.9935 11.6929 20.6888 11.3882 20.6888 11.0158V5.93714C20.6888 5.06531 19.9777 4.3543 19.1059 4.3543H4.43714C3.56531 4.3543 2.8543 5.06531 2.8543 5.93714V16.0944C2.8543 16.9662 3.56531 17.6772 4.43714 17.6772H11.7758C12.1482 17.6772 12.4529 17.982 12.4529 18.3544C12.4529 18.7268 12.1482 19.0315 11.7758 19.0315ZM11.0989 13.8347C11.0989 14.2072 11.4036 14.5119 11.776 14.5119C12.1485 14.5119 12.4532 14.2072 12.4532 13.8347V13.6786C13.3242 13.6221 14.0105 12.9003 14.0105 12.0147C14.0105 11.0921 13.2657 10.3472 12.3431 10.3472H11.2088C11.0395 10.3472 10.8957 10.2033 10.8957 10.034C10.8957 9.86473 11.0311 9.72083 11.2088 9.72083H13.0541C13.4265 9.72083 13.7312 9.41612 13.7312 9.04368C13.7312 8.67125 13.4265 8.36653 13.0541 8.36653H12.4532V8.19745C12.4532 7.82502 12.1485 7.5203 11.776 7.5203C11.4036 7.5203 11.0989 7.82502 11.0989 8.19745V8.37018C10.235 8.42766 9.54135 9.15679 9.54135 10.034C9.54135 10.9482 10.2862 11.7015 11.2088 11.7015H12.3431C12.5123 11.7015 12.6562 11.8454 12.6562 12.0147C12.6562 12.184 12.5208 12.3279 12.3431 12.3279H11.8815C11.8471 12.3224 11.8119 12.3196 11.776 12.3196C11.7402 12.3196 11.7049 12.3224 11.6706 12.3279H10.4978C10.1254 12.3279 9.82067 12.6326 9.82067 13.005C9.82067 13.3774 10.1254 13.6822 10.4978 13.6822H11.0989V13.8347ZM19.6563 20.3689C19.8086 20.4451 19.9779 20.4874 20.1388 20.4874L20.1472 20.5128C20.1738 20.5128 20.2003 20.5105 20.2257 20.5083C20.2488 20.5063 20.2709 20.5043 20.2911 20.5043C20.5535 20.4705 20.782 20.3435 20.9429 20.1319C21.1037 19.9203 21.1799 19.6494 21.1376 19.3532L20.799 17.4402L22.1956 16.0944C22.5596 15.7389 22.6019 15.1718 22.2972 14.7739C22.1364 14.5623 21.8909 14.4184 21.637 14.3846L19.7071 14.1053L18.8437 12.3616C18.8268 12.3193 18.8014 12.277 18.7675 12.2431C18.666 12.0907 18.5305 11.9722 18.3951 11.913C18.1581 11.7945 17.8703 11.7691 17.6164 11.8622C17.3709 11.9468 17.1678 12.1246 17.0493 12.3616L16.1859 14.0968L14.2475 14.3761C14.0529 14.4015 13.8666 14.4862 13.672 14.6639C13.2911 15.0533 13.2995 15.6881 13.6889 16.0775L15.094 17.4233L14.7554 19.3278C14.7131 19.5479 14.7554 19.7764 14.8654 19.9795C15.1278 20.4451 15.7119 20.6228 16.2028 20.3774L17.9465 19.4717L19.6563 20.3689ZM16.152 16.5684L15.1448 15.595V15.5865L16.5499 15.3834C16.8715 15.3326 17.1424 15.1379 17.3032 14.8332L17.9296 13.5635L18.5559 14.8247C18.6998 15.1379 19.0045 15.3495 19.3177 15.3834L20.7143 15.5865L19.7155 16.5515C19.4616 16.7969 19.3516 17.1355 19.4193 17.4572L19.6563 18.8284L18.4036 18.1766C18.1158 18.0243 17.7603 18.0243 17.4725 18.1766L16.2028 18.8453L16.4483 17.4487C16.4991 17.1186 16.389 16.7885 16.152 16.5684Z" class="icon-base"></path>
</svg>
