<svg viewBox="0 0 24 24" fill="currentColor" xmlns="http://www.w3.org/2000/svg" focusable="false">
  <title>Download Icon</title>
  <path fill-rule="evenodd" clip-rule="evenodd" d="M4.7998 20.2799C4.7998 21.3752 5.01729 21.8991 5.27146 22.1711C5.52606 22.4436 6.01501 22.6751 7.03266 22.6751H21.0725C22.0864 22.6742 22.574 22.4432 22.8281 22.1711C23.0823 21.8991 23.2998 21.3752 23.2998 20.2799V12.62C23.2998 11.5248 23.0823 11.0009 22.8281 10.7288C22.574 10.4568 22.0864 10.2258 21.0726 10.2249H7.03266C6.01501 10.2249 5.52606 10.4563 5.27146 10.7288C5.01729 11.0009 4.7998 11.5248 4.7998 12.62V20.2799Z" fill="transparent" class="icon-offset"></path>
  <path fill-rule="evenodd" clip-rule="evenodd" d="M12.8538 3.54079C12.8538 3.06933 12.4716 2.68713 12.0001 2.68713C11.5286 2.68713 11.1464 3.06933 11.1464 3.54079V13.4764L9.70027 12.0223C9.36782 11.688 8.82731 11.6865 8.49302 12.019C8.15873 12.3514 8.15725 12.8919 8.48971 13.2262L11.3948 16.1473C11.555 16.3084 11.7729 16.399 12.0001 16.399C12.2273 16.399 12.4452 16.3084 12.6054 16.1473L15.5105 13.2262C15.8429 12.8919 15.8415 12.3514 15.5072 12.019C15.1729 11.6865 14.6324 11.688 14.2999 12.0223L12.8538 13.4764V3.54079ZM3.63407 11.1197C3.63407 10.1992 3.82923 9.75954 4.0573 9.53147C4.28537 9.3034 4.72501 9.10824 5.64551 9.10824H7.38217C7.85363 9.10824 8.23583 8.72605 8.23583 8.25459C8.23583 7.78312 7.85363 7.40093 7.38217 7.40093H5.64551C4.54124 7.40093 3.54833 7.62593 2.85005 8.32421C2.15176 9.0225 1.92676 10.0154 1.92676 11.1197V17.5861C1.92676 18.6955 2.15422 19.6903 2.8547 20.3893C3.55479 21.0878 4.54913 21.3129 5.65351 21.3129H18.3543C19.4586 21.3129 20.4515 21.0879 21.1498 20.3896C21.8481 19.6913 22.0731 18.6984 22.0731 17.5941V11.1277C22.0731 10.0184 21.8456 9.02353 21.1452 8.32457C20.4451 7.62598 19.4507 7.40093 18.3463 7.40093H16.6177C16.1462 7.40093 15.764 7.78312 15.764 8.25459C15.764 8.72605 16.1462 9.10824 16.6177 9.10824H18.3463C19.2667 9.10824 19.7089 9.30336 19.9392 9.53312C20.1691 9.76251 20.3658 10.2042 20.3658 11.1277V17.5941C20.3658 18.5146 20.1706 18.9543 19.9426 19.1824C19.7145 19.4104 19.2748 19.6056 18.3543 19.6056H5.65351C4.73312 19.6056 4.29091 19.4105 4.06065 19.1807C3.83077 18.9513 3.63407 18.5096 3.63407 17.5861V11.1197Z" class="icon-base"></path>
</svg>
