<svg viewBox="0 0 24 24" fill="currentColor" xmlns="http://www.w3.org/2000/svg" focusable="false">
  <title>Edit Icon</title>
  <path d="M16.4888 4.29999C15.8223 4.29999 15.1697 4.60051 14.7532 5.17422L5.78331 17.4135C5.24179 18.1785 4.9502 19.0937 4.9502 20.0363L4.97797 22.4677C4.97797 22.9458 5.21401 23.3966 5.6028 23.6835C5.99159 23.9703 6.49146 24.0523 6.96355 23.9293L9.28239 23.26C10.2821 22.9732 11.1569 22.3584 11.754 21.5252L20.6405 9.40881C21.3348 8.46628 21.1265 7.1276 20.1684 6.4446L17.7663 4.72345C17.3914 4.45025 16.947 4.31365 16.5027 4.31365L16.4888 4.29999Z" fill="transparent" class="icon-offset"></path>
  <path fill-rule="evenodd" clip-rule="evenodd" d="M4.40665 21.8562C4.97625 22.2854 5.66704 22.5 6.35782 22.5L6.32146 22.4881C6.63656 22.4881 6.95166 22.4404 7.25463 22.3569L9.27852 21.7727C10.5753 21.4031 11.7144 20.6043 12.478 19.5313L18.4101 11.4396C18.4247 11.423 18.4389 11.4059 18.4525 11.3883C18.4702 11.3642 18.4866 11.3396 18.5018 11.3145L20.222 8.96803C21.4582 7.29889 21.0825 4.93825 19.3858 3.72216L17.2892 2.21993C15.5926 1.00384 13.2051 1.36151 11.9568 3.04258L4.12791 13.737C3.41289 14.7504 3.04932 15.9307 3.04932 17.1587L3.07355 19.2809C3.08567 20.3063 3.57044 21.2481 4.40665 21.8562ZM17.4916 9.50741L18.6829 7.88309C19.2889 7.06044 19.1071 5.89204 18.2709 5.29592L16.1743 3.79369C15.8471 3.55524 15.4592 3.43602 15.0714 3.43602L15.0593 3.4241C14.4776 3.4241 13.908 3.68639 13.5444 4.18713L12.362 5.8006L17.4916 9.50741ZM11.2264 7.35001L5.71551 14.8696C5.24287 15.5373 4.98837 16.3361 4.98837 17.1587L5.01261 19.2809C5.01261 19.6982 5.21863 20.0917 5.55796 20.342C5.8973 20.5924 6.33358 20.6639 6.74563 20.5566L8.76952 19.9724C9.64209 19.7221 10.4056 19.1856 10.9267 18.4583L16.3555 11.0564L11.2264 7.35001Z" class="icon-base"></path>
</svg>
