<svg viewBox="0 0 24 24" fill="currentColor" xmlns="http://www.w3.org/2000/svg" focusable="false">
  <title>Education Icon</title>
  <path fill-rule="evenodd" clip-rule="evenodd" d="M7.73614 14.0822L5.16257 12.7557C4.45153 12.3854 4.01172 11.6446 4.01172 10.8113C4.01172 9.97796 4.45153 9.23722 5.16257 8.86685L11.9724 5.36377C12.9473 4.86222 14.0615 4.86222 15.0364 5.36377L21.8609 8.87457C22.5719 9.24494 23.0117 9.98568 23.0117 10.8113C23.0117 11.6369 22.5719 12.3854 21.8609 12.7557L19.1127 14.1711V18.2959C19.1127 18.9209 18.7755 19.4996 18.255 19.762C16.6717 20.5876 15.0664 20.9965 13.4464 20.9965L13.4537 21.012C11.8411 21.012 10.2211 20.603 8.60111 19.7774C8.08066 19.5151 7.73614 18.9364 7.73614 18.3036V14.0822Z" fill="transparent" class="icon-offset"></path>
  <path fill-rule="evenodd" clip-rule="evenodd" d="M12.0035 15.8306C11.5989 15.8306 11.1942 15.7659 10.8058 15.6364C10.7491 15.6283 10.6844 15.604 10.6277 15.5798L10.563 15.5474C10.4821 15.515 10.393 15.4746 10.3121 15.4341L6.92991 13.7811V17.5626C6.92991 17.7244 7.01893 17.8782 7.14841 17.9348C10.3936 19.5048 13.5174 19.5048 16.6816 17.9348C16.8192 17.8701 16.9001 17.7163 16.9001 17.5545V13.8618L13.703 15.426C13.1607 15.6931 12.5862 15.8225 12.0035 15.8225V15.8306ZM18.195 13.2283L21.2292 11.7438C22.0142 11.3554 22.4997 10.5704 22.4997 9.70447C22.4997 8.83855 22.0142 8.06165 21.2292 7.6732L13.6949 3.99102C12.6185 3.46499 11.3884 3.46499 10.3121 3.99102L2.79399 7.6651C2.009 8.05355 1.52344 8.83045 1.52344 9.70447C1.52344 9.76883 1.52607 9.83266 1.53126 9.89586L1.5 15.3121C1.5 15.6682 1.79134 15.9595 2.14742 15.9595V15.9515C2.5035 15.9515 2.79483 15.6682 2.79483 15.3121L2.81537 11.7543L5.63507 13.1349V17.5626C5.63507 18.2262 6.01543 18.8331 6.59001 19.1083C8.3785 19.9742 10.167 20.4031 11.9474 20.4031L11.9393 20.3869C13.7278 20.3869 15.5001 19.958 17.2481 19.0921C17.8227 18.8169 18.195 18.21 18.195 17.5545V13.2283ZM3.35239 10.5866C3.06804 10.4444 2.87998 10.1946 2.82611 9.89408L2.8272 9.70388C2.8272 9.66533 2.82379 9.62755 2.81725 9.59081C2.85573 9.26373 3.0494 8.99004 3.35239 8.83855L10.8705 5.16446C11.5908 4.81647 12.4081 4.81647 13.1203 5.16446L20.6546 8.84664C20.9945 9.01659 21.1968 9.34029 21.1968 9.72065C21.1968 10.101 20.9945 10.4247 20.6546 10.5947L13.1284 14.2768C12.481 14.5925 11.7445 14.6248 11.0809 14.3659V14.3578L3.35239 10.5866Z" class="icon-base"></path>
</svg>
