<svg viewBox="0 0 24 24" fill="currentColor" xmlns="http://www.w3.org/2000/svg" focusable="false">
  <title>Email Envelope Icon</title>
  <path fill-rule="evenodd" clip-rule="evenodd" d="M19.222 22.8675C22.8705 22.8675 24 21.2072 24 17.4942V6.516C24 2.813 22.8705 1.13257 19.222 1.13257H4.77801C1.12953 1.13257 0 2.813 0 6.516V17.4942C0 21.2072 1.12953 22.8776 4.77801 22.8675H19.222ZM4.3182 7.35118C4.59808 7.00906 5.09788 6.94868 5.43773 7.23043L10.8055 11.5875C11.5152 12.151 12.5248 12.151 13.2345 11.5875L18.5623 7.23043C18.9021 6.94868 19.4119 6.99899 19.6918 7.35118C19.9717 7.70337 19.9217 8.20649 19.5718 8.48824L15.9234 11.4768L19.6618 15.6125C19.9617 15.9445 19.9317 16.4477 19.6118 16.7495C19.282 17.0514 18.7822 17.0212 18.4823 16.6992L14.6839 12.4931L14.2441 12.8554C12.9446 13.8918 11.1154 13.8918 9.81591 12.8554L9.37609 12.4931L5.5277 16.6992C5.22782 17.0313 4.71803 17.0514 4.39817 16.7495C4.0783 16.4477 4.04831 15.9345 4.34819 15.6125L8.12661 11.4869L4.43815 8.4983C4.09829 8.21656 4.03832 7.71343 4.3182 7.37131V7.35118Z" class="icon-base"></path>
</svg>
