<svg viewBox="0 0 24 24" fill="currentColor" xmlns="http://www.w3.org/2000/svg" focusable="false">
  <title>Email Envelope Icon</title>
  <path d="M7.46319 22.4029H20.0629C21.3072 22.4029 22.16 22.1593 22.6647 21.6546C23.239 21.089 23.5 20.0709 23.5 18.4525V8.95917C23.5 5.96586 22.656 5 20.0368 5H7.46319C4.84404 5 4 5.96586 4 8.95917V18.4525C4 20.0709 4.26975 21.089 4.83534 21.6546C5.34003 22.1593 6.19277 22.4029 7.43708 22.4029H7.46319Z" fill="transparent" class="icon-offset"></path>
  <path fill-rule="evenodd" clip-rule="evenodd" d="M17.949 21.5119H6.05096C4.49297 21.5119 3.41878 21.1675 2.67259 20.4213C1.8608 19.6095 1.5 18.3959 1.5 16.4772V7.53105C1.5 3.99688 2.86939 2.4881 6.07556 2.4881H17.9244C21.9506 2.4881 22.5 5.03827 22.5 7.53105V16.4772C22.5 18.3959 22.1392 19.6177 21.3274 20.4213C20.5812 21.1675 19.507 21.5119 17.949 21.5119ZM6.07556 20.1999H17.949C19.1216 20.1999 19.9252 19.9703 20.4008 19.4947C20.942 18.9617 21.188 18.0024 21.188 16.4772V7.53105C21.188 4.71028 20.3926 3.80009 17.9244 3.80009H6.07556C3.60738 3.80009 2.81199 4.71028 2.81199 7.53105V16.4772C2.81199 18.0024 3.06619 18.9617 3.59918 19.4947C4.07478 19.9703 4.87837 20.1999 6.05096 20.1999H6.07556ZM12.0201 13.3283C11.3805 13.3283 10.7409 13.1151 10.2079 12.6887L9.84668 12.3973L6.69058 15.8212C6.55938 15.9606 6.38718 16.0344 6.20678 16.0344C6.05098 16.0344 5.88698 15.977 5.76398 15.8622C5.50159 15.6162 5.47699 15.198 5.72298 14.9356L8.82355 11.5719L5.79639 9.12992C5.51759 8.90032 5.46839 8.49033 5.69799 8.21153C5.92759 7.93273 6.33758 7.88353 6.61638 8.11313L10.1051 10.9275C10.1475 10.9518 10.1877 10.9813 10.2247 11.016C10.238 11.0284 10.2506 11.0413 10.2626 11.0545L11.0279 11.6719C11.6101 12.1393 12.4383 12.1393 13.0205 11.6719L13.8141 11.026C13.8176 11.0226 13.821 11.0193 13.8245 11.016C13.8473 10.9953 13.871 10.9766 13.8956 10.9597L17.3829 8.12133C17.6617 7.89174 18.0799 7.93273 18.3095 8.21973C18.5391 8.49853 18.4981 8.91673 18.2111 9.14632L15.2253 11.5775L18.2853 14.9356C18.5313 15.2062 18.5067 15.6162 18.2443 15.8622C18.1213 15.977 17.9573 16.0344 17.8015 16.0344C17.6211 16.0344 17.4489 15.9606 17.3177 15.8212L14.2066 12.407L13.8405 12.7051C13.2993 13.1315 12.6597 13.3447 12.0201 13.3447V13.3283Z" class="icon-base"></path>
</svg>
