<svg viewBox="0 0 24 24" fill="currentColor" xmlns="http://www.w3.org/2000/svg" focusable="false">
  <title>Embed Icon</title>
  <path d="M9.9154 19.4901C9.59716 19.9453 8.86831 19.9077 8.67327 19.3909C8.61509 19.2369 8.60825 19.0692 8.65958 18.8912C8.86147 18.2136 9.11126 17.5496 9.35079 16.8857C10.8051 12.8951 12.2662 8.9079 13.7239 4.92073C13.7821 4.75988 13.8026 4.52715 13.919 4.46213C14.0353 4.39368 14.1551 4.33549 14.2783 4.28073C14.6855 4.10277 15.1679 4.31496 15.274 4.74619C15.2945 4.82833 15.3014 4.90704 15.2877 4.97892C15.1714 5.61207 14.901 6.21785 14.6786 6.82704C13.2141 10.845 11.7529 14.8596 10.2644 18.8707C10.1823 19.0897 10.0557 19.2916 9.9154 19.4901Z" class="icon-base"></path>
  <path d="M19.9856 11.8957C18.9385 11.0161 17.9565 10.2152 17.0086 9.37675C16.7725 9.16798 16.5124 8.84284 16.4988 8.5622C16.4714 7.953 17.2379 7.63471 17.7546 8.04883C19.0823 9.11322 20.3791 10.2152 21.6794 11.3104C22.1243 11.6835 22.0901 12.1216 21.6794 12.4775C20.386 13.5829 19.0754 14.6679 17.7648 15.7494C17.3679 16.0779 16.8991 16.0574 16.687 15.6022C16.5638 15.3387 16.6356 14.8013 16.8341 14.6028C17.515 13.9252 18.2918 13.3434 19.0275 12.7205C19.3252 12.4706 19.6161 12.214 19.989 11.8923L19.9856 11.8957Z" class="icon-base"></path>
  <path d="M4.00865 11.9025C5.08311 12.8026 6.03781 13.6069 6.99592 14.4009C7.42023 14.7534 7.78295 15.1299 7.30389 15.6706C6.8351 16.1977 6.40394 15.9034 5.98306 15.5508C4.85385 14.6028 3.71095 13.6753 2.58858 12.7205C1.8084 12.0531 1.80498 11.7519 2.57147 11.1016C3.73832 10.1091 4.91886 9.14057 6.09598 8.16175C6.47922 7.84004 6.87958 7.66549 7.28678 8.11041C7.7282 8.59298 7.49894 8.97971 7.07805 9.32881C6.08229 10.1605 5.09338 10.9955 4.00865 11.9093V11.9025Z" class="icon-base"></path>
</svg>
