<svg viewBox="0 0 24 24" fill="currentColor" xmlns="http://www.w3.org/2000/svg" focusable="false">
  <title>Error Icon</title>
  <path fill-rule="evenodd" clip-rule="evenodd" d="M20.7546 22.8909H3.24536C2.07686 22.8909 1.02703 22.2884 0.44278 21.275C-0.141472 20.2617 -0.150601 19.0567 0.433651 18.0434L9.19742 2.74333C9.78167 1.72089 10.8315 1.10925 12.0091 1.10925C13.1868 1.10925 14.2366 1.72089 14.8208 2.74333L23.5663 18.0343C24.1506 19.0476 24.1415 20.2526 23.5572 21.2659C22.973 22.2792 21.9231 22.8817 20.7546 22.8817V22.8909ZM12 2.57901C11.3518 2.57901 10.7767 2.91678 10.4572 3.47364L1.70257 18.7646C1.38306 19.3215 1.38306 19.9879 1.70257 20.5447C2.02208 21.1016 2.59721 21.4302 3.23623 21.4302H20.7455C21.3845 21.4302 21.9597 21.1016 22.2883 20.5447C22.6078 19.9879 22.6078 19.3306 22.2883 18.7737L13.5519 3.47364C13.2324 2.91678 12.6573 2.57901 12.0091 2.57901H12ZM11.9912 8.42156C12.3929 8.42156 12.7215 8.7502 12.7215 9.15187V13.7163C12.7215 14.118 12.3929 14.4466 11.9912 14.4466C11.5896 14.4466 11.2609 14.118 11.2609 13.7163V9.15187C11.2609 8.7502 11.5896 8.42156 11.9912 8.42156ZM11.9729 18.0983H12.0277H12.0368C12.5298 18.0983 12.9041 17.6875 12.9041 17.1854C12.9041 16.6833 12.4659 16.2725 11.9729 16.2725C11.48 16.2725 11.0783 16.6833 11.0783 17.1854C11.0783 17.6875 11.48 18.0983 11.9729 18.0983Z" class="icon-base"></path>
</svg>
