<svg viewBox="0 0 24 24" fill="currentColor" xmlns="http://www.w3.org/2000/svg" focusable="false">
  <title>Error Icon</title>
  <path fill-rule="evenodd" clip-rule="evenodd" d="M12 24C5.38309 24 0 18.6169 0 12C0 5.38309 5.38309 0 12 0C18.6169 0 24 5.38309 24 12C24 18.6169 18.6169 24 12 24ZM12 1.4623C6.18736 1.4623 1.4623 6.18736 1.4623 12C1.4623 17.8126 6.18736 22.5377 12 22.5377C17.8126 22.5377 22.5377 17.8126 22.5377 12C22.5377 6.18736 17.8126 1.4623 12 1.4623ZM11.9914 7.38306C12.3964 7.38306 12.7278 7.71446 12.7278 8.11951V12.7223C12.7278 13.1274 12.3964 13.4588 11.9914 13.4588C11.5863 13.4588 11.2549 13.1274 11.2549 12.7223V8.11951C11.2549 7.71446 11.5863 7.38306 11.9914 7.38306ZM11.9729 17.1411H12.0282H12.0374C12.5345 17.1411 12.9119 16.7269 12.9119 16.2206C12.9119 15.7142 12.47 15.3 11.9729 15.3C11.4758 15.3 11.0708 15.7142 11.0708 16.2206C11.0708 16.7269 11.4758 17.1411 11.9729 17.1411Z" class="icon-base"></path>
</svg>
