<svg viewBox="0 0 24 24" fill="currentColor" xmlns="http://www.w3.org/2000/svg" focusable="false">
  <title>Expand Icon</title>
  <path fill-rule="evenodd" clip-rule="evenodd" d="M7.87109 8.72944L7.88124 8.72951H7.85973L7.87109 8.72944ZM8.47275 8.48207C8.30356 8.65131 8.09278 8.72695 7.87109 8.72944C7.65906 8.72678 7.43759 8.64091 7.26822 8.48207L3.23519 4.44775V7.42777C3.23519 7.90113 2.85878 8.28842 2.38557 8.28842C1.91236 8.28842 1.52519 7.90113 1.52519 7.42777V2.36066C1.52519 2.36066 1.51444 2.3499 1.51444 2.33914C1.51444 2.23156 1.53595 2.12398 1.57897 2.03791C1.62199 1.93033 1.68651 1.8335 1.77255 1.74744C1.85859 1.66137 1.95538 1.59682 2.05217 1.56455C2.08444 1.55379 2.1167 1.54303 2.13821 1.53227C2.20274 1.51076 2.26727 1.5 2.34255 1.5H2.35331H7.41878C7.89199 1.51076 8.27916 1.89805 8.27916 2.37141C8.27916 2.84477 7.89199 3.23207 7.41878 3.23207H4.43973L8.47275 7.26639C8.80615 7.5999 8.80615 8.14857 8.47275 8.48207ZM1.97645 22.4139C2.09475 22.4677 2.2238 22.5 2.36362 22.5V22.4893H7.42909C7.9023 22.4893 8.28947 22.102 8.28947 21.6286C8.28947 21.1552 7.9023 20.7679 7.42909 20.7679H4.45003L8.48306 16.7336C8.81645 16.4001 8.81645 15.8514 8.48306 15.5179C8.14966 15.1844 7.60117 15.1844 7.26777 15.5179L3.23475 19.5523V16.5722C3.23475 16.0989 2.84758 15.7116 2.37437 15.7116C1.90116 15.7116 1.51399 16.0989 1.50324 16.5722V21.5856C1.48173 21.833 1.56777 22.0697 1.7506 22.2526C1.81512 22.3171 1.89041 22.3709 1.97645 22.4139ZM21.6361 22.5H16.5706C16.0974 22.4893 15.7102 22.102 15.7102 21.6286C15.7102 21.1552 16.0974 20.7679 16.5706 20.7679H19.5497L15.5166 16.7336C15.1833 16.4001 15.1833 15.8514 15.5166 15.5179C15.85 15.1844 16.3985 15.1844 16.7319 15.5179L20.765 19.5523V16.5722C20.765 16.0989 21.1414 15.7116 21.6146 15.7116C22.0878 15.7116 22.475 16.0989 22.475 16.5722V21.6394C22.475 21.7684 22.4535 21.876 22.4104 21.9729C22.3674 22.0697 22.3136 22.1665 22.2384 22.2418C22.1631 22.3171 22.0663 22.3817 21.9695 22.4247C21.8619 22.4677 21.7974 22.4893 21.6361 22.4893V22.5ZM15.5167 8.4821C15.6888 8.64347 15.9039 8.72954 16.1297 8.72954L16.119 8.71878C16.3448 8.71878 16.5599 8.64347 16.732 8.47134L20.765 4.43702V7.41704C20.765 7.8904 21.1522 8.27769 21.6254 8.27769C22.0986 8.27769 22.4858 7.8904 22.4965 7.41704V2.41448C22.518 2.1778 22.432 1.93036 22.2492 1.74747C22.1631 1.6614 22.0556 1.59685 21.948 1.55382C21.8512 1.51079 21.7437 1.48927 21.6361 1.51079H16.5707C16.0974 1.51079 15.7103 1.89808 15.7103 2.37144C15.7103 2.8448 16.0974 3.2321 16.5707 3.2321H19.5497L15.5167 7.26642C15.1833 7.59993 15.1833 8.14859 15.5167 8.4821Z" class="icon-base"></path>
</svg>
