<svg viewBox="0 0 24 24" fill="currentColor" xmlns="http://www.w3.org/2000/svg" focusable="false">
  <title>External Link Icon</title>
  <path fill-rule="evenodd" clip-rule="evenodd" d="M6.30138 22.5H17.6861C21.7079 22.5 22.4875 20.6427 22.4875 17.4357V14.3526C22.4875 13.8078 22.042 13.362 21.4975 13.362C20.953 13.362 20.5075 13.8078 20.5075 14.3526V17.4357C20.5075 20.1103 20.1363 20.5189 17.6861 20.5189H6.30138C3.85119 20.5189 3.47995 20.1103 3.47995 17.4357V6.56427C3.47995 3.88974 3.85119 3.48113 6.30138 3.48113H9.89005C10.4345 3.48113 10.88 3.03538 10.88 2.49057C10.88 1.94575 10.4345 1.5 9.89005 1.5H6.30138C2.27961 1.5 1.5 3.35731 1.5 6.56427V17.4357C1.5 20.6427 2.27961 22.5 6.30138 22.5ZM12.823 11.1704C13.021 11.3561 13.2685 11.4552 13.5283 11.4552V11.4676C13.7882 11.4676 14.0357 11.3809 14.2337 11.1828L20.52 4.89269V7.61675C20.52 8.16156 20.9655 8.60731 21.51 8.60731C22.0545 8.60731 22.5 8.16156 22.5 7.61675V2.4658C22.4876 2.35436 22.4629 2.24293 22.4257 2.13149C22.3762 2.00767 22.302 1.89623 22.203 1.79717C22.104 1.69811 21.9926 1.62382 21.8689 1.57429C21.7699 1.52476 21.6585 1.5 21.5348 1.5H21.4976H16.3869C15.8424 1.5 15.3969 1.94576 15.3969 2.49057C15.3969 3.03538 15.8424 3.48113 16.3869 3.48113H19.1093L12.823 9.77123C12.4393 10.1551 12.4393 10.7866 12.823 11.1704Z" class="icon-base"></path>
</svg>
