<svg viewBox="0 0 24 24" fill="currentColor" xmlns="http://www.w3.org/2000/svg" focusable="false">
  <title>Eye Hide Icon</title>
  <path fill-rule="evenodd" clip-rule="evenodd" d="M1.90806 22.0994C2.09915 22.2785 2.34996 22.3741 2.58882 22.3741V22.3621C2.83962 22.3621 3.07849 22.2785 3.26958 22.0874L22.1039 3.25311C22.4741 2.88287 22.4741 2.27377 22.1039 1.90353C21.7337 1.5333 21.1246 1.5333 20.7543 1.90353L18.2898 4.3681C14.1806 1.54355 8.99887 1.71828 5.06091 4.84149C3.03057 6.45381 1.29882 8.79467 0.0806162 11.6252C-0.0268721 11.8641 -0.0268721 12.1387 0.0806162 12.3776C1.13255 14.8115 2.54961 16.8892 4.22413 18.4337L1.90806 20.7498C1.53782 21.12 1.53782 21.7291 1.90806 22.0994ZM5.56897 17.0889C4.15229 15.7966 2.93061 14.051 1.99152 11.9954C3.07834 9.61874 4.53541 7.67201 6.24328 6.33438C9.44072 3.7962 13.5378 3.58306 16.9164 5.74144L14.6095 8.04835C13.8445 7.54309 12.9321 7.26593 12 7.26593C9.39639 7.26593 7.27051 9.39181 7.27051 12.0074C7.27051 12.9488 7.54129 13.8439 8.04846 14.6094L5.56897 17.0889ZM9.45936 13.1985L13.2115 9.44633C12.8394 9.27089 12.4275 9.17684 12.0119 9.17684C10.4593 9.17684 9.19336 10.4428 9.19336 12.0074C9.19336 12.4268 9.28616 12.8315 9.45936 13.1985ZM12.6927 16.6652C12.2388 16.6652 11.8328 16.3428 11.7492 15.877C11.6536 15.3634 12 14.8618 12.5135 14.7663C13.6601 14.5633 14.5678 13.6436 14.7708 12.4971C14.8663 11.9716 15.356 11.6372 15.8815 11.7208C16.3951 11.8163 16.7414 12.306 16.6578 12.8315C16.3115 14.7543 14.7827 16.295 12.8599 16.6414C12.8284 16.6414 12.7968 16.6447 12.7671 16.6478L12.7671 16.6478C12.7404 16.6506 12.7152 16.6533 12.6927 16.6533V16.6652ZM12.0121 21.6813C10.8775 21.6813 9.76683 21.5022 8.68001 21.1439C8.1784 20.9767 7.9037 20.4392 8.07091 19.9376C8.23811 19.436 8.77555 19.1613 9.27716 19.3405C10.161 19.639 11.0686 19.7823 12.0002 19.7823C16.0609 19.7823 19.7752 16.8921 21.9966 12.0193C21.4592 10.8369 20.8262 9.77399 20.1215 8.84243C19.7991 8.42442 19.8827 7.82726 20.3126 7.5048C20.7426 7.18233 21.3397 7.27788 21.6503 7.69589C22.5221 8.84243 23.2865 10.1801 23.9195 11.6491C24.0269 11.8879 24.0269 12.1626 23.9195 12.4015C21.4114 18.2178 16.9447 21.6932 12.0002 21.6932L12.0121 21.6813Z" class="icon-base"></path>
</svg>
