<svg viewBox="0 0 24 24" fill="currentColor" xmlns="http://www.w3.org/2000/svg" focusable="false">
  <title>Eye Show Icon</title>
  <path fill-rule="evenodd" clip-rule="evenodd" d="M0.0806171 12.3762C2.57676 18.2045 7.0316 21.68 12 21.68C16.9565 21.668 21.4232 18.1926 23.9194 12.3762C24.0269 12.1373 24.0269 11.8626 23.9194 11.6238C21.4232 5.79544 16.9684 2.31995 12 2.31995C7.0316 2.31995 2.57676 5.79544 0.0806171 11.6238C-0.0268724 11.8626 -0.0268724 12.1373 0.0806171 12.3762ZM12 19.7571C7.9154 19.7571 4.20104 16.8668 1.99154 11.994C4.21299 7.12114 7.92734 4.23087 12 4.23087C16.0846 4.23087 19.799 7.12114 22.0085 11.994C19.787 16.8668 16.0727 19.7571 12 19.7571ZM7.27039 11.994C7.27039 14.5976 9.39629 16.7235 11.9999 16.7235C14.6036 16.7235 16.7295 14.5976 16.7295 11.994C16.7295 9.39037 14.6036 7.26446 11.9999 7.26446C9.39629 7.26446 7.27039 9.39037 7.27039 11.994ZM9.18131 11.994C9.18131 10.4414 10.4473 9.17539 11.9999 9.17539C13.5525 9.17539 14.8185 10.4414 14.8185 11.994C14.8185 13.5466 13.5525 14.8126 11.9999 14.8126C10.4473 14.8126 9.18131 13.5466 9.18131 11.994Z" class="icon-base"></path>
</svg>
