<svg viewBox="0 0 24 24" fill="currentColor" xmlns="http://www.w3.org/2000/svg" focusable="false">
  <title>Facebook Icon</title>
  <path d="M13.4465 22.5H9.58936C9.11793 22.5 8.73221 22.1143 8.73221 21.6429V14.7857H6.6965C6.22507 14.7857 5.83936 14.4 5.83936 13.9286V10.0714C5.83936 9.6 6.22507 9.21429 6.6965 9.21429H8.73221V7.17857C8.73221 5.65714 9.3215 4.23214 10.3929 3.16071C11.4536 2.1 12.9215 1.5 14.4108 1.5H17.3036C17.7751 1.5 18.1608 1.88571 18.1608 2.35714V6.21429C18.1608 6.68571 17.7751 7.07143 17.3036 7.07143H14.4108L14.3036 7.17857V9.21429H17.3036C17.7751 9.21429 18.1608 9.6 18.1608 10.0714V13.9286C18.1608 14.4 17.7751 14.7857 17.3036 14.7857H14.3036V21.6429C14.3036 22.1143 13.9179 22.5 13.4465 22.5ZM10.4465 20.7857H12.5894V13.9286C12.5894 13.4571 12.9751 13.0714 13.4465 13.0714H16.4465V10.9286H13.4465C12.9751 10.9286 12.5894 10.5429 12.5894 10.0714V7.17857C12.5894 6.69643 12.7822 6.23571 13.1144 5.89286C13.4786 5.55 13.9394 5.35714 14.4108 5.35714H16.4465V3.21429H14.4108C13.3715 3.21429 12.3429 3.63214 11.6036 4.37143C10.8536 5.12143 10.4465 6.11786 10.4465 7.17857V10.0714C10.4465 10.5429 10.0608 10.9286 9.58936 10.9286H7.55364V13.0714H9.58936C10.0608 13.0714 10.4465 13.4571 10.4465 13.9286V20.7857Z" class="icon-base"></path>
</svg>
