<svg viewBox="0 0 24 24" fill="currentColor" xmlns="http://www.w3.org/2000/svg" focusable="false">
  <title>Family Planning Icon</title>
  <path d="M13.5 24C7.70859 24 3 19.2914 3 13.5C3 7.70859 7.70859 3 13.5 3C19.2914 3 24 7.70859 24 13.5C24 19.2914 19.2914 24 13.5 24Z" fill="transparent" class="icon-offset"></path>
  <path fill-rule="evenodd" clip-rule="evenodd" d="M12 22.483C6.21307 22.483 1.5 17.7737 1.5 11.9915C1.5 6.20925 6.21307 1.5 12 1.5C17.7869 1.5 22.5 6.20925 22.5 11.9915C22.5 12.9453 22.3722 13.8905 22.1165 14.7932C22.0142 15.1509 21.6392 15.3723 21.2812 15.2701C20.9148 15.1679 20.7102 14.7932 20.804 14.4355C21.0256 13.6436 21.1364 12.826 21.1364 12C21.1364 6.96715 17.0369 2.87105 12 2.87105C6.96307 2.87105 2.86364 6.96715 2.86364 12C2.86364 17.0328 6.96307 21.129 12 21.129C12.5369 21.129 13.0739 21.0864 13.6023 20.9927C13.9773 20.9331 14.3267 21.1715 14.3949 21.5462C14.4631 21.9209 14.2159 22.2701 13.8409 22.3382C13.2443 22.4404 12.6222 22.5 12.0085 22.5L12 22.483ZM12.0004 16.7251C11.8896 16.7251 11.7788 16.6996 11.6766 16.64L11.6683 16.6354C11.4446 16.5104 8.33225 14.7719 7.55157 12.3395C6.95497 10.4745 7.82429 8.57549 9.52884 8.02196C10.3555 7.75797 11.2504 7.84313 12.0004 8.24337C12.7504 7.84313 13.6368 7.75797 14.455 8.01345C16.168 8.56698 17.0459 10.466 16.4408 12.331C15.6737 14.7665 12.4607 16.5548 12.3158 16.6315C12.2135 16.6911 12.1027 16.7166 11.9919 16.7166L12.0004 16.7251ZM8.84702 11.9307C9.34134 13.4721 11.2334 14.775 12.0004 15.2519C12.7675 14.7665 14.668 13.4551 15.1538 11.9307C15.4692 10.9429 15.1879 9.69106 14.0544 9.32488C13.5004 9.15457 12.8868 9.25676 12.4095 9.60591C12.1709 9.78474 11.8385 9.78474 11.5913 9.60591C11.1226 9.25676 10.509 9.15457 9.94645 9.32488C8.81293 9.69106 8.53168 10.9429 8.84702 11.9307ZM17.7271 20.8048C17.7271 21.1795 18.034 21.486 18.409 21.486C18.784 21.486 19.0908 21.1795 19.0908 20.8048V19.5529H20.3436C20.7186 19.5529 21.0254 19.2464 21.0254 18.8717C21.0254 18.497 20.7186 18.1904 20.3436 18.1904H19.0908V16.9386C19.0908 16.5639 18.784 16.2573 18.409 16.2573C18.034 16.2573 17.7271 16.5639 17.7271 16.9386V18.1904H16.4743C16.0993 18.1904 15.7925 18.497 15.7925 18.8717C15.7925 19.2464 16.0993 19.5529 16.4743 19.5529H17.7271V20.8048Z" class="icon-base"></path>
</svg>
