<svg viewBox="0 0 24 24" fill="currentColor" xmlns="http://www.w3.org/2000/svg" focusable="false">
  <title>Federal Reserve Icon</title>
  <path fill-rule="evenodd" clip-rule="evenodd" d="M21.6145 11.1112H22.4448V11.1031C23.2187 11.1031 23.854 10.478 23.854 9.69874V9.10615C23.854 8.6272 23.6178 8.18072 23.2105 7.92095L14.6655 2.42522C14.2012 2.12486 13.5984 2.12486 13.1341 2.42522L4.58911 7.92907C4.18997 8.18884 3.94559 8.63531 3.94559 9.11426V9.70686C3.94559 10.478 4.57282 11.1112 5.35482 11.1112H6.18532V18.0197H5.48531C4.92324 18.0197 4.45078 18.4012 4.3286 18.9451L3.92945 20.7716C3.84799 21.1207 3.9376 21.486 4.16568 21.762C4.39376 22.038 4.72774 22.2003 5.08616 22.2003H22.7136C23.0721 22.2003 23.406 22.038 23.6341 21.762C23.8622 21.486 23.9518 21.1207 23.8704 20.7716L23.4712 18.9451C23.349 18.4012 22.8766 18.0197 22.3145 18.0197H21.6145V11.1112Z" fill="transparent" class="icon-offset"></path>
  <path fill-rule="evenodd" clip-rule="evenodd" d="M20.1418 10.2627H21.0169V10.2541C21.8314 10.2541 22.5002 9.59389 22.5002 8.77079V8.14489C22.5002 7.63903 22.2515 7.16746 21.8228 6.89309L12.8287 1.08851C12.34 0.771277 11.7055 0.771277 11.2168 1.08851L2.22271 6.90167C1.80258 7.17603 1.54536 7.6476 1.54536 8.15347V8.77937C1.54536 9.59389 2.20556 10.2627 3.02866 10.2627H3.90272V17.568H3.16516C2.5907 17.568 2.07626 17.9795 1.94765 18.5454L1.52753 20.4745C1.45036 20.8432 1.5361 21.229 1.77617 21.5206C2.01625 21.8121 2.36778 21.9836 2.74503 21.9836H14.4999C14.8772 21.9836 15.1859 21.6749 15.1859 21.2976C15.1859 20.9204 14.8772 20.6117 14.4999 20.6117H2.89936L3.26805 18.9398H14.4914C14.8686 18.9398 15.1773 18.6311 15.1773 18.2539C15.1773 17.8766 14.8686 17.568 14.4914 17.568H10.2303V10.2627H13.8142V15.0642C13.8142 15.4415 14.1229 15.7501 14.5001 15.7501C14.8774 15.7501 15.1861 15.4415 15.1861 15.0642V10.2627H18.77V11.626C18.77 12.0033 19.0787 12.312 19.4559 12.312C19.8332 12.312 20.1418 12.0033 20.1418 11.626V10.2627ZM8.85848 10.2627H5.27456V17.568H8.85848V10.2627ZM2.90863 8.14489C2.90863 8.1106 2.96007 8.05058 2.96007 8.05058L11.9627 2.23743C11.997 2.2117 12.0828 2.23743 12.0828 2.23743L21.0769 8.042C21.1112 8.06773 21.1283 8.14489 21.1283 8.14489V8.77079C21.1283 8.83081 21.0769 8.88225 21.0169 8.88225H3.02009C2.96007 8.88225 2.90863 8.83081 2.90863 8.77079V8.14489ZM11.3369 6.2332C11.3369 6.61046 11.6456 6.91912 12.0228 6.91912V6.91054C12.4001 6.91054 12.7088 6.61046 12.7088 6.21605C12.7088 5.8388 12.4001 5.53871 12.0228 5.53871C11.6456 5.53871 11.3369 5.85595 11.3369 6.2332ZM18.7703 21.9575H17.6466C17.2693 21.9575 16.9607 21.6488 16.9607 21.2715C16.9607 20.8943 17.2693 20.5856 17.6466 20.5856H20.2617C20.6561 20.5856 20.9819 20.2598 20.9819 19.8654C20.9819 19.471 20.6561 19.1452 20.2617 19.1452H18.6583C17.5008 19.1452 16.5663 18.2106 16.5663 17.0531C16.5663 15.8957 17.5008 14.9611 18.6583 14.9611H18.7703V14.4644C18.7703 14.0872 19.079 13.7785 19.4563 13.7785C19.8335 13.7785 20.1422 14.0872 20.1422 14.4644V14.9611H21.2734C21.6507 14.9611 21.9593 15.2698 21.9593 15.647C21.9593 16.0243 21.6507 16.3329 21.2734 16.3329H19.5682C19.5317 16.339 19.4943 16.3421 19.4563 16.3421C19.4182 16.3421 19.3808 16.339 19.3443 16.3329H18.6583C18.2639 16.3329 17.9381 16.6587 17.9381 17.0531C17.9381 17.4475 18.2639 17.7734 18.6583 17.7734H20.2617C21.4192 17.7734 22.3537 18.7079 22.3537 19.8654C22.3537 21.0229 21.4192 21.9575 20.2617 21.9575H20.1422V22.4639C20.1422 22.8412 19.8335 23.1499 19.4563 23.1499C19.079 23.1499 18.7703 22.8412 18.7703 22.4639V21.9575Z" class="icon-base"></path>
</svg>
