<svg viewBox="0 0 24 24" fill="currentColor" xmlns="http://www.w3.org/2000/svg" focusable="false">
  <title>Filter Alt Icon</title>
  <path fill-rule="evenodd" clip-rule="evenodd" d="M15.6826 13.627C17.6138 13.627 19.216 15.0315 19.5869 16.9014H21.6924C22.1338 16.9014 22.5008 17.277 22.501 17.7305C22.501 18.184 22.1339 18.5605 21.6924 18.5605H19.5859C19.2128 20.4301 17.6041 21.835 15.6826 21.835C13.7611 21.8349 12.1437 20.4302 11.7686 18.5605H2.30762C1.86629 18.5603 1.5 18.1839 1.5 17.7305C1.50013 17.2772 1.86637 16.9016 2.30762 16.9014H11.7686C12.1416 15.0315 13.7515 13.627 15.6826 13.627ZM15.6826 15.2969C14.3688 15.2969 13.3027 16.3926 13.3027 17.7422C13.303 19.0916 14.3689 20.1865 15.6826 20.1865C16.9963 20.1865 18.0515 19.0916 18.0518 17.7422C18.0518 16.3925 16.9857 15.2969 15.6826 15.2969ZM8.6084 2C10.543 2.00018 12.1554 3.41014 12.5244 5.28516H21.6924C22.1339 5.28516 22.501 5.66167 22.501 6.11523C22.5008 6.56868 22.1338 6.94434 21.6924 6.94434H12.5195C12.1424 8.80852 10.5355 10.2078 8.6084 10.208C6.69054 10.208 5.07642 8.80861 4.69727 6.94434H2.30762C1.86638 6.94406 1.50014 6.56852 1.5 6.11523C1.5 5.66183 1.86629 5.28543 2.30762 5.28516H4.69141C5.06046 3.41 6.67363 2 8.6084 2ZM8.6084 3.66992C7.32538 3.66992 6.28085 4.71466 6.23242 6.02051C6.23595 6.05158 6.23926 6.08329 6.23926 6.11523C6.23925 6.14694 6.23591 6.17814 6.23242 6.20898C6.28059 7.51508 7.32521 8.55957 8.6084 8.55957C9.89077 8.55937 10.9333 7.51597 10.9824 6.21094C10.9788 6.17952 10.9775 6.14755 10.9775 6.11523C10.9775 6.08268 10.9788 6.0502 10.9824 6.01855C10.933 4.71376 9.89059 3.67012 8.6084 3.66992Z" class="icon-base"></path>
</svg>
