<svg viewBox="0 0 24 24" fill="currentColor" xmlns="http://www.w3.org/2000/svg" focusable="false">
  <title>Filter Icon</title>
  <path fill-rule="evenodd" clip-rule="evenodd" d="M21.0517 6.20685H2.94828C2.15172 6.20685 1.5 5.55513 1.5 4.75858C1.5 3.96203 2.15172 3.3103 2.94828 3.3103H21.0517C21.8483 3.3103 22.5 3.96203 22.5 4.75858C22.5 5.55513 21.8483 6.20685 21.0517 6.20685ZM17.431 13.4482H6.56897C5.77241 13.4482 5.12069 12.7965 5.12069 11.9999C5.12069 11.2034 5.77241 10.5517 6.56897 10.5517H17.431C18.2276 10.5517 18.8793 11.2034 18.8793 11.9999C18.8793 12.7965 18.2276 13.4482 17.431 13.4482ZM10.1897 20.6896H13.8103C14.6069 20.6896 15.2586 20.0379 15.2586 19.2413C15.2586 18.4448 14.6069 17.793 13.8103 17.793H10.1897C9.3931 17.793 8.74138 18.4448 8.74138 19.2413C8.74138 20.0379 9.3931 20.6896 10.1897 20.6896Z" class="icon-base"></path>
</svg>
