<svg viewBox="0 0 24 24" fill="currentColor" xmlns="http://www.w3.org/2000/svg" focusable="false">
  <title>Globe World Icon</title>
  <path d="M11.5713 16.431C8.12587 16.431 5.32129 13.6264 5.32129 10.181C5.32129 6.73561 8.12587 3.93103 11.5713 3.93103C15.0167 3.93103 17.8213 6.73561 17.8213 10.181C17.8213 13.6264 15.0167 16.431 11.5713 16.431Z" fill="transparent" class="icon-offset"></path>
  <path fill-rule="evenodd" clip-rule="evenodd" d="M3.19339 16.5672C5.05422 18.4357 7.46045 19.4441 9.90561 19.5988V21.051H6.33747C5.97148 21.051 5.67203 21.3504 5.67203 21.7164C5.67203 22.0824 5.97148 22.3818 6.33747 22.3818H10.5532C10.5591 22.382 10.5651 22.3821 10.571 22.3821C10.577 22.3821 10.583 22.382 10.5889 22.3818H14.7968C15.1628 22.3818 15.4622 22.0824 15.4622 21.7164C15.4622 21.3504 15.1628 21.051 14.7968 21.051H11.2365V19.6072C13.6807 19.4525 16.0808 18.4441 17.9494 16.5755C22.0169 12.4997 22.0169 5.87866 17.9494 1.81119C17.6915 1.55333 17.2673 1.55333 17.0095 1.81119C16.7516 2.06905 16.7516 2.49326 17.0095 2.75112C18.7313 4.47293 19.6795 6.76036 19.6795 9.18919C19.6795 11.618 18.7313 13.9055 17.0095 15.6273C15.2877 17.3491 13.0002 18.2973 10.5714 18.2973C8.14256 18.2973 5.85513 17.3491 4.13332 15.6273C3.87546 15.3694 3.45125 15.3694 3.19339 15.6273C2.93554 15.8851 2.93554 16.3093 3.19339 16.5672ZM10.5716 16.0766C6.77027 16.0766 3.676 12.9824 3.676 9.18107C3.676 5.50696 6.56668 2.49335 10.1925 2.29581L10.2053 2.29394C10.2609 2.28487 10.3164 2.28327 10.3706 2.28839C10.4373 2.28647 10.5043 2.2855 10.5716 2.2855C14.3332 2.2855 17.4024 5.3155 17.4661 9.06223C17.4798 9.12994 17.4833 9.20093 17.475 9.27321C17.4727 9.29282 17.4695 9.31212 17.4655 9.33109C17.3854 13.0634 14.3227 16.0766 10.5716 16.0766ZM5.00687 9.18107C5.00687 6.39156 7.06802 4.07611 9.74791 3.67713L9.77275 3.83275C9.89752 4.61464 9.48162 5.37157 8.75796 5.68765C7.37718 6.28654 6.62857 7.84199 7.02783 9.29763L7.09437 9.53885C7.294 10.2708 7.07774 11.0444 6.51212 11.5601L5.86668 12.1506C5.32225 11.2909 5.00687 10.2722 5.00687 9.18107ZM7.39382 12.5416L6.70061 13.1758C7.51537 13.9656 8.5703 14.5089 9.74412 14.6844L9.69756 14.4633C9.42307 13.1407 9.52289 11.7683 10.0053 10.4956C10.1883 10.0132 10.6042 9.64719 11.1282 9.53074C11.6772 9.40597 12.2512 9.55569 12.6587 9.93832C13.0414 10.296 13.3907 10.5622 13.6735 10.7119C14.2141 10.9917 15.134 11.1549 15.7454 11.231C15.9302 10.7658 16.0541 10.27 16.1071 9.75335C14.6968 9.4818 13.7498 8.86697 13.2828 7.92571C12.6589 6.65985 13.1384 5.19061 13.476 4.43556C12.7686 4.00113 11.957 3.72039 11.0881 3.64012C11.3007 5.01845 10.5608 6.36233 9.28199 6.91039C8.5001 7.25142 8.07589 8.1248 8.30047 8.94828L8.36702 9.1895C8.69973 10.4039 8.32543 11.6932 7.39382 12.5416ZM14.5625 5.30613C15.362 6.1294 15.9097 7.19857 16.08 8.38816C15.2681 8.18454 14.7315 7.83505 14.4889 7.34345C14.1821 6.72423 14.3429 5.91047 14.5625 5.30613ZM11.1152 14.7194C12.7295 14.5624 14.1436 13.7131 15.0562 12.473C14.4253 12.3688 13.6369 12.189 13.058 11.893C12.6587 11.6851 12.2179 11.3524 11.7438 10.9032C11.6523 10.8117 11.5192 10.8034 11.4277 10.82C11.3695 10.8367 11.2863 10.8699 11.253 10.9614C10.8621 11.9928 10.7789 13.1075 11.0035 14.1888L11.1152 14.7194Z" class="icon-base"></path>
</svg>
