<svg viewBox="0 0 24 24" fill="currentColor" xmlns="http://www.w3.org/2000/svg" focusable="false">
  <title>Help Icon</title>
  <path fill-rule="evenodd" clip-rule="evenodd" d="M12 24C5.38776 24 0 18.6122 0 12C0 5.38776 5.38776 0 12 0C18.6122 0 24 5.38776 24 12C24 18.6122 18.6122 24 12 24ZM12 1.95918C6.46531 1.95918 1.95918 6.46531 1.95918 12C1.95918 17.5347 6.46531 22.0408 12 22.0408C17.5347 22.0408 22.0408 17.5347 22.0408 12C22.0408 6.46531 17.5347 1.95918 12 1.95918ZM11.9388 16.1633C12.4776 16.1633 12.9184 16.6041 12.9184 17.1429V17.1796C12.9184 17.7184 12.4776 18.1592 11.9388 18.1592C11.4 18.1592 10.9592 17.7184 10.9592 17.1796V17.1429C10.9592 16.6041 11.4 16.1633 11.9388 16.1633ZM10.959 14.1552C10.9713 14.694 11.3998 15.1226 11.9386 15.1226V15.1103H11.9509C12.4896 15.0981 12.9182 14.6573 12.9182 14.1185C12.9182 13.7634 13.1876 13.543 13.959 13.1144L14.1305 13.0164C15.4407 12.3062 16.1509 11.1552 16.1509 9.78378C16.1509 7.62868 14.3998 5.87766 12.2447 5.87766C10.0896 5.87766 8.33862 7.62868 8.33862 9.78378C8.33862 10.3226 8.77944 10.7634 9.31822 10.7634C9.85699 10.7634 10.2978 10.3226 10.2978 9.78378C10.2978 8.70623 11.1672 7.83684 12.2447 7.83684C13.3223 7.83684 14.1917 8.70623 14.1917 9.78378C14.1917 10.4328 13.8611 10.9348 13.1754 11.3144L13.0039 11.4124C12.2325 11.8409 10.9345 12.5634 10.959 14.1552Z" class="icon-base"></path>
</svg>
