<svg viewBox="0 0 24 24" fill="currentColor" xmlns="http://www.w3.org/2000/svg" focusable="false">
  <title>Home Equity Icon</title>
  <path d="M5.98486 20.5174V10.1693C5.98486 9.72213 6.19224 9.3002 6.5463 9.02702L13.3937 3.74381C13.9152 3.34142 14.6431 3.34335 15.1625 3.74849L22.0999 9.15993C22.3428 9.34942 22.4849 9.64032 22.4849 9.94842V20.5174C22.4849 21.3142 21.8389 21.9602 21.0421 21.9602H7.42767C6.63083 21.9602 5.98486 21.3142 5.98486 20.5174Z" fill="transparent" class="icon-offset"></path>
  <path fill-rule="evenodd" clip-rule="evenodd" d="M9.97262 2.72717C11.1546 1.79146 12.829 1.79146 14.0192 2.72717L17.5401 5.51794V4.27818C17.5401 3.91703 17.8356 3.62154 18.1967 3.62154C18.5579 3.62154 18.8534 3.91703 18.8534 4.27818V6.55887L22.2518 9.25254C22.5391 9.47415 22.5801 9.89276 22.3585 10.1718C22.1369 10.4591 21.7183 10.5002 21.4392 10.2785L20.8562 9.8164V19.6762C20.8562 20.9485 19.8302 21.9745 18.5579 21.9745H5.4169C4.14466 21.9745 3.11866 20.9485 3.11866 19.6762V9.83636L2.5608 10.2785C2.27352 10.5002 1.86312 10.4591 1.6415 10.1718C1.41988 9.88455 1.46092 9.47415 1.7482 9.25254L3.29225 8.02869C3.33928 7.97755 3.39426 7.93383 3.45518 7.89955L9.98083 2.72717H9.97262ZM13.2066 3.75318L19.5429 8.77547V19.6762C19.5429 20.218 19.0996 20.6612 18.5579 20.6612H5.4169C4.87517 20.6612 4.43194 20.218 4.43194 19.6762V8.79543L10.7934 3.75318C11.4993 3.19503 12.5007 3.19503 13.2066 3.75318ZM11.3352 16.7629H9.93997C9.57881 16.7629 9.28333 16.4674 9.28333 16.1063C9.28333 15.7451 9.57881 15.4497 9.93997 15.4497H11.9873C11.9888 15.4496 11.9903 15.4496 11.9918 15.4496C11.9933 15.4496 11.9948 15.4496 11.9963 15.4497H12.6076C13.0344 15.4497 13.3873 15.0967 13.3873 14.6699C13.3873 14.2431 13.0344 13.8901 12.6076 13.8901H10.966C9.80864 13.8901 8.87293 12.9544 8.87293 11.7971C8.87293 10.6398 9.80864 9.70405 10.966 9.70405H11.3352V8.71908C11.3352 8.35793 11.6306 8.06244 11.9918 8.06244C12.353 8.06244 12.6484 8.35793 12.6484 8.71908V9.70405H13.6336C13.9947 9.70405 14.2902 9.99954 14.2902 10.3607C14.2902 10.7218 13.9947 11.0173 13.6336 11.0173H10.966C10.5392 11.0173 10.1862 11.3703 10.1862 11.7971C10.1862 12.2239 10.5392 12.5769 10.966 12.5769H12.6076C13.7649 12.5769 14.7006 13.5126 14.7006 14.6699C14.7006 15.8136 13.7868 16.7408 12.6484 16.7625V17.7479C12.6484 18.109 12.353 18.4045 11.9918 18.4045C11.6306 18.4045 11.3352 18.109 11.3352 17.7479V16.7629Z" class="icon-base"></path>
</svg>
