<svg viewBox="0 0 24 24" fill="currentColor" xmlns="http://www.w3.org/2000/svg" focusable="false">
  <title>Info Icon</title>
  <path fill-rule="evenodd" clip-rule="evenodd" d="M0 12C0 18.6122 5.38771 23.9999 11.9999 23.9999C18.6121 23.9999 23.9998 18.6122 23.9998 12C23.9998 5.38784 18.6121 0.00012207 11.9999 0.00012207C5.38771 0.00012207 0 5.38784 0 12ZM1.95917 12C1.95917 6.46538 6.46526 1.95929 11.9999 1.95929C17.5346 1.95929 22.0406 6.46538 22.0406 12C22.0406 17.5347 17.5346 22.0408 11.9999 22.0408C6.46526 22.0408 1.95917 17.5347 1.95917 12ZM12.9794 7.45727C12.9794 6.9185 12.5386 6.47768 11.9998 6.47768C11.461 6.47768 11.0202 6.9185 11.0202 7.45727V7.53074C11.0202 8.06951 11.461 8.51032 11.9998 8.51032C12.5386 8.51032 12.9794 8.06951 12.9794 7.53074V7.45727ZM12.9916 11.2532C12.9916 10.7144 12.5508 10.2736 12.012 10.2736C11.4733 10.2736 11.0324 10.7144 11.0324 11.2532V16.5184C11.0324 17.0572 11.4733 17.498 12.012 17.498C12.5508 17.498 12.9916 17.0572 12.9916 16.5184V11.2532Z" class="icon-base"></path>
</svg>
