<svg viewBox="0 0 24 24" fill="currentColor" xmlns="http://www.w3.org/2000/svg" focusable="false">
  <title>Instagram Icon</title>
  <path fill-rule="evenodd" clip-rule="evenodd" d="M16.5183 22.5H7.4816C3.90122 22.5 1.5 19.9941 1.5 16.2568V7.74324C1.5 4.01657 3.90122 1.5 7.4816 1.5H16.5183C20.0987 1.5 22.4999 4.00587 22.4999 7.74324V16.2568C22.4999 19.9941 20.0987 22.5 16.5183 22.5ZM7.4816 3.22412C4.88743 3.22412 3.21515 5.00178 3.21515 7.75395V16.2675C3.21515 19.0196 4.88743 20.7973 7.4816 20.7973H16.5183C19.1125 20.7973 20.7848 19.0196 20.7848 16.2675V7.75395C20.7848 5.00178 19.1125 3.22412 16.5183 3.22412H7.4816ZM11.8339 16.9636C9.29328 16.9636 7.22438 14.8968 7.22438 12.3588C7.22438 9.82078 9.29328 7.75398 11.8339 7.75398C14.3744 7.75398 16.4433 9.82078 16.4433 12.3588C16.4433 14.8968 14.3744 16.9636 11.8339 16.9636ZM11.8339 9.46739C10.2366 9.46739 8.93953 10.7632 8.93953 12.3588C8.93953 13.9544 10.2366 15.2502 11.8339 15.2502C13.4311 15.2502 14.7282 13.9544 14.7282 12.3588C14.7282 10.7632 13.4311 9.46739 11.8339 9.46739ZM16.058 7.05788C16.058 7.6897 16.5725 8.21443 17.2157 8.21443C17.8482 8.21443 18.3734 7.6897 18.3734 7.05788C18.3734 6.42606 17.8482 5.90133 17.2157 5.90133C16.5832 5.90133 16.058 6.42606 16.058 7.05788Z" class="icon-base"></path>
</svg>
