<svg viewBox="0 0 24 24" fill="currentColor" xmlns="http://www.w3.org/2000/svg" focusable="false">
  <title>Life Insurance Guide Icon</title>
  <path fill-rule="evenodd" clip-rule="evenodd" d="M3.7998 17.9021C3.7998 18.881 4.41769 19.6793 5.17186 19.6793H21.1277C21.8819 19.6793 22.4998 18.881 22.4998 17.9021V6.49778C22.4998 5.5189 21.8819 4.7206 21.1277 4.7206H5.17186C4.41769 4.7206 3.7998 5.5189 3.7998 6.49778V17.9021Z" fill="transparent" class="icon-offset"></path>
  <path fill-rule="evenodd" clip-rule="evenodd" d="M10.895 18.2603H4.11346C2.66807 18.2603 1.5 16.9577 1.5 15.3443V5.26022C1.5 3.65517 2.67648 2.34424 4.11346 2.34424H18.8698C20.3152 2.34424 21.4833 3.65517 21.4833 5.26022V10.3023C21.4833 10.672 21.1807 10.9745 20.811 10.9745C20.4412 10.9745 20.1387 10.672 20.1387 10.3023V5.26022C20.1387 4.39467 19.5673 3.68878 18.8698 3.68878H4.11346C3.41597 3.68878 2.84454 4.39467 2.84454 5.26022V15.3443C2.84454 16.2098 3.41597 16.9157 4.11346 16.9157H10.895C11.2647 16.9157 11.5673 17.2182 11.5673 17.588C11.5673 17.9577 11.2647 18.2603 10.895 18.2603ZM17.9538 7.28512H4.96215C4.5924 7.28512 4.28988 6.9826 4.28988 6.61285C4.28988 6.2431 4.5924 5.94058 4.96215 5.94058H17.9622C18.332 5.94058 18.6345 6.2431 18.6345 6.61285C18.6345 6.9826 18.332 7.28512 17.9622 7.28512H17.9538ZM15.7185 10.9997H4.96215C4.5924 10.9997 4.28988 10.6972 4.28988 10.3275C4.28988 9.95771 4.5924 9.65519 4.96215 9.65519H15.7185C16.0882 9.65519 16.3908 9.95771 16.3908 10.3275C16.3908 10.6972 16.0882 10.9997 15.7185 10.9997ZM4.91202 14.7057H10.6851C11.0549 14.7057 11.3574 14.4032 11.3574 14.0335C11.3574 13.6637 11.0549 13.3612 10.6851 13.3612H4.91202C4.54227 13.3612 4.23974 13.6637 4.23974 14.0335C4.23974 14.4032 4.54227 14.7057 4.91202 14.7057ZM17.0461 21.6556H19.0545C19.7436 21.6556 20.2982 21.101 20.2982 20.4119V19.454H21.2562C21.9453 19.454 22.4999 18.8993 22.4999 18.2103V16.2018C22.4999 15.5128 21.9453 14.9581 21.2562 14.9581H20.2982V14.0002C20.2982 13.3111 19.7436 12.7564 19.0545 12.7564H17.0461C16.357 12.7564 15.8024 13.3111 15.8024 14.0002V14.9581H14.8444C14.1553 14.9581 13.6007 15.5128 13.6007 16.2018V18.2103C13.6007 18.8993 14.1553 19.454 14.8444 19.454H15.8024V20.4119C15.8024 21.101 16.357 21.6556 17.0461 21.6556ZM18.9537 20.3111H17.1469V18.7817C17.1469 18.4119 16.8444 18.1094 16.4747 18.1094H14.9452V16.3027H16.4747C16.8444 16.3027 17.1469 16.0002 17.1469 15.6304V14.101H18.9537V15.6304C18.9537 16.0002 19.2562 16.3027 19.6259 16.3027H21.1553V18.1094H19.6259C19.2562 18.1094 18.9537 18.4119 18.9537 18.7817V20.3111Z" class="icon-base"></path>
</svg>
