<svg viewBox="0 0 24 24" fill="currentColor" xmlns="http://www.w3.org/2000/svg" focusable="false">
  <title>Umbrella Insurance Icon</title>
  <path d="M21.1302 14.7521H5.86615C5.2407 14.7521 4.65484 14.483 4.25108 14C3.84731 13.525 3.68105 12.9075 3.77605 12.2979C4.60734 7.31804 8.70044 3.69995 13.4982 3.69995C18.2959 3.69995 22.389 7.31012 23.2203 12.2899C23.3232 12.8996 23.1569 13.5171 22.7532 13.9921C22.3494 14.475 21.7556 14.7442 21.1302 14.7442V14.7521Z" fill="transparent" class="icon-offset"></path>
  <path fill-rule="evenodd" clip-rule="evenodd" d="M3.77893 13.9312C3.10537 13.9312 2.47445 13.6413 2.03962 13.1212C1.60479 12.6096 1.42575 11.9446 1.52806 11.2881C2.42329 5.92521 6.83125 2.02881 11.998 2.02881C17.1648 2.02881 21.5727 5.91669 22.468 11.2796C22.5788 11.9361 22.3998 12.6011 21.9649 13.1127C21.5301 13.6328 20.8907 13.9226 20.2171 13.9226V13.9312H12.6885V19.132C12.6885 19.9505 13.3535 20.607 14.1635 20.607C14.9735 20.607 15.6385 19.942 15.6385 19.132C15.6385 18.7569 15.9454 18.4499 16.3206 18.4499C16.6957 18.4499 17.0027 18.7569 17.0027 19.132C17.0027 20.7008 15.7238 21.9712 14.1635 21.9712C12.5947 21.9712 11.3243 20.6923 11.3243 19.132V13.9312H3.77893ZM2.87517 11.5183C3.56181 7.39843 6.58741 4.27165 10.3506 3.5563C9.20649 5.11234 7.64301 8.04394 7.49838 12.567H3.77893C3.51462 12.567 3.25884 12.4476 3.0798 12.243C2.90075 12.0384 2.83254 11.7826 2.87517 11.5183ZM15.132 12.567H8.86365C9.03831 7.61509 11.0841 4.74399 11.9978 3.69969C12.9197 4.74399 14.958 7.61509 15.132 12.567ZM13.6234 3.54361C14.7684 5.09638 16.3434 8.03162 16.4887 12.567H20.2171C20.4899 12.567 20.7457 12.4476 20.9248 12.2345C21.0953 12.0299 21.172 11.7741 21.1209 11.5098C20.4329 7.38186 17.3968 4.25091 13.6234 3.54361Z" class="icon-base"></path>
</svg>
