<svg viewBox="0 0 24 24" fill="currentColor" xmlns="http://www.w3.org/2000/svg" focusable="false">
  <title>Home Insurance Guide Icon</title>
  <path fill-rule="evenodd" clip-rule="evenodd" d="M3.7998 18.3247C3.7998 19.3117 4.41769 20.1167 5.17186 20.1167H21.1277C21.8819 20.1167 22.4998 19.3117 22.4998 18.3247V6.82531C22.4998 5.83828 21.8819 5.03332 21.1277 5.03332H5.17186C4.41769 5.03332 3.7998 5.83828 3.7998 6.82531V18.3247Z" fill="transparent" class="icon-offset"></path>
  <path fill-rule="evenodd" clip-rule="evenodd" d="M11.2084 18.1078H4.04794C2.63879 18.1078 1.5 16.8379 1.5 15.2649V5.43359C1.5 3.86877 2.64698 2.5907 4.04794 2.5907H18.4344C19.8436 2.5907 20.9823 3.86877 20.9823 5.43359V10.3492C20.9823 10.7097 20.6874 11.0047 20.3269 11.0047C19.9664 11.0047 19.6715 10.7097 19.6715 10.3492V5.43359C19.6715 4.58973 19.1144 3.90154 18.4344 3.90154H4.04794C3.36795 3.90154 2.81084 4.58973 2.81084 5.43359V15.2649C2.81084 16.1088 3.36795 16.7969 4.04794 16.7969H11.2084C11.5689 16.7969 11.8638 17.0919 11.8638 17.4524C11.8638 17.8129 11.5689 18.1078 11.2084 18.1078ZM17.5414 7.40765H4.87541C4.51493 7.40765 4.21999 7.11271 4.21999 6.75223C4.21999 6.39174 4.51493 6.0968 4.87541 6.0968H17.5496C17.9101 6.0968 18.205 6.39174 18.205 6.75223C18.205 7.11271 17.9101 7.40765 17.5496 7.40765H17.5414ZM15.3621 11.0295H4.87541C4.51493 11.0295 4.21999 10.7345 4.21999 10.374C4.21999 10.0136 4.51493 9.71862 4.87541 9.71862H15.3621C15.7226 9.71862 16.0175 10.0136 16.0175 10.374C16.0175 10.7345 15.7226 11.0295 15.3621 11.0295ZM4.81806 14.6421H9.90576C10.2662 14.6421 10.5612 14.3472 10.5612 13.9867C10.5612 13.6262 10.2662 13.3313 9.90576 13.3313H4.81806C4.45758 13.3313 4.16264 13.6262 4.16264 13.9867C4.16264 14.3472 4.45758 14.6421 4.81806 14.6421ZM15.0099 21.4093H20.2778C21.0069 21.4093 21.5968 20.803 21.5968 20.0575V16.4397C21.6747 16.4695 21.7559 16.4851 21.8344 16.4851L21.8426 16.4769C22.0393 16.4769 22.2277 16.395 22.3588 16.2311C22.58 15.9526 22.539 15.5348 22.2523 15.3136L20.9333 14.2696V12.8153C20.9333 12.4549 20.6383 12.1599 20.2778 12.1599C19.9174 12.1599 19.6224 12.4549 19.6224 12.8153V13.2321L18.4017 12.2658C17.9593 11.9217 17.3284 11.9217 16.9024 12.2658L13.0436 15.3217C12.7569 15.5429 12.7159 15.9526 12.9371 16.2393C13.1188 16.4748 13.4274 16.5445 13.6908 16.4395V20.0575C13.6908 20.803 14.2807 21.4093 15.0099 21.4093ZM20.2778 20.0985V15.4372L17.6397 13.3473L15.0017 15.4372V20.0575L20.2778 20.0985Z" class="icon-base"></path>
</svg>
