<svg viewBox="0 0 24 24" fill="currentColor" xmlns="http://www.w3.org/2000/svg" focusable="false">
  <title>Invest Rate Icon</title>
  <path d="M5.76786 5.5C4.79464 5.5 4 6.25454 4 7.18391V18.9161C4 19.8455 4.79464 20.6 5.76786 20.6H22.2321C23.2054 20.6 24 19.8455 24 18.9161V7.18391C24 6.25454 23.2054 5.5 22.2321 5.5H5.76786Z" fill="transparent" class="icon-offset"></path>
  <path fill-rule="evenodd" clip-rule="evenodd" d="M1.5 16.3857C1.5 18.047 2.84981 19.3881 4.50247 19.3881C4.88319 19.3881 5.19469 19.0766 5.19469 18.6959C5.19469 18.3152 4.88319 18.0037 4.50247 18.0037C3.61125 18.0037 2.88443 17.2769 2.88443 16.3857V6.00247C2.88443 5.11125 3.61125 4.38443 4.50247 4.38443H19.4975C20.3888 4.38443 21.1156 5.11125 21.1156 6.00247V11.1941C21.1156 11.5748 21.4271 11.8863 21.8078 11.8863C22.1885 11.8863 22.5 11.5748 22.5 11.1941V6.00247C22.5 4.34981 21.1502 3 19.4975 3H4.50247C2.84116 3 1.5 4.34981 1.5 6.00247V16.3857ZM12.0047 14.768C11.624 14.768 11.3125 14.4565 11.3125 14.0758V13.9201H10.6978C10.3171 13.9201 10.0056 13.6086 10.0056 13.2279C10.0056 12.8471 10.3171 12.5357 10.6978 12.5357H11.8954C11.9311 12.5299 11.9675 12.527 12.0047 12.527C12.0419 12.527 12.0783 12.5299 12.114 12.5357H12.5841C12.7658 12.5357 12.9042 12.3886 12.9042 12.2155C12.9042 12.0425 12.7571 11.8954 12.5841 11.8954H11.4246C10.4815 11.8954 9.72004 11.1253 9.72004 10.1908C9.72004 9.29395 10.4293 8.54854 11.3125 8.48992V8.31313C11.3125 7.93242 11.624 7.62092 12.0047 7.62092C12.3854 7.62092 12.6969 7.93242 12.6969 8.31313V8.48621H13.3109C13.6916 8.48621 14.0031 8.7977 14.0031 9.17842C14.0031 9.55914 13.6916 9.87063 13.3109 9.87063H11.4246C11.2429 9.87063 11.1045 10.0177 11.1045 10.1908C11.1045 10.3638 11.2516 10.5109 11.4246 10.5109H12.5841C13.5272 10.5109 14.2886 11.2724 14.2886 12.2155C14.2886 13.1207 13.5872 13.8586 12.6969 13.9164V14.0758C12.6969 14.4565 12.3854 14.768 12.0047 14.768ZM8.03264 21.3961C7.85094 21.3961 7.66923 21.3269 7.53079 21.1884C7.26256 20.9116 7.27121 20.4789 7.5481 20.2107L11.5716 16.3256C11.8312 16.0747 12.2378 16.0661 12.5061 16.2997L15.872 19.2675L19.8932 15.3131H18.3466C17.9659 15.3131 17.6544 15.0016 17.6544 14.6209C17.6544 14.2402 17.9659 13.9287 18.3466 13.9287H21.5741C21.9548 13.9287 22.2663 14.2402 22.2663 14.6209V17.8484C22.2663 18.2291 21.9548 18.5406 21.5741 18.5406C21.1933 18.5406 20.8818 18.2291 20.8818 17.8484V16.2817L16.3911 20.7039C16.1315 20.9548 15.7162 20.9721 15.448 20.7298L12.0821 17.762L8.51719 21.2057C8.37875 21.3355 8.2057 21.3961 8.03264 21.3961Z" class="icon-base"></path>
</svg>
