<svg viewBox="0 0 24 24" fill="currentColor" xmlns="http://www.w3.org/2000/svg" focusable="false">
  <title>Invest Portfolio Icon</title>
  <path d="M4.5 11.2212C4.5 9.77076 5.70563 8.59497 7.19286 8.59497H21.3071C22.7944 8.59497 24 9.77077 24 11.2212V20.5488C24 21.9992 22.7944 23.175 21.3071 23.175H7.19286C5.70563 23.175 4.5 21.9992 4.5 20.5488V11.2212Z" fill="transparent" class="icon-offset"></path>
  <path fill-rule="evenodd" clip-rule="evenodd" d="M16.0838 6.91407L16.1015 6.91431L16.1193 6.91407H19.5633C20.4574 6.91407 21.1875 7.58673 21.1875 8.41524V18.8742C21.1875 19.7027 20.4574 20.3754 19.5633 20.3754H4.43672C3.54258 20.3754 2.8125 19.7027 2.8125 18.8742V8.41524C2.8125 7.58673 3.54258 6.91407 4.43672 6.91407H7.88067L7.8984 6.91431L7.91612 6.91407H16.0838ZM16.7578 5.59337V5.53618C16.7578 3.76431 15.2484 2.32056 13.3945 2.32056H10.6054C8.75152 2.32056 7.24215 3.76431 7.24215 5.53618V5.59337H4.43672C2.8207 5.59337 1.5 6.85665 1.5 8.40704V18.866C1.5 20.4164 2.8207 21.6797 4.43672 21.6797H19.5633C21.1793 21.6797 22.5 20.4164 22.5 18.866V8.40704C22.5 6.85665 21.1793 5.59337 19.5633 5.59337H16.7578ZM8.55465 5.59337H15.4453V5.53618C15.4453 4.48618 14.5265 3.63306 13.3945 3.63306H10.6054C9.4734 3.63306 8.55465 4.48618 8.55465 5.53618V5.59337ZM11.3437 17.1682H9.94917C9.58823 17.1682 9.29292 16.8728 9.29292 16.5119C9.29292 16.151 9.58823 15.8557 9.94917 15.8557H12.6152C13.0417 15.8557 13.3945 15.5029 13.3945 15.0764C13.3945 14.6498 13.0417 14.2971 12.6152 14.2971H10.9746C9.81792 14.2971 8.88276 13.3619 8.88276 12.2053C8.88276 11.0486 9.81792 10.1135 10.9746 10.1135H11.3437V9.53926C11.3437 9.17832 11.639 8.88301 11.9999 8.88301C12.3609 8.88301 12.6562 9.17832 12.6562 9.53926V10.1135H13.6406C14.0015 10.1135 14.2968 10.4088 14.2968 10.7697C14.2968 11.1307 14.0015 11.426 13.6406 11.426H12.0035C12.0023 11.426 12.0011 11.426 11.9999 11.426C11.9987 11.426 11.9976 11.426 11.9964 11.426H10.9746C10.548 11.426 10.1953 11.7787 10.1953 12.2053C10.1953 12.6318 10.548 12.9846 10.9746 12.9846H12.6152C13.7718 12.9846 14.707 13.9197 14.707 15.0764C14.707 16.2193 13.7938 17.146 12.6562 17.1678V17.7424C12.6562 18.1033 12.3609 18.3986 11.9999 18.3986C11.639 18.3986 11.3437 18.1033 11.3437 17.7424V17.1682Z" class="icon-base"></path>
</svg>
