<svg viewBox="0 0 24 24" fill="currentColor" xmlns="http://www.w3.org/2000/svg" focusable="false">
  <title>Invest Icon</title>
  <path d="M5.76786 6.1001C4.79464 6.1001 4 6.85464 4 7.78401V19.5162C4 20.4456 4.79464 21.2001 5.76786 21.2001H22.2321C23.2054 21.2001 24 20.4456 24 19.5162V7.78401C24 6.85464 23.2054 6.1001 22.2321 6.1001H5.76786Z" fill="transparent" class="icon-offset"></path>
  <path fill-rule="evenodd" clip-rule="evenodd" d="M4.50245 20.0212H13.155C13.5358 20.0212 13.8472 19.7097 13.8472 19.329C13.8472 18.9483 13.5358 18.6368 13.155 18.6368H4.50245C3.61123 18.6368 2.88441 17.9099 2.88441 17.0187V6.63553C2.88441 5.74431 3.61123 5.01748 4.50245 5.01748H19.4974C20.3886 5.01748 21.1154 5.74431 21.1154 6.63553V12.4069C21.1154 12.7876 21.4269 13.0991 21.8076 13.0991C22.1883 13.0991 22.4998 12.7876 22.4998 12.4069V6.63553C22.4998 4.98287 21.15 3.63306 19.4974 3.63306H4.50245C2.84115 3.63306 1.5 4.98287 1.5 6.63553V17.0187C1.5 18.68 2.8498 20.0212 4.50245 20.0212ZM12.0046 15.4007C11.6239 15.4007 11.3124 15.0892 11.3124 14.7085V14.5528H10.6977C10.317 14.5528 10.0055 14.2413 10.0055 13.8606C10.0055 13.4799 10.317 13.1684 10.6977 13.1684H11.8954C11.931 13.1627 11.9675 13.1597 12.0046 13.1597C12.0418 13.1597 12.0783 13.1627 12.1139 13.1684H12.584C12.7657 13.1684 12.9041 13.0213 12.9041 12.8482C12.9041 12.6752 12.757 12.5281 12.584 12.5281H11.4245C10.4814 12.5281 9.71997 11.758 9.71997 10.8235C9.71997 9.92668 10.4292 9.18127 11.3124 9.12265V8.94586C11.3124 8.56514 11.6239 8.25365 12.0046 8.25365C12.3853 8.25365 12.6968 8.56514 12.6968 8.94586V9.11894H13.3108C13.6915 9.11894 14.003 9.43043 14.003 9.81115C14.003 10.1919 13.6915 10.5034 13.3108 10.5034H11.4245C11.2428 10.5034 11.1044 10.6505 11.1044 10.8235C11.1044 10.9966 11.2515 11.1437 11.4245 11.1437H12.584C13.5271 11.1437 14.2885 11.9051 14.2885 12.8482C14.2885 13.7535 13.5871 14.4913 12.6968 14.5492V14.7085C12.6968 15.0892 12.3853 15.4007 12.0046 15.4007ZM19.3505 20.3498C19.1688 20.3498 18.9957 20.2806 18.8573 20.1508C18.5891 19.8826 18.5891 19.4413 18.8573 19.1731L20.1377 17.8926H15.9845C15.6038 17.8926 15.2923 17.5812 15.2923 17.2004C15.2923 16.8197 15.6038 16.5082 15.9845 16.5082H20.138L18.8573 15.2275C18.5891 14.9592 18.5891 14.5179 18.8573 14.2497C19.1255 13.9815 19.5668 13.9815 19.835 14.2497L22.301 16.7157C22.3857 16.8004 22.4445 16.9034 22.4753 17.0176C22.4908 17.0739 22.4993 17.1331 22.4999 17.194" class="icon-base"></path>
</svg>
