<svg viewBox="0 0 24 24" fill="currentColor" xmlns="http://www.w3.org/2000/svg" focusable="false">
  <title>Invest Search Icon</title>
  <path d="M12.5918 21.8417C7.35614 21.8417 3.0918 17.5853 3.0918 12.3417C3.0918 7.09815 7.35614 2.84961 12.5918 2.84961C17.8275 2.84961 22.0444 7.05867 22.0918 12.2548C22.0918 12.2864 22.0918 12.3101 22.0918 12.3417C22.0918 17.5774 17.8275 21.8417 12.5918 21.8417Z" fill="transparent" class="icon-offset"></path>
  <path fill-rule="evenodd" clip-rule="evenodd" d="M1.5 11.3414C1.5 16.9118 6.03008 21.4334 11.592 21.4334C14.0051 21.4334 16.2239 20.5807 17.9629 19.161L21.3572 22.5404C21.483 22.6663 21.6592 22.7334 21.827 22.7334V22.7418C22.0031 22.7418 22.1709 22.6747 22.3051 22.5404C22.5652 22.2804 22.5652 21.8525 22.3051 21.5925L18.9439 18.246C20.642 16.4391 21.684 14.0089 21.684 11.3414V11.2492C21.6337 5.72917 17.1539 1.25781 11.592 1.25781C6.03008 1.25781 1.5 5.77111 1.5 11.3414ZM17.6212 17.6944C19.2836 16.117 20.3242 13.8925 20.3502 11.4253V11.3414C20.3502 6.51774 16.4241 2.60006 11.6004 2.60006H11.592C6.76831 2.60006 2.85063 6.51774 2.85063 11.3414C2.85063 16.1651 6.7767 20.0912 11.6004 20.0912C13.8667 20.0912 15.9238 19.2357 17.4732 17.8317C17.4887 17.8122 17.5054 17.7935 17.5234 17.7755C17.5539 17.745 17.5867 17.718 17.6212 17.6944ZM10.921 15.1748H9.56174C9.19263 15.1748 8.89062 14.8728 8.89062 14.5036C8.89062 14.1345 9.19263 13.8325 9.56174 13.8325H11.4867C11.521 13.827 11.5562 13.8242 11.5921 13.8242C11.6279 13.8242 11.6632 13.827 11.6975 13.8325H12.4895C12.9929 13.8325 13.3955 13.4298 13.3955 12.9265C13.3955 12.4232 12.9929 12.0205 12.4895 12.0205H10.6859C9.4443 12.0205 8.43761 11.0138 8.43761 9.77222C8.43761 8.53065 9.4443 7.52396 10.6859 7.52396H10.921V6.86968C10.921 6.50056 11.223 6.19855 11.5921 6.19855C11.9612 6.19855 12.2632 6.50056 12.2632 6.86968V7.52396H13.6136C13.9828 7.52396 14.2848 7.82597 14.2848 8.19508C14.2848 8.5642 13.9828 8.86621 13.6136 8.86621H11.6982C11.6637 8.87177 11.6282 8.87465 11.5921 8.87465C11.556 8.87465 11.5205 8.87177 11.4859 8.86621H10.6859C10.1825 8.86621 9.77986 9.26888 9.77986 9.77222C9.77986 10.2756 10.1825 10.6782 10.6859 10.6782H12.4895C13.7311 10.6782 14.7378 11.6849 14.7378 12.9265C14.7378 14.1681 13.7311 15.1748 12.4895 15.1748H12.2632V15.8124C12.2632 16.1815 11.9612 16.4835 11.5921 16.4835C11.223 16.4835 10.921 16.1815 10.921 15.8124V15.1748Z" class="icon-base"></path>
</svg>
