<svg viewBox="0 0 24 24" fill="currentColor" xmlns="http://www.w3.org/2000/svg" focusable="false">
  <title>Lightbulb Icon</title>
  <path d="M10.7252 18.8044C10.9446 21.1925 11.9742 23 13.2112 23C14.4542 23 15.4878 21.1749 15.7003 18.7696C15.7519 18.6755 15.7814 18.567 15.7814 18.4519C15.7814 17.7854 16.2393 17.2327 16.8235 16.5337L16.836 16.5187C17.6233 15.5704 18.5998 14.3943 18.5998 12.4943C18.5998 9.84468 16.4288 7 13.1998 7C9.97086 7 7.7998 9.83655 7.7998 12.4862C7.7998 14.4043 8.77875 15.5909 9.56823 16.5419L9.59581 16.5753C10.1591 17.2583 10.6027 17.7962 10.6182 18.46C10.6211 18.5891 10.6599 18.7066 10.7252 18.8044Z" fill="transparent" class="icon-offset"></path>
  <path fill-rule="evenodd" clip-rule="evenodd" d="M11.9998 4.38625C11.6192 4.38625 11.3079 4.07125 11.3079 3.68625V1.7C11.3079 1.315 11.6192 1 11.9998 1C12.3804 1 12.6917 1.315 12.6917 1.7V3.68625C12.6917 4.07125 12.3804 4.38625 11.9998 4.38625ZM6.44343 6.70554L6.44751 6.70555H6.43886L6.44343 6.70554ZM6.93186 6.5043C6.79464 6.64313 6.62339 6.70452 6.44343 6.70554C6.27168 6.70445 6.09181 6.63452 5.95451 6.5043L4.57065 5.1043C4.30253 4.83305 4.30253 4.3868 4.57065 4.11555C4.83877 3.8443 5.27988 3.8443 5.548 4.11555L6.93186 5.51555C7.19998 5.7868 7.19998 6.23305 6.93186 6.5043ZM13.4608 17.9581C13.4608 18.3431 13.7722 18.6581 14.1528 18.6581V18.6669C14.5333 18.6669 14.8447 18.3519 14.8447 17.9669C14.8447 17.2494 15.3463 16.6544 15.9864 15.9019L16 15.8857C16.8626 14.8647 17.9324 13.5985 17.9324 11.5531C17.9324 8.7006 15.5539 5.6381 12.0164 5.6381C8.47893 5.6381 6.10042 8.69185 6.10042 11.5444C6.10042 13.6094 7.17291 14.8869 8.03782 15.9106L8.06804 15.9466L8.06804 15.9466C8.68514 16.6819 9.17113 17.261 9.18816 17.9756C9.1968 18.3606 9.50817 18.6494 9.89738 18.6581C10.2779 18.6494 10.572 18.3256 10.572 17.9406C10.5461 16.7156 9.81089 15.8406 9.09302 14.9919C8.2627 14.0119 7.48428 13.0844 7.48428 11.5356C7.48428 9.35685 9.30924 7.02935 12.0164 7.02935C14.7236 7.02935 16.5486 9.3656 16.5486 11.5444C16.5486 13.0697 15.7424 14.0285 14.9622 14.9564L14.9398 14.9831L14.9321 14.9922C14.208 15.8468 13.4608 16.7287 13.4608 17.9581ZM13.4526 13.9067L12.7086 14.6594V17.433C12.7086 17.818 12.3973 18.133 12.0167 18.133C11.6362 18.133 11.3248 17.818 11.3248 17.433V14.6591L10.5292 13.8542C10.2611 13.583 10.2611 13.1367 10.5292 12.8655C10.7973 12.5942 11.2384 12.5942 11.5065 12.8655L12.0168 13.3817L12.4753 12.918C12.7434 12.6467 13.1845 12.6467 13.4526 12.918C13.7207 13.1892 13.7207 13.6355 13.4526 13.9067ZM2.19193 12.3225H4.14663C4.52719 12.3225 4.83856 12.0075 4.83856 11.6225C4.83856 11.2375 4.52719 10.9225 4.14663 10.9225H2.19193C1.81137 10.9225 1.5 11.2375 1.5 11.6225C1.5 12.0075 1.81137 12.3225 2.19193 12.3225ZM14.0316 20.5743H10.1136C9.73303 20.5743 9.42166 20.2593 9.42166 19.8743C9.42166 19.4893 9.73303 19.1743 10.1136 19.1743H14.0316C14.4122 19.1743 14.7236 19.4893 14.7236 19.8743C14.7236 20.2593 14.4122 20.5743 14.0316 20.5743ZM11.0313 22.56H12.9947C13.3752 22.56 13.6866 22.245 13.6866 21.86C13.6866 21.475 13.3752 21.16 12.9947 21.16H11.0313C10.6508 21.16 10.3394 21.475 10.3394 21.86C10.3394 22.245 10.6508 22.56 11.0313 22.56ZM21.808 12.3225H19.8533C19.4727 12.3225 19.1613 12.0075 19.1613 11.6225C19.1613 11.2375 19.4727 10.9225 19.8533 10.9225H21.808C22.1885 10.9225 22.4999 11.2375 22.4999 11.6225C22.4999 12.0075 22.1885 12.3225 21.808 12.3225ZM17.5492 6.70554C17.5502 6.70555 17.5513 6.70555 17.5524 6.70555H17.5438C17.5456 6.70555 17.5474 6.70555 17.5492 6.70554ZM17.0594 6.5043C17.197 6.63477 17.3687 6.70472 17.5492 6.70554C17.7288 6.70433 17.8997 6.64291 18.0368 6.5043L19.4206 5.1043C19.6887 4.83305 19.6887 4.3868 19.4206 4.11555C19.1525 3.8443 18.7114 3.8443 18.4433 4.11555L17.0594 5.51555C16.7913 5.7868 16.7913 6.23305 17.0594 6.5043Z" class="icon-base"></path>
</svg>
