<svg viewBox="0 0 24 24" fill="currentColor" xmlns="http://www.w3.org/2000/svg" focusable="false">
  <title>Loan Icon</title>
  <ellipse cx="17.6999" cy="9.16596" rx="6.3" ry="6.16596" fill="transparent" class="icon-offset"></ellipse>
  <path fill-rule="evenodd" clip-rule="evenodd" d="M20.6377 12.3358C20.7493 12.4046 20.8694 12.4304 20.981 12.4304L20.9724 12.4132C21.2127 12.4132 21.4444 12.2927 21.5732 12.069C22.1825 11.0018 22.5 9.79687 22.5 8.56614C22.5 4.66742 19.3418 1.50024 15.4542 1.50024C11.5666 1.50024 8.40837 4.66742 8.40837 8.56614C8.40837 9.28048 8.51136 9.98621 8.71733 10.6489C8.82889 11.0104 9.21508 11.2169 9.57553 11.105C9.94455 10.9932 10.1419 10.6059 10.0304 10.2444C9.86731 9.7108 9.78149 9.15138 9.78149 8.57475C9.78149 5.442 12.3303 2.88588 15.4542 2.88588C18.5781 2.88588 21.1269 5.43339 21.1269 8.57475C21.1269 9.56449 20.8694 10.5456 20.3803 11.3977C20.1915 11.7247 20.3116 12.1464 20.6377 12.3358ZM15.4544 12.1382C15.0768 12.1382 14.7678 11.8284 14.7678 11.4497V11.295H14.1585C13.7809 11.295 13.4719 10.9852 13.4719 10.6065C13.4719 10.2278 13.7809 9.91796 14.1585 9.91796H15.3449C15.3806 9.91216 15.4172 9.90915 15.4544 9.90915C15.4916 9.90915 15.5282 9.91216 15.5638 9.91796H16.0294C16.2096 9.91796 16.3469 9.77165 16.3469 9.59952C16.3469 9.42739 16.201 9.28108 16.0294 9.28108H14.8794C13.9439 9.28108 13.1887 8.52371 13.1887 7.58561C13.1887 6.68542 13.892 5.95166 14.7678 5.89381V5.71781C14.7678 5.33912 15.0768 5.02929 15.4544 5.02929C15.832 5.02929 16.1409 5.33912 16.1409 5.71781V5.89014H16.7503C17.1279 5.89014 17.4368 6.19997 17.4368 6.57865C17.4368 6.95734 17.1279 7.26717 16.7503 7.26717H14.8794C14.6992 7.26717 14.5618 7.41348 14.5618 7.58561C14.5618 7.75774 14.7077 7.90405 14.8794 7.90405H16.0294C16.9648 7.90405 17.72 8.67002 17.72 9.59952C17.72 10.4914 17.0167 11.2328 16.1409 11.2913V11.4497C16.1409 11.8284 15.832 12.1382 15.4544 12.1382ZM16.0688 15.8311C16.1161 15.6357 16.141 15.4312 16.141 15.2202C16.141 13.9981 15.3257 12.9653 14.107 12.6641C12.9227 12.3628 11.5153 12.0702 10.0392 12.1046C8.09117 12.1529 6.6299 13.0722 5.24268 14.0139C4.90353 13.3096 4.21542 12.8694 3.34513 12.8694H2.18656C1.80895 12.8694 1.5 13.1793 1.5 13.558C1.5 13.9366 1.80895 14.2465 2.18656 14.2465H3.34513C4.00595 14.2465 4.10035 14.7715 4.10035 15.0813V20.2882C4.10035 20.598 4.00595 21.123 3.34513 21.123H2.18656C1.80895 21.123 1.5 21.4329 1.5 21.8115C1.5 22.1902 1.80895 22.5001 2.18656 22.5001H3.34513C4.18974 22.5001 4.86276 22.0855 5.21175 21.4173C6.19449 21.4234 7.0099 21.4592 7.91067 21.6399L8.01365 21.6571L8.18495 21.6902C9.7716 21.9973 11.305 22.294 12.8625 22.294L12.8367 22.2854C14.0725 22.2854 15.3255 22.1046 16.63 21.5969C18.7147 20.7795 20.0961 19.386 21.5545 17.9148L21.5561 17.9133L21.762 17.7067C22.234 17.2334 22.4915 16.6137 22.4915 15.9424C22.4915 15.2711 22.2255 14.6428 21.762 14.1781C20.9038 13.3002 19.505 13.2056 18.518 13.9457C18.3101 14.1052 18.1021 14.2734 17.8911 14.4441L17.8907 14.4444C17.8057 14.5132 17.7203 14.5823 17.6341 14.6515C17.125 15.0714 16.606 15.4973 16.0688 15.8311ZM5.72242 15.3493L5.47347 15.5209V20.0425C6.40985 20.0539 7.25707 20.1015 8.17671 20.2887L8.27111 20.3059L8.29874 20.3113C11.102 20.8598 13.5319 21.3353 16.1494 20.3231C17.9602 19.6088 19.1874 18.378 20.5949 16.9494L20.8008 16.7428C21.0154 16.5277 21.127 16.2523 21.127 15.951C21.127 15.6498 21.0068 15.3744 20.8008 15.1592C20.4146 14.7633 19.7882 14.7203 19.3505 15.056C19.0759 15.2625 18.7927 15.4949 18.5095 15.7272L18.5094 15.7273L18.4786 15.7524C17.2933 16.7188 15.9545 17.8104 14.2699 17.8531C13.9696 17.8531 13.6606 17.8531 13.3602 17.8358L13.3375 17.835H13.3374H13.3374H13.3374H13.3374C12.8569 17.8181 12.4094 17.8023 11.9785 17.8617C11.6009 17.9133 11.2577 17.6551 11.1976 17.2764C11.1764 17.1207 11.2075 16.9708 11.2776 16.8441C11.3866 16.6075 11.6257 16.4423 11.9015 16.4423H12.3713C12.6374 16.4316 12.9001 16.4351 13.1574 16.4423H13.4548C14.2186 16.4423 14.7679 15.9259 14.7679 15.2202C14.7679 14.6349 14.3731 14.153 13.7723 13.9981C12.6224 13.7054 11.378 13.4472 10.0735 13.4817C8.39142 13.5247 7.15562 14.3681 5.72242 15.3493Z" class="icon-base"></path>
</svg>
