<svg viewBox="0 0 24 24" fill="currentColor" xmlns="http://www.w3.org/2000/svg" focusable="false">
  <title>Loan Student Icon</title>
  <path fill-rule="evenodd" clip-rule="evenodd" d="M7.73614 14.0821L5.16257 12.7557C4.45153 12.3853 4.01172 11.6446 4.01172 10.8112C4.01172 9.9779 4.45153 9.23716 5.16257 8.86679L11.9724 5.36371C12.9473 4.86216 14.0615 4.86216 15.0364 5.36371L21.8609 8.87451C22.5719 9.24488 23.0117 9.98562 23.0117 10.8112C23.0117 11.6369 22.5719 12.3853 21.8609 12.7557L19.1127 14.171V18.2959C19.1127 18.9209 18.7755 19.4996 18.255 19.7619C16.6717 20.5875 15.0664 20.9965 13.4464 20.9965L13.4537 21.0119C11.8411 21.0119 10.2211 20.603 8.60111 19.7774C8.08066 19.515 7.73614 18.9363 7.73614 18.3036V14.0821Z" fill="transparent" class="icon-offset"></path>
  <path fill-rule="evenodd" clip-rule="evenodd" d="M12.004 15.8306C11.5994 15.8306 11.1947 15.7659 10.8063 15.6364C10.7497 15.6283 10.6849 15.604 10.6283 15.5797L10.5635 15.5474C10.4826 15.515 10.3936 15.4745 10.3127 15.4341L6.93016 13.781V17.5626C6.93016 17.7245 7.01918 17.8782 7.14866 17.9349C10.3937 19.5048 13.5174 19.5048 16.6815 17.9349C16.8191 17.8702 16.9 17.7164 16.9 17.5546V13.8621L13.7034 15.426C13.1612 15.693 12.5866 15.8225 12.004 15.8225V15.8306ZM18.1948 13.2286L21.2293 11.7439C22.0143 11.3555 22.4998 10.5705 22.4998 9.70466C22.4998 8.83878 22.0143 8.06191 21.2293 7.67347L13.6953 3.99143C12.619 3.46542 11.389 3.46542 10.3127 3.99143L2.79483 7.66538C2.00987 8.05381 1.52432 8.83068 1.52432 9.70466C1.52432 9.76551 1.52668 9.82589 1.53132 9.8857L1.5 15.3122C1.5 15.6683 1.79133 15.9596 2.14739 15.9596V15.9515C2.50346 15.9515 2.79478 15.6683 2.79478 15.3122L2.81532 11.754L5.63538 13.1348V17.5626C5.63538 18.2262 6.01572 18.8332 6.59028 19.1083C8.3787 19.9742 10.1671 20.4031 11.9474 20.4031L11.9394 20.3869C13.7278 20.3869 15.5 19.958 17.248 19.0921C17.8225 18.817 18.1948 18.21 18.1948 17.5546V13.2286ZM3.35321 10.5867C3.06734 10.4438 2.87879 10.1921 2.82608 9.88941L2.82715 9.70419C2.82715 9.66669 2.82392 9.62991 2.81773 9.59411C2.85534 9.26567 3.04927 8.99075 3.35321 8.83878L10.871 5.16483C11.5913 4.81685 12.4086 4.81685 13.1207 5.16483L20.6548 8.84687C20.9946 9.01681 21.197 9.34051 21.197 9.72085C21.197 10.1012 20.9946 10.4249 20.6548 10.5948L13.1288 14.2769C12.4814 14.5925 11.745 14.6248 11.0814 14.3659V14.3578L3.35321 10.5867ZM11.3567 12.2621H10.7821C10.426 12.2621 10.1347 11.9708 10.1347 11.6147C10.1347 11.2587 10.426 10.9673 10.7821 10.9673H11.8987C11.933 10.9616 11.9682 10.9587 12.0041 10.9587C12.04 10.9587 12.0752 10.9616 12.1095 10.9673H12.5463C12.7162 10.9673 12.8457 10.8298 12.8457 10.6679C12.8457 10.5061 12.7081 10.3685 12.5463 10.3685H11.4619C10.5798 10.3685 9.86767 9.65636 9.86767 8.77429C9.86767 7.92785 10.5309 7.23791 11.3567 7.18353V7.0096C11.3567 6.65353 11.6481 6.3622 12.0041 6.3622C12.3602 6.3622 12.6515 6.65353 12.6515 7.0096V7.18008H13.226C13.5821 7.18008 13.8734 7.47141 13.8734 7.82747C13.8734 8.18354 13.5821 8.47487 13.226 8.47487H11.4619C11.2919 8.47487 11.1625 8.61244 11.1625 8.77429C11.1625 8.93613 11.3 9.0737 11.4619 9.0737H12.5463C13.4283 9.0737 14.1405 9.79393 14.1405 10.6679C14.1405 11.5065 13.4773 12.2036 12.6515 12.2586V12.4072C12.6515 12.7633 12.3602 13.0546 12.0041 13.0546C11.6481 13.0546 11.3567 12.7633 11.3567 12.4072V12.2621Z" class="icon-base"></path>
</svg>
