<svg viewBox="0 0 24 24" fill="currentColor" xmlns="http://www.w3.org/2000/svg" focusable="false">
  <title>Location Pin Icon</title>
  <path fill-rule="evenodd" clip-rule="evenodd" d="M12.9951 18.6967C11.473 18.6967 5.99512 13.8686 5.99512 8.96311C5.99512 5.00267 9.13132 1.77246 12.9951 1.77246C16.8589 1.77246 19.9951 4.99408 19.9951 8.96311C19.9951 13.8686 14.5172 18.6967 12.9951 18.6967ZM12.9904 10.3863C13.8001 10.3863 14.4566 9.72984 14.4566 8.92009C14.4566 8.11033 13.8001 7.4539 12.9904 7.4539C12.1806 7.4539 11.5242 8.11033 11.5242 8.92009C11.5242 9.72984 12.1806 10.3863 12.9904 10.3863Z" fill="transparent" class="icon-offset"></path>
  <path fill-rule="evenodd" clip-rule="evenodd" d="M11.9952 18.4688C10.3342 18.4688 4.35638 13.2 4.35638 7.8469C4.35638 3.52501 7.7788 0 11.9952 0C16.2117 0 19.6341 3.51564 19.6341 7.8469C19.6341 13.2 13.6562 18.4688 11.9952 18.4688ZM11.9952 1.50001C8.59106 1.50001 5.81661 4.35002 5.81661 7.8469C5.81661 12.3469 11.0643 16.8001 12.0317 16.9688C12.9261 16.8001 18.1738 12.3375 18.1738 7.8469C18.1738 4.35002 15.3994 1.50001 11.9952 1.50001ZM11.9956 10.9032C10.3254 10.9032 8.96558 9.5063 8.96558 7.79067C8.96558 6.07504 10.3254 4.67816 11.9956 4.67816C13.6657 4.67816 15.0256 6.07504 15.0256 7.79067C15.0256 9.5063 13.6657 10.9032 11.9956 10.9032ZM11.9956 6.16879C11.1286 6.16879 10.4258 6.89067 10.4258 7.7813C10.4258 8.67193 11.1286 9.3938 11.9956 9.3938C12.8626 9.3938 13.5653 8.67193 13.5653 7.7813C13.5653 6.89067 12.8626 6.16879 11.9956 6.16879ZM5.33312 22.903C7.18579 23.6061 9.54954 23.9999 12.0046 23.9999C14.4596 23.9999 16.8325 23.6061 18.676 22.903C19.251 22.6874 19.7529 22.4436 20.2001 22.1717C22.0984 21.0842 22.5 19.8467 22.5 18.9936C22.5 18.1405 22.0984 16.903 20.2001 15.8061C19.8442 15.5998 19.397 15.7311 19.2053 16.0967C19.0137 16.4623 19.1323 16.9123 19.4883 17.1186C20.0632 17.4561 21.0398 18.1405 21.0398 18.9936C21.0398 19.8467 20.0632 20.5311 19.47 20.878C19.0958 21.1124 18.6669 21.3092 18.1741 21.4967C16.4765 22.1436 14.2862 22.4999 12.0046 22.4999C9.72295 22.4999 7.53259 22.1436 5.83507 21.4967C5.37875 21.328 4.93155 21.1124 4.51173 20.8686C3.92764 20.5311 2.95111 19.8467 2.95111 18.9936C2.95111 18.1405 3.92764 17.4561 4.51173 17.1186C4.86767 16.9123 4.99544 16.4623 4.79465 16.0967C4.59387 15.7311 4.1558 15.5998 3.79987 15.8061C1.90156 16.903 1.5 18.1498 1.5 18.9936C1.5 19.8374 1.90156 21.0749 3.79987 22.1717C4.28357 22.4624 4.80378 22.7061 5.33312 22.903Z" class="icon-base"></path>
</svg>
