<svg viewBox="0 0 24 24" fill="currentColor" xmlns="http://www.w3.org/2000/svg" focusable="false">
  <title>Location Icon</title>
  <path d="M19.0962 22.7083C18.1595 22.7083 14.8999 19.9882 14.8999 17.0958C14.8999 14.7804 16.7807 12.8921 19.0962 12.8921C21.4116 12.8921 23.2999 14.7729 23.2999 17.0958C23.2999 19.9882 20.0403 22.7083 19.0962 22.7083Z" fill="transparent" class="icon-offset"></path>
  <path fill-rule="evenodd" clip-rule="evenodd" d="M3.29551 21.9055C2.95626 21.9055 2.60875 21.8071 2.31915 21.6183C1.80615 21.2901 1.5 20.7238 1.5 20.1166V6.39551C1.5 5.31227 2.14539 4.33572 3.1383 3.89257L7.39125 2.02152C7.93735 1.78353 8.54965 1.75892 9.12057 1.96408L15.3345 4.20441C15.5745 4.29468 15.8392 4.27827 16.0709 4.17979L19.9598 2.46466C20.5142 2.21847 21.1596 2.26771 21.6726 2.59597C22.1856 2.92422 22.5 3.49046 22.5 4.09773V9.12823C22.5 9.48931 22.2021 9.78474 21.8381 9.78474C21.474 9.78474 21.1761 9.48931 21.1761 9.12823V4.09773C21.1761 3.85975 21.0189 3.73665 20.961 3.69562C20.9031 3.65459 20.721 3.56432 20.5059 3.66279L16.6325 5.37112V8.76621C16.6325 9.12729 16.337 9.42272 15.9759 9.42272C15.6149 9.42272 15.3194 9.12729 15.3194 8.76621V5.54601C15.1741 5.52316 15.0296 5.48636 14.8877 5.43537L8.86141 3.26268V18.6931C8.94867 18.7137 9.03519 18.7396 9.12057 18.7707L11.487 19.6242C11.8345 19.7473 12.0083 20.1248 11.8842 20.4694C11.76 20.8059 11.3794 20.9782 11.0319 20.8633L8.66548 20.0099C8.42553 19.9196 8.16076 19.936 7.92908 20.0345L4.03191 21.7496C3.80024 21.8563 3.54374 21.9055 3.29551 21.9055ZM7.54838 18.7691V3.39077L3.6844 5.0907C3.16312 5.32048 2.83215 5.82927 2.83215 6.38731V20.1084C2.83215 20.3381 2.98109 20.4612 3.04728 20.5105C3.11348 20.5515 3.28723 20.6418 3.50236 20.5433L7.39953 18.8282C7.44864 18.8068 7.49828 18.7871 7.54838 18.7691ZM17.8961 22.1754C16.8703 22.1754 13.3005 19.1965 13.3005 16.0288C13.3005 13.4931 15.3603 11.425 17.8961 11.425C20.4319 11.425 22.4999 13.4848 22.4999 16.0288C22.4999 19.1965 18.9301 22.1754 17.8961 22.1754ZM17.8961 12.7463C16.0825 12.7463 14.6135 14.2234 14.6135 16.037C14.6135 18.2938 17.1903 20.5423 17.8961 20.846C18.6018 20.5423 21.1869 18.2856 21.1869 16.037C21.1869 14.2234 19.7097 12.7463 17.8961 12.7463ZM17.2399 16.1277C17.2399 16.4887 17.5353 16.7842 17.8964 16.7842C18.2575 16.7842 18.5529 16.4887 18.5529 16.1277V15.9964C18.5529 15.6353 18.2575 15.3398 17.8964 15.3398C17.5353 15.3398 17.2399 15.6353 17.2399 15.9964V16.1277Z" class="icon-base"></path>
</svg>
