<svg viewBox="0 0 24 24" fill="currentColor" xmlns="http://www.w3.org/2000/svg" focusable="false">
  <title>Lock Icon</title>
  <path fill-rule="evenodd" clip-rule="evenodd" d="M11.9997 1.5C8.91744 1.5 6.35454 3.98387 6.35454 7.08871V8.33064C4.61588 8.3307 3.19336 9.75326 3.19336 11.4919V19.3387C3.19336 21.0774 4.61594 22.5 6.35465 22.5H17.645C19.395 22.5 20.8063 21.0661 20.8063 19.2823V11.4919C20.8063 9.75322 19.3837 8.33064 17.645 8.33064H17.6449V7.14516C17.6449 4.05161 15.082 1.5 11.9997 1.5ZM15.8384 8.33064V7.14516C15.8384 5.04516 14.1449 3.30645 11.9997 3.30645C9.85454 3.30645 8.16099 5 8.16099 7.08871V8.33064H15.8384ZM12.903 14.2581C12.903 13.7613 12.4966 13.3548 11.9998 13.3548C11.503 13.3548 11.0966 13.7613 11.0966 14.2581V16.5726C11.0966 17.0694 11.503 17.4758 11.9998 17.4758C12.4966 17.4758 12.903 17.0694 12.903 16.5726V14.2581Z" class="icon-base"></path>
</svg>
