<svg viewBox="0 0 24 24" fill="currentColor" xmlns="http://www.w3.org/2000/svg" focusable="false">
  <title>Lock Icon</title>
  <path fill-rule="evenodd" clip-rule="evenodd" d="M16.1486 7.0377V8.47406H7.84205V6.97713C7.84205 4.71879 9.70238 2.88443 11.9953 2.88443C14.2883 2.88443 16.1486 4.74475 16.1486 7.0377ZM6.45763 6.97713V8.47406H6.23294C4.57163 8.47406 3.23047 9.82387 3.23047 11.4765V19.4975C3.23047 21.1589 4.58028 22.5 6.23294 22.5H17.7669V22.4914C19.4282 22.4914 20.7694 21.1242 20.7694 19.437V11.4765C20.7694 9.81522 19.4196 8.47406 17.7669 8.47406H17.533V7.0377C17.533 3.98331 15.0497 1.5 11.9953 1.5C8.94094 1.5 6.45763 3.95735 6.45763 6.97713ZM6.22429 9.86714C5.33307 9.86714 4.60624 10.594 4.60624 11.4852V19.5062C4.60624 20.3974 5.33307 21.1242 6.22429 21.1242H17.7583C18.6668 21.1242 19.3763 20.3888 19.3763 19.4543V11.4938C19.3763 10.6026 18.6495 9.87579 17.7583 9.87579H6.22429V9.86714ZM11.3034 16.6681C11.3034 17.0488 11.6149 17.3603 11.9956 17.3603C12.3763 17.3603 12.6878 17.0488 12.6878 16.6681V14.306C12.6878 13.9252 12.3763 13.6137 11.9956 13.6137C11.6149 13.6137 11.3034 13.9252 11.3034 14.306V16.6681Z" class="icon-base"></path>
</svg>
