<svg viewBox="0 0 24 24" fill="currentColor" xmlns="http://www.w3.org/2000/svg" focusable="false">
  <title>Log Out Icon</title>
  <path fill-rule="evenodd" clip-rule="evenodd" d="M11.0279 22.2216H6.06039C3.54609 22.2216 1.50004 20.1773 1.50004 17.6651V6.34519C1.48986 3.82287 3.53591 1.77856 6.06039 1.77856H11.0279C13.5422 1.77856 15.5883 3.82287 15.5883 6.33502V7.28089C15.5883 7.7284 15.2218 8.09454 14.7739 8.09454C14.326 8.09454 13.9596 7.7284 13.9596 7.28089V6.33502C13.9596 4.71788 12.6464 3.3957 11.0279 3.3957H6.06039C4.44187 3.3957 3.12873 4.70771 3.12873 6.33502V17.655C3.12873 19.2721 4.44187 20.5841 6.06039 20.5841H11.0279C12.6363 20.5841 13.9596 19.2721 13.9596 17.6651V16.7091C13.9596 16.2616 14.326 15.8954 14.7739 15.8954C15.2218 15.8954 15.5883 16.2616 15.5883 16.7091V17.6651C15.5883 20.1773 13.5422 22.2114 11.0381 22.2114L11.0279 22.2216ZM19.7077 12.8137H9.43005C8.98216 12.8137 8.6157 12.4476 8.6157 12.0001C8.6157 11.5526 8.98216 11.1864 9.43005 11.1864H19.7077L18.1232 9.60997C17.8077 9.29468 17.8077 8.77598 18.1232 8.46069C18.4388 8.1454 18.9579 8.1454 19.2735 8.46069L22.1781 11.3529C22.3736 11.5019 22.5003 11.7369 22.5003 12.0001C22.5003 12.0014 22.5003 12.0028 22.5003 12.0041C22.5003 12.0061 22.5004 12.0082 22.5004 12.0102C22.5004 12.234 22.4189 12.4374 22.2561 12.59L19.2735 15.5598C19.1106 15.7225 18.907 15.7937 18.7035 15.7937V15.7836C18.4897 15.7836 18.2861 15.7022 18.1232 15.5395C17.8077 15.2242 17.8077 14.7055 18.1232 14.3902L19.7077 12.8137Z" class="icon-base"></path>
</svg>
