<svg viewBox="0 0 24 24" fill="currentColor" xmlns="http://www.w3.org/2000/svg" focusable="false">
  <title>Menu Icon</title>
  <path fill-rule="evenodd" clip-rule="evenodd" d="M3.81818 6.68177H16.0909C16.5409 6.68177 16.9091 6.31359 16.9091 5.86359C16.9091 5.41359 16.5409 5.04541 16.0909 5.04541H3.81818C3.36818 5.04541 3 5.41359 3 5.86359C3 6.31359 3.36818 6.68177 3.81818 6.68177ZM20.1818 12.8181H3.81818C3.36818 12.8181 3 12.45 3 12C3 11.55 3.36818 11.1818 3.81818 11.1818H20.1818C20.6318 11.1818 21 11.55 21 12C21 12.45 20.6318 12.8181 20.1818 12.8181ZM12 18.9545H3.81818C3.36818 18.9545 3 18.5863 3 18.1363C3 17.6863 3.36818 17.3182 3.81818 17.3182H12C12.45 17.3182 12.8182 17.6863 12.8182 18.1363C12.8182 18.5863 12.45 18.9545 12 18.9545Z" class="icon-base"></path>
</svg>
