<svg viewBox="0 0 24 24" fill="currentColor" xmlns="http://www.w3.org/2000/svg" focusable="false">
  <title>Menu List Icon</title>
  <path fill-rule="evenodd" clip-rule="evenodd" d="M3 5.97213C3 6.57911 3.49186 7.07097 4.09884 7.07097C4.70582 7.07097 5.19768 6.57911 5.19768 5.97213C5.19768 5.36515 4.70582 4.87329 4.09884 4.87329C3.49186 4.87329 3 5.36515 3 5.97213ZM20.1626 6.80934H8.10677C7.6463 6.80934 7.26956 6.4326 7.26956 5.97213C7.26956 5.51167 7.6463 5.13492 8.10677 5.13492H20.1626C20.6231 5.13492 20.9998 5.51167 20.9998 5.97213C20.9998 6.4326 20.6231 6.80934 20.1626 6.80934ZM8.10677 12.8373H20.1626C20.6231 12.8373 20.9998 12.4605 20.9998 12.0001C20.9998 11.5396 20.6231 11.1628 20.1626 11.1628H8.10677C7.6463 11.1628 7.26956 11.5396 7.26956 12.0001C7.26956 12.4605 7.6463 12.8373 8.10677 12.8373ZM8.10677 18.8652H20.1626C20.6231 18.8652 20.9998 18.4884 20.9998 18.028C20.9998 17.5675 20.6231 17.1908 20.1626 17.1908H8.10677C7.6463 17.1908 7.26956 17.5675 7.26956 18.028C7.26956 18.4884 7.6463 18.8652 8.10677 18.8652ZM4.09884 13.2245C3.49186 13.2245 3 12.7326 3 12.1256C3 11.5186 3.49186 11.0268 4.09884 11.0268C4.70582 11.0268 5.19768 11.5186 5.19768 12.1256C5.19768 12.7326 4.70582 13.2245 4.09884 13.2245ZM3 18.028C3 18.635 3.49186 19.1268 4.09884 19.1268C4.70582 19.1268 5.19768 18.635 5.19768 18.028C5.19768 17.421 4.70582 16.9291 4.09884 16.9291C3.49186 16.9291 3 17.421 3 18.028Z" class="icon-base"></path>
</svg>
