<svg viewBox="0 0 24 24" fill="currentColor" xmlns="http://www.w3.org/2000/svg" focusable="false">
  <title>Money Bag Icon</title>
  <path d="M13.7206 23.9929C9.62341 23.9339 6.67274 22.3658 5.61049 19.7018C4.5061 16.9619 5.83812 14.3653 7.1617 12.1481C7.73498 11.1954 8.33354 10.2596 8.94054 9.32385L9.37893 8.63255L7.34718 4.83039C7.19543 4.55219 7.26287 4.20654 7.49893 4.0042C7.49893 4.0042 7.67597 3.85245 8.11435 3.5068C9.60655 2.35183 11.2252 2.09891 12.9197 2.75649C14.1084 3.22017 15.5332 3.67541 17.0591 3.59954C17.4048 3.57425 18.7115 3.40564 19.192 3.34662C19.4281 3.3129 19.6726 3.41407 19.8159 3.60797C19.9592 3.80187 19.9929 4.06322 19.8918 4.28241L18.0033 8.59039L18.4249 9.24797C19.0403 10.2091 19.6557 11.1701 20.2374 12.1396C21.5694 14.3569 22.893 16.945 21.7886 19.6934C20.7179 22.3574 17.7673 23.9255 13.6953 23.9845L13.7206 23.9929Z" fill="transparent" class="icon-offset"></path>
  <path fill-rule="evenodd" clip-rule="evenodd" d="M3.43443 18.888C4.55916 21.7088 7.68341 23.3691 12.0216 23.4316L11.9949 23.4226C16.3063 23.3601 19.4306 21.6998 20.5642 18.8791C21.7336 15.9691 20.3321 13.2287 18.9218 10.881C18.3058 9.85448 17.6542 8.83687 17.0026 7.81926L16.5563 7.123L18.5558 2.5616C18.6629 2.32952 18.6272 2.0528 18.4754 1.84749C18.3237 1.64218 18.0648 1.53506 17.8149 1.57077C17.709 1.58377 17.5652 1.6018 17.4006 1.62244C16.7743 1.70099 15.8463 1.81736 15.5565 1.83856C13.9408 1.9189 12.4323 1.43687 11.1736 0.945922C9.37942 0.249662 7.66555 0.517454 6.08558 1.74037C5.6214 2.10636 5.43395 2.26703 5.43395 2.26703C5.18401 2.48126 5.1126 2.84725 5.27327 3.14182L7.42454 7.16763L6.96037 7.8996C6.31766 8.89043 5.68389 9.88126 5.07689 10.8899C3.67545 13.2376 2.26507 15.9869 3.43443 18.888ZM8.73998 6.59527L6.81754 2.999V2.98114L6.96929 2.8651C8.13865 1.95461 9.35264 1.76715 10.6648 2.27596C12.0663 2.82939 13.7534 3.37391 15.6547 3.26679C15.8689 3.25786 16.3152 3.2043 16.7616 3.15075L15.254 6.60001C13.0915 7.05284 10.9024 7.05126 8.73998 6.59527ZM8.58999 8.02107L8.16543 8.68512C7.53166 9.66703 6.90681 10.6489 6.30874 11.6398C5.02333 13.7821 3.84505 16.0673 4.76447 18.3703C6.04987 21.5838 10.2721 21.9855 12.0306 22.0123C13.7623 21.9855 17.9845 21.5749 19.2699 18.3614C20.1893 16.0673 19.011 13.7821 17.7256 11.6308C17.1547 10.6738 16.5444 9.72458 15.9391 8.7833L15.8243 8.60478L15.4507 8.01627C14.3061 8.24458 13.1606 8.36191 12.0083 8.36221C10.8641 8.36191 9.72659 8.24622 8.58999 8.02107ZM11.2989 17.7978H10.6647C10.2719 17.7978 9.9506 17.4764 9.9506 17.0837C9.9506 16.6909 10.2719 16.3695 10.6647 16.3695H11.9027C11.9386 16.3639 11.9755 16.361 12.013 16.361C12.0505 16.361 12.0874 16.3639 12.1234 16.3695H12.6107C12.7981 16.3695 12.9409 16.2178 12.9409 16.0393C12.9409 15.8607 12.7892 15.709 12.6107 15.709H11.4145C10.4415 15.709 9.65602 14.9235 9.65602 13.9505C9.65602 13.0167 10.3878 12.2556 11.2989 12.1958V12.0049C11.2989 11.6121 11.6203 11.2908 12.013 11.2908C12.4058 11.2908 12.7271 11.6121 12.7271 12.0049V12.192H13.3605C13.7532 12.192 14.0746 12.5133 14.0746 12.9061C14.0746 13.2989 13.7532 13.6202 13.3605 13.6202H11.4145C11.2271 13.6202 11.0843 13.772 11.0843 13.9505C11.0843 14.129 11.236 14.2808 11.4145 14.2808H12.6107C13.5836 14.2808 14.3692 15.0752 14.3692 16.0393C14.3692 16.9645 13.6456 17.7336 12.7271 17.794V17.9588C12.7271 18.3516 12.4058 18.6729 12.013 18.6729C11.6203 18.6729 11.2989 18.3516 11.2989 17.9588V17.7978Z" class="icon-base"></path>
</svg>
