<svg viewBox="0 0 24 24" fill="currentColor" xmlns="http://www.w3.org/2000/svg" focusable="false">
  <title>Mortgage 15 Year Icon</title>
  <path d="M5.98486 20.5174V10.1693C5.98486 9.72213 6.19224 9.3002 6.5463 9.02702L13.3937 3.74381C13.9152 3.34142 14.6431 3.34335 15.1625 3.74849L22.0999 9.15993C22.3428 9.34942 22.4849 9.64032 22.4849 9.94842V20.5174C22.4849 21.3142 21.8389 21.9602 21.0421 21.9602H7.42767C6.63083 21.9602 5.98486 21.3142 5.98486 20.5174Z" fill="transparent" class="icon-offset"></path>
  <path fill-rule="evenodd" clip-rule="evenodd" d="M21.8383 10.4279C21.6989 10.4279 21.5512 10.3787 21.4363 10.2885L20.8543 9.83012V19.6656C20.8543 20.9535 19.8453 21.9626 18.5574 21.9626H5.43184C4.1439 21.9626 3.13487 20.9535 3.13487 19.6656V9.83263L2.56021 10.2885C2.27309 10.51 1.86291 10.4689 1.64142 10.1818C1.41993 9.89469 1.46094 9.48452 1.74807 9.26303L9.95151 2.75769C11.1164 1.79789 12.8227 1.79789 14.004 2.75769L17.5152 5.52468V4.30009C17.5152 3.93913 17.8105 3.64381 18.1714 3.64381C18.5324 3.64381 18.8277 3.93913 18.8277 4.30009V6.55905L22.2485 9.25483C22.5356 9.47632 22.5848 9.89469 22.3551 10.1736C22.2239 10.3377 22.0352 10.4197 21.8383 10.4197V10.4279ZM13.1755 3.78313L19.5418 8.79651V19.6656C19.5418 20.2398 19.1316 20.65 18.5574 20.65H5.43184C4.8576 20.65 4.44742 20.2398 4.44742 19.6656V8.79151L10.7719 3.77492C11.4609 3.20068 12.47 3.20068 13.1755 3.78313ZM13.906 16.8269H11.9946C11.6336 16.8269 11.3383 16.5315 11.3383 16.1706C11.3383 15.8096 11.6336 15.5143 11.9946 15.5143H13.906C14.3079 15.5143 14.6197 15.2108 14.6197 14.8006C14.6197 14.3904 14.3162 14.0869 13.906 14.0869H11.9946C11.6336 14.0869 11.3383 13.7916 11.3383 13.4306V10.8055C11.3383 10.4446 11.6336 10.1493 11.9946 10.1493H15.0052C15.3662 10.1493 15.6615 10.4446 15.6615 10.8055C15.6615 11.1665 15.3662 11.4618 15.0052 11.4618H12.6509V12.7744H13.906C15.0381 12.7744 15.9322 13.6603 15.9322 14.8006C15.9322 15.9409 15.0463 16.8269 13.906 16.8269ZM8.60637 16.1708C8.60637 16.5317 8.9017 16.8271 9.26265 16.8271C9.6236 16.8271 9.91893 16.5317 9.91893 16.1708V10.8139C9.91893 10.453 9.6236 10.1577 9.26265 10.1577C8.9017 10.1577 8.60637 10.453 8.60637 10.8139V16.1708Z" class="icon-base"></path>
</svg>
