<svg viewBox="0 0 24 24" fill="currentColor" xmlns="http://www.w3.org/2000/svg" focusable="false">
  <title>Mortgage Rate Down Icon</title>
  <path d="M5.98486 20.5174V10.1693C5.98486 9.72213 6.19224 9.3002 6.5463 9.02702L13.3937 3.74381C13.9152 3.34142 14.6431 3.34335 15.1625 3.74849L22.0999 9.15993C22.3428 9.34942 22.4849 9.64032 22.4849 9.94842V20.5174C22.4849 21.3142 21.8389 21.9602 21.0421 21.9602H7.42767C6.63083 21.9602 5.98486 21.3142 5.98486 20.5174Z" fill="transparent" class="icon-offset"></path>
  <path fill-rule="evenodd" clip-rule="evenodd" d="M21.8383 10.4279C21.6989 10.4279 21.5512 10.3787 21.4363 10.2885L20.854 9.8299V19.6653C20.854 20.9533 19.845 21.9623 18.5571 21.9623H5.43155C4.1436 21.9623 3.13458 20.9533 3.13458 19.6653V9.83286L2.56021 10.2885C2.27309 10.51 1.86291 10.4689 1.64142 10.1818C1.41993 9.89469 1.46094 9.48452 1.74807 9.26303L9.95151 2.75769C11.1164 1.79789 12.8227 1.79789 14.004 2.75769L17.5151 5.52466V4.29993C17.5151 3.93898 17.8105 3.64366 18.1714 3.64366C18.5324 3.64366 18.8277 3.93898 18.8277 4.29993V6.55903L22.2485 9.25483C22.5356 9.47632 22.5848 9.89469 22.3551 10.1736C22.2239 10.3377 22.0352 10.4197 21.8383 10.4197V10.4279ZM13.1755 3.78313L19.5415 8.79628V19.6653C19.5415 20.2396 19.1313 20.6498 18.5571 20.6498H5.43155C4.8573 20.6498 4.44713 20.2396 4.44713 19.6653V8.79174L10.7719 3.77492C11.4609 3.20068 12.47 3.20068 13.1755 3.78313ZM16.2601 15.1929L13.2169 12.1917C12.9708 11.9538 12.5852 11.9456 12.3227 12.1671L10.2637 13.9637L7.52371 11.3222C7.2612 11.0679 6.85103 11.0761 6.59672 11.3386C6.34242 11.6011 6.35062 12.0113 6.61313 12.2656L9.78786 15.3255C10.034 15.5634 10.4195 15.5716 10.6738 15.3501L12.7329 13.5617L15.2604 16.0558H14.562C14.2011 16.0558 13.9057 16.3511 13.9057 16.7121C13.9057 17.073 14.2011 17.3684 14.562 17.3684H16.6503C16.7353 17.406 16.8272 17.4255 16.9167 17.4255L16.9085 17.4173C17.0807 17.4173 17.2448 17.3517 17.3761 17.2205C17.5028 17.0976 17.5665 16.9366 17.5697 16.7742C17.5717 16.7537 17.5727 16.733 17.5727 16.7121V14.3577C17.5727 13.9968 17.2774 13.7014 16.9164 13.7014C16.5554 13.7014 16.2601 13.9968 16.2601 14.3577V15.1929Z" class="icon-base"></path>
</svg>
