<svg viewBox="0 0 24 24" fill="currentColor" xmlns="http://www.w3.org/2000/svg" focusable="false">
  <title>Mortgage Questions Icon</title>
  <path d="M5.98486 20.5174V10.1693C5.98486 9.72213 6.19224 9.3002 6.5463 9.02702L13.3937 3.74381C13.9152 3.34142 14.6431 3.34335 15.1625 3.74849L22.0999 9.15993C22.3428 9.34942 22.4849 9.64032 22.4849 9.94842V20.5174C22.4849 21.3142 21.8389 21.9602 21.0421 21.9602H7.42767C6.63083 21.9602 5.98486 21.3142 5.98486 20.5174Z" fill="transparent" class="icon-offset"></path>
  <path fill-rule="evenodd" clip-rule="evenodd" d="M21.8383 10.4279C21.6989 10.4279 21.5512 10.3787 21.4363 10.2885L20.8535 9.8295V19.6653C20.8535 20.9532 19.8445 21.9623 18.5566 21.9623H5.43104C4.1431 21.9623 3.13408 20.9532 3.13408 19.6653V9.83326L2.56021 10.2885C2.27309 10.51 1.86291 10.4689 1.64142 10.1818C1.41993 9.8947 1.46094 9.48452 1.74807 9.26303L9.95151 2.75769C11.1164 1.79789 12.8227 1.79789 14.004 2.75769L17.5149 5.52445V4.30025C17.5149 3.9393 17.8102 3.64397 18.1711 3.64397C18.5321 3.64397 18.8274 3.9393 18.8274 4.30025V6.55882L22.2485 9.25483C22.5356 9.47632 22.5848 9.8947 22.3551 10.1736C22.2239 10.3377 22.0352 10.4197 21.8383 10.4197V10.4279ZM13.1755 3.78313L19.541 8.79588V19.6653C19.541 20.2395 19.1308 20.6497 18.5566 20.6497H5.43104C4.8568 20.6497 4.44663 20.2395 4.44663 19.6653V8.79214L10.7719 3.77492C11.4609 3.20068 12.47 3.20068 13.1755 3.78313ZM11.9531 16.4412C12.314 16.4412 12.6094 16.7365 12.6094 17.0975V17.1221C12.6094 17.483 12.314 17.7783 11.9531 17.7783C11.5921 17.7783 11.2968 17.483 11.2968 17.1221V17.0975C11.2968 16.7365 11.5921 16.4412 11.9531 16.4412ZM11.2966 15.0958C11.3048 15.4568 11.592 15.7439 11.9529 15.7439L11.9611 15.7357H11.9693C12.3303 15.7275 12.6174 15.4322 12.6174 15.0712C12.6174 14.8333 12.7979 14.6856 13.3147 14.3985L13.4295 14.3329C14.2991 13.8571 14.7749 13.086 14.7749 12.1672C14.7749 10.7234 13.6018 9.55029 12.158 9.55029C10.7142 9.55029 9.54109 10.7234 9.54109 12.1672C9.54109 12.5281 9.83642 12.8235 10.1974 12.8235C10.5583 12.8235 10.8536 12.5281 10.8536 12.1672C10.8536 11.4453 11.4361 10.8628 12.158 10.8628C12.8799 10.8628 13.4623 11.4453 13.4623 12.1672C13.4623 12.602 13.2408 12.9383 12.7815 13.1926L12.6666 13.2582C12.1498 13.5454 11.2802 14.0294 11.2966 15.0958Z" class="icon-base"></path>
</svg>
