<svg viewBox="0 0 24 24" fill="currentColor" xmlns="http://www.w3.org/2000/svg" focusable="false">
  <title>Mortgage Reviews Icon</title>
  <path d="M5.98486 20.5174V10.1693C5.98486 9.72213 6.19224 9.3002 6.5463 9.02702L13.3937 3.74381C13.9152 3.34142 14.6431 3.34335 15.1625 3.74849L22.0999 9.15993C22.3428 9.34942 22.4849 9.64032 22.4849 9.94842V20.5174C22.4849 21.3142 21.8389 21.9602 21.0421 21.9602H7.42767C6.63083 21.9602 5.98486 21.3142 5.98486 20.5174Z" fill="transparent" class="icon-offset"></path>
  <path fill-rule="evenodd" clip-rule="evenodd" d="M21.4363 10.2885C21.5512 10.3787 21.6989 10.4279 21.8383 10.4279V10.4197C22.0352 10.4197 22.2239 10.3377 22.3551 10.1736C22.5848 9.89469 22.5356 9.47632 22.2485 9.25483L18.8277 6.55905V4.30009C18.8277 3.93913 18.5324 3.64381 18.1714 3.64381C17.8105 3.64381 17.5152 3.93913 17.5152 4.30009V5.52468L14.004 2.75769C12.8227 1.79789 11.1164 1.79789 9.95151 2.75769L1.74807 9.26303C1.46094 9.48452 1.41993 9.89469 1.64142 10.1818C1.86291 10.4689 2.27309 10.51 2.56021 10.2885L3.13487 9.83263V19.6656C3.13487 20.9535 4.1439 21.9626 5.43184 21.9626H18.5574C19.8453 21.9626 20.8543 20.9535 20.8543 19.6656V9.83012L21.4363 10.2885ZM19.5418 8.79651L13.1755 3.78313C12.47 3.20068 11.4609 3.20068 10.7719 3.77492L4.44742 8.79151V19.6656C4.44742 20.2398 4.8576 20.65 5.43184 20.65H18.5574C19.1316 20.65 19.5418 20.2398 19.5418 19.6656V8.79651ZM9.1228 17.7292C9.33609 17.9343 9.61501 18.0491 9.89393 18.0491L9.88572 18.0655C10.0006 18.0655 10.1072 18.0409 10.2221 18.0081C10.2549 17.9999 10.3205 17.9671 10.3205 17.9671L12.0104 17.0729L13.6019 17.8933C13.8316 18.0491 14.0859 18.0491 14.1761 18.0491C14.6847 18.0491 15.1031 17.6061 15.1031 17.0647C15.1031 17.0237 15.0949 16.9417 15.0949 16.9417L14.7504 15.1205L16.0711 13.7997C16.2434 13.6603 16.3664 13.4552 16.4075 13.2173C16.4567 12.922 16.3664 12.6348 16.1696 12.438C16.0875 12.3559 15.8824 12.1508 15.5379 12.1344L13.6921 11.8883L12.8964 10.2887C12.8308 9.99334 12.5929 9.79645 12.1499 9.68981C12.1007 9.6734 12.0514 9.6734 11.994 9.6734H11.7725C11.6002 9.6734 11.3788 9.79645 11.2557 9.91951L11.1491 10.0262C11.0998 10.0754 11.0588 10.1328 11.026 10.1984L10.181 11.8883L8.35168 12.1344C8.23683 12.1508 8.13019 12.1919 8.03995 12.2657C7.98252 12.2903 7.90049 12.3395 7.81025 12.4298C7.63798 12.602 7.53954 12.8563 7.53954 13.1106C7.53954 13.365 7.63798 13.6193 7.81845 13.7997L9.18023 15.1123L8.8849 16.9417C8.8767 16.9745 8.8767 17.0155 8.8767 17.0483C8.8767 17.196 8.8767 17.4831 9.1228 17.7292ZM10.5174 15.0221C10.5174 14.6611 10.3943 14.3904 10.1564 14.2263V14.2345L9.22945 13.3403L10.5174 13.1681C10.903 13.1435 11.2147 12.8974 11.3049 12.561L11.9366 11.2977L12.6093 12.6348C12.8144 13.0368 13.1261 13.1435 13.364 13.1599L14.6683 13.3321L13.7167 14.2837C13.5281 14.4724 13.4132 14.7513 13.4132 15.0221C13.4132 15.0631 13.4214 15.1451 13.4214 15.1451L13.6675 16.433L12.4452 15.8014C12.1335 15.6373 11.7807 15.6537 11.5264 15.8342L10.2877 16.4905L10.5092 15.1287C10.5174 15.0959 10.5174 15.0549 10.5174 15.0221Z" class="icon-base"></path>
</svg>
