<svg viewBox="0 0 24 24" fill="currentColor" xmlns="http://www.w3.org/2000/svg" focusable="false">
  <title>Mortgage Search Icon</title>
  <path d="M5.98486 20.5174V10.1693C5.98486 9.72213 6.19224 9.3002 6.5463 9.02702L13.3937 3.74381C13.9152 3.34142 14.6431 3.34335 15.1625 3.74849L22.0999 9.15993C22.3428 9.34942 22.4849 9.64032 22.4849 9.94842V20.5174C22.4849 21.3142 21.8389 21.9602 21.0421 21.9602H7.42767C6.63083 21.9602 5.98486 21.3142 5.98486 20.5174Z" fill="transparent" class="icon-offset"></path>
  <path fill-rule="evenodd" clip-rule="evenodd" d="M21.8383 10.4279C21.6989 10.4279 21.5512 10.3787 21.4363 10.2885L20.8535 9.8295V19.6653C20.8535 20.9532 19.8445 21.9623 18.5566 21.9623H5.43104C4.1431 21.9623 3.13408 20.9532 3.13408 19.6653V9.83326L2.56021 10.2885C2.27309 10.51 1.86291 10.4689 1.64142 10.1818C1.41993 9.8947 1.46094 9.48452 1.74807 9.26303L9.95151 2.75769C11.1164 1.79789 12.8227 1.79789 14.004 2.75769L17.5149 5.52445V4.30025C17.5149 3.9393 17.8102 3.64397 18.1711 3.64397C18.5321 3.64397 18.8274 3.9393 18.8274 4.30025V6.55882L22.2485 9.25483C22.5356 9.47632 22.5848 9.8947 22.3551 10.1736C22.2239 10.3377 22.0352 10.4197 21.8383 10.4197V10.4279ZM13.1755 3.78313L19.541 8.79588V19.6653C19.541 20.2395 19.1308 20.6497 18.5566 20.6497H5.43104C4.8568 20.6497 4.44663 20.2395 4.44663 19.6653V8.79214L10.7719 3.77492C11.4609 3.20068 12.47 3.20068 13.1755 3.78313ZM11.5834 17.3273C10.5908 17.3273 9.60638 16.9499 8.85167 16.1952C7.34223 14.6858 7.34223 12.2329 8.85167 10.7317C10.3611 9.22227 12.8139 9.22227 14.3152 10.7317C15.6676 12.0842 15.8083 14.1941 14.7371 15.6982L16.0629 17.024C16.3172 17.2783 16.3172 17.6967 16.0629 17.951C15.933 18.081 15.7709 18.1385 15.6005 18.1397C15.4293 18.1389 15.2664 18.0733 15.1359 17.951L13.808 16.6231C13.144 17.0926 12.3663 17.3273 11.5834 17.3273ZM15.6005 18.1397C15.5988 18.1397 15.597 18.1397 15.5953 18.1397H15.6035C15.6025 18.1397 15.6015 18.1397 15.6005 18.1397ZM11.5834 10.9122C10.9271 10.9122 10.2791 11.1583 9.77866 11.6587C8.78604 12.6513 8.78604 14.2756 9.77866 15.2682C10.7713 16.2608 12.3956 16.2608 13.3882 15.2682C14.3808 14.2756 14.3808 12.6513 13.3882 11.6587C12.8878 11.1583 12.2397 10.9122 11.5834 10.9122Z" class="icon-base"></path>
</svg>
