<svg viewBox="0 0 24 24" fill="currentColor" xmlns="http://www.w3.org/2000/svg" focusable="false">
  <title>Mortgage Puchase Icon</title>
  <path d="M5.98486 20.5174V10.1693C5.98486 9.72213 6.19224 9.3002 6.5463 9.02702L13.3937 3.74381C13.9152 3.34142 14.6431 3.34335 15.1625 3.74849L22.0999 9.15993C22.3428 9.34942 22.4849 9.64032 22.4849 9.94842V20.5174C22.4849 21.3142 21.8389 21.9602 21.0421 21.9602H7.42767C6.63083 21.9602 5.98486 21.3142 5.98486 20.5174Z" fill="transparent" class="icon-offset"></path>
  <path fill-rule="evenodd" clip-rule="evenodd" d="M21.4363 10.2885C21.5512 10.3787 21.6989 10.4279 21.8383 10.4279V10.4197C22.0352 10.4197 22.2239 10.3377 22.3551 10.1736C22.5848 9.8947 22.5356 9.47632 22.2485 9.25483L18.8274 6.55882V4.30025C18.8274 3.9393 18.5321 3.64397 18.1711 3.64397C17.8102 3.64397 17.5149 3.9393 17.5149 4.30025V5.52445L14.004 2.75769C12.8227 1.79789 11.1164 1.79789 9.95151 2.75769L1.74807 9.26303C1.46094 9.48452 1.41993 9.8947 1.64142 10.1818C1.86291 10.4689 2.27309 10.51 2.56021 10.2885L3.13408 9.83326V19.6653C3.13408 20.9532 4.1431 21.9623 5.43104 21.9623H18.5566C19.8445 21.9623 20.8535 20.9532 20.8535 19.6653V9.8295L21.4363 10.2885ZM19.541 8.79588L13.1755 3.78313C12.47 3.20068 11.4609 3.20068 10.7719 3.77492L4.44663 8.79214V19.6653C4.44663 20.2395 4.8568 20.6497 5.43104 20.6497H18.5566C19.1308 20.6497 19.541 20.2395 19.541 19.6653V8.79588ZM11.8381 18.131C11.9201 18.172 12.0104 18.1884 12.1006 18.1884V18.1966C12.1991 18.1966 12.2975 18.172 12.3877 18.131C12.5108 18.0736 15.2671 16.7282 16.0629 14.4722C16.0711 14.464 16.0711 14.4558 16.0711 14.4476C16.3418 13.537 16.268 12.5772 15.8496 11.8061C15.505 11.1581 14.9554 10.7151 14.2827 10.5182C13.889 10.3869 13.405 10.3541 12.9292 10.4361C12.6174 10.4854 12.3303 10.6412 12.076 10.7889C11.8217 10.6248 11.5182 10.4854 11.1736 10.4361C10.6978 10.3623 10.2138 10.3869 9.82006 10.5182C9.08995 10.7561 8.4993 11.2729 8.16296 11.9538C7.7938 12.7085 7.74458 13.6273 8.0317 14.4394C8.71259 16.7282 11.7069 18.0736 11.8381 18.131ZM10.2302 11.7569C10.3451 11.7159 10.4845 11.6995 10.6322 11.6995V11.6913C10.7388 11.6913 10.8537 11.7077 10.9685 11.7241C11.2064 11.7569 11.4525 11.9292 11.633 12.0768C11.8463 12.2491 12.1416 12.2655 12.3795 12.1261L12.5518 12.0194C12.7241 11.9046 12.9948 11.7405 13.1342 11.7159C13.405 11.6749 13.6675 11.6831 13.8808 11.7569C14.2335 11.8553 14.5042 12.0768 14.6847 12.4132C14.9308 12.8644 14.98 13.4714 14.8078 14.0375C14.3155 15.4156 12.7241 16.4247 12.0842 16.7856C11.4033 16.4329 9.6806 15.4156 9.27043 14.0293C9.09815 13.5206 9.11456 12.971 9.33605 12.528C9.51653 12.1589 9.82826 11.8882 10.2302 11.7569Z" class="icon-base"></path>
</svg>
