<svg viewBox="0 0 24 24" fill="currentColor" xmlns="http://www.w3.org/2000/svg" focusable="false">
  <title>Mortgage Percent Icon</title>
  <path d="M5.98486 20.5174V10.1693C5.98486 9.72213 6.19224 9.3002 6.5463 9.02702L13.3937 3.74381C13.9152 3.34142 14.6431 3.34335 15.1625 3.74849L22.0999 9.15993C22.3428 9.34942 22.4849 9.64032 22.4849 9.94842V20.5174C22.4849 21.3142 21.8389 21.9602 21.0421 21.9602H7.42767C6.63083 21.9602 5.98486 21.3142 5.98486 20.5174Z" fill="transparent" class="icon-offset"></path>
  <path fill-rule="evenodd" clip-rule="evenodd" d="M21.4363 10.2885C21.5512 10.3787 21.6989 10.4279 21.8383 10.4279V10.4197C22.0352 10.4197 22.2239 10.3377 22.3551 10.1736C22.5848 9.8947 22.5356 9.47632 22.2485 9.25483L18.8274 6.55882V4.30025C18.8274 3.9393 18.5321 3.64397 18.1711 3.64397C17.8102 3.64397 17.5149 3.9393 17.5149 4.30025V5.52445L14.004 2.75769C12.8227 1.79789 11.1164 1.79789 9.95151 2.75769L1.74807 9.26303C1.46094 9.48452 1.41993 9.8947 1.64142 10.1818C1.86291 10.4689 2.27309 10.51 2.56021 10.2885L3.13408 9.83326V19.6653C3.13408 20.9532 4.1431 21.9623 5.43104 21.9623H18.5566C19.8445 21.9623 20.8535 20.9532 20.8535 19.6653V9.8295L21.4363 10.2885ZM19.541 8.79588L13.1755 3.78313C12.47 3.20068 11.4609 3.20068 10.7719 3.77492L4.44663 8.79214V19.6653C4.44663 20.2395 4.8568 20.6497 5.43104 20.6497H18.5566C19.1308 20.6497 19.541 20.2395 19.541 19.6653V8.79588ZM9.52846 17.3684L9.53233 17.3685H9.52412L9.52846 17.3684ZM9.99172 17.1798C9.86157 17.3099 9.69915 17.3675 9.52846 17.3684C9.36555 17.3674 9.19495 17.3019 9.06473 17.1798C8.81042 16.9255 8.81042 16.5071 9.06473 16.2528L13.9868 11.3307C14.2411 11.0764 14.6595 11.0764 14.9138 11.3307C15.1681 11.585 15.1681 12.0034 14.9138 12.2577L9.99172 17.1798ZM9.53252 12.7251H9.47509C8.98289 12.7251 8.5481 12.2903 8.5481 11.7981C8.5481 11.3059 8.98289 10.8711 9.47509 10.8711H9.53252C10.0247 10.8711 10.4595 11.3059 10.4595 11.7981C10.4595 12.2903 10.0739 12.7251 9.53252 12.7251ZM14.4554 17.6965H14.5128C15.0542 17.6965 15.4398 17.2617 15.4398 16.7695C15.4398 16.2773 14.9476 15.8426 14.4554 15.8426C13.9631 15.8426 13.5284 16.2199 13.5284 16.7695C13.5284 17.2617 13.9057 17.6965 14.4554 17.6965Z" class="icon-base"></path>
</svg>
