<svg viewBox="0 0 24 24" fill="currentColor" xmlns="http://www.w3.org/2000/svg" focusable="false">
  <title>Mortgage Market Icon</title>
  <path d="M22.1812 19.5361H9.05615C8.69521 19.5361 8.3999 19.2408 8.3999 18.8799V9.03613C8.3999 8.6752 8.69521 8.37988 9.05615 8.37988H22.1812C22.5421 8.37988 22.8374 8.6752 22.8374 9.03613V18.8799C22.8374 19.2408 22.5421 19.5361 22.1812 19.5361Z" fill="transparent" class="icon-offset"></path>
  <path fill-rule="evenodd" clip-rule="evenodd" d="M4.01801 22.5002C3.65707 22.5002 3.36176 22.2049 3.36176 21.844V4.888H2.15625C1.79531 4.888 1.5 4.59269 1.5 4.23175C1.5 3.87081 1.79531 3.5755 2.15625 3.5755H3.36176V2.15649C3.36176 1.79556 3.65707 1.50024 4.01801 1.50024C4.37895 1.50024 4.67426 1.79556 4.67426 2.15649V3.5755H21.8438C22.2047 3.5755 22.5 3.87081 22.5 4.23175C22.5 4.59269 22.2047 4.888 21.8438 4.888H4.67426V21.844C4.67426 22.2049 4.37895 22.5002 4.01801 22.5002ZM6.74981 17.4716H19.8748C20.2358 17.4716 20.5311 17.1763 20.5311 16.8153V6.97159C20.5311 6.61065 20.2358 6.31534 19.8748 6.31534H6.74981C6.38888 6.31534 6.09356 6.61065 6.09356 6.97159V16.8153C6.09356 17.1763 6.38888 17.4716 6.74981 17.4716ZM19.2186 16.1591H7.40606V7.62784H19.2186V16.1591Z" class="icon-base"></path>
</svg>
