<svg viewBox="0 0 24 24" fill="currentColor" xmlns="http://www.w3.org/2000/svg" focusable="false">
  <title>Mortgage 30 Year Icon</title>
  <path d="M5.98486 20.5174V10.1693C5.98486 9.72213 6.19224 9.3002 6.5463 9.02702L13.3937 3.74381C13.9152 3.34142 14.6431 3.34335 15.1625 3.74849L22.0999 9.15993C22.3428 9.34942 22.4849 9.64032 22.4849 9.94842V20.5174C22.4849 21.3142 21.8389 21.9602 21.0421 21.9602H7.42767C6.63083 21.9602 5.98486 21.3142 5.98486 20.5174Z" fill="transparent" class="icon-offset"></path>
  <path fill-rule="evenodd" clip-rule="evenodd" d="M21.8383 10.4279C21.6989 10.4279 21.5512 10.3787 21.4363 10.2885L20.8535 9.8295V19.6653C20.8535 20.9532 19.8445 21.9623 18.5566 21.9623H5.43104C4.1431 21.9623 3.13408 20.9532 3.13408 19.6653V9.83326L2.56021 10.2885C2.27309 10.51 1.86291 10.4689 1.64142 10.1818C1.41993 9.8947 1.46094 9.48452 1.74807 9.26303L9.95151 2.75769C11.1164 1.79789 12.8227 1.79789 14.004 2.75769L17.5149 5.52445V4.30025C17.5149 3.9393 17.8102 3.64397 18.1711 3.64397C18.5321 3.64397 18.8274 3.9393 18.8274 4.30025V6.55882L22.2485 9.25483C22.5356 9.47632 22.5848 9.8947 22.3551 10.1736C22.2239 10.3377 22.0352 10.4197 21.8383 10.4197V10.4279ZM13.1755 3.78313L19.541 8.79588V19.6653C19.541 20.2395 19.1308 20.6497 18.5566 20.6497H5.43104C4.8568 20.6497 4.44663 20.2395 4.44663 19.6653V8.79214L10.7719 3.77492C11.4609 3.20068 12.47 3.20068 13.1755 3.78313ZM9.31157 17.0399C8.1877 17.0399 7.2361 16.0883 7.2361 14.9645C7.2361 14.6035 7.53142 14.3082 7.89237 14.3082C8.25333 14.3082 8.54865 14.6035 8.54865 14.9645C8.54865 15.3664 8.9178 15.7274 9.31157 15.7274C9.70534 15.7274 10.0745 15.3582 10.0745 14.9645C10.0745 14.5707 9.70534 14.2016 9.31157 14.2016C8.95062 14.2016 8.65529 13.9062 8.65529 13.5453C8.65529 13.1843 8.95062 12.889 9.31157 12.889C9.71354 12.889 10.0745 12.528 10.0745 12.1261C10.0745 11.7241 9.70534 11.3632 9.31157 11.3632C8.9178 11.3632 8.54865 11.7323 8.54865 12.1261C8.54865 12.487 8.25333 12.7824 7.89237 12.7824C7.53142 12.7824 7.2361 12.487 7.2361 12.1261C7.2361 11.0022 8.1877 10.0506 9.31157 10.0506C10.4354 10.0506 11.387 11.0022 11.387 12.1261C11.387 12.6675 11.1656 13.1761 10.8128 13.5453C11.1656 13.9226 11.387 14.423 11.387 14.9645C11.387 16.0883 10.4354 17.0399 9.31157 17.0399ZM12.2148 14.6939C12.2148 15.9572 13.2485 16.9908 14.5118 16.9908C15.7751 16.9908 16.8088 15.9572 16.8088 14.6939V12.3969C16.8088 11.1336 15.7751 10.1 14.5118 10.1C13.2485 10.1 12.2148 11.1336 12.2148 12.3969V14.6939ZM13.5274 12.3969C13.5274 11.8555 13.9704 11.4125 14.5118 11.4125C15.0532 11.4125 15.4962 11.8555 15.4962 12.3969V14.6939C15.4962 15.2353 15.0532 15.6783 14.5118 15.6783C13.9704 15.6783 13.5274 15.2353 13.5274 14.6939V12.3969Z" class="icon-base"></path>
</svg>
