<svg viewBox="0 0 24 24" fill="currentColor" xmlns="http://www.w3.org/2000/svg" focusable="false">
  <title>Mortgage Icon</title>
  <path d="M5.98486 20.5174V10.1693C5.98486 9.72213 6.19224 9.3002 6.5463 9.02702L13.3937 3.74381C13.9152 3.34142 14.6431 3.34335 15.1625 3.74849L22.0999 9.15993C22.3428 9.34942 22.4849 9.64032 22.4849 9.94842V20.5174C22.4849 21.3142 21.8389 21.9602 21.0421 21.9602H7.42767C6.63083 21.9602 5.98486 21.3142 5.98486 20.5174Z" fill="transparent" class="icon-offset"></path>
  <path fill-rule="evenodd" clip-rule="evenodd" d="M21.4363 10.2882C21.5512 10.3785 21.6989 10.4277 21.8383 10.4277V10.4195C22.0352 10.4195 22.2239 10.3374 22.3551 10.1734C22.5848 9.89445 22.5356 9.47607 22.2485 9.25458L18.8277 6.55879V4.29971C18.8277 3.93876 18.5324 3.64343 18.1714 3.64343C17.8105 3.64343 17.5151 3.93876 17.5151 4.29971V5.52443L14.004 2.75745C12.8227 1.79765 11.1164 1.79765 9.95151 2.75745L1.74807 9.26278C1.46094 9.48428 1.41993 9.89445 1.64142 10.1816C1.86291 10.4687 2.27309 10.5097 2.56021 10.2882L3.13495 9.83233V19.6653C3.13495 20.9532 4.14397 21.9622 5.43191 21.9622H18.5574C19.8454 21.9622 20.8544 20.9532 20.8544 19.6653V9.82994L21.4363 10.2882ZM19.5418 8.79632L13.1755 3.78288C12.47 3.20044 11.4609 3.20044 10.7719 3.77468L4.4475 8.7912V19.6653C4.4475 20.2395 4.85767 20.6497 5.43191 20.6497H8.75372V17.2616C8.75372 16.3182 8.75372 15.7931 8.98342 15.3255C9.21312 14.8744 9.58227 14.497 10.0417 14.2673C10.5093 14.0376 11.0261 14.0376 11.9777 14.0376C12.9293 14.0376 13.4461 14.0376 13.9137 14.2673C14.3731 14.497 14.7422 14.8744 14.9719 15.3255C15.2016 15.7931 15.2016 16.31 15.2016 17.2616V20.6497H18.5574C19.1317 20.6497 19.5418 20.2395 19.5418 19.6653V8.79632ZM13.9055 20.6497V17.2616C13.9055 16.5396 13.9055 16.1049 13.807 15.9162C13.7086 15.7193 13.5363 15.547 13.3312 15.4404C13.1426 15.3419 12.7078 15.3419 11.9859 15.3419C11.264 15.3419 10.8292 15.3419 10.6405 15.4404C10.4436 15.5388 10.2714 15.7111 10.1647 15.9162C10.0663 16.1049 10.0663 16.5396 10.0663 17.2616V20.6497H13.9055Z" class="icon-base"></path>
</svg>
