<svg viewBox="0 0 24 24" fill="currentColor" xmlns="http://www.w3.org/2000/svg" focusable="false">
  <title>Mortgage Calculator Icon</title>
  <path d="M5.98486 20.5174V10.1693C5.98486 9.72213 6.19224 9.3002 6.5463 9.02702L13.3937 3.74381C13.9152 3.34142 14.6431 3.34335 15.1625 3.74849L22.0999 9.15993C22.3428 9.34942 22.4849 9.64032 22.4849 9.94842V20.5174C22.4849 21.3142 21.8389 21.9602 21.0421 21.9602H7.42767C6.63083 21.9602 5.98486 21.3142 5.98486 20.5174Z" fill="transparent" class="icon-offset"></path>
  <path fill-rule="evenodd" clip-rule="evenodd" d="M21.4363 10.2885C21.5512 10.3787 21.6989 10.4279 21.8383 10.4279V10.4197C22.0352 10.4197 22.2239 10.3377 22.3551 10.1736C22.5848 9.8947 22.5356 9.47632 22.2485 9.25483L18.8274 6.55882V4.30025C18.8274 3.9393 18.5321 3.64398 18.1711 3.64398C17.8102 3.64398 17.5149 3.9393 17.5149 4.30025V5.52445L14.004 2.75769C12.8227 1.79789 11.1164 1.79789 9.95151 2.75769L1.74807 9.26303C1.46094 9.48452 1.41993 9.8947 1.64142 10.1818C1.86291 10.4689 2.27309 10.51 2.56021 10.2885L3.13408 9.83326V19.6649C3.13408 20.9529 4.1431 21.9619 5.43104 21.9619H11.9744L11.9936 21.9622L12.0129 21.9619H18.5566C19.8445 21.9619 20.8535 20.9529 20.8535 19.6649V9.8295L21.4363 10.2885ZM12.6499 14.2018V20.6493H18.5566C19.1308 20.6493 19.541 20.2392 19.541 19.6649V14.2018H12.6499ZM11.3374 14.2018V20.6493H5.43104C4.8568 20.6493 4.44663 20.2392 4.44663 19.6649V14.2018H11.3374ZM12.6499 12.8892V5.94083C12.6499 5.57988 12.3546 5.28456 11.9936 5.28456C11.6327 5.28456 11.3374 5.57988 11.3374 5.94083V12.8892H4.44663V8.79214L10.7719 3.77492C11.4609 3.20068 12.47 3.20068 13.1755 3.78313L19.541 8.79588V12.8892H12.6499ZM14.5702 10.3706H17.6301C17.991 10.3706 18.2864 10.0752 18.2864 9.71428C18.2864 9.35333 17.991 9.058 17.6301 9.058H14.5702C14.2093 9.058 13.9139 9.35333 13.9139 9.71428C13.9139 10.0752 14.2093 10.3706 14.5702 10.3706ZM7.83518 11.9048C7.47423 11.9048 7.17891 11.6095 7.17891 11.2485V10.3707H6.30114C5.94019 10.3707 5.64486 10.0754 5.64486 9.71447C5.64486 9.35351 5.94019 9.05819 6.30114 9.05819H7.17891V8.18042C7.17891 7.81947 7.47423 7.52415 7.83518 7.52415C8.19614 7.52415 8.49146 7.81947 8.49146 8.18042V9.05819H9.36923C9.73018 9.05819 10.0255 9.35351 10.0255 9.71447C10.0255 10.0754 9.73018 10.3707 9.36923 10.3707H8.49146V11.2485C8.49146 11.6095 8.19614 11.9048 7.83518 11.9048ZM8.97925 19.1235L8.98312 19.1235H8.97492L8.97925 19.1235ZM9.44251 18.9349C9.31236 19.065 9.14994 19.1226 8.97925 19.1235C8.81635 19.1225 8.64575 19.0569 8.51552 18.9349L7.88386 18.3032L7.25219 18.9349C6.99789 19.1892 6.57951 19.1892 6.3252 18.9349C6.0709 18.6806 6.0709 18.2622 6.3252 18.0079L6.95687 17.3762L6.3252 16.7445C6.0709 16.4902 6.0709 16.0719 6.3252 15.8176C6.57951 15.5632 6.99789 15.5632 7.25219 15.8176L7.88386 16.4492L8.51552 15.8176C8.76983 15.5632 9.18821 15.5632 9.44251 15.8176C9.69682 16.0719 9.69682 16.4902 9.44251 16.7445L8.81085 17.3762L9.44251 18.0079C9.69682 18.2622 9.69682 18.6806 9.44251 18.9349ZM17.7372 16.9336H14.6773C14.3164 16.9336 14.021 16.6383 14.021 16.2774C14.021 15.9164 14.3164 15.6211 14.6773 15.6211H17.7372C18.0982 15.6211 18.3935 15.9164 18.3935 16.2774C18.3935 16.6383 18.0982 16.9336 17.7372 16.9336ZM14.6773 19.1239H17.7372C18.0982 19.1239 18.3935 18.8286 18.3935 18.4676C18.3935 18.1067 18.0982 17.8113 17.7372 17.8113H14.6773C14.3164 17.8113 14.021 18.1067 14.021 18.4676C14.021 18.8286 14.3164 19.1239 14.6773 19.1239Z" class="icon-base"></path>
</svg>
