<svg viewBox="0 0 24 24" fill="currentColor" xmlns="http://www.w3.org/2000/svg" focusable="false">
  <title>Mortgage Rates Up Icon</title>
  <path d="M5.98486 20.5174V10.1693C5.98486 9.72213 6.19224 9.3002 6.5463 9.02702L13.3937 3.74381C13.9152 3.34142 14.6431 3.34335 15.1625 3.74849L22.0999 9.15993C22.3428 9.34942 22.4849 9.64032 22.4849 9.94842V20.5174C22.4849 21.3142 21.8389 21.9602 21.0421 21.9602H7.42767C6.63083 21.9602 5.98486 21.3142 5.98486 20.5174Z" fill="transparent" class="icon-offset"></path>
  <path fill-rule="evenodd" clip-rule="evenodd" d="M21.8383 10.4282C21.6989 10.4282 21.5512 10.3789 21.4363 10.2887L20.8536 9.82977V19.6655C20.8536 20.9534 19.8445 21.9624 18.5566 21.9624H5.43107C4.14313 21.9624 3.13411 20.9534 3.13411 19.6655V9.83348L2.56021 10.2887C2.27309 10.5102 1.86291 10.4692 1.64142 10.1821C1.41993 9.89494 1.46094 9.48477 1.74807 9.26327L9.95151 2.75794C11.1164 1.79814 12.8227 1.79814 14.004 2.75794L17.5152 5.52493V4.30034C17.5152 3.93939 17.8105 3.64406 18.1714 3.64406C18.5324 3.64406 18.8277 3.93939 18.8277 4.30034V6.5593L22.2485 9.25507C22.5356 9.47656 22.5848 9.89494 22.3551 10.1739C22.2239 10.3379 22.0352 10.42 21.8383 10.42V10.4282ZM13.1755 3.78337L19.541 8.79615V19.6655C19.541 20.2397 19.1308 20.6499 18.5566 20.6499H5.43107C4.85683 20.6499 4.44666 20.2397 4.44666 19.6655V8.79236L10.7719 3.77517C11.4609 3.20092 12.47 3.20092 13.1755 3.78337ZM7.07186 17.4255C6.89959 17.4255 6.72732 17.3598 6.59607 17.2286C6.34176 16.9661 6.34996 16.5559 6.61247 16.3016L9.72978 13.2909C9.97589 13.053 10.3614 13.0448 10.6158 13.2663L12.6748 15.0547L15.3096 12.4547H14.5127C14.1517 12.4547 13.8564 12.1594 13.8564 11.7984C13.8564 11.4375 14.1517 11.1421 14.5127 11.1421H16.9163C17.2772 11.1421 17.5726 11.4375 17.5726 11.7984V14.202C17.5726 14.563 17.2772 14.8583 16.9163 14.8583C16.5553 14.8583 16.26 14.563 16.26 14.202V13.358L13.167 16.4082C12.9209 16.6461 12.5354 16.6626 12.2729 16.4329L10.2138 14.6445L7.53126 17.2368C7.4 17.3598 7.23593 17.4173 7.07186 17.4173V17.4255Z" class="icon-base"></path>
</svg>
