<svg viewBox="0 0 24 24" fill="currentColor" xmlns="http://www.w3.org/2000/svg" focusable="false">
  <title>No Min Deposit Icon</title>
  <path d="M23.8502 12.6001C23.8502 18.2335 19.2835 22.8001 13.6502 22.8001C8.01689 22.8001 3.4502 18.2335 3.4502 12.6001C3.4502 6.96684 8.01689 2.40015 13.6502 2.40015C19.2835 2.40015 23.8502 6.96684 23.8502 12.6001Z" fill="transparent" class="icon-offset"></path>
  <path fill-rule="evenodd" clip-rule="evenodd" d="M12 22.5C6.21407 22.5 1.5 17.794 1.5 11.9948C1.5 6.19559 6.21407 1.5 12 1.5C17.7859 1.5 22.448 6.15394 22.5 11.9011V11.9948C22.5 17.7836 17.7859 22.5 12 22.5ZM12 2.89514C6.98414 2.89514 2.90486 6.97645 2.90486 11.9948C2.90486 14.504 3.92468 16.7841 5.56888 18.4291L8.37859 15.618C8.61794 15.3785 9.01338 15.3785 9.26313 15.618C9.50248 15.8575 9.50248 16.2531 9.26313 16.503L6.51586 19.2516C8.04559 20.4177 9.94995 21.1049 12.0104 21.1049C17.0263 21.1049 21.0639 17.0652 21.116 12.0781V11.9948C21.116 9.92291 20.4187 8.00719 19.2428 6.46629L16.2666 9.44398C16.0273 9.68344 15.6318 9.68344 15.3821 9.44398C15.1427 9.20451 15.1427 8.80887 15.3821 8.559L18.4103 5.52925C16.7661 3.89465 14.4975 2.89514 12 2.89514ZM11.3548 14.8892H10.2309C9.92914 14.8892 9.67939 14.6393 9.67939 14.3374C9.67939 14.0354 9.92914 13.7856 10.2309 13.7856H11.8231C11.8231 13.7856 11.8855 13.7856 11.9063 13.7856C11.9272 13.7856 11.9688 13.7856 11.9896 13.7856H12.6452C13.0614 13.7856 13.3945 13.4524 13.3945 13.0359C13.3945 12.6195 13.0614 12.2863 12.6452 12.2863H11.1571C10.1269 12.2863 9.30476 11.4534 9.30476 10.4331C9.30476 9.41274 10.1373 8.57982 11.1571 8.57982H11.3548V8.03842C11.3548 7.73649 11.6046 7.48661 11.9063 7.48661C12.2081 7.48661 12.4579 7.73649 12.4579 8.03842V8.57982H13.5714C13.8731 8.57982 14.1229 8.8297 14.1229 9.13163C14.1229 9.43356 13.8731 9.68344 13.5714 9.68344H11.9896C11.9896 9.68344 11.9272 9.68344 11.9063 9.68344C11.8855 9.68344 11.8439 9.68344 11.8231 9.68344H11.1675C10.7512 9.68344 10.4182 10.0166 10.4182 10.4331C10.4182 10.8495 10.7512 11.1827 11.1675 11.1827H12.6556C13.6858 11.1827 14.5079 12.0156 14.5079 13.0359C14.5079 14.0563 13.6754 14.8892 12.6556 14.8892H12.4683V15.4202C12.4683 15.7221 12.2185 15.972 11.9167 15.972C11.615 15.972 11.3652 15.7221 11.3652 15.4202V14.8892H11.3548Z" class="icon-base"></path>
</svg>
