<svg viewBox="0 0 24 24" fill="currentColor" xmlns="http://www.w3.org/2000/svg" focusable="false">
  <title>Number Three Icon</title>
  <path d="M12.3446 23.5C10.3077 23.5 8.38157 22.733 6.93271 21.3438C5.87589 20.3381 5.8418 18.6591 6.84748 17.6023C7.33327 17.0909 7.99805 16.8011 8.69691 16.7841C9.41282 16.7415 10.0776 17.0312 10.5804 17.517C11.0407 17.9602 11.6713 18.2074 12.3361 18.2074C13.8276 18.2074 14.7566 17.0653 14.7566 16.0085C14.7566 14.9517 13.8361 13.8097 12.3361 13.8097C11.3134 13.8097 10.3674 13.2131 9.94123 12.2756C9.50657 11.3466 9.65998 10.2386 10.3162 9.45455L11.7225 7.78409H8.57759C7.12021 7.78409 5.93555 6.59943 5.93555 5.14205C5.93555 3.68466 7.12021 2.5 8.57759 2.5H17.4157C18.4384 2.5 19.3844 3.09659 19.8191 4.03409C20.2537 4.96307 20.1003 6.07102 19.4441 6.85511L16.8446 9.93182C18.839 11.3295 20.0492 13.5881 20.0492 16.0085C20.0492 20.142 16.589 23.5 12.3446 23.5Z" fill="transparent" class="icon-offset"></path>
  <path d="M11.3446 22.5C9.3077 22.5 7.38157 21.733 5.93271 20.3438C4.87589 19.3381 4.8418 17.6591 5.84748 16.6023C6.33327 16.0909 6.99805 15.8011 7.69691 15.7841C8.41282 15.7415 9.07759 16.0312 9.58043 16.517C10.0407 16.9602 10.6713 17.2074 11.3361 17.2074C12.8276 17.2074 13.7566 16.0653 13.7566 15.0085C13.7566 13.9517 12.8361 12.8097 11.3361 12.8097C10.3134 12.8097 9.36736 12.2131 8.94123 11.2756C8.50657 10.3466 8.65998 9.23864 9.31623 8.45455L10.7225 6.78409H7.57759C6.12021 6.78409 4.93555 5.59943 4.93555 4.14205C4.93555 2.68466 6.12021 1.5 7.57759 1.5H16.4157C17.4384 1.5 18.3844 2.09659 18.8191 3.03409C19.2537 3.96307 19.1003 5.07102 18.4441 5.85511L15.8446 8.93182C17.839 10.3295 19.0492 12.5881 19.0492 15.0085C19.0492 19.142 15.589 22.5 11.3446 22.5ZM7.75657 17.1477C7.75657 17.1477 7.73952 17.1477 7.731 17.1477C7.39009 17.1477 7.06623 17.2926 6.83611 17.5398C6.35032 18.0511 6.36736 18.8608 6.87873 19.3551C8.08043 20.4972 9.66566 21.1278 11.3532 21.1278C14.8475 21.1278 17.6941 18.3835 17.6941 15C17.6941 12.7756 16.5009 10.7813 14.4895 9.68182C14.3105 9.57955 14.1827 9.40909 14.1486 9.20455C14.1145 9 14.1657 8.79545 14.302 8.64205L17.4043 4.96023C17.7282 4.5767 17.7963 4.03977 17.5833 3.59659C17.3702 3.14489 16.9185 2.85511 16.4242 2.85511H7.58611C6.87873 2.85511 6.30771 3.42614 6.30771 4.13352C6.30771 4.84091 6.87873 5.41193 7.58611 5.41193H12.1969C12.4611 5.41193 12.6997 5.56534 12.8191 5.80398C12.9299 6.04261 12.8958 6.33239 12.7253 6.52841L10.373 9.31534C10.0492 9.69886 9.981 10.2358 10.1941 10.679C10.4071 11.1307 10.8588 11.4205 11.3532 11.4205C13.4412 11.4205 15.1373 13.0227 15.1373 14.983C15.1373 16.9432 13.4412 18.5455 11.3532 18.5455C10.3304 18.5455 9.37589 18.1705 8.65146 17.4801C8.41282 17.25 8.09748 17.1222 7.76509 17.1222L7.75657 17.1477Z" class="icon-base"></path>
</svg>
