<svg viewBox="0 0 24 24" fill="currentColor" xmlns="http://www.w3.org/2000/svg" focusable="false">
  <title>Number Two Icon</title>
  <path d="M17.2102 23.5H8.78973C7.73291 23.5 6.77836 22.8778 6.36075 21.9062C5.94314 20.9347 6.13916 19.8182 6.85507 19.0426L10.1619 15.5142C10.5113 15.1477 10.8608 14.7813 11.2017 14.4318C12.3522 13.2386 13.4431 12.1136 14.0909 10.9972C14.3977 10.4688 14.5596 10.0597 14.5596 9.3608C14.5596 8.5 13.8522 7.79261 12.9914 7.79261C12.1306 7.79261 11.4233 8.49148 11.4233 9.3608C11.4233 10.8182 10.2386 12.0028 8.78121 12.0028C7.32382 12.0028 6.13916 10.8182 6.13916 9.3608C6.13916 5.5767 9.21587 2.5 13 2.5C16.784 2.5 19.8608 5.5767 19.8608 9.3608C19.8608 10.9205 19.4943 12.25 18.6676 13.6648C17.6875 15.3352 16.1704 16.9205 14.9176 18.2074H17.2102C18.6676 18.2074 19.8522 19.392 19.8522 20.8494C19.8522 22.3068 18.6676 23.4915 17.2102 23.4915V23.5Z" fill="transparent" class="icon-offset"></path>
  <path d="M16.2102 22.5H7.78973C6.73291 22.5 5.77836 21.8778 5.36075 20.9062C4.94314 19.9347 5.13916 18.8182 5.85507 18.0426L9.16189 14.5142C9.51132 14.1477 9.86075 13.7813 10.2017 13.4318C11.3522 12.2386 12.4431 11.1136 13.0909 9.99716C13.3977 9.46875 13.5596 9.05966 13.5596 8.3608C13.5596 7.5 12.8522 6.79261 11.9914 6.79261C11.1306 6.79261 10.4233 7.49148 10.4233 8.3608C10.4233 9.81818 9.23859 11.0028 7.78121 11.0028C6.32382 11.0028 5.13916 9.81818 5.13916 8.3608C5.13916 4.5767 8.21586 1.5 12 1.5C15.784 1.5 18.8608 4.5767 18.8608 8.3608C18.8608 9.92045 18.4943 11.25 17.6676 12.6648C16.6875 14.3352 15.1704 15.9205 13.9176 17.2074H16.2102C17.6676 17.2074 18.8522 18.392 18.8522 19.8494C18.8522 21.3068 17.6676 22.4915 16.2102 22.4915V22.5ZM12 5.42898C13.6193 5.42898 14.9318 6.74148 14.9318 8.3608C14.9318 9.34943 14.6676 10.0057 14.2755 10.6875C13.5426 11.9489 12.4005 13.1335 11.1903 14.3864C10.8494 14.7358 10.5085 15.0938 10.1676 15.4602L6.86075 18.9886C6.51132 19.3636 6.41757 19.9091 6.62211 20.3778C6.82666 20.8466 7.28689 21.1534 7.79825 21.1534H16.2187C16.9261 21.1534 17.4971 20.5824 17.4971 19.875C17.4971 19.1676 16.9261 18.5966 16.2187 18.5966H12.3238C12.0511 18.5966 11.8039 18.4347 11.7017 18.1875C11.5909 17.9403 11.642 17.6506 11.8295 17.446L12.0426 17.2244C12.2812 16.9687 12.5539 16.6875 12.8522 16.3807C14.071 15.1278 15.5795 13.5682 16.5 11.9915C17.2073 10.7813 17.5056 9.69886 17.5056 8.37784C17.5056 5.35227 15.0426 2.88068 12.0085 2.88068C8.97439 2.88068 6.51132 5.34375 6.51132 8.37784C6.51132 9.08523 7.08234 9.65625 7.78973 9.65625C8.49712 9.65625 9.06814 9.08523 9.06814 8.37784C9.06814 6.75852 10.3806 5.44602 12 5.44602V5.42898Z" class="icon-base"></path>
</svg>
