<svg viewBox="0 0 24 24" fill="currentColor" xmlns="http://www.w3.org/2000/svg" focusable="false">
  <title>Number One Icon</title>
  <path d="M15.6898 23.4954H10.7789C9.32098 23.4954 8.13588 22.3103 8.13588 20.8523C8.13588 19.3944 9.21867 18.3116 10.5913 18.2093V7.78215H10.2929C8.835 7.78215 7.6499 6.59705 7.6499 5.13912C7.6499 3.68119 8.835 2.49609 10.2929 2.49609H13.2429C13.9505 2.49609 14.6156 2.76892 15.1186 3.27195C15.6131 3.77498 15.8944 4.43147 15.8944 5.13912V18.2178C17.2671 18.3202 18.3499 19.4626 18.3499 20.8609C18.3499 22.2591 17.1648 23.5039 15.7069 23.5039L15.6898 23.4954Z" fill="transparent" class="icon-offset"></path>
  <path d="M14.6888 22.4915H9.7797C8.32231 22.4915 7.13765 21.3068 7.13765 19.8494C7.13765 18.392 8.22004 17.3097 9.5922 17.2074V6.78409H9.2939C7.83651 6.78409 6.65186 5.59943 6.65186 4.14205C6.65186 2.68466 7.83651 1.5 9.2939 1.5H12.2428C12.9502 1.5 13.6149 1.77273 14.1178 2.27557C14.6121 2.77841 14.8933 3.43466 14.8933 4.14205V17.2159C16.2655 17.3182 17.3479 18.4602 17.3479 19.858C17.3479 21.2557 16.1632 22.5 14.7058 22.5L14.6888 22.4915ZM9.7797 18.5625C9.07231 18.5625 8.50129 19.1335 8.50129 19.8409C8.50129 20.5483 9.07231 21.1193 9.7797 21.1193H14.6888C15.3962 21.1193 15.9672 20.5483 15.9672 19.8409C15.9672 19.1335 15.3962 18.5625 14.6888 18.5625H14.1945C13.8195 18.5625 13.5127 18.2557 13.5127 17.8807V4.13352C13.5127 3.79261 13.3763 3.46875 13.1377 3.23011C12.899 2.99148 12.5752 2.85511 12.2342 2.85511H9.28538C8.57799 2.85511 8.00697 3.42614 8.00697 4.13352C8.00697 4.84091 8.57799 5.41193 9.28538 5.41193H10.2655C10.6405 5.41193 10.9473 5.71875 10.9473 6.09375V17.8722C10.9473 18.2472 10.6405 18.554 10.2655 18.554H9.77117L9.7797 18.5625Z" class="icon-base"></path>
</svg>
