<svg viewBox="0 0 24 24" fill="currentColor" xmlns="http://www.w3.org/2000/svg" focusable="false">
  <title>Online Reviews Icon</title>
  <path fill-rule="evenodd" clip-rule="evenodd" d="M22.5498 17.3747V9.47951C22.5498 7.41404 20.8741 5.73828 18.8086 5.73828H9.14376C7.07829 5.73828 5.40253 7.41404 5.40253 9.47951V17.3747H5.19252C4.5378 17.3747 4 17.9047 4 18.5672V19.0895C4 20.8432 5.42634 22.2617 7.17225 22.2617H20.8277C22.5814 22.2617 24 20.8354 24 19.0895V18.5672C24 17.9125 23.47 17.3747 22.8075 17.3747H22.5498Z" fill="transparent" class="icon-offset"></path>
  <path fill-rule="evenodd" clip-rule="evenodd" d="M20.3228 16.8533C20.2306 16.8533 20.1427 16.834 20.063 16.7992L3.69074 16.8502C3.66993 16.8522 3.64883 16.8533 3.62751 16.8533C3.60757 16.8533 3.58784 16.8524 3.56834 16.8506L2.80943 16.853V17.344C2.80943 18.457 3.71785 19.3654 4.83087 19.3654H19.1773C20.2903 19.3654 21.1988 18.457 21.1988 17.344V16.7957L20.5862 16.7976C20.5055 16.8334 20.4164 16.8533 20.3228 16.8533ZM20.9775 7.25349V15.5435H21.2479C21.9435 15.5435 22.5 16.1082 22.5 16.7957V17.344C22.5 19.1772 21.0105 20.6749 19.1691 20.6749H4.83087C2.99766 20.6749 1.5 19.1854 1.5 17.344V16.7957C1.5 16.1 2.06469 15.5435 2.75214 15.5435H2.9728V7.25349C2.9728 5.08474 4.73234 3.3252 6.90109 3.3252H17.0492C19.2179 3.3252 20.9775 5.08474 20.9775 7.25349ZM19.668 15.5435H4.28223V7.25349C4.28223 5.81311 5.46071 4.63463 6.90109 4.63463H17.0492C18.4896 4.63463 19.668 5.81311 19.668 7.25349V15.5435ZM10.1793 13.8741C10.1805 13.8741 10.1818 13.8741 10.1831 13.8741H10.1749C10.1764 13.8741 10.1778 13.8741 10.1793 13.8741ZM9.43834 13.5549C9.65009 13.7585 9.91857 13.873 10.1793 13.8741C10.3168 13.8736 10.4463 13.8489 10.5759 13.7841L11.9917 13.0475L13.4076 13.7841C13.5058 13.8332 13.604 13.8577 13.7104 13.8577H13.874C13.9395 13.8577 14.0132 13.8495 14.0786 13.825C14.496 13.6859 14.7415 13.3421 14.7415 12.8757C14.7415 12.8347 14.7334 12.7529 14.7334 12.7529L14.4469 11.2143L15.5927 10.1177C15.9364 9.77394 16.0019 9.29927 15.7645 8.94736C15.6336 8.70184 15.3635 8.53816 15.0934 8.51361L13.5058 8.27628L12.8265 6.96684C12.8019 6.84408 12.7447 6.72133 12.6464 6.6313C12.4746 6.46762 12.2291 6.39397 12.0081 6.44307H11.9672C11.7871 6.44307 11.6235 6.50854 11.5007 6.6313L11.337 6.79498C11.2961 6.84408 11.2552 6.90137 11.2224 6.95866L10.4859 8.38267L8.91457 8.62C8.79181 8.62818 8.54629 8.65274 8.34169 8.86552C7.97341 9.2338 7.97341 9.80667 8.34988 10.1831L9.48744 11.2716L9.20101 12.8102C9.19282 12.8511 9.19282 12.892 9.19282 12.9329V12.9329C9.19282 13.023 9.19282 13.3094 9.43834 13.5549ZM10.5759 10.4859L9.85572 9.79849L9.84754 9.7903L10.8296 9.64299C11.0424 9.62663 11.3616 9.5366 11.5662 9.12741L12.0245 8.24354L12.4255 9.01283C12.45 9.0783 12.491 9.12741 12.5401 9.17651C12.5487 9.18419 12.5579 9.19255 12.5677 9.20149C12.6418 9.26875 12.7523 9.36904 12.9329 9.46295C12.9984 9.49568 13.0638 9.52023 13.1293 9.52842L14.1523 9.68391L13.3666 10.4368C13.1129 10.6905 13.0393 11.0424 13.1539 11.3289L13.3257 12.2455L12.4991 11.8199C12.2454 11.6481 11.9017 11.6317 11.5744 11.7954L10.6414 12.2782L10.8214 11.2962C10.8296 11.2552 10.8296 11.2143 10.8296 11.1734C10.8296 11.0261 10.8296 10.7396 10.5759 10.4859Z" class="icon-base"></path>
</svg>
