<svg viewBox="0 0 24 24" fill="currentColor" xmlns="http://www.w3.org/2000/svg" focusable="false">
  <title>Online Icon</title>
  <path fill-rule="evenodd" clip-rule="evenodd" d="M22.5498 17.3747V9.47951C22.5498 7.41404 20.8741 5.73828 18.8086 5.73828H9.14376C7.07829 5.73828 5.40253 7.41404 5.40253 9.47951V17.3747H5.19252C4.5378 17.3747 4 17.9047 4 18.5672V19.0895C4 20.8432 5.42634 22.2617 7.17225 22.2617H20.8277C22.5814 22.2617 24 20.8354 24 19.0895V18.5672C24 17.9125 23.47 17.3747 22.8075 17.3747H22.5498Z" fill="transparent" class="icon-offset"></path>
  <path fill-rule="evenodd" clip-rule="evenodd" d="M20.3228 16.8533C20.2306 16.8533 20.1427 16.834 20.063 16.7992L3.69074 16.8502C3.66993 16.8522 3.64883 16.8533 3.62751 16.8533C3.60757 16.8533 3.58784 16.8524 3.56834 16.8506L2.80943 16.853V17.344C2.80943 18.457 3.71785 19.3654 4.83087 19.3654H19.1773C20.2903 19.3654 21.1988 18.457 21.1988 17.344V16.7957L20.5862 16.7976C20.5055 16.8334 20.4164 16.8533 20.3228 16.8533ZM20.9775 7.25349V15.5435H21.2479C21.9435 15.5435 22.5 16.1082 22.5 16.7957V17.344C22.5 19.1772 21.0105 20.6749 19.1691 20.6749H4.83087C2.99766 20.6749 1.5 19.1854 1.5 17.344V16.7957C1.5 16.1 2.06469 15.5435 2.75214 15.5435H2.9728V7.25349C2.9728 5.08474 4.73234 3.3252 6.90109 3.3252H17.0492C19.2179 3.3252 20.9775 5.08474 20.9775 7.25349ZM19.668 15.5435H4.28223V7.25349C4.28223 5.81311 5.46071 4.63463 6.90109 4.63463H17.0492C18.4896 4.63463 19.668 5.81311 19.668 7.25349V15.5435ZM10.3387 7.09005H13.6123C13.9724 7.09005 14.267 6.79543 14.267 6.43533C14.267 6.07524 13.9724 5.78062 13.6123 5.78062H10.3387C9.9786 5.78062 9.68398 6.07524 9.68398 6.43533C9.68398 6.79543 9.9786 7.09005 10.3387 7.09005Z" class="icon-base"></path>
</svg>
