<svg viewBox="0 0 24 24" fill="currentColor" xmlns="http://www.w3.org/2000/svg" focusable="false">
  <title>Online Best Icon</title>
  <path fill-rule="evenodd" clip-rule="evenodd" d="M22.5498 17.3745V9.47927C22.5498 7.4138 20.8741 5.73804 18.8086 5.73804H9.14376C7.07829 5.73804 5.40253 7.4138 5.40253 9.47927V17.3745H5.19252C4.5378 17.3745 4 17.9045 4 18.567V19.0892C4 20.8429 5.42634 22.2615 7.17225 22.2615H20.8277C22.5814 22.2615 24 20.8351 24 19.0892V18.567C24 17.9123 23.47 17.3745 22.8075 17.3745H22.5498Z" fill="transparent" class="icon-offset"></path>
  <path fill-rule="evenodd" clip-rule="evenodd" d="M20.3228 16.853C20.2306 16.853 20.1427 16.8337 20.063 16.799L3.69074 16.85C3.66993 16.852 3.64883 16.853 3.62751 16.853C3.60757 16.853 3.58784 16.8521 3.56834 16.8503L2.80943 16.8527V17.3437C2.80943 18.4568 3.71785 19.3652 4.83087 19.3652H19.1773C20.2903 19.3652 21.1988 18.4568 21.1988 17.3437V16.7954L20.5862 16.7973C20.5055 16.8331 20.4164 16.853 20.3228 16.853ZM20.9775 7.25324V15.5433H21.2479C21.9435 15.5433 22.5 16.108 22.5 16.7954V17.3437C22.5 19.1769 21.0105 20.6746 19.1691 20.6746H4.83087C2.99766 20.6746 1.5 19.1851 1.5 17.3437V16.7954C1.5 16.0998 2.06469 15.5433 2.75214 15.5433H2.9728V7.25324C2.9728 5.0845 4.73234 3.32495 6.90109 3.32495H17.0492C19.2179 3.32495 20.9775 5.0845 20.9775 7.25324ZM19.668 15.5433H4.28223V7.25324C4.28223 5.81287 5.46071 4.63438 6.90109 4.63438H17.0492C18.4896 4.63438 19.668 5.81287 19.668 7.25324V15.5433ZM10.8216 13.0887C10.8242 13.0888 10.8268 13.0888 10.8293 13.0888H10.813C10.8158 13.0888 10.8187 13.0888 10.8216 13.0887ZM10.3628 12.9006C10.4917 13.0214 10.6603 13.0867 10.8216 13.0887C10.9903 13.0868 11.1507 13.0293 11.2794 12.9006L15.6988 8.48123C15.9525 8.22753 15.9525 7.81015 15.6988 7.55644C15.4451 7.30274 15.0277 7.30274 14.774 7.55644L10.8211 11.5093L9.1598 9.84795C8.9061 9.59425 8.48872 9.59425 8.23502 9.84795C7.98131 10.1017 7.98131 10.519 8.23502 10.7727L10.3628 12.9006Z" class="icon-base"></path>
</svg>
