<svg viewBox="0 0 24 24" fill="currentColor" xmlns="http://www.w3.org/2000/svg" focusable="false">
  <title>Online Search Icon</title>
  <path fill-rule="evenodd" clip-rule="evenodd" d="M22.5498 17.3747V9.47951C22.5498 7.41404 20.8741 5.73828 18.8086 5.73828H9.14376C7.07829 5.73828 5.40253 7.41404 5.40253 9.47951V17.3747H5.19252C4.5378 17.3747 4 17.9047 4 18.5672V19.0895C4 20.8432 5.42634 22.2617 7.17225 22.2617H20.8277C22.5814 22.2617 24 20.8354 24 19.0895V18.5672C24 17.9125 23.47 17.3747 22.8075 17.3747H22.5498Z" fill="transparent" class="icon-offset"></path>
  <path fill-rule="evenodd" clip-rule="evenodd" d="M20.063 16.7992C20.1427 16.834 20.2306 16.8533 20.3228 16.8533C20.4164 16.8533 20.5055 16.8334 20.5862 16.7976L21.1988 16.7957V17.344C21.1988 18.457 20.2903 19.3654 19.1773 19.3654H4.83087C3.71785 19.3654 2.80943 18.457 2.80943 17.344V16.853L3.56834 16.8506C3.58784 16.8524 3.60757 16.8533 3.62751 16.8533C3.64883 16.8533 3.66993 16.8522 3.69074 16.8502L20.063 16.7992ZM20.9775 15.5435V7.25349C20.9775 5.08474 19.2179 3.3252 17.0492 3.3252H6.90109C4.73234 3.3252 2.9728 5.08474 2.9728 7.25349V15.5435H2.75214C2.06469 15.5435 1.5 16.1 1.5 16.7957V17.344C1.5 19.1854 2.99766 20.6749 4.83087 20.6749H19.1691C21.0105 20.6749 22.5 19.1772 22.5 17.344V16.7957C22.5 16.1082 21.9435 15.5435 21.2479 15.5435H20.9775ZM4.28223 15.5435H19.668V7.25349C19.668 5.81311 18.4896 4.63463 17.0492 4.63463H6.90109C5.46071 4.63463 4.28223 5.81311 4.28223 7.25349V15.5435ZM11.5987 13.2928H11.5577C10.6166 13.2847 9.74091 12.9 9.10256 12.2289C8.42329 11.5497 8.05501 10.6412 8.0632 9.66735C8.07138 8.7262 8.45603 7.85051 9.12711 7.21217C9.80638 6.5329 10.6984 6.15644 11.6887 6.17281C12.6298 6.18099 13.5055 6.56564 14.1439 7.23672C15.3559 8.50677 15.4866 10.3818 14.5476 11.7489L15.7074 12.9087C15.9611 13.1624 15.9611 13.5797 15.7074 13.8334C15.5776 13.9632 15.4157 14.0206 15.2456 14.0217C15.075 14.0208 14.9127 13.9554 14.7826 13.8334L13.6221 12.6729C13.0324 13.0777 12.3388 13.2928 11.6068 13.2928H11.5987ZM15.2456 14.0217C15.244 14.0217 15.2425 14.0217 15.2409 14.0217H15.2491C15.2479 14.0217 15.2467 14.0217 15.2456 14.0217ZM11.6396 7.48224C11.034 7.48224 10.4693 7.71957 10.0355 8.15332C9.60996 8.56252 9.37263 9.10266 9.37263 9.6919C9.37263 10.3057 9.60178 10.8868 10.0437 11.3205C10.4529 11.7461 10.993 11.9834 11.5823 11.9916C12.1879 11.9916 12.7771 11.7624 13.2109 11.3205C14.0784 10.453 14.0702 9.06174 13.2027 8.14514C12.8099 7.72776 12.2616 7.49861 11.6805 7.49042H11.6478L11.6396 7.48224Z" class="icon-base"></path>
</svg>
