<svg viewBox="0 0 24 24" fill="currentColor" xmlns="http://www.w3.org/2000/svg" focusable="false">
  <title>Play Icon</title>
  <path fill-rule="evenodd" clip-rule="evenodd" d="M0 12C0 18.6192 5.38085 24 12 24C18.6192 24 24 18.6192 24 12C24 5.38085 18.6192 0 12 0C5.38085 0 0 5.38085 0 12ZM1.42539 12C1.42539 6.16481 6.17372 1.42539 12 1.42539C17.8352 1.42539 22.5746 6.16481 22.5746 12C22.5746 17.8352 17.8352 22.5746 12 22.5746C6.16481 22.5746 1.42539 17.8352 1.42539 12ZM8.98011 17.0779C9.08702 17.1403 9.21174 17.167 9.32755 17.167C9.45227 17.167 9.5859 17.1314 9.70172 17.0601L16.8287 12.6057C17.0425 12.4721 17.1672 12.2494 17.1672 12C17.1672 11.7505 17.0336 11.5278 16.8287 11.3942L9.70172 6.93982C9.479 6.80619 9.20283 6.79728 8.98011 6.922C8.7574 7.04673 8.61486 7.28726 8.61486 7.54561V16.4543C8.61486 16.7127 8.7574 16.9532 8.98011 17.0779Z" class="icon-base"></path>
</svg>
