<svg viewBox="0 0 24 24" fill="currentColor" xmlns="http://www.w3.org/2000/svg" focusable="false">
  <title>Profile Icon</title>
  <path fill-rule="evenodd" clip-rule="evenodd" d="M12 24C5.38636 24 0 18.6136 0 12C0 5.38636 5.38636 0 12 0C18.6136 0 24 5.38636 24 12C24 16.2809 21.7433 20.0476 18.3577 22.1722C18.2954 22.226 18.2242 22.2701 18.146 22.302C16.347 23.3798 14.2441 24 12 24ZM22.4416 12C22.4416 15.3859 20.8207 18.4012 18.3142 20.3104C17.5834 18.5308 15.6359 16.9481 11.9808 16.9481C8.31209 16.9481 6.39012 18.5228 5.66955 20.298C3.17235 18.3882 1.55844 15.3786 1.55844 12C1.55844 6.24351 6.24351 1.55844 12 1.55844C17.7565 1.55844 22.4416 6.24351 22.4416 12ZM11.9905 18.5065C15.6213 18.5065 16.6761 20.1856 16.9785 21.176C15.4977 21.9828 13.8013 22.4416 12 22.4416C10.1976 22.4416 8.50029 21.9823 7.01891 21.1746C7.31357 20.1909 8.3393 18.5065 11.9905 18.5065ZM7.83153 11.1235C7.83153 13.4222 9.70166 15.2923 12.0004 15.2923C14.2991 15.2923 16.1692 13.4222 16.1692 11.1235C16.1692 8.82478 14.2991 6.95465 12.0004 6.95465C9.70166 6.95465 7.83153 8.82478 7.83153 11.1235ZM9.38997 11.1235C9.38997 9.68192 10.5588 8.51309 12.0004 8.51309C13.4419 8.51309 14.6107 9.68192 14.6107 11.1235C14.6107 12.565 13.4419 13.7339 12.0004 13.7339C10.5588 13.7339 9.38997 12.565 9.38997 11.1235Z" class="icon-base"></path>
</svg>
