<svg viewBox="0 0 24 24" fill="currentColor" xmlns="http://www.w3.org/2000/svg" focusable="false">
  <title>Rates Down Icon</title>
  <path d="M21.9251 23.0414C20.8626 23.0414 20.0002 22.1794 20.0002 21.1173V18.9242C20.0002 17.8621 20.8626 17 21.9251 17C22.9876 17 23.8501 17.8621 23.8501 18.9242V21.1173C23.8501 22.1794 22.9876 23.0414 21.9251 23.0414Z" fill="transparent" class="icon-offset"></path>
  <path d="M13.6251 23.0044C12.5626 23.0044 11.7002 22.1423 11.7002 21.0802V15.6043C11.7002 14.5423 12.5626 13.6802 13.6251 13.6802C14.6876 13.6802 15.5501 14.5423 15.5501 15.6043V21.0802C15.5501 22.1423 14.6876 23.0044 13.6251 23.0044Z" fill="transparent" class="icon-offset"></path>
  <path d="M5.62512 22.9933C4.56262 22.9933 3.7002 22.1312 3.7002 21.0691V7.92416C3.7002 6.86208 4.56262 6 5.62512 6C6.68763 6 7.55005 6.86208 7.55005 7.92416V21.076C7.55005 22.1381 6.68763 23.0002 5.62512 23.0002V22.9933Z" fill="transparent" class="icon-offset"></path>
  <path fill-rule="evenodd" clip-rule="evenodd" d="M3.87783 22.4915C2.56534 22.4915 1.5 21.4266 1.5 20.1146V3.87688C1.5 2.56491 2.56534 1.5 3.87783 1.5C5.19032 1.5 6.25566 2.56491 6.25566 3.87688V20.1231C6.25566 21.4351 5.19032 22.5 3.87783 22.5V22.4915ZM3.87783 2.86308C3.32385 2.86308 2.86363 3.3146 2.86363 3.87688V20.1231C2.86363 20.6769 3.31533 21.1369 3.87783 21.1369C4.44033 21.1369 4.89203 20.6854 4.89203 20.1231V3.87688C4.89203 3.32312 4.44033 2.86308 3.87783 2.86308ZM9.62183 20.1149C9.62183 21.4268 10.6872 22.4917 11.9997 22.4917C13.3121 22.4917 14.3775 21.4268 14.3775 20.1149V13.3506C14.3775 12.0386 13.3121 10.9737 11.9997 10.9737C10.6872 10.9737 9.62183 12.0386 9.62183 13.3506V20.1149ZM10.9855 13.3506C10.9855 12.7883 11.4457 12.3368 11.9997 12.3368C12.5622 12.3368 13.0139 12.7968 13.0139 13.3506V20.1149C13.0139 20.6771 12.5622 21.1287 11.9997 21.1287C11.4372 21.1287 10.9855 20.6686 10.9855 20.1149V13.3506ZM17.7444 20.1145C17.7444 21.4265 18.8097 22.4914 20.1222 22.4914C21.4347 22.4914 22.5 21.4265 22.5 20.1145V17.4054C22.5 16.0935 21.4347 15.0285 20.1222 15.0285C18.8097 15.0285 17.7444 16.0935 17.7444 17.4054V20.1145ZM19.108 17.4139C19.108 16.8517 19.5682 16.4001 20.1222 16.4001C20.6847 16.4001 21.1364 16.8602 21.1364 17.4139V20.1231C21.1364 20.6853 20.6847 21.1369 20.1222 21.1369C19.5597 21.1369 19.108 20.6768 19.108 20.1231V17.4139ZM17.0797 10.3088H21.8183L21.8268 10.3002C21.9206 10.3002 22.0058 10.2832 22.091 10.2491C22.1592 10.215 22.2274 10.1725 22.2871 10.1213L22.3212 10.0873C22.3723 10.0276 22.4149 9.95947 22.449 9.89132C22.4831 9.81464 22.5001 9.72945 22.5001 9.64426V9.62722V4.89051C22.5001 4.51566 22.1933 4.20896 21.8183 4.20896C21.4433 4.20896 21.1365 4.51566 21.1365 4.89051V7.983L14.8553 1.7043C14.5911 1.4402 14.1564 1.4402 13.8922 1.7043C13.628 1.9684 13.628 2.40288 13.8922 2.66698L20.1734 8.94568H17.0797C16.7047 8.94568 16.3979 9.25237 16.3979 9.62722C16.3979 10.0021 16.7047 10.3088 17.0797 10.3088Z" class="icon-base"></path>
</svg>
