<svg viewBox="0 0 24 24" fill="currentColor" xmlns="http://www.w3.org/2000/svg" focusable="false">
  <title>Rates Up Icon</title>
  <path d="M5.62517 23.0414C6.68768 23.0414 7.5501 22.1794 7.5501 21.1173V18.9242C7.5501 17.8621 6.68768 17 5.62517 17C4.56266 17 3.70024 17.8621 3.70024 18.9242V21.1173C3.70024 22.1794 4.56266 23.0414 5.62517 23.0414Z" fill="transparent" class="icon-offset"></path>
  <path d="M13.9252 23.0044C14.9877 23.0044 15.8501 22.1423 15.8501 21.0802V15.6043C15.8501 14.5423 14.9877 13.6802 13.9252 13.6802C12.8627 13.6802 12.0002 14.5423 12.0002 15.6043V21.0802C12.0002 22.1423 12.8627 23.0044 13.9252 23.0044Z" fill="transparent" class="icon-offset"></path>
  <path d="M21.9252 22.9933C22.9877 22.9933 23.8501 22.1312 23.8501 21.0691V7.92416C23.8501 6.86208 22.9877 6 21.9252 6C20.8627 6 20.0002 6.86208 20.0002 7.92416V21.076C20.0002 22.1381 20.8627 23.0002 21.9252 23.0002V22.9933Z" fill="transparent" class="icon-offset"></path>
  <path fill-rule="evenodd" clip-rule="evenodd" d="M1.69813 11.4675C1.83448 11.5953 2.01344 11.6635 2.18388 11.6635C2.36284 11.6635 2.53328 11.6039 2.66963 11.4675L10.3137 3.83428V6.92677C10.3137 7.30162 10.6205 7.60832 10.9955 7.60832C11.3704 7.60832 11.6772 7.30162 11.6772 6.92677V2.1645C11.6687 2.08783 11.6517 2.00264 11.6261 1.93448C11.592 1.84929 11.5409 1.77262 11.4727 1.70446C11.4045 1.63631 11.3278 1.58519 11.2426 1.55112C11.1744 1.51704 11.0977 1.5 11.0125 1.5H10.987H6.24881C5.87385 1.5 5.56706 1.80669 5.56706 2.18154C5.56706 2.55639 5.87385 2.86308 6.24881 2.86308H9.34224L1.69813 10.5049C1.43396 10.769 1.43396 11.2034 1.69813 11.4675ZM20.1225 22.4915C18.8101 22.4915 17.7449 21.4266 17.7449 20.1146V3.87688C17.7449 2.56491 18.8101 1.5 20.1225 1.5C21.4349 1.5 22.5001 2.56491 22.5001 3.87688V20.1231C22.5001 21.4351 21.4349 22.5 20.1225 22.5V22.4915ZM20.1225 2.86308C19.5686 2.86308 19.1084 3.3146 19.1084 3.87688V20.1231C19.1084 20.6769 19.5601 21.1369 20.1225 21.1369C20.685 21.1369 21.1366 20.6854 21.1366 20.1231V3.87688C21.1366 3.32312 20.685 2.86308 20.1225 2.86308ZM9.62339 20.1147C9.62339 21.4267 10.6886 22.4916 12.001 22.4916C13.3134 22.4916 14.3786 21.4267 14.3786 20.1147V13.3504C14.3786 12.0385 13.3134 10.9735 12.001 10.9735C10.6886 10.9735 9.62339 12.0385 9.62339 13.3504V20.1147ZM10.9869 13.3504C10.9869 12.7881 11.4471 12.3366 12.001 12.3366C12.5634 12.3366 13.0151 12.7967 13.0151 13.3504V20.1147C13.0151 20.677 12.5634 21.1285 12.001 21.1285C11.4385 21.1285 10.9869 20.6685 10.9869 20.1147V13.3504ZM1.50188 20.1145C1.50188 21.4265 2.56711 22.4914 3.87947 22.4914C5.19184 22.4914 6.25707 21.4265 6.25707 20.1145V17.4054C6.25707 16.0934 5.19184 15.0285 3.87947 15.0285C2.56711 15.0285 1.50188 16.0934 1.50188 17.4054V20.1145ZM2.86537 17.4139C2.86537 16.8516 3.32555 16.4001 3.87947 16.4001C4.44192 16.4001 4.89358 16.8601 4.89358 17.4139V20.123C4.89358 20.6853 4.44192 21.1368 3.87947 21.1368C3.31703 21.1368 2.86537 20.6768 2.86537 20.123V17.4139Z" class="icon-base"></path>
</svg>
