<svg viewBox="0 0 24 24" fill="currentColor" xmlns="http://www.w3.org/2000/svg" focusable="false">
  <title>Rates Up Icon</title>
  <path d="M20.1749 9.2998C19.1393 9.2998 18.2999 10.1393 18.2999 11.1748V20.4748C18.2999 21.5103 19.1393 22.3498 20.1749 22.3498C21.2104 22.3498 22.0499 21.5103 22.0499 20.4748V11.1748C22.0499 10.1393 21.2104 9.2998 20.1749 9.2998Z" fill="transparent" class="icon-offset"></path>
  <path d="M11.9999 14.9997C11.9999 14.0885 12.7387 13.3497 13.6499 13.3497C14.5612 13.3497 15.2999 14.0885 15.2999 14.9997V20.6997C15.2999 21.611 14.5612 22.3497 13.6499 22.3497C12.7387 22.3497 11.9999 21.611 11.9999 20.6997V14.9997Z" fill="transparent" class="icon-offset"></path>
  <path d="M5.3999 17.5045C5.3999 16.5353 6.18564 15.7495 7.1549 15.7495C8.12416 15.7495 8.9099 16.5353 8.9099 17.5045V20.6245C8.9099 21.5938 8.12416 22.3795 7.1549 22.3795C6.18564 22.3795 5.3999 21.5938 5.3999 20.6245V17.5045Z" fill="transparent" class="icon-offset"></path>
  <path fill-rule="evenodd" clip-rule="evenodd" d="M3.15867 11.108C3.31116 11.333 3.5704 11.453 3.82963 11.453L3.81438 11.438C3.98212 11.438 4.14986 11.393 4.30235 11.288L9.39553 7.71804L11.0272 9.41304C11.3322 9.72804 11.8201 9.75804 12.1556 9.48804L18.9872 3.99804C19.3531 3.71304 19.3989 3.18804 19.1092 2.84304C18.8194 2.49804 18.2857 2.43804 17.935 2.72304L11.7134 7.73304L10.1122 6.08304C9.8225 5.78304 9.36503 5.73804 9.02955 5.97804L3.35691 9.96804C2.97568 10.223 2.88419 10.733 3.15867 11.108ZM18.484 21.4583C17.0963 21.4583 15.9679 20.3483 15.9679 18.9833V9.36831C15.9679 8.00331 17.0963 6.89331 18.484 6.89331C19.8716 6.89331 21.0001 8.00331 21.0001 9.36831V18.9833C21.0001 20.3483 19.8716 21.4583 18.484 21.4583ZM18.484 8.54331C18.0113 8.54331 17.63 8.91831 17.63 9.38331V18.9983C17.63 19.4633 18.0113 19.8383 18.484 19.8383C18.9567 19.8383 19.3379 19.4633 19.3379 18.9983V9.38331C19.3379 8.91831 18.9567 8.54331 18.484 8.54331ZM9.48706 18.9832C9.48706 20.3482 10.6155 21.4582 12.0032 21.4582C13.3908 21.4582 14.5192 20.3482 14.5192 18.9832V13.4182C14.5192 12.0532 13.3908 10.9432 12.0032 10.9432C10.6155 10.9432 9.48706 12.0532 9.48706 13.4182V18.9832ZM11.1492 13.4182C11.1492 12.9532 11.5304 12.5782 12.0032 12.5782C12.4759 12.5782 12.8571 12.9532 12.8571 13.4182V18.9832C12.8571 19.4482 12.4759 19.8232 12.0032 19.8232C11.5304 19.8232 11.1492 19.4482 11.1492 18.9832V13.4182ZM3.00604 18.983C3.00604 20.348 4.13447 21.458 5.52213 21.458C6.90979 21.458 8.03822 20.348 8.03822 18.983V15.803C8.03822 14.438 6.90979 13.328 5.52213 13.328C4.13447 13.328 3.00604 14.438 3.00604 15.803V18.983ZM4.66819 15.818C4.66819 15.353 5.04941 14.978 5.52213 14.978C5.99485 14.978 6.37608 15.353 6.37608 15.818V18.998C6.37608 19.463 5.99485 19.838 5.52213 19.838C5.04941 19.838 4.66819 19.463 4.66819 18.998V15.818Z" class="icon-base"></path>
</svg>
