<svg viewBox="0 0 24 24" fill="currentColor" xmlns="http://www.w3.org/2000/svg" focusable="false">
  <title>Retirement Icon</title>
  <path fill-rule="evenodd" clip-rule="evenodd" d="M8.55694 14.3778L11.9473 10.9874L11.7383 13.2394C11.4094 13.2509 11.1439 13.5234 11.1439 13.855C11.1439 14.1476 11.3507 14.3943 11.6254 14.456L11.3768 17.135C11.0443 17.1424 10.7746 17.4166 10.7746 17.7508C10.7746 18.0461 10.9852 18.2946 11.2637 18.3535L10.9952 21.2465H10.8975C10.5588 21.2465 10.2816 21.5236 10.2816 21.8624C10.2816 22.2011 10.5588 22.4783 10.8975 22.4783H16.5102C16.8489 22.4783 17.1261 22.2011 17.1261 21.8624C17.1261 21.5236 16.8489 21.2465 16.5102 21.2465H16.3819L16.114 18.3591C16.4074 18.3125 16.6336 18.0568 16.6336 17.7508C16.6336 17.412 16.3564 17.1348 16.0177 17.1348H16.0003L15.7523 14.462C16.0418 14.4121 16.2638 14.1582 16.2638 13.855C16.2638 13.5162 15.9867 13.2391 15.6479 13.2391H15.6388L15.4275 10.9622L18.8357 14.3704C18.9589 14.4859 19.1129 14.5475 19.2745 14.5475L19.2668 14.5398C19.4285 14.5398 19.5825 14.4859 19.7057 14.3627C21.1641 12.9043 21.4266 10.7004 20.4931 8.9736H21.5843C21.923 8.9736 22.2002 8.69643 22.2002 8.35767C22.2002 5.84777 20.1522 3.7998 17.6423 3.7998C15.9633 3.7998 14.491 4.7163 13.7002 6.07448C12.9094 4.7163 11.4371 3.7998 9.75806 3.7998C7.24816 3.7998 5.2002 5.84777 5.2002 8.35767C5.2002 8.69643 5.47736 8.9736 5.81612 8.9736H6.90351C5.96531 10.7015 6.22645 12.9096 7.68694 14.3701C7.81012 14.4856 7.9718 14.5472 8.12579 14.5472L8.11809 14.5549C8.27977 14.5549 8.43375 14.501 8.55694 14.3778Z" fill="transparent" class="icon-offset"></path>
  <path fill-rule="evenodd" clip-rule="evenodd" d="M11.0392 5.49749C10.4872 4.27201 9.25373 3.41566 7.82604 3.41566C6.10595 3.41566 4.67118 4.65478 4.3614 6.2852H5.83957C7.29308 4.99134 9.34346 4.72877 11.0392 5.49749ZM6.54063 7.41506C6.55316 7.40344 6.56523 7.39133 6.57682 7.37876C7.25974 6.70356 8.15023 6.36596 9.04877 6.36596C9.74985 6.36596 10.4428 6.56976 11.0379 6.97737L10.5752 7.44007C10.5229 7.47863 10.4764 7.52508 10.4375 7.57778L6.14662 11.8686C5.21476 10.5073 5.34609 8.63046 6.54063 7.41506ZM6.55423 13.3115L10.1441 9.72169L9.92278 12.1062C9.57454 12.1183 9.29343 12.4069 9.29343 12.758C9.29343 13.0678 9.5124 13.329 9.80322 13.3944L9.53995 16.2311C9.18795 16.239 8.90243 16.5293 8.90243 16.8831C8.90243 17.1958 9.12541 17.4589 9.42021 17.5213L9.13594 20.5843H9.03275C8.67406 20.5843 8.38058 20.8777 8.38058 21.2364C8.38058 21.5951 8.67406 21.8886 9.03275 21.8886H14.9756C15.3343 21.8886 15.6278 21.5951 15.6278 21.2364C15.6278 20.8777 15.3343 20.5843 14.9756 20.5843H14.8395L14.5558 17.5273C14.8666 17.4781 15.1062 17.2072 15.1062 16.8831C15.1062 16.5244 14.8127 16.231 14.454 16.231H14.4355L14.1728 13.4007C14.4794 13.3479 14.7146 13.079 14.7146 12.758C14.7146 12.3993 14.4211 12.1058 14.0624 12.1058H14.0527L13.8289 9.69523L17.4376 13.3039C17.5681 13.4262 17.7311 13.4914 17.9023 13.4914L17.8941 13.4833C18.0653 13.4833 18.2284 13.4262 18.3588 13.2958C19.903 11.7515 20.1809 9.41793 19.1926 7.58958H20.3479C20.7066 7.58958 21.0001 7.2961 21.0001 6.93741C21.0001 4.27983 18.8316 2.11137 16.174 2.11137C14.3963 2.11137 12.8374 3.08173 12.0001 4.51975C11.1627 3.08171 9.60383 2.11133 7.82604 2.11133C5.16846 2.11133 3 4.27978 3 6.93736C3 7.29606 3.29348 7.58953 3.65217 7.58953H4.80345C3.81013 9.41903 4.08666 11.757 5.63304 13.3034C5.76348 13.4257 5.93467 13.4909 6.09771 13.4909L6.08956 13.499C6.26075 13.499 6.42379 13.442 6.55423 13.3115ZM12.7456 12.1058L12.3877 8.25396L11.9997 7.86603L11.5853 8.28042L11.2299 12.1058H12.7456ZM11.1087 13.4101L10.8466 16.231H13.1289L12.8668 13.4101H11.1087ZM10.7254 17.5353L10.4429 20.5755H13.5326L13.2501 17.5353H10.7254ZM12.9673 5.48321C14.6636 4.72116 16.7111 4.98851 18.1609 6.28524H19.6387C19.3289 4.65483 17.8941 3.41571 16.174 3.41571C14.7519 3.41571 13.5225 4.26539 12.9673 5.48321ZM17.4308 7.3868C16.2158 6.17847 14.3291 6.04216 12.9621 6.97789L17.8534 11.8691C18.7873 10.5048 18.6533 8.62282 17.4516 7.40766C17.4445 7.40086 17.4375 7.3939 17.4308 7.3868Z" class="icon-base"></path>
</svg>
