<svg viewBox="0 0 24 24" fill="currentColor" xmlns="http://www.w3.org/2000/svg" focusable="false">
  <title>Rewards Icon</title>
  <path fill-rule="evenodd" clip-rule="evenodd" d="M5.68872 13.7033C5.92285 13.9255 6.2026 14.0785 6.49463 14.1534V20.0575C6.49463 21.3891 7.55976 22.4658 8.87715 22.4658H13.3723C13.442 22.4973 13.519 22.5149 13.5999 22.5149C13.6808 22.5149 13.7579 22.4973 13.8275 22.4658H18.3161C19.6335 22.4658 20.6987 21.3891 20.6987 20.0575V14.1217C21.504 13.8953 22.1001 13.1478 22.1001 12.2583V10.9337C22.1001 9.87125 21.2452 9 20.1871 9H7.01312C5.94099 9 5.1001 9.87125 5.1001 10.9833V12.3079C5.1001 12.8392 5.31032 13.3492 5.68872 13.7033Z" fill="transparent" class="icon-offset"></path>
  <path fill-rule="evenodd" clip-rule="evenodd" d="M5.81223 7.03857C5.50325 6.58713 5.32225 6.03936 5.32225 5.44887C5.32225 3.90387 6.56133 2.65137 8.08977 2.65137C10.2001 2.65137 11.3808 4.33925 11.9956 5.73146C12.61 4.33916 13.7909 2.65137 15.9029 2.65137C17.4313 2.65137 18.6704 3.90387 18.6704 5.44887C18.6704 6.03936 18.4894 6.58713 18.1804 7.03857H18.9744C20.0948 7.03857 21 7.96107 21 9.08607V10.4886C21 11.4304 20.3689 12.2217 19.5162 12.4616V18.7465C19.5162 20.1565 18.3885 21.2965 16.9936 21.2965H12.2416C12.1677 21.33 12.0859 21.3487 12.0001 21.3487C11.9142 21.3487 11.8324 21.33 11.7585 21.2965H6.99935C5.60446 21.2965 4.47668 20.1565 4.47668 18.7465V12.4951C4.16742 12.4159 3.87118 12.2539 3.62325 12.0186C3.22259 11.6436 3 11.1036 3 10.5411V9.13857C3 7.96107 3.89035 7.03857 5.02556 7.03857H5.81223ZM12.5936 20.0965H16.9936C17.7281 20.0965 18.3291 19.489 18.3291 18.7465V12.5361H12.5936V20.0965ZM11.4065 12.5361V20.0965H6.99935C6.26481 20.0965 5.66382 19.489 5.66382 18.7465V12.5361H11.4065ZM8.06023 7.03857C7.2198 7.02186 6.50939 6.2939 6.50939 5.44137C6.50939 4.57887 7.2291 3.84387 8.08977 3.84387V3.83637C9.94452 3.83637 10.8571 5.90601 11.2208 7.03857H8.06023ZM16.0634 7.03857H12.7841C13.151 5.90284 14.0637 3.85137 15.9103 3.85137C16.7635 3.85137 17.4907 4.58637 17.4907 5.44887C17.4907 6.25966 16.8547 6.95779 16.0634 7.03857ZM4.18714 9.14607C4.18714 8.64357 4.5507 8.24607 5.02556 8.24607V8.25357H18.9744C19.4345 8.25357 19.8129 8.63607 19.8129 9.10107V10.5036C19.8129 10.9686 19.4345 11.3511 18.9744 11.3511H4.98846C4.78813 11.3661 4.5878 11.2911 4.43941 11.1486C4.27617 10.9986 4.18714 10.7811 4.18714 10.5486V9.14607Z" class="icon-base"></path>
</svg>
