<svg viewBox="0 0 24 24" fill="currentColor" xmlns="http://www.w3.org/2000/svg" focusable="false">
  <title>Ribbon Icon</title>
  <path fill-rule="evenodd" clip-rule="evenodd" d="M17.8557 16.6379C18.7384 16.3178 19.3701 15.4757 19.3701 14.4886V13.7237C19.3701 13.4407 19.4848 13.173 19.6837 12.9741L20.2191 12.431C20.6628 11.995 20.8999 11.4213 20.8999 10.8094C20.8999 10.1974 20.6628 9.6161 20.2268 9.1801L19.6913 8.64465C19.4925 8.44578 19.3854 8.17806 19.3854 7.89504V7.13012C19.3854 5.86036 18.3527 4.82772 17.0906 4.82772H16.3181C16.0274 4.82772 15.7597 4.71299 15.5684 4.52176L15.0253 3.97102C14.1304 3.07607 12.6771 3.07607 11.7821 3.97102L11.2467 4.50646C11.0478 4.70534 10.7877 4.81243 10.497 4.81243H9.72448C8.50062 4.81243 7.49093 5.78387 7.43738 7.00773C7.42208 7.04598 7.42209 7.09188 7.42209 7.13012V7.88739C7.42209 8.17041 7.30735 8.43813 7.10847 8.63701L6.63422 9.1189C6.62275 9.13037 6.61128 9.13993 6.59981 9.14949C6.58834 9.15905 6.57685 9.16862 6.56538 9.1801C6.13703 9.6161 5.8999 10.1821 5.8999 10.7941C5.8999 11.406 6.14468 11.9873 6.58068 12.4233L7.11612 12.9588C7.315 13.1577 7.42209 13.4254 7.42209 13.7084V14.4733C7.42209 15.4761 8.07402 16.3341 8.97499 16.6443V21.0209C8.97499 21.5028 9.21977 21.9388 9.62517 22.1912C9.85465 22.3289 10.0994 22.3977 10.3518 22.3977H10.3595C10.5737 22.3977 10.7802 22.3518 10.9791 22.2524L13.4574 21.0132C13.5033 20.9903 13.5492 20.9903 13.5951 21.0132L15.8363 22.1988C16.2646 22.4283 16.7695 22.413 17.1902 22.1606C17.6032 21.9082 17.8557 21.4722 17.8557 20.9826V16.6379ZM13.4113 8.33856C12.7611 8.33856 12.1492 8.59098 11.6826 9.05758C10.7264 10.0137 10.7264 11.5589 11.6826 12.515C12.6081 13.4405 14.2145 13.4405 15.14 12.515C15.6066 12.0484 15.859 11.4365 15.859 10.7863C15.859 10.1361 15.6066 9.52418 15.14 9.05758C14.6734 8.59098 14.0615 8.33856 13.4113 8.33856Z" fill="transparent" class="icon-offset"></path>
  <path fill-rule="evenodd" clip-rule="evenodd" d="M11.9957 17.975C11.3564 17.975 10.7088 17.7311 10.221 17.2432L9.62378 16.6376C9.41351 16.4274 9.11912 16.3096 8.79951 16.3096H8.48004V20.986C8.48004 21.0617 8.52209 21.1037 8.56415 21.129C8.59779 21.1542 8.65667 21.171 8.72396 21.129L11.4491 19.7664C11.8865 19.5477 12.408 19.5561 12.8369 19.7832L15.3013 21.0869C15.3686 21.1206 15.4275 21.1037 15.4695 21.0869C15.5032 21.0617 15.5537 21.0196 15.5537 20.9439V16.318H15.1834C14.8638 16.318 14.5778 16.4358 14.3592 16.6545L13.7704 17.2432C13.2741 17.7395 12.6265 17.9834 11.9789 17.9834L11.9957 17.975ZM16.0439 14.9638H15.2087C14.5358 14.9638 13.905 15.2246 13.4339 15.6956L12.8452 16.2844C12.3826 16.747 11.6424 16.7554 11.1882 16.3012L10.591 15.6956C10.12 15.2246 9.48921 14.9638 8.81633 14.9638H7.96682C7.96349 14.9638 7.96016 14.9638 7.95683 14.9638C7.90866 14.9528 7.85856 14.9469 7.80716 14.9469C7.79607 14.9469 7.78505 14.9472 7.77408 14.9477C7.21727 14.8537 6.78929 14.3599 6.78929 13.7779V12.9368C6.78929 12.2639 6.52855 11.6331 6.05753 11.1621L5.46877 10.5733C5.24167 10.3462 5.11551 10.0518 5.11551 9.73223C5.11551 9.44626 5.21644 9.17711 5.40148 8.96683C5.42671 8.95001 5.46877 8.90795 5.46877 8.90795L6.05753 8.31078C6.52855 7.83976 6.78929 7.20894 6.78929 6.53606V5.80431C6.7977 5.77067 6.7977 5.72861 6.7977 5.68656C6.7977 5.0305 7.32759 4.50061 7.97523 4.50061H8.82474C9.49762 4.50061 10.1284 4.23987 10.5995 3.76886L11.1882 3.18009C11.6424 2.7259 12.391 2.7259 12.8452 3.18009L13.4424 3.78568C13.9134 4.25669 14.5442 4.51743 15.2171 4.51743H16.0666C16.7142 4.51743 17.2441 5.05573 17.2441 5.70338V6.54447C17.2441 7.21735 17.5049 7.84817 17.9759 8.31919L18.5646 8.90795C18.7917 9.12664 18.9179 9.42102 18.9179 9.74064C18.9179 10.0603 18.7917 10.3546 18.5646 10.5817L17.9759 11.1789C17.5049 11.6499 17.2441 12.2808 17.2441 12.9536V13.7947C17.2441 14.3638 16.8349 14.8355 16.2906 14.9415C16.2695 14.9395 16.2481 14.9385 16.2265 14.9385C16.1633 14.9385 16.102 14.9473 16.0439 14.9638ZM16.8994 16.1665C17.8701 15.8145 18.5646 14.8886 18.5646 13.8031V12.962C18.5646 12.6508 18.6908 12.3564 18.9095 12.1378L19.4982 11.5406C19.9861 11.0612 20.2468 10.4303 20.2468 9.75746C20.2468 9.08458 19.9861 8.44535 19.5067 7.96593L18.9179 7.37716C18.6992 7.15847 18.5815 6.86409 18.5815 6.55289V5.71179C18.5815 4.31557 17.446 3.18009 16.0582 3.18009H15.2087C14.889 3.18009 14.5947 3.05393 14.3844 2.84365L13.7872 2.23806C12.8031 1.25398 11.205 1.25398 10.221 2.23806L9.63219 2.82683C9.41351 3.04551 9.12753 3.16327 8.80792 3.16327H7.95841C6.61266 3.16327 5.50241 4.23146 5.44353 5.57721C5.42671 5.61927 5.42671 5.66973 5.42671 5.71179V6.54447C5.42671 6.85568 5.30055 7.15006 5.08186 7.36875L4.56038 7.89864C4.54777 7.91126 4.53515 7.92177 4.52253 7.93228C4.50992 7.9428 4.4973 7.95331 4.48468 7.96593C4.01367 8.44535 3.75293 9.06776 3.75293 9.74064C3.75293 10.4135 4.02208 11.0528 4.50151 11.5322L5.09027 12.1209C5.30896 12.3396 5.42671 12.634 5.42671 12.9452V13.7863C5.42671 14.889 6.14357 15.8324 7.13428 16.1735V20.986C7.13428 21.5159 7.40343 21.9953 7.84922 22.2729C8.10154 22.4243 8.3707 22.5 8.64826 22.5H8.65667C8.89218 22.5 9.11927 22.4495 9.33796 22.3401L12.0631 20.9776C12.1136 20.9523 12.164 20.9523 12.2145 20.9776L14.6789 22.2813C15.1499 22.5336 15.7051 22.5168 16.1677 22.2392C16.6219 21.9617 16.8994 21.4822 16.8994 20.9439V16.1665ZM12.0124 13.7694C10.9358 13.7694 9.9265 13.3489 9.1611 12.5835C7.58825 11.0106 7.58825 8.45368 9.1611 6.88083C9.9265 6.11544 10.9358 5.69489 12.0124 5.69489C13.089 5.69489 14.0983 6.11544 14.8637 6.88083C15.6291 7.64623 16.0497 8.65555 16.0497 9.73215C16.0497 10.8088 15.6291 11.8181 14.8637 12.5835C14.0983 13.3489 13.089 13.7694 12.0124 13.7694ZM12.0124 7.04064C11.2975 7.04064 10.6246 7.3182 10.1115 7.83127C9.06017 8.88264 9.06017 10.5817 10.1115 11.633C11.1293 12.6508 12.8956 12.6508 13.9133 11.633C14.4264 11.12 14.7039 10.4471 14.7039 9.73215C14.7039 9.01722 14.4264 8.34434 13.9133 7.83127C13.4002 7.3182 12.7274 7.04064 12.0124 7.04064Z" class="icon-base"></path>
</svg>
