<svg viewBox="0 0 24 24" fill="currentColor" xmlns="http://www.w3.org/2000/svg" focusable="false">
  <title>Savings Icon</title>
  <path fill-rule="evenodd" clip-rule="evenodd" d="M12.0009 20.9854H12.1834L12.1766 21C13.5822 21 14.981 20.527 16.1366 19.6537C16.2982 19.5314 16.4545 19.4017 16.6053 19.2651C18.073 18.0042 19 16.1515 19 14.0862C19 10.3796 16.0144 7.35776 12.2757 7.21286C11.6374 7.17606 11.0457 7.23462 10.5548 7.34744L9.33847 6.2631C9.1898 6.13211 9.0141 6.04478 8.82489 6.01567C8.64244 5.97928 8.44647 6.00839 8.26402 6.08116C8.08832 6.15394 7.9329 6.28493 7.81126 6.44504C7.68962 6.60514 7.61529 6.80163 7.58826 7.01996L7.39925 8.89402C6.50494 9.65782 5.80986 10.6407 5.40073 11.7576H4.5406C4.24327 11.7576 4 12.0196 4 12.3398V16.1678C4 16.488 4.58502 16.1678 4.88235 16.1678L5.9282 17.5286C6.65541 18.7615 7.76126 19.7523 9.08956 20.3474C10.0089 20.7833 11.0072 20.9973 12.0009 20.9854Z" fill="transparent" class="icon-offset"></path>
  <path fill-rule="evenodd" clip-rule="evenodd" d="M10.6305 8.72043C10.6305 11.9922 13.2935 14.6552 16.5653 14.6552C16.6429 14.6552 16.7203 14.6537 16.7972 14.6507C16.3264 15.8194 15.5162 16.8516 14.4804 17.5766C13.3391 18.3756 11.9467 18.794 10.5239 18.756C9.34453 18.7864 8.16519 18.4745 7.13041 17.8962C6.09563 17.3179 5.23585 16.4658 4.63477 15.4462C4.52825 15.256 4.32281 15.1419 4.10977 15.1419H2.71739V11.5429H3.59238C3.85868 11.5429 4.08694 11.3756 4.17064 11.1245C4.55868 9.95273 5.2739 8.94838 6.26302 8.21034C6.39998 8.10382 6.49128 7.95164 6.5065 7.78425L6.74237 5.51686L8.3478 6.84078C8.49997 6.96251 8.7054 7.01577 8.89562 6.96251C9.20476 6.8805 9.95855 6.72002 10.9488 6.80205C10.7425 7.40409 10.6305 8.04946 10.6305 8.72043ZM11.4969 5.63618C10.6072 5.51425 9.68567 5.54408 8.8804 5.71469L7.51084 4.58099C7.34345 4.44404 7.14563 4.35273 6.93258 4.3223C6.72715 4.28425 6.5065 4.31469 6.30107 4.39077C6.10324 4.46686 5.92824 4.60382 5.79129 4.77121C5.65433 4.9386 5.57063 5.14404 5.5402 5.3723L5.31955 7.40382C4.35325 8.17991 3.62282 9.17664 3.1663 10.3256H2.10869C1.77391 10.3256 1.5 10.5995 1.5 10.9343V15.7506C1.5 16.0853 1.77391 16.3593 2.10869 16.3593H3.76738C4.2705 17.1388 4.91023 17.822 5.65151 18.3795L5.1365 20.4524C5.05281 20.7796 5.25063 21.1068 5.57781 21.1905C5.62346 21.2057 5.67672 21.2057 5.72237 21.2057V21.2133C5.99628 21.2133 6.24737 21.0231 6.31585 20.7492L6.73399 19.0661C7.90074 19.6832 9.20809 19.9878 10.5087 19.9734H10.7141L10.7217 19.981C11.9799 19.981 13.2332 19.6684 14.348 19.0815L14.7618 20.7419C14.8379 21.0234 15.0813 21.206 15.3552 21.206V21.1984C15.4009 21.1984 15.4542 21.1984 15.4998 21.1832C15.827 21.0995 16.0248 20.7723 15.9411 20.4452L15.4292 18.391C16.6605 17.4494 17.5945 16.1401 18.0869 14.6701C18.1114 14.5967 18.121 14.522 18.1174 14.4492C20.6391 13.765 22.5 11.4554 22.5 8.72043C22.5 5.44869 19.837 2.78564 16.5653 2.78564C14.4222 2.78564 12.5402 3.92829 11.4969 5.63618ZM11.8479 8.72043C11.8479 6.11825 13.9631 4.00304 16.5653 4.00304C19.1674 4.00304 21.2826 6.11825 21.2826 8.72043C21.2826 11.3226 19.1674 13.4378 16.5653 13.4378C13.9631 13.4378 11.8479 11.3226 11.8479 8.72043ZM7.53336 11.2689C7.03126 11.2688 6.62049 10.858 6.62049 10.3558C6.62049 9.85368 7.03135 9.44281 7.53353 9.44281V9.45064C8.03562 9.45073 8.4464 9.86156 8.4464 10.3637C8.4464 10.8659 8.03553 11.2767 7.53336 11.2767V11.2691V11.2689ZM15.3172 11.4745H15.9564V11.7635C15.9564 12.0983 16.2303 12.3722 16.5651 12.3722C16.8999 12.3722 17.1738 12.0983 17.1738 11.7635V11.4735C18.0167 11.4434 18.6954 10.7021 18.6954 9.79293C18.6954 8.86467 17.9878 8.11141 17.1205 8.11141H16.0172C15.827 8.11141 15.6596 7.89837 15.6596 7.64728C15.6596 7.39619 15.8194 7.18315 16.0172 7.18315H16.4698C16.5008 7.18809 16.5327 7.19066 16.5651 7.19066C16.5975 7.19066 16.6294 7.18809 16.6605 7.18315H17.8205C18.1552 7.18315 18.4291 6.90924 18.4291 6.57445C18.4291 6.23967 18.1552 5.96576 17.8205 5.96576H17.1738V5.67653C17.1738 5.34175 16.8999 5.06784 16.5651 5.06784C16.2303 5.06784 15.9564 5.34175 15.9564 5.67653V5.96699C15.117 6.0012 14.4422 6.7408 14.4422 7.64728C14.4422 8.57554 15.1498 9.3288 16.0172 9.3288H17.1205C17.3107 9.3288 17.4781 9.54184 17.4781 9.79293C17.4781 10.044 17.3183 10.2571 17.1205 10.2571H16.576L16.5651 10.257L16.5542 10.2571H15.3172C14.9824 10.2571 14.7085 10.531 14.7085 10.8658C14.7085 11.2005 14.9824 11.4745 15.3172 11.4745Z" class="icon-base"></path>
</svg>
