<svg viewBox="0 0 24 24" fill="currentColor" xmlns="http://www.w3.org/2000/svg" focusable="false">
  <title>Savings Rate Icon</title>
  <path fill-rule="evenodd" clip-rule="evenodd" d="M13.0677 20.5699H13.2745L13.2669 20.5853C14.8598 20.5853 16.4452 20.0875 17.7548 19.1684C17.9379 19.0398 18.1151 18.9033 18.286 18.7595C19.9494 17.4326 21 15.4829 21 13.3094C21 9.40874 17.6163 6.22866 13.3792 6.07617C12.6557 6.03744 11.9851 6.09908 11.4288 6.21781L10.0503 5.07668C9.88177 4.93883 9.68265 4.84692 9.46821 4.81629C9.26143 4.778 9.03933 4.80863 8.83255 4.88522C8.63343 4.9618 8.45728 5.09966 8.31943 5.26815C8.18157 5.43663 8.09733 5.64341 8.0667 5.87317L7.85249 7.84537C6.83893 8.64917 6.05118 9.68354 5.58749 10.8589H4.61268C4.27571 10.8589 4 11.1346 4 11.4716V15.5C4 15.837 4.66302 15.5 5 15.5L6.1853 16.9321C7.00947 18.2296 8.26276 19.2722 9.76817 19.8985C10.8101 20.3572 11.9414 20.5824 13.0677 20.5699Z" fill="transparent" class="icon-offset"></path>
  <path fill-rule="evenodd" clip-rule="evenodd" d="M11.2079 19.7732H11.4293L11.4211 19.7896C12.7831 19.7896 14.1398 19.4497 15.3452 18.8116L15.7912 20.6015C15.8732 20.9049 16.1356 21.1017 16.4308 21.1017V21.0935C16.48 21.0935 16.5374 21.0935 16.5866 21.0771C16.9391 20.9869 17.1523 20.6343 17.0621 20.2817L16.5095 18.0643C17.8287 17.0504 18.8295 15.6443 19.358 14.0665C19.4728 13.7221 19.2842 13.3531 18.9398 13.2384C18.5954 13.1236 18.2265 13.3122 18.1117 13.6565C17.6361 15.075 16.7014 16.3377 15.4715 17.1986C14.2416 18.0595 12.7412 18.5105 11.2079 18.4695C9.93703 18.5023 8.66615 18.1661 7.55105 17.543C6.43595 16.9198 5.50943 16.0015 4.86169 14.9028C4.7469 14.6978 4.52552 14.5748 4.29594 14.5748H2.79548V10.6966H3.7384C4.02537 10.6966 4.27135 10.5162 4.36154 10.2456C4.7797 8.98294 5.55043 7.90064 6.61633 7.10532C6.76392 6.99053 6.86231 6.82654 6.87871 6.64616L7.13289 4.20278L8.86293 5.62945C9.02691 5.76064 9.24829 5.80983 9.45327 5.75244C10.5684 5.44907 12.364 5.40807 14.0449 6.1952C14.3728 6.35098 14.7582 6.2116 14.914 5.88363C15.0698 5.55566 14.9304 5.17029 14.6024 5.01451C12.7658 4.14539 10.798 4.12079 9.45327 4.40776L7.97741 3.18607C7.79703 3.03849 7.58385 2.94009 7.35427 2.9073C7.13289 2.8663 6.89511 2.8991 6.67373 2.98109C6.46055 3.06308 6.27197 3.21067 6.12438 3.39105C5.97679 3.57144 5.8866 3.79282 5.8538 4.03879L5.61602 6.228C4.57472 7.06432 3.78759 8.13842 3.29564 9.37651H2.15594C1.79517 9.37651 1.5 9.67168 1.5 10.0324V15.2226C1.5 15.5833 1.79517 15.8785 2.15594 15.8785H3.94338C4.48561 16.7187 5.17507 17.4549 5.974 18.0558L5.41882 20.2903C5.32863 20.6429 5.54181 20.9955 5.89438 21.0857C5.94358 21.102 6.00097 21.102 6.05017 21.102V21.1102C6.34534 21.1102 6.61592 20.9053 6.68971 20.6101L7.14052 18.7956C8.39776 19.4605 9.80649 19.7886 11.2079 19.7732ZM7.01813 9.40994C7.01813 9.951 7.46073 10.3937 8.00175 10.3939V10.4015C8.5429 10.4015 8.98566 9.95874 8.98566 9.41759C8.98566 8.87654 8.54306 8.43384 8.00204 8.43368V8.42603C7.46089 8.42603 7.01813 8.86879 7.01813 9.40994ZM21.834 10.9759C21.4733 10.9759 21.1781 10.6807 21.1781 10.3199V8.86005L19.4969 10.5413C19.2591 10.7872 18.9475 10.9594 18.6114 11.0414C18.2752 11.1234 17.9226 11.1152 17.5865 11.0086L14.438 10.1477C14.3396 10.1231 14.233 10.1231 14.1346 10.1477C14.0362 10.1723 13.946 10.2297 13.8722 10.3035L10.6253 13.5586C10.4941 13.6898 10.3301 13.7554 10.1579 13.7554C9.99396 13.7554 9.82177 13.6898 9.69878 13.5668C9.44461 13.3126 9.44461 12.8944 9.69878 12.6403L12.9457 9.38517C13.1753 9.14739 13.4704 8.97521 13.7984 8.88501C14.1264 8.79482 14.4625 8.79482 14.7905 8.88501L17.9636 9.75414C18.0866 9.79513 18.1932 9.79513 18.2998 9.77053C18.3982 9.74594 18.4966 9.68854 18.5704 9.61475L20.2676 7.91753H18.7757C18.415 7.91753 18.1198 7.62236 18.1198 7.26159C18.1198 6.90083 18.415 6.60565 18.7757 6.60565H21.834C21.9283 6.60565 22.0181 6.62582 22.0994 6.66204C22.1759 6.69379 22.2474 6.74058 22.3092 6.8024C22.4653 6.95843 22.5255 7.17625 22.49 7.38V10.3199C22.49 10.6807 22.1948 10.9759 21.834 10.9759Z" class="icon-base"></path>
</svg>
