<svg viewBox="0 0 24 24" fill="currentColor" xmlns="http://www.w3.org/2000/svg" focusable="false">
  <title>Search Icon</title>
  <path fill-rule="evenodd" clip-rule="evenodd" d="M10.3116 1.5C5.70287 1.5 2 5.28 2 10C2 14.72 5.70287 18.5 10.3116 18.5C12.0336 18.5 13.6362 17.97 14.9601 17.06L19.9072 22.17C20.3352 22.61 21.032 22.61 21.46 22.17L21.679 21.95C22.107 21.57 22.107 20.85 21.679 20.41L16.7617 15.38C17.9263 13.92 18.6231 12.04 18.6231 10C18.6231 5.28 14.8705 1.5 10.3116 1.5ZM10.3116 3.69C13.686 3.69 16.4731 6.54 16.4731 10C16.4731 13.46 13.686 16.31 10.3116 16.31C6.93717 16.31 4.15006 13.46 4.15006 10C4.15006 6.54 6.8874 3.69 10.3116 3.69Z" class="icon-base"></path>
</svg>
