<svg viewBox="0 0 24 24" fill="currentColor" xmlns="http://www.w3.org/2000/svg" focusable="false">
  <title>Send Icon</title>
  <path d="M14.3819 24C13.6823 24 13.0527 23.65 12.673 23.0401L8.79538 16.7508L2.44935 12.7813C1.75978 12.3513 1.40999 11.5914 1.51993 10.7815C1.62986 9.98162 2.17951 9.34169 2.95903 9.11172L18.4094 4.58224C19.1189 4.37226 19.8785 4.57224 20.4081 5.09218C20.9278 5.62212 21.1277 6.39203 20.9178 7.10195L16.3507 22.5502C16.1208 23.3301 15.4812 23.88 14.6817 23.98C14.5918 23.99 14.5018 24 14.4019 24H14.3819Z" fill="transparent" class="icon-offset"></path>
  <path d="M15.3728 22.4893C14.6194 22.4893 13.9414 22.1126 13.5324 21.4561L9.35656 14.6865L2.52237 10.4138C1.77976 9.95099 1.40307 9.13304 1.52146 8.26127C1.63985 7.40027 2.23178 6.71147 3.07126 6.46394L19.7101 1.58852C20.4742 1.36251 21.2922 1.57776 21.8626 2.13741C22.4222 2.70782 22.6375 3.53653 22.4115 4.30067L17.493 20.9287C17.2455 21.7682 16.5567 22.3602 15.6957 22.4678C15.5988 22.4785 15.502 22.4893 15.3943 22.4893H15.3728ZM10.9709 14.2237L14.91 20.6059C15.0822 20.8857 15.3513 20.8857 15.4589 20.8642C15.5665 20.8534 15.8248 20.7781 15.9217 20.466L20.8402 3.84865C20.9263 3.55806 20.7648 3.35357 20.7002 3.289C20.6249 3.21366 20.4312 3.06298 20.1514 3.14908L3.51252 8.0245C3.20041 8.12136 3.12507 8.37966 3.11431 8.48729C3.10355 8.59491 3.09278 8.87474 3.37261 9.04694L9.83011 13.0829L15.5342 7.31417C15.8464 7.00206 16.363 6.9913 16.6751 7.31417C16.9872 7.62629 16.9979 8.14289 16.6751 8.455L10.9602 14.2345L10.9709 14.2237Z" class="icon-base"></path>
</svg>
