<svg viewBox="0 0 24 24" fill="currentColor" xmlns="http://www.w3.org/2000/svg" focusable="false">
  <title>Share Icon</title>
  <path fill-rule="evenodd" clip-rule="evenodd" d="M22.22 12.97V17.94C22.22 20.45 20.18 22.5 17.66 22.5H6.34002C3.82002 22.51 1.77002 20.46 1.77002 17.94V12.97C1.77002 10.46 3.81002 8.41 6.33002 8.41H7.28002C7.73002 8.41 8.09002 8.78 8.09002 9.22C8.09002 9.66 7.72002 10.03 7.28002 10.03H6.33002C4.71002 10.03 3.39002 11.34 3.39002 12.96V17.93C3.39002 19.55 4.70002 20.86 6.33002 20.86H17.65C19.27 20.86 20.58 19.55 20.58 17.93V12.96C20.58 11.35 19.27 10.03 17.66 10.03H16.7C16.25 10.03 15.89 9.66 15.89 9.22C15.89 8.78 16.26 8.41 16.7 8.41H17.66C20.17 8.41 22.21 10.46 22.21 12.96H22.22V12.97ZM12.81 4.29V14.57C12.81 15.02 12.44 15.38 12 15.38C11.56 15.38 11.19 15.01 11.19 14.57V4.29L9.61002 5.87C9.29002 6.19 8.78002 6.19 8.46002 5.87C8.14002 5.55 8.14002 5.04 8.46002 4.72L11.35 1.82C11.5 1.62 11.73 1.5 12 1.5C12.22 1.5 12.43 1.58 12.58 1.74L15.55 4.72C15.71 4.88 15.78 5.09 15.78 5.29H15.77C15.77 5.5 15.69 5.71 15.53 5.87C15.21 6.19 14.7 6.19 14.38 5.87L12.8 4.29H12.81Z" class="icon-base"></path>
</svg>
