<svg viewBox="0 0 24 24" fill="currentColor" xmlns="http://www.w3.org/2000/svg" focusable="false">
  <title>Sort Icon</title>
  <path fill-rule="evenodd" clip-rule="evenodd" d="M6.70329 18.6874C6.23342 18.6874 5.84898 18.3022 5.84898 17.8314V5.33921L2.955 8.25535C2.78414 8.42655 2.57056 8.51215 2.3463 8.51215V8.50145C2.13273 8.50145 1.90847 8.41585 1.74828 8.25535C1.41724 7.92366 1.41724 7.37797 1.74828 7.04628L6.08611 2.66796C6.24194 2.50453 6.46128 2.40234 6.70329 2.40234C6.98033 2.40234 7.22767 2.53625 7.38402 2.74265L11.6583 7.04628C11.9894 7.37797 11.9894 7.92366 11.6583 8.25535C11.3273 8.58705 10.7826 8.58705 10.4516 8.25535L7.5576 5.33919V17.8314C7.5576 18.3022 7.17316 18.6874 6.70329 18.6874ZM17.2539 21.5854C17.2675 21.5862 17.2811 21.5867 17.2949 21.5869L17.2861 21.587H17.2984L17.3075 21.587V21.5977C17.614 21.5977 17.8842 21.4338 18.035 21.189L22.2518 16.9433C22.5829 16.6116 22.5829 16.0659 22.2518 15.7342C21.9208 15.4025 21.3762 15.4025 21.0451 15.7342L18.1618 18.6396V6.16869C18.1618 5.6979 17.7773 5.31271 17.3075 5.31271C16.8376 5.31271 16.4532 5.6979 16.4532 6.16869V18.6611L13.5485 15.7342C13.2175 15.4025 12.6728 15.4025 12.3418 15.7342C12.0107 16.0659 12.0107 16.6116 12.3418 16.9433L16.6978 21.3293L16.6992 21.3306C16.8466 21.4879 17.0481 21.5728 17.2539 21.5854Z" class="icon-base"></path>
</svg>
