<svg viewBox="0 0 24 24" fill="currentColor" xmlns="http://www.w3.org/2000/svg" focusable="false">
  <title>Sort Table Active Icon</title>
  <path fill-rule="evenodd" clip-rule="evenodd" d="M16.3891 7.96586C16.5606 8.12664 16.775 8.21239 17 8.21239C17.2251 8.21239 17.4395 8.13736 17.611 7.96586C17.9433 7.63359 17.9433 7.08696 17.611 6.75469L12.6055 1.7492C12.2732 1.41693 11.7266 1.41693 11.3943 1.7492L6.38885 6.75469C6.05658 7.08696 6.05658 7.63359 6.38885 7.96586C6.72112 8.29813 7.26776 8.29813 7.60003 7.96586L11.9946 3.57133L16.3891 7.96586ZM11.995 22.5C11.9985 22.5 12.002 22.5 12.0055 22.5H11.9841C11.9877 22.5 11.9914 22.5 11.995 22.5ZM11.3945 22.2535C11.5528 22.4118 11.7734 22.4973 11.995 22.5C12.2265 22.4973 12.4367 22.4118 12.595 22.2535L17.6005 17.248C17.9328 16.9157 17.9328 16.3691 17.6005 16.0368C17.2682 15.7046 16.7216 15.7046 16.3893 16.0368L11.9948 20.4314L7.60024 16.0368C7.26797 15.7046 6.72133 15.7046 6.38906 16.0368C6.05679 16.3691 6.05679 16.9157 6.38906 17.248L11.3945 22.2535Z" class="icon-base"></path>
</svg>
