<svg viewBox="0 0 24 24" fill="currentColor" xmlns="http://www.w3.org/2000/svg" focusable="false">
  <title>Spinner Icon</title>
  <path d="M11.0784 23.8004C10.542 23.8004 10.1031 23.3665 10.1031 22.8362C10.1031 22.3058 10.542 21.8719 11.0784 21.8719C16.5885 21.8719 21.0746 17.4362 21.0746 11.9879C21.0746 6.53973 16.5885 2.10402 11.0784 2.10402C7.73818 2.10402 4.62959 3.7433 2.76444 6.50357C2.45968 6.94955 1.86234 7.07009 1.41129 6.76875C0.960245 6.46741 0.83834 5.87679 1.1431 5.4308C3.37397 2.14018 7.07989 0.1875 11.0784 0.1875C17.6613 0.1875 23.0251 5.49107 23.0251 12C23.0251 18.5089 17.6613 23.8125 11.0784 23.8125V23.8004Z" class="icon-base"></path>
</svg>
