<svg viewBox="0 0 24 24" fill="currentColor" xmlns="http://www.w3.org/2000/svg" focusable="false">
  <title>Standard Building Icon</title>
  <path fill-rule="evenodd" clip-rule="evenodd" d="M20.9225 22C20.6049 22 7.0131 21.9998 7.0131 21.9998V5.60379C7.0131 4.72781 8.48508 3.82286 7.65496 3.82286L9.16362 3.71875C8.33349 3.71875 7.65496 4.43477 7.65496 5.31074V21.3906C7.65496 21.7258 7.39509 22 7.07748 22C6.75987 22 6.5 21.7258 6.5 21.3906V5.31074C6.5 3.76445 7.69827 2.5 9.16362 2.5H18.8364C20.3017 2.5 21.5 3.76445 21.5 5.31074V21.3906C21.5 21.7258 21.2401 22 20.9225 22Z" fill="transparent" class="icon-offset"></path>
  <path fill-rule="evenodd" clip-rule="evenodd" d="M17.1914 2C18.7644 2 20.0508 3.29683 20.0508 4.88281V20.7422H20.8799C21.2207 20.7423 21.5 21.0235 21.5 21.3672C21.5 21.7109 21.2207 21.9921 20.8799 21.9922H19.5078C19.4825 21.9954 19.4568 22 19.4307 22C19.4048 22 19.3796 21.9954 19.3545 21.9922H14.4941C14.469 21.9954 14.4439 22 14.418 22C14.3918 22 14.3661 21.9954 14.3408 21.9922H9.65918C9.63408 21.9954 9.60892 22 9.58301 22C9.55693 22 9.53112 21.9954 9.50586 21.9922H4.64551C4.62041 21.9953 4.59525 22 4.56934 22C4.5431 22 4.51759 21.9954 4.49219 21.9922H3.12012C2.77918 21.9922 2.5 21.7109 2.5 21.3672C2.50004 21.0235 2.7792 20.7422 3.12012 20.7422H3.94922V4.88281C3.94922 3.29686 5.23566 2.00004 6.80859 2H17.1914ZM6.80859 3.25C5.91754 3.25004 5.18945 3.98437 5.18945 4.88281V20.7422H8.96289V17.0859C8.96289 16.1172 9.73745 15.3282 10.6982 15.3281H13.3018C14.2548 15.3281 15.0371 16.1172 15.0371 17.0859V20.7422H18.8115V4.88281C18.8115 3.98435 18.0825 3.25 17.1914 3.25H6.80859ZM10.6982 16.5781C10.4271 16.5782 10.2021 16.8047 10.2021 17.0859V20.7422H13.7979V17.0859C13.7979 16.8125 13.573 16.5781 13.3018 16.5781H10.6982ZM10.2168 10.7969C10.5577 10.7969 10.8369 11.0781 10.8369 11.4219C10.8368 11.7656 10.5577 12.0469 10.2168 12.0469H9.14746C8.80665 12.0468 8.52741 11.7655 8.52734 11.4219C8.52734 11.0782 8.80661 10.797 9.14746 10.7969H10.2168ZM14.8428 10.7969C15.1837 10.7969 15.4629 11.0781 15.4629 11.4219C15.4628 11.7656 15.1837 12.0469 14.8428 12.0469H13.7734C13.4326 12.0468 13.1534 11.7655 13.1533 11.4219C13.1533 11.0782 13.4326 10.7969 13.7734 10.7969H14.8428ZM10.2168 7.07031C10.5577 7.07031 10.8369 7.35155 10.8369 7.69531C10.8368 8.03897 10.5577 8.32031 10.2168 8.32031H9.14746C8.80668 8.32021 8.52747 8.03891 8.52734 7.69531C8.52734 7.35161 8.80661 7.07041 9.14746 7.07031H10.2168ZM14.8428 7.07031C15.1837 7.07031 15.4629 7.35155 15.4629 7.69531C15.4628 8.03897 15.1836 8.32031 14.8428 8.32031H13.7734C13.4326 8.32025 13.1534 8.03893 13.1533 7.69531C13.1533 7.35159 13.4326 7.07037 13.7734 7.07031H14.8428Z" class="icon-base"></path>
</svg>
