<svg viewBox="0 0 24 24" fill="currentColor" xmlns="http://www.w3.org/2000/svg" focusable="false">
  <title>Star Icon</title>
  <path d="M8.24381 24C7.82561 24 7.40741 23.8616 7.05481 23.5847C6.43981 23.1088 6.14461 22.33 6.27581 21.5426L7.03841 16.9135C7.07941 16.6885 7.00561 16.4549 6.84161 16.2905L3.61082 13.0111C3.06142 12.4574 2.86462 11.6354 3.09422 10.8739C3.33202 10.1038 3.94701 9.55006 4.71781 9.43758L9.18681 8.76267C9.41641 8.72806 9.60501 8.58096 9.70341 8.3733L11.7042 4.15946C12.0486 3.44129 12.7292 3 13.5 3C14.2708 3 14.9514 3.44994 15.2958 4.15946L17.2966 8.3733C17.395 8.58096 17.5918 8.72806 17.8132 8.76267L22.2822 9.43758C23.0448 9.55006 23.668 10.1038 23.9058 10.8739C24.1354 11.6354 23.9386 12.4574 23.3892 13.0111L20.1584 16.2905C19.9944 16.4549 19.9288 16.6885 19.9616 16.9135L20.7242 21.5426C20.8554 22.33 20.552 23.1088 19.937 23.5847C19.3138 24.0692 18.502 24.1298 17.8214 23.7577L13.828 21.5686C13.623 21.4561 13.3852 21.4561 13.1802 21.5686L9.18681 23.7577C8.89161 23.9221 8.57181 24 8.26021 24H8.24381Z" fill="transparent" class="icon-offset"></path>
  <path d="M6.49351 23C6.0554 23 5.61729 22.855 5.2479 22.5649C4.60361 22.0663 4.29435 21.2505 4.4318 20.4256L5.23071 15.576C5.27367 15.3403 5.19635 15.0956 5.02454 14.9234L1.6399 11.4878C1.06434 10.9077 0.858169 10.0466 1.0987 9.24887C1.34783 8.44211 1.99211 7.86197 2.79961 7.74413L7.48142 7.03708C7.72195 7.00082 7.91953 6.84672 8.02262 6.62917L10.1187 2.21467C10.4795 1.4623 11.1925 1 12 1C12.8075 1 13.5205 1.47136 13.8813 2.21467L15.9774 6.62917C16.0805 6.84672 16.2866 7.00082 16.5186 7.03708L21.2004 7.74413C21.9993 7.86197 22.6522 8.44211 22.9013 9.24887C23.1418 10.0466 22.9357 10.9077 22.3601 11.4878L18.9755 14.9234C18.8036 15.0956 18.7349 15.3403 18.7693 15.576L19.5682 20.4256C19.7056 21.2505 19.3878 22.0663 18.7435 22.5649C18.0906 23.0725 17.2402 23.136 16.5272 22.7462L12.3436 20.4528C12.1289 20.335 11.8797 20.335 11.665 20.4528L7.48142 22.7462C7.17216 22.9184 6.83713 23 6.51069 23H6.49351ZM11.9914 2.45941C11.7079 2.45941 11.4674 2.61351 11.3385 2.87639L9.24246 7.29089C8.93321 7.93449 8.34905 8.38772 7.66182 8.48743L2.98001 9.19448C2.69653 9.2398 2.48177 9.43016 2.39586 9.71117C2.35291 9.83807 2.29278 10.1735 2.57626 10.4635L5.9609 13.8991C6.45915 14.4067 6.6825 15.1319 6.57083 15.848L5.77191 20.6976C5.70319 21.0964 5.94372 21.3321 6.04681 21.4137C6.27875 21.595 6.57083 21.6131 6.81995 21.4771L11.0035 19.1838C11.6134 18.8484 12.3436 18.8484 12.9535 19.1838L17.1371 21.4771C17.3948 21.6131 17.6783 21.595 17.9102 21.4137C18.0133 21.3321 18.2539 21.0964 18.1937 20.6976L17.3948 15.848C17.2745 15.1319 17.5065 14.4067 18.0047 13.8991L21.3894 10.4635C21.6729 10.1735 21.6127 9.84714 21.5698 9.71117C21.4839 9.43016 21.2691 9.2398 20.9856 9.19448L16.3038 8.48743C15.6252 8.38772 15.0324 7.93449 14.7232 7.29089L12.6271 2.87639C12.5068 2.61351 12.2577 2.45941 11.9742 2.45941H11.9914Z" class="icon-base"></path>
</svg>
