<svg viewBox="0 0 24 24" fill="currentColor" xmlns="http://www.w3.org/2000/svg" focusable="false">
  <title>Support Icon</title>
  <path d="M13 24C7.20859 24 2.5 19.2914 2.5 13.5C2.5 7.70859 7.20859 3 13 3C18.7914 3 23.5 7.70859 23.5 13.5C23.5 19.2914 18.7914 24 13 24Z" fill="transparent" class="icon-offset"></path>
  <path fill-rule="evenodd" clip-rule="evenodd" d="M0 11.9999C0 18.6121 5.38771 23.9998 11.9999 23.9998C18.6121 23.9998 23.9998 18.6121 23.9998 11.9999C23.9998 5.38771 18.6121 0 11.9999 0C5.38771 0 0 5.38771 0 11.9999ZM1.95917 11.9999C1.95917 6.46526 6.46526 1.95917 11.9999 1.95917C17.5346 1.95917 22.0406 6.46526 22.0406 11.9999C22.0406 17.5346 17.5346 22.0406 11.9999 22.0406C6.46526 22.0406 1.95917 17.5346 1.95917 11.9999ZM12.9794 7.45715C12.9794 6.91837 12.5386 6.47756 11.9998 6.47756C11.461 6.47756 11.0202 6.91837 11.0202 7.45715V7.53062C11.0202 8.06939 11.461 8.5102 11.9998 8.5102C12.5386 8.5102 12.9794 8.06939 12.9794 7.53062V7.45715ZM12.9916 11.253C12.9916 10.7143 12.5508 10.2735 12.012 10.2735C11.4733 10.2735 11.0324 10.7143 11.0324 11.253V16.5183C11.0324 17.0571 11.4733 17.4979 12.012 17.4979C12.5508 17.4979 12.9916 17.0571 12.9916 16.5183V11.253Z" class="icon-base"></path>
</svg>
