<svg viewBox="0 0 24 24" fill="currentColor" xmlns="http://www.w3.org/2000/svg" focusable="false">
  <title>Tall Building Icon</title>
  <path fill-rule="evenodd" clip-rule="evenodd" d="M16.9531 2.5C18.4105 2.50006 19.5898 3.71522 19.5898 5.19922V8.71094H20.3418C21.5722 8.71109 22.5645 9.6393 22.5645 10.7725V21.3896C22.5645 21.7243 22.2692 21.998 21.9082 21.998C21.6677 21.998 20.0742 21.997 19.0869 21.9893C19.055 21.9947 19.0226 22 18.9893 22C18.6587 22 9.00205 21.9982 8.14453 22V21.9785C7.8845 21.9109 7.68945 21.6712 7.68945 21.3848V5.19922C7.68945 3.70749 8.87721 2.5 10.3271 2.5H16.9531Z" fill="transparent" class="icon-offset"></path>
  <path fill-rule="evenodd" clip-rule="evenodd" d="M15.6191 2C17.2104 2.00019 18.498 3.24657 18.498 4.76855V8.22266H19.2188C20.4491 8.22277 21.4413 9.18444 21.4414 10.3594V20.7383H21.8447C22.2056 20.7383 22.5009 21.0222 22.501 21.3691C22.501 21.7161 22.2057 22 21.8447 22H2.15723C1.79627 22 1.50098 21.7161 1.50098 21.3691C1.50103 21.0222 1.79631 20.7383 2.15723 20.7383H2.69043V10.3594C2.69055 9.17649 3.69084 8.22266 4.91309 8.22266H5.50391V4.76855C5.50391 3.23857 6.80052 2 8.38379 2H15.6191ZM4.91309 9.48438C4.41275 9.48438 4.00305 9.87839 4.00293 10.3594V20.7383H5.50391V9.48438H4.91309ZM8.38379 3.26172C7.52243 3.26172 6.81641 3.94047 6.81641 4.76855V20.7383H9.13574V18.625C9.13574 17.8285 9.80829 17.1818 10.6367 17.1816H13.377C14.2055 17.1817 14.8701 17.8285 14.8701 18.625V20.7383H17.1855V8.86328C17.1855 8.86002 17.1846 8.85678 17.1846 8.85352C17.1846 8.85034 17.1855 8.84692 17.1855 8.84375V4.76855C17.1855 3.94059 16.4803 3.26191 15.6191 3.26172H8.38379ZM10.6367 18.4434C10.5384 18.4435 10.4482 18.5226 10.4482 18.625V20.7383H13.5576V18.625C13.5576 18.5304 13.4672 18.4434 13.377 18.4434H10.6367ZM18.498 20.7383H20.1289V10.3594C20.1288 9.87846 19.719 9.48449 19.2188 9.48438H18.498V20.7383ZM10.0547 13.2539C10.4156 13.1908 10.7517 13.4118 10.8174 13.7588C10.883 14.1137 10.6451 14.4369 10.2842 14.5C10.2434 14.5 10.2107 14.5078 10.1699 14.5078C9.85819 14.5078 9.57891 14.2949 9.52148 13.9873C9.45599 13.6483 9.69388 13.3092 10.0547 13.2539ZM13.6895 13.2539C14.042 13.1753 14.395 13.3964 14.4688 13.7354C14.5424 14.0901 14.3204 14.4212 13.9678 14.4922C13.9186 14.5001 13.8773 14.5078 13.8281 14.5078C13.5247 14.5077 13.2541 14.3024 13.1885 14.0107C13.1149 13.6718 13.3368 13.3327 13.6895 13.2539ZM10.1699 11.0459H10.1611C10.1626 11.0459 10.1645 11.0449 10.166 11.0449C10.1672 11.0449 10.1687 11.0459 10.1699 11.0459ZM13.6895 9.79199C14.042 9.72127 14.3948 9.9258 14.4688 10.2646C14.5508 10.6117 14.3205 10.9514 13.9678 11.0303C13.9186 11.0382 13.8691 11.0459 13.8281 11.0459C13.5247 11.0458 13.2541 10.8484 13.1885 10.5488C13.1065 10.2097 13.3285 9.86296 13.6895 9.79199ZM10.0469 9.79199C10.4078 9.72901 10.744 9.95 10.8096 10.2891C10.8749 10.6438 10.6368 10.9671 10.2842 11.0381C10.2448 11.0381 10.2054 11.0444 10.166 11.0449C9.85585 11.0432 9.58686 10.8317 9.52148 10.5332C9.45586 10.1941 9.69413 9.85508 10.0469 9.79199ZM10.0547 6.24316C10.4156 6.18007 10.7518 6.40893 10.8174 6.74805C10.8828 7.10281 10.645 7.42619 10.2842 7.48926C10.2434 7.4893 10.2107 7.49704 10.1699 7.49707V7.50488C9.85823 7.50488 9.57896 7.29188 9.52148 6.98438C9.45587 6.63743 9.69385 6.30634 10.0547 6.24316ZM13.6895 6.25098C14.042 6.18027 14.3948 6.39263 14.4688 6.73145C14.5426 7.08634 14.3205 7.41828 13.9678 7.48926C13.9186 7.49714 13.8773 7.50488 13.8281 7.50488C13.5247 7.50474 13.2541 7.29951 13.1885 7.00781C13.1147 6.66872 13.3367 6.32984 13.6895 6.25098Z" class="icon-base"></path>
</svg>
