<svg viewBox="0 0 24 24" fill="currentColor" xmlns="http://www.w3.org/2000/svg" focusable="false">
  <title>Threads Icon</title>
  <path d="M17.0979 11.2237C17.0034 11.177 16.9089 11.142 16.8144 11.0953C16.649 8.107 14.9949 6.39105 12.2184 6.37938C12.2066 6.37938 12.1947 6.37938 12.1829 6.37938C10.5288 6.37938 9.14648 7.07977 8.29581 8.35214L9.81993 9.39105C10.4579 8.43385 11.4504 8.23541 12.1829 8.23541C12.1829 8.23541 12.1947 8.23541 12.2065 8.23541C13.1163 8.23541 13.8134 8.50389 14.2505 9.01751C14.5695 9.39105 14.794 9.90467 14.9004 10.5584C14.0851 10.4183 13.2108 10.3833 12.2774 10.43C9.64271 10.5817 7.94136 12.0992 8.05951 14.2121C8.11858 15.286 8.66207 16.2082 9.58363 16.8035C10.3634 17.3171 11.3677 17.5623 12.4192 17.5039C13.8016 17.4339 14.8767 16.9086 15.6329 15.963C16.2118 15.2393 16.5663 14.3054 16.7317 13.1265C17.3933 13.5233 17.8777 14.037 18.1495 14.6556C18.6102 15.7062 18.6339 17.4455 17.2043 18.858C15.9519 20.0953 14.4396 20.6323 12.1711 20.644C9.64271 20.6206 7.72869 19.8269 6.48812 18.2626C5.33026 16.8035 4.7277 14.6907 4.70407 11.9942C4.7277 9.29767 5.33026 7.18483 6.48812 5.72568C7.72869 4.16148 9.64271 3.3677 12.1711 3.34436C14.7113 3.3677 16.6608 4.17315 17.9486 5.73735C18.5866 6.50778 19.0592 7.47665 19.3664 8.59728L21.1505 8.13035C20.7724 6.74124 20.1698 5.55058 19.3546 4.55837C17.7005 2.55058 15.2784 1.52335 12.1711 1.5H12.1593C9.05196 1.52335 6.65353 2.55058 5.0467 4.57004C3.61709 6.3677 2.88457 8.86576 2.84912 11.9942V12.0058C2.87275 15.1342 3.61709 17.6323 5.0467 19.43C6.65353 21.4494 9.04015 22.4767 12.1593 22.5H12.1711C14.9358 22.4767 16.8853 21.7646 18.4921 20.177C20.5952 18.0992 20.5243 15.5078 19.839 13.9086C19.3428 12.7646 18.3976 11.8307 17.0979 11.2237ZM12.3247 15.6595C11.1668 15.7296 9.96171 15.216 9.90264 14.107C9.85538 13.2899 10.4934 12.3794 12.3956 12.2743C12.6083 12.2626 12.8327 12.251 13.0336 12.251C13.7189 12.251 14.3687 12.321 14.9594 12.4494C14.7349 15.1576 13.4589 15.5895 12.3247 15.6479V15.6595Z" class="icon-base"></path>
</svg>
