<svg viewBox="0 0 24 24" fill="currentColor" xmlns="http://www.w3.org/2000/svg" focusable="false">
  <title>Thumbs Up Icon</title>
  <path d="M13.1646 2.17529C13.4872 2.1753 13.7346 2.19675 13.939 2.23975C14.7353 2.40116 15.3699 2.86448 15.7896 3.58545C16.4997 4.80134 16.5113 6.65183 15.812 9.0835H16.3276C18.6088 9.0835 19.7499 9.08362 20.6646 9.63232C21.5038 10.138 22.1172 10.9345 22.3862 11.8813C22.6768 12.9144 22.3863 14.0123 21.7944 16.2183L21.2778 18.144C20.9658 19.2952 20.7939 19.9303 20.396 20.4683C20.0194 20.9632 19.5239 21.3399 18.9536 21.5659C18.3295 21.8134 17.6732 21.814 16.479 21.814L16.4575 21.8247H11.8628C11.4431 21.8247 11.2274 21.8248 11.0229 21.7925C10.8077 21.7602 10.5926 21.7057 10.3882 21.6411C10.1838 21.5766 10.0008 21.4802 9.62451 21.2866L7.93506 20.4312C7.92062 20.4647 7.90869 20.4995 7.89209 20.5327C7.66613 20.9846 7.30005 21.3507 6.84814 21.5767C6.35315 21.8242 5.83608 21.8247 4.8999 21.8247H4.73877C3.80281 21.8247 3.28642 21.8241 2.7915 21.5767C2.33956 21.3507 1.97353 20.9847 1.74756 20.5327C1.50016 20.0378 1.49951 19.5214 1.49951 18.5854V10.9019C1.49951 9.96591 1.50013 9.44951 1.74756 8.95459C1.97353 8.50264 2.35032 8.13662 2.7915 7.91064C3.2864 7.66326 3.80283 7.66357 4.73877 7.66357H4.8999C5.83608 7.66357 6.35315 7.66315 6.84814 7.91064C7.20209 8.08763 7.50162 8.35157 7.72412 8.67432C8.36366 8.068 9.51248 6.49005 11.0337 3.53174C11.2166 3.16588 11.3458 2.92859 11.5718 2.71338C11.7654 2.51974 12.0343 2.35807 12.2925 2.27197C12.5938 2.17513 12.831 2.17529 13.1646 2.17529ZM4.73877 9.2876C4.11475 9.2876 3.66284 9.28845 3.51221 9.36377C3.37241 9.42835 3.26426 9.54621 3.18896 9.68604C3.11368 9.83672 3.11377 10.2887 3.11377 10.9019V18.5854C3.11377 19.2093 3.11373 19.6612 3.18896 19.812C3.25353 19.9519 3.37232 20.0599 3.51221 20.1353C3.663 20.2105 4.11496 20.2104 4.73877 20.2104H4.8999C5.52402 20.2104 5.97679 20.2106 6.12744 20.1353C6.26724 20.0707 6.37441 19.9518 6.44971 19.812C6.52502 19.6614 6.5249 19.2095 6.5249 18.5854V10.9019C6.5249 10.2779 6.52502 9.83668 6.44971 9.67529C6.38519 9.53564 6.26707 9.41761 6.12744 9.35303C5.97679 9.2777 5.52402 9.27686 4.8999 9.27686H4.73877V9.2876ZM13.0571 3.80029C12.9172 3.80029 12.8306 3.80027 12.7983 3.81104C12.7661 3.81122 12.7124 3.854 12.6909 3.87549C12.6586 3.90777 12.5514 4.10176 12.4653 4.27393C10.2784 8.54577 8.93434 9.92129 8.13525 10.3657C8.13752 10.5285 8.13916 10.706 8.13916 10.9019V18.5854C8.13916 18.632 8.13821 18.6776 8.13818 18.7222L10.356 19.8442C10.6357 19.9841 10.7756 20.06 10.9155 20.1138C11.0229 20.146 11.1304 20.1782 11.2485 20.189C11.3992 20.2105 11.5615 20.2104 11.8735 20.2104H16.4683C17.4902 20.2104 18.0068 20.2106 18.3296 20.0815C18.6307 19.9632 18.8889 19.7586 19.0933 19.5005C19.3084 19.2208 19.4484 18.6932 19.7065 17.7358L20.2231 15.8091C20.7181 13.9583 20.9979 12.9361 20.8257 12.3335C20.6643 11.7849 20.3097 11.3223 19.8257 11.021C19.2876 10.6982 18.2323 10.6978 16.3169 10.6978H15.187C14.9611 10.6978 14.7137 10.6979 14.4663 10.5474C14.2296 10.3967 14.0787 10.1815 14.0034 9.93408C13.9281 9.63278 14.0033 9.40615 14.0786 9.18018C15.0362 6.21042 14.6817 4.91933 14.3804 4.40283C14.1975 4.0909 13.9394 3.89715 13.606 3.83252C13.4662 3.80026 13.2293 3.80029 13.0571 3.80029Z" class="icon-base"></path>
</svg>
