<svg viewBox="0 0 24 24" fill="currentColor" xmlns="http://www.w3.org/2000/svg" focusable="false">
  <title>Thumbs Down Icon</title>
  <path d="M19.2597 2.17529C20.1964 2.17529 20.7137 2.17499 21.2089 2.42236C21.6609 2.64823 22.0269 3.01378 22.2529 3.46533C22.5005 3.96008 22.5009 4.47687 22.5009 5.4126V13.0913C22.5009 14.027 22.5005 14.5438 22.2529 15.0386C22.0268 15.4901 21.6609 15.8557 21.2089 16.0815C20.7137 16.3289 20.1964 16.3286 19.2597 16.3286H19.0986C18.1619 16.3286 17.6446 16.3289 17.1494 16.0815C16.7902 15.9021 16.4871 15.6332 16.2636 15.3042C15.6269 15.9005 14.4746 17.4802 12.9501 20.4585C12.7672 20.8241 12.638 21.0608 12.4121 21.2866C12.2183 21.4802 11.9488 21.642 11.6904 21.728C11.4322 21.8139 11.2063 21.8247 10.9482 21.8247L10.9697 21.814C10.6253 21.814 10.3022 21.7925 10.0654 21.7495C9.27945 21.5882 8.63272 21.1254 8.21284 20.4048C7.5025 19.1894 7.49163 17.3392 8.19136 14.9087H7.67475C5.39245 14.9087 4.25099 14.9094 3.33589 14.3608C2.49618 13.8553 1.88239 13.0592 1.61323 12.1128C1.32255 11.0803 1.61387 9.98269 2.206 7.78857L2.72261 5.86377C3.03482 4.70218 3.20707 4.0783 3.60542 3.54053C3.98216 3.04587 4.47733 2.66972 5.0478 2.44385C5.67224 2.19647 6.32932 2.1958 7.52436 2.1958H12.121C12.5407 2.1958 12.7564 2.1958 12.9609 2.22803C13.1762 2.26029 13.3921 2.31389 13.5966 2.37842C13.7903 2.44293 13.9838 2.54044 14.3496 2.72314L16.0517 3.5874C16.0687 3.54673 16.0853 3.5055 16.1054 3.46533C16.3315 3.01377 16.6974 2.64822 17.1494 2.42236C17.6446 2.17499 18.1619 2.17529 19.0986 2.17529H19.2597ZM7.50288 3.79834C6.48066 3.79834 5.9636 3.79839 5.64058 3.92725C5.3392 4.04553 5.08046 4.25026 4.87593 4.5083C4.66062 4.78792 4.53077 5.28265 4.26167 6.26123L3.74507 8.18701C3.24991 10.0366 2.97038 11.0583 3.14253 11.6606C3.30402 12.2092 3.65905 12.672 4.1435 12.9731C4.6818 13.2958 5.73698 13.2954 7.65327 13.2954H8.79487C9.03149 13.2954 9.26822 13.2956 9.51558 13.4458C9.74156 13.5856 9.90307 13.8118 9.96772 14.0698C10.0431 14.3494 9.96788 14.5862 9.89253 14.812C8.93434 17.7805 9.29029 19.0819 9.59175 19.5874C9.77472 19.8992 10.0326 20.0931 10.3662 20.1577C10.5277 20.19 10.776 20.1899 10.9375 20.1899C11.0662 20.1899 11.1414 20.1899 11.1738 20.1792C11.1952 20.1792 11.2594 20.1363 11.2812 20.1147C11.3135 20.0825 11.4216 19.8776 11.5078 19.7163C13.7157 15.4078 15.0635 14.045 15.8603 13.6138C15.8582 13.4548 15.8574 13.2816 15.8574 13.0913V5.30127L13.6289 4.17529C13.3489 4.03547 13.219 3.95954 13.0683 3.90576C12.9609 3.86291 12.8427 3.84128 12.7246 3.81982C12.5738 3.79831 12.4118 3.8091 12.0996 3.79834H7.50288ZM19.0986 3.79932C18.4741 3.79932 18.0218 3.79922 17.871 3.87451C17.7311 3.93906 17.6231 4.057 17.5478 4.19678C17.4725 4.34741 17.4726 4.79959 17.4726 5.42334V13.1021C17.4726 13.7259 17.4724 14.178 17.5478 14.3286C17.6231 14.4684 17.7311 14.5756 17.871 14.6509C18.0218 14.7262 18.4741 14.7261 19.0986 14.7261H19.2597C19.8842 14.7261 20.3365 14.7262 20.4873 14.6509C20.6271 14.5756 20.7352 14.4684 20.8105 14.3286C20.8858 14.178 20.8857 13.7258 20.8857 13.1021V5.42334C20.8857 4.79963 20.8858 4.34743 20.8105 4.19678C20.7459 4.05702 20.6271 3.9498 20.4873 3.87451C20.3365 3.79922 19.8842 3.79932 19.2597 3.79932H19.0986Z" class="icon-base"></path>
</svg>
