<svg viewBox="0 0 24 24" fill="currentColor" xmlns="http://www.w3.org/2000/svg" focusable="false">
  <title>Tiktok Icon</title>
  <path fill-rule="evenodd" clip-rule="evenodd" d="M9.6552 8.9025C5.90145 8.9025 2.85645 11.9387 2.85645 15.7013C2.85645 19.4637 5.90145 22.5 9.6552 22.5C13.4089 22.5 16.4539 19.4637 16.4539 15.7013V8.1325C16.4539 8.1325 18.8777 9.89125 21.1439 9.2875V5.5075C17.8977 5.20125 16.6114 2.55 16.2614 1.5H13.0939V15.605C13.0939 17.3463 11.6852 18.755 9.94395 18.755C8.2027 18.755 6.79395 17.3463 6.79395 15.605C6.79395 13.9688 8.03645 12.63 9.6202 12.4725C9.6202 11.4313 9.64645 8.9025 9.64645 8.9025H9.6552Z" class="icon-base"></path>
</svg>
