<svg viewBox="0 0 24 24" fill="currentColor" xmlns="http://www.w3.org/2000/svg" focusable="false">
  <title>Tiktok Icon</title>
  <path d="M9.85162 22.5C5.93019 22.5 2.74805 19.3179 2.74805 15.3964C2.74805 11.475 5.93019 8.29286 9.85162 8.29286C10.0766 8.29286 10.3016 8.38929 10.4623 8.55C10.623 8.71071 10.7088 8.93572 10.7088 9.16072C10.7088 9.16072 10.6766 11.4857 10.6766 12.4286C10.6766 12.8679 10.3445 13.2321 9.90519 13.2857C8.8659 13.3929 8.08376 14.2607 8.08376 15.3107C8.08376 16.4357 8.99448 17.3464 10.1195 17.3464C11.2445 17.3464 12.1552 16.4357 12.1552 15.3107V2.35714C12.1552 1.88571 12.5409 1.5 13.0123 1.5H15.9159C16.2802 1.5 16.6123 1.73571 16.7302 2.08929C16.9552 2.75357 17.8766 4.93929 20.4802 5.18571C20.9195 5.22857 21.2516 5.59286 21.2516 6.04286V9.51429C21.2516 9.9 20.9945 10.2429 20.6195 10.3393C19.2695 10.6929 17.9195 10.3286 16.9552 9.9V15.3964C16.9552 19.3179 13.773 22.5 9.85162 22.5ZM8.98376 10.0821C6.42305 10.5 4.46233 12.7286 4.46233 15.3964C4.46233 18.3643 6.88376 20.7857 9.85162 20.7857C12.8195 20.7857 15.2409 18.3643 15.2409 15.3964V8.45357C15.2409 8.13214 15.423 7.83214 15.7123 7.69286C16.0016 7.54286 16.3445 7.575 16.6016 7.75714C16.6123 7.76786 18.0909 8.80714 19.548 8.76429V6.76071C17.4052 6.27857 16.0123 4.73571 15.3373 3.20357H13.8695V15.3C13.8695 17.3679 12.1873 19.05 10.1195 19.05C8.05162 19.05 6.36948 17.3679 6.36948 15.3C6.36948 13.6393 7.44091 12.2143 8.97305 11.7321C8.97305 11.2071 8.97305 10.575 8.98376 10.0714V10.0821Z" class="icon-base"></path>
</svg>
