<svg viewBox="0 0 24 24" fill="currentColor" xmlns="http://www.w3.org/2000/svg" focusable="false">
  <title>Townhouse Icon</title>
  <path fill-rule="evenodd" clip-rule="evenodd" d="M21.1807 2.5C22.7332 2.5 23.9998 3.81588 24 5.42871V18.9512C23.9999 20.5641 22.7333 21.8799 21.1807 21.8799V21.8721H19.8447C18.1184 21.8738 16.8438 21.8726 15.9062 21.8682C15.6264 21.954 15.3327 22 15.0312 22V21.9922H6.95996C6.17459 21.9921 5.43915 21.689 4.87695 21.1416C4.31468 20.594 4.00005 19.8588 4 19.0742V13.3281C4.00009 12.6335 4.3474 11.9715 4.90137 11.5547L9.25977 8.09766C10.2769 7.29694 11.6988 7.30498 12.7158 8.09766L13.0205 8.33789C13.0073 7.1917 13 6.4285 13 6.35156V5.41309C13 3.80812 14.2597 2.5 15.8047 2.5H21.1807Z" fill="transparent" class="icon-offset"></path>
  <path fill-rule="evenodd" clip-rule="evenodd" d="M6.71777 7.99414C7.72663 7.18747 9.13753 7.19588 10.1465 7.99414L14.5029 11.4854C15.0444 11.897 15.3723 12.5482 15.3887 13.248V19.0527C15.3886 19.843 15.0767 20.5838 14.5107 21.1436C13.953 21.695 13.2234 21.9999 12.4443 22V21.9912H4.4375C3.65827 21.9912 2.92793 21.6873 2.37012 21.1357C1.81239 20.5842 1.50012 19.843 1.5 19.0527V13.2637C1.50013 12.564 1.8451 11.8974 2.39453 11.4775L6.71777 7.99414ZM19.5068 2C21.1557 2 22.502 3.3509 22.502 5.00586V18.8789C22.502 20.5339 21.1557 21.876 19.5068 21.876H18.0879C17.7271 21.8759 17.4317 21.5799 17.4316 21.2178C17.4316 20.8556 17.727 20.5587 18.0879 20.5586H19.5068C20.4338 20.5586 21.1895 19.8015 21.1895 18.8711V5.00586C21.1895 4.07546 20.4338 3.31738 19.5068 3.31738H13.7979C12.8791 3.31738 12.1328 4.06709 12.1328 4.98926V5.95215C12.1328 6.31427 11.8373 6.61108 11.4766 6.61133C11.1156 6.61133 10.8203 6.31443 10.8203 5.95215V4.98926C10.8203 3.34254 12.1572 2 13.7979 2H19.5068ZM8.43262 8.71094C8.1128 8.71094 7.80092 8.81775 7.53027 9.02344L3.19824 12.5146C2.94404 12.704 2.81289 12.9761 2.80469 13.2725V19.0527C2.80481 19.4889 2.97744 19.9005 3.28906 20.2051C3.60077 20.5096 4.00279 20.6826 4.4375 20.6826H7.78418V17.1836C7.78418 16.8213 8.07949 16.5244 8.44043 16.5244C8.80138 16.5244 9.09668 16.8213 9.09668 17.1836V20.6826H12.4355C12.8703 20.6826 13.2805 20.5175 13.584 20.2129C13.8957 19.9083 14.0684 19.4969 14.0684 19.0605V13.2637C14.0682 12.9839 13.92 12.7041 13.6904 12.5312L9.32617 9.03223C9.06374 8.8265 8.74423 8.7188 8.43262 8.71875V8.71094ZM18.3105 16.0137C18.6711 16.0139 18.9666 16.3021 18.9668 16.6641C18.9668 17.0426 18.6713 17.3308 18.3105 17.3311V17.3398C17.9496 17.3398 17.6543 17.0429 17.6543 16.6807C17.6545 16.3185 17.9497 16.0137 18.3105 16.0137ZM18.3105 11.3789C18.6713 11.3792 18.9667 11.675 18.9668 12.0371C18.9668 12.3992 18.6713 12.7038 18.3105 12.7041V12.6963C17.9497 12.6963 17.6545 12.408 17.6543 12.0459C17.6543 11.6672 17.9496 11.3789 18.3105 11.3789ZM14.9629 6.74316C15.3238 6.74316 15.6191 7.03128 15.6191 7.39355C15.6191 7.77226 15.3238 8.06055 14.9629 8.06055V8.06836C14.602 8.06835 14.3068 7.77233 14.3066 7.41016C14.3066 7.04789 14.602 6.74318 14.9629 6.74316ZM18.3105 6.74316C18.6713 6.74341 18.9668 7.03143 18.9668 7.39355C18.9668 7.7721 18.6713 8.0603 18.3105 8.06055V8.06836C17.9497 8.06836 17.6544 7.77234 17.6543 7.41016C17.6543 7.04788 17.9496 6.74316 18.3105 6.74316Z" class="icon-base"></path>
</svg>
