<svg viewBox="0 0 24 24" fill="currentColor" xmlns="http://www.w3.org/2000/svg" focusable="false">
  <title>Trading Icon</title>
  <path d="M21.2995 24H7.20053C5.70979 24 4.5 22.5432 4.5 20.7481V7.75191C4.5 5.95676 5.70979 4.5 7.20053 4.5H21.2995C22.7902 4.5 24 5.95676 24 7.75191V20.7481C24 22.5432 22.7902 24 21.2995 24Z" fill="transparent" class="icon-offset"></path>
  <path d="M2.11747 15.2179C1.92605 15.2179 1.73464 15.1253 1.61732 14.9585C1.41973 14.6806 1.48148 14.2976 1.75934 14.0938L5.92105 11.1229C6.16186 10.95 6.48912 10.9747 6.70524 11.1724L8.65025 13.0006L14.7446 8.38059C14.9916 8.19529 15.3374 8.22 15.5597 8.43618L18.9743 11.8888L21.4503 9.54794C21.6973 9.31324 22.0863 9.32559 22.3209 9.57265C22.5556 9.81971 22.5432 10.2088 22.2962 10.4435L19.3818 13.1982C19.141 13.4268 18.7582 13.4206 18.5174 13.1859L15.0595 9.68382L8.98368 14.2915C8.74287 14.4706 8.40944 14.4582 8.18715 14.2482L6.22979 12.4076L2.48177 15.0821C2.37063 15.1562 2.24713 15.1994 2.12364 15.1994L2.11747 15.2179Z" class="icon-base"></path>
  <path d="M15.1151 5.39735C14.7755 5.39735 14.4976 5.11941 14.4976 4.77971V2.11765C14.4976 1.77794 14.7755 1.5 15.1151 1.5C15.4547 1.5 15.7326 1.77794 15.7326 2.11765V4.77971C15.7326 5.11941 15.4547 5.39735 15.1151 5.39735Z" class="icon-base"></path>
  <path d="M15.1151 22.5C14.7755 22.5 14.4976 22.2221 14.4976 21.8824V14.1371C14.4976 13.7974 14.7755 13.5194 15.1151 13.5194C15.4547 13.5194 15.7326 13.7974 15.7326 14.1371V21.8824C15.7326 22.2221 15.4547 22.5 15.1151 22.5Z" class="icon-base"></path>
  <path d="M15.1151 10.4689C15.7943 10.4689 16.35 9.91297 16.35 9.23356C16.35 8.55415 15.7943 7.99826 15.1151 7.99826C14.4359 7.99826 13.8802 8.55415 13.8802 9.23356C13.8802 9.91297 14.4359 10.4689 15.1151 10.4689Z" class="icon-base"></path>
  <path d="M15.1151 11.0862C14.0963 11.0862 13.2627 10.2524 13.2627 9.23326C13.2627 8.21414 14.0963 7.38031 15.1151 7.38031C16.134 7.38031 16.9675 8.21414 16.9675 9.23326C16.9675 10.2524 16.134 11.0862 15.1151 11.0862ZM15.1151 8.61561C14.7755 8.61561 14.4977 8.89355 14.4977 9.23326C14.4977 9.57296 14.7755 9.8509 15.1151 9.8509C15.4548 9.8509 15.7326 9.57296 15.7326 9.23326C15.7326 8.89355 15.4548 8.61561 15.1151 8.61561Z" class="icon-base"></path>
  <path d="M19.5917 22.5H4.40826C2.80285 22.5 1.5 20.9312 1.5 18.9979V5.00206C1.5 3.06882 2.80285 1.5 4.40826 1.5H19.5917C21.1971 1.5 22.5 3.06882 22.5 5.00206V18.9979C22.5 20.9312 21.1971 22.5 19.5917 22.5ZM4.40826 2.73529C3.48824 2.73529 2.73493 3.75441 2.73493 5.00206V18.9979C2.73493 20.2456 3.48824 21.2647 4.40826 21.2647H19.5917C20.5118 21.2647 21.2651 20.2456 21.2651 18.9979V5.00206C21.2651 3.75441 20.5118 2.73529 19.5917 2.73529H4.40826Z" class="icon-base"></path>
</svg>
