<svg viewBox="0 0 24 24" fill="currentColor" xmlns="http://www.w3.org/2000/svg" focusable="false">
  <title>Travel Icon</title>
  <path d="M10.0395 23.9918C10.0395 23.9918 9.99021 23.9918 9.95738 23.9918C9.76038 23.9672 9.5798 23.8524 9.47309 23.6801L7.1666 19.8331L3.31697 17.5281C3.1446 17.4215 3.02968 17.2492 3.00506 17.0442C2.98043 16.8473 3.0461 16.6422 3.19385 16.5028L4.78623 14.9115C4.92577 14.772 5.12276 14.6982 5.31155 14.7228L7.98742 14.9853L9.82604 12.7788L5.13918 8.01306C5.01606 7.88182 4.94219 7.70957 4.95039 7.52911C4.95039 7.34865 5.03248 7.17639 5.17201 7.06156C5.35259 6.89751 5.52497 6.73345 5.69734 6.5776C6.09133 6.20848 6.49353 5.83116 6.94498 5.51126C7.73296 4.95348 8.6769 4.87145 9.84246 5.27338C11.6565 5.90499 13.4294 6.52018 15.2024 7.1846C15.3419 7.23381 15.383 7.22561 15.383 7.22561C15.383 7.22561 15.424 7.2092 15.5307 7.10257C16.5239 6.07724 17.4268 5.15855 18.3872 4.29727C19.7497 3.06687 21.8592 2.37785 23.2464 3.7723C24.5761 5.10113 23.9851 7.21741 22.7211 8.62826C21.851 9.58797 20.9317 10.4903 19.9139 11.4828C19.8154 11.5812 19.788 11.6933 19.8318 11.8191C20.4967 13.5827 21.1123 15.3544 21.7443 17.1754C22.1383 18.3156 22.0644 19.2917 21.5063 20.0709C21.1861 20.5221 20.8004 20.924 20.4392 21.3177C20.275 21.49 20.1191 21.6622 19.9549 21.8427C19.8318 21.9739 19.6676 22.056 19.4871 22.0642C19.3147 22.0642 19.1341 21.9986 19.0028 21.8755L14.2338 17.1836L12.0094 19.0046L12.2885 21.6869C12.3049 21.8837 12.2392 22.0806 12.0997 22.22L10.5073 23.8113C10.3842 23.9344 10.22 24 10.0395 24V23.9918Z" fill="transparent" class="icon-offset"></path>
  <path d="M8.53946 22.4918C8.53946 22.4918 8.49021 22.4918 8.45737 22.4918C8.26038 22.4672 8.0798 22.3524 7.97309 22.1801L5.6666 18.3331L1.81697 16.0281C1.6446 15.9215 1.52968 15.7492 1.50506 15.5442C1.48043 15.3473 1.5461 15.1422 1.69385 15.0028L3.28623 13.4115C3.42577 13.272 3.62276 13.1982 3.81155 13.2228L6.48742 13.4853L8.32604 11.2788L3.63918 6.51306C3.51606 6.38182 3.44219 6.20957 3.45039 6.02911C3.45039 5.84865 3.53247 5.67639 3.67201 5.56156C3.85259 5.3975 4.02496 5.23345 4.19734 5.0776C4.59133 4.70848 4.99353 4.33116 5.44498 4.01126C6.23296 3.45348 7.1769 3.37145 8.34246 3.77338C10.1565 4.40499 11.9294 5.02018 13.7024 5.6846C13.8419 5.73381 13.883 5.72561 13.883 5.72561C13.883 5.72561 13.924 5.70921 14.0307 5.60257C15.0239 4.57724 15.9268 3.65855 16.8872 2.79727C18.2497 1.56687 20.3592 0.877852 21.7464 2.2723C23.0761 3.60113 22.4851 5.71741 21.2211 7.12826C20.351 8.08797 19.4317 8.99026 18.4139 9.98278C18.3154 10.0812 18.288 10.1933 18.3318 10.3191C18.9967 12.0827 19.6123 13.8544 20.2443 15.6754C20.6383 16.8156 20.5644 17.7917 20.0063 18.5709C19.6861 19.0221 19.3004 19.424 18.9392 19.8177C18.775 19.99 18.6191 20.1623 18.4549 20.3427C18.3318 20.4739 18.1676 20.556 17.9871 20.5642C17.8147 20.5642 17.6341 20.4986 17.5028 20.3755L12.7338 15.6836L10.5094 17.5046L10.7885 20.1869C10.8049 20.3837 10.7392 20.5806 10.5997 20.72L9.00732 22.3113C8.8842 22.4344 8.72004 22.5 8.53946 22.5V22.4918ZM3.22056 15.3227L6.48742 17.2831C6.5777 17.3405 6.65979 17.4144 6.70904 17.5046L8.67079 20.7692L9.45056 19.99L9.17148 17.2667C9.14686 17.0452 9.23715 16.832 9.40952 16.6925L12.3563 14.2728C12.6189 14.0595 12.9965 14.0759 13.2345 14.3138L17.9378 18.9401C17.9378 18.9401 17.9624 18.9154 17.9788 18.899C18.3318 18.5217 18.6683 18.1608 18.9392 17.7835C19.2429 17.3652 19.2593 16.8238 19.0049 16.0855C18.381 14.281 17.7572 12.5092 17.1006 10.762C16.8461 10.0812 16.9692 9.53163 17.4946 9.02307C18.5042 8.04696 19.4071 7.16107 20.2443 6.23417C20.9338 5.46313 21.6561 4.01946 20.8189 3.18279C19.9816 2.34612 18.5288 3.06796 17.7654 3.75698C16.8297 4.59365 15.9514 5.49594 14.9747 6.50486C14.4658 7.02983 13.9158 7.16107 13.2345 6.89859C11.478 6.24238 9.71322 5.62718 7.90743 4.99558C7.16869 4.74129 6.62695 4.7577 6.20834 5.0612C5.83076 5.33188 5.4696 5.66819 5.09203 6.02091C5.07561 6.03731 5.05919 6.04551 5.04278 6.06192L9.67218 10.762C9.91022 10.9999 9.92664 11.3854 9.70502 11.6397L7.26719 14.5763C7.12765 14.7403 6.92245 14.8305 6.70083 14.8059L3.99213 14.5352L3.21236 15.3145L3.22056 15.3227Z" class="icon-base"></path>
</svg>
