<svg viewBox="0 0 24 24" fill="currentColor" xmlns="http://www.w3.org/2000/svg" focusable="false">
  <title>Unlock Icon</title>
  <path d="M12.0127 1.40112C14.4978 1.40221 16.6215 2.96532 17.3984 5.16089C17.5456 5.57718 17.3273 6.03389 16.9111 6.1814C16.4947 6.32861 16.038 6.11044 15.8906 5.69409C15.3386 4.13413 13.8156 3.00003 12.0107 2.99976H12.0078C9.72587 2.9909 7.89758 4.78869 7.8877 6.97925V8.38452H16.1152C18.7963 8.38456 20.9999 10.5163 21 13.1824V17.7019C21 20.368 18.7963 22.4997 16.1152 22.4998H7.88477C5.20367 22.4998 3 20.3681 3 17.7019V13.1824C3.00005 11.0713 4.38188 9.29618 6.28809 8.64819V6.97241C6.30198 3.86647 8.88018 1.39053 12.0107 1.40112V1.40015L12.0117 1.40112L12.0137 1.40015L12.0127 1.40112ZM7.88477 9.98413C6.0547 9.98413 4.59968 11.4322 4.59961 13.1824V17.7019C4.59961 19.4521 6.05465 20.9001 7.88477 20.9001H16.1152C17.9453 20.9001 19.3994 19.4521 19.3994 17.7019V13.1824C19.3993 11.4323 17.9453 9.98417 16.1152 9.98413H7.88477ZM12 13.4714C12.4418 13.4714 12.7997 13.8295 12.7998 14.2712V16.613C12.7998 17.0549 12.4418 17.4128 12 17.4128C11.5582 17.4128 11.2002 17.0549 11.2002 16.613V14.2712C11.2003 13.8295 11.5582 13.4714 12 13.4714Z" class="icon-base"></path>
</svg>
