<svg viewBox="0 0 24 24" fill="currentColor" xmlns="http://www.w3.org/2000/svg" focusable="false">
  <title>User Star Icon</title>
  <path fill-rule="evenodd" clip-rule="evenodd" d="M7.86667 9.70311C7.86667 11.7958 9.00086 13.6378 10.7083 14.6886C7.91111 15.0741 5.75521 17.3964 5.75521 20.1963V20.7092C5.74619 21.2743 5.73716 21.8654 5.83643 22.4566C5.8897 22.7792 6.16122 23.0152 6.48315 23.0395V23.0415H6.52644C6.53421 23.0416 6.54201 23.0416 6.54983 23.0415H21.4248V23.0381C21.4418 23.0388 21.4563 23.039 21.4628 23.039L21.4575 23.0391H21.4665L21.4628 23.039C21.8125 23.0366 22.1166 22.7939 22.1704 22.4566C22.2627 21.907 22.2536 21.3649 22.2446 20.8303L22.2426 20.7092V20.1963C22.2426 17.3987 20.0903 15.078 17.2965 14.6896C19.0048 13.6389 20.1397 11.7965 20.1397 9.70311C20.1397 6.44303 17.3873 3.7915 14.0032 3.7915C10.6191 3.7915 7.86667 6.44303 7.86667 9.70311Z" fill="transparent" class="icon-offset"></path>
  <path fill-rule="evenodd" clip-rule="evenodd" d="M8.37829 13.3745C6.52761 12.226 5.2998 10.2232 5.2998 7.94902C5.2998 4.39258 8.30244 1.5 11.9942 1.5C15.686 1.5 18.6886 4.39258 18.6886 7.94902C18.6886 10.2518 17.4298 12.2762 15.5401 13.4174C15.8547 13.5816 16.0457 13.9395 15.9846 14.3085C15.909 14.7654 15.4806 14.9848 15.0187 14.9087C14.7676 14.8673 14.5671 14.8413 14.3937 14.8263H9.31614C6.70729 14.8263 4.59068 16.8653 4.59068 19.3785V19.9665C4.58084 20.5166 4.57099 21.0951 4.64975 21.5978C4.71866 22.015 4.43317 22.4039 4 22.4703C3.56683 22.5461 3.1632 22.2616 3.09429 21.8443C2.98599 21.1994 2.99584 20.5545 3.00568 19.9381V19.3785C3.00568 16.3344 5.34179 13.8078 8.37829 13.3745ZM6.87496 7.94902C6.87496 5.22715 9.16877 3.01742 11.9942 3.01742C14.8196 3.01742 17.1134 5.22715 17.1134 7.94902C17.1134 10.6709 14.8196 12.8806 11.9942 12.8806C9.16877 12.8806 6.87496 10.6709 6.87496 7.94902ZM15.8557 22.4863C15.6359 22.4863 15.416 22.3905 15.2479 22.2195C15.0539 22.0142 15.0539 21.7747 15.0539 21.6515C15.0539 21.6241 15.0539 21.5899 15.0604 21.5626L15.2932 20.0367L14.2198 18.9418C14.0776 18.7913 14 18.5792 14 18.3671C14 18.1549 14.0776 17.9428 14.2134 17.7991C14.2845 17.7239 14.3492 17.6828 14.3944 17.6623C14.4655 17.6007 14.5496 17.5665 14.6401 17.5528L16.082 17.3475L16.748 15.9379C16.7738 15.8832 16.8062 15.8353 16.845 15.7942L16.929 15.7053C17.026 15.6026 17.2006 15.5 17.3364 15.5H17.511C17.5562 15.5 17.595 15.5 17.6338 15.5137C17.983 15.6026 18.1705 15.7669 18.2222 16.0132L18.8494 17.3475L20.3042 17.5528C20.5758 17.5665 20.7374 17.7375 20.8021 17.806C20.9573 17.9702 21.0284 18.2097 20.9896 18.456C20.9573 18.6544 20.8603 18.8255 20.7245 18.9418L19.6835 20.0435L19.955 21.5626C19.955 21.5626 19.9615 21.631 19.9615 21.6652C19.9615 22.1168 19.6318 22.4863 19.2309 22.4863C19.1597 22.4863 18.9593 22.4863 18.7783 22.3563L17.5239 21.672L16.1919 22.4179C16.1919 22.4179 16.1402 22.4453 16.1143 22.4521C16.0238 22.4795 15.9398 22.5 15.8492 22.5L15.8557 22.4863ZM16.0626 19.2977C16.2501 19.4345 16.3471 19.6603 16.3471 19.9614C16.3471 19.9888 16.3471 20.023 16.3406 20.0503L16.1661 21.1862L17.1424 20.6388C17.3428 20.4883 17.6209 20.4746 17.8666 20.6114L18.83 21.1383L18.636 20.064C18.636 20.064 18.6295 19.9956 18.6295 19.9614C18.6295 19.7356 18.7201 19.5029 18.8688 19.3456L19.6188 18.5518L18.5908 18.4081C18.4032 18.3944 18.1575 18.3055 17.9959 17.9702L17.4657 16.8548L16.9678 17.9086C16.8967 18.1892 16.651 18.3944 16.3471 18.415L15.332 18.5587L16.0626 19.3045V19.2977Z" class="icon-base"></path>
</svg>
