<svg viewBox="0 0 24 24" fill="currentColor" xmlns="http://www.w3.org/2000/svg" focusable="false">
  <title>User Classic Icon</title>
  <path fill-rule="evenodd" clip-rule="evenodd" d="M7.86667 9.70311C7.86667 11.7958 9.00086 13.6378 10.7083 14.6886C7.91111 15.0741 5.75521 17.3964 5.75521 20.1963V20.7092C5.74619 21.2743 5.73716 21.8654 5.83643 22.4566C5.8897 22.7792 6.16122 23.0152 6.48315 23.0395V23.0415H6.52644C6.53421 23.0416 6.54201 23.0416 6.54983 23.0415H21.4248V23.0381C21.4418 23.0388 21.4563 23.039 21.4628 23.039L21.4575 23.0391H21.4665L21.4628 23.039C21.8125 23.0366 22.1166 22.7939 22.1704 22.4566C22.2627 21.907 22.2536 21.3649 22.2446 20.8303L22.2426 20.7092V20.1963C22.2426 17.3987 20.0903 15.078 17.2965 14.6896C19.0048 13.6389 20.1397 11.7965 20.1397 9.70311C20.1397 6.44303 17.3873 3.7915 14.0032 3.7915C10.6191 3.7915 7.86667 6.44303 7.86667 9.70311Z" fill="transparent" class="icon-offset"></path>
  <path fill-rule="evenodd" clip-rule="evenodd" d="M8.40903 13.3877C6.5464 12.2414 5.30909 10.232 5.30909 7.94902C5.30909 4.39258 8.31173 1.5 12.0035 1.5C15.6953 1.5 18.6979 4.39258 18.6979 7.94902C18.6979 10.2327 17.4598 12.2427 15.5962 13.3888C18.644 13.8126 20.992 16.3443 20.992 19.3961V19.9557C20.9926 19.9996 20.9934 20.0437 20.9941 20.0877C21.0039 20.6709 21.0139 21.2623 20.9132 21.8619C20.8544 22.2299 20.5228 22.4947 20.1412 22.4973C20.1234 22.4972 20.0517 22.4961 20.0173 22.4878C19.5842 22.4215 19.2987 22.0326 19.3676 21.6153C19.4562 21.1127 19.4463 20.5437 19.4266 19.9841V19.3961C19.4266 16.8829 17.31 14.8439 14.7012 14.8439H9.31614C6.70729 14.8439 4.59068 16.8829 4.59068 19.3961V19.9841C4.58084 20.5342 4.57099 21.1127 4.64975 21.6153C4.71866 22.0326 4.43317 22.4215 4 22.4878C3.56683 22.5637 3.1632 22.2792 3.09429 21.8619C2.98599 21.217 2.99584 20.5721 3.00568 19.9557V19.3961C3.00568 16.3417 5.35757 13.8083 8.40903 13.3877ZM20.1412 22.4973C20.1393 22.4973 20.1374 22.4973 20.1355 22.4973H20.1453C20.1453 22.4973 20.1439 22.4973 20.1412 22.4973ZM6.88425 7.94902C6.88425 5.22715 9.17806 3.01742 12.0035 3.01742C14.8289 3.01742 17.1227 5.22715 17.1227 7.94902C17.1227 10.6709 14.8289 12.8806 12.0035 12.8806C9.17806 12.8806 6.88425 10.6709 6.88425 7.94902Z" class="icon-base"></path>
</svg>
