<svg viewBox="0 0 24 24" fill="currentColor" xmlns="http://www.w3.org/2000/svg" focusable="false">
  <title>Wallet Icon</title>
  <path d="M6.23066 7.5C5.27741 7.5 4.5 8.38056 4.5 9.46029V22.0397C4.5 23.1194 5.27741 24 6.23066 24H22.2693C23.2226 24 24 23.1194 24 22.0397V9.46029C24 8.38056 23.2226 7.5 22.2693 7.5H6.23066Z" fill="transparent" class="icon-offset"></path>
  <path d="M22.5 17.715H17.6383C15.7239 17.715 14.1636 16.215 14.1636 14.3625C14.1636 12.51 15.7239 11.0175 17.6311 11.01H22.5V12.51H17.6383C16.5186 12.51 15.6084 13.35 15.6084 14.3625C15.6084 15.375 16.5186 16.215 17.6383 16.215H22.5V17.715Z" class="icon-base"></path>
  <path d="M18.888 22.5H5.11197C3.11816 22.5 1.5 20.82 1.5 18.75V8.385C1.5 6.315 3.11816 4.635 5.11197 4.635H18.888C20.8818 4.635 22.5 6.315 22.5 8.385V18.75C22.5 20.82 20.8818 22.5 18.888 22.5ZM5.11197 6.135C3.92002 6.135 2.94479 7.1475 2.94479 8.385V18.75C2.94479 19.9875 3.92002 21 5.11197 21H18.888C20.08 21 21.0552 19.9875 21.0552 18.75V8.385C21.0552 7.1475 20.08 6.135 18.888 6.135H5.11197Z" class="icon-base"></path>
  <path d="M2.94479 9.135H1.5V5.25C1.5 3.18 3.11816 1.5 5.11197 1.5H16.2152C18.209 1.5 19.8271 3.18 19.8271 5.25V6L18.3823 6.03V5.25C18.3823 4.0125 17.4071 3 16.2152 3H5.11197C3.92002 3 2.94479 4.0125 2.94479 5.25V9.135Z" class="icon-base"></path>
  <path d="M12.372 10.1175H6.85294C6.45562 10.1175 6.13055 9.78 6.13055 9.3675C6.13055 8.955 6.45562 8.6175 6.85294 8.6175H12.372C12.7693 8.6175 13.0944 8.955 13.0944 9.3675C13.0944 9.78 12.7693 10.1175 12.372 10.1175Z" class="icon-base"></path>
</svg>
