<svg viewBox="0 0 24 24" fill="currentColor" xmlns="http://www.w3.org/2000/svg" focusable="false">
  <title>Wheel Bag Icon</title>
  <path fill-rule="evenodd" clip-rule="evenodd" d="M17.7137 21.0288H9.43543C8.35765 21.0288 6.50015 20.2515 6.50015 17.8765L6.5 12.1582C6.50015 11.0616 6.67994 8.69995 9.79589 8.69995H17.7137C20.8296 8.69995 21 11.1712 21 12.1582V17.5994C21 18.5849 20.8296 21.0288 17.7137 21.0288Z" fill="transparent" class="icon-offset"></path>
  <path fill-rule="evenodd" clip-rule="evenodd" d="M13.5435 1.5C14.8941 1.50025 15.9895 2.59054 15.9897 3.93555V6.4668C18.6817 6.57258 20.3392 8.36361 20.3394 11.1875V16.3066C20.3394 18.9868 18.8463 20.7343 16.3931 20.9961V21.8438C16.3931 22.2047 16.0963 22.5 15.7339 22.5C15.3714 22.5 15.0747 22.2047 15.0747 21.8438V21.0322H8.92139V21.8438C8.92139 22.2047 8.62467 22.5 8.26221 22.5C7.89977 22.5 7.60303 22.2047 7.60303 21.8438V20.9951C5.1496 20.7328 3.6499 18.9862 3.6499 16.3066V11.1875C3.65003 8.36356 5.3078 6.57253 8.00732 6.4668V3.93555C8.00757 2.59047 9.10289 1.50013 10.4536 1.5H13.5435ZM8.26318 7.7666C6.13785 7.7666 4.96826 8.98116 4.96826 11.1797V16.2988C4.96835 18.4972 6.13793 19.7109 8.26318 19.7109H15.7349C17.8517 19.7109 19.0219 18.4971 19.022 16.2988V11.1797C19.022 8.98124 17.8518 7.76669 15.7349 7.7666H8.26318ZM8.26221 10.335C8.62467 10.335 8.92139 10.6303 8.92139 10.9912V16.6514C8.92139 17.0123 8.62467 17.3076 8.26221 17.3076C7.89977 17.3076 7.60303 17.0123 7.60303 16.6514V10.9912C7.60303 10.6303 7.89977 10.335 8.26221 10.335ZM11.9937 10.335C12.3561 10.335 12.6528 10.6303 12.6528 10.9912V16.6514C12.6528 17.0123 12.3561 17.3076 11.9937 17.3076C11.6313 17.3074 11.3345 17.0122 11.3345 16.6514V10.9912C11.3345 10.6304 11.6313 10.3351 11.9937 10.335ZM15.7349 10.335C16.0973 10.335 16.394 10.6303 16.394 10.9912V16.6514C16.394 17.0123 16.0973 17.3076 15.7349 17.3076C15.3726 17.3074 15.0767 17.0122 15.0767 16.6514V10.9912C15.0767 10.6304 15.3726 10.3352 15.7349 10.335ZM10.4536 2.8125C9.82781 2.81263 9.32593 3.32057 9.32568 3.93555V6.46289H14.6714V3.93555C14.6711 3.31245 14.1609 2.81275 13.5435 2.8125H10.4536Z" class="icon-base"></path>
</svg>
