<svg viewBox="0 0 24 24" fill="currentColor" xmlns="http://www.w3.org/2000/svg" focusable="false">
  <title>YouTube Icon</title>
  <path fill-rule="evenodd" clip-rule="evenodd" d="M4.41351 20.127C5.35654 20.47 8.73218 20.6414 12.0757 20.6414L12.065 20.6521C15.3656 20.6521 18.6555 20.4914 19.5235 20.1592C20.7559 19.7948 21.7096 18.7875 21.999 17.598C22.6634 15.6905 22.6634 8.3498 22.0204 6.4423C21.7204 5.17777 20.7666 4.17044 19.5449 3.80609C17.6053 3.17382 6.20313 3.20597 4.46709 3.83823C3.23471 4.19187 2.28096 5.20992 1.99162 6.39943C1.33792 8.33909 1.33792 15.7012 1.9809 17.6087C2.31311 18.8411 3.27758 19.8055 4.41351 20.127ZM5.0029 5.47783C5.75305 5.19921 9.03224 5.05989 12.2471 5.05989V5.07061C15.2906 5.07061 18.2697 5.18849 19.0198 5.44568C19.0306 5.4564 19.0413 5.4564 19.052 5.4564C19.695 5.64929 20.1986 6.18511 20.3808 6.92453C20.9166 8.51055 20.9166 15.5083 20.3594 17.1157C20.1879 17.7909 19.695 18.3267 18.9877 18.5303C17.5088 19.0876 6.52462 19.0876 4.93861 18.5089C4.31706 18.3374 3.81339 17.823 3.6205 17.1265C3.08468 15.5512 3.08468 8.53198 3.64193 6.89238C3.80268 6.21726 4.30634 5.68144 5.0029 5.47783ZM9.82575 15.4331C10.0401 15.551 10.2758 15.6153 10.5116 15.6153V15.626C10.7474 15.626 10.9724 15.5617 11.1867 15.4438L15.1196 13.2041C15.5375 12.9683 15.8055 12.5183 15.8055 12.0253C15.8055 11.5324 15.5483 11.0823 15.1196 10.8358L11.1867 8.59608C10.7581 8.34961 10.2437 8.34961 9.82575 8.59608C9.40781 8.84256 9.15062 9.28193 9.15062 9.77488V14.2543C9.15062 14.7472 9.3971 15.1866 9.82575 15.4331ZM13.7372 12.0146L10.8652 13.6435V10.3857L13.7372 12.0146Z" class="icon-base"></path>
</svg>
