<svg viewBox="0 0 24 24" fill="currentColor" xmlns="http://www.w3.org/2000/svg" focusable="false">
  <title>Zero Percent Icon</title>
  <path d="M9.75 20.856C5.08722 20.856 3 16.6973 3 12.5701C3 8.44294 5.08722 4.3 9.75 4.3C14.4128 4.3 16.5 8.45082 16.5 12.5623C16.5 16.6737 14.4128 20.8481 9.75 20.8481V20.856ZM9.75 8.36418C7.86756 8.36418 7.47375 10.6483 7.47375 12.5701C7.47375 14.1454 7.77305 16.7997 9.75 16.7997C11.727 16.7997 12.0263 14.4998 12.0263 12.5701C12.0263 10.6404 11.6324 8.36418 9.75 8.36418Z" fill="transparent" class="icon-offset"></path>
  <path fill-rule="evenodd" clip-rule="evenodd" d="M1.5 11.9918C1.5 16.3122 3.68497 20.6657 8.56611 20.6657V20.6574C13.4473 20.6574 15.6322 16.2875 15.6322 11.9835C15.6322 7.67953 13.4473 3.33432 8.56611 3.33432C3.68497 3.33432 1.5 7.67128 1.5 11.9918ZM2.81923 11.9835C2.81923 8.60299 4.31985 4.65355 8.56611 4.65355C12.8041 4.65355 14.313 8.60299 14.313 11.9835C14.313 15.6444 12.532 19.3382 8.56611 19.3382C4.60018 19.3382 2.81923 15.6444 2.81923 11.9835ZM4.86403 11.9918C4.86403 15.6444 6.20799 17.7386 8.56611 17.7386C10.916 17.7386 12.2682 15.6444 12.2682 11.9918C12.2682 7.01167 9.9513 6.26961 8.56611 6.26961C7.18092 6.26961 4.86403 7.01167 4.86403 11.9918ZM6.18326 11.9918C6.18326 9.97993 6.59552 7.58883 8.56611 7.58883C10.5367 7.58883 10.949 9.97169 10.949 11.9918C10.949 14.0118 10.6357 16.4194 8.56611 16.4194C6.49657 16.4194 6.18326 13.6408 6.18326 11.9918ZM17.7588 5.81576H17.8166C18.27 5.81576 18.6411 5.44472 18.6411 4.99124C18.6411 4.53775 18.27 4.16672 17.8166 4.16672H17.7588C17.3054 4.16672 16.9343 4.53775 16.9343 4.99124C16.9343 5.44472 17.3054 5.81576 17.7588 5.81576ZM17.7892 9.51776L17.7923 9.51777H17.784L17.7892 9.51776ZM18.254 9.32813C18.1234 9.45874 17.9605 9.51662 17.7892 9.51776C17.6172 9.51699 17.4535 9.45108 17.3223 9.32813C17.0667 9.07253 17.0667 8.65203 17.3223 8.39643L21.1893 4.52944C21.4449 4.27384 21.8654 4.27384 22.121 4.52944C22.3766 4.78504 22.3766 5.20555 22.121 5.46115L18.254 9.32813ZM21.7004 9.68258H21.6509C21.1974 9.68258 20.8264 9.31154 20.8264 8.85806C20.8264 8.40458 21.1974 8.03354 21.6509 8.03354C22.1044 8.03354 22.5002 8.40458 22.5002 8.85806C22.5002 9.31154 22.1539 9.68258 21.7004 9.68258Z" class="icon-base"></path>
</svg>
